<svg width="165" height="219" viewBox="0 0 165 219" fill="none" xmlns="http://www.w3.org/2000/svg">
<g clip-path="url(#clip0_4195_6573)">
<rect width="165" height="219" rx="10" fill="#343434"/>
<path d="M0 10C0 4.47715 4.47715 0 10 0H155C160.523 0 165 4.47715 165 10V37H0V10Z" fill="#4D4D4D"/>
<rect x="14" y="46" width="137" height="21" rx="3" fill="#4D4D4D"/>
<rect x="14" y="76" width="64" height="67" rx="3" fill="#4D4D4D"/>
<rect x="29" y="89" width="44" height="7" rx="2" fill="#666666"/>
<rect x="19" y="108" width="45" height="6" rx="2" fill="#666666"/>
<rect x="19" y="117" width="35" height="6" rx="2" fill="#666666"/>
<rect x="19" y="126" width="54" height="6" rx="2" fill="#666666"/>
<rect x="19" y="89" width="7" height="7" rx="2" fill="#953CDB"/>
<rect x="87" y="76" width="64" height="67" rx="3" fill="#4D4D4D"/>
<rect x="102" y="89" width="44" height="7" rx="2" fill="#666666"/>
<rect x="92" y="108" width="45" height="6" rx="2" fill="#666666"/>
<rect x="92" y="117" width="35" height="6" rx="2" fill="#666666"/>
<rect x="92" y="126" width="54" height="6" rx="2" fill="#666666"/>
<rect x="92" y="89" width="7" height="7" rx="2" fill="#E4AD15"/>
<rect x="14" y="153" width="11" height="48" rx="2" fill="#666666"/>
<path d="M14 191C14 189.895 14.8954 189 16 189H23C24.1046 189 25 189.895 25 191V199C25 200.105 24.1046 201 23 201H16C14.8954 201 14 200.105 14 199V191Z" fill="#2F92F0"/>
<rect x="30" y="153" width="11" height="48" rx="2" fill="#666666"/>
<path d="M30 189C30 187.895 30.8954 187 32 187H39C40.1046 187 41 187.895 41 189V199C41 200.105 40.1046 201 39 201H32C30.8954 201 30 200.105 30 199V189Z" fill="#2F92F0"/>
<rect x="45" y="153" width="11" height="48" rx="2" fill="#666666"/>
<rect x="61" y="153" width="11" height="48" rx="2" fill="#666666"/>
<path d="M61 180C61 178.895 61.8954 178 63 178H70C71.1046 178 72 178.895 72 180V199C72 200.105 71.1046 201 70 201H63C61.8954 201 61 200.105 61 199V180Z" fill="#2F92F0"/>
<path d="M45 185C45 183.895 45.8954 183 47 183H54C55.1046 183 56 183.895 56 185V199C56 200.105 55.1046 201 54 201H47C45.8954 201 45 200.105 45 199V185Z" fill="#2F92F0"/>
<rect x="77" y="153" width="11" height="48" rx="2" fill="#666666"/>
<path d="M77 172C77 170.895 77.8954 170 79 170H86C87.1046 170 88 170.895 88 172V199C88 200.105 87.1046 201 86 201H79C77.8954 201 77 200.105 77 199V172Z" fill="#2F92F0"/>
<rect x="93" y="153" width="11" height="48" rx="2" fill="#666666"/>
<path d="M93 165C93 163.895 93.8954 163 95 163H102C103.105 163 104 163.895 104 165V199C104 200.105 103.105 201 102 201H95C93.8954 201 93 200.105 93 199V165Z" fill="#2F92F0"/>
<rect x="124" y="153" width="11" height="48" rx="2" fill="#666666"/>
<rect x="140" y="153" width="11" height="48" rx="2" fill="#666666"/>
<rect x="109" y="153" width="11" height="48" rx="2" fill="#666666"/>
<path d="M109 172C109 170.895 109.895 170 111 170H118C119.105 170 120 170.895 120 172V199C120 200.105 119.105 201 118 201H111C109.895 201 109 200.105 109 199V172Z" fill="#2F92F0"/>
<path d="M124 180C124 178.895 124.895 178 126 178H133C134.105 178 135 178.895 135 180V199C135 200.105 134.105 201 133 201H126C124.895 201 124 200.105 124 199V180Z" fill="#2F92F0"/>
<path d="M140 185C140 183.895 140.895 183 142 183H149C150.105 183 151 183.895 151 185V199C151 200.105 150.105 201 149 201H142C140.895 201 140 200.105 140 199V185Z" fill="#2F92F0"/>
<rect x="117" y="10" width="36" height="16" rx="8" fill="#333333"/>
<rect x="137" y="11" width="14" height="14" rx="7" fill="#1AB98F"/>
<path d="M13.4254 18.03C14.1854 18.03 14.842 18.1733 15.3954 18.46C15.9554 18.74 16.382 19.1433 16.6754 19.67C16.9754 20.1967 17.1254 20.8167 17.1254 21.53C17.1254 22.2433 16.9754 22.8633 16.6754 23.39C16.382 23.91 15.9554 24.31 15.3954 24.59C14.842 24.8633 14.1854 25 13.4254 25H11.2554V18.03H13.4254ZM13.4254 24.25C14.3254 24.25 15.012 24.0133 15.4854 23.54C15.9587 23.06 16.1954 22.39 16.1954 21.53C16.1954 20.6633 15.9554 19.9867 15.4754 19.5C15.002 19.0133 14.3187 18.77 13.4254 18.77H12.1654V24.25H13.4254ZM17.9857 22.24C17.9857 21.68 18.099 21.19 18.3257 20.77C18.5523 20.3433 18.8623 20.0133 19.2557 19.78C19.6557 19.5467 20.099 19.43 20.5857 19.43C21.0657 19.43 21.4823 19.5333 21.8357 19.74C22.189 19.9467 22.4523 20.2067 22.6257 20.52V19.52H23.5457V25H22.6257V23.98C22.4457 24.3 22.1757 24.5667 21.8157 24.78C21.4623 24.9867 21.049 25.09 20.5757 25.09C20.089 25.09 19.649 24.97 19.2557 24.73C18.8623 24.49 18.5523 24.1533 18.3257 23.72C18.099 23.2867 17.9857 22.7933 17.9857 22.24ZM22.6257 22.25C22.6257 21.8367 22.5423 21.4767 22.3757 21.17C22.209 20.8633 21.9823 20.63 21.6957 20.47C21.4157 20.3033 21.1057 20.22 20.7657 20.22C20.4257 20.22 20.1157 20.3 19.8357 20.46C19.5557 20.62 19.3323 20.8533 19.1657 21.16C18.999 21.4667 18.9157 21.8267 18.9157 22.24C18.9157 22.66 18.999 23.0267 19.1657 23.34C19.3323 23.6467 19.5557 23.8833 19.8357 24.05C20.1157 24.21 20.4257 24.29 20.7657 24.29C21.1057 24.29 21.4157 24.21 21.6957 24.05C21.9823 23.8833 22.209 23.6467 22.3757 23.34C22.5423 23.0267 22.6257 22.6633 22.6257 22.25ZM25.9935 20.41C26.1535 20.0967 26.3801 19.8533 26.6735 19.68C26.9735 19.5067 27.3368 19.42 27.7635 19.42V20.36H27.5235C26.5035 20.36 25.9935 20.9133 25.9935 22.02V25H25.0835V19.52H25.9935V20.41ZM31.8739 25L29.7239 22.58V25H28.8139V17.6H29.7239V21.95L31.8339 19.52H33.1039L30.5239 22.25L33.1139 25H31.8739ZM43.2164 19.42C43.6431 19.42 44.0231 19.51 44.3564 19.69C44.6898 19.8633 44.9531 20.1267 45.1464 20.48C45.3398 20.8333 45.4364 21.2633 45.4364 21.77V25H44.5364V21.9C44.5364 21.3533 44.3998 20.9367 44.1264 20.65C43.8598 20.3567 43.4964 20.21 43.0364 20.21C42.5631 20.21 42.1864 20.3633 41.9064 20.67C41.6264 20.97 41.4864 21.4067 41.4864 21.98V25H40.5864V21.9C40.5864 21.3533 40.4498 20.9367 40.1764 20.65C39.9098 20.3567 39.5464 20.21 39.0864 20.21C38.6131 20.21 38.2364 20.3633 37.9564 20.67C37.6764 20.97 37.5364 21.4067 37.5364 21.98V25H36.6264V19.52H37.5364V20.31C37.7164 20.0233 37.9564 19.8033 38.2564 19.65C38.5631 19.4967 38.8998 19.42 39.2664 19.42C39.7264 19.42 40.1331 19.5233 40.4864 19.73C40.8398 19.9367 41.1031 20.24 41.2764 20.64C41.4298 20.2533 41.6831 19.9533 42.0364 19.74C42.3898 19.5267 42.7831 19.42 43.2164 19.42ZM49.3192 25.09C48.8058 25.09 48.3392 24.9733 47.9192 24.74C47.5058 24.5067 47.1792 24.1767 46.9392 23.75C46.7058 23.3167 46.5892 22.8167 46.5892 22.25C46.5892 21.69 46.7092 21.1967 46.9492 20.77C47.1958 20.3367 47.5292 20.0067 47.9492 19.78C48.3692 19.5467 48.8392 19.43 49.3592 19.43C49.8792 19.43 50.3492 19.5467 50.7692 19.78C51.1892 20.0067 51.5192 20.3333 51.7592 20.76C52.0058 21.1867 52.1292 21.6833 52.1292 22.25C52.1292 22.8167 52.0025 23.3167 51.7492 23.75C51.5025 24.1767 51.1658 24.5067 50.7392 24.74C50.3125 24.9733 49.8392 25.09 49.3192 25.09ZM49.3192 24.29C49.6458 24.29 49.9525 24.2133 50.2392 24.06C50.5258 23.9067 50.7558 23.6767 50.9292 23.37C51.1092 23.0633 51.1992 22.69 51.1992 22.25C51.1992 21.81 51.1125 21.4367 50.9392 21.13C50.7658 20.8233 50.5392 20.5967 50.2592 20.45C49.9792 20.2967 49.6758 20.22 49.3492 20.22C49.0158 20.22 48.7092 20.2967 48.4292 20.45C48.1558 20.5967 47.9358 20.8233 47.7692 21.13C47.6025 21.4367 47.5192 21.81 47.5192 22.25C47.5192 22.6967 47.5992 23.0733 47.7592 23.38C47.9258 23.6867 48.1458 23.9167 48.4192 24.07C48.6925 24.2167 48.9925 24.29 49.3192 24.29ZM52.9857 22.24C52.9857 21.68 53.099 21.19 53.3257 20.77C53.5523 20.3433 53.8623 20.0133 54.2557 19.78C54.6557 19.5467 55.1023 19.43 55.5957 19.43C56.0223 19.43 56.419 19.53 56.7857 19.73C57.1523 19.9233 57.4323 20.18 57.6257 20.5V17.6H58.5457V25H57.6257V23.97C57.4457 24.2967 57.179 24.5667 56.8257 24.78C56.4723 24.9867 56.059 25.09 55.5857 25.09C55.099 25.09 54.6557 24.97 54.2557 24.73C53.8623 24.49 53.5523 24.1533 53.3257 23.72C53.099 23.2867 52.9857 22.7933 52.9857 22.24ZM57.6257 22.25C57.6257 21.8367 57.5423 21.4767 57.3757 21.17C57.209 20.8633 56.9823 20.63 56.6957 20.47C56.4157 20.3033 56.1057 20.22 55.7657 20.22C55.4257 20.22 55.1157 20.3 54.8357 20.46C54.5557 20.62 54.3323 20.8533 54.1657 21.16C53.999 21.4667 53.9157 21.8267 53.9157 22.24C53.9157 22.66 53.999 23.0267 54.1657 23.34C54.3323 23.6467 54.5557 23.8833 54.8357 24.05C55.1157 24.21 55.4257 24.29 55.7657 24.29C56.1057 24.29 56.4157 24.21 56.6957 24.05C56.9823 23.8833 57.209 23.6467 57.3757 23.34C57.5423 23.0267 57.6257 22.6633 57.6257 22.25ZM65.0835 22.05C65.0835 22.2233 65.0735 22.4067 65.0535 22.6H60.6735C60.7068 23.14 60.8901 23.5633 61.2235 23.87C61.5635 24.17 61.9735 24.32 62.4535 24.32C62.8468 24.32 63.1735 24.23 63.4335 24.05C63.7001 23.8633 63.8868 23.6167 63.9935 23.31H64.9735C64.8268 23.8367 64.5335 24.2667 64.0935 24.6C63.6535 24.9267 63.1068 25.09 62.4535 25.09C61.9335 25.09 61.4668 24.9733 61.0535 24.74C60.6468 24.5067 60.3268 24.1767 60.0935 23.75C59.8601 23.3167 59.7435 22.8167 59.7435 22.25C59.7435 21.6833 59.8568 21.1867 60.0835 20.76C60.3101 20.3333 60.6268 20.0067 61.0335 19.78C61.4468 19.5467 61.9201 19.43 62.4535 19.43C62.9735 19.43 63.4335 19.5433 63.8335 19.77C64.2335 19.9967 64.5401 20.31 64.7535 20.71C64.9735 21.1033 65.0835 21.55 65.0835 22.05ZM64.1435 21.86C64.1435 21.5133 64.0668 21.2167 63.9135 20.97C63.7601 20.7167 63.5501 20.5267 63.2835 20.4C63.0235 20.2667 62.7335 20.2 62.4135 20.2C61.9535 20.2 61.5601 20.3467 61.2335 20.64C60.9135 20.9333 60.7301 21.34 60.6835 21.86H64.1435Z" fill="white"/>
<path d="M24.8528 59.056C24.4848 59.056 24.1541 58.992 23.8608 58.864C23.5728 58.7307 23.3461 58.5493 23.1808 58.32C23.0154 58.0853 22.9301 57.816 22.9248 57.512H23.7008C23.7274 57.7733 23.8341 57.9947 24.0208 58.176C24.2128 58.352 24.4901 58.44 24.8528 58.44C25.1994 58.44 25.4714 58.3547 25.6688 58.184C25.8714 58.008 25.9728 57.784 25.9728 57.512C25.9728 57.2987 25.9141 57.1253 25.7968 56.992C25.6794 56.8587 25.5328 56.7573 25.3568 56.688C25.1808 56.6187 24.9434 56.544 24.6448 56.464C24.2768 56.368 23.9808 56.272 23.7568 56.176C23.5381 56.08 23.3488 55.9307 23.1888 55.728C23.0341 55.52 22.9568 55.2427 22.9568 54.896C22.9568 54.592 23.0341 54.3227 23.1888 54.088C23.3434 53.8533 23.5594 53.672 23.8368 53.544C24.1194 53.416 24.4421 53.352 24.8048 53.352C25.3274 53.352 25.7541 53.4827 26.0848 53.744C26.4208 54.0053 26.6101 54.352 26.6528 54.784H25.8528C25.8261 54.5707 25.7141 54.384 25.5168 54.224C25.3194 54.0587 25.0581 53.976 24.7328 53.976C24.4288 53.976 24.1808 54.056 23.9888 54.216C23.7968 54.3707 23.7008 54.5893 23.7008 54.872C23.7008 55.0747 23.7568 55.24 23.8688 55.368C23.9861 55.496 24.1274 55.5947 24.2928 55.664C24.4634 55.728 24.7008 55.8027 25.0048 55.888C25.3728 55.9893 25.6688 56.0907 25.8928 56.192C26.1168 56.288 26.3088 56.44 26.4688 56.648C26.6288 56.8507 26.7088 57.128 26.7088 57.48C26.7088 57.752 26.6368 58.008 26.4928 58.248C26.3488 58.488 26.1354 58.6827 25.8528 58.832C25.5701 58.9813 25.2368 59.056 24.8528 59.056ZM31.7801 56.64C31.7801 56.7787 31.7721 56.9253 31.7561 57.08H28.2521C28.2787 57.512 28.4254 57.8507 28.6921 58.096C28.9641 58.336 29.2921 58.456 29.6761 58.456C29.9907 58.456 30.2521 58.384 30.4601 58.24C30.6734 58.0907 30.8227 57.8933 30.9081 57.648H31.6921C31.5747 58.0693 31.3401 58.4133 30.9881 58.68C30.6361 58.9413 30.1987 59.072 29.6761 59.072C29.2601 59.072 28.8867 58.9787 28.5561 58.792C28.2307 58.6053 27.9747 58.3413 27.7881 58C27.6014 57.6533 27.5081 57.2533 27.5081 56.8C27.5081 56.3467 27.5987 55.9493 27.7801 55.608C27.9614 55.2667 28.2147 55.0053 28.5401 54.824C28.8707 54.6373 29.2494 54.544 29.6761 54.544C30.0921 54.544 30.4601 54.6347 30.7801 54.816C31.1001 54.9973 31.3454 55.248 31.5161 55.568C31.6921 55.8827 31.7801 56.24 31.7801 56.64ZM31.0281 56.488C31.0281 56.2107 30.9667 55.9733 30.8441 55.776C30.7214 55.5733 30.5534 55.4213 30.3401 55.32C30.1321 55.2133 29.9001 55.16 29.6441 55.16C29.2761 55.16 28.9614 55.2773 28.7001 55.512C28.4441 55.7467 28.2974 56.072 28.2601 56.488H31.0281ZM32.469 56.792C32.469 56.344 32.5597 55.952 32.741 55.616C32.9223 55.2747 33.1703 55.0107 33.485 54.824C33.805 54.6373 34.1597 54.544 34.549 54.544C34.933 54.544 35.2663 54.6267 35.549 54.792C35.8317 54.9573 36.0423 55.1653 36.181 55.416V54.616H36.917V59H36.181V58.184C36.037 58.44 35.821 58.6533 35.533 58.824C35.2503 58.9893 34.9197 59.072 34.541 59.072C34.1517 59.072 33.7997 58.976 33.485 58.784C33.1703 58.592 32.9223 58.3227 32.741 57.976C32.5597 57.6293 32.469 57.2347 32.469 56.792ZM36.181 56.8C36.181 56.4693 36.1143 56.1813 35.981 55.936C35.8477 55.6907 35.6663 55.504 35.437 55.376C35.213 55.2427 34.965 55.176 34.693 55.176C34.421 55.176 34.173 55.24 33.949 55.368C33.725 55.496 33.5463 55.6827 33.413 55.928C33.2797 56.1733 33.213 56.4613 33.213 56.792C33.213 57.128 33.2797 57.4213 33.413 57.672C33.5463 57.9173 33.725 58.1067 33.949 58.24C34.173 58.368 34.421 58.432 34.693 58.432C34.965 58.432 35.213 58.368 35.437 58.24C35.6663 58.1067 35.8477 57.9173 35.981 57.672C36.1143 57.4213 36.181 57.1307 36.181 56.8ZM38.8753 55.328C39.0033 55.0773 39.1846 54.8827 39.4193 54.744C39.6593 54.6053 39.9499 54.536 40.2913 54.536V55.288H40.0993C39.2833 55.288 38.8753 55.7307 38.8753 56.616V59H38.1473V54.616H38.8753V55.328ZM40.8596 56.8C40.8596 56.3467 40.9503 55.952 41.1316 55.616C41.313 55.2747 41.5636 55.0107 41.8836 54.824C42.209 54.6373 42.5796 54.544 42.9956 54.544C43.5343 54.544 43.977 54.6747 44.3236 54.936C44.6756 55.1973 44.9076 55.56 45.0196 56.024H44.2356C44.161 55.7573 44.0143 55.5467 43.7956 55.392C43.5823 55.2373 43.3156 55.16 42.9956 55.16C42.5796 55.16 42.2436 55.304 41.9876 55.592C41.7316 55.8747 41.6036 56.2773 41.6036 56.8C41.6036 57.328 41.7316 57.736 41.9876 58.024C42.2436 58.312 42.5796 58.456 42.9956 58.456C43.3156 58.456 43.5823 58.3813 43.7956 58.232C44.009 58.0827 44.1556 57.8693 44.2356 57.592H45.0196C44.9023 58.04 44.6676 58.4 44.3156 58.672C43.9636 58.9387 43.5236 59.072 42.9956 59.072C42.5796 59.072 42.209 58.9787 41.8836 58.792C41.5636 58.6053 41.313 58.3413 41.1316 58C40.9503 57.6587 40.8596 57.2587 40.8596 56.8ZM48.167 54.536C48.4977 54.536 48.7963 54.608 49.063 54.752C49.3297 54.8907 49.5377 55.1013 49.687 55.384C49.8417 55.6667 49.919 56.0107 49.919 56.416V59H49.199V56.52C49.199 56.0827 49.0897 55.7493 48.871 55.52C48.6523 55.2853 48.3537 55.168 47.975 55.168C47.591 55.168 47.2843 55.288 47.055 55.528C46.831 55.768 46.719 56.1173 46.719 56.576V59H45.991V53.08H46.719V55.24C46.863 55.016 47.0603 54.8427 47.311 54.72C47.567 54.5973 47.8523 54.536 48.167 54.536ZM51.3402 59.048C51.2015 59.048 51.0842 59 50.9882 58.904C50.8922 58.808 50.8442 58.6907 50.8442 58.552C50.8442 58.4133 50.8922 58.296 50.9882 58.2C51.0842 58.104 51.2015 58.056 51.3402 58.056C51.4735 58.056 51.5855 58.104 51.6762 58.2C51.7722 58.296 51.8202 58.4133 51.8202 58.552C51.8202 58.6907 51.7722 58.808 51.6762 58.904C51.5855 59 51.4735 59.048 51.3402 59.048ZM53.0199 59.048C52.8812 59.048 52.7639 59 52.6679 58.904C52.5719 58.808 52.5239 58.6907 52.5239 58.552C52.5239 58.4133 52.5719 58.296 52.6679 58.2C52.7639 58.104 52.8812 58.056 53.0199 58.056C53.1532 58.056 53.2652 58.104 53.3559 58.2C53.4519 58.296 53.4999 58.4133 53.4999 58.552C53.4999 58.6907 53.4519 58.808 53.3559 58.904C53.2652 59 53.1532 59.048 53.0199 59.048ZM54.6996 59.048C54.5609 59.048 54.4436 59 54.3476 58.904C54.2516 58.808 54.2036 58.6907 54.2036 58.552C54.2036 58.4133 54.2516 58.296 54.3476 58.2C54.4436 58.104 54.5609 58.056 54.6996 58.056C54.8329 58.056 54.9449 58.104 55.0356 58.2C55.1316 58.296 55.1796 58.4133 55.1796 58.552C55.1796 58.6907 55.1316 58.808 55.0356 58.904C54.9449 59 54.8329 59.048 54.6996 59.048Z" fill="#A0A0A0"/>
<path d="M143.332 59.7143C142.55 59.7143 141.786 59.4881 141.136 59.0643C140.486 58.6404 139.979 58.038 139.68 57.3332C139.381 56.6284 139.302 55.8528 139.455 55.1047C139.607 54.3564 139.984 53.6692 140.537 53.1297C141.09 52.5903 141.794 52.2229 142.561 52.0741C143.327 51.9253 144.122 52.0017 144.845 52.2936C145.567 52.5855 146.184 53.0799 146.619 53.7142C147.053 54.3485 147.285 55.0943 147.285 55.8571C147.285 56.3636 147.183 56.8652 146.984 57.3332C146.785 57.8012 146.494 58.2264 146.127 58.5845C145.76 58.9427 145.324 59.2268 144.845 59.4207C144.365 59.6145 143.851 59.7143 143.332 59.7143ZM143.332 52.7735C142.709 52.7735 142.1 52.9537 141.582 53.2914C141.064 53.6292 140.66 54.1092 140.422 54.6708C140.183 55.2323 140.121 55.8503 140.243 56.4465C140.364 57.0427 140.664 57.5903 141.105 58.0201C141.545 58.4499 142.106 58.7427 142.717 58.8613C143.328 58.9798 143.962 58.919 144.537 58.6864C145.113 58.4537 145.605 58.0598 145.951 57.5544C146.297 57.049 146.482 56.4548 146.482 55.8469C146.482 55.0318 146.15 54.25 145.559 53.6737C144.968 53.0973 144.167 52.7735 143.332 52.7735Z" fill="#A0A0A0"/>
<path d="M148.25 60.9992C148.204 60.9993 148.158 60.9905 148.115 60.9732C148.073 60.9559 148.034 60.9305 148.001 60.8983L146.061 59.0057C145.999 58.9406 145.965 58.8544 145.967 58.7653C145.968 58.6763 146.005 58.5914 146.07 58.5284C146.135 58.4654 146.222 58.4293 146.313 58.4278C146.404 58.4262 146.492 58.4593 146.559 58.52L148.499 60.4126C148.565 60.477 148.602 60.5644 148.602 60.6555C148.602 60.7465 148.565 60.8339 148.499 60.8983C148.467 60.9305 148.428 60.9559 148.385 60.9732C148.342 60.9905 148.296 60.9993 148.25 60.9992Z" fill="#A0A0A0"/>
</g>
<defs>
<clipPath id="clip0_4195_6573">
<rect width="165" height="219" fill="white"/>
</clipPath>
</defs>
</svg>
