<svg width="165" height="219" viewBox="0 0 165 219" fill="none" xmlns="http://www.w3.org/2000/svg">
<rect width="165" height="219" rx="10" fill="white"/>
<g filter="url(#filter0_d_4195_6661)">
<path d="M0 10C0 4.47715 4.47715 0 10 0H155C160.523 0 165 4.47715 165 10V37H0V10Z" fill="white"/>
</g>
<rect x="14" y="46" width="137" height="21" rx="3" fill="#F8F8F8"/>
<rect x="14" y="76" width="64" height="67" rx="3" fill="#F8F8F8"/>
<rect x="29" y="89" width="44" height="7" rx="2" fill="#D7D7D7"/>
<rect x="19" y="108" width="45" height="6" rx="2" fill="#D7D7D7"/>
<rect x="19" y="117" width="35" height="6" rx="2" fill="#D7D7D7"/>
<rect x="19" y="126" width="54" height="6" rx="2" fill="#D7D7D7"/>
<rect x="19" y="89" width="7" height="7" rx="2" fill="#953CDB"/>
<rect x="87" y="76" width="64" height="67" rx="3" fill="#F8F8F8"/>
<rect x="102" y="89" width="44" height="7" rx="2" fill="#D7D7D7"/>
<rect x="92" y="108" width="45" height="6" rx="2" fill="#D7D7D7"/>
<rect x="92" y="117" width="35" height="6" rx="2" fill="#D7D7D7"/>
<rect x="92" y="126" width="54" height="6" rx="2" fill="#D7D7D7"/>
<rect x="92" y="89" width="7" height="7" rx="2" fill="#E4AD15"/>
<rect x="14" y="153" width="11" height="48" rx="2" fill="#F8F8F8"/>
<path d="M14 191C14 189.895 14.8954 189 16 189H23C24.1046 189 25 189.895 25 191V199C25 200.105 24.1046 201 23 201H16C14.8954 201 14 200.105 14 199V191Z" fill="#2F92F0"/>
<rect x="30" y="153" width="11" height="48" rx="2" fill="#F8F8F8"/>
<path d="M30 189C30 187.895 30.8954 187 32 187H39C40.1046 187 41 187.895 41 189V199C41 200.105 40.1046 201 39 201H32C30.8954 201 30 200.105 30 199V189Z" fill="#2F92F0"/>
<rect x="45" y="153" width="11" height="48" rx="2" fill="#F8F8F8"/>
<rect x="61" y="153" width="11" height="48" rx="2" fill="#F8F8F8"/>
<path d="M61 180C61 178.895 61.8954 178 63 178H70C71.1046 178 72 178.895 72 180V199C72 200.105 71.1046 201 70 201H63C61.8954 201 61 200.105 61 199V180Z" fill="#2F92F0"/>
<path d="M45 185C45 183.895 45.8954 183 47 183H54C55.1046 183 56 183.895 56 185V199C56 200.105 55.1046 201 54 201H47C45.8954 201 45 200.105 45 199V185Z" fill="#2F92F0"/>
<rect x="77" y="153" width="11" height="48" rx="2" fill="#F8F8F8"/>
<path d="M77 172C77 170.895 77.8954 170 79 170H86C87.1046 170 88 170.895 88 172V199C88 200.105 87.1046 201 86 201H79C77.8954 201 77 200.105 77 199V172Z" fill="#2F92F0"/>
<rect x="93" y="153" width="11" height="48" rx="2" fill="#F8F8F8"/>
<path d="M93 165C93 163.895 93.8954 163 95 163H102C103.105 163 104 163.895 104 165V199C104 200.105 103.105 201 102 201H95C93.8954 201 93 200.105 93 199V165Z" fill="#2F92F0"/>
<rect x="124" y="153" width="11" height="48" rx="2" fill="#F8F8F8"/>
<rect x="140" y="153" width="11" height="48" rx="2" fill="#F8F8F8"/>
<rect x="109" y="153" width="11" height="48" rx="2" fill="#F8F8F8"/>
<path d="M109 172C109 170.895 109.895 170 111 170H118C119.105 170 120 170.895 120 172V199C120 200.105 119.105 201 118 201H111C109.895 201 109 200.105 109 199V172Z" fill="#2F92F0"/>
<path d="M124 180C124 178.895 124.895 178 126 178H133C134.105 178 135 178.895 135 180V199C135 200.105 134.105 201 133 201H126C124.895 201 124 200.105 124 199V180Z" fill="#2F92F0"/>
<path d="M140 185C140 183.895 140.895 183 142 183H149C150.105 183 151 183.895 151 185V199C151 200.105 150.105 201 149 201H142C140.895 201 140 200.105 140 199V185Z" fill="#2F92F0"/>
<rect x="117" y="10" width="36" height="16" rx="8" fill="#333333"/>
<rect x="137" y="11" width="14" height="14" rx="7" fill="#1AB98F"/>
<path d="M11.7308 24.26H14.1708V25H10.8208V18.03H11.7308V24.26ZM15.6072 18.63C15.4339 18.63 15.2872 18.57 15.1672 18.45C15.0472 18.33 14.9872 18.1833 14.9872 18.01C14.9872 17.8367 15.0472 17.69 15.1672 17.57C15.2872 17.45 15.4339 17.39 15.6072 17.39C15.7739 17.39 15.9139 17.45 16.0272 17.57C16.1472 17.69 16.2072 17.8367 16.2072 18.01C16.2072 18.1833 16.1472 18.33 16.0272 18.45C15.9139 18.57 15.7739 18.63 15.6072 18.63ZM16.0472 19.52V25H15.1372V19.52H16.0472ZM19.8581 19.43C20.3315 19.43 20.7448 19.5333 21.0981 19.74C21.4581 19.9467 21.7248 20.2067 21.8981 20.52V19.52H22.8181V25.12C22.8181 25.62 22.7115 26.0633 22.4981 26.45C22.2848 26.8433 21.9781 27.15 21.5781 27.37C21.1848 27.59 20.7248 27.7 20.1981 27.7C19.4781 27.7 18.8781 27.53 18.3981 27.19C17.9181 26.85 17.6348 26.3867 17.5481 25.8H18.4481C18.5481 26.1333 18.7548 26.4 19.0681 26.6C19.3815 26.8067 19.7581 26.91 20.1981 26.91C20.6981 26.91 21.1048 26.7533 21.4181 26.44C21.7381 26.1267 21.8981 25.6867 21.8981 25.12V23.97C21.7181 24.29 21.4515 24.5567 21.0981 24.77C20.7448 24.9833 20.3315 25.09 19.8581 25.09C19.3715 25.09 18.9281 24.97 18.5281 24.73C18.1348 24.49 17.8248 24.1533 17.5981 23.72C17.3715 23.2867 17.2581 22.7933 17.2581 22.24C17.2581 21.68 17.3715 21.19 17.5981 20.77C17.8248 20.3433 18.1348 20.0133 18.5281 19.78C18.9281 19.5467 19.3715 19.43 19.8581 19.43ZM21.8981 22.25C21.8981 21.8367 21.8148 21.4767 21.6481 21.17C21.4815 20.8633 21.2548 20.63 20.9681 20.47C20.6881 20.3033 20.3781 20.22 20.0381 20.22C19.6981 20.22 19.3881 20.3 19.1081 20.46C18.8281 20.62 18.6048 20.8533 18.4381 21.16C18.2715 21.4667 18.1881 21.8267 18.1881 22.24C18.1881 22.66 18.2715 23.0267 18.4381 23.34C18.6048 23.6467 18.8281 23.8833 19.1081 24.05C19.3881 24.21 19.6981 24.29 20.0381 24.29C20.3781 24.29 20.6881 24.21 20.9681 24.05C21.2548 23.8833 21.4815 23.6467 21.6481 23.34C21.8148 23.0267 21.8981 22.6633 21.8981 22.25ZM27.0759 19.42C27.4893 19.42 27.8626 19.51 28.1959 19.69C28.5293 19.8633 28.7893 20.1267 28.9759 20.48C29.1693 20.8333 29.2659 21.2633 29.2659 21.77V25H28.3659V21.9C28.3659 21.3533 28.2293 20.9367 27.9559 20.65C27.6826 20.3567 27.3093 20.21 26.8359 20.21C26.3559 20.21 25.9726 20.36 25.6859 20.66C25.4059 20.96 25.2659 21.3967 25.2659 21.97V25H24.3559V17.6H25.2659V20.3C25.4459 20.02 25.6926 19.8033 26.0059 19.65C26.3259 19.4967 26.6826 19.42 27.0759 19.42ZM31.8624 20.27V23.5C31.8624 23.7667 31.9191 23.9567 32.0324 24.07C32.1458 24.1767 32.3424 24.23 32.6224 24.23H33.2924V25H32.4724C31.9658 25 31.5858 24.8833 31.3324 24.65C31.0791 24.4167 30.9524 24.0333 30.9524 23.5V20.27H30.2424V19.52H30.9524V18.14H31.8624V19.52H33.2924V20.27H31.8624ZM43.651 19.42C44.0777 19.42 44.4577 19.51 44.791 19.69C45.1243 19.8633 45.3877 20.1267 45.581 20.48C45.7743 20.8333 45.871 21.2633 45.871 21.77V25H44.971V21.9C44.971 21.3533 44.8343 20.9367 44.561 20.65C44.2943 20.3567 43.931 20.21 43.471 20.21C42.9977 20.21 42.621 20.3633 42.341 20.67C42.061 20.97 41.921 21.4067 41.921 21.98V25H41.021V21.9C41.021 21.3533 40.8843 20.9367 40.611 20.65C40.3443 20.3567 39.981 20.21 39.521 20.21C39.0477 20.21 38.671 20.3633 38.391 20.67C38.111 20.97 37.971 21.4067 37.971 21.98V25H37.061V19.52H37.971V20.31C38.151 20.0233 38.391 19.8033 38.691 19.65C38.9977 19.4967 39.3343 19.42 39.701 19.42C40.161 19.42 40.5677 19.5233 40.921 19.73C41.2743 19.9367 41.5377 20.24 41.711 20.64C41.8643 20.2533 42.1177 19.9533 42.471 19.74C42.8243 19.5267 43.2177 19.42 43.651 19.42ZM49.7538 25.09C49.2404 25.09 48.7738 24.9733 48.3538 24.74C47.9404 24.5067 47.6138 24.1767 47.3738 23.75C47.1404 23.3167 47.0238 22.8167 47.0238 22.25C47.0238 21.69 47.1438 21.1967 47.3838 20.77C47.6304 20.3367 47.9638 20.0067 48.3838 19.78C48.8038 19.5467 49.2738 19.43 49.7938 19.43C50.3138 19.43 50.7838 19.5467 51.2038 19.78C51.6238 20.0067 51.9538 20.3333 52.1938 20.76C52.4404 21.1867 52.5638 21.6833 52.5638 22.25C52.5638 22.8167 52.4371 23.3167 52.1838 23.75C51.9371 24.1767 51.6004 24.5067 51.1738 24.74C50.7471 24.9733 50.2738 25.09 49.7538 25.09ZM49.7538 24.29C50.0804 24.29 50.3871 24.2133 50.6738 24.06C50.9604 23.9067 51.1904 23.6767 51.3638 23.37C51.5438 23.0633 51.6338 22.69 51.6338 22.25C51.6338 21.81 51.5471 21.4367 51.3738 21.13C51.2004 20.8233 50.9738 20.5967 50.6938 20.45C50.4138 20.2967 50.1104 20.22 49.7838 20.22C49.4504 20.22 49.1438 20.2967 48.8638 20.45C48.5904 20.5967 48.3704 20.8233 48.2038 21.13C48.0371 21.4367 47.9538 21.81 47.9538 22.25C47.9538 22.6967 48.0338 23.0733 48.1938 23.38C48.3604 23.6867 48.5804 23.9167 48.8538 24.07C49.1271 24.2167 49.4271 24.29 49.7538 24.29ZM53.4202 22.24C53.4202 21.68 53.5336 21.19 53.7602 20.77C53.9869 20.3433 54.2969 20.0133 54.6902 19.78C55.0902 19.5467 55.5369 19.43 56.0302 19.43C56.4569 19.43 56.8536 19.53 57.2202 19.73C57.5869 19.9233 57.8669 20.18 58.0602 20.5V17.6H58.9802V25H58.0602V23.97C57.8802 24.2967 57.6136 24.5667 57.2602 24.78C56.9069 24.9867 56.4936 25.09 56.0202 25.09C55.5336 25.09 55.0902 24.97 54.6902 24.73C54.2969 24.49 53.9869 24.1533 53.7602 23.72C53.5336 23.2867 53.4202 22.7933 53.4202 22.24ZM58.0602 22.25C58.0602 21.8367 57.9769 21.4767 57.8102 21.17C57.6436 20.8633 57.4169 20.63 57.1302 20.47C56.8502 20.3033 56.5402 20.22 56.2002 20.22C55.8602 20.22 55.5502 20.3 55.2702 20.46C54.9902 20.62 54.7669 20.8533 54.6002 21.16C54.4336 21.4667 54.3502 21.8267 54.3502 22.24C54.3502 22.66 54.4336 23.0267 54.6002 23.34C54.7669 23.6467 54.9902 23.8833 55.2702 24.05C55.5502 24.21 55.8602 24.29 56.2002 24.29C56.5402 24.29 56.8502 24.21 57.1302 24.05C57.4169 23.8833 57.6436 23.6467 57.8102 23.34C57.9769 23.0267 58.0602 22.6633 58.0602 22.25ZM65.518 22.05C65.518 22.2233 65.508 22.4067 65.488 22.6H61.108C61.1414 23.14 61.3247 23.5633 61.658 23.87C61.998 24.17 62.408 24.32 62.888 24.32C63.2814 24.32 63.608 24.23 63.868 24.05C64.1347 23.8633 64.3214 23.6167 64.428 23.31H65.408C65.2614 23.8367 64.968 24.2667 64.528 24.6C64.088 24.9267 63.5414 25.09 62.888 25.09C62.368 25.09 61.9014 24.9733 61.488 24.74C61.0814 24.5067 60.7614 24.1767 60.528 23.75C60.2947 23.3167 60.178 22.8167 60.178 22.25C60.178 21.6833 60.2914 21.1867 60.518 20.76C60.7447 20.3333 61.0614 20.0067 61.468 19.78C61.8814 19.5467 62.3547 19.43 62.888 19.43C63.408 19.43 63.868 19.5433 64.268 19.77C64.668 19.9967 64.9747 20.31 65.188 20.71C65.408 21.1033 65.518 21.55 65.518 22.05ZM64.578 21.86C64.578 21.5133 64.5014 21.2167 64.348 20.97C64.1947 20.7167 63.9847 20.5267 63.718 20.4C63.458 20.2667 63.168 20.2 62.848 20.2C62.388 20.2 61.9947 20.3467 61.668 20.64C61.348 20.9333 61.1647 21.34 61.118 21.86H64.578Z" fill="#252525"/>
<path d="M24.8528 59.056C24.4848 59.056 24.1541 58.992 23.8608 58.864C23.5728 58.7307 23.3461 58.5493 23.1808 58.32C23.0154 58.0853 22.9301 57.816 22.9248 57.512H23.7008C23.7274 57.7733 23.8341 57.9947 24.0208 58.176C24.2128 58.352 24.4901 58.44 24.8528 58.44C25.1994 58.44 25.4714 58.3547 25.6688 58.184C25.8714 58.008 25.9728 57.784 25.9728 57.512C25.9728 57.2987 25.9141 57.1253 25.7968 56.992C25.6794 56.8587 25.5328 56.7573 25.3568 56.688C25.1808 56.6187 24.9434 56.544 24.6448 56.464C24.2768 56.368 23.9808 56.272 23.7568 56.176C23.5381 56.08 23.3488 55.9307 23.1888 55.728C23.0341 55.52 22.9568 55.2427 22.9568 54.896C22.9568 54.592 23.0341 54.3227 23.1888 54.088C23.3434 53.8533 23.5594 53.672 23.8368 53.544C24.1194 53.416 24.4421 53.352 24.8048 53.352C25.3274 53.352 25.7541 53.4827 26.0848 53.744C26.4208 54.0053 26.6101 54.352 26.6528 54.784H25.8528C25.8261 54.5707 25.7141 54.384 25.5168 54.224C25.3194 54.0587 25.0581 53.976 24.7328 53.976C24.4288 53.976 24.1808 54.056 23.9888 54.216C23.7968 54.3707 23.7008 54.5893 23.7008 54.872C23.7008 55.0747 23.7568 55.24 23.8688 55.368C23.9861 55.496 24.1274 55.5947 24.2928 55.664C24.4634 55.728 24.7008 55.8027 25.0048 55.888C25.3728 55.9893 25.6688 56.0907 25.8928 56.192C26.1168 56.288 26.3088 56.44 26.4688 56.648C26.6288 56.8507 26.7088 57.128 26.7088 57.48C26.7088 57.752 26.6368 58.008 26.4928 58.248C26.3488 58.488 26.1354 58.6827 25.8528 58.832C25.5701 58.9813 25.2368 59.056 24.8528 59.056ZM31.7801 56.64C31.7801 56.7787 31.7721 56.9253 31.7561 57.08H28.2521C28.2787 57.512 28.4254 57.8507 28.6921 58.096C28.9641 58.336 29.2921 58.456 29.6761 58.456C29.9907 58.456 30.2521 58.384 30.4601 58.24C30.6734 58.0907 30.8227 57.8933 30.9081 57.648H31.6921C31.5747 58.0693 31.3401 58.4133 30.9881 58.68C30.6361 58.9413 30.1987 59.072 29.6761 59.072C29.2601 59.072 28.8867 58.9787 28.5561 58.792C28.2307 58.6053 27.9747 58.3413 27.7881 58C27.6014 57.6533 27.5081 57.2533 27.5081 56.8C27.5081 56.3467 27.5987 55.9493 27.7801 55.608C27.9614 55.2667 28.2147 55.0053 28.5401 54.824C28.8707 54.6373 29.2494 54.544 29.6761 54.544C30.0921 54.544 30.4601 54.6347 30.7801 54.816C31.1001 54.9973 31.3454 55.248 31.5161 55.568C31.6921 55.8827 31.7801 56.24 31.7801 56.64ZM31.0281 56.488C31.0281 56.2107 30.9667 55.9733 30.8441 55.776C30.7214 55.5733 30.5534 55.4213 30.3401 55.32C30.1321 55.2133 29.9001 55.16 29.6441 55.16C29.2761 55.16 28.9614 55.2773 28.7001 55.512C28.4441 55.7467 28.2974 56.072 28.2601 56.488H31.0281ZM32.469 56.792C32.469 56.344 32.5597 55.952 32.741 55.616C32.9223 55.2747 33.1703 55.0107 33.485 54.824C33.805 54.6373 34.1597 54.544 34.549 54.544C34.933 54.544 35.2663 54.6267 35.549 54.792C35.8317 54.9573 36.0423 55.1653 36.181 55.416V54.616H36.917V59H36.181V58.184C36.037 58.44 35.821 58.6533 35.533 58.824C35.2503 58.9893 34.9197 59.072 34.541 59.072C34.1517 59.072 33.7997 58.976 33.485 58.784C33.1703 58.592 32.9223 58.3227 32.741 57.976C32.5597 57.6293 32.469 57.2347 32.469 56.792ZM36.181 56.8C36.181 56.4693 36.1143 56.1813 35.981 55.936C35.8477 55.6907 35.6663 55.504 35.437 55.376C35.213 55.2427 34.965 55.176 34.693 55.176C34.421 55.176 34.173 55.24 33.949 55.368C33.725 55.496 33.5463 55.6827 33.413 55.928C33.2797 56.1733 33.213 56.4613 33.213 56.792C33.213 57.128 33.2797 57.4213 33.413 57.672C33.5463 57.9173 33.725 58.1067 33.949 58.24C34.173 58.368 34.421 58.432 34.693 58.432C34.965 58.432 35.213 58.368 35.437 58.24C35.6663 58.1067 35.8477 57.9173 35.981 57.672C36.1143 57.4213 36.181 57.1307 36.181 56.8ZM38.8753 55.328C39.0033 55.0773 39.1846 54.8827 39.4193 54.744C39.6593 54.6053 39.9499 54.536 40.2913 54.536V55.288H40.0993C39.2833 55.288 38.8753 55.7307 38.8753 56.616V59H38.1473V54.616H38.8753V55.328ZM40.8596 56.8C40.8596 56.3467 40.9503 55.952 41.1316 55.616C41.313 55.2747 41.5636 55.0107 41.8836 54.824C42.209 54.6373 42.5796 54.544 42.9956 54.544C43.5343 54.544 43.977 54.6747 44.3236 54.936C44.6756 55.1973 44.9076 55.56 45.0196 56.024H44.2356C44.161 55.7573 44.0143 55.5467 43.7956 55.392C43.5823 55.2373 43.3156 55.16 42.9956 55.16C42.5796 55.16 42.2436 55.304 41.9876 55.592C41.7316 55.8747 41.6036 56.2773 41.6036 56.8C41.6036 57.328 41.7316 57.736 41.9876 58.024C42.2436 58.312 42.5796 58.456 42.9956 58.456C43.3156 58.456 43.5823 58.3813 43.7956 58.232C44.009 58.0827 44.1556 57.8693 44.2356 57.592H45.0196C44.9023 58.04 44.6676 58.4 44.3156 58.672C43.9636 58.9387 43.5236 59.072 42.9956 59.072C42.5796 59.072 42.209 58.9787 41.8836 58.792C41.5636 58.6053 41.313 58.3413 41.1316 58C40.9503 57.6587 40.8596 57.2587 40.8596 56.8ZM48.167 54.536C48.4977 54.536 48.7963 54.608 49.063 54.752C49.3297 54.8907 49.5377 55.1013 49.687 55.384C49.8417 55.6667 49.919 56.0107 49.919 56.416V59H49.199V56.52C49.199 56.0827 49.0897 55.7493 48.871 55.52C48.6523 55.2853 48.3537 55.168 47.975 55.168C47.591 55.168 47.2843 55.288 47.055 55.528C46.831 55.768 46.719 56.1173 46.719 56.576V59H45.991V53.08H46.719V55.24C46.863 55.016 47.0603 54.8427 47.311 54.72C47.567 54.5973 47.8523 54.536 48.167 54.536ZM51.3402 59.048C51.2015 59.048 51.0842 59 50.9882 58.904C50.8922 58.808 50.8442 58.6907 50.8442 58.552C50.8442 58.4133 50.8922 58.296 50.9882 58.2C51.0842 58.104 51.2015 58.056 51.3402 58.056C51.4735 58.056 51.5855 58.104 51.6762 58.2C51.7722 58.296 51.8202 58.4133 51.8202 58.552C51.8202 58.6907 51.7722 58.808 51.6762 58.904C51.5855 59 51.4735 59.048 51.3402 59.048ZM53.0199 59.048C52.8812 59.048 52.7639 59 52.6679 58.904C52.5719 58.808 52.5239 58.6907 52.5239 58.552C52.5239 58.4133 52.5719 58.296 52.6679 58.2C52.7639 58.104 52.8812 58.056 53.0199 58.056C53.1532 58.056 53.2652 58.104 53.3559 58.2C53.4519 58.296 53.4999 58.4133 53.4999 58.552C53.4999 58.6907 53.4519 58.808 53.3559 58.904C53.2652 59 53.1532 59.048 53.0199 59.048ZM54.6996 59.048C54.5609 59.048 54.4436 59 54.3476 58.904C54.2516 58.808 54.2036 58.6907 54.2036 58.552C54.2036 58.4133 54.2516 58.296 54.3476 58.2C54.4436 58.104 54.5609 58.056 54.6996 58.056C54.8329 58.056 54.9449 58.104 55.0356 58.2C55.1316 58.296 55.1796 58.4133 55.1796 58.552C55.1796 58.6907 55.1316 58.808 55.0356 58.904C54.9449 59 54.8329 59.048 54.6996 59.048Z" fill="#A0A0A0"/>
<path d="M139.857 59.7143C139.094 59.7143 138.349 59.4881 137.714 59.0643C137.08 58.6404 136.586 58.038 136.294 57.3332C136.002 56.6284 135.925 55.8528 136.074 55.1047C136.223 54.3564 136.59 53.6692 137.13 53.1297C137.669 52.5903 138.356 52.2229 139.105 52.0741C139.853 51.9253 140.628 52.0017 141.333 52.2936C142.038 52.5855 142.64 53.0799 143.064 53.7142C143.488 54.3485 143.714 55.0943 143.714 55.8571C143.714 56.3636 143.615 56.8652 143.421 57.3332C143.227 57.8012 142.943 58.2264 142.585 58.5845C142.226 58.9427 141.801 59.2268 141.333 59.4207C140.865 59.6145 140.364 59.7143 139.857 59.7143ZM139.857 52.7735C139.249 52.7735 138.655 52.9537 138.15 53.2914C137.644 53.6292 137.25 54.1092 137.018 54.6708C136.785 55.2323 136.724 55.8503 136.843 56.4465C136.961 57.0427 137.254 57.5903 137.684 58.0201C138.114 58.4499 138.661 58.7427 139.258 58.8613C139.854 58.9798 140.472 58.919 141.033 58.6864C141.595 58.4537 142.075 58.0598 142.413 57.5544C142.75 57.049 142.931 56.4548 142.931 55.8469C142.931 55.0318 142.607 54.25 142.03 53.6737C141.454 53.0973 140.672 52.7735 139.857 52.7735Z" fill="#A0A0A0"/>
<path d="M144.656 60.9992C144.611 60.9993 144.566 60.9905 144.524 60.9732C144.482 60.9559 144.445 60.9305 144.413 60.8983L142.52 59.0057C142.459 58.9406 142.426 58.8544 142.428 58.7653C142.429 58.6763 142.465 58.5914 142.528 58.5284C142.591 58.4654 142.676 58.4293 142.765 58.4278C142.854 58.4262 142.941 58.4593 143.006 58.52L144.899 60.4126C144.963 60.477 144.999 60.5644 144.999 60.6555C144.999 60.7465 144.963 60.8339 144.899 60.8983C144.867 60.9305 144.829 60.9559 144.787 60.9732C144.746 60.9905 144.701 60.9993 144.656 60.9992Z" fill="#A0A0A0"/>
<defs>
<filter id="filter0_d_4195_6661" x="-4" y="0" width="173" height="45" filterUnits="userSpaceOnUse" color-interpolation-filters="sRGB">
<feFlood flood-opacity="0" result="BackgroundImageFix"/>
<feColorMatrix in="SourceAlpha" type="matrix" values="0 0 0 0 0 0 0 0 0 0 0 0 0 0 0 0 0 0 127 0" result="hardAlpha"/>
<feOffset dy="4"/>
<feGaussianBlur stdDeviation="2"/>
<feComposite in2="hardAlpha" operator="out"/>
<feColorMatrix type="matrix" values="0 0 0 0 0 0 0 0 0 0 0 0 0 0 0 0 0 0 0.08 0"/>
<feBlend mode="normal" in2="BackgroundImageFix" result="effect1_dropShadow_4195_6661"/>
<feBlend mode="normal" in="SourceGraphic" in2="effect1_dropShadow_4195_6661" result="shape"/>
</filter>
</defs>
</svg>
