<svg width="414" height="408" viewBox="0 0 414 408" fill="none" xmlns="http://www.w3.org/2000/svg">
<path opacity="0.5" d="M200 408C298.859 408 379 403.299 379 397.5C379 391.701 298.859 387 200 387C101.141 387 21 391.701 21 397.5C21 403.299 101.141 408 200 408Z" fill="#818181"/>
<path d="M200.915 92.5397C203.838 93.0987 206.73 93.8057 209.582 94.6579C225.675 99.6209 232.4 114.884 234.762 130.219C235.2 133.059 235.384 135.932 235.312 138.805C235.309 138.948 235.262 139.088 235.179 139.204C235.095 139.321 234.977 139.409 234.842 139.457C233.907 139.786 234.016 140.477 234.011 141.328C233.99 146.814 233.972 152.261 233.959 157.669C233.959 157.798 233.919 157.923 233.845 158.027C233.771 158.132 233.667 158.211 233.546 158.254C229.909 159.573 226.594 161.648 223.82 164.344C222.983 165.157 222.196 165.407 221.193 164.805C221.163 164.78 221.127 164.763 221.088 164.755C221.05 164.747 221.01 164.748 220.972 164.759C220.934 164.769 220.9 164.789 220.871 164.816C220.842 164.843 220.821 164.877 220.808 164.914C220.436 165.64 220.272 166.455 220.334 167.269C216.719 167.55 216.03 169.768 213.907 172.067C213.436 172.574 212.891 173.007 212.289 173.35C207.795 168.696 203.164 164.122 198.396 159.629C195.97 157.345 193.681 154.92 191.539 152.367C188.519 148.807 186.037 144.823 184.173 140.543C182.17 135.878 181.4 130.103 182.527 124.999C182.605 124.638 182.498 124.564 182.203 124.795C180.084 126.408 178.318 129.579 177.418 131.9C176.239 134.924 175.873 138.205 176.356 141.415C176.839 144.625 178.154 147.653 180.171 150.197C180.773 150.959 180.637 151.129 179.762 150.706C172.933 147.372 166.679 143.713 162.111 137.711C157.889 132.165 156.58 125.977 158.184 119.147C158.332 118.494 158.255 118.472 157.951 119.062C155.158 124.445 154.8 129.645 156.877 134.662C160.322 142.974 168.96 147.761 176.211 152.211C177.516 153.015 177.443 153.178 175.993 152.7C164.334 148.892 152.894 139.544 153.027 126.119C153.027 125.708 152.942 125.684 152.762 126.058C150.539 130.68 150.446 135.422 152.481 140.282C152.53 140.399 152.549 140.525 152.538 140.651C152.51 140.975 152.396 141.008 152.201 140.751C148.701 136.125 148.586 130.151 150.804 124.993C151.181 124.123 151.584 123.227 152.012 122.307C152.407 121.47 152.29 121.39 151.659 122.067C145.641 128.559 146.572 136.402 151.185 143.381C151.429 143.753 151.343 143.858 150.928 143.696C146.631 142.015 141.762 140.077 137.906 137.313C137.862 137.281 137.807 137.268 137.754 137.277C137.7 137.286 137.652 137.315 137.621 137.359C137.595 137.395 137.582 137.438 137.584 137.483L137.873 146.686C134.872 144.113 132.67 141.286 131.268 138.205C128.93 133.072 130.181 126.328 133.043 121.417C137.716 113.414 144.915 107.811 153.208 104.345C162.252 100.524 172.156 99.1999 181.887 100.51C181.898 100.514 181.909 100.515 181.92 100.514C181.932 100.512 181.942 100.508 181.952 100.502C181.961 100.496 181.969 100.487 181.974 100.477C181.979 100.467 181.983 100.456 181.983 100.445C181.986 100.434 181.987 100.422 181.985 100.411C181.983 100.4 181.979 100.389 181.973 100.379C181.966 100.37 181.958 100.362 181.948 100.356C181.938 100.35 181.927 100.346 181.915 100.345C178.436 99.4448 175.548 97.9789 173.253 95.9476C169.947 93.0225 170.937 89.123 174.264 86.8438C174.35 86.7842 174.451 86.7509 174.555 86.7482C174.659 86.7455 174.761 86.7734 174.849 86.8285C176.138 87.6243 177.517 88.2624 178.958 88.7294C181.905 89.6988 184.926 90.4319 187.99 90.9216C192.308 91.603 196.616 92.1424 200.915 92.5397Z" fill="#143C4E"/>
<path d="M231.957 100.837C242.106 108.532 247.862 118.577 249.225 130.972C249.525 133.696 249.701 136.362 249.754 138.969C249.754 139.057 249.773 139.144 249.811 139.223C249.848 139.303 249.903 139.374 249.971 139.43L250.371 139.767C250.433 139.815 250.484 139.876 250.522 139.945C250.559 140.015 250.582 140.091 250.589 140.169C250.651 140.894 250.687 141.664 250.697 142.479C250.752 147.243 250.752 152.133 250.697 157.148C250.694 157.286 250.734 157.421 250.813 157.534C250.891 157.647 251.003 157.733 251.132 157.779C254.991 159.126 258.533 161.251 261.539 164.021C262.382 164.795 263.137 165.66 263.79 166.6C263.831 166.66 263.894 166.7 263.966 166.713C264.037 166.726 264.111 166.711 264.171 166.669L264.192 166.652C266.886 164.35 269.858 161.854 273.109 159.166C273.222 159.067 273.354 158.992 273.497 158.946C273.639 158.899 273.79 158.883 273.94 158.897C274.07 158.908 274.196 158.954 274.302 159.031C274.408 159.108 274.49 159.213 274.541 159.334C274.591 159.455 274.608 159.587 274.588 159.717C274.568 159.847 274.513 159.968 274.429 160.069L267.315 168.535C267.208 168.665 267.074 168.769 266.922 168.84C266.689 168.942 266.499 169.122 266.384 169.349C266.344 169.431 266.326 169.523 266.332 169.615C266.339 169.707 266.369 169.795 266.421 169.871C269.923 175.323 272.154 182.998 271.191 189.399C268.864 204.84 257.394 215.842 241.409 215.177L237.544 214.707C233.666 213.906 229.983 212.355 226.7 210.14C226.374 209.923 226.339 209.686 226.592 209.442L228.753 208.896C229.146 209.136 229.571 209.319 230.015 209.442C230.457 209.556 230.888 209.71 231.302 209.903C234.564 211.541 237.857 212.73 241.589 212.828C248.092 213.015 253.702 211.087 258.42 207.043C258.539 206.937 258.696 206.882 258.855 206.891C258.911 206.894 258.966 206.885 259.018 206.866C259.07 206.846 259.118 206.816 259.158 206.778C266.095 200.63 269.252 192.908 268.629 183.611C268.508 181.391 268.019 179.207 267.18 177.148C266.189 174.789 265.512 173.019 265.151 171.837C265.208 171.257 264.884 170.813 264.179 170.504C264.11 170.474 264.036 170.459 263.962 170.459C263.887 170.459 263.813 170.474 263.744 170.504C262.584 170.985 261.844 171.683 261.524 172.598C259.382 174.815 257.183 177.026 254.925 179.231C254.192 179.956 253.486 180.701 252.807 181.465C252.751 181.52 252.706 181.585 252.675 181.658C252.645 181.73 252.629 181.808 252.629 181.887C252.644 182.104 252.774 182.222 253.022 182.261L253.99 183.055C254.425 184.429 254.682 185.327 254.76 185.747C255.157 187.76 254.712 189.773 253.425 191.789C251.085 195.449 246.496 196.765 242.727 194.751C239.464 193.011 237.896 190.25 238.02 186.469C238.057 185.397 238.547 184.37 238.992 183.411C239.067 183.248 239.086 183.065 239.046 182.89C239.007 182.715 238.912 182.557 238.775 182.441C237.007 180.956 235.032 179.873 233.214 178.444C229.683 175.679 226.248 172.942 222.907 170.232C222.793 170.138 222.646 170.093 222.498 170.108C222.351 170.122 222.215 170.194 222.12 170.308C221.576 170.971 221.094 171.683 220.68 172.435C217.668 177.811 216.471 184.016 217.266 190.127C217.846 194.858 219.555 198.974 222.394 202.474C224.208 204.711 225.338 206.161 225.785 206.823C224.468 207.619 223.422 207.596 222.646 206.754C218.031 201.731 215.349 196.27 214.6 190.369C214.053 186.077 214.304 182.178 215.354 178.672C216.466 174.949 218.027 171.719 220.037 168.984C220.277 168.702 220.543 168.443 220.83 168.209C220.894 168.158 220.936 168.086 220.949 168.005C220.962 167.925 220.944 167.843 220.9 167.774C220.774 167.547 220.578 167.367 220.341 167.261C220.279 166.447 220.443 165.632 220.815 164.906C220.828 164.869 220.85 164.835 220.878 164.808C220.907 164.781 220.941 164.761 220.979 164.751C221.017 164.74 221.057 164.739 221.095 164.747C221.134 164.755 221.17 164.772 221.2 164.797C222.203 165.399 222.99 165.149 223.827 164.336C226.602 161.64 229.917 159.565 233.553 158.246C233.674 158.203 233.779 158.124 233.852 158.019C233.926 157.915 233.966 157.79 233.966 157.661C233.979 152.255 233.997 146.807 234.019 141.32C234.019 140.469 233.914 139.778 234.849 139.449C234.985 139.401 235.102 139.313 235.186 139.196C235.27 139.08 235.316 138.94 235.319 138.797C235.391 135.924 235.207 133.051 234.769 130.211C232.398 114.895 225.672 99.6281 209.578 94.6651C206.727 93.8129 203.834 93.1059 200.911 92.5468C206.419 92.4464 211.92 92.9946 217.301 94.1801C222.839 95.4067 227.725 97.6258 231.957 100.837Z" fill="#FC6246"/>
<path d="M132.383 101.286C132.672 99.4179 131.391 97.6691 129.523 97.3802C127.655 97.0913 125.906 98.3717 125.617 100.24C125.328 102.108 126.608 103.857 128.477 104.146C130.345 104.435 132.094 103.155 132.383 101.286Z" fill="#FCBC37"/>
<path d="M319.099 272.071C314.051 274.983 310.243 279.376 305.498 282.51C305.371 282.594 305.229 282.652 305.079 282.679C304.93 282.707 304.776 282.704 304.628 282.671C298.103 281.195 291.762 282.402 285.659 284.822C279.503 287.265 273.277 290.083 266.982 293.276C266.065 293.738 264.95 293.965 263.637 293.957L262.247 293.315L253.593 289.307C253.585 283.764 251.62 279.19 247.7 275.586C246.193 274.198 244.538 272.98 242.765 271.954C242.641 271.88 242.58 271.915 242.58 272.058L242.652 308.35L242.724 326.905C242.724 327.022 242.76 327.135 242.828 327.229C242.896 327.324 242.992 327.394 243.102 327.432C248.593 329.322 249.809 336.146 245.457 339.885C244.381 340.785 243.058 341.341 241.662 341.479C240.265 341.617 238.86 341.331 237.628 340.659C235.031 339.2 233.786 336.979 233.894 333.995C233.943 332.446 234.502 330.955 235.485 329.757C236.469 328.558 237.821 327.717 239.331 327.366C239.385 327.353 239.434 327.322 239.468 327.277C239.503 327.233 239.522 327.179 239.522 327.123V311.788L239.555 270.995C239.554 270.925 239.534 270.857 239.495 270.8C239.456 270.742 239.401 270.697 239.337 270.671C237.138 269.784 234.754 269.456 232.397 269.716C232.339 269.688 232.29 269.643 232.257 269.588C232.224 269.532 232.208 269.467 232.213 269.403C232.294 254.209 232.303 238.537 232.241 222.387C232.241 221.556 232.263 220.723 232.317 219.884C232.324 219.768 232.29 219.653 232.219 219.56C232.148 219.468 232.046 219.404 231.932 219.382C229.812 218.945 227.775 218.175 225.897 217.1C225.515 214.688 225.622 212.223 226.214 209.854C226.242 209.733 226.37 209.601 226.599 209.456C226.347 209.699 226.382 209.932 226.708 210.154C229.99 212.368 233.674 213.92 237.552 214.721C237.423 217.437 237.476 220.058 238.667 222.333C239.358 223.627 239.731 225.068 239.755 226.535C239.868 236.904 239.903 247.983 239.859 259.77C239.853 261.369 240.039 262.963 240.414 264.518C240.428 264.61 240.477 264.692 240.55 264.75C240.623 264.807 240.715 264.835 240.807 264.827H241.06C241.099 264.823 241.139 264.827 241.176 264.839C241.214 264.851 241.248 264.871 241.277 264.898C241.307 264.924 241.33 264.956 241.346 264.993C241.361 265.029 241.369 265.068 241.369 265.107L241.493 266.275C241.499 266.323 241.517 266.368 241.545 266.408C241.593 266.478 241.636 266.508 241.677 266.499C241.712 266.493 241.743 266.474 241.766 266.447C241.788 266.421 241.801 266.387 241.801 266.351C241.984 264.591 242.078 263.151 242.082 262.03C242.082 250.276 242.138 238.571 242.252 226.915C242.252 225.799 242.356 224.701 242.817 223.762C243.469 222.457 244.379 221.369 244.655 219.882C244.916 218.487 245.174 217.105 245.429 215.737C245.464 215.565 245.392 215.473 245.211 215.46L241.416 215.18C257.401 215.845 268.872 204.836 271.199 189.401C272.162 183.001 269.931 175.326 266.429 169.874C266.377 169.798 266.346 169.709 266.34 169.618C266.333 169.526 266.351 169.434 266.392 169.352C266.506 169.124 266.696 168.944 266.929 168.843C267.082 168.772 267.216 168.668 267.323 168.538L274.437 160.072C274.497 159.999 274.543 159.916 274.57 159.826C274.598 159.736 274.608 159.641 274.6 159.548C274.591 159.454 274.564 159.363 274.52 159.28C274.476 159.196 274.416 159.123 274.343 159.063C274.232 158.968 274.093 158.911 273.948 158.899C273.798 158.885 273.647 158.902 273.504 158.948C273.361 158.995 273.23 159.07 273.117 159.169C269.872 161.857 266.9 164.352 264.2 166.655C264.145 166.702 264.074 166.725 264.003 166.72C263.931 166.715 263.864 166.681 263.817 166.627L263.798 166.603C263.148 165.663 262.397 164.797 261.558 164.021C258.552 161.251 255.01 159.127 251.151 157.779C251.021 157.734 250.909 157.648 250.831 157.535C250.753 157.421 250.713 157.286 250.716 157.149C250.768 152.134 250.768 147.244 250.716 142.479C250.707 141.662 250.671 140.892 250.607 140.17C250.601 140.091 250.578 140.015 250.54 139.946C250.503 139.877 250.452 139.816 250.39 139.767L249.99 139.43C249.922 139.374 249.867 139.304 249.829 139.224C249.792 139.144 249.772 139.057 249.772 138.969C249.72 136.359 249.544 133.694 249.244 130.972C247.881 118.576 242.125 108.531 231.975 100.838C235.239 101.49 239.094 102.723 243.541 104.535C253.498 108.595 261.965 114.846 268.943 123.289C272.423 127.493 275.054 131.771 276.836 136.12C278.141 139.302 279.272 143.708 280.146 147.484C282.336 156.936 284.909 167.355 289.226 175.672C292.134 181.274 296.346 186.148 299.504 191.657C302.662 197.166 304.88 203.007 306.381 209.19C316.007 249.235 310.262 226.915 316.946 259.196C317.745 263.054 318.463 267.346 319.099 272.071Z" fill="#143C4E"/>
<path d="M277.266 106.859C277.584 106.091 277.219 105.211 276.451 104.893C275.684 104.575 274.803 104.939 274.485 105.707C274.167 106.475 274.532 107.356 275.3 107.674C276.068 107.992 276.948 107.627 277.266 106.859Z" fill="#ACCF91"/>
<path d="M291.047 124.142C292.418 122.713 292.409 120.479 291.027 119.154C289.645 117.829 287.414 117.914 286.043 119.343C284.672 120.773 284.681 123.006 286.063 124.331C287.445 125.656 289.676 125.572 291.047 124.142Z" fill="#FCBC37"/>
<path d="M212.287 173.349C208.155 181.592 207.955 191.77 211.417 200.119C212.979 203.89 214.797 207.228 217.638 210.017C217.679 210.058 217.712 210.107 217.734 210.161C217.757 210.215 217.768 210.273 217.768 210.332C217.768 210.391 217.757 210.449 217.734 210.503C217.712 210.557 217.679 210.606 217.638 210.647C217.597 210.687 217.549 210.72 217.496 210.743L189.728 222.291C189.54 222.371 189.379 222.505 189.267 222.676C188.884 223.264 188.812 223.71 189.049 224.016C189.58 224.703 190.246 224.879 191.048 224.542L219.51 212.646C219.592 212.612 219.682 212.603 219.769 212.62C219.856 212.637 219.936 212.68 219.999 212.742C221.753 214.46 223.738 215.924 225.898 217.091C227.776 218.166 229.813 218.936 231.933 219.373C232.047 219.396 232.149 219.459 232.22 219.552C232.29 219.644 232.325 219.759 232.318 219.875C232.263 220.715 232.239 221.548 232.242 222.378C232.302 238.529 232.293 254.201 232.213 269.394C232.209 269.459 232.225 269.523 232.258 269.579C232.291 269.635 232.34 269.679 232.398 269.707C232.275 269.813 232.188 269.954 232.148 270.112C231.827 273.618 230.604 276.981 228.599 279.874C222.089 289.363 211.246 292.913 200.152 291.131C196.072 290.495 192.198 288.909 188.843 286.501C183.301 282.528 180.049 277.095 179.086 270.201C179.078 270.121 179.045 270.045 178.993 269.983C178.925 269.907 178.848 269.838 178.765 269.779H178.958C178.988 269.779 179.018 269.773 179.045 269.761C179.072 269.749 179.097 269.732 179.118 269.71C179.138 269.688 179.154 269.662 179.164 269.634C179.174 269.606 179.178 269.576 179.176 269.546L179.195 256.812C179.182 256.726 179.188 256.638 179.214 256.555C179.24 256.472 179.285 256.396 179.345 256.333C179.405 256.27 179.479 256.221 179.561 256.191C179.643 256.161 179.73 256.151 179.817 256.16C180.409 256.14 180.995 256.034 181.557 255.847C186.865 254.074 192.347 251.431 198.003 247.917C206.046 242.912 213.274 236.704 219.436 229.51C219.91 228.957 219.852 228.894 219.256 229.314C216.311 231.413 213.197 233.664 210.084 235.416C196.659 243.028 181.581 246.91 166.153 245.595C162.121 245.251 159.193 244.544 156.583 241.567C154.965 239.705 153.304 237.806 151.599 235.869C151.76 235.782 151.718 235.621 151.475 235.384C151.355 235.271 151.243 235.15 151.138 235.023C144.691 227.402 140.092 219.023 137.34 209.886C136.223 206.172 135.32 201.737 134.633 196.583C134.228 193.434 134.068 190.259 134.154 187.085C134.307 180.151 135.023 173.242 136.297 166.424C140.381 167.101 143.615 167.542 147.19 167.033C149.256 166.744 151.921 165.243 150.585 162.788C150.068 161.833 148.478 161.063 147.456 160.878C144.215 160.287 140.69 160.597 136.879 161.809L137.854 146.664L137.565 137.46C137.563 137.422 137.573 137.384 137.592 137.352C137.611 137.319 137.639 137.292 137.672 137.274C137.706 137.257 137.744 137.249 137.782 137.252C137.82 137.254 137.856 137.268 137.886 137.29C141.742 140.054 146.612 141.992 150.909 143.673C151.325 143.834 151.411 143.729 151.166 143.358C146.553 136.383 145.622 128.541 151.64 122.045C152.271 121.369 152.388 121.449 151.992 122.284C151.557 123.197 151.155 124.093 150.785 124.97C148.567 130.128 148.682 136.103 152.182 140.729C152.377 140.985 152.49 140.946 152.519 140.629C152.53 140.503 152.51 140.376 152.462 140.259C150.432 135.397 150.526 130.656 152.743 126.035C152.923 125.664 153.012 125.685 153.008 126.096C152.875 139.522 164.317 148.869 175.974 152.677C177.433 153.156 177.505 152.992 176.192 152.188C168.941 147.738 160.302 142.951 156.857 134.639C154.781 129.622 155.139 124.422 157.932 119.039C158.236 118.45 158.312 118.478 158.165 119.124C156.562 125.954 157.872 132.142 162.092 137.688C166.659 143.691 172.914 147.349 179.743 150.683C180.613 151.106 180.749 150.937 180.152 150.174C178.141 147.633 176.83 144.61 176.348 141.405C175.866 138.2 176.231 134.926 177.405 131.905C178.317 129.578 180.083 126.414 182.19 124.8C182.486 124.583 182.592 124.644 182.514 125.005C181.387 130.113 182.157 135.879 184.16 140.548C186.025 144.828 188.507 148.812 191.526 152.373C193.668 154.925 195.958 157.35 198.384 159.634C203.163 164.123 207.797 168.695 212.287 173.349Z" fill="#FCB38F"/>
<path d="M319.407 119.65C319.708 119.65 320.003 119.74 320.253 119.907C320.503 120.074 320.698 120.312 320.814 120.59C320.929 120.868 320.959 121.174 320.9 121.47C320.842 121.765 320.697 122.036 320.484 122.249C320.271 122.462 319.999 122.607 319.704 122.666C319.409 122.725 319.103 122.694 318.825 122.579C318.546 122.464 318.309 122.269 318.141 122.019C317.974 121.768 317.885 121.474 317.885 121.173C317.885 120.769 318.045 120.382 318.331 120.096C318.616 119.811 319.003 119.65 319.407 119.65Z" fill="#ACCF91"/>
<path d="M252.115 178.229L260.47 169.497C260.688 169.268 260.647 169.107 260.347 169.016C260.121 168.949 259.882 168.941 259.653 168.992C259.372 169.051 259.116 169.194 258.918 169.401L250.023 178.681C247.662 178.389 245.267 178.555 242.97 179.17C242.819 179.213 242.661 179.22 242.507 179.192C242.353 179.163 242.208 179.1 242.082 179.007C240.74 178.065 239.435 177.067 238.168 176.013C234.212 172.731 230.051 169.706 225.988 166.5C225.873 166.408 225.798 166.273 225.781 166.126C225.764 165.979 225.806 165.831 225.897 165.715C225.926 165.677 225.961 165.644 225.999 165.617C228.577 163.673 231.473 161.461 234.542 160.467C241.067 158.364 248.087 158.483 254.022 161.707C257.308 163.492 259.912 165.288 262.58 168.07C262.686 168.177 262.748 168.32 262.752 168.47C262.763 168.555 262.743 168.64 262.696 168.711C262.649 168.782 262.578 168.833 262.495 168.855C262.337 168.903 262.198 168.999 262.097 169.129L261.688 169.647C261.601 169.761 261.489 169.852 261.36 169.914C260.836 170.161 260.42 170.589 260.188 171.119C260.158 171.19 260.112 171.254 260.055 171.306C259.997 171.358 259.929 171.397 259.855 171.419C259.285 171.604 259.261 172.037 258.896 172.394C256.888 174.371 254.909 176.518 252.959 178.833C252.46 179.423 251.851 179.908 251.164 180.262C251.132 180.285 251.096 180.301 251.057 180.307C251.018 180.313 250.978 180.31 250.94 180.298C250.903 180.286 250.869 180.265 250.841 180.238C250.813 180.21 250.792 180.176 250.779 180.138C250.734 180.065 250.717 179.978 250.731 179.894C250.745 179.809 250.789 179.732 250.856 179.677C251.337 179.252 251.76 178.765 252.115 178.229Z" fill="#FCBC37"/>
<path d="M167.429 163.224C168.227 160.917 171.085 160.593 173.266 160.497C177.172 160.329 180.675 160.783 183.775 161.861C184.806 162.222 187.17 163.196 187.446 164.364C187.494 164.565 187.475 164.777 187.393 164.967C187.31 165.157 187.169 165.315 186.989 165.419C186.076 165.947 185.078 166.315 184.04 166.506C180.214 167.248 176.302 167.45 172.42 167.104C170.595 166.921 166.563 165.723 167.429 163.224Z" fill="#143C4E"/>
<path d="M136.286 166.443L133.676 165.628C133.433 165.553 133.228 165.386 133.107 165.162C132.985 164.939 132.955 164.677 133.023 164.432C133.147 163.997 133.493 163.592 134.063 163.233C134.498 162.959 135.432 162.491 136.864 161.828C140.674 160.615 144.2 160.304 147.44 160.897C148.463 161.082 150.05 161.852 150.57 162.807C151.905 165.262 149.241 166.763 147.175 167.052C143.611 167.561 140.377 167.12 136.286 166.443Z" fill="#143C4E"/>
<path d="M220.333 167.268C220.57 167.377 220.764 167.56 220.888 167.79C220.932 167.858 220.95 167.94 220.937 168.02C220.924 168.101 220.882 168.174 220.818 168.225C220.531 168.458 220.265 168.717 220.024 168.999C218.015 171.735 216.454 174.964 215.342 178.688C214.294 182.196 214.042 186.095 214.587 190.384C215.337 196.286 218.019 201.748 222.634 206.769C223.411 207.61 224.457 207.633 225.772 206.839L230.229 204.973C230.3 204.946 230.362 204.899 230.408 204.837C230.453 204.776 230.48 204.703 230.485 204.627C230.522 204.192 230.544 203.757 230.546 203.307C230.546 201.036 232.086 198.866 233.952 197.791C237.66 195.664 242.129 197.326 243.649 201.354C244.878 204.616 243.469 208.037 240.424 209.675C237.56 211.223 233.776 210.249 231.962 207.656C231.942 207.621 231.916 207.591 231.884 207.566C231.852 207.542 231.815 207.524 231.776 207.514C231.737 207.503 231.697 207.501 231.657 207.507C231.617 207.513 231.579 207.527 231.544 207.548L228.752 208.916L226.59 209.462C226.362 209.607 226.234 209.739 226.205 209.86C225.613 212.229 225.505 214.694 225.888 217.106C223.728 215.939 221.743 214.475 219.989 212.756C219.926 212.694 219.846 212.652 219.759 212.635C219.672 212.618 219.582 212.627 219.5 212.661L191.045 224.553C190.244 224.891 189.578 224.715 189.046 224.026C188.805 223.719 188.878 223.272 189.263 222.687C189.376 222.516 189.536 222.382 189.724 222.302L217.493 210.753C217.601 210.707 217.687 210.619 217.732 210.51C217.776 210.4 217.776 210.277 217.73 210.168C217.709 210.115 217.676 210.067 217.634 210.027C214.794 207.239 212.976 203.9 211.414 200.129C207.96 191.78 208.152 181.602 212.284 173.359C212.885 173.016 213.431 172.583 213.902 172.076C216.029 169.766 216.719 167.548 220.333 167.268Z" fill="#10303E"/>
<path d="M252.114 178.227C251.593 178.575 250.964 179.553 250.518 179.714C250.203 179.832 249.97 179.703 249.82 179.334C249.696 179.027 249.764 178.807 250.02 178.681L258.915 169.401C259.113 169.194 259.37 169.051 259.65 168.992C259.88 168.941 260.119 168.949 260.344 169.016C260.644 169.107 260.686 169.268 260.468 169.497L252.114 178.227Z" fill="#ACCF91"/>
<path d="M253.983 183.059C254.775 182.162 256.007 181.058 257.68 179.749C258.55 179.078 260.402 177.332 263.237 174.512C263.598 174.151 264.234 173.262 265.146 171.846C265.507 173.027 266.184 174.798 267.176 177.157C268.014 179.216 268.503 181.4 268.624 183.62C269.246 192.915 266.089 200.638 259.153 206.786C259.113 206.825 259.065 206.855 259.013 206.874C258.961 206.894 258.906 206.902 258.85 206.9C258.691 206.891 258.534 206.945 258.415 207.052C253.699 211.094 248.088 213.022 241.584 212.837C237.852 212.732 234.56 211.549 231.297 209.912C230.883 209.719 230.452 209.565 230.01 209.451C229.566 209.328 229.142 209.144 228.748 208.905L231.541 207.537C231.575 207.516 231.614 207.502 231.653 207.496C231.693 207.49 231.734 207.492 231.773 207.503C231.812 207.513 231.848 207.531 231.88 207.555C231.912 207.58 231.939 207.61 231.958 207.646C233.772 210.238 237.556 211.212 240.421 209.664C243.465 208.026 244.875 204.612 243.646 201.343C242.124 197.315 237.657 195.654 233.948 197.78C232.082 198.855 230.547 201.025 230.543 203.296C230.543 203.731 230.519 204.179 230.482 204.616C230.477 204.692 230.45 204.765 230.404 204.827C230.359 204.888 230.297 204.935 230.225 204.962L225.769 206.828C225.322 206.167 224.192 204.717 222.378 202.478C219.544 198.977 217.834 194.861 217.25 190.132C216.455 184.02 217.653 177.816 220.665 172.439C221.078 171.687 221.56 170.975 222.104 170.312C222.199 170.198 222.335 170.126 222.482 170.112C222.63 170.098 222.777 170.142 222.892 170.236C226.226 172.946 229.662 175.683 233.198 178.448C235.016 179.877 236.991 180.96 238.759 182.446C238.896 182.562 238.991 182.719 239.031 182.894C239.07 183.069 239.051 183.252 238.977 183.416C238.542 184.375 238.041 185.401 238.004 186.474C237.88 190.25 239.449 193.011 242.711 194.755C246.48 196.769 251.069 195.453 253.409 191.793C254.698 189.778 255.143 187.764 254.744 185.751C254.667 185.332 254.414 184.435 253.983 183.059Z" fill="#FCBC37"/>
<path d="M265.155 171.849C264.243 173.264 263.606 174.153 263.245 174.515C260.406 177.337 258.554 179.083 257.688 179.752C256.011 181.057 254.779 182.161 253.991 183.063L253.023 182.269C254.08 180.623 254.957 179.574 255.653 179.122C256.51 178.569 257.095 178.077 257.41 177.645C257.501 177.519 257.615 177.412 257.747 177.33C258.869 176.632 259.568 175.59 260.535 174.72C261.344 173.995 262.163 173.27 262.991 172.545C263.12 172.437 263.219 172.297 263.276 172.138C263.292 172.071 263.322 172.007 263.365 171.952C263.408 171.898 263.463 171.853 263.525 171.822C263.587 171.791 263.656 171.773 263.725 171.771C263.795 171.769 263.864 171.782 263.928 171.81C263.976 171.825 264.027 171.831 264.078 171.827C264.129 171.822 264.178 171.808 264.223 171.784C264.268 171.76 264.307 171.728 264.34 171.689C264.372 171.649 264.396 171.604 264.411 171.556C264.437 171.467 264.432 171.373 264.398 171.288C264.363 171.19 264.305 171.102 264.23 171.031C264.154 170.96 264.063 170.908 263.963 170.879C263.893 170.859 263.818 170.856 263.747 170.872C263.675 170.888 263.609 170.922 263.554 170.971L261.518 172.604C261.839 171.687 262.579 170.989 263.739 170.509C263.808 170.48 263.882 170.465 263.956 170.465C264.031 170.465 264.105 170.48 264.174 170.509C264.884 170.826 265.211 171.272 265.155 171.849Z" fill="#ACCF91"/>
<path d="M253.017 182.266C252.769 182.227 252.638 182.101 252.623 181.892C252.623 181.813 252.639 181.735 252.67 181.663C252.7 181.59 252.745 181.525 252.801 181.47C253.48 180.7 254.186 179.956 254.92 179.236C257.177 177.031 259.377 174.82 261.518 172.603L263.554 170.97C263.609 170.922 263.675 170.888 263.746 170.872C263.818 170.856 263.892 170.858 263.963 170.879C264.062 170.907 264.154 170.959 264.23 171.03C264.305 171.101 264.363 171.19 264.398 171.287C264.438 171.382 264.438 171.489 264.4 171.584C264.362 171.679 264.287 171.756 264.193 171.796C264.109 171.833 264.015 171.838 263.928 171.809C263.864 171.782 263.795 171.769 263.725 171.771C263.655 171.773 263.587 171.79 263.525 171.821C263.463 171.853 263.408 171.897 263.365 171.952C263.322 172.007 263.291 172.07 263.275 172.138C263.218 172.296 263.12 172.437 262.99 172.545C262.163 173.258 261.344 173.983 260.535 174.719C259.567 175.589 258.869 176.638 257.747 177.329C257.615 177.411 257.501 177.518 257.41 177.644C257.094 178.079 256.508 178.572 255.653 179.121C254.949 179.572 254.071 180.62 253.017 182.266Z" fill="#FEE9B2"/>
<path d="M140.027 174.87C141.708 176.643 144.5 175.892 145.997 174.34C146.665 173.644 147.333 172.919 148 172.165C148.113 172.041 148.269 171.966 148.437 171.955C148.604 171.943 148.769 171.997 148.898 172.104C149.016 172.204 149.094 172.344 149.115 172.498C149.572 175.888 147.593 181.886 143.811 182.684C138.809 183.735 135.838 176.702 136.834 172.793C136.852 172.722 136.884 172.654 136.928 172.595C136.972 172.536 137.028 172.486 137.091 172.448C137.155 172.41 137.225 172.386 137.298 172.375C137.371 172.364 137.446 172.368 137.517 172.387C137.619 172.413 137.711 172.466 137.785 172.541C138.557 173.338 139.305 174.115 140.027 174.87Z" fill="#10303E"/>
<path d="M173.062 173.833C174.956 175.927 177.753 176.66 179.88 174.346C180.525 173.643 181.197 172.937 181.894 172.228C182.021 172.101 182.192 172.03 182.371 172.03C182.55 172.03 182.722 172.101 182.849 172.228C182.937 172.312 182.999 172.42 183.029 172.539C183.614 174.737 182.551 177.956 181.439 179.715C178.83 183.8 174.776 183.828 172.253 179.639C171.048 177.63 170.178 174.733 170.676 172.345C170.687 172.288 170.71 172.233 170.743 172.185C170.776 172.136 170.818 172.095 170.867 172.064C170.916 172.032 170.971 172.01 171.029 172C171.087 171.991 171.146 171.992 171.202 172.006C171.285 172.024 171.361 172.067 171.42 172.127C171.977 172.667 172.524 173.235 173.062 173.833Z" fill="#10303E"/>
<path d="M151.701 200.566C151.686 200.707 151.704 200.849 151.753 200.982C151.803 201.115 151.883 201.234 151.986 201.331C154.378 203.563 157.086 204.433 160.2 205.333C160.283 205.357 160.356 205.408 160.408 205.478C160.459 205.547 160.486 205.631 160.485 205.718C160.495 205.806 160.48 205.895 160.441 205.975C160.403 206.055 160.343 206.123 160.268 206.17C159.93 206.364 159.536 206.436 159.152 206.375C156.528 205.975 153.928 204.887 151.353 203.113C149.921 202.118 149.533 200.819 150.19 199.215C150.868 197.562 151.582 195.849 152.332 194.076C155.284 187.091 156.262 180.03 155.268 172.895C155.249 172.827 155.245 172.755 155.258 172.685C155.271 172.615 155.299 172.549 155.341 172.491C155.383 172.434 155.437 172.386 155.5 172.353C155.562 172.319 155.632 172.3 155.703 172.297L155.94 172.254C155.999 172.236 156.061 172.232 156.122 172.241C156.183 172.251 156.241 172.274 156.291 172.309C156.342 172.344 156.384 172.391 156.414 172.444C156.444 172.498 156.462 172.558 156.466 172.619C156.638 173.523 156.747 174.437 156.795 175.355C157.256 183.556 155.403 190.301 152.382 197.828C152.03 198.705 151.801 199.626 151.701 200.566Z" fill="#273624"/>
<path d="M237.549 214.711L241.414 215.181L245.209 215.461C245.385 215.474 245.457 215.566 245.426 215.737C245.17 217.108 244.912 218.489 244.652 219.883C244.376 221.359 243.465 222.458 242.814 223.763C242.353 224.702 242.26 225.8 242.249 226.916C242.143 238.572 242.086 250.277 242.079 262.031C242.079 263.152 241.986 264.592 241.799 266.352C241.798 266.388 241.786 266.421 241.763 266.448C241.741 266.475 241.709 266.494 241.675 266.5C241.633 266.5 241.59 266.478 241.542 266.409C241.514 266.369 241.497 266.324 241.49 266.276L241.366 265.108C241.366 265.069 241.359 265.03 241.343 264.994C241.327 264.957 241.304 264.925 241.275 264.898C241.246 264.872 241.211 264.852 241.174 264.84C241.136 264.828 241.096 264.823 241.057 264.828H240.805C240.712 264.836 240.62 264.808 240.547 264.751C240.474 264.693 240.426 264.611 240.411 264.519C240.036 262.964 239.85 261.37 239.857 259.771C239.9 247.984 239.865 236.905 239.752 226.536C239.728 225.068 239.355 223.628 238.665 222.334C237.473 220.048 237.416 217.427 237.549 214.711Z" fill="#10303E"/>
<path d="M166.714 219.524C163.266 222.134 157.621 222.806 154.026 219.837C153.895 219.736 153.809 219.588 153.786 219.424C153.601 218.243 154.404 217.771 155.478 217.738C158.964 217.621 162.441 217.315 165.894 216.823C166.681 216.714 167.29 216.888 167.62 217.629C167.951 218.371 167.259 219.117 166.714 219.524Z" fill="#10303E"/>
<path d="M178.18 230.891C181.985 230.891 185.07 227.806 185.07 224.001C185.07 220.196 181.985 217.111 178.18 217.111C174.375 217.111 171.29 220.196 171.29 224.001C171.29 227.806 174.375 230.891 178.18 230.891Z" fill="#10303E"/>
<path d="M164.744 218.654C164.892 218.641 164.944 218.706 164.896 218.848C164.854 218.97 164.788 219.082 164.701 219.178C164.615 219.273 164.509 219.351 164.392 219.404C161.444 220.816 158.537 220.889 155.669 219.622C155.073 219.356 155.09 219.137 155.721 218.969C156.024 218.886 156.338 218.851 156.652 218.865C159.351 218.954 162.053 218.883 164.744 218.654Z" fill="#FCBC37"/>
<path d="M178.754 269.791C177.623 269.579 176.462 269.587 175.335 269.815C165.618 271.714 156.884 279.737 157.706 290.365C150.851 293.29 143.971 296.132 137.066 298.893C135.785 299.409 134.467 299.83 133.124 300.152C130.359 300.813 127.604 301.489 124.859 302.179C120.851 303.211 116.947 304.61 113.196 306.359C113.043 306.427 112.956 306.379 112.935 306.218L112.906 305.985C114.136 298.937 116.153 292.049 118.92 285.45C121.865 278.424 125.35 271.636 129.344 265.148C134.135 257.386 139.447 249.957 145.244 242.913C147.239 240.459 149.358 238.11 151.594 235.875C153.299 237.813 154.961 239.713 156.579 241.573C159.174 244.55 162.108 245.257 166.148 245.601C181.59 246.906 196.661 243.026 210.08 235.423C213.192 233.661 216.307 231.419 219.251 229.32C219.847 228.9 219.904 228.963 219.432 229.516C213.269 236.71 206.041 242.918 197.999 247.924C192.344 251.435 186.862 254.078 181.553 255.853C180.991 256.04 180.405 256.146 179.813 256.166C179.726 256.157 179.638 256.167 179.557 256.197C179.475 256.227 179.401 256.276 179.341 256.339C179.281 256.402 179.236 256.478 179.21 256.561C179.184 256.644 179.177 256.732 179.191 256.819L179.171 269.552C179.173 269.582 179.169 269.612 179.159 269.64C179.149 269.668 179.134 269.694 179.113 269.716C179.093 269.738 179.068 269.755 179.041 269.767C179.013 269.779 178.984 269.785 178.954 269.785L178.754 269.791Z" fill="#143C4E"/>
<path d="M104.293 235.185L98.6344 240.824C98.3094 241.148 98.3085 241.674 98.6323 241.999L104.305 247.691C104.629 248.016 105.155 248.017 105.48 247.693L111.138 242.054C111.463 241.73 111.464 241.204 111.14 240.879L105.468 235.187C105.144 234.862 104.618 234.861 104.293 235.185Z" fill="#FEE9B2"/>
<path d="M276.059 248.074L276.439 246.661L306.419 246.721C306.473 246.728 306.528 246.722 306.58 246.705C306.632 246.688 306.68 246.661 306.72 246.624C306.76 246.587 306.791 246.541 306.812 246.491C306.833 246.441 306.843 246.387 306.841 246.332C307.103 243.174 306.783 239.995 305.897 236.952C305.859 236.821 305.867 236.681 305.917 236.555C305.968 236.428 306.06 236.322 306.178 236.254C306.417 236.109 306.714 236.233 307.07 236.626C307.173 236.741 307.247 236.879 307.287 237.028C308.188 240.434 308.474 243.974 308.131 247.48C308.114 247.653 308.034 247.813 307.905 247.929C307.777 248.045 307.61 248.109 307.437 248.109L276.059 248.074Z" fill="#FCBC37"/>
<path d="M342.341 264.309C342.019 264.467 341.675 264.578 341.321 264.637C335.161 265.652 331.034 263.343 328.94 257.708C327.905 254.916 327.687 251.897 328.287 248.652C329.873 240.022 340.208 234.851 346.439 242.83C351.282 249.037 349.22 257.636 344.092 263.041C343.59 263.567 342.997 263.996 342.341 264.309Z" fill="#FCBC37"/>
<path d="M276.44 246.661L276.059 248.075L270.622 253.162C270.522 253.256 270.389 253.307 270.252 253.305C270.115 253.302 269.984 253.246 269.887 253.149L264.278 247.494C263.913 247.127 263.917 246.763 264.278 246.407L269.983 240.826C270.074 240.736 270.196 240.686 270.324 240.686C270.452 240.686 270.575 240.736 270.666 240.826L276.44 246.661Z" fill="#FEE9B2"/>
<path d="M363.023 263.133C364.817 270.527 357.249 279.335 350.676 281.739C350.635 281.755 350.591 281.763 350.547 281.762C350.503 281.762 350.459 281.752 350.419 281.734C350.378 281.717 350.342 281.691 350.311 281.659C350.281 281.627 350.257 281.589 350.241 281.547C350.231 281.516 350.224 281.483 350.222 281.449C350.07 278.596 350.157 275.884 350.759 273.007C351.529 269.31 352.379 265.81 354.078 262.431C355.039 260.51 357.588 257.148 359.891 258.503C361.45 259.415 362.494 260.958 363.023 263.133Z" fill="#FCBC37"/>
<path d="M344.492 396.798C344.719 396.759 344.942 396.706 345.162 396.639C353.719 394.174 361.958 390.716 369.712 386.335C369.737 386.321 369.759 386.301 369.775 386.276C369.791 386.252 369.801 386.224 369.803 386.195C369.805 386.166 369.8 386.136 369.789 386.11C369.777 386.083 369.759 386.059 369.736 386.042L369.583 385.931C369.522 385.878 369.446 385.846 369.365 385.839C369.285 385.832 369.204 385.851 369.135 385.894C361.599 389.967 353.682 393.296 345.499 395.833C344.927 395.987 344.415 396.314 344.033 396.768L330.373 396.635L342.117 396.611C342.761 396.611 343.551 396.266 344.488 395.576C344.549 395.536 344.597 395.478 344.625 395.411C344.653 395.343 344.66 395.269 344.645 395.198L344.083 391.748L353.074 374.258C353.108 374.193 353.155 374.137 353.214 374.093C353.272 374.05 353.34 374.02 353.411 374.006C354.55 373.794 355.678 373.523 356.789 373.195C367.248 370.132 377.164 365.451 386.175 359.322C390.738 356.208 394.951 352.611 398.741 348.593C398.746 348.589 398.75 348.584 398.752 348.579C398.755 348.573 398.756 348.568 398.756 348.562C398.756 348.555 398.755 348.55 398.752 348.544C398.75 348.539 398.746 348.534 398.741 348.53C398.736 348.523 398.729 348.518 398.722 348.514C398.714 348.51 398.705 348.508 398.697 348.508C398.688 348.508 398.68 348.51 398.672 348.514C398.664 348.518 398.657 348.523 398.652 348.53C395.607 351.14 392.848 353.405 390.375 355.326L389.872 355.694C388.086 357.077 386.023 358.504 383.683 359.976C374.514 365.745 364.535 370.111 354.077 372.932C353.888 372.986 353.838 372.932 353.931 372.747C357.388 366.041 360.761 359.306 364.051 352.54C364.391 351.848 364.959 351.295 365.66 350.972C370.757 348.486 375.685 345.667 380.412 342.534C380.988 342.193 381.432 341.67 381.675 341.046C381.897 340.413 381.734 340.147 381.186 340.248C381.126 340.261 381.069 340.285 381.019 340.32C376.372 343.521 371.398 346.594 366.097 349.539C365.736 349.737 365.649 349.654 365.836 349.287L378.768 323.724C378.808 323.639 378.829 323.546 378.829 323.452C378.826 323.401 378.838 323.351 378.863 323.307C378.887 323.263 378.924 323.226 378.968 323.202C379.073 323.139 379.157 323.046 379.209 322.934C381.252 318.838 383.007 314.604 384.461 310.264C384.503 310.163 384.503 310.051 384.461 309.951C384.447 309.918 384.421 309.893 384.388 309.88C384.355 309.867 384.318 309.867 384.285 309.881C384.256 309.895 384.233 309.918 384.218 309.946C383.054 312.434 382.2 314.97 380.927 317.441C378.877 321.424 376.86 325.416 374.877 329.418C374.512 330.159 374.031 330.738 373.722 331.512C373.495 332.071 373.239 332.617 372.954 333.15C366.108 346.023 359.507 358.746 353.15 371.318C353.068 371.483 353 371.477 352.946 371.3C351.216 365.745 349.104 359.908 346.611 353.791C345.789 351.766 344.871 349.169 344.834 347.064C344.806 345.258 344.85 343.429 344.966 341.579C344.981 341.353 344.921 341.129 344.797 340.94C344.505 340.505 344.299 340.531 344.179 341.049C343.577 343.613 343.348 345.772 344.018 348.519C344.497 350.472 345.048 352.406 345.671 354.322C347.643 360.391 349.745 366.563 351.978 372.838C352.003 372.909 352.013 372.984 352.007 373.059C352.001 373.134 351.98 373.207 351.945 373.273L343.668 389.434C343.39 389.547 343.184 389.388 343.05 388.956C341.726 384.647 340.76 379.669 339.788 375.907C338.891 372.455 338.06 369.04 337.296 365.663L341.08 363.578C341.23 363.499 341.241 363.404 341.115 363.288C341.01 363.203 340.885 363.146 340.752 363.122C340.619 363.098 340.482 363.108 340.354 363.151C339.349 363.396 338.333 363.589 337.309 363.73C337.293 363.164 337.046 362.897 336.567 362.927C335.955 363.007 335.354 363.153 334.773 363.362C332.919 360.299 331.686 357.294 331.076 354.348C330.554 351.828 330.111 349.243 329.747 346.592C329.737 346.525 329.715 346.461 329.68 346.403C329.646 346.345 329.6 346.294 329.546 346.254C329.492 346.213 329.43 346.184 329.365 346.167C329.299 346.151 329.231 346.147 329.164 346.157C329.103 346.165 329.044 346.184 328.99 346.214C328.776 346.332 328.589 346.494 328.44 346.688C322.702 354.129 315.999 360.773 308.508 366.444C306.437 368.014 302.604 370.283 297.007 373.249C296.937 373.286 296.859 373.304 296.78 373.299C296.701 373.295 296.624 373.27 296.559 373.225L296.374 373.101C296.215 372.995 296.222 372.899 296.394 372.812C298.012 372.013 299.259 371.369 300.137 370.879C300.186 370.849 300.245 370.839 300.302 370.85C300.353 370.863 300.407 370.863 300.458 370.85C300.485 370.844 300.509 370.83 300.527 370.81C300.545 370.79 300.556 370.764 300.559 370.737C300.562 370.678 300.58 370.621 300.61 370.57C300.639 370.519 300.681 370.476 300.73 370.444C305.051 367.993 307.772 366.285 308.892 365.318C311.033 363.473 313.171 361.615 315.308 359.743C320.066 355.589 324.398 350.971 328.24 345.957C328.332 345.838 328.377 345.69 328.366 345.54C328.356 345.39 328.291 345.249 328.183 345.144C325.406 342.399 323.953 339.285 322.285 335.883C321.25 333.765 320.321 331.034 319.497 327.691C318.891 325.216 318.818 322.941 319.279 320.866L324.336 327.473C324.38 327.534 324.439 327.583 324.507 327.615C324.575 327.646 324.65 327.66 324.725 327.654C325.071 327.639 325.254 327.436 325.273 327.049C325.274 326.978 325.295 326.908 325.334 326.848C325.372 326.787 325.426 326.739 325.491 326.708C327.063 325.836 328.711 325.108 330.415 324.533C330.559 324.488 330.686 324.398 330.776 324.276C330.802 324.239 330.838 324.209 330.88 324.192C330.922 324.174 330.968 324.169 331.013 324.176C331.635 324.276 332.1 323.856 332.709 323.741C335.139 323.232 337.625 323.045 340.104 323.184C340.532 323.218 340.958 323.106 341.315 322.867C341.821 322.528 341.769 322.339 341.158 322.301C339.229 322.188 337.605 321.927 335.778 321.214C333.281 320.233 330.735 319.381 328.151 318.663C327.953 318.609 327.78 318.491 327.659 318.326C327.538 318.161 327.477 317.96 327.485 317.756C327.533 316.771 327.742 315.801 328.103 314.883C328.435 314.024 328.891 313.218 329.456 312.491C331.282 310.136 333.85 308.475 337.159 307.508C339.635 306.783 341.859 306.435 343.831 306.464C344.553 306.477 345.295 306.247 345.973 306.029C346.216 305.955 346.44 305.833 346.634 305.67C346.828 305.506 346.986 305.305 347.1 305.079C347.284 304.726 347.399 304.34 347.437 303.944C347.488 303.409 347.253 303.204 346.732 303.33C344.014 303.989 341.149 303.59 338.137 302.134C337.065 301.614 336.012 301.09 334.98 300.562C334.089 300.104 333.249 299.555 332.472 298.924C332.037 298.572 331.578 298.246 331.113 297.941C329.847 297.115 329.511 295.874 330.106 294.218C331.137 291.336 336.024 289.568 338.603 288.97C341.104 288.39 343.828 287.798 346.776 287.193C346.886 287.184 346.993 287.15 347.089 287.096C347.185 287.042 347.269 286.967 347.334 286.878C347.399 286.788 347.444 286.686 347.466 286.577C347.488 286.469 347.486 286.357 347.461 286.249L347.133 283.489C347.076 282.994 346.818 282.849 346.358 283.054C340.726 285.534 334.277 283.431 329.66 279.616C328.335 278.529 326.833 276.928 326.365 275.295C324.969 270.456 331.48 269.886 334.847 269.966C337.951 270.035 341.031 270.531 343.999 271.443C344.303 271.534 344.412 271.428 344.327 271.121C344.284 270.995 344.218 270.879 344.131 270.778C344.013 270.632 343.922 270.466 343.862 270.288L342.141 265.188C342.132 265.161 342.131 265.133 342.137 265.105C342.143 265.078 342.157 265.052 342.176 265.032L342.285 264.919C342.311 264.89 342.331 264.892 342.346 264.919C342.821 266.008 343.232 267.124 343.577 268.261C343.75 268.847 344.032 269.395 344.407 269.877C344.842 270.443 344.979 270.38 344.792 269.681L343.411 264.614C343.381 264.516 343.411 264.464 343.52 264.457L343.69 264.444C343.71 264.441 343.731 264.446 343.747 264.457C343.764 264.468 343.776 264.485 343.781 264.505C344.423 266.535 345.011 268.637 345.543 270.812C345.866 272.005 346.374 273.139 347.048 274.175C347.903 275.576 348.58 277.079 349.062 278.648C349.764 280.875 349.379 283.15 349.651 285.473C349.656 285.517 349.653 285.561 349.64 285.604C349.628 285.646 349.608 285.686 349.581 285.72C349.553 285.755 349.519 285.784 349.48 285.805C349.442 285.826 349.399 285.84 349.355 285.845C349.323 285.85 349.29 285.85 349.257 285.845L348.316 285.684C348.235 285.662 348.148 285.673 348.075 285.713C348.002 285.754 347.947 285.821 347.922 285.901C347.637 286.652 348.535 287.076 349.066 287.35C349.222 287.431 349.356 287.55 349.455 287.695C349.555 287.84 349.617 288.008 349.636 288.183C349.871 290.336 350.077 292.634 350.253 295.077C350.432 297.491 350.177 299.533 349.49 301.203C349.342 301.585 349.108 301.927 348.805 302.202C348.512 302.463 348.26 302.767 348.059 303.104C348.008 303.192 347.981 303.291 347.978 303.392C347.975 303.493 347.998 303.593 348.044 303.683C348.089 303.773 348.157 303.85 348.24 303.907C348.323 303.965 348.42 304 348.52 304.011C348.827 304.042 349.137 304.003 349.427 303.896C349.512 303.866 349.604 303.871 349.686 303.909C349.767 303.946 349.83 304.014 349.862 304.098C349.88 304.148 349.886 304.2 349.879 304.253C349.22 310.052 347.749 315.368 345.467 320.201C345.103 320.988 344.598 321.703 343.977 322.308C343.865 322.411 343.795 322.552 343.781 322.704C343.772 322.851 343.749 322.996 343.714 323.139C342.483 328.096 340.278 332.213 337.1 335.49C336.345 336.233 335.692 337.073 335.158 337.989C334.666 338.882 334.173 339.762 333.679 340.629C333.555 340.862 333.344 341.038 333.092 341.118C332.85 341.196 332.795 341.124 332.929 340.901L335.599 336.551C335.672 336.448 335.706 336.323 335.695 336.198C335.685 336.072 335.63 335.955 335.541 335.866C335.46 335.769 335.356 335.694 335.238 335.648C335.159 335.611 335.073 335.59 334.985 335.586C334.897 335.582 334.809 335.595 334.726 335.626C334.644 335.656 334.568 335.702 334.503 335.761C334.438 335.821 334.386 335.893 334.349 335.972L331.928 340.105C331.904 340.139 331.88 340.148 331.852 340.129L331.72 340.057C331.696 340.048 331.674 340.034 331.657 340.015C331.64 339.996 331.628 339.974 331.621 339.949C331.615 339.925 331.614 339.899 331.619 339.874C331.625 339.849 331.636 339.826 331.652 339.807L333.851 336.096C333.876 336.053 333.892 336.006 333.898 335.956C333.905 335.907 333.902 335.857 333.889 335.809C333.876 335.761 333.853 335.716 333.823 335.676C333.793 335.637 333.755 335.604 333.712 335.579C333.69 335.566 333.666 335.555 333.642 335.546C332.642 335.217 331.597 334.902 330.508 334.6C329.91 334.439 329.521 334.165 328.986 333.917C328.341 333.627 328.147 333.814 328.405 334.478C329.066 336.17 329.799 337.959 330.604 339.844C330.976 340.714 331.626 341.407 331.909 342.295C332.666 344.615 333.476 346.9 334.34 349.152C334.503 349.587 334.625 349.565 334.701 349.119C335.226 346.051 336.766 343.574 339.321 341.686C339.619 341.469 339.939 341.283 340.275 341.131C340.741 340.914 341.102 340.505 341.558 340.333C344.973 339.028 349.205 340.637 351.798 342.96C354.285 345.157 356.238 347.894 357.507 350.961C357.772 351.614 357.931 351.587 357.985 350.881C358.703 341.183 360.664 332.312 366.671 324.391C370.777 318.941 375.58 314.053 380.958 309.853C381.628 309.323 382.403 308.943 383.233 308.737C383.5 308.673 383.781 308.703 384.029 308.822C384.277 308.941 384.476 309.141 384.594 309.389C385.535 311.363 386.359 313.33 387.065 315.292C388.805 320.119 389.076 324.914 387.88 329.679C386.239 336.418 383.183 342.731 378.916 348.199C378.885 348.237 378.865 348.284 378.859 348.332C378.854 348.381 378.862 348.43 378.883 348.474C378.904 348.519 378.938 348.556 378.979 348.582C379.021 348.608 379.069 348.622 379.118 348.621C379.407 348.625 379.69 348.538 379.927 348.371C381.15 347.516 382.463 346.796 383.842 346.225C385.851 345.422 387.932 344.811 390.057 344.4C392.5 343.892 394.716 344.16 396.706 345.202C400.377 347.127 400.24 351.601 399.333 355.157C396.027 368.14 382.013 376.305 370.297 380.252C366.842 381.393 363.329 382.347 359.773 383.11C359.599 383.149 359.566 383.236 359.677 383.375C359.723 383.423 359.78 383.459 359.843 383.481C359.905 383.502 359.972 383.509 360.038 383.499C362.167 383.502 364.29 383.707 366.38 384.112C369.875 384.765 374.733 387.033 373.137 391.289C372.448 393.116 368.981 396.84 366.863 396.859C359.712 396.933 352.47 396.956 345.136 396.927C344.913 396.949 344.689 396.905 344.492 396.798Z" fill="#FCBC37"/>
<path d="M178.753 269.793C178.837 269.852 178.913 269.921 178.981 269.997C179.034 270.059 179.066 270.135 179.075 270.215C180.038 277.106 183.29 282.54 188.831 286.515C192.186 288.923 196.06 290.509 200.14 291.145C211.232 292.927 222.078 289.377 228.587 279.889C230.593 276.995 231.815 273.632 232.136 270.126C232.176 269.968 232.264 269.827 232.386 269.721C234.743 269.461 237.127 269.789 239.326 270.676C239.391 270.703 239.445 270.747 239.484 270.805C239.523 270.863 239.544 270.931 239.544 271L239.511 311.793C238.04 312.92 236.634 314.055 235.294 315.199C233.375 316.839 231.962 317.839 231.058 318.2C229.331 318.891 227.334 319.049 225.068 318.675C222.519 318.257 220.334 316.391 218.692 314.577C214.59 310.053 210.458 305.559 206.295 301.093C206.006 300.784 205.701 300.476 205.377 300.162C205.324 300.109 205.258 300.07 205.186 300.048C205.114 300.027 205.038 300.023 204.964 300.038C204.755 300.083 204.559 300.174 204.39 300.304C204.221 300.435 204.083 300.602 203.988 300.793C202.058 303 199.812 305.125 197.998 307.189C195.446 310.096 192.746 313.052 189.897 316.056C188.376 317.658 186.468 318.516 184.173 318.631C179.714 318.849 177.724 317.283 174.551 314.462C168.007 308.653 161.526 302.82 158.634 294.497C158.144 293.101 158.044 291.746 157.707 290.365C156.885 279.736 165.619 271.713 175.336 269.815C176.463 269.587 177.623 269.58 178.753 269.793Z" fill="#FDFDFD"/>
<path d="M253.59 289.303C252.937 294.637 250.702 299.601 246.885 304.196C245.63 305.731 244.209 307.123 242.648 308.346L242.576 272.054C242.576 271.911 242.637 271.876 242.761 271.95C244.534 272.976 246.189 274.194 247.696 275.582C251.615 279.186 253.579 283.76 253.59 289.303Z" fill="#FDFDFD"/>
<path d="M319.098 272.072C319.272 273.548 319.456 276.338 319.65 280.441C320.042 288.752 318.837 296.574 316.036 303.907C315.118 306.313 314.289 310.289 313.548 315.836C312.479 314.857 311.352 313.942 310.174 313.096C300.986 306.239 291.384 302.222 280.527 300.421C278.208 300.021 275.945 299.347 273.785 298.412C270.391 296.972 267.006 295.486 263.631 293.953C264.947 293.962 266.062 293.735 266.976 293.273C273.27 290.083 279.496 287.265 285.653 284.819C291.756 282.398 298.106 281.191 304.622 282.668C304.771 282.701 304.924 282.704 305.073 282.676C305.223 282.648 305.365 282.591 305.492 282.507C310.242 279.378 314.05 274.984 319.098 272.072Z" fill="#10303E"/>
<path d="M363.71 295.147C360.545 296.708 357.274 296.7 353.825 296.847C353.747 296.85 353.669 296.832 353.6 296.796C353.53 296.76 353.471 296.707 353.427 296.641C353.384 296.576 353.358 296.501 353.351 296.423C353.345 296.345 353.358 296.266 353.39 296.195C355.782 291.243 358.253 286.071 361.517 281.624C362.42 280.393 363.497 279.014 364.945 278.418C367.283 277.459 369.077 279.136 369.947 281.182C372.342 286.826 368.818 292.624 363.71 295.147Z" fill="#FCBC37"/>
<path d="M397.557 290.483C399.04 288.936 398.988 286.48 397.442 284.997C395.895 283.514 393.439 283.565 391.956 285.112C390.473 286.658 390.524 289.114 392.071 290.598C393.617 292.081 396.074 292.029 397.557 290.483Z" fill="#FCBC37"/>
<path d="M253.59 289.299L262.244 293.307C262.231 294.705 262.118 296.647 261.906 299.133C261.735 301.134 261.621 304.159 261.563 308.209C261.492 312.994 261.54 316.038 261.706 317.343C262.328 322.219 264.451 325.862 267.578 329.577C269.61 331.997 271.493 334.925 272.08 337.926C272.514 340.293 272.721 342.696 272.698 345.103C272.698 348.973 272.712 352.742 272.739 356.412C272.745 356.449 272.743 356.487 272.731 356.523C272.72 356.559 272.701 356.592 272.674 356.62C272.648 356.647 272.616 356.667 272.581 356.68C272.545 356.693 272.507 356.697 272.47 356.693H272.302C272.18 356.693 272.124 356.629 272.137 356.501C272.174 356.191 272.141 355.877 272.04 355.582C271.939 355.286 271.772 355.018 271.552 354.796C269.606 352.739 267.141 351.724 264.157 351.751C253.902 351.859 242.93 351.827 231.241 351.656C228.868 351.621 227.006 351.766 225.656 352.091C221.776 353.011 219.249 356.758 219.236 360.829C219.221 364.039 219.173 367.334 219.212 370.592C219.241 372.933 219.452 374.657 219.843 375.764C221.046 379.174 223.932 381.353 227.555 381.636C228.438 381.704 229.339 381.739 230.258 381.74C240.089 381.788 250.261 381.807 260.776 381.797C263.035 381.797 265.515 381.968 267.576 381.379C269.397 380.842 271.072 379.897 272.472 378.615C272.623 378.453 272.823 378.344 273.041 378.305C273.26 378.266 273.485 378.298 273.683 378.397C273.76 378.426 273.824 378.484 273.861 378.557C273.898 378.631 273.906 378.716 273.883 378.795C273.723 379.567 273.692 380.36 273.792 381.142C273.819 381.337 273.918 381.515 274.069 381.64C274.22 381.766 274.413 381.83 274.61 381.821C277.178 381.698 279.735 381.395 282.261 380.914C285.61 380.286 289.061 379.625 292.613 378.93L294.499 396.381L204.793 396.04C204.841 388.102 204.856 380.278 204.837 372.569C204.833 372.497 204.813 372.426 204.779 372.363C204.744 372.3 204.695 372.245 204.637 372.203C204.761 372.245 204.821 372.169 204.821 371.975C204.9 353.353 204.912 334.752 204.858 316.173C204.844 311.663 204.835 307.151 204.83 302.639C204.83 302.185 204.792 301.732 204.717 301.284C204.661 300.936 204.417 300.771 203.986 300.786C204.082 300.595 204.22 300.428 204.389 300.298C204.558 300.167 204.754 300.076 204.963 300.032C205.037 300.016 205.113 300.02 205.185 300.041C205.257 300.063 205.323 300.102 205.376 300.156C205.7 300.469 206.005 300.778 206.294 301.086C210.462 305.546 214.594 310.041 218.69 314.57C220.332 316.384 222.518 318.25 225.067 318.668C227.336 319.042 229.333 318.884 231.056 318.194C231.961 317.833 233.373 316.832 235.293 315.192C236.631 314.048 238.037 312.913 239.51 311.787V327.121C239.51 327.177 239.491 327.232 239.456 327.276C239.421 327.32 239.373 327.351 239.319 327.365C237.808 327.716 236.457 328.556 235.473 329.755C234.49 330.954 233.93 332.444 233.882 333.994C233.774 336.976 235.019 339.197 237.616 340.658C238.848 341.33 240.253 341.616 241.65 341.477C243.046 341.339 244.369 340.784 245.445 339.883C249.795 336.145 248.581 329.32 243.09 327.43C242.98 327.393 242.884 327.322 242.816 327.228C242.748 327.133 242.712 327.02 242.711 326.904L242.64 308.348C244.2 307.125 245.621 305.734 246.876 304.199C250.698 299.6 252.936 294.633 253.59 289.299Z" fill="#ACCF91"/>
<path d="M157.708 290.357C158.045 291.743 158.143 293.098 158.634 294.49C161.527 302.813 168.008 308.646 174.552 314.455C177.725 317.282 179.715 318.852 184.173 318.624C186.47 318.508 188.378 317.649 189.897 316.049C192.746 313.046 195.447 310.09 197.999 307.182C199.812 305.118 202.059 302.993 203.988 300.786C204.423 300.771 204.662 300.936 204.719 301.284C204.794 301.732 204.832 302.185 204.832 302.639C204.832 307.149 204.841 311.661 204.86 316.173C204.915 334.752 204.903 353.352 204.823 371.975C204.823 372.168 204.762 372.244 204.638 372.203C203.133 372.299 201.625 372.348 200.113 372.351C176.594 372.407 153.076 372.413 129.559 372.368C127.204 372.368 124.635 372.399 121.851 372.46C112.587 372.68 103.339 371.554 94.3982 369.117C92.0603 368.48 89.8311 367.581 87.5866 366.759C87.5461 366.744 87.5105 366.718 87.4837 366.684C87.4569 366.65 87.4398 366.609 87.4344 366.566C87.4316 366.524 87.4167 366.484 87.3916 366.45C87.3666 366.417 87.3323 366.391 87.293 366.377C86.7746 366.153 86.228 366 85.6684 365.924C85.5 365.899 85.346 365.815 85.2335 365.687C84.9374 365.373 84.5475 365.163 84.1221 365.089C83.7297 365.009 83.3504 364.874 82.9956 364.689C80.8871 363.609 78.8676 362.364 76.9561 360.966L79.2635 349.907C79.9122 348.801 80.454 347.635 80.8816 346.427C81.2702 345.445 81.4595 344.395 81.4384 343.339L83.5458 337.508C84.465 337.251 84.8007 336.711 84.5527 335.888C87.0985 330.342 90.4185 325.185 94.4134 320.572C95.9449 318.768 97.6176 317.088 99.4156 315.549C103.463 312.102 107.877 309.111 112.58 306.632C112.702 306.578 112.802 306.484 112.864 306.365C112.926 306.247 112.946 306.111 112.921 305.979L112.95 306.212C112.971 306.373 113.058 306.429 113.211 306.353C116.962 304.605 120.866 303.205 124.874 302.173C127.629 301.483 130.384 300.807 133.139 300.146C134.482 299.824 135.8 299.403 137.082 298.887C143.979 296.127 150.854 293.283 157.708 290.357Z" fill="#FEC103"/>
<path d="M365.245 294.71C367.164 293.229 368.984 291.52 371.263 290.602C373.438 289.732 375.798 290.493 377.185 292.299C378.999 294.656 379.475 297.363 378.614 300.419C376.981 306.222 371.452 309.965 365.972 312.031C362.89 313.194 359.761 314.162 356.598 314.347C354.998 314.443 353.506 313.853 352.233 312.951C352.117 312.868 352.025 312.755 351.968 312.624C351.91 312.493 351.89 312.349 351.909 312.207C352.029 311.404 352.427 310.759 352.779 310.05C355.678 304.032 359.948 298.778 365.245 294.71Z" fill="#FCBC37"/>
<path d="M262.245 293.311L263.635 293.952C267.01 295.483 270.395 296.969 273.789 298.411C275.949 299.345 278.212 300.02 280.531 300.42C291.388 302.21 300.99 306.238 310.178 313.095C311.356 313.941 312.482 314.856 313.552 315.835C315.258 317.265 316.861 318.812 318.351 320.466C318.463 320.591 318.6 320.691 318.754 320.759C318.907 320.828 319.073 320.863 319.241 320.863C318.781 322.938 318.854 325.213 319.458 327.688C320.282 331.033 321.211 333.764 322.247 335.881C323.915 339.282 325.367 342.405 328.145 345.141C328.252 345.246 328.317 345.387 328.328 345.537C328.338 345.687 328.293 345.836 328.201 345.955C324.361 350.968 320.032 355.586 315.276 359.741C313.14 361.611 311.002 363.469 308.86 365.315C307.74 366.281 305.019 367.989 300.698 370.441C300.649 370.473 300.607 370.516 300.577 370.567C300.548 370.618 300.53 370.676 300.526 370.735C300.524 370.762 300.513 370.787 300.495 370.807C300.477 370.828 300.453 370.842 300.426 370.848C300.375 370.861 300.321 370.861 300.27 370.848C300.213 370.836 300.154 370.847 300.105 370.876C299.226 371.367 297.978 372.012 296.362 372.809C296.19 372.896 296.183 372.992 296.342 373.099L296.527 373.223C296.592 373.267 296.669 373.293 296.748 373.297C296.827 373.301 296.905 373.284 296.975 373.247C302.572 370.28 306.405 368.012 308.475 366.441C315.967 360.77 322.67 354.126 328.408 346.685C328.557 346.491 328.744 346.33 328.958 346.211C329.078 346.147 329.219 346.132 329.351 346.171C329.482 346.21 329.592 346.298 329.658 346.418C329.687 346.472 329.706 346.53 329.715 346.59C330.079 349.24 330.522 351.825 331.044 354.345C331.653 357.29 332.885 360.295 334.741 363.36C334.465 363.603 334.141 363.786 333.791 363.897C328.435 365.759 323.127 367.833 317.866 370.121C313.264 372.126 310.341 373.359 309.095 373.819C304.356 375.603 299.52 377.12 294.611 378.362C293.938 378.514 293.275 378.706 292.625 378.938C289.074 379.63 285.624 380.291 282.273 380.922C279.747 381.402 277.19 381.706 274.622 381.828C274.426 381.838 274.233 381.773 274.081 381.648C273.93 381.522 273.831 381.345 273.804 381.15C273.705 380.368 273.735 379.575 273.896 378.803C273.918 378.724 273.91 378.639 273.873 378.565C273.836 378.491 273.773 378.434 273.696 378.405C273.497 378.306 273.272 378.274 273.054 378.313C272.835 378.352 272.636 378.461 272.484 378.623C271.084 379.905 269.41 380.85 267.589 381.387C265.527 381.976 263.048 381.805 260.788 381.805C250.272 381.816 240.099 381.797 230.271 381.748C229.353 381.748 228.452 381.713 227.567 381.644C223.944 381.367 221.058 379.188 219.855 375.772C219.464 374.667 219.254 372.943 219.225 370.6C219.185 367.338 219.225 364.047 219.249 360.837C219.262 356.766 221.789 353.008 225.669 352.098C227.02 351.778 228.882 351.633 231.254 351.663C242.944 351.835 253.916 351.866 264.17 351.759C267.145 351.726 269.61 352.741 271.564 354.804C271.784 355.026 271.951 355.294 272.052 355.589C272.154 355.885 272.187 356.199 272.149 356.509C272.136 356.637 272.193 356.7 272.314 356.7H272.482C272.519 356.705 272.557 356.701 272.593 356.688C272.628 356.675 272.661 356.655 272.687 356.627C272.713 356.6 272.732 356.567 272.744 356.531C272.755 356.495 272.758 356.457 272.752 356.42C272.723 352.746 272.709 348.976 272.71 345.111C272.733 342.704 272.526 340.301 272.093 337.934C271.503 334.932 269.622 332.005 267.591 329.585C264.47 325.87 262.347 322.227 261.719 317.351C261.552 316.038 261.504 312.993 261.575 308.217C261.633 304.167 261.748 301.142 261.919 299.141C262.123 296.653 262.232 294.71 262.245 293.311Z" fill="#FEE9B2"/>
<path d="M404.39 297.884C404.057 297.449 403.52 297.214 403.226 296.773C403.093 296.575 403.141 296.508 403.372 296.569C403.505 296.598 403.626 296.67 403.715 296.773C404.622 297.769 405.557 298.752 406.216 299.926C409.144 305.131 409.818 310.303 409.381 316.164C409.153 318.964 408.654 321.736 407.893 324.441C405.84 331.835 402.501 338.811 398.03 345.048C398.019 345.071 398.002 345.091 397.98 345.106C397.959 345.12 397.934 345.129 397.908 345.131C397.882 345.134 397.856 345.129 397.833 345.118C397.809 345.107 397.789 345.091 397.774 345.069L397.622 344.928C397.607 344.917 397.594 344.902 397.585 344.886C397.576 344.869 397.571 344.851 397.569 344.832C397.567 344.814 397.569 344.795 397.575 344.777C397.58 344.759 397.59 344.742 397.602 344.728C398.762 343.065 399.837 341.398 400.827 339.726C405.275 332.295 407.951 324.538 408.852 316.455C409.216 313.142 409.069 309.793 408.417 306.525C407.823 303.45 406.48 300.57 404.39 297.884Z" fill="#FEE9B2"/>
<path d="M64.2876 315.995C67.9848 321.263 70.2727 327.217 71.6581 333.463C72.062 335.246 72.2295 337.074 72.1561 338.901C72.1126 339.927 72.2888 339.967 72.6846 339.02C74.0113 335.841 75.3379 332.351 76.6645 328.553C77.1774 327.181 77.7834 325.846 78.4784 324.557L82.9476 330.764C83.371 332.986 83.5677 335.245 83.5349 337.506L81.4274 343.337C80.8294 345.266 80.2074 346.971 78.9677 348.629C74.7224 354.305 70.6983 360.001 66.8952 365.716C66.6241 366.128 66.7285 366.282 67.2084 366.177C67.5853 366.096 67.9529 365.806 68.311 365.307C71.9038 360.279 75.551 355.147 79.2526 349.912L76.9451 360.971C76.104 362.756 75.5183 364.651 75.2052 366.599C74.2135 372.399 72.9086 378.337 71.2905 384.413C67.7209 370.307 63.5242 356.583 58.7004 343.239C58.6445 343.083 58.626 342.917 58.6464 342.752C58.6668 342.588 58.7256 342.431 58.8179 342.293L67.3954 329.795C67.4162 329.77 67.4316 329.741 67.4407 329.709C67.4497 329.678 67.4523 329.645 67.4483 329.613C67.4442 329.581 67.4335 329.55 67.4169 329.522C67.4004 329.494 67.3782 329.47 67.3519 329.451L67.2627 329.37C67.253 329.357 67.2404 329.347 67.2259 329.339C67.2113 329.332 67.1953 329.328 67.179 329.328C67.1627 329.328 67.1467 329.332 67.1322 329.339C67.1176 329.347 67.105 329.357 67.0953 329.37C63.9142 333.13 60.9224 337.013 58.1197 341.019C58.0986 341.05 58.0662 341.071 58.0295 341.078C57.9928 341.085 57.9549 341.077 57.924 341.056C57.9004 341.04 57.8828 341.017 57.874 340.991C55.4451 334.402 52.6645 327.947 49.5444 321.656C47.8708 318.3 46.0106 315.041 43.9725 311.893C43.0416 310.451 42.1144 308.993 41.1908 307.52C41.1856 307.51 41.1783 307.501 41.1693 307.494C41.1603 307.488 41.1499 307.483 41.1389 307.481C41.1278 307.478 41.1164 307.479 41.1055 307.481C41.0946 307.484 41.0843 307.489 41.0756 307.496C41.0681 307.5 41.0614 307.505 41.056 307.511C41.0507 307.517 41.0467 307.525 41.0445 307.533C41.0422 307.541 41.0417 307.549 41.0429 307.558C41.0442 307.566 41.0471 307.574 41.0517 307.581C43.4135 311.495 45.882 315.369 47.848 319.397C51.2469 326.367 54.2791 333.51 56.9323 340.797C57.0019 340.993 56.9453 341.041 56.7626 340.943C52.558 338.724 48.3533 336.687 44.1486 334.831C43.7795 334.668 43.3967 334.538 43.0047 334.442C42.0028 334.193 41.9477 334.325 42.8394 334.84C47.3616 337.463 52.1281 340.05 57.1389 342.6C57.2783 342.671 57.39 342.787 57.4564 342.928C57.7744 343.585 58.0476 344.262 58.2742 344.955C60.1184 350.552 61.875 356.11 63.5438 361.63C63.82 362.548 64.2289 363.37 64.5094 364.285C64.5171 364.307 64.5204 364.33 64.519 364.352C64.5175 364.375 64.5114 364.398 64.501 364.418C64.4906 364.438 64.4762 364.456 64.4585 364.471C64.4409 364.485 64.4205 364.496 64.3985 364.503C64.3693 364.51 64.3386 364.51 64.3093 364.503C59.0897 363.291 53.636 361.986 47.9481 360.588C46.2183 360.153 44.9859 359.704 44.2508 359.24C43.2765 358.612 42.2282 357.653 41.106 356.364C38.5687 353.44 36.0887 350.418 33.6659 347.3C33.6604 347.291 33.6529 347.283 33.6439 347.277C33.6349 347.271 33.6248 347.267 33.6141 347.266C33.6035 347.264 33.5926 347.265 33.5824 347.268C33.5722 347.272 33.5628 347.277 33.555 347.285L33.381 347.417C33.3673 347.424 33.3554 347.435 33.3464 347.447C33.3374 347.46 33.3315 347.474 33.3291 347.489C33.3268 347.505 33.3281 347.52 33.333 347.535C33.3378 347.55 33.3461 347.563 33.3571 347.574C35.0622 349.912 36.8651 352.46 38.7659 355.216C39.6556 356.52 40.7088 357.704 41.8998 358.739C42.474 359.231 42.3827 359.451 41.6302 359.405C38.5311 359.207 35.4208 359.526 32.4263 360.349C32.4128 360.351 32.4 360.357 32.3886 360.364C32.3773 360.372 32.3678 360.382 32.3606 360.394C32.3534 360.405 32.3488 360.419 32.347 360.432C32.3452 360.446 32.3463 360.46 32.3501 360.473C32.3515 360.487 32.356 360.501 32.3633 360.513C32.3706 360.525 32.3805 360.536 32.3923 360.544C32.4041 360.552 32.4176 360.558 32.4317 360.56C32.4459 360.562 32.4603 360.561 32.4741 360.558C36.4323 360.007 40.4579 360.188 44.3509 361.09L64.5573 365.744C64.6393 365.763 64.7148 365.804 64.7759 365.861C64.8371 365.919 64.8818 365.992 64.9052 366.073C66.7408 372.641 68.4915 379.299 70.1574 386.047C70.3142 386.647 70.5458 387.225 70.8469 387.767C70.7316 388.313 70.5337 388.556 70.2531 388.493C63.9548 388.084 59.4304 387.577 56.68 386.971C53.3931 386.253 50.0149 385.538 46.5453 384.824C46.4486 384.807 46.3489 384.823 46.2624 384.87C46.1759 384.916 46.1077 384.991 46.069 385.081L46.0168 385.209C45.9976 385.259 45.9987 385.314 46.0199 385.362C46.0411 385.411 46.0806 385.449 46.1299 385.468C46.1371 385.469 46.1444 385.469 46.1516 385.468C53.7629 387.555 61.5545 388.917 69.4224 389.535L70.0552 389.652C70.0923 389.652 70.1288 389.661 70.1618 389.678C70.1947 389.695 70.223 389.72 70.2444 389.75C70.2657 389.781 70.2794 389.816 70.2844 389.852C70.2893 389.889 70.2853 389.926 70.2727 389.961L68.9939 395.931L32.7068 395.807C32.67 395.807 32.6336 395.799 32.5996 395.785C32.5657 395.771 32.5349 395.75 32.5091 395.724C32.4832 395.697 32.4628 395.666 32.449 395.632C32.4351 395.598 32.4282 395.561 32.4284 395.524C32.4263 395.505 32.4263 395.485 32.4284 395.466C33.6094 390.551 36.7063 386.784 40.5862 383.702C45.712 379.619 51.4166 376.32 57.513 373.915C58.2089 373.641 58.1835 373.467 57.4369 373.391C47.5718 372.428 35.7799 368.187 28.181 361.212C25.3537 358.615 22.6156 354.518 22.9048 350.603C23.3616 344.449 30.258 343.015 35.4623 343.137C40.376 343.272 45.2408 344.152 49.8902 345.747C50.2295 345.862 50.2708 345.795 50.0185 345.549C49.643 345.176 49.2218 344.798 48.7549 344.414C45.1707 341.407 42.0374 337.901 39.451 334.003C35.4428 328.029 35.1535 322.496 35.9604 315.467C36.2938 312.873 36.9702 310.666 37.9895 308.846C39.6598 305.86 42.9916 305.717 46.0059 306.174C49.7337 306.736 53.3431 307.909 56.6887 309.647C59.6718 311.157 62.2708 313.328 64.2876 315.995Z" fill="#143C4E"/>
<path d="M71.2824 384.406L70.8474 387.759C70.5464 387.217 70.3147 386.639 70.158 386.039C68.4921 379.293 66.7413 372.635 64.9058 366.065C64.8823 365.984 64.8377 365.911 64.7765 365.854C64.7153 365.796 64.6398 365.756 64.5578 365.737L44.3514 361.083C40.4584 360.18 36.4328 359.999 32.4747 360.55C32.4609 360.554 32.4464 360.554 32.4323 360.552C32.4181 360.55 32.4047 360.544 32.3928 360.536C32.381 360.528 32.3711 360.518 32.3638 360.505C32.3565 360.493 32.3521 360.479 32.3507 360.465C32.3468 360.452 32.3457 360.438 32.3475 360.424C32.3493 360.411 32.354 360.398 32.3611 360.386C32.3683 360.374 32.3779 360.364 32.3892 360.357C32.4005 360.349 32.4133 360.343 32.4268 360.341C35.4213 359.519 38.5316 359.2 41.6307 359.397C42.3832 359.443 42.4745 359.223 41.9004 358.732C40.71 357.699 39.6567 356.518 38.7664 355.217C36.8656 352.462 35.0627 349.915 33.3576 347.575C33.3466 347.564 33.3384 347.551 33.3335 347.536C33.3287 347.521 33.3273 347.506 33.3297 347.49C33.332 347.475 33.3379 347.461 33.347 347.448C33.356 347.435 33.3678 347.425 33.3816 347.418L33.5555 347.285C33.5633 347.278 33.5727 347.273 33.5829 347.269C33.5932 347.266 33.604 347.265 33.6147 347.267C33.6253 347.268 33.6355 347.272 33.6445 347.278C33.6534 347.284 33.6609 347.292 33.6665 347.301C36.0863 350.419 38.5664 353.441 41.1066 356.365C42.2288 357.656 43.277 358.614 44.2514 359.241C44.9923 359.71 46.2247 360.16 47.9486 360.589C53.6307 361.988 59.0845 363.293 64.3099 364.504C64.3536 364.513 64.3993 364.505 64.4373 364.482C64.4754 364.458 64.503 364.421 64.5143 364.378C64.5219 364.349 64.5219 364.319 64.5143 364.291C64.2337 363.373 63.8249 362.551 63.5487 361.635C61.8813 356.114 60.1248 350.556 58.279 344.961C58.0525 344.267 57.7793 343.59 57.4613 342.934C57.3949 342.792 57.2832 342.676 57.1438 342.605C52.1315 340.053 47.365 337.467 42.8443 334.845C41.9511 334.329 42.0062 334.197 43.0095 334.447C43.4016 334.543 43.7844 334.674 44.1535 334.837C48.3582 336.693 52.5629 338.73 56.7675 340.948C56.9502 341.046 57.0068 340.998 56.9372 340.802C54.284 333.515 51.2518 326.372 47.8529 319.402C45.8955 315.374 43.4184 311.494 41.0565 307.586C41.052 307.579 41.049 307.571 41.0478 307.563C41.0466 307.555 41.0471 307.546 41.0493 307.538C41.0516 307.53 41.0556 307.523 41.0609 307.516C41.0663 307.51 41.0729 307.505 41.0805 307.501C41.0892 307.494 41.0994 307.489 41.1104 307.487C41.1213 307.484 41.1327 307.484 41.1438 307.486C41.1548 307.488 41.1652 307.493 41.1742 307.5C41.1831 307.507 41.1905 307.515 41.1957 307.525C42.1208 309 43.048 310.458 43.9773 311.899C46.0155 315.046 47.8757 318.306 49.5493 321.662C52.6694 327.953 55.45 334.407 57.8789 340.996C57.8879 341.02 57.9034 341.041 57.9235 341.056C57.9437 341.072 57.9678 341.082 57.9931 341.085C58.0185 341.088 58.0442 341.084 58.0674 341.073C58.0906 341.062 58.1104 341.045 58.1246 341.024C60.9273 337.021 63.9191 333.138 67.1002 329.376C67.1099 329.363 67.1225 329.352 67.1371 329.345C67.1516 329.338 67.1676 329.334 67.1839 329.334C67.2002 329.334 67.2162 329.338 67.2308 329.345C67.2453 329.352 67.2579 329.363 67.2676 329.376L67.3568 329.456C67.3831 329.475 67.4053 329.499 67.4218 329.527C67.4384 329.555 67.4491 329.586 67.4531 329.619C67.4572 329.651 67.4546 329.684 67.4455 329.715C67.4365 329.746 67.4211 329.775 67.4003 329.8L58.8228 342.299C58.7304 342.436 58.6717 342.593 58.6513 342.758C58.6309 342.922 58.6494 343.089 58.7053 343.245C63.5204 356.587 67.7127 370.307 71.2824 384.406Z" fill="#FDFDFD"/>
<path d="M344.078 391.738C343.56 391.303 343.425 390.527 343.643 389.431L351.92 373.27C351.955 373.203 351.976 373.13 351.982 373.056C351.987 372.981 351.977 372.906 351.953 372.835C349.727 366.561 347.625 360.389 345.646 354.318C345.021 352.402 344.47 350.467 343.993 348.516C343.323 345.769 343.558 343.609 344.154 341.045C344.274 340.528 344.48 340.493 344.772 340.937C344.896 341.126 344.955 341.35 344.941 341.576C344.825 343.425 344.781 345.253 344.809 347.061C344.843 349.166 345.763 351.763 346.585 353.788C349.079 359.903 351.191 365.74 352.921 371.297C352.975 371.473 353.042 371.48 353.125 371.315C359.483 358.744 366.084 346.021 372.929 333.146C373.213 332.614 373.47 332.068 373.697 331.509C374.006 330.734 374.486 330.156 374.852 329.414C376.832 325.413 378.849 321.42 380.902 317.437C382.174 314.967 383.029 312.435 384.193 309.943C384.208 309.911 384.235 309.887 384.269 309.875C384.302 309.863 384.339 309.865 384.371 309.88C384.4 309.894 384.423 309.918 384.436 309.947C384.477 310.048 384.477 310.16 384.436 310.26C382.981 314.601 381.226 318.834 379.184 322.931C379.132 323.042 379.048 323.136 378.943 323.199C378.898 323.223 378.862 323.26 378.837 323.304C378.813 323.348 378.801 323.398 378.803 323.449C378.804 323.543 378.783 323.636 378.742 323.721L365.82 349.299C365.633 349.666 365.72 349.749 366.081 349.551C371.38 346.606 376.354 343.533 381.002 340.332C381.053 340.297 381.11 340.273 381.17 340.26C381.718 340.16 381.881 340.426 381.659 341.058C381.416 341.682 380.971 342.205 380.395 342.546C375.668 345.679 370.741 348.498 365.643 350.984C364.943 351.307 364.374 351.86 364.034 352.552C360.746 359.319 357.373 366.054 353.915 372.759C353.821 372.937 353.871 372.998 354.06 372.944C364.519 370.123 374.498 365.756 383.666 359.988C386.006 358.516 388.07 357.089 389.856 355.706L390.35 355.325C392.823 353.407 395.582 351.142 398.627 348.529C398.632 348.522 398.639 348.517 398.647 348.513C398.654 348.509 398.663 348.507 398.672 348.507C398.68 348.507 398.689 348.509 398.696 348.513C398.704 348.517 398.711 348.522 398.716 348.529C398.721 348.533 398.724 348.538 398.727 348.543C398.729 348.548 398.731 348.554 398.731 348.56C398.731 348.566 398.729 348.572 398.727 348.578C398.724 348.583 398.721 348.588 398.716 348.592C394.926 352.61 390.713 356.207 386.15 359.32C377.136 365.447 367.22 370.124 356.759 373.183C355.648 373.511 354.521 373.782 353.382 373.994C353.31 374.008 353.242 374.038 353.184 374.081C353.126 374.125 353.078 374.181 353.045 374.246L344.078 391.738Z" fill="#273624"/>
<path d="M348.701 320.166C351.02 316.686 353.745 314.046 358.362 315.275C360.302 315.788 361.513 317.058 361.994 319.083C362.559 321.475 361.083 324.366 359.321 326.103C355.1 330.264 350.539 331.375 344.765 331.303C344.728 331.303 344.691 331.295 344.656 331.28C344.622 331.265 344.591 331.244 344.565 331.217C344.539 331.19 344.518 331.158 344.504 331.123C344.491 331.089 344.484 331.052 344.484 331.014C344.484 330.999 344.484 330.986 344.484 330.971C345.117 327.113 346.553 323.432 348.701 320.166Z" fill="#FCBC37"/>
<path d="M94.4017 320.573C90.4067 325.186 87.0867 330.342 84.541 335.888C83.8291 332.456 83.065 329.257 82.2487 326.291C82.2462 326.279 82.2415 326.268 82.2348 326.259C82.2281 326.249 82.2195 326.241 82.2095 326.234C82.2034 326.23 82.1963 326.228 82.1889 326.228C82.1815 326.228 82.1743 326.23 82.1682 326.234C82.1585 326.242 82.1511 326.252 82.1469 326.263C82.1426 326.275 82.1417 326.287 82.1443 326.299C82.4053 327.783 82.6728 329.274 82.9468 330.773L78.4775 324.566C79.3167 322.897 80.3307 321.321 81.5027 319.866C83.3448 317.491 85.6806 316.2 88.7493 316.798C91.0502 317.25 92.9344 318.509 94.4017 320.573Z" fill="#10303E"/>
<path d="M84.5417 335.884C84.7896 336.707 84.4539 337.247 83.5347 337.504C83.5676 335.243 83.3708 332.984 82.9475 330.762C82.6764 329.261 82.4089 327.77 82.145 326.288C82.1424 326.276 82.1433 326.264 82.1475 326.252C82.1518 326.241 82.1592 326.231 82.1689 326.223C82.175 326.219 82.1822 326.217 82.1896 326.217C82.1969 326.217 82.2041 326.219 82.2102 326.223C82.2202 326.229 82.2288 326.238 82.2355 326.247C82.2422 326.257 82.2469 326.268 82.2494 326.28C83.0657 329.25 83.8298 332.452 84.5417 335.884Z" fill="#FEE9B2"/>
<path d="M79.2513 349.914C75.5497 355.15 71.9025 360.282 68.3097 365.31C67.9516 365.81 67.584 366.1 67.2071 366.18C66.7272 366.284 66.6228 366.131 66.8939 365.719C70.6955 360.003 74.7197 354.308 78.9664 348.631C80.206 346.974 80.828 345.269 81.4261 343.34C81.4472 344.396 81.258 345.446 80.8694 346.428C80.4422 347.639 79.9003 348.806 79.2513 349.914Z" fill="#FEE9B2"/>
<path d="M23.0323 369.676C15.6717 364.143 9.18174 357.538 3.77846 350.081C2.46124 348.267 1.31663 346.334 0.359621 344.307C0.352987 344.296 0.348781 344.284 0.347289 344.271C0.345797 344.258 0.347053 344.246 0.350972 344.233C0.354892 344.221 0.361383 344.21 0.370004 344.201C0.378626 344.191 0.389178 344.184 0.400943 344.179C0.413609 344.169 0.428258 344.162 0.443852 344.159C0.459446 344.155 0.475601 344.155 0.491171 344.159C0.50674 344.162 0.52134 344.169 0.533936 344.179C0.546533 344.189 0.556817 344.201 0.564055 344.216C1.21651 345.214 1.68409 346.341 2.32567 347.332C6.36941 353.56 11.381 359.273 17.3603 364.472C19.3379 366.19 21.2851 367.858 23.2019 369.474C23.2239 369.498 23.2367 369.528 23.2379 369.56C23.2391 369.592 23.2286 369.624 23.2085 369.649C23.1883 369.674 23.1598 369.69 23.1282 369.696C23.0966 369.701 23.0641 369.695 23.0366 369.679L23.0323 369.676Z" fill="#ACCF91"/>
<path d="M233.84 365.22C233.821 365.23 233.804 365.243 233.79 365.26C233.777 365.276 233.767 365.295 233.761 365.316C233.756 365.337 233.755 365.358 233.758 365.379C233.761 365.4 233.769 365.42 233.781 365.438C233.803 365.475 233.838 365.501 233.879 365.512C237.996 366.475 239.064 372.843 239.111 376.41C239.111 376.483 239.082 376.554 239.031 376.605C238.979 376.657 238.909 376.686 238.835 376.686L225.053 376.554C225.014 376.552 224.976 376.536 224.947 376.509C224.918 376.482 224.9 376.445 224.897 376.406C224.647 372.763 225.706 366.68 229.788 365.616C230.085 365.541 230.098 365.43 229.827 365.284C226.289 363.402 226.213 358.359 229.871 356.554C235.351 353.837 239.509 362.132 233.84 365.22Z" fill="#143C4E"/>
<path d="M337.699 361.729C337.699 362.382 337.481 362.912 337.225 362.908C336.968 362.904 336.777 362.371 336.79 361.716C336.803 361.061 337.007 360.531 337.264 360.535C337.52 360.54 337.707 361.072 337.699 361.729Z" fill="#FEE9B2"/>
<path d="M198.548 368.728C200.365 366.911 200.365 363.964 198.548 362.147C196.73 360.329 193.783 360.329 191.966 362.147C190.148 363.964 190.148 366.911 191.966 368.728C193.783 370.546 196.73 370.546 198.548 368.728Z" fill="#FDFDFD"/>
<path d="M76.9436 360.969C78.8551 362.368 80.8746 363.613 82.9831 364.692C83.3379 364.878 83.7172 365.012 84.1096 365.092C84.535 365.166 84.925 365.376 85.221 365.69C85.3335 365.818 85.4875 365.902 85.656 365.927C86.2155 366.004 86.7621 366.156 87.2805 366.38C87.3198 366.394 87.3541 366.42 87.3792 366.453C87.4042 366.487 87.4191 366.527 87.4219 366.569C87.4274 366.612 87.4444 366.653 87.4712 366.687C87.498 366.721 87.5336 366.747 87.5742 366.763C89.8121 367.585 92.0478 368.483 94.3857 369.12C103.327 371.557 112.574 372.683 121.839 372.463C124.622 372.396 127.192 372.366 129.546 372.371C153.065 372.418 176.583 372.412 200.1 372.354C201.614 372.354 203.122 372.305 204.626 372.206C204.685 372.248 204.733 372.302 204.768 372.366C204.803 372.429 204.822 372.499 204.826 372.571C204.843 380.282 204.829 388.106 204.782 396.042H120.068L122.232 378.602C122.243 378.511 122.218 378.419 122.162 378.347C122.106 378.274 122.023 378.227 121.932 378.215H121.878C106.519 378.737 92.0434 375.665 78.4507 368.998C77.6837 368.618 76.5963 367.821 75.1885 366.606C75.5056 364.654 76.0964 362.756 76.9436 360.969Z" fill="#FEE9B2"/>
<path d="M265.292 362.769L245.973 362.87C245.432 362.873 244.996 363.313 244.999 363.854L244.999 363.891C245.002 364.431 245.443 364.867 245.983 364.864L265.302 364.763C265.843 364.76 266.278 364.32 266.276 363.779L266.275 363.742C266.273 363.202 265.832 362.766 265.292 362.769Z" fill="#FCBC37"/>
<path d="M337.269 363.742C337.117 364.059 337.117 364.704 337.269 365.675C338.033 369.054 338.864 372.468 339.762 375.919C340.745 379.675 341.719 384.653 343.024 388.968C343.157 389.403 343.363 389.562 343.642 389.446C343.409 390.534 343.555 391.312 344.077 391.754L344.638 395.203C344.653 395.275 344.646 395.349 344.618 395.416C344.59 395.484 344.542 395.541 344.481 395.581C343.544 396.273 342.754 396.618 342.111 396.617L330.366 396.641L294.497 396.423L292.611 378.972C293.261 378.74 293.924 378.548 294.597 378.396C299.506 377.154 304.342 375.638 309.081 373.853C310.325 373.387 313.249 372.155 317.852 370.156C323.113 367.868 328.421 365.793 333.777 363.931C334.127 363.82 334.451 363.637 334.727 363.394C335.308 363.184 335.909 363.039 336.521 362.959C337.001 362.91 337.251 363.171 337.269 363.742Z" fill="#FC6246"/>
<path d="M337.264 365.667C337.119 364.696 337.119 364.051 337.264 363.734C338.288 363.593 339.304 363.4 340.309 363.155C340.437 363.112 340.574 363.102 340.707 363.126C340.84 363.15 340.965 363.207 341.07 363.292C341.196 363.408 341.185 363.51 341.035 363.581L337.264 365.667Z" fill="#FDFDFD"/>
<path d="M75.196 366.596C76.6053 367.811 77.6928 368.608 78.4583 368.988C92.051 375.658 106.527 378.73 121.885 378.205C121.977 378.202 122.067 378.236 122.134 378.298C122.201 378.361 122.241 378.448 122.244 378.54C122.246 378.558 122.246 378.576 122.244 378.594L120.08 396.034L68.9717 395.943L70.2505 389.973C70.2631 389.938 70.2671 389.901 70.2621 389.864C70.2572 389.827 70.2435 389.792 70.2221 389.762C70.2008 389.732 70.1725 389.707 70.1395 389.69C70.1066 389.673 70.0701 389.664 70.033 389.664L69.4001 389.547C69.6744 389.619 69.9599 389.64 70.2418 389.608C70.3321 389.594 70.417 389.557 70.4871 389.498C70.5572 389.44 70.6097 389.363 70.6387 389.276C70.6678 389.19 70.6723 389.097 70.6518 389.008C70.6312 388.919 70.5864 388.837 70.5223 388.772L70.2374 388.488C70.518 388.551 70.7159 388.307 70.8312 387.761L71.2661 384.408C72.8958 378.34 74.2058 372.403 75.196 366.596Z" fill="#FC6246"/>
<path d="M244.951 369.618L244.951 369.668C244.947 370.273 245.434 370.767 246.039 370.771L264.99 370.904C265.596 370.908 266.09 370.421 266.094 369.815L266.095 369.765C266.099 369.16 265.612 368.666 265.006 368.661L246.055 368.529C245.45 368.525 244.956 369.012 244.951 369.618Z" fill="#FCBC37"/>
<path d="M292.439 374.954C292.501 374.922 292.57 374.906 292.639 374.906C292.946 374.935 292.957 375.004 292.668 375.111C287.316 377.162 281.87 377.971 276.093 378.758C275.583 378.851 275.057 378.805 274.571 378.625C274.188 378.458 274.206 378.349 274.619 378.297C277.782 377.905 280.702 377.475 283.377 377.005C285.927 376.516 288.445 375.875 290.919 375.087C291.413 374.935 292.072 375.126 292.439 374.954Z" fill="#FCBC37"/>
<path d="M43.3614 380.86C43.4332 380.891 43.4397 380.93 43.3745 380.978L43.2244 381.086C43.2051 381.102 43.182 381.112 43.1575 381.115C43.133 381.119 43.108 381.116 43.0852 381.106C39.3254 379.721 35.7115 377.968 32.2959 375.873C32.2763 375.873 32.2719 375.852 32.2806 375.834L32.3437 375.725C32.3666 375.685 32.4042 375.656 32.4485 375.643C32.4928 375.631 32.5403 375.636 32.5808 375.658C36.068 377.604 39.6679 379.341 43.3614 380.86Z" fill="#ACCF91"/>
<path d="M70.2485 388.491L70.5334 388.776C70.5975 388.841 70.6423 388.922 70.6629 389.011C70.6834 389.1 70.6789 389.193 70.6498 389.28C70.6208 389.366 70.5683 389.443 70.4982 389.502C70.4281 389.56 70.3432 389.598 70.2529 389.611C69.971 389.643 69.6855 389.623 69.4112 389.55C61.5434 388.932 53.7517 387.57 46.1405 385.483C46.1151 385.477 46.0913 385.465 46.0705 385.449C46.0496 385.433 46.0321 385.414 46.0189 385.391C46.0058 385.368 45.9973 385.343 45.9939 385.317C45.9905 385.291 45.9923 385.265 45.9991 385.24V385.218L46.0513 385.09C46.0901 384.999 46.1582 384.925 46.2447 384.878C46.3312 384.832 46.4309 384.816 46.5276 384.833C49.9972 385.546 53.3754 386.262 56.6623 386.98C59.4229 387.581 63.9517 388.085 70.2485 388.491Z" fill="#FDFDFD"/>
<path d="M344.492 396.8L344.033 396.77C344.415 396.316 344.926 395.99 345.499 395.835C353.682 393.298 361.598 389.969 369.135 385.896C369.204 385.854 369.285 385.834 369.365 385.841C369.446 385.848 369.522 385.88 369.583 385.933L369.735 386.044C369.772 386.072 369.796 386.114 369.802 386.16C369.808 386.206 369.796 386.253 369.768 386.29C369.753 386.309 369.734 386.326 369.711 386.337C361.958 390.718 353.719 394.176 345.162 396.642C344.942 396.708 344.718 396.761 344.492 396.8Z" fill="#273624"/>
<path d="M136.582 20.8734C137.026 20.8731 137.466 20.9703 137.869 21.1579C138.273 21.3456 138.63 21.6193 138.916 21.9598C139.291 20.6417 140.034 19.4578 141.058 18.5472C142.082 17.6366 143.344 17.0371 144.697 16.8191C146.05 16.6012 147.437 16.7738 148.695 17.3168C149.953 17.8597 151.03 18.7505 151.799 19.8843C152.524 17.6133 153.831 15.5719 155.591 13.9633C157.35 12.3547 159.5 11.2351 161.827 10.716C164.153 10.1969 166.575 10.2964 168.851 11.0045C171.128 11.7127 173.179 13.0048 174.8 14.7523C176.886 9.81037 180.558 5.70394 185.237 3.08145C189.916 0.458963 195.335 -0.530156 200.639 0.270299C205.943 1.07075 210.829 3.61517 214.526 7.50175C218.223 11.3883 220.519 16.3956 221.053 21.7328C221.487 21.3169 222.033 21.0369 222.624 20.9272C223.215 20.8176 223.825 20.8831 224.379 21.1158C224.933 21.3484 225.407 21.738 225.742 22.2366C226.077 22.7352 226.26 23.321 226.266 23.9218H133.509C133.51 23.5198 133.59 23.1218 133.745 22.7509C133.9 22.3799 134.127 22.0432 134.413 21.76C134.698 21.4769 135.037 21.2528 135.409 21.1007C135.781 20.9485 136.179 20.8713 136.582 20.8734Z" fill="#FCF1F0"/>
<path d="M346.592 51.1739C346.882 51.1741 347.169 51.2373 347.432 51.3591C347.695 51.4808 347.928 51.6583 348.116 51.8792C348.364 51.0299 348.847 50.2682 349.51 49.6825C350.173 49.0968 350.989 48.7111 351.862 48.5702C352.736 48.4293 353.631 48.539 354.445 48.8864C355.258 49.2339 355.957 49.805 356.459 50.5334C356.932 49.0587 357.782 47.7334 358.925 46.689C360.069 45.6445 361.466 44.9174 362.977 44.5797C364.488 44.242 366.062 44.3056 367.541 44.764C369.02 45.2225 370.354 46.0599 371.409 47.1931C372.763 43.9775 375.15 41.3048 378.193 39.5978C381.235 37.8908 384.76 37.2468 388.21 37.7676C391.66 38.2885 394.838 39.9445 397.241 42.4738C399.644 45.0031 401.136 48.2613 401.48 51.7333C401.85 51.3719 402.348 51.171 402.866 51.1739C403.128 51.1728 403.388 51.2233 403.63 51.3226C403.872 51.4218 404.093 51.5679 404.279 51.7523C404.465 51.9368 404.613 52.156 404.714 52.3976C404.815 52.6392 404.868 52.8983 404.869 53.1602H344.598C344.598 52.8987 344.649 52.6397 344.75 52.3982C344.85 52.1567 344.997 51.9374 345.182 51.7528C345.368 51.5682 345.588 51.4221 345.829 51.3228C346.071 51.2234 346.331 51.1728 346.592 51.1739Z" fill="#FCF1F0"/>
<path d="M77.2196 69.99C76.8583 69.9913 76.5015 70.071 76.174 70.2235C75.8465 70.3761 75.5559 70.5979 75.3225 70.8737C75.0134 69.81 74.4088 68.8558 73.579 68.1219C72.7491 67.3881 71.7281 66.9049 70.6345 66.7282C69.541 66.5516 68.4197 66.689 67.4011 67.1243C66.3825 67.5596 65.5082 68.275 64.88 69.1874C64.2893 67.3428 63.2261 65.685 61.7961 64.3786C60.3662 63.0722 58.6193 62.1627 56.729 61.7405C54.8387 61.3183 52.8708 61.3982 51.021 61.9721C49.1711 62.5461 47.5036 63.5941 46.1842 65.012C44.4899 60.9931 41.5048 57.6533 37.7005 55.5202C33.8962 53.3872 29.4896 52.5825 25.177 53.2334C20.8643 53.8843 16.8915 55.9536 13.8862 59.1144C10.8809 62.2752 9.01442 66.3473 8.58171 70.6873C8.2304 70.3478 7.78725 70.1189 7.30714 70.0288C6.82702 69.9387 6.33103 69.9914 5.88057 70.1804C5.43012 70.3694 5.04498 70.6864 4.77286 71.0921C4.50074 71.4977 4.35358 71.9743 4.34961 72.4628H79.7492C79.746 72.1342 79.678 71.8094 79.549 71.5071C79.4201 71.2049 79.2327 70.931 78.9977 70.7013C78.7627 70.4715 78.4847 70.2905 78.1796 70.1684C77.8744 70.0464 77.5482 69.9857 77.2196 69.99Z" fill="#FCF1F0"/>
<path d="M33.164 199.674C32.9352 199.674 32.709 199.724 32.5016 199.82C32.2942 199.917 32.1107 200.058 31.9641 200.234C31.7696 199.559 31.3873 198.953 30.8617 198.487C30.3361 198.021 29.6888 197.714 28.9954 197.602C28.302 197.49 27.591 197.577 26.9453 197.854C26.2995 198.13 25.7457 198.584 25.3484 199.164C24.9745 197.995 24.3011 196.944 23.395 196.116C22.489 195.288 21.3819 194.712 20.184 194.444C18.9861 194.177 17.7391 194.228 16.567 194.592C15.395 194.957 14.3387 195.621 13.5033 196.521C12.4302 193.975 10.5395 191.859 8.12994 190.508C5.72038 189.157 2.92929 188.647 0.197587 189.059C-2.53412 189.471 -5.05075 190.781 -6.95475 192.783C-8.85875 194.784 -10.0416 197.363 -10.3164 200.112C-10.6155 199.832 -11.0094 199.676 -11.419 199.674C-11.6256 199.673 -11.8303 199.713 -12.0216 199.791C-12.2128 199.869 -12.3868 199.984 -12.5336 200.129C-12.6804 200.275 -12.7972 200.447 -12.8772 200.638C-12.9572 200.828 -12.9989 201.033 -13 201.239H34.7449C34.7439 201.033 34.7022 200.828 34.6221 200.638C34.5421 200.447 34.4253 200.275 34.2785 200.129C34.1317 199.984 33.9577 199.869 33.7665 199.791C33.5753 199.713 33.3705 199.673 33.164 199.674Z" fill="#FCF1F0"/>
<path d="M368.348 241.12C368.577 241.119 368.803 241.169 369.01 241.266C369.218 241.362 369.401 241.503 369.548 241.679C369.742 241.004 370.124 240.398 370.65 239.932C371.176 239.466 371.823 239.159 372.516 239.047C373.21 238.935 373.921 239.022 374.566 239.299C375.212 239.575 375.766 240.03 376.163 240.609C376.537 239.44 377.211 238.389 378.117 237.561C379.023 236.733 380.13 236.157 381.328 235.89C382.526 235.622 383.773 235.673 384.945 236.038C386.117 236.402 387.173 237.067 388.008 237.966C389.082 235.42 390.972 233.305 393.382 231.953C395.791 230.602 398.582 230.092 401.314 230.504C404.046 230.916 406.562 232.226 408.466 234.228C410.37 236.23 411.553 238.809 411.828 241.558C412.127 241.278 412.521 241.121 412.931 241.12C413.137 241.119 413.342 241.158 413.533 241.236C413.725 241.314 413.899 241.429 414.045 241.575C414.192 241.72 414.309 241.893 414.389 242.083C414.469 242.274 414.511 242.478 414.512 242.684H366.767C366.768 242.478 366.81 242.274 366.89 242.083C366.97 241.893 367.086 241.72 367.233 241.575C367.38 241.429 367.554 241.314 367.745 241.236C367.936 241.158 368.141 241.119 368.348 241.12Z" fill="#FCF1F0"/>
</svg>
