<svg width="414" height="444" viewBox="0 0 414 444" fill="none" xmlns="http://www.w3.org/2000/svg">
<path opacity="0.5" d="M210 444C291.344 444 357.285 440.345 357.285 435.836C357.285 431.327 291.344 427.672 210 427.672C128.657 427.672 62.7148 431.327 62.7148 435.836C62.7148 440.345 128.657 444 210 444Z" fill="#818181"/>
<path d="M313.764 177.034C323.694 193.998 329.321 213.134 330.154 232.773C330.988 252.411 327.003 271.956 318.546 289.7C310.09 307.444 297.419 322.85 281.64 334.571C265.861 346.293 247.454 353.975 228.023 356.947C208.593 359.919 188.73 358.09 170.169 351.621C151.608 345.151 134.912 334.238 121.538 319.832C108.165 305.427 98.5195 287.967 93.4449 268.977C88.3702 249.987 88.0201 230.044 92.4251 210.888C92.4251 210.774 92.5825 210.302 92.7398 209.577C93.3954 206.404 93.7188 200.058 89.5319 195.932C84.2348 190.687 81.4552 191.343 80.5374 187.873C78.9553 181.92 88.9899 179.586 91.3587 187.68C93.6751 195.617 98.9372 190.512 99.1557 190.303C107.965 169.837 122.277 152.216 140.501 139.399C158.726 126.581 180.148 119.069 202.386 117.697C224.624 116.326 246.807 121.149 266.468 131.63C286.13 142.112 302.498 157.841 313.755 177.069L313.764 177.034Z" fill="#FCF1F0"/>
<path opacity="0.4" d="M123.081 154.299C122.583 154.85 122.207 155.173 122.154 155.269L123.081 154.299Z" fill="white"/>
<path d="M414.689 72.1931H359C359 72.1931 361.447 56.4594 368.335 57.0975C370.241 57.2636 371.535 59.1953 372.382 61.2669C372.492 61.55 372.688 61.7912 372.943 61.9563C373.198 62.1214 373.498 62.2019 373.801 62.1864C374.104 62.1709 374.395 62.0602 374.631 61.87C374.868 61.6798 375.038 61.4198 375.118 61.1271C376.936 54.7462 380.669 45 386.438 45C392.417 45 392.609 56.1535 392.181 62.9365C392.166 63.1568 392.225 63.3758 392.347 63.5596C392.469 63.7434 392.649 63.8818 392.858 63.9534C393.067 64.025 393.293 64.0259 393.503 63.9558C393.712 63.8858 393.893 63.7487 394.016 63.5658C395.59 61.2495 397.889 59.0205 400.686 59.6673C403.072 60.218 404.138 62.7005 404.575 65.3053C404.605 65.4734 404.689 65.6273 404.814 65.7431C404.939 65.859 405.099 65.9304 405.269 65.9463C405.439 65.9622 405.61 65.9217 405.754 65.8312C405.899 65.7406 406.01 65.6049 406.07 65.4451C407.521 61.5816 410.1 55.9524 412.844 55.8301C417.031 55.664 414.689 72.1931 414.689 72.1931Z" fill="white"/>
<path d="M35.68 281.184H-20C-20 281.184 -17.5525 265.451 -10.6646 266.089C-8.75911 266.255 -7.45671 268.187 -6.60884 270.267C-6.49735 270.547 -6.30107 270.785 -6.04754 270.947C-5.79401 271.11 -5.49595 271.189 -5.19517 271.173C-4.8944 271.158 -4.60599 271.049 -4.37042 270.861C-4.13485 270.673 -3.96394 270.417 -3.88165 270.127C-2.05479 263.737 1.66886 254 7.4816 254C13.4517 254 13.6527 265.145 13.2157 271.936C13.2012 272.157 13.2596 272.376 13.382 272.56C13.5043 272.743 13.6838 272.882 13.8927 272.953C14.1016 273.025 14.3282 273.026 14.5376 272.956C14.747 272.886 14.9276 272.749 15.0513 272.566C16.6334 270.241 18.9323 268.012 21.7294 268.659C24.1157 269.218 25.1733 271.692 25.6104 274.297C25.6397 274.465 25.7235 274.619 25.8489 274.734C25.9743 274.85 26.1343 274.922 26.3043 274.938C26.4743 274.953 26.6447 274.913 26.7895 274.822C26.9342 274.732 27.0451 274.596 27.1051 274.436C28.5648 270.573 31.1434 264.952 33.8793 264.821C38.0313 264.681 35.68 281.184 35.68 281.184Z" fill="white"/>
<path d="M22 24.1426C22 24.1426 24.1678 10.157 30.2864 10.7339C31.9822 10.8825 33.1273 12.6045 33.8877 14.4401C33.9845 14.6907 34.1579 14.9044 34.3832 15.0507C34.6086 15.197 34.8743 15.2684 35.1426 15.2549C35.4109 15.2413 35.6681 15.1434 35.8775 14.9751C36.087 14.8069 36.2379 14.5768 36.309 14.3177C37.926 8.65356 41.2389 0 46.3698 0C51.6756 0 51.8504 9.89478 51.4658 15.926C51.4292 16.1315 51.4673 16.3432 51.5732 16.523C51.6792 16.7028 51.8459 16.8388 52.0433 16.9063C52.2407 16.9739 52.4558 16.9686 52.6497 16.8914C52.8435 16.8142 53.0034 16.6702 53.1004 16.4855C54.4989 14.4226 56.5356 12.4471 59.018 12.9891C63.8605 14.0992 62.5144 24.1076 62.5144 24.1076L22 24.1426Z" fill="white"/>
<path d="M150.511 109.991C150.511 109.991 132.723 115.629 135.887 122.77C139.051 129.911 146.166 116.223 156.664 115.856C167.162 115.489 165.51 104.746 150.511 109.991Z" fill="white"/>
<path d="M272.06 114.903C271.69 114.271 271.167 113.742 270.54 113.365C269.912 112.988 269.2 112.774 268.468 112.744C265.531 112.596 259.963 113.234 259.928 120.244C259.884 128.793 275.513 121.092 272.06 114.903Z" fill="white"/>
<path d="M174.293 104.204C174.141 103.89 173.913 103.619 173.629 103.417C173.344 103.215 173.013 103.089 172.667 103.05C171.277 102.875 168.602 102.989 168.297 106.328C168.017 110.427 175.726 107.289 174.293 104.204Z" fill="white"/>
<path d="M305.251 339.432C305.251 339.432 320.504 328.707 315.338 322.824C310.172 316.941 307.471 332.159 297.611 335.673C287.751 339.187 292.524 348.959 305.251 339.432Z" fill="white"/>
<path d="M85.1455 212.505C85.1473 212.002 85.0217 211.506 84.7802 211.064C84.5387 210.622 84.1892 210.249 83.7644 209.979C82.0687 208.869 78.5198 207.304 76.0811 211.456C73.0217 216.552 85.0231 217.418 85.1455 212.505Z" fill="white"/>
<path d="M206.872 342.02C206.872 342.771 206.819 343.654 206.767 344.642C206.714 345.63 206.653 346.434 206.583 347.421C205.902 356.766 204.311 371.022 204.311 371.022L196.549 416.475H186.776L187.65 375.76L187.72 372.928C187.35 371.488 187.058 370.029 186.846 368.557C186.776 368.12 186.715 367.683 186.663 367.246C185.825 358.799 186.413 350.272 188.402 342.02H206.872Z" fill="#FCB38F"/>
<path d="M206.871 342.02C206.871 342.771 206.818 343.654 206.766 344.642C206.713 345.63 206.652 346.434 206.582 347.421C200.857 348.479 191.329 349.091 186.941 349.703C187.273 347.117 187.749 344.552 188.366 342.02H206.871Z" fill="#FD8471"/>
<path d="M173.42 349.327C173.307 352.465 172.948 355.589 172.345 358.671C171.864 361.197 171.296 363.592 170.745 365.663C169.714 369.518 168.787 372.132 168.787 372.132L167.424 404.604C167.424 404.604 167.144 401.335 161.777 401.799C156.41 402.262 155.554 406.466 155.554 406.466L152.931 372.377L152.87 370.401V369.527C152.288 366.703 151.995 363.827 151.996 360.943C151.996 359.073 151.996 357.15 152.04 355.314C152.04 353.924 152.145 352.587 152.215 351.354C152.424 347.447 152.713 344.598 152.713 344.598C156.909 340.629 173.245 344.598 173.245 344.598C173.419 346.168 173.477 347.748 173.42 349.327Z" fill="#FCB38F"/>
<path d="M173.42 349.326C168.779 351.145 158.386 354.947 152.014 355.297C152.014 353.907 152.119 352.569 152.189 351.337C152.398 347.43 152.687 344.58 152.687 344.58C156.882 340.612 173.219 344.58 173.219 344.58C173.402 346.155 173.469 347.742 173.42 349.326Z" fill="#FD8471"/>
<path d="M156.654 373.636C155.33 373.489 154.052 373.063 152.904 372.386L152.843 370.411V369.537C152.26 366.713 151.968 363.837 151.969 360.953C152.109 362.369 153.149 371.434 156.654 373.636Z" fill="#FD8471"/>
<path d="M170.745 365.629C169.713 369.484 168.787 372.097 168.787 372.097V373.111C167.329 373.801 165.732 374.145 164.119 374.116C168.088 373.032 170.745 365.629 170.745 365.629Z" fill="#FD8471"/>
<path d="M212.877 272.747C212.877 272.747 215.91 290.675 216.609 302.344C217.309 314.013 212.755 322.448 215.088 329.441C217.422 336.434 213.812 343.427 205.176 343.427C194.215 343.427 185.116 344.825 183.717 340.394C182.319 335.962 183.245 333.864 183.481 330.132C183.717 326.399 183.245 308.201 183.245 308.201L180.16 308.9C180.16 308.9 181.278 332.693 180.16 334.327C179.041 335.962 180.562 345.061 179.285 346.46C178.009 347.858 155.956 344.712 151.052 346.46C146.148 348.208 144.846 343.243 145.44 341.705C146.035 340.166 146.62 332.964 146.97 329.896C147.32 326.828 145.921 313.952 146.699 308.515C147.477 303.078 146.699 295.605 146.078 291.401C145.458 287.196 145.003 280.981 146.393 279.119C147.783 277.258 197.711 271.226 212.877 272.747Z" fill="#2D1C64"/>
<path d="M205.116 134.928L205.658 143.669L203.096 144.106C203.096 144.106 200.474 152.025 197.703 154.237C197.526 154.383 197.332 154.509 197.126 154.613C194.417 155.941 183.036 149.936 179.05 144.123C178.695 143.61 178.388 143.066 178.132 142.498C175.44 136.239 180.484 121.126 186.436 117.385C192.389 113.644 207.922 124.194 207.922 124.194L205.116 134.928Z" fill="#FCB38F"/>
<path d="M197.702 154.237C197.524 154.384 197.331 154.51 197.125 154.613C194.415 155.942 183.035 149.937 179.049 144.124L180.718 139.308L185.43 137.699C185.771 138.129 186.208 138.472 186.706 138.701C187.204 138.93 187.749 139.039 188.297 139.019C188.755 138.968 189.197 138.824 189.599 138.598C190 138.371 190.351 138.065 190.631 137.699C190.097 139.514 189.155 141.182 187.877 142.577C186.085 144.325 189.468 153.171 197.702 154.237Z" fill="#FD8471"/>
<path d="M205.727 125.06C207.72 124.615 209.543 123.603 210.975 122.147C212.408 120.691 213.39 118.853 213.804 116.853C215.552 109.633 205.683 113.024 201.278 111.73C196.54 110.341 183.411 107.902 179.05 108.715C175.78 109.318 172.127 113.697 171.121 121.896C170.177 129.518 169.531 139.868 171.069 142.586C172.607 145.305 174.417 146.249 177.913 146.371C180.71 146.432 184.906 140.812 185.57 138.076C185.57 138.076 182.677 131.179 184.548 127.683C186.418 124.186 191.138 126.223 191.226 128.924L190.544 133.294L193.254 134.649L196.147 127.656C196.147 127.656 199.704 126.136 200.22 123.898L205.727 125.06Z" fill="#2D1C64"/>
<path d="M188.34 135.697C188.34 135.697 188.541 133.442 188.541 131.606C188.269 131.471 187.97 131.4 187.667 131.4C187.363 131.4 187.064 131.471 186.792 131.606C187.277 131.126 187.854 130.748 188.488 130.496C188.482 130.155 188.426 129.816 188.322 129.491C188.114 129.127 187.829 128.814 187.486 128.574C187.143 128.334 186.751 128.172 186.338 128.101C186.338 128.101 188.2 127.507 188.96 128.669C189.721 129.832 189.537 133.477 188.34 135.697Z" fill="#FD8471"/>
<path d="M209.231 247.318C208.785 246.103 208.357 244.836 207.928 243.525C208.086 244.189 210.419 254.285 211.835 262.711C212.543 266.959 213.024 270.779 212.876 272.746C212.404 278.777 202.526 275.281 192.649 278.078C182.772 280.875 145.448 281.111 144.285 278.078C143.534 276.12 144.145 265.133 144.985 254.477C145.439 248.638 145.972 242.913 146.383 238.857C147.554 227.433 145.92 212.267 145.92 212.267C145.92 212.267 144.757 236.742 142.423 245.623C140.09 254.504 134.006 267.921 134.242 275.158L126.926 274.774L122.826 274.555C122.826 274.555 126.559 250.526 128.42 238.158C130.282 225.789 130.912 200.371 133.945 188.238C136.978 176.106 139.854 167.942 142.423 165.844C143.726 164.778 148.734 160.599 153.586 159.096C158.28 157.61 162.598 156.395 162.598 156.395C162.598 156.395 155.369 147.296 158.638 142.514C160.981 139.079 163.655 137.147 166.566 137.007C167.767 136.963 168.962 137.19 170.062 137.672C170.062 137.672 185.036 150.74 194.423 154.236C195.197 154.518 195.827 155.094 196.178 155.839C196.528 156.584 196.57 157.437 196.294 158.213C196.067 158.808 195.715 159.347 195.263 159.795C195.263 159.795 207.238 164.454 211.87 168.422C219.44 174.961 217.115 186.385 217.115 191.752C217.115 197.119 217.937 229.784 218.575 234.443C219.213 239.102 219.449 243.481 219.449 243.481L216.888 263.376C213.842 258.284 211.295 252.909 209.283 247.327L209.231 247.318Z" fill="#31D4A9"/>
<path d="M195.264 159.805C192.549 161.392 189.496 162.312 186.357 162.489C181.261 162.716 173.796 160.155 168.438 161.903C163.989 163.354 156.594 161.763 153.578 159.124C158.272 157.638 162.59 156.423 162.59 156.423C162.59 156.423 155.361 147.323 158.63 142.542C160.973 139.107 163.648 137.175 166.558 137.035C165.242 138.027 164.213 139.351 163.577 140.872C162.941 142.392 162.721 144.055 162.94 145.689C163.761 151.292 166.908 155.837 171.113 157.052C175.317 158.267 181.374 157.865 184.521 158.678C187.668 159.491 195.264 159.805 195.264 159.805Z" fill="#31AF8B"/>
<path d="M211.836 262.714C197.964 239.183 199.424 216.107 199.267 209.726C199.11 203.345 202.615 189.98 202.615 189.98C203.157 197.594 201.741 203.66 201.959 212.838C202.178 222.016 207.929 243.51 207.929 243.51C208.419 244.865 208.803 246.132 209.232 247.321C208.786 246.106 208.357 244.839 207.929 243.528C208.087 244.192 210.42 254.288 211.836 262.714Z" fill="#31AF8B"/>
<path d="M146.383 238.883C147.554 227.459 145.92 212.293 145.92 212.293C145.92 212.293 144.757 236.768 142.424 245.649C140.09 254.53 134.006 267.947 134.242 275.185L126.926 274.8C128.379 274.4 129.677 273.572 130.652 272.422C131.627 271.273 132.232 269.857 132.389 268.358C133.167 262.912 137.992 251.252 139.548 247.677C141.104 244.102 142.808 222.791 142.808 219.059C142.808 215.327 146.077 187.172 146.077 187.172C146.077 187.172 147.013 211.437 149.189 218.587C151.366 225.737 145.151 253.752 144.985 254.504C145.439 248.638 145.972 242.939 146.383 238.883Z" fill="#31AF8B"/>
<path d="M192.334 161.229C194.389 159.844 196.79 159.063 199.266 158.973C203.234 158.895 206.608 165.092 206.608 165.092C206.608 165.092 204.161 165.092 202.613 168.178C202.613 168.108 199.475 164.235 192.334 161.229Z" fill="#2D1C64"/>
<path d="M202.616 171.719C200.046 179.42 199.653 223.02 199.26 228.876C198.866 234.733 201.681 268.534 171.122 268.77C147.828 268.945 142.697 251.009 140.258 233.133C139.498 227.565 138.999 222.006 138.3 216.997C137.944 214.404 137.737 211.792 137.679 209.174C137.633 207.426 137.633 205.628 137.679 203.781C137.855 198.845 138.322 193.924 139.078 189.044C139.279 187.733 139.498 186.422 139.742 185.154C142.12 172.191 146.115 161.221 149.62 159.141L149.943 158.957C150.89 158.462 151.89 158.075 152.924 157.804C160.109 155.819 171.105 157.043 171.105 157.043C177.345 157.738 183.529 158.871 189.61 160.435C190.431 160.653 191.209 160.889 191.961 161.125C194.683 161.898 197.273 163.076 199.644 164.622C202.389 166.606 203.534 168.94 202.616 171.719Z" fill="#403384"/>
<path d="M193.167 209.122C193.019 211.071 192.887 212.994 192.8 214.873C185.973 219.296 174.759 224.628 162.154 222.836C152.58 221.463 143.858 216.581 137.679 209.139C137.633 207.391 137.633 205.593 137.679 203.746C142.854 209.935 153.343 219.392 168.36 218.212C177.335 217.649 185.953 214.491 193.167 209.122Z" fill="#2D1C64"/>
<path d="M195.875 185.705C195.569 187.776 195.263 189.97 195.001 192.243C189.66 196.369 177.082 204.437 162.52 202.365C153.31 201.033 144.949 196.253 139.129 188.991C139.33 187.68 139.548 186.369 139.793 185.102C144.452 190.853 153.779 199.175 168.359 198.029C182.694 196.911 191.505 190.224 195.875 185.705Z" fill="#2D1C64"/>
<path d="M202.614 171.72C200.044 179.421 199.651 223.021 199.266 228.877C198.882 234.734 201.679 268.535 171.12 268.771C147.826 268.946 142.695 251.009 140.256 233.134C140.431 233.947 146.479 260.353 167.152 259.199C188.13 258.037 192.265 236.578 192.649 218.842C193.034 201.107 197.177 177.166 198.252 170.767C198.557 168.693 199.028 166.647 199.659 164.648C202.387 166.606 203.532 168.94 202.614 171.72Z" fill="#2D1C64"/>
<path d="M150.299 254.914C146.226 244.303 147.677 217.756 147.738 216.629L149.687 216.743C149.687 217.013 148.192 243.997 152.117 254.215L150.299 254.914Z" fill="#2D1C64"/>
<path d="M179.268 257.17C175.194 246.559 176.645 220.012 176.707 218.885L178.656 218.998C178.656 219.269 177.161 246.253 181.086 256.471L179.268 257.17Z" fill="#2D1C64"/>
<path d="M191.976 161.089C191.496 166.141 189.686 176.281 182.72 181.665C179.363 184.288 173.306 185.809 167.178 185.809C165.555 185.809 163.934 185.695 162.327 185.468C158.42 184.917 153.158 183.414 150.247 179.401C145.877 173.431 148.167 164.079 149.959 158.921C150.906 158.426 151.906 158.039 152.939 157.768C151.392 161.684 147.904 172.138 152.17 178.003C154.067 180.625 157.791 182.417 162.659 183.108C169.538 184.095 177.519 182.662 181.251 179.786C187.658 174.821 189.232 164.926 189.616 160.399C190.447 160.617 191.225 160.853 191.976 161.089Z" fill="#2D1C64"/>
<path d="M167.422 423.538C166.19 425.636 167.256 431.003 164.11 432.987C160.963 434.971 151.042 433.914 149.407 432.987C149.074 432.749 148.828 432.408 148.708 432.017C147.921 429.902 148.288 425.278 149.425 422.524C150.832 419.142 154.914 410.628 154.914 410.628C155.032 409.238 155.251 407.859 155.57 406.502C155.57 406.502 155.185 401.555 161.444 401.258C167.702 400.96 167.44 404.597 167.44 404.597C168.785 406.265 169.687 408.247 170.062 410.357C170.412 413.39 168.664 421.44 167.422 423.538Z" fill="#F15A48"/>
<path d="M167.423 423.537C166.19 425.635 167.257 431.002 164.11 432.986C160.963 434.971 151.042 433.913 149.407 432.986C149.074 432.749 148.828 432.408 148.708 432.016C147.991 429.394 150.832 427.034 151.96 424.079C153.087 421.125 157.44 413.966 157.904 412.332C158.367 410.697 161.715 408.136 165.063 407.9C166.033 407.844 167.002 408.04 167.875 408.469C168.748 408.898 169.495 409.545 170.045 410.347C170.412 413.389 168.664 421.44 167.423 423.537Z" fill="#D43538"/>
<path d="M187.675 375.794L187.745 372.962C187.375 371.522 187.083 370.063 186.871 368.592C187.667 371.846 189.446 374.776 191.967 376.983C190.506 376.705 189.071 376.308 187.675 375.794Z" fill="#FD8471"/>
<path d="M200.28 432.986C192.299 435.521 187.169 434.333 183.008 432.165C183.006 431.149 183.082 430.135 183.235 429.132C183.777 425.067 185.114 419.683 185.114 419.683C185.276 417.587 185.871 415.548 186.863 413.695C191.854 412.026 196.915 414.517 196.915 414.517C196.915 414.517 198.908 415.837 199.607 420.985C200.018 424.001 200.184 427.611 200.254 430.076C200.28 431.815 200.28 432.986 200.28 432.986Z" fill="#F15A48"/>
<path d="M200.28 432.988C192.299 435.522 187.169 434.334 183.008 432.166C183.006 431.151 183.082 430.137 183.235 429.133C185.627 430.999 188.616 431.931 191.644 431.755C194.586 431.734 197.498 431.159 200.228 430.059C200.28 431.816 200.28 432.988 200.28 432.988Z" fill="#D43538"/>
<path d="M141.138 290.096C141.138 292.657 137.755 295.577 135.893 295.577C135.655 295.574 135.42 295.634 135.212 295.751C134.919 295.931 134.657 296.155 134.434 296.416C133.516 297.377 132.379 298.846 128.787 298.846C123.429 298.846 120.745 294.877 119.46 290.559C118.586 287.666 119.731 285.927 120.789 284.982C121.159 284.638 121.574 284.344 122.021 284.108C121.823 283.58 121.668 283.036 121.558 282.483C120.923 279.771 121.385 276.918 122.843 274.546C122.843 274.546 130.859 274.345 134.259 275.149C134.259 275.149 134.976 278.392 135.675 280.612C136.374 282.832 141.138 287.526 141.138 290.096Z" fill="#FCB38F"/>
<path d="M99.7238 344.65L98.334 344.475L105.082 288.218C105.234 286.934 105.851 285.749 106.818 284.889C107.784 284.029 109.033 283.553 110.327 283.551H127.809C128.544 283.556 129.271 283.714 129.942 284.015C130.613 284.316 131.214 284.753 131.707 285.299C132.201 285.845 132.575 286.487 132.807 287.186C133.038 287.884 133.122 288.622 133.053 289.355L127.581 344.633L126.191 344.493L131.663 289.215C131.714 288.674 131.652 288.129 131.48 287.614C131.309 287.099 131.031 286.626 130.666 286.224C130.3 285.823 129.855 285.502 129.359 285.282C128.862 285.063 128.325 284.949 127.782 284.949H110.3C109.348 284.951 108.429 285.302 107.717 285.934C107.006 286.567 106.55 287.439 106.437 288.385L99.7238 344.65Z" fill="#2D1C64"/>
<path d="M132.407 291.006H132.189C131.604 290.949 131.065 290.662 130.692 290.208C130.318 289.754 130.14 289.17 130.196 288.585C130.229 288.254 130.192 287.92 130.088 287.604C129.984 287.287 129.815 286.997 129.592 286.75C129.369 286.503 129.097 286.305 128.793 286.17C128.489 286.034 128.16 285.964 127.827 285.963H110.345C109.765 285.965 109.205 286.178 108.771 286.562C108.337 286.947 108.057 287.476 107.985 288.052C107.978 288.361 107.907 288.664 107.776 288.944C107.645 289.223 107.457 289.472 107.224 289.674C106.99 289.876 106.718 290.028 106.423 290.118C106.128 290.209 105.817 290.236 105.51 290.2C105.204 290.163 104.909 290.062 104.644 289.905C104.378 289.747 104.149 289.535 103.97 289.284C103.792 289.032 103.668 288.746 103.607 288.443C103.545 288.141 103.548 287.829 103.614 287.528C103.813 285.875 104.61 284.352 105.855 283.248C107.1 282.143 108.707 281.532 110.371 281.531H127.853C128.803 281.53 129.743 281.729 130.611 282.113C131.48 282.497 132.259 283.058 132.898 283.761C133.537 284.464 134.022 285.293 134.321 286.195C134.62 287.096 134.728 288.051 134.636 288.996C134.584 289.549 134.326 290.063 133.913 290.435C133.5 290.807 132.963 291.011 132.407 291.006Z" fill="#2D1C64"/>
<path d="M145.255 356.625L143.122 409.657V425.661C143.124 426.951 142.719 428.208 141.964 429.254C141.209 430.299 140.143 431.079 138.918 431.483C122.686 436.832 97.8353 433.904 88.1591 432.444C86.8808 432.251 85.6904 431.677 84.7426 430.798C83.7948 429.919 83.1334 428.775 82.8445 427.515C82.0491 424.018 81.3061 419.534 80.7992 416.195C80.3883 413.468 80.1348 411.519 80.1348 411.519C78.8412 398.949 83.1068 363.443 84.9249 349.178C85.1415 347.501 85.9468 345.955 87.1972 344.817C88.4475 343.679 90.0617 343.022 91.7516 342.963C104.863 342.517 135.142 341.783 138.289 344.336L138.559 344.563C141.418 347.054 143.725 351.687 144.739 353.959C145.114 354.796 145.291 355.709 145.255 356.625Z" fill="#F15A48"/>
<path d="M145.257 356.625L143.124 409.656V425.661C143.126 426.951 142.721 428.208 141.966 429.254C141.21 430.299 140.144 431.079 138.919 431.483C122.688 436.832 97.8369 433.904 88.1607 432.444C86.8824 432.251 85.692 431.677 84.7442 430.798C83.7964 429.918 83.1351 428.774 82.8462 427.514C82.0507 424.018 81.3078 419.534 80.8008 416.195C90.598 418.293 100.588 419.36 110.607 419.376C127.556 419.219 133.002 419.088 134.715 416.509C136.271 414.167 136.927 357.7 138.552 344.562C141.411 347.054 143.718 351.686 144.732 353.959C145.11 354.795 145.29 355.708 145.257 356.625Z" fill="#D43538"/>
<path d="M89.9617 385.121C89.4722 388.914 88.0649 400.426 88.2922 405.977C88.3003 406.413 88.4673 406.831 88.7618 407.153C89.0563 407.475 89.4581 407.678 89.8918 407.725C95.1364 408.302 113.379 410.05 125.38 407.83C125.776 407.76 126.137 407.559 126.405 407.26C126.673 406.96 126.832 406.579 126.857 406.178C127.111 402.419 127.731 391.834 127.731 385.916C127.735 385.488 127.581 385.074 127.299 384.751C127.017 384.429 126.627 384.222 126.202 384.168C120.957 383.381 103.475 381.082 91.3166 383.652C90.9678 383.729 90.6509 383.911 90.4087 384.174C90.1665 384.436 90.0105 384.767 89.9617 385.121Z" fill="#D43538"/>
<path d="M135.204 295.754C135.204 295.754 129.086 292.31 129.007 289.277C128.928 286.243 132.914 286.34 134.086 286.698C135.343 287.276 136.535 287.985 137.643 288.813C137.643 288.813 137.704 293.603 135.204 295.754Z" fill="#FCB38F"/>
<path d="M119.137 288.7C119.137 288.7 118.805 285.02 121.191 283.682C123.577 282.345 129.827 284.093 131.051 285.317C132.275 286.54 132.152 288.988 132.152 288.988C127.836 289.733 123.416 289.635 119.137 288.7Z" fill="#FCB38F"/>
<path d="M259.998 408.897H251.598C251.598 408.897 250.863 405.732 249.797 401.24C251.764 399.762 255.916 397.245 259.893 398.923C259.945 404.684 259.998 408.897 259.998 408.897Z" fill="#FCB38F"/>
<path d="M259.998 408.897H251.598C251.598 408.897 250.863 405.732 249.797 401.24C251.764 399.762 255.916 397.245 259.893 398.923C259.945 404.684 259.998 408.897 259.998 408.897Z" fill="#FCB38F"/>
<path d="M279.833 303.709C278.172 311.217 276.817 344.617 276.817 344.617L262.167 355.919C259.702 345.351 257.01 321.951 256.966 307.843V344.555C258.837 351.784 260.463 362.754 259.999 367.282C259.694 370.289 259.79 387.596 259.895 398.916C259.947 404.676 259.999 408.889 259.999 408.889H251.599C251.599 408.889 250.865 405.725 249.799 401.232C247.675 392.299 244.213 378.068 242.5 372.789C239.939 364.861 240.402 352.029 239.703 346.802C239.004 341.575 236.67 328.446 232.71 309.644C228.75 290.842 229.913 276.909 229.913 276.909L278.749 269.969C278.749 269.969 281.371 273.649 282.167 281.533C282.901 288.849 281.826 294.688 279.833 303.709Z" fill="#2D1C64"/>
<path d="M259.998 408.897H251.598C251.598 408.897 250.863 405.732 249.797 401.24C251.764 399.762 255.916 397.245 259.893 398.923C259.945 404.684 259.998 408.897 259.998 408.897Z" fill="#FCB38F"/>
<path d="M229.72 293.297C229.528 296.007 228.907 298.856 227.264 299.774C224.773 301.173 216.338 298.734 216.539 294.958C216.74 291.182 218.619 284.25 218.619 284.25H224.073C224.626 284.478 225.165 284.734 225.69 285.019C227.325 285.893 229.65 287.502 229.746 289.477C229.811 290.75 229.802 292.025 229.72 293.297Z" fill="#FCB38F"/>
<path d="M229.721 293.297C229.226 294.55 228.295 295.581 227.099 296.199C224.695 297.204 222.396 295.954 221.391 291.348C220.385 286.741 221.618 285.081 221.618 285.081L225.726 285.02C227.361 285.894 229.686 287.502 229.782 289.477C229.835 290.751 229.815 292.026 229.721 293.297Z" fill="#FD8471"/>
<path d="M226.163 281.113C226.163 281.113 229.38 285.895 229.957 288.928C230.534 291.961 228.593 294.907 226.417 295.23C224.24 295.553 222.107 290.422 223.156 286.944C223.436 286.043 225.787 285.86 226.163 281.113Z" fill="#FCB38F"/>
<path d="M294.186 278.277C292.015 278.416 289.856 278.708 287.726 279.151C287.726 279.151 285.104 267.648 284.737 266.039C284.37 264.431 280.183 245.865 279.492 242.482C278.802 239.1 278.793 225.28 278.793 225.28C278.793 225.28 278.679 229.065 278.443 237.692C278.312 242.482 280.803 252.823 281.94 261.415C282.866 268.286 282.936 274.028 280.139 274.92C273.837 276.922 262.325 272.918 251.836 274.92C244.749 276.166 237.563 276.752 230.368 276.668C230.831 273.862 229.747 264.072 229.747 264.072C228.349 268.268 226.627 280.864 226.627 280.864C226.933 286.764 220.368 287.332 218.882 284.771C218.882 284.771 218.349 282.341 217.877 279.011C217.393 275.849 217.148 272.655 217.143 269.457C217.213 264.553 218.393 243.234 218.393 243.234C217.09 230.053 216.95 215.368 217.012 206.653C217.034 204.111 217.63 201.606 218.756 199.327C219.882 197.047 221.509 195.051 223.515 193.489C230.001 188.428 237.955 183 237.955 183L239.205 183.052L274.23 184.503C274.23 184.503 276.389 185.788 278.968 187.615C282.176 189.888 286.022 193 287.062 195.482C288.924 199.914 292.42 234.904 292.35 241.905C292.306 247.089 293.329 264.571 293.862 273.294C294.055 276.31 294.186 278.277 294.186 278.277Z" fill="#FEC103"/>
<path d="M279.676 275.184C273.374 277.186 261.862 273.183 251.373 275.184C244.286 276.431 237.1 277.016 229.905 276.933C230.368 274.127 229.284 264.337 229.284 264.337C227.886 268.533 226.164 281.128 226.164 281.128C226.47 287.028 219.905 287.597 218.419 285.036C218.419 285.036 217.886 282.606 217.414 279.275C217.414 279.275 220.159 285.298 223.157 283.217C226.155 281.137 226.61 261.129 227.938 258.612C229.267 256.094 225.368 246.182 225.368 246.182L229.127 248.254C229.127 248.254 231.111 221.48 229.748 213.928C229.817 214.242 232.195 225.553 231.627 231.978C231.059 238.402 230.167 246.776 231.714 251.951C233.261 257.126 233.559 266.636 235.342 268.769C237.125 270.901 249.397 266.784 254.283 268.769C259.17 270.753 276.092 272.081 278.994 268.769C280.713 266.823 281.604 264.282 281.477 261.688C282.403 268.55 282.473 274.293 279.676 275.184Z" fill="#FFA700"/>
<path d="M293.713 278.575C291.542 278.715 289.384 279.007 287.254 279.45C287.254 279.45 284.631 267.946 284.264 266.338C283.897 264.73 279.71 246.164 279.02 242.781C278.329 239.398 278.32 225.579 278.32 225.579L279.448 208.691C279.448 208.691 280.156 235.29 280.523 239.398C280.89 243.507 283.215 243.952 283.215 243.952C283.215 243.952 282.341 244.949 281.703 245.019C281.703 245.019 284.998 263.375 286.213 267.702C287.428 272.028 288.836 275.569 290.881 275.805C292.926 276.041 293.381 273.68 293.407 273.584C293.582 276.609 293.713 278.575 293.713 278.575Z" fill="#D43538"/>
<path d="M280.077 202.951C278.005 207.986 272.14 205.739 266.965 204.848C261.791 203.956 254.177 211.84 247.665 212.714C241.153 213.589 233.461 207.706 231.836 200.477C230.271 193.484 238.085 184.123 238.741 183.354L273.766 184.805C273.766 184.805 275.925 186.089 278.504 187.916C279.902 193.353 281.231 200.154 280.077 202.951Z" fill="#F9AE00"/>
<path d="M237.849 176.736L237.49 183.266C237.49 183.266 244.212 183.913 246.153 181.518L245.689 174.053L237.849 176.736Z" fill="#FD8471"/>
<path d="M256.11 168.519C254.406 170.827 250.866 172.654 246.985 174.079C240.954 176.29 234.031 177.575 231.566 178.143C231.365 178.196 231.164 178.231 230.963 178.266H230.77C229.799 178.415 228.806 178.288 227.904 177.9C227.001 177.512 226.226 176.879 225.666 176.072C225.539 175.897 225.448 175.699 225.399 175.489C225.349 175.278 225.342 175.061 225.377 174.848C225.841 172.097 226.02 169.305 225.91 166.518C225.861 165.446 225.973 164.374 226.242 163.336C225.206 162.832 224.281 162.124 223.524 161.256C223.43 161.149 223.358 161.025 223.313 160.89C223.268 160.755 223.25 160.613 223.261 160.471C223.271 160.33 223.31 160.191 223.375 160.065C223.44 159.938 223.529 159.826 223.638 159.735L228.48 155.731C228.48 155.731 228.952 152.786 229.555 150.6C230.158 148.415 238.226 140.426 238.226 140.426C246.015 136.737 259.808 145.784 260.035 148.546C260.262 151.308 260.446 162.628 256.11 168.519Z" fill="#FCB38F"/>
<path d="M246.968 174.079C240.936 176.291 234.014 177.576 231.549 178.144C231.348 178.196 231.147 178.231 230.945 178.266H230.753C229.782 178.415 228.789 178.289 227.886 177.901C226.984 177.513 226.208 176.879 225.648 176.072C227.253 176.761 229.011 177.015 230.744 176.807C235.255 176.422 244.511 167.559 244.511 167.559L246.968 174.079Z" fill="#FD8471"/>
<path d="M226.625 157.296C226.625 157.296 228.662 147.515 230.218 144.254C233.111 138.136 237.21 134.91 242.971 135.697C248.731 136.484 261.589 137.218 263.197 144.35C264.806 151.483 269.316 150.941 269.561 162.505C269.727 170.495 274.386 168.886 276.719 171.316C284.001 178.903 278.424 185.774 281.387 189.978C284.35 194.183 283.87 201.018 280.915 204.436C277.961 207.854 266.562 198.929 260.129 204.436C244.133 218.124 233.679 202.688 235.733 195.494C237.787 188.3 244.177 176.15 241.721 170.844C239.264 165.539 238.224 160.696 239.736 155.897C241.249 151.098 240.908 144.945 238.495 143.459C236.083 141.973 232.682 146.308 232.682 146.308L228.513 155.74L226.625 157.296Z" fill="#2D1C64"/>
<path d="M261.449 426.343C260.321 428.266 261.3 433.179 258.416 434.997C255.531 436.815 246.458 435.871 244.955 434.997C244.652 434.782 244.425 434.475 244.308 434.123C243.591 432.182 243.923 427.952 244.964 425.425C246.248 422.331 249.99 414.534 249.99 414.534C250.098 413.262 250.299 412 250.593 410.758C250.593 410.758 250.243 406.23 255.968 405.986C261.694 405.741 261.458 409.054 261.458 409.054C262.693 410.569 263.523 412.374 263.87 414.298C264.185 417.052 262.585 424.42 261.449 426.343Z" fill="#F15A48"/>
<path d="M261.451 426.344C260.323 428.267 261.302 433.18 258.418 434.998C255.533 436.816 246.46 435.872 244.957 434.998C244.654 434.783 244.427 434.476 244.31 434.124C243.654 431.711 246.25 429.561 247.29 426.851C248.331 424.142 252.299 417.595 252.727 416.1C253.156 414.605 256.224 412.254 259.283 412.044C260.18 411.991 261.074 412.173 261.879 412.572C262.684 412.97 263.371 413.572 263.872 414.317C264.187 417.053 262.587 424.421 261.451 426.344Z" fill="#D43538"/>
<path d="M283.224 289.145C283.451 290.771 285.846 292.318 287.061 292.152C287.211 292.127 287.365 292.142 287.507 292.196C287.709 292.285 287.897 292.403 288.067 292.545C288.563 293.022 289.172 293.366 289.836 293.546C290.5 293.727 291.199 293.737 291.869 293.577C295.278 293.087 296.624 290.325 297.052 287.458C297.203 286.817 297.154 286.145 296.912 285.532C296.67 284.92 296.246 284.396 295.697 284.031C295.426 283.853 295.132 283.712 294.823 283.612C294.902 283.258 294.951 282.899 294.972 282.537C295.096 281.821 295.044 281.087 294.822 280.396C294.6 279.704 294.213 279.078 293.696 278.568C293.696 278.568 289.325 278.568 287.236 279.442C286.585 280.419 286.109 281.502 285.829 282.642C285.602 284.11 282.988 287.51 283.224 289.145Z" fill="#FCB38F"/>
<path d="M307.104 346.302L308.494 346.136L301.755 289.87C301.599 288.587 300.98 287.406 300.014 286.548C299.049 285.69 297.802 285.214 296.51 285.211H279.028C278.29 285.207 277.559 285.359 276.883 285.656C276.208 285.954 275.602 286.391 275.107 286.939C274.612 287.487 274.238 288.133 274.01 288.836C273.782 289.538 273.705 290.281 273.784 291.015L279.256 346.293L280.646 346.153L275.174 290.875C275.123 290.335 275.185 289.789 275.357 289.274C275.528 288.759 275.806 288.286 276.171 287.884C276.537 287.483 276.982 287.162 277.478 286.943C277.975 286.723 278.512 286.61 279.055 286.61H296.537C297.489 286.609 298.409 286.957 299.122 287.588C299.836 288.22 300.294 289.09 300.409 290.036L307.104 346.302Z" fill="#403384"/>
<path d="M274.431 292.668H274.649C275.233 292.608 275.77 292.32 276.143 291.867C276.516 291.413 276.696 290.831 276.642 290.246C276.606 289.915 276.641 289.579 276.744 289.262C276.847 288.944 277.016 288.652 277.239 288.405C277.463 288.157 277.736 287.96 278.042 287.825C278.347 287.691 278.677 287.622 279.011 287.624H296.493C297.074 287.622 297.635 287.834 298.071 288.219C298.506 288.604 298.784 289.136 298.853 289.713C298.849 290.029 298.912 290.343 299.039 290.632C299.166 290.922 299.354 291.181 299.589 291.392C299.824 291.604 300.102 291.762 300.403 291.858C300.705 291.953 301.023 291.983 301.337 291.945C301.651 291.908 301.954 291.803 302.224 291.639C302.494 291.475 302.727 291.255 302.905 290.994C303.084 290.733 303.205 290.437 303.259 290.126C303.314 289.814 303.302 289.495 303.223 289.189C303.023 287.535 302.224 286.011 300.978 284.905C299.732 283.799 298.124 283.186 296.458 283.184H278.976C278.026 283.185 277.087 283.385 276.219 283.771C275.35 284.156 274.572 284.719 273.934 285.422C273.295 286.126 272.811 286.955 272.511 287.856C272.211 288.757 272.103 289.711 272.193 290.657C272.245 291.212 272.505 291.727 272.919 292.099C273.334 292.472 273.873 292.674 274.431 292.668Z" fill="#2D1C64"/>
<path d="M261.582 358.287L263.715 411.319V427.323C263.713 428.613 264.118 429.87 264.873 430.916C265.628 431.961 266.694 432.741 267.919 433.145C284.142 438.494 309.002 435.566 318.669 434.106C319.948 433.915 321.14 433.342 322.088 432.463C323.036 431.583 323.697 430.438 323.984 429.177C324.779 425.68 325.522 421.196 326.029 417.813C326.449 415.095 326.702 413.146 326.702 413.146C327.996 400.576 323.73 365.018 321.903 350.805C321.689 349.129 320.885 347.583 319.636 346.445C318.387 345.306 316.774 344.649 315.086 344.59C301.974 344.144 271.695 343.41 268.549 345.962L268.278 346.19C265.419 348.681 263.112 353.314 262.098 355.586C261.717 356.434 261.541 357.359 261.582 358.287Z" fill="#31D4A9"/>
<path d="M261.582 358.285L263.715 411.316V427.321C263.713 428.611 264.118 429.868 264.873 430.914C265.628 431.959 266.694 432.739 267.919 433.143C284.142 438.492 309.002 435.564 318.669 434.104C319.948 433.913 321.14 433.34 322.088 432.46C323.036 431.581 323.697 430.435 323.984 429.174C324.779 425.678 325.522 421.194 326.029 417.811C316.231 419.92 306.237 420.989 296.214 421.001C279.265 420.844 273.819 420.713 272.115 418.134C270.559 415.792 269.903 359.325 268.278 346.188C265.419 348.679 263.112 353.311 262.098 355.584C261.717 356.432 261.541 357.357 261.582 358.285Z" fill="#31AF8B"/>
<path d="M316.894 386.746C317.383 390.54 318.79 402.06 318.572 407.611C318.562 408.047 318.394 408.464 318.1 408.785C317.806 409.107 317.405 409.311 316.972 409.359C311.728 409.936 293.485 411.684 281.475 409.464C281.079 409.394 280.718 409.193 280.45 408.894C280.183 408.594 280.023 408.213 279.998 407.812C279.753 404.053 279.124 393.468 279.08 387.55C279.088 387.125 279.245 386.717 279.525 386.397C279.805 386.077 280.189 385.866 280.61 385.802C285.854 385.016 303.38 382.717 315.495 385.295C315.849 385.363 316.174 385.539 316.424 385.799C316.675 386.059 316.839 386.39 316.894 386.746Z" fill="#31AF8B"/>
<path d="M287.508 292.196C287.508 292.196 291.092 289.451 290.865 287.519C290.638 285.588 288.111 286.007 287.368 286.339C286.621 286.821 285.927 287.381 285.297 288.009C285.297 288.009 285.76 291.051 287.508 292.196Z" fill="#FCB38F"/>
<path d="M296.668 289.25C296.668 289.25 297.445 285.562 295.793 284.924C294.141 284.286 289.85 284.294 289.185 285.186C288.782 285.928 288.653 286.788 288.818 287.616C288.818 287.616 292.481 290.867 296.668 289.25Z" fill="#FCB38F"/>
</svg>
