<svg width="14" height="13" viewBox="0 0 14 13" fill="none" xmlns="http://www.w3.org/2000/svg">
<path d="M7 9C8.10457 9 9 8.10457 9 7C9 5.89543 8.10457 5 7 5C5.89543 5 5 5.89543 5 7C5 8.10457 5.89543 9 7 9Z" stroke="#1C274C" stroke-width="0.5"/>
<path d="M1 7.33331C1 5.46074 1 4.52441 1.44941 3.85181C1.64397 3.56064 1.89397 3.31064 2.18514 3.11608C2.61733 2.8273 3.1584 2.72408 3.9868 2.68719C4.38211 2.68719 4.72247 2.38764 4.8 2C4.91629 1.41854 5.42683 1 6.01978 1H7.98022C8.57314 1 9.08368 1.41854 9.20002 2C9.27754 2.38764 9.61786 2.68719 10.0132 2.68719C10.8416 2.72408 11.3826 2.8273 11.8149 3.11608C12.106 3.31064 12.356 3.56064 12.5506 3.85181C13 4.52441 13 5.46074 13 7.33331C13 9.20594 13 10.1423 12.5506 10.8149C12.356 11.106 12.106 11.356 11.8149 11.5506C11.1423 12 10.206 12 8.33332 12H5.66667C3.79405 12 2.85774 12 2.18514 11.5506C1.89397 11.356 1.64397 11.106 1.44941 10.8149C1.32248 10.6249 1.2314 10.4139 1.16604 10.1667" stroke="#1C274C" stroke-width="0.5" stroke-linecap="round"/>
<path d="M11 5H10" stroke="#1C274C" stroke-width="0.5" stroke-linecap="round"/>
</svg>
