<svg width="14" height="12" viewBox="0 0 14 12" fill="none" xmlns="http://www.w3.org/2000/svg">
<path d="M5.82737 8.58594H3.41357" stroke="#831D5C" stroke-width="0.7" stroke-linecap="round"/>
<path d="M4.79288 6.86133H3.41357" stroke="#831D5C" stroke-width="0.7" stroke-linecap="round"/>
<path d="M8.24121 7.72447C8.24121 7.15554 8.24121 6.87108 8.44321 6.69433C8.64521 6.51758 8.97031 6.51758 9.62052 6.51758C10.2707 6.51758 10.5958 6.51758 10.7978 6.69433C10.9998 6.87108 10.9998 7.15554 10.9998 7.72447C10.9998 8.29341 10.9998 8.57787 10.7978 8.75462C10.5958 8.93137 10.2707 8.93137 9.62052 8.93137C8.97031 8.93137 8.64521 8.93137 8.44321 8.75462C8.24121 8.57787 8.24121 8.29341 8.24121 7.72447Z" stroke="#831D5C" stroke-width="0.7"/>
<path d="M13.4138 6C13.4138 3.64298 13.4138 2.46447 12.6866 1.73223C11.9595 1 10.789 1 8.44828 1H5.96552C3.62475 1 2.45437 1 1.72718 1.73223C1 2.46447 1 3.64298 1 6C1 8.357 1 9.53556 1.72718 10.2677C2.45437 11 3.62475 11 5.96552 11H8.44828C10.789 11 11.9595 11 12.6866 10.2677C13.092 9.8595 13.2714 9.31256 13.3508 8.5" stroke="#831D5C" stroke-width="0.7" stroke-linecap="round"/>
<path d="M1 4.79297H4.10345M13.4138 4.79297H6.58621" stroke="#831D5C" stroke-width="0.7" stroke-linecap="round"/>
</svg>
