<svg width="35" height="35" viewBox="0 0 35 35" fill="none" xmlns="http://www.w3.org/2000/svg">
<path d="M13.8888 24.1113H8.44434" stroke="#1C274C" stroke-linecap="round"/>
<path d="M11.5554 20.2227H8.44434" stroke="#1C274C" stroke-linecap="round"/>
<path d="M19.3335 22.1656C19.3335 20.8823 19.3335 20.2407 19.7891 19.842C20.2447 19.4434 20.978 19.4434 22.4446 19.4434C23.9112 19.4434 24.6445 19.4434 25.1001 19.842C25.5557 20.2407 25.5557 20.8823 25.5557 22.1656C25.5557 23.4488 25.5557 24.0905 25.1001 24.4891C24.6445 24.8878 23.9112 24.8878 22.4446 24.8878C20.978 24.8878 20.2447 24.8878 19.7891 24.4891C19.3335 24.0905 19.3335 23.4488 19.3335 22.1656Z" stroke="#1C274C"/>
<path d="M31 18.2778C31 12.9614 31 10.3032 29.3598 8.65159C27.7197 7 25.0797 7 19.8 7H14.2C8.92026 7 6.28041 7 4.6402 8.65159C3 10.3032 3 12.9614 3 18.2778C3 23.5941 3 26.2524 4.6402 27.9039C6.28041 29.5556 8.92026 29.5556 14.2 29.5556H19.8C25.0797 29.5556 27.7197 29.5556 29.3598 27.9039C30.2742 26.9831 30.6788 25.7494 30.8579 23.9167" stroke="#1C274C" stroke-linecap="round"/>
<path d="M3 15.5566H10M31 15.5566H15.6" stroke="#1C274C" stroke-linecap="round"/>
</svg>
