<svg width="83" height="70" viewBox="0 0 83 70" fill="none" xmlns="http://www.w3.org/2000/svg">
<path d="M82.7527 36.9528L76.4838 5.47026C75.7503 1.79371 72.1636 -0.601036 68.4896 0.131975L23.4085 9.10926C22.6643 9.25738 22.1814 9.98068 22.3295 10.7245C22.4776 11.4684 23.2001 11.9515 23.9448 11.8035L69.0261 2.82605C71.2154 2.38945 73.3521 3.81646 73.789 6.00707L74.0304 7.2191L64.5579 9.10569C63.8137 9.25382 63.3308 9.97712 63.479 10.721C63.609 11.3743 64.1828 11.8266 64.8247 11.8266C64.9136 11.8266 65.0041 11.8181 65.0944 11.7999L74.5669 9.91333L76.3235 18.7342L57.5921 22.4647L36.8019 17.4345L59.5471 12.9046C60.2913 12.7565 60.7742 12.0332 60.6261 11.2893C60.478 10.5455 59.7548 10.0621 59.0108 10.2104L30.452 15.898L15.4862 12.2772C12.1655 11.4737 8.81105 13.5214 8.00779 16.8418L0.176159 49.2099C-0.21301 50.8182 0.0474614 52.4819 0.909656 53.8945C1.77185 55.3071 3.13249 56.2991 4.7408 56.6883L59.0307 69.8239C59.5178 69.9419 60.0101 70 60.499 70C61.6239 70 62.7307 69.6915 63.7153 69.0904C65.1279 68.2282 66.1199 66.8675 66.5091 65.2592C66.6875 64.5218 66.2344 63.7796 65.497 63.6012C64.7593 63.4225 64.0172 63.8759 63.839 64.6133C63.3917 66.4612 61.5244 67.6007 59.6765 67.1539L5.38672 54.0183C4.4915 53.8017 3.73421 53.2495 3.25438 52.4633C2.77456 51.677 2.62951 50.751 2.84611 49.8558L6.8385 33.3548L21.5907 36.924C21.6993 36.9504 21.8079 36.9629 21.9148 36.9629C22.5343 36.9629 23.0965 36.5407 23.2488 35.9119C23.4272 35.1745 22.9741 34.4323 22.2367 34.2539L7.48458 30.6847L9.59975 21.9428L70.5928 36.7003L68.4776 45.442L27.2846 35.4751C26.5471 35.2966 25.805 35.7499 25.6266 36.4873C25.4482 37.2246 25.9013 37.9669 26.6387 38.1453L67.8317 48.1121L64.9974 59.8266C64.819 60.5639 65.2722 61.3062 66.0095 61.4846C66.7464 61.6631 67.4892 61.2099 67.6676 60.4725L71.1215 46.1971L77.4144 44.9452C81.091 44.2117 83.4857 40.6261 82.7527 36.9528ZM71.6708 32.2451L71.2387 34.0303L10.2457 19.273L10.6777 17.4876C11.1249 15.6397 12.9922 14.5003 14.8403 14.947L69.1302 28.0826C70.9781 28.5295 72.1179 30.3968 71.6708 32.2451ZM79.4551 40.5284C78.8542 41.4276 77.9388 42.0392 76.8778 42.251L71.8335 43.2543L74.3409 32.891C75.1443 29.5708 73.0967 26.2159 69.7763 25.4126L63.9424 24.0011L76.8603 21.4283L80.0585 37.4898C80.2701 38.5503 80.0559 39.6294 79.4551 40.5284Z" fill="#851D5D"/>
<path d="M25.2058 42.7123L9.11922 38.8201C8.38151 38.6416 7.63943 39.0949 7.4612 39.8322C7.2828 40.5696 7.73592 41.3119 8.4733 41.4903L24.5599 45.3824C24.6683 45.4087 24.777 45.4213 24.8838 45.4213C25.5033 45.4213 26.0656 44.9991 26.2179 44.3703C26.3961 43.633 25.9432 42.8907 25.2058 42.7123Z" fill="#851D5D"/>
<path d="M15.044 46.5137L7.85896 44.7753C7.12142 44.5965 6.37934 45.05 6.20095 45.7874C6.02255 46.5247 6.47566 47.267 7.21305 47.4454L14.3979 49.1839C14.5066 49.2102 14.6152 49.2227 14.722 49.2227C15.3416 49.2227 15.9038 48.8005 16.0561 48.1718C16.2345 47.4344 15.7814 46.6921 15.044 46.5137Z" fill="#851D5D"/>
</svg>
