<svg width="50" height="50" viewBox="0 0 50 50" fill="none" xmlns="http://www.w3.org/2000/svg">
<path d="M41.8002 34.6C41.8002 41.3882 41.8002 44.7822 39.6913 46.8911C37.5824 49 34.1884 49 27.4002 49H22.6002C15.812 49 12.4179 49 10.309 46.8911C8.2002 44.7822 8.2002 41.3882 8.2002 34.6V25M8.2002 15.4C8.2002 8.61177 8.2002 5.21766 10.309 3.10883C12.4179 1 15.812 1 22.6002 1H27.4002C34.1884 1 37.5824 1 39.6913 3.10883C41.8002 5.21766 41.8002 8.61177 41.8002 15.4V25" stroke="#1C274C" stroke-width="2" stroke-linecap="round"/>
<path d="M8.2 5.98242C5.85978 6.21261 4.28457 6.73285 3.10883 7.90857C1 10.0174 1 13.4115 1 20.1999V29.7999C1 36.588 1 39.9821 3.10883 42.091C4.28457 43.2667 5.85978 43.7868 8.2 44.017" stroke="#1C274C" stroke-width="2"/>
<path d="M41.7998 5.98242C44.14 6.21261 45.7152 6.73285 46.8909 7.90857C48.9998 10.0174 48.9998 13.4115 48.9998 20.1999V29.7999C48.9998 36.588 48.9998 39.9821 46.8909 42.091C45.7152 43.2667 44.14 43.7868 41.7998 44.017" stroke="#1C274C" stroke-width="2"/>
<path d="M17.7998 27.3984H32.1998" stroke="#1C274C" stroke-width="2" stroke-linecap="round"/>
<path d="M17.7998 17.8008H32.1998" stroke="#1C274C" stroke-width="2" stroke-linecap="round"/>
<path d="M17.7998 37H24.9998" stroke="#1C274C" stroke-width="2" stroke-linecap="round"/>
</svg>
