<svg width="50" height="50" viewBox="0 0 50 50" fill="none" xmlns="http://www.w3.org/2000/svg">
<path d="M37.6254 23.6565C43.9074 23.6565 49 18.5845 49 12.3282C49 6.07179 43.9074 1 37.6254 1C31.3432 1 26.2506 6.07179 26.2506 12.3282C26.2506 15.2261 27.5733 17.3336 27.5733 17.3336L13.8179 31.0328C13.2007 31.6475 12.3366 33.2459 13.8179 34.7212L15.4051 36.3018C16.0223 36.8286 17.5741 37.5664 18.8439 36.3018L20.6956 34.4576C22.5472 36.3018 24.6635 35.248 25.457 34.1941C26.7796 32.35 25.1925 30.506 25.1925 30.506L25.7217 29.979C28.2611 32.5081 30.483 31.0328 31.2767 29.979C32.5994 28.1348 31.2767 26.2907 31.2767 26.2907C30.7475 25.2371 29.6896 25.2371 31.012 23.9197L32.5994 22.3391C33.869 23.3929 36.479 23.6565 37.6254 23.6565Z" stroke="#861D5D" stroke-width="2" stroke-linejoin="round"/>
<path d="M1 24.9758C1 36.3009 1 41.9634 4.51826 45.4818C8.03651 49 13.699 49 25.0242 49C36.3491 49 42.0117 49 45.5301 45.4818C48.2061 42.8056 48.8466 38.8888 49 32.1832M17.8169 1C11.1112 1.15331 7.19438 1.79387 4.51826 4.47002C2.17394 6.81431 1.3917 10.1107 1.1307 15.4" stroke="#861D5D" stroke-width="2" stroke-linecap="round"/>
</svg>
