<svg width="41" height="53" viewBox="0 0 41 53" fill="none" xmlns="http://www.w3.org/2000/svg">
<path d="M7 17.2188C7 16.5457 7.49734 16 8.11084 16H23.8892C24.5026 16 25 16.5457 25 17.2188C25 17.8919 24.5026 18.4376 23.8892 18.4376H8.11084C7.49734 18.4376 7 17.8919 7 17.2188ZM8.11084 22.5285C7.49734 22.5285 7 23.0743 7 23.7473C7 24.4206 7.49734 24.9661 8.11084 24.9661H23.8892C24.5026 24.9661 25 24.4206 25 23.7473C25 23.0743 24.5026 22.5285 23.8892 22.5285H8.11084ZM7 30.2756C7 29.6026 7.49734 29.0568 8.11084 29.0568H23.8892C24.5026 29.0568 25 29.6026 25 30.2756C25 30.9489 24.5026 31.4944 23.8892 31.4944H8.11084C7.49734 31.4944 7 30.9489 7 30.2756ZM8.11084 35.5624C7.49734 35.5624 7 36.1082 7 36.7812C7 37.4545 7.49734 38 8.11084 38H23.8892C24.5026 38 25 37.4544 25 36.7812C25 36.1082 24.5026 35.5624 23.8892 35.5624H8.11084Z" fill="#861D5D"/>
<path d="M9.84047 0.0270742H10.7137C10.7911 0.0112575 10.8712 0.00293 10.9533 0.00293C11.0353 0.00293 11.1154 0.0112575 11.1928 0.0270742H28.1653C30.2782 0.0270742 32 1.75512 32 3.87115V40.156C32 42.2718 30.2782 44 28.1653 44H3.83474C1.72198 44 0 42.2718 0 40.156V9.50609C0 9.45456 0.00323538 9.40376 0.0095949 9.35396C0.0355908 8.73504 0.279763 8.1121 0.789808 7.60065L7.60995 0.7623C8.25154 0.134326 9.07325 -0.0821338 9.84047 0.0270742ZM2.47358 9.28617L9.27676 2.46464C9.32936 2.41439 9.37762 2.39545 9.42052 2.38829C9.47044 2.37996 9.5303 2.38555 9.58943 2.41009C9.64829 2.43451 9.69169 2.47157 9.71841 2.50957C9.73883 2.53863 9.75913 2.581 9.7632 2.64997V6.56508C9.7632 6.57939 9.76343 6.59364 9.76393 6.60783V8.75287C9.76393 9.3107 9.30409 9.77034 8.75014 9.77034H2.66748C2.5934 9.77034 2.54805 9.75022 2.5153 9.72691C2.47703 9.69975 2.43927 9.65509 2.41455 9.59535C2.38984 9.5356 2.38504 9.47714 2.39313 9.43014C2.40005 9.38979 2.41857 9.34133 2.47358 9.28617ZM12.1434 2.41171V2.60872C12.1439 2.63102 12.1441 2.65343 12.1441 2.6759V8.75281C12.1441 10.6258 10.6205 12.1549 8.7502 12.1549L2.38025 12.1551V40.156C2.38025 40.9567 3.03846 41.6154 3.83479 41.6154H28.1654C28.9618 41.6154 29.6199 40.9567 29.6199 40.156V3.87115C29.6199 3.07025 28.9618 2.41171 28.1654 2.41171H12.1434Z" fill="#861D5D"/>
<path d="M35.5786 4.00006C34.9212 4.00006 34.3885 4.54883 34.3885 5.22579C34.3885 5.90274 34.9212 6.45151 35.5786 6.45151H37.1653C37.9617 6.45151 38.6198 7.12853 38.6198 7.95189V49.0482C38.6198 49.8716 37.9617 50.5485 37.1653 50.5485H12.8347C12.0383 50.5485 11.3801 49.8714 11.3801 49.0482V47.4351C11.3801 46.7582 10.8473 46.2093 10.1901 46.2093C9.5328 46.2093 9 46.7582 9 47.4351V49.0482C9 51.2236 10.722 53 12.8347 53H37.1653C39.2782 53 41 51.2237 41 49.0482V7.95189C41 5.77651 39.2782 4 37.1653 4H35.5787L35.5786 4.00006Z" fill="#861D5D"/>
</svg>
