<svg width="67" height="39" viewBox="0 0 67 39" fill="none" xmlns="http://www.w3.org/2000/svg">
<path d="M32.2183 1L33.0939 0.516923C32.911 0.185446 32.5566 -0.0143344 32.1783 0.000799298C31.8 0.0159331 31.4627 0.243386 31.3069 0.588413L32.2183 1ZM36.7591 9.23031L35.8836 9.71339L36.098 10.1021L36.5301 10.2037L36.7591 9.23031ZM46.4085 11.5007L47.1456 12.1765C47.3855 11.9148 47.4687 11.5455 47.3641 11.2063C47.2596 10.867 46.9831 10.6086 46.6375 10.5273L46.4085 11.5007ZM40.1648 18.312L39.4276 17.6363L39.1319 17.9589L39.1682 18.3951L40.1648 18.312ZM41.0162 28.529L40.4936 29.3816C40.815 29.5785 41.2197 29.5781 41.5406 29.3804C41.8615 29.1828 42.044 28.8215 42.0127 28.4459L41.0162 28.529ZM32.2183 23.1367L32.7408 22.2841L32.2382 21.976L31.7253 22.2667L32.2183 23.1367ZM23.7042 27.9614L22.7148 27.8159C22.6592 28.1938 22.8238 28.5704 23.139 28.7863C23.4542 29.0022 23.8648 29.0197 24.1972 28.8314L23.7042 27.9614ZM25.1232 18.312L26.1125 18.4575L26.1837 17.9734L25.8452 17.6201L25.1232 18.312ZM18.5957 11.5007L18.4219 10.516C18.0585 10.5801 17.7599 10.8392 17.6452 11.19C17.5305 11.5408 17.6184 11.9262 17.8737 12.1926L18.5957 11.5007ZM28.245 9.79792L28.4188 10.7827L28.939 10.6909L29.1564 10.2095L28.245 9.79792ZM31.3427 1.48308L35.8836 9.71339L37.6347 8.74723L33.0939 0.516923L31.3427 1.48308ZM36.5301 10.2037L46.1794 12.4742L46.6375 10.5273L36.9882 8.25689L36.5301 10.2037ZM45.6713 10.825L39.4276 17.6363L40.9019 18.9878L47.1456 12.1765L45.6713 10.825ZM39.1682 18.3951L40.0197 28.612L42.0127 28.4459L41.1613 18.229L39.1682 18.3951ZM41.5388 27.6764L32.7408 22.2841L31.6957 23.9893L40.4936 29.3816L41.5388 27.6764ZM31.7253 22.2667L23.2112 27.0913L24.1972 28.8314L32.7113 24.0067L31.7253 22.2667ZM24.6935 28.1069L26.1125 18.4575L24.1338 18.1665L22.7148 27.8159L24.6935 28.1069ZM25.8452 17.6201L19.3177 10.8088L17.8737 12.1926L24.4012 19.0039L25.8452 17.6201ZM18.7695 12.4855L28.4188 10.7827L28.0712 8.81313L18.4219 10.516L18.7695 12.4855ZM29.1564 10.2095L33.1297 1.41159L31.3069 0.588413L27.3337 9.38633L29.1564 10.2095Z" fill="#801E5B"/>
<path d="M5 38H33.5" stroke="#801E5B" stroke-width="2" stroke-linecap="round"/>
<path d="M38 38H40" stroke="#801E5B" stroke-width="2" stroke-linecap="round"/>
<path d="M44 38H58" stroke="#801E5B" stroke-width="2" stroke-linecap="round"/>
<path d="M14.055 1L14.7621 0.292893C14.5366 0.0674313 14.2172 -0.0369974 13.9021 0.0117615C13.587 0.0605204 13.314 0.256621 13.1672 0.539683L14.055 1ZM10.0817 8.6627L10.3525 9.62535L10.7699 9.50796L10.9695 9.12302L10.0817 8.6627ZM1 11.2169L0.729254 10.2543C0.384215 10.3513 0.1175 10.6256 0.0301502 10.9732C-0.0571996 11.3209 0.0481764 11.6886 0.306358 11.9373L1 11.2169ZM8.6627 18.5958L9.63098 18.8457L9.77685 18.2804L9.35634 17.8755L8.6627 18.5958ZM6.39227 27.3937L5.42399 27.1439C5.32928 27.5109 5.4502 27.8999 5.73627 28.1485C6.02234 28.3972 6.4244 28.4627 6.77462 28.3178L6.39227 27.3937ZM14.6226 23.9881L15.1187 23.1199L14.6931 22.8767L14.2402 23.0641L14.6226 23.9881ZM13.1672 0.539683L9.19397 8.20238L10.9695 9.12302L14.9427 1.46032L13.1672 0.539683ZM9.81098 7.70005L0.729254 10.2543L1.27075 12.1796L10.3525 9.62535L9.81098 7.70005ZM0.306358 11.9373L7.96906 19.3162L9.35634 17.8755L1.69364 10.4966L0.306358 11.9373ZM7.69442 18.346L5.42399 27.1439L7.36055 27.6436L9.63098 18.8457L7.69442 18.346ZM6.77462 28.3178L15.0049 24.9121L14.2402 23.0641L6.00992 26.4697L6.77462 28.3178ZM14.1264 24.8563L18.0997 27.1268L19.092 25.3903L15.1187 23.1199L14.1264 24.8563ZM13.3479 1.70711L15.3345 3.69373L16.7487 2.27952L14.7621 0.292893L13.3479 1.70711Z" fill="#801E5B"/>
<path d="M52.0847 1L51.3776 0.292893C51.603 0.0674313 51.9225 -0.0369974 52.2376 0.0117615C52.5527 0.0605204 52.8257 0.256621 52.9724 0.539683L52.0847 1ZM56.0579 8.6627L55.7872 9.62535L55.3698 9.50796L55.1702 9.12302L56.0579 8.6627ZM65.1396 11.2169L65.4104 10.2543C65.7554 10.3513 66.0221 10.6256 66.1095 10.9732C66.1968 11.3209 66.0915 11.6886 65.8333 11.9373L65.1396 11.2169ZM57.4769 18.5958L56.5087 18.8457L56.3628 18.2804L56.7833 17.8755L57.4769 18.5958ZM59.7474 27.3937L60.7157 27.1439C60.8104 27.5109 60.6894 27.8999 60.4034 28.1485C60.1173 28.3972 59.7152 28.4627 59.365 28.3178L59.7474 27.3937ZM51.5171 23.9881L51.0209 23.1199L51.4465 22.8767L51.8994 23.0641L51.5171 23.9881ZM52.9724 0.539683L56.9457 8.20238L55.1702 9.12302L51.1969 1.46032L52.9724 0.539683ZM56.3287 7.70005L65.4104 10.2543L64.8689 12.1796L55.7872 9.62535L56.3287 7.70005ZM65.8333 11.9373L58.1706 19.3162L56.7833 17.8755L64.446 10.4966L65.8333 11.9373ZM58.4452 18.346L60.7157 27.1439L58.7791 27.6436L56.5087 18.8457L58.4452 18.346ZM59.365 28.3178L51.1347 24.9121L51.8994 23.0641L60.1297 26.4697L59.365 28.3178ZM52.0132 24.8563L48.04 27.1268L47.0477 25.3903L51.0209 23.1199L52.0132 24.8563ZM52.7918 1.70711L50.8052 3.69373L49.3909 2.27952L51.3776 0.292893L52.7918 1.70711Z" fill="#801E5B"/>
</svg>
