<svg width="45" height="50" viewBox="0 0 45 50" fill="none" xmlns="http://www.w3.org/2000/svg">
<path d="M43.9759 22.8809C43.9759 34.6228 35.4145 45.6203 23.7179 48.8379C22.9221 49.054 22.0539 49.054 21.258 48.8379C9.56138 45.6203 1 34.6228 1 22.8809V12.3396C1 10.3706 2.49525 8.1375 4.35223 7.39313L17.7852 1.91846C20.7998 0.693847 24.2003 0.693847 27.2148 1.91846L40.6478 7.39313C42.4807 8.1375 44 10.3706 44 12.3396L43.9759 22.8809Z" stroke="#831D5C" stroke-width="2" stroke-linecap="round" stroke-linejoin="round"/>
<path d="M22.5 26C25.5376 26 28 23.9853 28 21.5C28 19.0147 25.5376 17 22.5 17C19.4624 17 17 19.0147 17 21.5C17 23.9853 19.4624 26 22.5 26Z" stroke="#831D5C" stroke-width="2" stroke-miterlimit="10" stroke-linecap="round" stroke-linejoin="round"/>
<path d="M22 26V33" stroke="#831D5C" stroke-width="2" stroke-miterlimit="10" stroke-linecap="round" stroke-linejoin="round"/>
</svg>
