<svg width="49" height="49" viewBox="0 0 49 49" fill="none" xmlns="http://www.w3.org/2000/svg">
<path d="M44.6567 29.4842L44.5408 28.3234L44.5027 28.3271L44.465 28.3334L44.6567 29.4842ZM44.6567 29.4842L44.7729 30.6453L44.811 30.6413L44.8485 30.635L44.6567 29.4842ZM35.2285 42.2763L35.9674 41.3733L35.9574 41.3653L35.2285 42.2763ZM35.2285 42.2763L34.4897 43.1793L34.4998 43.1872L35.2285 42.2763ZM13.7715 42.2775L13.0327 41.3744L13.0143 41.3896L12.9964 41.4055L13.7715 42.2775ZM13.7715 42.2775L14.5103 43.1802L14.5287 43.1653L14.5466 43.1494L13.7715 42.2775ZM4.34362 19.5156V18.349H4.28543L4.22754 18.3548L4.34362 19.5156ZM4.34362 19.5156L4.34364 20.6822H4.40184L4.45973 20.6766L4.34362 19.5156ZM30.6453 4.22728C30.5961 3.73674 30.5543 3.31205 30.4955 2.9624C30.4348 2.60125 30.3452 2.24388 30.1656 1.89565L28.0919 2.9652C28.116 3.01203 28.1535 3.1052 28.1944 3.34878C28.2373 3.60381 28.2714 3.93809 28.3234 4.45945L30.6453 4.22728ZM31.1001 7.03423C31.0737 6.99961 30.9881 6.85702 30.8982 6.35719C30.8103 5.8685 30.7428 5.20453 30.6453 4.22728L28.3234 4.45945C28.4172 5.39754 28.4937 6.17008 28.6018 6.77043C28.7077 7.35964 28.8706 7.95861 29.2448 8.44945L31.1001 7.03423ZM32.1832 7.48286C31.7679 7.53875 31.3542 7.36748 31.1001 7.03423L29.2448 8.44945C30.0076 9.44926 31.248 9.96304 32.4942 9.79536L32.1832 7.48286ZM34.4897 5.81969C33.7295 6.44161 33.2125 6.86355 32.8048 7.14691C32.3876 7.43674 32.2264 7.47705 32.1832 7.48286L32.4942 9.79536C33.106 9.71307 33.6448 9.40462 34.1362 9.06295C34.6372 8.71484 35.2375 8.22258 35.9672 7.62559L34.4897 5.81969ZM36.4775 4.5101C36.1041 4.62934 35.788 4.81862 35.4898 5.03111C35.2009 5.23684 34.8712 5.50753 34.4897 5.81969L35.9672 7.62559C36.3727 7.29379 36.6331 7.08151 36.8438 6.93145C37.0449 6.78814 37.1373 6.7488 37.1875 6.73277L36.4775 4.5101ZM38.934 4.63263C38.157 4.2959 37.2841 4.25236 36.4775 4.5101L37.1875 6.73277C37.4563 6.64685 37.7473 6.66137 38.0063 6.7736L38.934 4.63263ZM40.7815 6.13352C40.4332 5.78492 40.1317 5.48275 39.8648 5.24933C39.5892 5.00822 39.2936 4.7884 38.934 4.63263L38.0063 6.7736C38.0548 6.79455 38.1428 6.8429 38.3285 7.00551C38.5233 7.1758 38.7613 7.41293 39.1316 7.78342L40.7815 6.13352ZM42.8664 8.21826L40.7815 6.13352L39.1316 7.78342L41.2165 9.86818L42.8664 8.21826ZM44.3674 10.0659C44.2116 9.70639 43.9917 9.41067 43.7507 9.13505C43.5171 8.86819 43.215 8.56686 42.8664 8.21826L41.2165 9.86818C41.587 10.2387 41.8241 10.4767 41.9944 10.6713C42.1571 10.8572 42.2053 10.9453 42.2263 10.9936L44.3674 10.0659ZM44.4899 12.5225C44.7475 11.7158 44.7041 10.843 44.3674 10.0659L42.2263 10.9936C42.3386 11.2526 42.3531 11.5436 42.2672 11.8125L44.4899 12.5225ZM43.1802 14.5104C43.4924 14.1288 43.7631 13.7989 43.9689 13.5101C44.1812 13.2119 44.3707 12.8958 44.4899 12.5225L42.2672 11.8125C42.2511 11.8627 42.2119 11.955 42.0684 12.1562C41.9184 12.3669 41.706 12.6273 41.3742 13.0328L43.1802 14.5104ZM41.517 16.8168C41.5228 16.7737 41.5632 16.6124 41.853 16.1953C42.1363 15.7876 42.5584 15.2705 43.1802 14.5104L41.3742 13.0328C40.7773 13.7625 40.285 14.3628 39.9369 14.8637C39.5953 15.3553 39.2868 15.8939 39.2044 16.5058L41.517 16.8168ZM41.9657 17.8999C41.6323 17.6457 41.4612 17.2322 41.517 16.8168L39.2044 16.5058C39.0369 17.752 39.5507 18.9924 40.5503 19.7551L41.9657 17.8999ZM44.7727 18.3548C43.7953 18.2571 43.1315 18.1898 42.6426 18.1018C42.1428 18.0119 42.0002 17.9263 41.9657 17.8999L40.5503 19.7551C41.0413 20.1294 41.6402 20.2923 42.2294 20.3982C42.8298 20.5063 43.6023 20.5828 44.5406 20.6766L44.7727 18.3548ZM47.1044 18.8344C46.7563 18.6548 46.3988 18.5651 46.0376 18.5044C45.6879 18.4457 45.2632 18.4038 44.7727 18.3548L44.5406 20.6766C45.0618 20.7286 45.3962 20.7627 45.6512 20.8056C45.8948 20.8465 45.9879 20.884 46.0348 20.9081L47.1044 18.8344ZM48.7548 20.6579C48.4435 19.8704 47.8572 19.2226 47.1044 18.8344L46.0348 20.9081C46.2857 21.0376 46.4812 21.2534 46.585 21.5159L48.7548 20.6579ZM49 23.0258C49 22.533 49.0007 22.1062 48.9769 21.7523C48.9527 21.3869 48.899 21.0224 48.7548 20.6579L46.585 21.5159C46.6044 21.5649 46.6324 21.6615 46.6489 21.9079C46.666 22.166 46.6667 22.502 46.6667 23.0258H49ZM49 25.9744V23.0258H46.6667V25.9744H49ZM48.755 28.3416C48.899 27.9774 48.9527 27.6129 48.9769 27.2475C49.0007 26.894 49 26.4672 49 25.9744H46.6667C46.6667 26.4983 46.666 26.834 46.6489 27.0921C46.6324 27.3385 46.6044 27.4349 46.585 27.4839L48.755 28.3416ZM47.1042 30.1658C47.8569 29.7775 48.4435 29.1293 48.755 28.3416L46.585 27.4839C46.4812 27.7466 46.2857 27.9624 46.0348 28.0919L47.1042 30.1658ZM44.7729 30.6453C45.2634 30.5961 45.6879 30.5543 46.0376 30.4955C46.3986 30.4351 46.7561 30.3452 47.1042 30.1658L46.0348 28.0919C45.9879 28.1162 45.8948 28.1535 45.6512 28.1944C45.3962 28.2373 45.062 28.2714 44.5408 28.3234L44.7729 30.6453ZM41.9666 31.0998C42.0014 31.0735 42.144 30.9878 42.6436 30.898C43.1322 30.81 43.796 30.7428 44.7729 30.6453L44.5408 28.3234C43.6028 28.4172 42.8307 28.4935 42.2303 28.6015C41.6414 28.7075 41.0426 28.8701 40.5519 29.2444L41.9666 31.0998ZM41.5179 32.1834C41.4619 31.7679 41.6332 31.3542 41.9666 31.0998L40.5519 29.2444C39.5517 30.0071 39.0376 31.2482 39.2054 32.4949L41.5179 32.1834ZM43.1807 34.489C42.5588 33.729 42.1372 33.2122 41.8537 32.8046C41.5641 32.3878 41.5238 32.2264 41.5179 32.1834L39.2054 32.4949C39.288 33.1065 39.5962 33.6448 39.9378 34.1362C40.2857 34.637 40.7778 35.2371 41.3747 35.9665L43.1807 34.489ZM44.4899 36.4761C44.3705 36.103 44.1812 35.7868 43.9689 35.4888C43.7633 35.2002 43.4927 34.8703 43.1807 34.489L41.3747 35.9665C41.7063 36.3718 41.9186 36.6322 42.0686 36.8426C42.2119 37.0438 42.2511 37.1362 42.2672 37.1864L44.4899 36.4761ZM44.3672 38.9335C44.7041 38.1561 44.7478 37.283 44.4899 36.4761L42.2672 37.1864C42.3533 37.4554 42.3386 37.7463 42.2263 38.0056L44.3672 38.9335ZM42.8668 40.7804C43.2152 40.432 43.5174 40.1308 43.7507 39.8641C43.9917 39.5885 44.2116 39.2929 44.3672 38.9335L42.2263 38.0056C42.2053 38.0539 42.1571 38.1418 41.9944 38.3276C41.8243 38.5222 41.5872 38.7602 41.2169 39.1305L42.8668 40.7804ZM40.7818 42.8654L42.8668 40.7804L41.2169 39.1305L39.1319 41.2155L40.7818 42.8654ZM38.9342 44.3662C39.2936 44.2106 39.5894 43.9908 39.865 43.7495C40.1319 43.5162 40.4332 43.2141 40.7818 42.8654L39.1319 41.2155C38.7613 41.5861 38.5233 41.8231 38.3287 41.9935C38.1428 42.1561 38.0548 42.2044 38.0065 42.2254L38.9342 44.3662ZM36.4775 44.489C37.2841 44.7466 38.157 44.7032 38.9342 44.3662L38.0065 42.2254C37.7475 42.3377 37.4566 42.3521 37.1875 42.2662L36.4775 44.489ZM34.4897 43.1793C34.8712 43.4915 35.2011 43.7621 35.4898 43.9679C35.7882 44.1803 36.1041 44.3698 36.4775 44.489L37.1875 42.2662C37.1373 42.2501 37.0449 42.2109 36.8438 42.0674C36.6331 41.9174 36.3729 41.7051 35.9674 41.3733L34.4897 43.1793ZM32.1832 41.5161C32.2264 41.5219 32.3879 41.5623 32.8048 41.8521C33.2125 42.1353 33.7295 42.5574 34.4897 43.1793L35.9674 41.3733C35.2378 40.7764 34.6374 40.2841 34.1364 39.9359C33.6448 39.5943 33.1063 39.2859 32.4945 39.2035L32.1832 41.5161ZM31.1001 41.9648C31.3544 41.6316 31.7679 41.4603 32.1832 41.5161L32.4945 39.2035C31.248 39.036 30.0076 39.5498 29.2451 40.5496L31.1001 41.9648ZM30.6453 44.7723C30.7431 43.7948 30.8103 43.1308 30.8982 42.6419C30.9883 42.1419 31.0737 41.9993 31.1001 41.9648L29.2451 40.5496C28.8706 41.0403 28.7077 41.6395 28.6018 42.2287C28.4937 42.829 28.4174 43.6019 28.3234 44.5401L30.6453 44.7723ZM30.1656 47.1047C30.3452 46.7565 30.4348 46.3988 30.4955 46.0376C30.5543 45.6879 30.5963 45.263 30.6453 44.7723L28.3234 44.5401C28.2714 45.0616 28.2373 45.396 28.1944 45.6512C28.1535 45.8948 28.116 45.9882 28.0919 46.0348L30.1656 47.1047ZM28.3423 48.7548C29.1296 48.4433 29.7773 47.8572 30.1656 47.1047L28.0919 46.0348C27.9624 46.2857 27.7466 46.4812 27.4841 46.585L28.3423 48.7548ZM25.9737 49C26.467 49 26.8938 49.0007 27.2477 48.9769C27.6131 48.9527 27.9778 48.8988 28.3423 48.7548L27.4841 46.585C27.4351 46.6044 27.3387 46.6324 27.0921 46.6489C26.834 46.666 26.498 46.6667 25.9737 46.6667V49ZM23.0258 49H25.9737V46.6667H23.0258V49ZM20.6579 48.7548C21.0224 48.899 21.3869 48.9527 21.7523 48.9769C22.1062 49.0007 22.533 49 23.0258 49V46.6667C22.502 46.6667 22.166 46.666 21.9079 46.6489C21.6615 46.6324 21.5649 46.6044 21.5159 46.585L20.6579 48.7548ZM18.8344 47.1044C19.2226 47.8572 19.8704 48.4435 20.6579 48.7548L21.5159 46.585C21.2534 46.4812 21.0376 46.2857 20.9081 46.0348L18.8344 47.1044ZM18.3548 44.7727C18.4038 45.2632 18.4457 45.6879 18.5044 46.0376C18.5651 46.3988 18.6548 46.7563 18.8344 47.1044L20.9081 46.0348C20.884 45.9879 20.8465 45.8948 20.8056 45.6512C20.7627 45.3962 20.7286 45.0618 20.6766 44.5406L18.3548 44.7727ZM17.8999 41.9657C17.9263 42.0002 18.0119 42.1428 18.1018 42.6426C18.1898 43.1315 18.2571 43.7955 18.3548 44.7727L20.6766 44.5406C20.5828 43.6023 20.5063 42.8298 20.3982 42.2294C20.2923 41.6402 20.1294 41.0413 19.755 40.5503L17.8999 41.9657ZM16.8169 41.517C17.2323 41.4612 17.6457 41.6325 17.8999 41.9657L19.755 40.5503C18.9924 39.5507 17.752 39.0369 16.5058 39.2044L16.8169 41.517ZM14.5103 43.1802C15.2704 42.5584 15.7876 42.1363 16.1953 41.853C16.6124 41.5632 16.7737 41.5228 16.8169 41.517L16.5058 39.2044C15.894 39.2868 15.3553 39.5953 14.8637 39.9369C14.3628 40.285 13.7625 40.7773 13.0327 41.3744L14.5103 43.1802ZM12.5224 44.4899C12.8956 44.3707 13.2118 44.1814 13.51 43.9689C13.7988 43.7633 14.1287 43.4924 14.5103 43.1802L13.0327 41.3744C12.6272 41.7062 12.3667 41.9186 12.1561 42.0686C11.9549 42.2119 11.8626 42.2513 11.8124 42.2672L12.5224 44.4899ZM10.0659 44.3674C10.8429 44.7041 11.7157 44.7478 12.5224 44.4899L11.8124 42.2672C11.5434 42.3533 11.2525 42.3386 10.9935 42.2263L10.0659 44.3674ZM8.21812 42.8664C8.56674 43.215 8.86807 43.5174 9.13494 43.7507C9.41057 43.9917 9.70632 44.2118 10.0659 44.3674L10.9935 42.2263C10.9452 42.2056 10.8571 42.1571 10.6712 41.9946C10.4766 41.8243 10.2386 41.587 9.86804 41.2165L8.21812 42.8664ZM6.13343 40.7818L8.21812 42.8664L9.86804 41.2165L7.78335 39.1319L6.13343 40.7818ZM4.63249 38.934C4.78828 39.2936 5.00808 39.5894 5.24921 39.865C5.48266 40.1319 5.78485 40.4332 6.13343 40.7818L7.78335 39.1319C7.41284 38.7613 7.17568 38.5233 7.00542 38.3287C6.84278 38.1428 6.79444 38.0548 6.77348 38.0065L4.63249 38.934ZM4.50996 36.4775C4.25227 37.2843 4.29581 38.157 4.63249 38.934L6.77348 38.0065C6.66125 37.7475 6.64676 37.4566 6.73265 37.1875L4.50996 36.4775ZM5.81964 34.4897C5.50744 34.8712 5.23675 35.2011 5.031 35.4898C4.8185 35.7882 4.62922 36.1044 4.50996 36.4775L6.73265 37.1875C6.74868 37.1373 6.78802 37.0449 6.93136 36.8438C7.08141 36.6331 7.29373 36.3727 7.62553 35.9672L5.81964 34.4897ZM7.48286 32.1832C7.47705 32.2264 7.43671 32.3876 7.14689 32.8048C6.8635 33.2125 6.44157 33.7295 5.81964 34.4897L7.62553 35.9672C8.22253 35.2375 8.7148 34.6372 9.06293 34.1362C9.4046 33.6448 9.71307 33.106 9.79536 32.4942L7.48286 32.1832ZM7.03421 31.1001C7.36748 31.3542 7.53872 31.7676 7.48286 32.1832L9.79536 32.4942C9.96301 31.248 9.44921 30.0076 8.44945 29.2448L7.03421 31.1001ZM4.22726 30.6453C5.20453 30.7428 5.8685 30.8103 6.35717 30.8982C6.857 30.9881 6.99961 31.0737 7.03421 31.1001L8.44945 29.2448C7.95861 28.8706 7.35964 28.7077 6.77043 28.6018C6.17008 28.4937 5.39752 28.4172 4.45942 28.3234L4.22726 30.6453ZM1.89565 30.1656C2.24388 30.3452 2.60125 30.4348 2.9624 30.4955C3.31205 30.5543 3.73672 30.5961 4.22726 30.6453L4.45942 28.3234C3.93806 28.2714 3.60381 28.2373 3.34878 28.1944C3.1052 28.1535 3.01206 28.116 2.96523 28.0919L1.89565 30.1656ZM0.245165 28.3418C0.556548 29.1296 1.14296 29.7775 1.89565 30.1656L2.96523 28.0919C2.71432 27.9624 2.51886 27.7466 2.41505 27.4841L0.245165 28.3418ZM1.44546e-06 25.9742C1.44546e-06 26.4672 -0.000605101 26.8938 0.0230316 27.2477C0.0474383 27.6129 0.101105 27.9776 0.245165 28.3418L2.41505 27.4841C2.39568 27.4349 2.36764 27.3385 2.35116 27.0921C2.33394 26.834 2.33334 26.498 2.33334 25.9742H1.44546e-06ZM1.44546e-06 23.026V25.9742H2.33334V23.026H1.44546e-06ZM0.245305 20.6577C0.101151 21.0222 0.0474616 21.3869 0.0230316 21.7523C-0.000605101 22.1062 1.44546e-06 22.533 1.44546e-06 23.026H2.33334C2.33334 22.502 2.33394 22.166 2.35119 21.9079C2.36766 21.6613 2.39571 21.5649 2.4151 21.5159L0.245305 20.6577ZM1.89535 18.8345C1.14292 19.2227 0.556665 19.8704 0.245305 20.6577L2.4151 21.5159C2.51888 21.2534 2.7143 21.0376 2.96511 20.9081L1.89535 18.8345ZM4.22754 18.3548C3.73688 18.4038 3.3121 18.4457 2.96233 18.5044C2.60111 18.5651 2.24364 18.6548 1.89535 18.8345L2.96511 20.9081C3.01196 20.884 3.10511 20.8465 3.34876 20.8056C3.60388 20.7627 3.93823 20.7286 4.45973 20.6766L4.22754 18.3548ZM7.03524 17.8998C7.00061 17.9262 6.858 18.0118 6.35803 18.1018C5.86922 18.1897 5.20504 18.257 4.22754 18.3548L4.45973 20.6766C5.39808 20.5826 6.17083 20.5063 6.77134 20.3982C7.36069 20.2921 7.95982 20.1292 8.45073 19.7547L7.03524 17.8998ZM7.48375 16.8169C7.53957 17.2322 7.36834 17.6456 7.03524 17.8998L8.45073 19.7547C9.4501 18.9921 9.96371 17.7521 9.7963 16.5062L7.48375 16.8169ZM5.82004 14.5097C6.44217 15.2701 6.86425 15.7873 7.14771 16.1952C7.43764 16.6124 7.47796 16.7738 7.48375 16.8169L9.7963 16.5062C9.71407 15.8942 9.40553 15.3554 9.06379 14.8636C8.71557 14.3625 8.22314 13.7621 7.62594 13.0321L5.82004 14.5097ZM4.50994 12.521C4.62917 12.8944 4.81852 13.2107 5.03109 13.509C5.23691 13.7979 5.50772 14.128 5.82004 14.5097L7.62594 13.0321C7.29398 12.6264 7.0816 12.3659 6.93147 12.1552C6.78809 11.9539 6.74875 11.8615 6.73272 11.8113L4.50994 12.521ZM4.63242 10.0653C4.29595 10.8421 4.25243 11.7146 4.50994 12.521L6.73272 11.8113C6.6469 11.5424 6.66139 11.2516 6.77353 10.9927L4.63242 10.0653ZM6.13382 8.21691C5.78511 8.56565 5.4828 8.86709 5.24928 9.13405C5.00808 9.40978 4.78821 9.70562 4.63242 10.0653L6.77353 10.9927C6.79448 10.9443 6.84283 10.8563 7.00551 10.6703C7.17584 10.4756 7.4131 10.2375 7.78375 9.86683L6.13382 8.21691ZM8.21824 6.13252L6.13382 8.21691L7.78375 9.86683L9.86816 7.78242L8.21824 6.13252ZM10.066 4.63153C9.70642 4.78733 9.41069 5.00713 9.13505 5.24825C8.86819 5.4817 8.56684 5.78392 8.21824 6.13252L9.86816 7.78242C10.2387 7.41191 10.4767 7.17475 10.6713 7.00446C10.8573 6.84183 10.9453 6.79348 10.9936 6.77253L10.066 4.63153ZM12.5225 4.50901C11.7158 4.25131 10.843 4.29485 10.066 4.63153L10.9936 6.77253C11.2526 6.66032 11.5436 6.6458 11.8125 6.73169L12.5225 4.50901ZM14.5106 5.81882C14.1289 5.5066 13.799 5.23586 13.5102 5.03009C13.2119 4.81757 12.8958 4.62826 12.5225 4.50901L11.8125 6.73169C11.8626 6.74772 11.955 6.78706 12.1563 6.93042C12.3669 7.08053 12.6274 7.29286 13.033 7.62473L14.5106 5.81882ZM16.8168 7.48193C16.7736 7.47612 16.6123 7.43578 16.1953 7.14595C15.7876 6.86259 15.2706 6.44068 14.5106 5.81882L13.033 7.62473C13.7626 8.22167 14.3628 8.71386 14.8636 9.06195C15.3552 9.40357 15.8936 9.71201 16.5053 9.79438L16.8168 7.48193ZM17.9002 7.03319C17.6459 7.36657 17.2323 7.53789 16.8168 7.48193L16.5053 9.79438C17.7519 9.96227 18.9928 9.4483 19.7555 8.44812L17.9002 7.03319ZM18.3548 4.22695C18.2571 5.20394 18.1899 5.86773 18.102 6.35628C18.0121 6.85599 17.9265 6.99856 17.9002 7.03319L19.7555 8.44812C20.1297 7.95737 20.2925 7.35857 20.3985 6.76949C20.5065 6.16931 20.5828 5.39698 20.6766 4.45914L18.3548 4.22695ZM18.8342 1.89595C18.6547 2.24409 18.565 2.60141 18.5044 2.96245C18.4457 3.31201 18.4039 3.73658 18.3548 4.22695L20.6766 4.45914C20.7286 3.93792 20.7627 3.60377 20.8056 3.34878C20.8465 3.10527 20.8838 3.01215 20.9081 2.96532L18.8342 1.89595ZM20.6584 0.245025C19.8707 0.556432 19.2224 1.14301 18.8342 1.89595L20.9081 2.96532C21.0376 2.71435 21.2534 2.51881 21.5161 2.415L20.6584 0.245025ZM23.0256 1.44838e-06C22.5328 1.44838e-06 22.106 -0.000605127 21.7525 0.0230082C21.3871 0.0473916 21.0226 0.101058 20.6584 0.245025L21.5161 2.415C21.5651 2.39564 21.6615 2.36761 21.9079 2.35116C22.166 2.33394 22.5017 2.33334 23.0256 2.33334V1.44838e-06ZM25.9742 1.44838e-06H23.0256V2.33334H25.9742V1.44838e-06ZM28.3418 0.245165C27.9776 0.101105 27.6129 0.0474383 27.2477 0.0230316C26.8938 -0.000605097 26.4672 1.44838e-06 25.9742 1.44838e-06V2.33334C26.498 2.33334 26.834 2.33394 27.0921 2.35116C27.3385 2.36764 27.4349 2.39568 27.4841 2.41505L28.3418 0.245165ZM30.1656 1.89565C29.7775 1.14296 29.1296 0.556548 28.3418 0.245165L27.4841 2.41505C27.7466 2.51886 27.9624 2.71432 28.0919 2.9652L30.1656 1.89565ZM32.6667 24.5C32.6667 29.0103 29.0103 32.6667 24.5 32.6667V35C30.299 35 35 30.299 35 24.5H32.6667ZM24.5 16.3333C29.0103 16.3333 32.6667 19.9897 32.6667 24.5H35C35 18.701 30.299 14 24.5 14V16.3333ZM16.3333 24.5C16.3333 19.9897 19.9897 16.3333 24.5 16.3333V14C18.701 14 14 18.701 14 24.5H16.3333ZM24.5 32.6667C19.9897 32.6667 16.3333 29.0103 16.3333 24.5H14C14 30.299 18.701 35 24.5 35V32.6667Z" fill="#861D5D"/>
</svg>
