<svg width="45" height="44" viewBox="0 0 45 44" fill="none" xmlns="http://www.w3.org/2000/svg">
<path d="M45 27.9809C45 23.6675 42.1641 20.0065 38.2586 18.7536V14.3912C38.2586 6.72477 30.8815 0 22.4709 0C14.0603 0 6.68315 6.72477 6.68315 14.3912V18.7749C2.80836 20.0456 0 23.6893 0 27.9809C0 33.3249 4.35056 37.6726 9.69844 37.6726H12.3649C13.7683 37.6726 14.9095 36.5319 14.9095 35.1299V20.8347C14.9095 19.4735 13.8334 18.3675 12.4883 18.3016V14.5756C12.4883 10.213 16.7573 5.33325 22.471 5.33325C28.1831 5.33325 32.4508 10.2129 32.4508 14.5756V18.3077C31.1348 18.4041 30.0905 19.4943 30.0905 20.8347V35.1299C30.0905 36.5319 31.2317 37.6726 32.6351 37.6726H34.575L34.5715 40.9796H30.4673C30.1961 39.9432 29.2594 39.1724 28.1385 39.1724H26.616C25.2841 39.1724 24.2004 40.2554 24.2004 41.5862C24.2004 42.917 25.2842 44 26.616 44H28.1385C29.1722 44 30.0493 43.3444 30.3934 42.4301H35.2967C35.6972 42.4301 36.0218 42.1057 36.0225 41.7055L36.0268 37.6359C41.036 37.2629 45 33.0803 45 27.9809ZM28.1385 42.5494H26.616C26.0844 42.5494 25.652 42.1174 25.652 41.5862C25.652 41.055 26.0844 40.623 26.616 40.623H28.1385C28.6701 40.623 29.1024 41.055 29.1024 41.5862C29.1024 42.1174 28.6701 42.5494 28.1385 42.5494ZM8.97264 36.1906C4.76383 35.8219 1.45161 32.2808 1.45161 27.9809C1.45161 23.6809 4.76383 20.1399 8.97264 19.7713V36.1906ZM13.4579 20.8347V35.1299C13.4579 35.7324 12.9674 36.2221 12.3649 36.2221H10.4243V19.7397H12.3649C12.9674 19.7397 13.4579 20.2309 13.4579 20.8347ZM22.471 3.88277C16.4866 3.88277 11.0367 8.97951 11.0367 14.5757V18.2892H9.69844C9.16498 18.2892 8.64515 18.3438 8.13484 18.427V14.3912C8.13484 7.49748 14.8337 1.45055 22.471 1.45055C30.1083 1.45055 36.8071 7.49748 36.8071 14.3912V18.418C36.3151 18.3409 35.8148 18.2892 35.3016 18.2892H33.9024V14.5757C33.9024 8.97958 28.4539 3.88277 22.471 3.88277ZM31.5421 35.1299V20.8347C31.5421 20.2309 32.0326 19.7396 32.6351 19.7396H34.5758V36.2221H32.6351C32.0326 36.2221 31.5421 35.7323 31.5421 35.1299ZM36.0274 36.1906V19.7713C40.2362 20.1399 43.5484 23.6809 43.5484 27.9809C43.5484 32.2808 40.2362 35.8219 36.0274 36.1906Z" fill="#831D5C"/>
</svg>
