<svg width="38" height="44" viewBox="0 0 38 44" fill="none" xmlns="http://www.w3.org/2000/svg">
<path d="M10 9.93132C10.1586 8.27621 10.7145 6.68924 11.6166 5.3165C12.5187 3.94374 13.738 2.82933 15.1622 2.07582C16.5864 1.32231 18.1697 0.953937 19.7667 1.0046C21.3634 1.05527 22.9222 1.52334 24.2997 2.36573C25.6772 3.20815 26.8291 4.39779 27.6492 5.8252C28.4693 7.25259 28.9315 8.87186 28.9929 10.534C29.0544 12.196 28.7135 13.8475 28.0012 15.3364C27.3024 16.7973 26.2683 18.0555 24.9911 19" stroke="#801E5B" stroke-width="2" stroke-linecap="round" stroke-linejoin="round"/>
<path d="M11 6C12.5225 7.58288 14.3455 8.84124 16.3607 9.7002C18.3759 10.5592 20.5421 11.0012 22.7304 11C24.8825 11.0021 27.0133 10.5754 29 9.74479" stroke="#801E5B" stroke-width="2" stroke-linecap="round" stroke-linejoin="round"/>
<path d="M17 18C16.4068 18 15.8267 18.1466 15.3333 18.4214C14.8399 18.696 14.4554 19.0865 14.2284 19.5434C14.0013 20 13.9419 20.5027 14.0576 20.9877C14.1734 21.4727 14.4591 21.9182 14.8787 22.2677C15.2983 22.6174 15.8327 22.8555 16.4147 22.952C16.9968 23.0484 17.6 22.9989 18.1482 22.8097C18.6964 22.6205 19.1648 22.3 19.4944 21.8889C19.8242 21.4779 20 20.9944 20 20.5C20 19.837 19.684 19.201 19.1214 18.7322C18.5588 18.2634 17.7958 18 17 18Z" stroke="#801E5B" stroke-width="2" stroke-linecap="round" stroke-linejoin="round"/>
<path d="M6 13V15.1148C6 16.6756 6.57165 18.1725 7.5892 19.2762C8.60675 20.3799 9.98684 21 11.4259 21H14" stroke="#801E5B" stroke-width="2" stroke-linecap="round" stroke-linejoin="round"/>
<path d="M37 43C37.0002 39.6951 36.1578 36.4538 34.5649 33.6292C32.9785 30.816 30.7084 28.5237 28 27" stroke="#801E5B" stroke-width="2" stroke-linecap="round" stroke-linejoin="round"/>
<path d="M1 43C0.999617 39.6946 1.93612 36.4528 3.70743 33.6273C5.46989 30.8161 7.9916 28.5246 11 27" stroke="#801E5B" stroke-width="2" stroke-linecap="round" stroke-linejoin="round"/>
</svg>
