<svg width="11" height="13" viewBox="0 0 11 13" fill="none" xmlns="http://www.w3.org/2000/svg">
<path d="M9.9517 1.18721L6.96518 0.229379C6.4912 0.0773652 5.99708 0 5.5 0C5.00292 0 4.5088 0.0773652 4.03483 0.229379L1.0483 1.18721C0.42425 1.38737 0 1.97529 0 2.63994V7.9057C0 8.87382 0.453 9.78433 1.2204 10.3586L4.1462 12.5481C4.53842 12.8417 5.01283 13 5.5 13C5.98717 13 6.46158 12.8417 6.8538 12.5481L9.7796 10.3586C10.547 9.78433 11 8.87382 11 7.9057V2.63994C11 1.97529 10.5758 1.38737 9.9517 1.18721ZM7.7981 5.78185L5.32323 8.2954C5.03032 8.59287 4.55545 8.59287 4.26258 8.2954L3.2019 7.21817C2.909 6.9207 2.909 6.4384 3.2019 6.14095C3.4948 5.84347 3.96967 5.84347 4.26255 6.14095L4.79287 6.67956L6.73743 4.70463C7.03033 4.40715 7.5052 4.40715 7.79808 4.70463C8.091 5.00208 8.091 5.48438 7.7981 5.78185Z" fill="#43D827"/>
</svg>
