<svg width="65" height="63" viewBox="0 0 65 63" fill="none" xmlns="http://www.w3.org/2000/svg">
<path d="M38.8 62H26.2C14.3206 62 8.38092 62 4.69045 58.355C1 54.7104 1 48.8437 1 37.1111V30.8889C1 19.1561 1 13.2898 4.69045 9.64488C8.38092 6 14.3206 6 26.2 6H38.8C50.6793 6 56.6192 6 60.3095 9.64488C64 13.2898 64 19.1561 64 30.8889V37.1111C64 48.8437 64 54.7104 60.3095 58.355C58.2519 60.3872 55.4953 61.2863 51.4 61.6842" stroke="#1C274C" stroke-width="2" stroke-linecap="round"/>
<path d="M17 6V1" stroke="#1C274C" stroke-width="2" stroke-linecap="round"/>
<path d="M48 6V1" stroke="#1C274C" stroke-width="2" stroke-linecap="round"/>
<path d="M62 21H46.75H28.3718M1 21H13.1218" stroke="#1C274C" stroke-width="2" stroke-linecap="round"/>
<path d="M51 46C51 47.6569 49.6569 49 48 49C46.3431 49 45 47.6569 45 46C45 44.3431 46.3431 43 48 43C49.6569 43 51 44.3431 51 46Z" fill="#1C274C"/>
<path d="M51 34C51 35.6569 49.6569 37 48 37C46.3431 37 45 35.6569 45 34C45 32.3431 46.3431 31 48 31C49.6569 31 51 32.3431 51 34Z" fill="#1C274C"/>
<path d="M35 46C35 47.6569 33.6569 49 32 49C30.3431 49 29 47.6569 29 46C29 44.3431 30.3431 43 32 43C33.6569 43 35 44.3431 35 46Z" fill="#1C274C"/>
<path d="M35 34C35 35.6569 33.6569 37 32 37C30.3431 37 29 35.6569 29 34C29 32.3431 30.3431 31 32 31C33.6569 31 35 32.3431 35 34Z" fill="#1C274C"/>
<path d="M20 46C20 47.6569 18.6568 49 17 49C15.3432 49 14 47.6569 14 46C14 44.3431 15.3432 43 17 43C18.6568 43 20 44.3431 20 46Z" fill="#1C274C"/>
<path d="M20 34C20 35.6569 18.6568 37 17 37C15.3432 37 14 35.6569 14 34C14 32.3431 15.3432 31 17 31C18.6568 31 20 32.3431 20 34Z" fill="#1C274C"/>
</svg>
