<svg width="71" height="65" viewBox="0 0 71 65" fill="none" xmlns="http://www.w3.org/2000/svg">
<path d="M35.5 49C41.8513 49 47 43.8513 47 37.5C47 31.1487 41.8513 26 35.5 26C29.1487 26 24 31.1487 24 37.5C24 43.8513 29.1487 49 35.5 49Z" stroke="#1C274C" stroke-width="2"/>
<path d="M1 37.4996C1 26.8657 0.999425 21.5495 3.58355 17.73C4.70227 16.0766 6.13977 14.6569 7.81402 13.5521C11.6814 11 17.0652 11 27.8328 11H43.1663C53.9337 11 59.3173 11 63.1847 13.5521C64.8591 14.6569 66.2966 16.0766 67.4152 17.73C69.9996 21.5495 70 26.8657 70 37.4996C70 48.1335 70 53.4506 67.416 57.27C66.297 58.9233 64.8595 60.3429 63.1855 61.448C59.318 64 53.9341 64 43.1667 64H27.8333C17.0658 64 11.682 64 7.81459 61.448C6.14035 60.3429 4.70281 58.9233 3.58413 57.27C2.69545 55.9564 2.11236 54.4659 1.72983 52.6427" stroke="#1C274C" stroke-width="2" stroke-linecap="round"/>
<path d="M58 26H56" stroke="#1C274C" stroke-width="2" stroke-linecap="round"/>
<path d="M45 1H26" stroke="#1C274C" stroke-width="2" stroke-linecap="round"/>
</svg>
