<svg width="72" height="80" viewBox="0 0 72 80" fill="none" xmlns="http://www.w3.org/2000/svg">
<path d="M36 17V32" stroke="#1C274C" stroke-width="2" stroke-linecap="round"/>
<path d="M18 67C20.5473 73.9912 27.4207 79 35.5 79C36.4508 79 37.3849 78.9308 38.2969 78.7968M53 67C51.9613 69.8504 50.2039 72.3712 47.9386 74.3572" stroke="#1C274C" stroke-width="2" stroke-linecap="round"/>
<path d="M24.7512 3.61725C28.1605 1.93902 31.9746 1 36 1C50.4954 1 62.2465 13.1759 62.2465 28.1958V30.9313C62.2465 34.2143 63.1845 37.4235 64.9419 40.1551L69.2484 46.8486C73.1824 52.9626 70.1794 61.2731 63.3373 63.2065C45.4395 68.2645 26.5606 68.2645 8.66251 63.2065C1.82075 61.2731 -1.18236 52.9626 2.7514 46.8486L7.05811 40.1551C8.81558 37.4235 9.75338 34.2143 9.75338 30.9313V28.1958C9.75338 24.0246 10.6597 20.0728 12.2793 16.5402" stroke="#1C274C" stroke-width="2" stroke-linecap="round"/>
</svg>
