<svg width="62" height="84" viewBox="0 0 62 84" fill="none" xmlns="http://www.w3.org/2000/svg">
<path d="M53.4951 61H8.50491C4.36006 61 1 64.2832 1 68.3333V75.6667C1 79.7168 4.36006 83 8.50491 83H53.4951C57.6399 83 61 79.7168 61 75.6667V68.3333C61 64.2832 57.6399 61 53.4951 61Z" stroke="#1C274C" stroke-width="2" stroke-miterlimit="10"/>
<path d="M61 68V8.44878C61 6.47324 60.2098 4.57861 58.8033 3.1817C57.3968 1.78478 55.4891 1 53.5 1H8.5C6.51088 1 4.60322 1.78478 3.1967 3.1817C1.79018 4.57861 1 6.47324 1 8.44878V68" stroke="#1C274C" stroke-width="2" stroke-miterlimit="10"/>
<path d="M38 72H53" stroke="#1C274C" stroke-width="2" stroke-miterlimit="10"/>
<path d="M14 72C14 73.1046 13.1046 74 12 74C10.8954 74 10 73.1046 10 72C10 70.8954 10.8954 70 12 70C13.1046 70 14 70.8954 14 72Z" fill="#020202" stroke="#1C274C" stroke-width="2"/>
</svg>
