<svg width="24" height="19" viewBox="0 0 24 19" fill="none" xmlns="http://www.w3.org/2000/svg">
<path d="M1 9.70833C1 5.60318 1 3.55062 2.28873 2.2753C3.57747 1 5.65164 1 9.8 1H14.2C18.3483 1 20.4226 1 21.7112 2.2753C23 3.55062 23 5.60318 23 9.70833C23 13.8134 23 15.8661 21.7112 17.1413C20.4226 18.4167 18.3483 18.4167 14.2 18.4167H9.8C5.65164 18.4167 3.57747 18.4167 2.28873 17.1413C1 15.8661 1 13.8134 1 9.70833Z" stroke="#841D5D"/>
<path d="M12.0006 7.41602V11.9993M10.167 8.56185L13.8334 10.8535M13.8332 8.56185L10.1667 10.8535" stroke="#841D5D" stroke-linecap="round"/>
<path d="M6.0421 7.41602V11.9993M4.2085 8.56185L7.87492 10.8535M7.87466 8.56185L4.20825 10.8535" stroke="#841D5D" stroke-linecap="round"/>
<path d="M17.7299 7.41602V11.9993M15.667 8.56185L19.7917 10.8535M19.7915 8.56185L15.6667 10.8535" stroke="#841D5D" stroke-linecap="round"/>
</svg>
