<svg width="18" height="23" viewBox="0 0 18 23" fill="none" xmlns="http://www.w3.org/2000/svg">
<path d="M17.0649 8.34578C17.0417 6.047 16.1054 3.95949 14.5998 2.44829C13.0948 0.937042 11.0164 0 8.7156 0C4.12292 0.00067384 0.378214 3.72575 0.366265 8.29381V8.29098C0.359257 8.89532 0.2266 9.49755 0.0167216 10.0745C-0.0359278 10.2213 0.0399017 10.3827 0.1859 10.4353C0.331899 10.4887 0.493351 10.4129 0.546674 10.2661C0.772007 9.64355 0.920791 8.98023 0.929236 8.29727V8.29515C0.939074 4.04151 4.43321 0.562118 8.7156 0.562836C10.862 0.562836 12.7952 1.43461 14.2011 2.84549C15.6063 4.25705 16.4802 6.20275 16.5019 8.35203C16.5026 8.41869 16.5026 8.48468 16.5026 8.55139C16.5026 11.1836 15.9629 13.5469 15.0988 15.7404C14.2354 17.9332 13.0443 19.9561 11.7422 21.8963C11.6552 22.0254 11.6896 22.2002 11.8194 22.2866C11.9486 22.3729 12.1234 22.3385 12.2097 22.2093C13.5237 20.251 14.7373 18.1944 15.6231 15.9468C16.5089 13.6999 17.0656 11.2615 17.0656 8.55139C17.0656 8.48334 17.0656 8.41456 17.0649 8.34578Z" fill="#841D5D"/>
<path d="M15.1895 8.50811C15.1895 8.45406 15.1888 8.3993 15.1881 8.34454C15.1684 6.56237 14.4434 4.94376 13.2768 3.77227C12.1109 2.60145 10.4993 1.87428 8.71573 1.875C6.95674 1.875 5.3388 2.58114 4.16097 3.72317C2.98315 4.86447 2.24053 6.4466 2.24053 8.19297C2.24053 8.23578 2.24125 8.27792 2.24264 8.32001V8.3193C2.24336 8.36561 2.24336 8.41125 2.24336 8.45757C2.24336 9.54133 1.97522 10.5759 1.56602 11.5221C1.15749 12.4676 0.609297 13.3233 0.0582753 14.0434C-0.0364667 14.167 -0.0126125 14.3439 0.110925 14.4379C0.234462 14.5326 0.411368 14.5095 0.505391 14.3853C1.07744 13.6377 1.6502 12.7456 2.08258 11.7453C2.51496 10.7451 2.80624 9.63468 2.80624 8.45752C2.80624 8.4077 2.80624 8.35784 2.80552 8.30869V8.30797C2.80413 8.26939 2.80341 8.23075 2.80341 8.19284C2.80341 6.60792 3.47586 5.17179 4.55329 4.12733C5.63004 3.0836 7.10898 2.43712 8.71564 2.43784C10.3455 2.43784 11.8111 3.09905 12.8787 4.17019C13.9442 5.24061 14.6075 6.71816 14.6251 8.35083C14.6258 8.40348 14.6265 8.45541 14.6265 8.50806C14.6265 11.2456 13.8452 13.9339 12.7355 16.3492C11.6251 18.7645 10.1869 20.9047 8.88689 22.5429C8.79071 22.6643 8.81038 22.8412 8.93253 22.9381C9.05467 23.0343 9.23086 23.0139 9.32771 22.8924C10.6501 21.2261 12.1115 19.0523 13.2465 16.585C14.3809 14.1172 15.1888 11.353 15.1895 8.50811Z" fill="#841D5D"/>
<path d="M13.3189 8.76088C13.3189 8.61978 13.3168 8.47939 13.3119 8.33901C13.2683 7.07978 12.7552 5.93353 11.9347 5.10175C11.1149 4.26996 9.98197 3.75124 8.71573 3.75195C7.45651 3.75195 6.30675 4.26156 5.47357 5.08351C4.63967 5.90618 4.11817 7.04609 4.11817 8.30393L4.11888 8.33973C4.11888 8.3643 4.11888 8.38748 4.11888 8.40851C4.11888 10.1401 3.61067 11.7419 2.89402 13.138C2.17876 14.5334 1.25506 15.7211 0.44012 16.6153C0.334821 16.7297 0.342548 16.908 0.457684 17.0126C0.572821 17.1172 0.751075 17.1094 0.855655 16.9944C1.69517 16.0727 2.64834 14.85 3.39518 13.3949C4.1413 11.9406 4.68109 10.2517 4.68181 8.40851C4.68181 8.38393 4.68109 8.36008 4.68109 8.3369V8.33479V8.30388C4.68109 7.20327 5.13593 6.20797 5.86876 5.48498C6.60158 4.76132 7.61023 4.31488 8.71573 4.31488C9.82757 4.31488 10.811 4.7655 11.5339 5.49693C12.2555 6.22832 12.7104 7.24052 12.7497 8.35797C12.7539 8.49202 12.7567 8.62678 12.7567 8.76088C12.7574 11.3685 11.8828 13.9818 10.6699 16.3346C9.45768 18.6867 7.91063 20.777 6.5868 22.3395C6.48644 22.4581 6.50046 22.6357 6.61978 22.7361C6.73842 22.8371 6.916 22.8217 7.01707 22.7031C8.35986 21.1167 9.93071 18.997 11.1696 16.5922C12.4085 14.1874 13.3182 11.4948 13.3189 8.76088Z" fill="#841D5D"/>
<path d="M8.99636 8.48771C9.00337 8.33187 8.88266 8.20061 8.72822 8.1936C8.57238 8.18726 8.44112 8.3073 8.43411 8.46242C8.32881 10.8272 7.51953 13.1239 6.43155 15.1643C5.34357 17.2048 3.97836 18.9884 2.77947 20.3269C2.67556 20.4428 2.6854 20.6203 2.80121 20.7242C2.91702 20.8282 3.09532 20.8183 3.19851 20.7018C4.42126 19.3365 5.81175 17.5214 6.92781 15.429C8.04243 13.3372 8.88545 10.9648 8.99636 8.48771Z" fill="#841D5D"/>
<path d="M11.4411 8.65629C11.4411 8.5545 11.439 8.45275 11.4355 8.35023H11.4362C11.4362 8.34884 11.4355 8.34673 11.4355 8.34462C11.4355 8.34462 11.4355 8.34251 11.4355 8.34111C11.4299 6.84182 10.2149 5.62963 8.71558 5.62891C7.21278 5.62963 5.99493 6.84743 5.99493 8.35023V8.3474C5.97669 10.416 5.32742 12.3743 4.41562 14.108C3.50383 15.841 2.33233 17.3453 1.28505 18.5007C1.18114 18.6158 1.18887 18.794 1.30473 18.8986C1.41986 19.0025 1.59812 18.9941 1.70202 18.8783C2.77177 17.6983 3.97201 16.1597 4.91328 14.3698C5.85454 12.5806 6.53822 10.5373 6.55785 8.3523V8.35019C6.55785 7.75285 6.79859 7.21589 7.1896 6.82421C7.58056 6.43325 8.11896 6.19179 8.71558 6.19179C9.31152 6.19179 9.84988 6.43325 10.2408 6.82421C10.6318 7.21589 10.8726 7.75285 10.8733 8.35019V8.35508V8.35931C10.8761 8.4576 10.8782 8.55724 10.8782 8.6562C10.8795 11.0406 9.9439 13.5268 8.67205 15.7849C7.40159 18.0437 5.79911 20.0722 4.49424 21.5526C4.39177 21.6691 4.403 21.8474 4.5202 21.9499C4.63673 22.0523 4.81431 22.0411 4.91678 21.9246C6.23921 20.4239 7.86272 18.3693 9.16269 16.0614C10.4606 13.7529 11.4397 11.1888 11.4411 8.65629Z" fill="#841D5D"/>
</svg>
