<svg width="16" height="16" viewBox="0 0 16 16" fill="none" xmlns="http://www.w3.org/2000/svg">
<mask id="mask0_4766_6936" style="mask-type:luminance" maskUnits="userSpaceOnUse" x="0" y="0" width="16" height="16">
<path d="M16 0H0V15.7975H16V0Z" fill="white"/>
</mask>
<g mask="url(#mask0_4766_6936)">
<path d="M15.2803 7.36258C15.1303 7.35797 14.982 7.43327 14.8389 7.58987C14.3218 8.15542 13.6281 8.39488 12.7188 8.32175C11.9451 8.25955 11.3948 7.9742 11.0371 7.44933C10.9402 7.30551 10.8749 7.14254 10.8455 6.97146C10.8162 6.80032 10.8233 6.62484 10.8667 6.45674C10.8963 6.32772 10.9536 6.20673 11.0345 6.1022C11.1155 5.99769 11.2182 5.91218 11.3355 5.85158C11.3486 5.84515 11.3592 5.83462 11.3659 5.82155C11.3726 5.8085 11.3748 5.79363 11.3724 5.77916C11.2843 5.27082 11.1634 5.16701 10.6898 5.18946C10.6533 5.19124 10.6169 5.19605 10.5806 5.20045C10.5498 5.20427 10.519 5.20822 10.4883 5.21006C9.8047 5.251 8.91264 5.25311 8.07126 4.90148C7.20352 4.53887 6.7887 3.91775 6.803 3.00281C6.80581 2.74857 6.8344 2.4953 6.88824 2.24684C7.03217 1.63142 7.30666 1.0544 7.69309 0.555188L7.70135 0.544068C7.79585 0.417754 7.86528 0.314424 7.82975 0.229578C7.79781 0.17205 7.7525 0.123175 7.69755 0.0871973C7.6426 0.0512198 7.57977 0.0292093 7.51453 0.0230779C7.47335 0.0218931 7.43185 0.0203202 7.39027 0.0186747C7.13453 0.00899873 6.87047 -0.00107188 6.62614 0.06666C3.92789 0.816713 2.10218 2.28041 1.0446 4.54129C0.151552 6.45055 -0.138719 8.08426 0.131052 9.68283C0.551248 12.1724 1.87844 13.9148 4.07576 14.8618C5.46704 15.4614 6.86064 15.7626 8.23656 15.7626C8.76201 15.7626 9.28653 15.7185 9.80464 15.6305C11.8454 15.2844 13.4513 14.3444 14.5776 12.8363C15.4789 11.6292 15.9249 10.13 15.9407 8.25297C15.9427 8.02107 15.8096 7.76785 15.685 7.6079C15.5616 7.45046 15.4256 7.36818 15.2803 7.36258ZM7.85735 5.75802C8.43368 5.98182 9.07643 6.09979 9.82234 6.11908C9.92791 6.12172 10.0335 6.12112 10.1451 6.1204L10.2286 6.11985C10.2278 6.1236 10.2271 6.12735 10.2263 6.13097C10.2162 6.18132 10.2083 6.22116 10.1975 6.25934C9.93328 7.19849 10.2091 8.0187 10.9738 8.56885C12.0179 9.31982 13.223 9.44969 14.5556 8.95477C14.6189 8.93127 14.6796 8.90322 14.7497 8.87065C14.7571 8.86722 14.7647 8.86407 14.7723 8.86012C14.7629 9.40716 14.6755 9.95001 14.5125 10.4721C13.8717 12.6064 12.3395 13.9778 9.95853 14.5481C8.11296 14.99 6.19125 14.7797 4.24706 13.9228C2.49768 13.152 1.4109 11.7215 1.017 9.67111C0.851296 8.80357 0.874843 7.91029 1.086 7.05275C1.59033 4.97034 2.34166 3.58865 3.52226 2.57268C4.5492 1.68895 5.60657 1.08981 6.75466 0.741149C6.76385 0.738384 6.77303 0.735935 6.78339 0.733434C6.36081 1.33491 6.10115 2.03627 6.02981 2.76876C5.88981 4.16355 6.55596 5.25316 7.85702 5.75802H7.85735Z" fill="#831D5C"/>
<path d="M9.00609 13.2752H9.0177C9.708 13.2752 10.2556 12.6617 10.2664 11.8731C10.2734 11.3556 9.66885 10.7401 9.13147 10.7177C8.82288 10.7036 8.48432 10.8511 8.20353 11.1193C7.90753 11.4016 7.72891 11.7721 7.72564 12.1103C7.71934 12.7564 8.28209 13.2679 9.00609 13.2752ZM8.62413 12.0042C8.63102 11.7693 8.92387 11.4492 9.08544 11.4492H9.08603C9.16826 11.4638 9.24203 11.5086 9.29304 11.5749C9.37449 11.6548 9.42334 11.7622 9.43009 11.8762C9.40702 12.1505 9.22209 12.3481 9.00013 12.337C8.76262 12.3246 8.61849 12.1969 8.62413 12.0042Z" fill="#831D5C"/>
<path d="M5.31742 8.46755C5.31512 8.802 5.41576 9.08154 5.60895 9.27599C5.80534 9.47398 6.0915 9.57845 6.43695 9.57845H6.44175C6.80092 9.57745 7.10518 9.46042 7.32184 9.23999C7.56112 8.99644 7.68518 8.63829 7.68046 8.204C7.6739 7.57085 7.13548 7.1661 6.31085 7.17394C5.72181 7.17927 5.32254 7.69907 5.31742 8.46755ZM6.08036 8.46657C6.07701 8.23309 6.13282 8.03135 6.22607 7.93999C6.23976 7.92504 6.2563 7.91306 6.27468 7.90463C6.29305 7.89628 6.31289 7.89167 6.33308 7.89107H6.33813C6.63744 7.9026 6.88505 8.09427 6.89023 8.31847C6.89751 8.63297 6.73384 8.83392 6.463 8.84274C6.32647 8.84755 6.23105 8.82207 6.17256 8.76599C6.11263 8.70859 6.08238 8.61065 6.08036 8.46657Z" fill="#831D5C"/>
<path d="M3.5878 9.36344C3.43393 9.36087 3.28111 9.38917 3.13825 9.44664C2.99541 9.5041 2.8654 9.58954 2.75586 9.69801C2.66797 9.7826 2.59781 9.8839 2.54951 9.99613C2.5012 10.1083 2.47574 10.229 2.47461 10.3512C2.47743 10.8383 2.768 11.1289 3.25173 11.1289H3.25228C3.87674 11.1289 4.33135 10.7211 4.33338 10.1602C4.33488 9.71697 4.00734 9.36706 3.5878 9.36344ZM3.00932 10.2959C3.01201 10.2537 3.03112 10.2144 3.06251 10.1863C3.13687 10.1119 3.30512 10.034 3.55719 10.0321C3.56434 10.0387 3.5722 10.0462 3.58059 10.0538C3.62086 10.0906 3.68171 10.146 3.68859 10.1947C3.69155 10.2223 3.68837 10.2504 3.67931 10.2767C3.67023 10.3031 3.65552 10.3271 3.63615 10.3472C3.58235 10.4012 3.51837 10.444 3.44795 10.473C3.37752 10.5019 3.30202 10.5166 3.2259 10.5161C3.16736 10.5215 3.10898 10.5044 3.06257 10.4681C3.02285 10.42 3.0037 10.3581 3.00932 10.2959Z" fill="#831D5C"/>
<path d="M4.50623 3.75136C4.27233 3.6024 3.96429 3.60104 3.66095 3.74776C3.3538 3.89638 3.24953 4.16599 3.14881 4.42671C3.13517 4.46199 3.12161 4.49728 3.10745 4.53204C3.06998 4.61879 3.05035 4.71225 3.04982 4.8068C3.04927 4.90137 3.0678 4.99506 3.10428 5.08225C3.14686 5.17644 3.2077 5.26118 3.28325 5.33152C3.35882 5.40186 3.44756 5.45639 3.54434 5.49193C3.67373 5.54474 3.81188 5.57254 3.95155 5.57392C4.12601 5.57532 4.29682 5.5238 4.44159 5.42604C4.71044 5.24424 4.86684 4.91557 4.8705 4.52426C4.87379 4.1827 4.74112 3.90097 4.50623 3.75136ZM4.31169 4.61365C4.30605 4.88424 4.17575 5.0311 3.94598 5.02616C3.89163 5.02665 3.83773 5.01631 3.78739 4.99576C3.73705 4.97519 3.6913 4.94482 3.65275 4.90637C3.62917 4.88246 3.61069 4.85393 3.59852 4.82259C3.58633 4.79124 3.5807 4.75773 3.58193 4.72411C3.59253 4.60905 3.64445 4.50179 3.72802 4.42235C3.8116 4.34289 3.92111 4.29668 4.03614 4.2923H4.04324C4.11804 4.28494 4.1927 4.30749 4.25104 4.35504C4.29524 4.40138 4.3145 4.4835 4.31169 4.61377V4.61365Z" fill="#831D5C"/>
</g>
</svg>
