<svg width="18" height="19" viewBox="0 0 18 19" fill="none" xmlns="http://www.w3.org/2000/svg">
<path d="M6.84375 7.375C6.84636 6.95163 7.07139 6.54627 7.46963 6.2476C7.86786 5.94893 8.40687 5.78125 8.96875 5.78125C9.53063 5.78125 10.0696 5.94893 10.4679 6.2476C10.8661 6.54627 11.0911 6.95163 11.0938 7.375" stroke="#831D5C" stroke-width="0.7" stroke-linecap="round" stroke-linejoin="round"/>
<path d="M11.0938 7.375V8.4375" stroke="#831D5C" stroke-width="0.7" stroke-linecap="round" stroke-linejoin="round"/>
<path d="M6.84375 7.375V8.4375" stroke="#831D5C" stroke-width="0.7" stroke-linecap="round" stroke-linejoin="round"/>
<path d="M8.96875 11.625C9.26215 11.625 9.5 11.2682 9.5 10.8281C9.5 10.388 9.26215 10.0312 8.96875 10.0312C8.67535 10.0312 8.4375 10.388 8.4375 10.8281C8.4375 11.2682 8.67535 11.625 8.96875 11.625Z" stroke="#831D5C" stroke-width="0.7" stroke-linecap="round" stroke-linejoin="round"/>
<path d="M8.96875 12.1562V11.625" stroke="#831D5C" stroke-width="0.7" stroke-linecap="round" stroke-linejoin="round"/>
<path d="M10.159 8.4375H7.77847C6.96884 8.4375 6.3125 9.09384 6.3125 9.90347V12.284C6.3125 13.0937 6.96884 13.75 7.77847 13.75H10.159C10.9687 13.75 11.625 13.0937 11.625 12.284V9.90347C11.625 9.09384 10.9687 8.4375 10.159 8.4375Z" stroke="#831D5C" stroke-width="0.7" stroke-linecap="round" stroke-linejoin="round"/>
<path d="M16.9375 13.7502C16.1879 15.0423 15.1097 16.1153 13.8113 16.8613C12.5129 17.6073 11.04 18 9.54081 18C8.04158 18 6.56876 17.6072 5.27039 16.8612C3.97202 16.1151 2.89385 15.0421 2.14424 13.75C1.39463 12.4578 0.999997 10.992 1 9.49998C1 8.00793 1.39465 6.54217 2.14426 5.25001C2.89388 3.95786 3.97205 2.88484 5.27043 2.13881C6.5688 1.39277 8.04162 1.00001 9.54085 1" stroke="#831D5C" stroke-width="0.7" stroke-linecap="round" stroke-linejoin="round"/>
</svg>
