<svg width="21" height="23" viewBox="0 0 21 23" fill="none" xmlns="http://www.w3.org/2000/svg">
<path d="M6.21582 11.8047H7.2869M14.7844 11.8047H10.5001" stroke="#831D5C" stroke-linecap="round"/>
<path d="M14.7844 7.33398H13.7134M10.5001 7.33398H6.21582" stroke="#831D5C" stroke-linecap="round"/>
<path d="M6.21582 15.9023H11.4315" stroke="#831D5C" stroke-linecap="round"/>
<path d="M1 13.7412V9.49412C1 5.48995 1 3.48787 2.23666 2.24393C3.47332 1 5.46369 1 9.44444 1H11.5556C15.5363 1 17.5267 1 18.7633 2.24393C19.4528 2.93747 19.7579 3.86665 19.8929 5.24706M20 9.49412V13.7412C20 17.7453 20 19.7475 18.7633 20.9913C17.5267 22.2353 15.5363 22.2353 11.5556 22.2353H9.44444C5.46369 22.2353 3.47332 22.2353 2.23666 20.9913C1.54719 20.2978 1.24211 19.3686 1.10713 17.9882" stroke="#831D5C" stroke-linecap="round"/>
</svg>
