<svg width="22" height="17" viewBox="0 0 22 17" fill="none" xmlns="http://www.w3.org/2000/svg">
<path d="M14.528 3.68359L13.8999 4.3117L16.6951 7.10692L13.8999 9.90214L14.528 10.5302L17.9513 7.10692L14.528 3.68359Z" fill="#831D5C"/>
<path d="M7.42105 4.3117L6.79295 3.68359L3.36963 7.10692L6.79295 10.5302L7.42105 9.90214L4.62583 7.10692L7.42105 4.3117Z" fill="#831D5C"/>
<path d="M12.0234 2.49781L8.47266 11.3828L9.29759 11.7125L12.8483 2.82748L12.0234 2.49781Z" fill="#831D5C"/>
<path d="M20.4324 13.3255V0H0.888364V13.3255H0V15.2366L1.09484 16.8789H20.2259L21.3207 15.2366V13.3255H20.4324ZM1.77673 0.888363H19.544V13.3255H1.77673V0.888363ZM20.4324 14.9677L19.7505 15.9905H1.57025L0.888364 14.9677V14.2138H20.4324V14.9677Z" fill="#831D5C"/>
<path d="M9.32782 14.6582H8.43945V15.5466H9.32782V14.6582Z" fill="#831D5C"/>
<path d="M11.1047 14.6582H10.2163V15.5466H11.1047V14.6582Z" fill="#831D5C"/>
<path d="M12.881 14.6582H11.9927V15.5466H12.881V14.6582Z" fill="#831D5C"/>
</svg>
