<svg width="20" height="20" viewBox="0 0 20 20" fill="none" xmlns="http://www.w3.org/2000/svg">
<path d="M10 4.01009C8.42034 4.01009 7.14284 5.13918 7.14284 6.53535C7.14284 6.81428 6.88701 7.04039 6.57142 7.04039C6.25583 7.04039 6 6.81428 6 6.53535C6 4.58132 7.78916 3 10 3C12.2108 3 14 4.58134 14 6.53535C14 8.31787 12.5111 9.79029 10.5714 10.0349V12.596C10.5714 12.8748 10.3155 13.101 10 13.101C9.68446 13.101 9.42858 12.8748 9.42858 12.596V9.56565C9.42858 9.28677 9.68446 9.06061 10 9.06061C11.5797 9.06061 12.8572 7.93151 12.8572 6.53535C12.8572 5.13918 11.5797 4.01009 10 4.01009ZM10 16C10.6312 16 11.1429 15.5478 11.1429 14.9899C11.1429 14.432 10.6312 13.9798 10 13.9798C9.36879 13.9798 8.85713 14.432 8.85713 14.9899C8.85713 15.5478 9.36879 16 10 16Z" fill="#831D5C"/>
<path d="M10 0C4.47714 0 0 4.47714 0 10C0 15.5228 4.47714 20 10 20C15.5228 20 20 15.5228 20 10C20 4.47714 15.5228 0 10 0ZM1.00001 10C1.00001 5.02945 5.02945 1.00001 10 1.00001C14.9706 1.00001 19 5.02945 19 10C19 14.9706 14.9706 19 10 19C5.02945 19 1.00001 14.9706 1.00001 10Z" fill="#831D5C"/>
</svg>
