<svg width="19" height="18" viewBox="0 0 19 18" fill="none" xmlns="http://www.w3.org/2000/svg">
<path d="M18.4914 6.90586C18.2124 6.90586 17.9991 7.12966 17.9991 7.38544V16.0178C17.9991 16.5613 17.5561 16.9929 16.9983 16.9929H2.00173C1.44387 16.9929 1.00086 16.5613 1.00086 16.0178V1.93428C1.00086 1.39076 1.44387 0.959147 2.00173 0.959147H11.6494C11.9283 0.959147 12.1416 0.735346 12.1416 0.479574C12.1416 0.207815 11.9119 0 11.6494 0H1.90328C0.853195 0 0 0.831261 0 1.85435V16.1456C0 17.1687 0.853195 18 1.90328 18H17.0967C18.1468 18 19 17.1687 19 16.1456V7.38544C19 7.12966 18.7703 6.90586 18.4914 6.90586Z" fill="#831D5C"/>
<path d="M18.4883 1.40345L17.5915 0.506208C16.9718 -0.113703 15.9934 -0.178956 15.439 0.392014L5.9973 9.83749L9.16083 13.0023L18.6025 3.55682C19.1732 3.00216 19.1243 2.02336 18.4883 1.40345ZM16.1075 4.64982L9.0956 11.6646L7.33446 9.91906L14.379 2.87166L16.1075 4.64982ZM17.9013 2.85534L16.8577 3.8994L15.1128 2.13755L16.1402 1.1098C16.3521 0.89773 16.7272 0.914044 16.9555 1.15875L17.8524 2.05598C18.097 2.26806 18.1133 2.64327 17.9013 2.85534ZM5.9973 9.87012L5.01889 13.4264C4.96997 13.5896 5.01889 13.7527 5.13304 13.8669C5.24719 13.9811 5.41025 14.03 5.57332 13.9811L9.12822 13.0023L8.39441 12.2682L6.09514 12.9044L6.73111 10.5879L5.9973 9.87012Z" fill="#831D5C"/>
</svg>
