<svg width="25" height="24" viewBox="0 0 25 24" fill="none" xmlns="http://www.w3.org/2000/svg">
<path d="M24.5275 15.2623C24.5275 12.9096 22.9818 10.9127 20.8531 10.2292V7.84972C20.8531 3.66805 16.8321 0 12.2479 0C7.66367 0 3.6427 3.66805 3.6427 7.84972V10.2408C1.53072 10.934 0 12.9214 0 15.2623C0 18.1772 2.3713 20.5487 5.2862 20.5487H6.73957C7.50452 20.5487 8.12653 19.9265 8.12653 19.1617V11.3644C8.12653 10.6219 7.53996 10.0186 6.80683 9.98267V7.95033C6.80683 5.57072 9.1337 2.90905 12.2479 2.90905C15.3614 2.90905 17.6875 5.57068 17.6875 7.95033V9.98603C16.9702 10.0386 16.401 10.6332 16.401 11.3644V19.1617C16.401 19.9265 17.023 20.5487 17.788 20.5487H18.8453L18.8434 22.3525H16.6064C16.4586 21.7872 15.948 21.3668 15.3371 21.3668H14.5072C13.7813 21.3668 13.1906 21.9575 13.1906 22.6834C13.1906 23.4093 13.7813 24 14.5072 24H15.3371C15.9005 24 16.3786 23.6424 16.5661 23.1437H19.2387C19.457 23.1437 19.6339 22.9667 19.6343 22.7485L19.6366 20.5287C22.3669 20.3252 24.5275 18.0438 24.5275 15.2623ZM15.3371 23.2088H14.5072C14.2175 23.2088 13.9818 22.9731 13.9818 22.6834C13.9818 22.3936 14.2175 22.158 14.5072 22.158H15.3371C15.6268 22.158 15.8625 22.3936 15.8625 22.6834C15.8625 22.9731 15.6268 23.2088 15.3371 23.2088ZM4.89059 19.7403C2.59656 19.5392 0.791211 17.6077 0.791211 15.2623C0.791211 12.9169 2.59656 10.9854 4.89059 10.7843V19.7403ZM7.33532 11.3644V19.1618C7.33532 19.4904 7.06797 19.7575 6.73957 19.7575H5.6818V10.7671H6.73957C7.06797 10.7671 7.33532 11.0351 7.33532 11.3644ZM12.2479 2.11787C8.98614 2.11787 6.01562 4.89791 6.01562 7.95036V9.9759H5.2862C4.99543 9.9759 4.7121 10.0057 4.43395 10.0511V7.84972C4.43395 4.08953 8.08519 0.791211 12.2479 0.791211C16.4107 0.791211 20.0619 4.08953 20.0619 7.84972V10.0462C19.7938 10.0041 19.5211 9.9759 19.2414 9.9759H18.4787V7.95036C18.4787 4.89795 15.509 2.11787 12.2479 2.11787ZM17.1922 19.1617V11.3644C17.1922 11.035 17.4596 10.7671 17.788 10.7671H18.8457V19.7575H17.788C17.4596 19.7575 17.1922 19.4903 17.1922 19.1617ZM19.6369 19.7403V10.7843C21.931 10.9854 23.7363 12.9169 23.7363 15.2623C23.7363 17.6077 21.931 19.5392 19.6369 19.7403Z" fill="#831D5C"/>
</svg>
