<svg width="22" height="22" viewBox="0 0 22 22" fill="none" xmlns="http://www.w3.org/2000/svg">
<path d="M21 14.0664C21 17.8017 21 18.679 19.8284 19.8393C18.6569 20.9997 16.7712 20.9997 13 20.9997" stroke="#841D5D" stroke-linecap="round"/>
<path d="M9 1C5.22876 1 3.34315 1 2.17157 2.16041C1 3.32083 1 4.19801 1 7.93333" stroke="#841D5D" stroke-linecap="round"/>
<path d="M11 6.06641C8.04482 6.06641 6.03353 7.6078 4.83427 8.96741C4.23365 9.6483 3.93335 9.9888 3.93335 10.9997C3.93335 12.0107 4.23366 12.3512 4.83428 13.0321C6.03354 14.3917 8.04482 15.9331 11 15.9331C13.9552 15.9331 15.9665 14.3917 17.1658 13.0321C17.7663 12.3512 18.0667 12.0107 18.0667 10.9997C18.0667 9.9888 17.7663 9.6483 17.1658 8.96741C16.6254 8.35481 15.9202 7.70532 15.0381 7.17653" stroke="#841D5D" stroke-linecap="round"/>
<path d="M11 13C12.1046 13 13 12.1046 13 11C13 9.89543 12.1046 9 11 9C9.89543 9 9 9.89543 9 11C9 12.1046 9.89543 13 11 13Z" stroke="#841D5D"/>
<path d="M9 20.9997C8.65081 20.9997 8.31779 20.9997 8 20.9988M1 14.0664C1 17.8017 1 18.679 2.17157 19.8393C2.82475 20.4863 3.69989 20.7725 5 20.8992" stroke="#841D5D" stroke-linecap="round"/>
<path d="M13 1C13.3492 1 13.6822 1 14 1.00092M21 7.93333C21 4.19801 21 3.32083 19.8284 2.16041C19.1752 1.51345 18.3001 1.22719 17 1.10052" stroke="#841D5D" stroke-linecap="round"/>
</svg>
