<svg width="23" height="23" viewBox="0 0 23 23" fill="none" xmlns="http://www.w3.org/2000/svg">
<path d="M16.1667 11.5C16.1667 14.0773 14.0773 16.1667 11.5 16.1667C8.92267 16.1667 6.83333 14.0773 6.83333 11.5C6.83333 8.92267 8.92267 6.83333 11.5 6.83333C14.0773 6.83333 16.1667 8.92267 16.1667 11.5ZM16.1667 11.5V13.25C16.1667 14.8608 17.4725 16.1667 19.0833 16.1667C20.6941 16.1667 22 14.8608 22 13.25V11.5C22 5.70101 17.299 1 11.5 1C5.70101 1 1 5.70101 1 11.5C1 17.299 5.70101 22 11.5 22H16.1667" stroke="#841D5D" stroke-linecap="round" stroke-linejoin="round"/>
</svg>
