<?xml version="1.0" encoding="iso-8859-1"?>
<!-- Uploaded to: SVG Repo, www.svgrepo.com, Generator: SVG Repo Mixer Tools -->
<!DOCTYPE svg PUBLIC "-//W3C//DTD SVG 1.1//EN" "http://www.w3.org/Graphics/SVG/1.1/DTD/svg11.dtd">
<svg fill="#000000" version="1.1" id="Capa_1" xmlns="http://www.w3.org/2000/svg" xmlns:xlink="http://www.w3.org/1999/xlink" 
	 width="800px" height="800px" viewBox="0 0 184.153 184.154"
	 xml:space="preserve">
<g>
	<path d="M145.71,138.296l-1.011-0.938c-23.126-21.642-17.342-48.726-17.281-49c0.122-0.518-0.048-1.011-0.341-1.409
		c0.098-0.558,0.171-0.944,0.177-0.999c2.563-39.689-4.701-66.07-21.567-78.397C87.948-5.39,66.189,2,63.406,3.035
		C61.232,3.202,48.829,4.73,39.564,18.333c-7.739,11.362-13.661,32.276-7.322,70.497c0.119,1.459,0.146,2.844,0.387,4.415
		c0.046,0.28,0.225,0.472,0.387,0.691c-9.633,31.803,6.698,64.746,7.127,65.58c-1.108,0.371-2.195,0.755-3.398,1.004
		c-0.953,0.189-1.571,1.139-1.379,2.089c0.164,0.841,0.913,1.419,1.729,1.419c0.125,0,0.231-0.006,0.369-0.03
		c7.919-1.638,13.786-5.56,17.476-11.655c5.063-8.408,4.808-19.028,3.873-25.964c5.294,5.59,12.333,9.493,21.723,9.986
		c0.088,0.007,0.161,0.007,0.255,0.007c3.642,0,9.514-3.605,15.141-9.274c0.359-0.365,0.871-0.926,1.339-1.431
		c-0.511,8.146-1.203,23.869,0.387,31.548c0.173,0.834,0.91,1.406,1.732,1.406c0.125,0,0.238-0.012,0.369-0.036
		c0.946-0.195,1.57-1.139,1.379-2.089c-1.011-4.853-1.023-13.457-0.779-21.008c0.231-0.151,0.459-0.358,0.603-0.64
		c9.03-17.073,12.988-32.193,13.542-45.245c6.077,16.755,3.258,40.502-8.622,70.862c-0.359,0.914,0.098,1.949,1.005,2.296
		c0.207,0.085,0.426,0.128,0.646,0.128c0.7,0,1.382-0.42,1.65-1.127c13.262-33.892,15.576-60.094,6.887-77.883
		c-0.487-1.011-1.103-1.863-1.662-2.801c-1.498-19.178-10.912-32.958-22.128-40.591c-28.19-19.168-26.083-29.432-26.004-29.73
		c0.295-0.911-0.192-1.888-1.108-2.208c-0.923-0.332-1.939,0.162-2.25,1.087c-0.433,1.258-3.389,12.86,27.377,33.777
		c8.257,5.617,15.442,14.864,18.785,27.389c-5.758-7.408-12.188-13.25-19.602-17.607C65.763,39.256,62.109,15.25,62.085,15.006
		c-0.144-0.947-1.011-1.647-1.97-1.511c-0.947,0.119-1.647,0.987-1.546,1.946c0.018,0.094,0.411,4.235-0.512,10.352
		c-0.088,0.186-0.25,0.335-0.268,0.56c0,0.03-0.024,0.481-0.037,1.196c-1.367,7.472-4.701,17.318-12.671,26.382l-0.387,0.432
		c-3.857,4.384-8.534,9.782-10.997,18.076c-2.36-26.975,2.536-42.819,8.741-51.983C51.374,7.26,63.363,6.6,63.875,6.582
		c0.186-0.006,0.387-0.049,0.572-0.125c0.231-0.088,22.168-8.442,39.172,3.979c15.835,11.566,22.605,36.906,20.164,75.058
		c-0.116,0.493-10.09,49.751,16.239,97.746c0.323,0.585,0.92,0.914,1.547,0.914c0.299,0,0.579-0.073,0.858-0.22
		c0.853-0.462,1.17-1.546,0.688-2.399c-13.841-25.232-17.36-50.746-17.689-69.087c2.424,8.714,7.302,18.56,16.867,27.511
		l1.035,0.956c6.777,6.247,13.171,12.16,0.542,36.395c-0.444,0.871-0.134,1.937,0.749,2.394c0.25,0.134,0.542,0.194,0.816,0.194
		c0.646,0,1.248-0.341,1.57-0.943C160.878,152.289,152.816,144.848,145.71,138.296z M43.318,158.183
		c-0.033-0.079,0.012-0.152-0.018-0.231c-0.183-0.358-13.957-27.925-8.574-56.318c3.078,14.236,7.648,30.488,14.221,49.213
		c0.274,0.785,1.066,1.15,1.863,1.065C48.871,154.548,46.378,156.643,43.318,158.183z M52.284,149.738
		c-0.012-0.024,0.012-0.043,0-0.073c-7.663-21.823-12.589-40.188-15.564-55.825c1.471-4.521,3.529-8.988,6.278-13.32
		c0.417,7.87,2.421,25.961,10.982,39.485c0.006,0.061-0.04,0.116-0.024,0.164C54.011,120.351,58.912,137.693,52.284,149.738z
		 M93.398,124.583c-6.147,6.217-11.024,8.263-12.702,8.232c-34.425-1.76-34.312-55.707-34.306-56.249
		c0-0.326-0.186-0.576-0.341-0.837c5.803-8.403,11.81-18.992,14.221-32.705c2.494,6.924,7.396,13.999,16.931,16.837
		c11.42,3.397,25.097,8.954,33.223,21.455c0,0.064-0.067,0.112-0.062,0.177C111.787,104.118,97.734,120.199,93.398,124.583z
		 M100.693,127.263c0.194-3.338,0.38-5.664,0.414-6.254c1.75-2.309,3.641-5.17,5.443-8.439
		C105.028,117.264,103.107,122.166,100.693,127.263z M61.613,26.067c3.529,8.805,10.924,21.27,26.025,30.142
		c4.737,2.786,9.033,6.241,13.043,10.327c-7.206-4.908-15.256-7.928-22.472-10.065c-13.317-3.958-16.249-17.373-16.84-24.829
		c0.024-1.236-0.027-2.518-0.064-3.796C61.406,27.245,61.537,26.627,61.613,26.067z M47.312,56.671l0.38-0.438
		c4.028-4.57,6.89-9.283,9.012-13.829c-2.503,14.109-8.954,24.972-14.885,33.302c-2.594,3.636-4.558,7.396-6.224,11.192
		C34.869,70.929,41.677,63.068,47.312,56.671z"/>
</g>
</svg>