<svg width="19" height="28" viewBox="0 0 19 28" fill="none" xmlns="http://www.w3.org/2000/svg">
<path d="M1 27V16.6M1 16.6L4.11027 15.9577C6.18809 15.5285 8.34191 15.7326 10.3093 16.5454C12.4413 17.426 14.7877 17.5905 17.0155 17.0153L17.1415 16.9828C17.8793 16.7924 18.2291 15.92 17.8379 15.2466L15.8733 11.8651C15.4434 11.1252 15.2284 10.7553 15.1774 10.3529C15.1562 10.185 15.1562 10.015 15.1774 9.84714C15.2284 9.44473 15.4434 9.07478 15.8733 8.33487L17.4828 5.56472C17.904 4.83968 17.2661 3.95064 16.4717 4.1557C14.5975 4.63957 12.6234 4.5012 10.8296 3.76028L10.3093 3.54536C8.34191 2.73269 6.18809 2.52849 4.11027 2.95763L1 3.6M1 16.6V12.7M1 3.6V1M1 3.6V7.5" stroke="#841D5D" stroke-linecap="round"/>
</svg>
