<svg width="25" height="20" viewBox="0 0 25 20" fill="none" xmlns="http://www.w3.org/2000/svg">
<path d="M6.41554 2.62695C4.32885 2.62695 2.6311 4.3247 2.6311 6.41139C2.6311 8.49809 4.32885 10.1952 6.41554 10.1952C8.50224 10.1952 10.2 8.49749 10.2 6.41139C10.2 4.32409 8.50224 2.62695 6.41554 2.62695ZM6.41554 9.59066C4.66224 9.59066 3.23507 8.1641 3.23507 6.41079C3.23507 4.65748 4.66163 3.23031 6.41554 3.23031C8.16946 3.23031 9.59602 4.65688 9.59602 6.41079C9.59602 8.1647 8.16946 9.59066 6.41554 9.59066Z" fill="#841D5D"/>
<path d="M23.8556 0.167963L20.3224 1.13068C20.0096 1.21584 19.7716 1.4538 19.6864 1.76666C19.6007 2.07951 19.6852 2.40505 19.9117 2.63757L20.227 2.9613L19.2588 3.86121C18.1977 3.12316 16.9692 2.73481 15.69 2.73481C14.4634 2.73481 13.2778 3.08994 12.2384 3.76578C11.1108 1.27805 8.43218 -0.266287 5.67689 0.0381109C2.69814 0.369083 0.325162 2.77226 0.0340515 5.75222C-0.28001 8.96954 1.60375 11.7272 4.63626 12.542V13.8888H3.78769C2.99468 13.8888 2.32489 14.5804 2.32489 15.3987C2.32489 16.2171 2.99468 16.9086 3.78769 16.9086H4.63626V17.8617C4.63626 18.6547 5.3278 19.3245 6.14617 19.3245C6.96454 19.3245 7.65608 18.6547 7.65608 17.8617V16.9086H8.43036C9.22337 16.9086 9.89317 16.2171 9.89317 15.3987C9.89317 14.5804 9.22337 13.8888 8.43036 13.8888H7.65608V12.6815C8.58015 12.539 9.21612 12.2473 9.87626 11.81C10.3153 12.792 10.9694 13.6219 11.8252 14.279C12.9027 15.1064 14.2604 15.5624 15.6477 15.5624C17.1703 15.5624 18.6422 15.0279 19.7897 14.0567C22.2128 12.0081 22.7902 8.74667 21.2374 6.04756L22.2865 5.07095L22.4943 5.28415C22.6664 5.4605 22.8959 5.55774 23.1399 5.55774C23.5524 5.55774 23.913 5.27992 24.0181 4.88251L24.9693 1.27322C25.0418 0.999622 24.9844 0.714551 24.8123 0.491084C24.5918 0.203597 24.2065 0.0725369 23.8556 0.167963ZM23.4347 4.7285C23.3936 4.88432 23.2571 4.95378 23.1405 4.95378C23.0837 4.95378 23.001 4.93807 22.9273 4.86258L22.5136 4.43799C22.3989 4.32022 22.2116 4.31539 22.0914 4.42772L20.6474 5.77275C20.5417 5.8712 20.5205 6.03125 20.5972 6.15325C22.1446 8.63132 21.653 11.691 19.4008 13.5959C18.3614 14.4753 17.029 14.959 15.6483 14.959C14.3927 14.959 13.166 14.5478 12.1937 13.8006C11.327 13.1351 10.6886 12.2744 10.2954 11.2423C10.2622 11.1547 10.1903 11.0882 10.1003 11.0611C10.0109 11.0339 9.9137 11.0502 9.8376 11.1039C9.05486 11.6626 8.42191 11.9894 7.31967 12.118C7.16687 12.1355 7.05212 12.2648 7.05212 12.4176V14.1908C7.05212 14.3575 7.18741 14.4928 7.3541 14.4928H8.43036C8.89602 14.4928 9.2892 14.9077 9.2892 15.3987C9.2892 15.8898 8.89542 16.3047 8.43036 16.3047H7.3541C7.18741 16.3047 7.05212 16.44 7.05212 16.6067V17.8617C7.05212 18.3274 6.63719 18.7205 6.14617 18.7205C5.65515 18.7205 5.24022 18.3274 5.24022 17.8617V16.6067C5.24022 16.44 5.10494 16.3047 4.93824 16.3047H3.78769C3.32203 16.3047 2.92885 15.8898 2.92885 15.3987C2.92885 14.9077 3.32203 14.4928 3.78769 14.4928H4.93824C5.10494 14.4928 5.24022 14.3575 5.24022 14.1908V12.3058C5.24022 12.1651 5.14299 12.0431 5.00649 12.0117C2.14128 11.3492 0.343885 8.79922 0.6356 5.8102C0.898928 3.11289 3.04723 0.938018 5.74393 0.638451C8.41043 0.340093 10.8909 1.89651 11.8222 4.3329C11.8561 4.42108 11.9285 4.48812 12.0191 4.51469C12.1091 4.54187 12.207 4.52436 12.2831 4.46819C13.2905 3.72894 14.4694 3.33757 15.6912 3.33757C16.9215 3.33757 18.1004 3.73679 19.1018 4.49174C19.2178 4.57932 19.3814 4.57147 19.489 4.47181L20.8654 3.19201C20.9252 3.13645 20.9596 3.05974 20.962 2.97821C20.9638 2.89667 20.933 2.81816 20.8763 2.76018L20.3448 2.2154C20.2361 2.10367 20.256 1.97563 20.2693 1.9255C20.2832 1.87537 20.3315 1.75458 20.4813 1.71351L24.0145 0.750789C24.134 0.718779 24.2591 0.762264 24.334 0.859502C24.3678 0.902988 24.4191 0.994186 24.3859 1.11921L23.4347 4.7285Z" fill="#841D5D"/>
<path d="M15.7001 5.39844C14.6897 5.39844 13.739 5.79162 13.0245 6.50671C12.3094 7.2212 11.9163 8.17184 11.9163 9.18227C11.9163 10.1927 12.31 11.1433 13.0245 11.8578C13.739 12.5729 14.6897 12.9661 15.7001 12.9661C16.7105 12.9661 17.6612 12.5723 18.3757 11.8578C19.0908 11.1433 19.4839 10.1927 19.4839 9.18227C19.4839 8.17184 19.0908 7.2212 18.3757 6.50671C17.6612 5.79222 16.7105 5.39844 15.7001 5.39844ZM17.9487 11.4314C17.3477 12.0324 16.5493 12.3628 15.7001 12.3628C14.8509 12.3628 14.0519 12.0318 13.4515 11.4314C12.8512 10.8311 12.5202 10.0321 12.5202 9.18288C12.5202 8.3337 12.8512 7.53466 13.4515 6.93432C14.0519 6.33398 14.8509 6.00301 15.7001 6.00301C16.5493 6.00301 17.3483 6.33337 17.9487 6.93432C18.549 7.53526 18.88 8.3337 18.88 9.18288C18.88 10.0321 18.5496 10.8305 17.9487 11.4314Z" fill="#841D5D"/>
</svg>
