<svg width="40" height="40" viewBox="0 0 40 40" fill="none" xmlns="http://www.w3.org/2000/svg">
<path d="M39.3334 38.6666H36.6255C36.6539 38.4475 36.6667 38.2238 36.6667 37.9999C36.6667 36.1182 35.5838 34.5165 34.0001 33.7748V11.3333C34.0001 10.9333 33.7334 10.6666 33.3334 10.6666H23.3334V0.666641C23.3334 0.266641 23.0668 1.71632e-08 22.6668 1.71632e-08H4.6668C4.26664 -7.81078e-05 4 0.266563 4 0.666563V38.6666H0.666641C0.266641 38.6666 0 38.9332 0 39.3332C0 39.7332 0.266641 39.9999 0.666641 39.9999H4.66664H6.66664H22.6666H35.8H39.3334C39.7334 39.9999 40 39.7333 40 39.3333C40 38.9333 39.7334 38.6666 39.3334 38.6666ZM32.6666 33.3803C32.4491 33.3499 32.2267 33.3332 32 33.3332C31.4967 33.3332 31.003 33.4189 30.5366 33.5791C30.4205 33.4243 30.2332 33.3332 30 33.3332C29.6 33.3332 29.3334 33.5998 29.3334 33.9998V34.2041C29.0807 34.3862 28.8458 34.5938 28.6326 34.8247C28.5989 34.8603 28.5658 34.8964 28.5334 34.9331C27.9809 34.2426 27.2694 33.743 26.4648 33.4998C26.3493 33.3938 26.19 33.3331 26 33.3331C25.9257 33.3331 25.856 33.3424 25.7917 33.36C25.6412 33.3424 25.4883 33.3331 25.3334 33.3331C24.9155 33.3331 24.4451 33.3873 24.0639 33.5421C24.0167 33.558 23.9698 33.5745 23.9234 33.592C23.4627 33.2175 22.9239 32.9479 22.3561 32.7995C22.3501 32.7979 22.3439 32.7967 22.338 32.7951C22.2884 32.7823 22.2388 32.7702 22.1888 32.7594C22.1484 32.7505 22.1074 32.7427 22.0666 32.7351C22.0488 32.7318 22.0311 32.7283 22.0133 32.7252C21.9704 32.7178 21.9273 32.7113 21.884 32.7052C21.8646 32.7025 21.8452 32.7001 21.8258 32.6977C21.786 32.6927 21.7461 32.6881 21.7059 32.6845C21.6766 32.6817 21.6473 32.6797 21.6179 32.6776C21.5865 32.6754 21.5552 32.6728 21.5235 32.6713C21.4602 32.6683 21.3968 32.6664 21.3334 32.6664C21.2843 32.6664 21.2356 32.6674 21.1872 32.6692C21.1555 32.6703 21.1238 32.6723 21.0922 32.6741C21.0795 32.6748 21.0667 32.6754 21.0541 32.6762C20.4467 32.7166 19.85 32.888 19.3333 33.1916V11.9999H22.6666H32.6666V33.3803ZM5.33336 1.33328H22V10.6666H18.6666C18.2666 10.6666 18 10.9333 18 11.3333V32.0666C17.6593 31.7259 17.2666 31.4377 16.839 31.2122C16.8013 31.192 16.7631 31.1725 16.7248 31.1534C16.7098 31.146 16.6948 31.1383 16.6797 31.131C16.2039 30.9002 15.6862 30.7488 15.1452 30.6922C15.1376 30.6914 15.1299 30.6908 15.1223 30.69C15.0595 30.6838 14.9963 30.6788 14.9329 30.6752C14.9161 30.6741 14.8993 30.6731 14.8824 30.6723C14.8108 30.6689 14.7389 30.6666 14.6666 30.6666C13.6745 30.6666 12.7552 30.993 12 31.5414V31.3334C12 30.9334 11.7334 30.6667 11.3334 30.6667C10.9334 30.6667 10.6667 30.9334 10.6667 31.3334V32.6667C10.6667 32.7667 10.6834 32.8584 10.7146 32.9396C10.3873 33.4791 10.1617 34.0872 10.0667 34.7334C9.29922 34.8212 8.59742 35.0973 8.00008 35.5102V35.3334C8.00008 34.9334 7.73344 34.6668 7.33344 34.6668C6.93344 34.6668 6.6668 34.9334 6.6668 35.3334V36.6668C6.6668 36.7446 6.67719 36.8172 6.69641 36.8839C6.36586 37.4185 6.14094 38.0234 6.04828 38.6667H5.33352V1.33328H5.33336ZM10.3633 36.0137C10.3765 36.0126 10.3898 36.0118 10.4031 36.0108C10.4383 36.008 10.4734 36.0054 10.5089 36.0037C10.5612 36.0014 10.6137 35.9998 10.6667 35.9998C11.0667 35.9998 11.3334 35.7332 11.3334 35.3332C11.3334 33.4666 12.8 31.9998 14.6667 31.9998C16.3334 31.9998 17.7334 33.1998 17.9334 34.8665C17.9784 35.0468 18.0855 35.1954 18.2319 35.2941C18.2411 35.3006 18.2505 35.3067 18.2602 35.3127C18.2705 35.3191 18.2807 35.3255 18.2914 35.3312C18.316 35.3448 18.3416 35.3573 18.3684 35.368C18.3694 35.3684 18.3703 35.3687 18.3713 35.3692C18.4019 35.3814 18.4338 35.3916 18.4666 35.3998C18.4667 35.3998 18.4667 35.3998 18.4668 35.3999C18.5065 35.4131 18.5516 35.4182 18.5992 35.4167C18.8184 35.4199 19.0222 35.3001 19.1334 35.1334C19.1334 35.1334 19.1334 35.1334 19.1335 35.1333L19.2002 35.0666C19.7335 34.4 20.4668 34 21.3335 34C21.7837 34 22.2336 34.1261 22.6374 34.3619C21.8422 35.1096 21.3912 36.0844 21.3388 37.1273C21.3353 37.1955 21.3335 37.2643 21.3335 37.3334C21.3335 37.797 21.4106 38.2412 21.5632 38.6667H7.4C7.71203 37.2313 8.90031 36.1466 10.3633 36.0137ZM23.137 38.6666C22.8823 38.2358 22.7334 37.7265 22.7334 37.2666C22.7334 36.5294 23.024 35.8652 23.5235 35.3798C23.619 35.2912 23.7208 35.2095 23.8283 35.1355C23.9324 35.1363 24.0372 35.1146 24.1334 35.0666C25.6 34.2666 27.3334 34.9999 27.8667 36.4666C27.9334 36.6666 28.1334 36.8666 28.4667 36.8666C28.53 36.8666 28.6 36.8464 28.6703 36.8106C28.8376 36.7832 28.9698 36.6604 29.0667 36.4666C29.3251 35.9176 29.7251 35.4793 30.212 35.172C30.317 35.1427 30.4073 35.0909 30.4791 35.0205C30.937 34.7903 31.456 34.6666 32.0001 34.6666C33.8667 34.6666 35.3334 36.1332 35.3334 37.9999C35.3334 38.1999 35.3334 38.4666 35.2668 38.6666H23.137Z" fill="black"/>
<path d="M21.9997 17.334C21.5997 17.334 21.333 17.6006 21.333 18.0006V19.334C21.333 19.734 21.5997 20.0006 21.9997 20.0006C22.3996 20.0006 22.6663 19.734 22.6663 19.334V18.0006C22.6663 17.6006 22.3996 17.334 21.9997 17.334Z" fill="black"/>
<path d="M21.9997 29.334C21.5997 29.334 21.333 29.6006 21.333 30.0006V31.334C21.333 31.734 21.5997 32.0006 21.9997 32.0006C22.3996 32.0006 22.6663 31.734 22.6663 31.334V30.0006C22.6663 29.6006 22.3996 29.334 21.9997 29.334Z" fill="black"/>
<path d="M21.9997 21.334C21.5997 21.334 21.333 21.6006 21.333 22.0006V23.334C21.333 23.734 21.5997 24.0006 21.9997 24.0006C22.3996 24.0006 22.6663 23.734 22.6663 23.334V22.0006C22.6663 21.6006 22.3996 21.334 21.9997 21.334Z" fill="black"/>
<path d="M21.9997 25.334C21.5997 25.334 21.333 25.6006 21.333 26.0006V27.334C21.333 27.734 21.5997 28.0006 21.9997 28.0006C22.3996 28.0006 22.6663 27.734 22.6663 27.334V26.0006C22.6663 25.6006 22.3996 25.334 21.9997 25.334Z" fill="black"/>
<path d="M21.9997 13.334C21.5997 13.334 21.333 13.6006 21.333 14.0006V15.334C21.333 15.734 21.5997 16.0006 21.9997 16.0006C22.3996 16.0006 22.6663 15.734 22.6663 15.334V14.0006C22.6663 13.6006 22.3996 13.334 21.9997 13.334Z" fill="black"/>
<path d="M25.9996 20.0006C26.3996 20.0006 26.6663 19.734 26.6663 19.334V18.0006C26.6663 17.6006 26.3996 17.334 25.9996 17.334C25.5996 17.334 25.333 17.6006 25.333 18.0006V19.334C25.333 19.734 25.5996 20.0006 25.9996 20.0006Z" fill="black"/>
<path d="M25.9996 16.0006C26.3996 16.0006 26.6663 15.734 26.6663 15.334V14.0006C26.6663 13.6006 26.3996 13.334 25.9996 13.334C25.5996 13.334 25.333 13.6006 25.333 14.0006V15.334C25.333 15.734 25.5996 16.0006 25.9996 16.0006Z" fill="black"/>
<path d="M25.9996 24.0006C26.3996 24.0006 26.6663 23.734 26.6663 23.334V22.0006C26.6663 21.6006 26.3996 21.334 25.9996 21.334C25.5996 21.334 25.333 21.6006 25.333 22.0006V23.334C25.333 23.734 25.5996 24.0006 25.9996 24.0006Z" fill="black"/>
<path d="M25.9996 28.0006C26.3996 28.0006 26.6663 27.734 26.6663 27.334V26.0006C26.6663 25.6006 26.3996 25.334 25.9996 25.334C25.5996 25.334 25.333 25.6006 25.333 26.0006V27.334C25.333 27.734 25.5996 28.0006 25.9996 28.0006Z" fill="black"/>
<path d="M25.9996 32.0006C26.3996 32.0006 26.6663 31.734 26.6663 31.334V30.0006C26.6663 29.6006 26.3996 29.334 25.9996 29.334C25.5996 29.334 25.333 29.6006 25.333 30.0006V31.334C25.333 31.734 25.5996 32.0006 25.9996 32.0006Z" fill="black"/>
<path d="M29.9996 24.0006C30.3996 24.0006 30.6663 23.734 30.6663 23.334V22.0006C30.6663 21.6006 30.3996 21.334 29.9996 21.334C29.5996 21.334 29.333 21.6006 29.333 22.0006V23.334C29.333 23.734 29.5996 24.0006 29.9996 24.0006Z" fill="black"/>
<path d="M29.9996 20.0006C30.3996 20.0006 30.6663 19.734 30.6663 19.334V18.0006C30.6663 17.6006 30.3996 17.334 29.9996 17.334C29.5996 17.334 29.333 17.6006 29.333 18.0006V19.334C29.333 19.734 29.5996 20.0006 29.9996 20.0006Z" fill="black"/>
<path d="M29.9996 32.0006C30.3996 32.0006 30.6663 31.734 30.6663 31.334V30.0006C30.6663 29.6006 30.3996 29.334 29.9996 29.334C29.5996 29.334 29.333 29.6006 29.333 30.0006V31.334C29.333 31.734 29.5996 32.0006 29.9996 32.0006Z" fill="black"/>
<path d="M29.9996 28.0006C30.3996 28.0006 30.6663 27.734 30.6663 27.334V26.0006C30.6663 25.6006 30.3996 25.334 29.9996 25.334C29.5996 25.334 29.333 25.6006 29.333 26.0006V27.334C29.333 27.734 29.5996 28.0006 29.9996 28.0006Z" fill="black"/>
<path d="M29.9996 16.0006C30.3996 16.0006 30.6663 15.734 30.6663 15.334V14.0006C30.6663 13.6006 30.3996 13.334 29.9996 13.334C29.5996 13.334 29.333 13.6006 29.333 14.0006V15.334C29.333 15.734 29.5996 16.0006 29.9996 16.0006Z" fill="black"/>
<path d="M7.33363 25.3327C7.73363 25.3327 8.00027 25.066 8.00027 24.666V23.3327C8.00027 22.9327 7.73363 22.666 7.33363 22.666C6.93363 22.666 6.66699 22.9327 6.66699 23.3327V24.666C6.66691 25.0659 6.93363 25.3327 7.33363 25.3327Z" fill="black"/>
<path d="M7.33363 29.3327C7.73363 29.3327 8.00027 29.066 8.00027 28.666V27.3327C8.00027 26.9327 7.73363 26.666 7.33363 26.666C6.93363 26.666 6.66699 26.9327 6.66699 27.3327V28.666C6.66691 29.0659 6.93363 29.3327 7.33363 29.3327Z" fill="black"/>
<path d="M7.33363 33.3327C7.73363 33.3327 8.00027 33.066 8.00027 32.666V31.3327C8.00027 30.9327 7.73363 30.666 7.33363 30.666C6.93363 30.666 6.66699 30.9327 6.66699 31.3327V32.666C6.66691 33.0659 6.93363 33.3327 7.33363 33.3327Z" fill="black"/>
<path d="M7.33363 5.33266C7.73363 5.33266 8.00027 5.06602 8.00027 4.66602V3.33266C8.00027 2.93266 7.73363 2.66602 7.33363 2.66602C6.93363 2.66602 6.66699 2.93266 6.66699 3.33266V4.66602C6.66691 5.06594 6.93363 5.33266 7.33363 5.33266Z" fill="black"/>
<path d="M7.33363 9.33266C7.73363 9.33266 8.00027 9.06602 8.00027 8.66602V7.33266C8.00027 6.93266 7.73363 6.66602 7.33363 6.66602C6.93363 6.66602 6.66699 6.93266 6.66699 7.33266V8.66602C6.66691 9.06594 6.93363 9.33266 7.33363 9.33266Z" fill="black"/>
<path d="M7.33363 13.3327C7.73363 13.3327 8.00027 13.066 8.00027 12.666V11.3327C8.00027 10.9327 7.73363 10.666 7.33363 10.666C6.93363 10.666 6.66699 10.9327 6.66699 11.3327V12.666C6.66691 13.0659 6.93363 13.3327 7.33363 13.3327Z" fill="black"/>
<path d="M7.33363 17.3327C7.73363 17.3327 8.00027 17.066 8.00027 16.666V15.3327C8.00027 14.9327 7.73363 14.666 7.33363 14.666C6.93363 14.666 6.66699 14.9327 6.66699 15.3327V16.666C6.66691 17.0659 6.93363 17.3327 7.33363 17.3327Z" fill="black"/>
<path d="M7.33363 21.3327C7.73363 21.3327 8.00027 21.066 8.00027 20.666V19.3327C8.00027 18.9327 7.73363 18.666 7.33363 18.666C6.93363 18.666 6.66699 18.9327 6.66699 19.3327V20.666C6.66691 21.0659 6.93363 21.3327 7.33363 21.3327Z" fill="black"/>
<path d="M11.3336 9.33266C11.7336 9.33266 12.0003 9.06602 12.0003 8.66602V7.33266C12.0003 6.93266 11.7336 6.66602 11.3336 6.66602C10.9336 6.66602 10.667 6.93266 10.667 7.33266V8.66602C10.6669 9.06594 10.9336 9.33266 11.3336 9.33266Z" fill="black"/>
<path d="M11.3336 5.33266C11.7336 5.33266 12.0003 5.06602 12.0003 4.66602V3.33266C12.0003 2.93266 11.7336 2.66602 11.3336 2.66602C10.9336 2.66602 10.667 2.93266 10.667 3.33266V4.66602C10.6669 5.06594 10.9336 5.33266 11.3336 5.33266Z" fill="black"/>
<path d="M11.3336 17.3327C11.7336 17.3327 12.0003 17.066 12.0003 16.666V15.3327C12.0003 14.9327 11.7336 14.666 11.3336 14.666C10.9336 14.666 10.667 14.9327 10.667 15.3327V16.666C10.6669 17.0659 10.9336 17.3327 11.3336 17.3327Z" fill="black"/>
<path d="M11.3336 13.3327C11.7336 13.3327 12.0003 13.066 12.0003 12.666V11.3327C12.0003 10.9327 11.7336 10.666 11.3336 10.666C10.9336 10.666 10.667 10.9327 10.667 11.3327V12.666C10.6669 13.0659 10.9336 13.3327 11.3336 13.3327Z" fill="black"/>
<path d="M11.3336 21.3327C11.7336 21.3327 12.0003 21.066 12.0003 20.666V19.3327C12.0003 18.9327 11.7336 18.666 11.3336 18.666C10.9336 18.666 10.667 18.9327 10.667 19.3327V20.666C10.6669 21.0659 10.9336 21.3327 11.3336 21.3327Z" fill="black"/>
<path d="M11.3336 25.3327C11.7336 25.3327 12.0003 25.066 12.0003 24.666V23.3327C12.0003 22.9327 11.7336 22.666 11.3336 22.666C10.9336 22.666 10.667 22.9327 10.667 23.3327V24.666C10.6669 25.0659 10.9336 25.3327 11.3336 25.3327Z" fill="black"/>
<path d="M11.3336 29.3327C11.7336 29.3327 12.0003 29.066 12.0003 28.666V27.3327C12.0003 26.9327 11.7336 26.666 11.3336 26.666C10.9336 26.666 10.667 26.9327 10.667 27.3327V28.666C10.6669 29.0659 10.9336 29.3327 11.3336 29.3327Z" fill="black"/>
<path d="M15.3336 13.3327C15.7336 13.3327 16.0003 13.066 16.0003 12.666V11.3327C16.0003 10.9327 15.7336 10.666 15.3336 10.666C14.9336 10.666 14.667 10.9327 14.667 11.3327V12.666C14.6669 13.0659 14.9336 13.3327 15.3336 13.3327Z" fill="black"/>
<path d="M15.3336 9.33266C15.7336 9.33266 16.0003 9.06602 16.0003 8.66602V7.33266C16.0003 6.93266 15.7336 6.66602 15.3336 6.66602C14.9336 6.66602 14.667 6.93266 14.667 7.33266V8.66602C14.6669 9.06594 14.9336 9.33266 15.3336 9.33266Z" fill="black"/>
<path d="M15.3336 5.33266C15.7336 5.33266 16.0003 5.06602 16.0003 4.66602V3.33266C16.0003 2.93266 15.7336 2.66602 15.3336 2.66602C14.9336 2.66602 14.667 2.93266 14.667 3.33266V4.66602C14.6669 5.06594 14.9336 5.33266 15.3336 5.33266Z" fill="black"/>
<path d="M15.3336 29.3327C15.7336 29.3327 16.0003 29.066 16.0003 28.666V27.3327C16.0003 26.9327 15.7336 26.666 15.3336 26.666C14.9336 26.666 14.667 26.9327 14.667 27.3327V28.666C14.6669 29.0659 14.9336 29.3327 15.3336 29.3327Z" fill="black"/>
<path d="M15.3336 25.3327C15.7336 25.3327 16.0003 25.066 16.0003 24.666V23.3327C16.0003 22.9327 15.7336 22.666 15.3336 22.666C14.9336 22.666 14.667 22.9327 14.667 23.3327V24.666C14.6669 25.0659 14.9336 25.3327 15.3336 25.3327Z" fill="black"/>
<path d="M15.3336 21.3327C15.7336 21.3327 16.0003 21.066 16.0003 20.666V19.3327C16.0003 18.9327 15.7336 18.666 15.3336 18.666C14.9336 18.666 14.667 18.9327 14.667 19.3327V20.666C14.6669 21.0659 14.9336 21.3327 15.3336 21.3327Z" fill="black"/>
<path d="M15.3336 17.3327C15.7336 17.3327 16.0003 17.066 16.0003 16.666V15.3327C16.0003 14.9327 15.7336 14.666 15.3336 14.666C14.9336 14.666 14.667 14.9327 14.667 15.3327V16.666C14.6669 17.0659 14.9336 17.3327 15.3336 17.3327Z" fill="black"/>
<path d="M19.3336 9.33266C19.7336 9.33266 20.0003 9.06602 20.0003 8.66602V7.33266C20.0003 6.93266 19.7336 6.66602 19.3336 6.66602C18.9336 6.66602 18.667 6.93266 18.667 7.33266V8.66602C18.6669 9.06594 18.9336 9.33266 19.3336 9.33266Z" fill="black"/>
<path d="M19.3336 5.33266C19.7336 5.33266 20.0003 5.06602 20.0003 4.66602V3.33266C20.0003 2.93266 19.7336 2.66602 19.3336 2.66602C18.9336 2.66602 18.667 2.93266 18.667 3.33266V4.66602C18.6669 5.06594 18.9336 5.33266 19.3336 5.33266Z" fill="black"/>
</svg>
