<svg width="14" height="15" viewBox="0 0 14 15" fill="none" xmlns="http://www.w3.org/2000/svg">
<path d="M11.2968 3.15808C11.8033 2.98731 12.1931 2.79346 12.4362 2.60077C12.6031 2.46923 12.6555 2.38269 12.6555 2.34808C12.6555 2.31346 12.6031 2.22692 12.4362 2.09423C12.1931 1.90269 11.8045 1.70885 11.2968 1.53808C10.1859 1.16538 8.6484 0.947308 7.00002 0.947308C5.35164 0.947308 3.81411 1.16654 2.70327 1.53808C2.19671 1.70885 1.80697 1.90269 1.56382 2.09538C1.39696 2.22692 1.34451 2.31231 1.34451 2.34808C1.34451 2.38269 1.39696 2.46923 1.56382 2.60192C1.80697 2.79346 2.19552 2.98731 2.70327 3.15808C3.81411 3.53077 5.35164 3.74885 7.00002 3.74885C8.6484 3.74885 10.1859 3.52961 11.2968 3.15808ZM0.980989 7.04308V9.075C1.59958 9.70615 3.26345 10.4746 5.29562 10.7042C8.27534 11.04 11.0965 10.41 13.0119 9.15346L13.0191 7.07654C10.9785 8.23846 8.10609 8.72654 5.20146 8.39769C3.4029 8.19577 1.87133 7.67077 0.979797 7.04308H0.980989ZM0.980989 5.77385C1.60077 6.40385 3.26345 7.17231 5.29562 7.40077C8.2813 7.73769 11.1085 7.10538 13.0238 5.84308L13.0322 3.54C11.8129 4.23231 9.56854 4.69615 7.00002 4.69615C4.44223 4.69615 2.20506 4.23461 0.984565 3.54808C0.982964 4.28961 0.981772 5.03115 0.980989 5.77269V5.77385ZM0.983373 10.3465L0.98814 12.0519L0.970262 11.9342C1.33498 13.1019 3.66393 14.04 7.13232 14.04C9.02146 14.04 10.5018 13.7631 11.64 13.2185C11.9595 13.065 12.2026 12.9358 12.441 12.7673C12.5995 12.6554 12.7032 12.5873 12.8736 12.4419C13.05 12.2908 13.3218 12.3277 13.4791 12.4996C13.6353 12.6692 13.6555 12.9462 13.4791 13.0985C13.2884 13.26 13.199 13.3327 13.0131 13.4642C12.7354 13.6604 12.4195 13.8646 12.0548 14.04C10.7986 14.6412 9.51848 15 7.13232 15C3.15738 15 0.529264 13.7827 0.0262871 12.1731L0.0084088 12.1154V12.0554L0.00125747 9.61961C-0.00158917 7.22346 0.000397318 4.8273 0.00721691 2.43115C0.00419535 2.40356 0.00260417 2.37583 0.00244936 2.34808C0.00364123 1.05115 3.13592 0 7.00002 0C10.8641 0 13.9964 1.05115 13.9964 2.34808C13.9968 2.39874 13.9924 2.44933 13.9833 2.49923C13.9948 2.53549 14.0004 2.57324 14 2.61115L13.9726 10.8208C13.9714 11.0492 13.7544 11.2338 13.4875 11.2327C13.2205 11.2327 13.0048 11.0469 13.0059 10.8173V10.3858C10.9678 11.5408 8.10013 12.0277 5.20146 11.7012C3.40529 11.4981 1.87371 10.9742 0.982181 10.3465H0.983373ZM11.8772 5.75654C11.7662 5.75746 11.6592 5.71571 11.5799 5.64044C11.5006 5.56517 11.4554 5.46252 11.4541 5.355C11.4541 5.13346 11.6448 4.95462 11.8784 4.95462C12.112 4.95462 12.3027 5.13346 12.3027 5.355C12.3027 5.57769 12.112 5.75654 11.8784 5.75654H11.8772ZM11.8772 9.06C11.7662 9.06092 11.6592 9.01917 11.5799 8.9439C11.5006 8.86863 11.4554 8.76598 11.4541 8.65846C11.4541 8.43692 11.6448 8.25692 11.8784 8.25692C12.112 8.25692 12.3027 8.43692 12.3027 8.65846C12.3027 8.88 12.112 9.06 11.8784 9.06H11.8772ZM11.8772 12.4062C11.8221 12.4066 11.7675 12.3966 11.7164 12.3766C11.6653 12.3566 11.6188 12.327 11.5795 12.2896C11.5402 12.2523 11.5089 12.2077 11.4874 12.1586C11.4659 12.1095 11.4546 12.0568 11.4541 12.0035C11.4541 11.7819 11.6448 11.6019 11.8784 11.6019C12.112 11.6019 12.3027 11.7819 12.3027 12.0035C12.3027 12.225 12.112 12.405 11.8784 12.405L11.8772 12.4062Z" fill="#841D5D"/>
</svg>
