<svg width="17" height="17" viewBox="0 0 17 17" fill="none" xmlns="http://www.w3.org/2000/svg">
<path fill-rule="evenodd" clip-rule="evenodd" d="M3.86364 1.54544V0.772718C3.86364 0.345961 4.20959 0 4.63635 0C5.06311 0 5.40907 0.345961 5.40907 0.772718V1.54544H6.94121C6.9494 1.54531 6.95759 1.54531 6.96586 1.54544H8.49993C8.9267 1.54544 9.27265 1.8914 9.27265 2.31816C9.27265 2.74491 8.9267 3.09087 8.49993 3.09087H7.60721C7.22387 5.04788 6.39907 6.85421 5.13945 8.50647C5.96554 9.42253 6.95991 10.2292 8.12486 10.9282C8.49081 11.1478 8.6095 11.6224 8.3899 11.9883C8.17037 12.3543 7.69569 12.4729 7.32973 12.2534C6.09941 11.5152 5.03317 10.6621 4.13308 9.69561C3.30068 10.5866 2.32991 11.4281 1.22191 12.2195C0.874643 12.4676 0.392035 12.3872 0.143993 12.0399C-0.104058 11.6926 -0.0236248 11.2101 0.323642 10.962C1.41258 10.1842 2.35116 9.36125 3.14084 8.49248C2.517 7.63461 2.00331 6.70216 1.60085 5.69601C1.44235 5.29977 1.63508 4.85007 2.03131 4.69158C2.42755 4.53308 2.87725 4.72581 3.03574 5.12205C3.33726 5.87584 3.70918 6.5824 4.15217 7.24215C5.07295 5.95167 5.69688 4.56862 6.02815 3.09087H0.772775C0.346012 3.09087 5.8958e-05 2.74491 5.8958e-05 2.31816C5.8958e-05 1.8914 0.346012 1.54544 0.772775 1.54544H3.86364ZM14.2104 13.1362H10.5166L9.22111 16.5045C9.06796 16.9028 8.62086 17.1015 8.22253 16.9483C7.82419 16.7951 7.62553 16.348 7.77876 15.9497L11.6423 5.90436C11.8963 5.24392 12.8307 5.24392 13.0847 5.90436L16.9483 15.9497C17.1015 16.348 16.9028 16.7951 16.5045 16.9483C16.1062 17.1015 15.6591 16.9028 15.5059 16.5045L14.2104 13.1362ZM13.616 11.5908L12.3635 8.33431L11.111 11.5908H13.616Z" fill="#841D5D"/>
</svg>
