<svg width="23" height="21" viewBox="0 0 23 21" fill="none" xmlns="http://www.w3.org/2000/svg">
<path d="M11.7094 2.38025L10.8718 2.77822C10.4775 2.96554 10.2803 3.40202 10.3785 3.81052C9.88833 4.43775 7.4424 7.43133 3.54668 9.95258C3.32791 10.0942 3.18778 10.3162 3.14327 10.5568L2.412 10.9042C1.95975 11.1191 1.76663 11.6618 1.9815 12.1141L2.77741 13.7894C2.99228 14.2416 3.535 14.4347 3.98726 14.2199L4.7186 13.8724C4.93318 13.9899 5.19387 14.0215 5.44178 13.9414C5.48617 13.9271 5.53038 13.9131 5.57469 13.8991L9.06047 17.9181C9.32674 18.225 9.76905 18.3177 10.1361 18.1433L11.6652 17.4168C11.6655 17.4167 11.6658 17.4166 11.6661 17.4165C11.6664 17.4163 11.6667 17.4161 11.667 17.4159L11.9454 17.2837C12.0899 17.215 12.1515 17.0421 12.0828 16.8976C12.0141 16.753 11.8412 16.6915 11.6966 16.7602L11.6164 16.7983L8.45086 13.1487C11.5151 12.5131 13.9113 12.5129 14.5189 12.5252C14.7735 12.8594 15.2365 12.9822 15.6307 12.7949L16.4683 12.397C16.9206 12.1821 17.1137 11.6394 16.8989 11.1871L12.9193 2.81077C12.7044 2.35851 12.1617 2.16539 11.7094 2.38025ZM4.31441 13.4227L3.73853 13.6963C3.57494 13.7741 3.37862 13.7042 3.3009 13.5406L2.50499 11.8653C2.42727 11.7018 2.49713 11.5054 2.66071 11.4277L3.2366 11.1541L4.31441 13.4227ZM11.073 17.0564L9.88739 17.6197C9.75462 17.6828 9.59467 17.6493 9.49836 17.5382L6.18128 13.714C6.73587 13.5517 7.27916 13.4113 7.80603 13.2898L11.073 17.0564ZM16.3753 11.4359C16.453 11.5995 16.3832 11.7958 16.2196 11.8735L15.382 12.2714C15.2184 12.3492 15.0221 12.2793 14.9444 12.1157L14.9442 12.1154C14.9439 12.1148 14.9436 12.1142 14.9433 12.1136L12.0261 5.97317C11.9574 5.82862 11.7845 5.76707 11.6399 5.83576C11.4953 5.90445 11.4338 6.07732 11.5025 6.2219L14.2206 11.943C12.9575 11.9433 9.33665 12.0732 5.26347 13.3899C5.10382 13.4415 4.9304 13.3688 4.86005 13.2207L3.73794 10.8588C3.66759 10.7107 3.72076 10.5304 3.86159 10.4392C7.45535 8.11339 9.84336 5.38851 10.6415 4.40952L10.9719 5.10504C11.0406 5.24959 11.2135 5.31114 11.358 5.24244C11.5026 5.17375 11.5641 5.00089 11.4954 4.85631L10.9656 3.74118C10.9655 3.74085 10.9653 3.74053 10.9652 3.7402L10.9648 3.73935C10.8871 3.57577 10.9569 3.37945 11.1205 3.30173L11.9581 2.90378C12.1217 2.82606 12.318 2.89592 12.3957 3.0595L16.3753 11.4359Z" fill="#841D5D"/>
<path d="M18.7114 4.87332L15.9192 6.19985C15.7747 6.26853 15.7131 6.44141 15.7818 6.58599C15.8505 6.73054 16.0234 6.79208 16.168 6.72339L18.9601 5.39686C19.1047 5.32819 19.1662 5.15531 19.0975 5.01073C19.0288 4.86614 18.856 4.80463 18.7114 4.87332Z" fill="#841D5D"/>
<path d="M16.8634 2.52172C16.7433 2.41588 16.5602 2.42748 16.4544 2.54754L16.232 2.79988C16.1262 2.91994 16.1377 3.10309 16.2578 3.20888C16.3475 3.28793 16.4724 3.30144 16.5739 3.25321C16.6083 3.23686 16.6401 3.21342 16.6668 3.18306L16.8892 2.93072C16.995 2.81066 16.9835 2.62756 16.8634 2.52172Z" fill="#841D5D"/>
<path d="M15.9733 3.52987C15.8532 3.42406 15.6701 3.43563 15.5643 3.55569L14.8972 4.31265C14.7914 4.43272 14.8029 4.61586 14.923 4.72165C15.0127 4.80067 15.1376 4.81421 15.2391 4.76598C15.2736 4.74963 15.3053 4.72619 15.332 4.69583L15.9991 3.93887C16.1049 3.81881 16.0934 3.63566 15.9733 3.52987Z" fill="#841D5D"/>
<path d="M19.3136 8.036L18.9766 8.04904C18.8167 8.05519 18.692 8.18988 18.6982 8.34979C18.7044 8.50971 18.839 8.63436 18.9989 8.62818L19.336 8.61514C19.3764 8.61358 19.4146 8.60379 19.449 8.58743C19.5506 8.53917 19.619 8.43383 19.6144 8.31435C19.6082 8.15446 19.4736 8.02979 19.3136 8.036Z" fill="#841D5D"/>
<path d="M17.9674 8.08428L16.9597 8.12323C16.7998 8.12944 16.6751 8.26409 16.6813 8.42399C16.6875 8.58393 16.8222 8.70855 16.9821 8.70237L17.9898 8.66342C18.0302 8.66186 18.0684 8.65207 18.1029 8.63572C18.2044 8.58746 18.2728 8.48211 18.2682 8.36267C18.262 8.20274 18.1273 8.07811 17.9674 8.08428Z" fill="#841D5D"/>
</svg>
