<svg width="18" height="18" viewBox="0 0 18 18" fill="none" xmlns="http://www.w3.org/2000/svg">
<path d="M16.0714 12.9411V10.2802C16.0714 9.93937 15.936 9.61252 15.6948 9.37153C15.4537 9.13054 15.1267 8.99515 14.7857 8.99515H9.64286V6.42511H10.9286C11.2694 6.42472 11.5962 6.28921 11.8373 6.0483C12.0783 5.8074 12.2139 5.48078 12.2143 5.14009V1.28502C12.2139 0.944333 12.0783 0.61771 11.8373 0.376806C11.5962 0.135903 11.2694 0.000391118 10.9286 0H7.07143C6.73054 0.000340195 6.40371 0.135835 6.16267 0.37675C5.92163 0.617665 5.78606 0.944317 5.78572 1.28502V5.14009C5.78606 5.48079 5.92163 5.80745 6.16267 6.04836C6.40371 6.28927 6.73054 6.42477 7.07143 6.42511H8.35714V8.99515H3.21429C2.8733 8.99515 2.54627 9.13054 2.30515 9.37153C2.06403 9.61252 1.92858 9.93937 1.92858 10.2802V12.9415C1.32258 13.0979 0.794455 13.4698 0.44319 13.9875C0.0919257 14.5053 -0.0583608 15.1332 0.0205013 15.7538C0.0993634 16.3743 0.40196 16.9448 0.87157 17.3583C1.34118 17.7719 1.94556 18 2.57143 18C3.1973 18 3.80169 17.7719 4.2713 17.3583C4.74091 16.9448 5.0435 16.3743 5.12236 15.7538C5.20123 15.1332 5.05094 14.5053 4.69968 13.9875C4.34841 13.4698 3.82028 13.0979 3.21429 12.9415V10.2802H8.35714V12.9415C7.75115 13.0978 7.22302 13.4697 6.87176 13.9875C6.52049 14.5052 6.37021 15.1332 6.44907 15.7537C6.52793 16.3743 6.83053 16.9448 7.30014 17.3583C7.76975 17.7718 8.37413 17.9999 9 17.9999C9.62587 17.9999 10.2303 17.7718 10.6999 17.3583C11.1695 16.9448 11.4721 16.3743 11.5509 15.7537C11.6298 15.1332 11.4795 14.5052 11.1282 13.9875C10.777 13.4697 10.2489 13.0978 9.64286 12.9415V10.2802H14.7857V12.9411C14.1797 13.0975 13.6516 13.4694 13.3003 13.9871C12.9491 14.5048 12.7988 15.1328 12.8776 15.7533C12.9565 16.3739 13.2591 16.9444 13.7287 17.3579C14.1983 17.7714 14.8027 17.9995 15.4286 17.9995C16.0544 17.9995 16.6588 17.7714 17.1284 17.3579C17.598 16.9444 17.9006 16.3739 17.9795 15.7533C18.0584 15.1328 17.9081 14.5048 17.5568 13.9871C17.2055 13.4694 16.6774 13.0975 16.0714 12.9411ZM7.07143 1.28502H10.9286L10.9292 5.14009H7.07143V1.28502ZM3.85715 15.4203C3.85715 15.6744 3.78174 15.9229 3.64046 16.1342C3.49919 16.3455 3.29839 16.5102 3.06345 16.6075C2.82852 16.7047 2.57001 16.7302 2.3206 16.6806C2.0712 16.631 1.84211 16.5086 1.6623 16.3289C1.48249 16.1492 1.36003 15.9202 1.31042 15.671C1.26081 15.4217 1.28628 15.1633 1.38359 14.9285C1.4809 14.6937 1.64569 14.493 1.85713 14.3518C2.06856 14.2106 2.31714 14.1352 2.57143 14.1352C2.91231 14.1356 3.2391 14.2711 3.48014 14.512C3.72117 14.753 3.85676 15.0796 3.85715 15.4203ZM10.2857 15.4203C10.2857 15.6744 10.2103 15.9229 10.069 16.1342C9.92776 16.3455 9.72696 16.5102 9.49202 16.6075C9.25709 16.7047 8.99857 16.7302 8.74917 16.6806C8.49977 16.631 8.27067 16.5086 8.09086 16.3289C7.91105 16.1492 7.7886 15.9202 7.73899 15.671C7.68938 15.4217 7.71484 15.1633 7.81216 14.9285C7.90947 14.6937 8.07426 14.493 8.2857 14.3518C8.49713 14.2106 8.74571 14.1352 9 14.1352C9.34085 14.1357 9.66761 14.2712 9.90863 14.5121C10.1496 14.753 10.2853 15.0796 10.2857 15.4203ZM15.4286 16.7053C15.1743 16.7053 14.9257 16.6299 14.7143 16.4887C14.5028 16.3475 14.338 16.1468 14.2407 15.912C14.1434 15.6772 14.1179 15.4188 14.1676 15.1696C14.2172 14.9203 14.3396 14.6913 14.5194 14.5116C14.6992 14.3319 14.9283 14.2095 15.1777 14.1599C15.4271 14.1104 15.6857 14.1358 15.9206 14.2331C16.1555 14.3303 16.3563 14.495 16.4976 14.7063C16.6389 14.9177 16.7143 15.1661 16.7143 15.4203C16.7139 15.761 16.5783 16.0876 16.3373 16.3285C16.0962 16.5694 15.7694 16.7049 15.4286 16.7053Z" fill="#841D5D"/>
</svg>
