<svg width="17" height="21" viewBox="0 0 17 21" fill="none" xmlns="http://www.w3.org/2000/svg">
<path d="M10.1696 9.89837C10.5564 9.84038 10.8231 9.4797 10.765 9.09276C10.707 8.70592 10.3463 8.4394 9.95947 8.49739L10.1696 9.89837ZM13.8096 7.91987C13.4227 7.9779 13.1561 8.33853 13.2142 8.72547C13.2722 9.11231 13.6329 9.37893 14.0197 9.32084L13.8096 7.91987ZM6.85161 12.0416V12.7499H7.54823L7.55984 12.0534L6.85161 12.0416ZM0.708328 2.36109C0.317133 2.36109 0 2.67823 0 3.06942C0 3.46062 0.317133 3.77775 0.708328 3.77775V2.36109ZM4.9583 1.41666C5.34948 1.41666 5.66662 1.09952 5.66662 0.70833C5.66662 0.317134 5.34948 1.53177e-06 4.9583 1.53177e-06V1.41666ZM8.73605 1.53177e-06C8.34486 1.53177e-06 8.02772 0.317134 8.02772 0.70833C8.02772 1.09952 8.34486 1.41666 8.73605 1.41666V1.53177e-06ZM10.1527 4.72219H3.54164V6.13884H10.1527V4.72219ZM3.54164 4.72219C3.08726 4.72219 2.79383 4.72151 2.57147 4.70135C2.35883 4.68209 2.28163 4.64957 2.24304 4.62729L1.53471 5.85415C1.82485 6.02167 2.1327 6.08405 2.44359 6.11223C2.74474 6.13952 3.11333 6.13884 3.54164 6.13884V4.72219ZM0.472219 3.06942C0.472219 3.49773 0.471539 3.86632 0.498833 4.16747C0.527015 4.47836 0.589395 4.78621 0.75691 5.07635L1.98377 4.36802C1.96149 4.32943 1.92898 4.25224 1.90971 4.0396C1.88955 3.81723 1.88887 3.5238 1.88887 3.06942H0.472219ZM2.24304 4.62729C2.13536 4.56512 2.04594 4.4757 1.98377 4.36802L0.75691 5.07635C0.943417 5.39939 1.21168 5.66765 1.53471 5.85415L2.24304 4.62729ZM11.8055 3.06942C11.8055 3.5238 11.8048 3.81723 11.7846 4.0396C11.7653 4.25224 11.7328 4.32943 11.7106 4.36802L12.9375 5.07635C13.1049 4.78621 13.1673 4.47836 13.1955 4.16747C13.2228 3.86632 13.2221 3.49773 13.2221 3.06942H11.8055ZM10.1527 6.13884C10.581 6.13884 10.9496 6.13952 11.2508 6.11223C11.5616 6.08405 11.8695 6.02167 12.1596 5.85415L11.4513 4.62729C11.4127 4.64957 11.3355 4.68209 11.1229 4.70135C10.9005 4.72151 10.6071 4.72219 10.1527 4.72219V6.13884ZM11.7106 4.36802C11.6484 4.4757 11.559 4.56512 11.4513 4.62729L12.1596 5.85415C12.4826 5.66765 12.7509 5.39939 12.9375 5.07635L11.7106 4.36802ZM10.1527 1.41666C10.6071 1.41666 10.9005 1.41734 11.1229 1.43749C11.3355 1.45676 11.4127 1.48928 11.4513 1.51155L12.1596 0.284693C11.8695 0.117178 11.5616 0.0547978 11.2508 0.0266158C10.9496 -0.000678459 10.581 1.53177e-06 10.1527 1.53177e-06V1.41666ZM13.2221 3.06942C13.2221 2.64111 13.2228 2.27253 13.1955 1.97137C13.1673 1.66048 13.1049 1.35263 12.9375 1.06249L11.7106 1.77082C11.7328 1.80941 11.7653 1.88661 11.7846 2.09925C11.8048 2.32162 11.8055 2.61504 11.8055 3.06942H13.2221ZM11.4513 1.51155C11.559 1.57373 11.6484 1.66315 11.7106 1.77082L12.9375 1.06249C12.7509 0.739458 12.4826 0.4712 12.1596 0.284693L11.4513 1.51155ZM3.54164 1.53177e-06C3.11333 1.53177e-06 2.74474 -0.000678459 2.44359 0.0266158C2.1327 0.0547978 1.82485 0.117178 1.53471 0.284693L2.24304 1.51155C2.28163 1.48928 2.35883 1.45676 2.57147 1.43749C2.79383 1.41734 3.08726 1.41666 3.54164 1.41666V1.53177e-06ZM1.88887 3.06942C1.88887 2.61504 1.88955 2.32162 1.90971 2.09925C1.92898 1.88661 1.96149 1.80941 1.98377 1.77082L0.75691 1.06249C0.589395 1.35263 0.527015 1.66048 0.498833 1.97137C0.471539 2.27253 0.472219 2.64111 0.472219 3.06942H1.88887ZM1.53471 0.284693C1.21168 0.4712 0.943417 0.739458 0.75691 1.06249L1.98377 1.77082C2.04594 1.66315 2.13536 1.57373 2.24304 1.51155L1.53471 0.284693ZM5.66662 17.7082V13.9305H4.24997V17.7082H5.66662ZM8.02772 13.9305V17.7082H9.44437V13.9305H8.02772ZM8.02772 17.7082C8.02772 18.1734 8.02621 18.4511 7.99948 18.6501C7.9872 18.7413 7.97275 18.787 7.96425 18.8075C7.96236 18.8123 7.96076 18.8155 7.95981 18.8173C7.95887 18.819 7.95868 18.8195 7.95859 18.8196C7.95887 18.8193 7.95896 18.8191 7.95859 18.8196L8.96026 19.8213C9.25218 19.5295 9.35834 19.1746 9.40348 18.8389C9.44589 18.5235 9.44437 18.1334 9.44437 17.7082H8.02772ZM6.84717 20.3054C7.27236 20.3054 7.6625 20.3069 7.97785 20.2645C8.3136 20.2194 8.66842 20.1132 8.96026 19.8213L7.95859 18.8196C7.95811 18.82 7.95821 18.8199 7.95859 18.8196C7.95849 18.8197 7.95802 18.8199 7.95622 18.8208C7.95443 18.8218 7.95131 18.8234 7.9465 18.8253C7.926 18.8338 7.88029 18.8482 7.78906 18.8605C7.59007 18.8872 7.3124 18.8888 6.84717 18.8888V20.3054ZM6.84717 12.7499C7.3124 12.7499 7.59007 12.7514 7.78906 12.7781C7.88029 12.7904 7.926 12.8049 7.9465 12.8134C7.95131 12.8153 7.95443 12.8169 7.95622 12.8178C7.95802 12.8188 7.95849 12.8189 7.95859 12.819C7.95811 12.8187 7.95821 12.8188 7.95859 12.819L8.96026 11.8174C8.66842 11.5254 8.3136 11.4193 7.97785 11.3741C7.6625 11.3317 7.27236 11.3333 6.84717 11.3333V12.7499ZM9.44437 13.9305C9.44437 13.5053 9.44589 13.1151 9.40348 12.7998C9.35834 12.464 9.25218 12.1092 8.96026 11.8174L7.95859 12.819C7.95887 12.8193 7.95896 12.8195 7.95859 12.819C7.95868 12.8191 7.95887 12.8196 7.95981 12.8214C7.96076 12.8232 7.96236 12.8263 7.96425 12.8311C7.97275 12.8516 7.9872 12.8973 7.99948 12.9886C8.02621 13.1876 8.02772 13.4652 8.02772 13.9305H9.44437ZM5.66662 13.9305C5.66662 13.4652 5.66814 13.1876 5.69486 12.9886C5.70714 12.8973 5.72159 12.8516 5.73009 12.8311C5.73198 12.8263 5.73359 12.8232 5.73453 12.8214C5.73547 12.8196 5.73595 12.8188 5.73604 12.8187C5.73566 12.8191 5.73576 12.8189 5.73604 12.8187L4.73405 11.8174C4.4422 12.1092 4.336 12.464 4.29086 12.7998C4.24847 13.1151 4.24997 13.5053 4.24997 13.9305H5.66662ZM6.84717 11.3333C6.42199 11.3333 6.03184 11.3317 5.71649 11.3741C5.38074 11.4193 5.02592 11.5254 4.73405 11.8174L5.73604 12.8187C5.73632 12.8184 5.73651 12.8183 5.73604 12.8187C5.73614 12.8186 5.73632 12.8188 5.73812 12.8178C5.73991 12.8169 5.74303 12.8153 5.74785 12.8134C5.76834 12.8049 5.81405 12.7904 5.90528 12.7781C6.10428 12.7514 6.38194 12.7499 6.84717 12.7499V11.3333ZM4.24997 17.7082C4.24997 18.1334 4.24847 18.5235 4.29086 18.8389C4.336 19.1746 4.4422 19.5295 4.73405 19.8213L5.73576 18.8196C5.73538 18.8191 5.73547 18.8193 5.73576 18.8196C5.73566 18.8195 5.73547 18.819 5.73453 18.8173C5.73359 18.8155 5.73198 18.8123 5.73009 18.8075C5.72159 18.787 5.70714 18.7413 5.69486 18.6501C5.66814 18.4511 5.66662 18.1734 5.66662 17.7082H4.24997ZM6.84717 18.8888C6.38194 18.8888 6.10428 18.8872 5.90528 18.8605C5.81405 18.8482 5.76834 18.8338 5.74785 18.8253C5.74303 18.8234 5.73991 18.8218 5.73812 18.8208C5.73632 18.8199 5.73585 18.8197 5.73576 18.8196C5.73604 18.8199 5.73623 18.82 5.73576 18.8196L4.73405 19.8213C5.02592 20.1132 5.38074 20.2194 5.71649 20.2645C6.03184 20.3069 6.42199 20.3054 6.84717 20.3054V18.8888ZM13.5006 2.36109H12.5138V3.77775H13.5006V2.36109ZM16.9999 5.86033C16.9999 5.44942 17.0003 5.10736 16.9819 4.82721C16.9633 4.54107 16.9231 4.27047 16.8193 4.00685L15.5011 4.52582C15.5286 4.59572 15.5541 4.70196 15.5683 4.91937C15.5828 5.14275 15.5832 5.43092 15.5832 5.86033H16.9999ZM13.5006 3.77775C13.9301 3.77775 14.2182 3.7781 14.4416 3.79266C14.659 3.80684 14.7652 3.8323 14.8351 3.85982L15.3541 2.54164C15.0905 2.43786 14.8199 2.39766 14.5338 2.37901C14.2536 2.36075 13.9116 2.36109 13.5006 2.36109V3.77775ZM16.8193 4.00685C16.5553 3.33633 16.0246 2.80563 15.3541 2.54164L14.8351 3.85982C15.1399 3.97981 15.3812 4.22104 15.5011 4.52582L16.8193 4.00685ZM14.0197 9.32084C14.6889 9.22045 15.2017 9.15368 15.6214 8.9307L14.9566 7.67968C14.8044 7.76054 14.5917 7.80257 13.8096 7.91987L14.0197 9.32084ZM15.5832 5.86033C15.5832 6.65114 15.5732 6.86781 15.5158 7.03031L16.8516 7.5021C17.0099 7.05404 16.9999 6.53699 16.9999 5.86033H15.5832ZM15.6214 8.9307C16.1959 8.62545 16.6349 8.11559 16.8516 7.5021L15.5158 7.03031C15.4174 7.30917 15.2178 7.54091 14.9566 7.67968L15.6214 8.9307ZM9.95947 8.49739C9.21025 8.60978 8.58267 8.70261 8.08901 8.84145C7.57609 8.98566 7.12229 9.20099 6.76803 9.6123L7.84148 10.5368C7.94489 10.4168 8.10356 10.3089 8.47245 10.2052C8.86052 10.096 9.38403 10.0162 10.1696 9.89837L9.95947 8.49739ZM7.55984 12.0534C7.57665 11.047 7.67006 10.7359 7.84148 10.5368L6.76803 9.6123C6.2195 10.2493 6.15934 11.077 6.14338 12.0298L7.55984 12.0534ZM6.84717 12.7499H6.85161V11.3333H6.84717V12.7499ZM1.18055 2.36109H0.708328V3.77775H1.18055V2.36109ZM3.54164 1.41666H4.9583V1.53177e-06H3.54164V1.41666ZM8.73605 1.41666H10.1527V1.53177e-06H8.73605V1.41666Z" fill="#841D5D"/>
</svg>
