<svg width="51" height="38" viewBox="0 0 51 38" fill="none" xmlns="http://www.w3.org/2000/svg">
<path d="M45.375 6.70588C47.25 6.70588 48.75 5.21569 48.75 3.35294C48.75 1.4902 47.25 0 45.375 0C43.5 0 42 1.4902 42 3.35294C42 5.21569 43.5 6.70588 45.375 6.70588ZM45.375 0.745098C46.8 0.745098 48 1.93725 48 3.35294C48 4.76863 46.8 5.96078 45.375 5.96078C43.95 5.96078 42.75 4.76863 42.75 3.35294C42.75 1.93725 43.95 0.745098 45.375 0.745098ZM3.225 27.9412C3.75 27.7176 4.275 27.5686 4.875 27.5686C5.475 27.5686 6 27.7922 6.525 27.9412C6.975 28.0902 7.425 28.3137 7.875 28.3137C8.1 28.3137 8.25 28.4627 8.25 28.6863C8.25 28.9098 8.1 29.0588 7.875 29.0588C7.2 29.0588 6.75 28.8353 6.225 28.6863C5.775 28.5373 5.4 28.3137 4.875 28.3137C4.35 28.3137 3.975 28.4627 3.525 28.6863C3 28.8353 2.475 29.0588 1.875 29.0588C1.65 29.0588 1.5 28.9098 1.5 28.6863C1.5 28.4627 1.65 28.3137 1.875 28.3137C2.325 28.3137 2.775 28.1647 3.225 27.9412ZM3.75 25.7059C3.75 25.9294 3.6 26.0784 3.375 26.0784C2.85 26.0784 2.475 26.2275 2.025 26.451C1.5 26.6 0.975 26.8235 0.375 26.8235C0.15 26.8235 0 26.6745 0 26.451C0 26.2275 0.15 26.0784 0.375 26.0784C0.825 26.0784 1.275 25.9294 1.725 25.7059C2.25 25.4824 2.775 25.3333 3.375 25.3333C3.6 25.3333 3.75 25.4824 3.75 25.7059ZM1.725 31.6667C1.275 31.5176 0.9 31.2941 0.375 31.2941C0.15 31.2941 0 31.1451 0 30.9216C0 30.698 0.15 30.549 0.375 30.549C0.975 30.549 1.5 30.7726 2.025 30.9216C2.475 31.0706 2.925 31.2941 3.375 31.2941C3.825 31.2941 4.275 31.1451 4.725 30.9216C5.25 30.698 5.775 30.549 6.375 30.549C6.6 30.549 6.75 30.698 6.75 30.9216C6.75 31.1451 6.6 31.2941 6.375 31.2941C5.85 31.2941 5.475 31.4431 5.025 31.6667C4.5 31.8157 3.975 32.0392 3.375 32.0392C2.7 32.0392 2.25 31.8157 1.725 31.6667ZM17.25 36.8824C17.25 37.1059 17.1 37.2549 16.875 37.2549C16.35 37.2549 15.975 37.4039 15.525 37.6275C15 37.7765 14.475 38 13.875 38C13.2 38 12.75 37.7765 12.225 37.6275C11.775 37.4784 11.4 37.2549 10.875 37.2549C10.35 37.2549 9.975 37.4039 9.525 37.6275C9 37.7765 8.475 38 7.875 38C7.2 38 6.75 37.7765 6.225 37.6275C5.775 37.4784 5.4 37.2549 4.875 37.2549C4.65 37.2549 4.5 37.1059 4.5 36.8824C4.5 36.6588 4.65 36.5098 4.875 36.5098C5.475 36.5098 6 36.7333 6.525 36.8824C6.975 37.0314 7.425 37.2549 7.875 37.2549C8.325 37.2549 8.775 37.1059 9.225 36.8824C9.75 36.6588 10.275 36.5098 10.875 36.5098C11.475 36.5098 12 36.7333 12.525 36.8824C12.975 37.0314 13.425 37.2549 13.875 37.2549C14.325 37.2549 14.775 37.1059 15.225 36.8824C15.75 36.6588 16.275 36.5098 16.875 36.5098C17.1 36.5098 17.25 36.6588 17.25 36.8824ZM46.5 27.6431V20.4902C46.5 20.3412 46.425 20.2667 46.35 20.1922C46.275 20.1176 46.125 20.1176 46.05 20.1176L32.7 23.8431L20.025 19.3725C19.875 19.298 19.8 19.3725 19.65 19.4471C19.575 19.5216 19.5 19.5961 19.5 19.7451V26.6745L18 26.1529V19C18 18.851 17.925 18.702 17.775 18.6275L15.75 17.9569V14.1569L20.85 15.7216C18.9 16.2431 17.625 16.3176 17.55 16.3176C17.4 16.3176 17.25 16.4667 17.175 16.6157C17.1 16.7647 17.25 16.9882 17.4 16.9882L32.4 22.2039C32.475 22.2039 32.475 22.2039 32.55 22.2039H32.625L48.375 17.7333C48.525 17.6588 48.675 17.5098 48.675 17.3608C48.675 17.2118 48.525 17.0627 48.375 16.9882C48.375 16.9882 48.225 16.9882 47.925 16.9137V15.1255C47.925 14.902 47.775 14.7529 47.55 14.7529C47.325 14.7529 47.25 15.051 47.25 15.2745V16.9137C44.55 16.3176 37.725 14.1569 33.975 8.04706C34.275 7.82353 34.5 7.52549 34.5 7.07843C34.5 6.55686 34.2 6.18431 33.75 6.03529V4.09804C33.75 3.87451 33.6 3.72549 33.375 3.72549C33.15 3.72549 33 3.87451 33 4.09804V6.03529C32.55 6.18431 32.25 6.63137 32.25 7.07843C32.25 7.45098 32.475 7.82353 32.775 8.04706C31.95 9.23921 31.05 10.2824 30 11.1765C29.325 10.8784 26.1 9.31373 24.75 7.00392V5.58824C24.75 5.36471 24.6 5.21569 24.375 5.21569C24.15 5.21569 24 5.36471 24 5.58824V6.92941C20.4 12.5176 13.2 12.6667 13.125 12.6667C12.975 12.6667 12.75 12.8157 12.75 12.9647C12.75 13.1137 12.825 13.3373 12.975 13.3373L14.925 13.9333V18.1804C14.925 18.3294 15 18.4784 15.15 18.5529L17.175 19.2235V20.1176C16.125 20.2667 14.4 20.5647 12.6 20.8627C12.375 17.5098 11.475 12.2941 8.55 7.67451L11.325 9.53725C11.475 9.61176 11.625 9.61176 11.7 9.53725C11.85 9.46274 11.925 9.31373 11.925 9.23922C11.925 8.04706 11.325 6.8549 10.875 6.1098L12.9 6.63137C13.05 6.63137 13.125 6.63137 13.2 6.55686C13.275 6.48235 13.35 6.40784 13.35 6.25882C13.35 4.61961 11.85 3.57647 10.5 2.90588H12.225C12.375 2.90588 12.525 2.83137 12.6 2.68235C12.675 2.53333 12.675 2.38431 12.525 2.3098C12.6 2.23529 10.65 0 7.875 0C6.075 0 4.95 2.23529 4.65 2.98039C3.6 2.98039 0 3.50196 0 9.31373C0 9.46275 0.0750001 9.61176 0.225 9.68627C0.375 9.76078 0.525 9.68627 0.6 9.61176L2.25 7.97255C2.325 9.31373 2.625 11.698 3.9 12.5922C3.975 12.6667 4.125 12.6667 4.275 12.6667C4.425 12.5922 4.5 12.5176 4.5 12.4431L5.025 10.2824C5.625 11.102 6.675 12.4431 7.8 12.6667H7.875C7.95 12.6667 8.025 12.6667 8.1 12.5922C8.175 12.5176 8.25 12.3686 8.25 12.2941L7.65 7.74902C10.8 12.2941 11.7 17.8078 11.925 21.0863C8.25 21.8314 4.5 22.949 4.5 24.2157C4.5 25.3333 6.375 25.8549 8.475 26.3765C9.9 26.749 12 27.3451 12 27.9412C12 28.3137 11.55 28.5373 10.725 28.7608C9.975 28.9843 9 29.2824 9 30.1765C9 32.1882 22.65 38 32.625 38C40.95 38 51 34.1255 51 31.6667C51 29.4314 47.475 28.0157 46.5 27.6431ZM33.825 9.16471C37.65 14.7529 43.95 16.8392 46.8 17.5843L33.15 21.4588C33.375 19.9686 33.975 15.8706 33.825 9.16471ZM33.375 6.70588C33.6 6.70588 33.75 6.8549 33.75 7.07843C33.75 7.30196 33.6 7.45098 33.375 7.45098C33.15 7.45098 33 7.30196 33 7.07843C33 6.8549 33.15 6.70588 33.375 6.70588ZM24.825 8.3451C26.25 10.0588 28.425 11.251 29.4 11.698C27.9 12.8902 26.25 13.7843 24.75 14.4549C24.825 13.3373 24.9 10.9529 24.825 8.3451ZM33 8.94118C33.225 15.9451 32.55 20.1922 32.325 21.4588L19.2 16.9137C22.2 16.3922 28.95 14.5294 33 8.94118ZM15 13.1882C17.325 12.8157 21.375 11.6235 24.075 8.12157C24.225 11.1765 24 13.9333 24 14.6784C23.4 14.902 22.8 15.1255 22.275 15.2745L15 13.1882ZM7.125 5.96078C6.9 5.96078 6.75 6.1098 6.75 6.33333C6.75 6.40784 7.425 11.698 7.425 11.698C6.45 11.102 5.55 9.68627 5.175 9.16471C5.1 9.01569 4.95 8.94118 4.875 8.94118C4.875 8.94118 4.875 8.94118 4.8 8.94118C4.65 8.94118 4.5 9.0902 4.5 9.23922L3.9 11.549C3.15 10.3569 3 8.04706 3 7.07843C3 6.92941 2.925 6.78039 2.775 6.70588C2.625 6.63137 2.475 6.70588 2.4 6.78039L0.75 8.3451C1.125 4.02353 3.825 3.72549 4.725 3.72549C4.8 3.72549 4.8 3.72549 4.8 3.72549C4.95 3.72549 5.1 3.65098 5.175 3.50196C5.475 2.75686 6.525 0.745098 7.8 0.745098C9.375 0.745098 10.65 1.63922 11.4 2.23529H8.55C8.325 2.23529 8.175 2.38431 8.175 2.53333C8.175 2.75686 8.25 2.90588 8.475 2.90588C8.55 2.90588 12.075 3.87451 12.6 5.81176L10.2 5.21569C10.05 5.14118 9.9 5.21569 9.825 5.36471C9.75 5.51373 9.75 5.66274 9.825 5.81176C9.825 5.81176 10.875 7.15294 11.175 8.56863C11.175 8.56863 7.65 5.96078 7.125 5.96078ZM44.25 21.3843L45.75 20.9373V22.4275L44.25 22.8745V21.3843ZM44.25 23.6196L45.75 23.1725V27.6431L44.25 28.0902V23.6196ZM44.25 28.8353L45.75 28.3882V29.8784L44.25 30.3255V28.8353ZM42 21.9804L43.5 21.5333V23.0235L42 23.4706V21.9804ZM42 24.2157L43.5 23.7686V28.2392L42 28.6863V24.2157ZM42 29.4314L43.5 28.9843V30.4745L42 30.9216V29.4314ZM39.75 22.651L41.25 22.2039V23.6941L39.75 24.1412V22.651ZM39.75 24.8863L41.25 24.4392V28.9098L39.75 29.3569V24.8863ZM39.75 30.102L41.25 29.6549V31.1451L39.75 31.5922V30.102ZM37.5 23.2471L39 22.8V24.2902L37.5 24.7373V23.2471ZM37.5 25.4824L39 25.0353V29.5059L37.5 29.9529V25.4824ZM37.5 30.698L39 30.251V31.7412L37.5 32.1882V30.698ZM35.25 23.8431L36.75 23.3961V24.8863L35.25 25.3333V23.8431ZM35.25 26.0784L36.75 25.6314V30.102L35.25 30.549V26.0784ZM35.25 31.2941L36.75 30.8471V32.3373L35.25 32.7843V31.2941ZM33 24.5137L34.5 24.0667V25.5569L33 26.0039V24.5137ZM33 26.749L34.5 26.302V30.7725L33 31.2196V26.749ZM33 31.9647L34.5 31.5176V33.0078L33 33.4549V31.9647ZM30.75 23.9176L32.25 24.4392V25.8549L30.75 25.3333V23.9176ZM30.75 26.1529L32.25 26.6745V31.0706L30.75 30.549V26.1529ZM30.75 31.3686L32.25 31.8902V33.3804L30.75 32.8588V31.3686ZM22.5 21.0863L30 23.6941V30.3255L28.5 29.8039V26.8235C28.5 24.6627 26.925 23.8431 25.875 23.8431C24.975 23.8431 24 24.5137 24 26.0784V28.2392L22.5 27.7176V21.0863ZM30 31.1451V32.6353L28.5 32.1137V30.6235L30 31.1451ZM22.5 28.5373L24 29.0588V30.4L22.5 29.8784V28.5373ZM20.25 20.2667L21.75 20.7882V20.8627V22.2784L20.25 21.7569V20.2667ZM20.25 22.502L21.75 23.0235V27.4196L20.25 26.898V22.502ZM20.25 27.7176L21.75 28.2392V29.6549L20.25 29.1333V27.7176ZM32.625 37.2549C22.425 37.2549 9.975 31.3686 9.75 30.1765C9.75 29.8039 10.2 29.6549 10.95 29.4314C11.775 29.2078 12.75 28.9098 12.75 27.9412C12.75 26.6 15.375 26.0784 15.45 26.0784C15.675 26.0784 15.825 25.8549 15.75 25.6314C15.75 25.4078 15.525 25.2588 15.3 25.3333C15.225 25.3333 12.975 25.7804 12.225 27.0471C11.55 26.451 10.125 26.0784 8.625 25.7059C7.275 25.3333 5.175 24.8118 5.175 24.2157C5.175 23.6196 7.95 22.651 11.925 21.8314C12 23.2471 11.925 24.1412 11.925 24.2157C11.925 24.4392 12.075 24.5882 12.3 24.5882C12.525 24.5882 12.675 24.4392 12.675 24.2157C12.675 24.2157 12.75 23.1725 12.675 21.6824C14.1 21.3843 15.6 21.1608 17.175 20.9373V26.451C17.175 26.6 17.25 26.749 17.4 26.8235L19.425 27.4941V29.4314C19.425 29.5804 19.5 29.7294 19.65 29.8039L24.15 31.2941H24.225C24.45 31.2941 24.6 31.1451 24.6 30.9216V26.0784C24.6 25.0353 25.2 24.5882 25.725 24.5882C26.4 24.5882 27.6 25.0353 27.6 26.8235V32.4118C27.6 32.5608 27.675 32.7098 27.825 32.7098L32.325 34.2C32.4 34.2 32.4 34.2 32.475 34.2H32.55L46.05 30.4745C46.2 30.4 46.35 30.251 46.35 30.102V28.3882C47.7 28.9098 50.1 30.102 50.1 31.5922C50.25 33.1569 41.475 37.2549 32.625 37.2549ZM4.875 34.2745C4.35 34.2745 3.975 34.4235 3.525 34.6471C3 34.7961 2.475 35.0196 1.875 35.0196C1.65 35.0196 1.5 34.8706 1.5 34.6471C1.5 34.4235 1.65 34.2745 1.875 34.2745C2.325 34.2745 2.775 34.1255 3.225 33.902C3.75 33.6784 4.275 33.5294 4.875 33.5294C5.475 33.5294 6 33.7529 6.525 33.902C6.975 34.051 7.425 34.2745 7.875 34.2745C8.325 34.2745 8.775 34.1255 9.225 33.902C9.75 33.6784 10.275 33.5294 10.875 33.5294C11.1 33.5294 11.25 33.6784 11.25 33.902C11.25 34.1255 11.1 34.2745 10.875 34.2745C10.35 34.2745 9.975 34.4235 9.525 34.6471C9 34.7961 8.475 35.0196 7.875 35.0196C7.2 35.0196 6.75 34.7961 6.225 34.6471C5.775 34.4235 5.325 34.2745 4.875 34.2745Z" fill="black"/>
</svg>
