<svg width="13" height="13" viewBox="0 0 13 13" fill="none" xmlns="http://www.w3.org/2000/svg">
<path d="M0.24832 11.5527C-0.0827735 11.8838 -0.0827735 12.4206 0.24832 12.7517C0.579414 13.0828 1.11624 13.0828 1.44733 12.7517L0.24832 11.5527ZM7.09948 7.09948C7.43059 6.76838 7.43059 6.23165 7.09948 5.90054C6.76838 5.56944 6.23165 5.56944 5.90054 5.90054L7.09948 7.09948ZM5.90054 5.90054C5.56944 6.23165 5.56944 6.76838 5.90054 7.09948C6.23165 7.43059 6.76838 7.43059 7.09948 7.09948L5.90054 5.90054ZM12.7517 1.44733C13.0828 1.11624 13.0828 0.579414 12.7517 0.24832C12.4206 -0.0827735 11.8838 -0.0827735 11.5527 0.24832L12.7517 1.44733ZM7.09948 5.90054C6.76838 5.56944 6.23165 5.56944 5.90054 5.90054C5.56944 6.23165 5.56944 6.76838 5.90054 7.09948L7.09948 5.90054ZM11.5527 12.7517C11.8838 13.0828 12.4206 13.0828 12.7517 12.7517C13.0828 12.4206 13.0828 11.8838 12.7517 11.5527L11.5527 12.7517ZM5.90054 7.09948C6.23165 7.43059 6.76838 7.43059 7.09948 7.09948C7.43059 6.76838 7.43059 6.23165 7.09948 5.90054L5.90054 7.09948ZM1.44733 0.24832C1.11624 -0.0827735 0.579414 -0.0827735 0.24832 0.24832C-0.0827735 0.579414 -0.0827735 1.11624 0.24832 1.44733L1.44733 0.24832ZM1.44733 12.7517L7.09948 7.09948L5.90054 5.90054L0.24832 11.5527L1.44733 12.7517ZM7.09948 7.09948L12.7517 1.44733L11.5527 0.24832L5.90054 5.90054L7.09948 7.09948ZM5.90054 7.09948L11.5527 12.7517L12.7517 11.5527L7.09948 5.90054L5.90054 7.09948ZM7.09948 5.90054L1.44733 0.24832L0.24832 1.44733L5.90054 7.09948L7.09948 5.90054Z" fill="#9E9E9E"/>
</svg>
