<svg width="24" height="23" viewBox="0 0 24 23" fill="none" xmlns="http://www.w3.org/2000/svg">
<path d="M13.9231 21.9999H9.61543C5.55407 21.9999 3.5234 21.9999 2.2617 20.7382C1 19.4766 1 17.4458 1 13.3845V11.2307C1 7.16931 1 5.13864 2.2617 3.87693C3.5234 2.61523 5.55407 2.61523 9.61543 2.61523H13.9231C17.9845 2.61523 20.0152 2.61523 21.2768 3.87693C22.5386 5.13864 22.5386 7.16931 22.5386 11.2307V13.3845C22.5386 17.4458 22.5386 19.4766 21.2768 20.7382C20.5734 21.4417 19.631 21.7529 18.2309 21.8906" stroke="#801E5B" stroke-linecap="round"/>
<path d="M6.38477 2.61539V1" stroke="#801E5B" stroke-linecap="round"/>
<path d="M17.1538 2.61539V1" stroke="#801E5B" stroke-linecap="round"/>
<path d="M22.0001 8.00195H16.7501H10.4231M1 8.00195H5.1731" stroke="#801E5B" stroke-linecap="round"/>
<path d="M18.2305 16.614C18.2305 17.2088 17.7484 17.691 17.1536 17.691C16.5588 17.691 16.0767 17.2088 16.0767 16.614C16.0767 16.0193 16.5588 15.5371 17.1536 15.5371C17.7484 15.5371 18.2305 16.0193 18.2305 16.614Z" fill="#801E5B"/>
<path d="M18.2305 12.3074C18.2305 12.9022 17.7484 13.3843 17.1536 13.3843C16.5588 13.3843 16.0767 12.9022 16.0767 12.3074C16.0767 11.7126 16.5588 11.2305 17.1536 11.2305C17.7484 11.2305 18.2305 11.7126 18.2305 12.3074Z" fill="#801E5B"/>
<path d="M12.8462 16.614C12.8462 17.2088 12.3641 17.691 11.7693 17.691C11.1745 17.691 10.6924 17.2088 10.6924 16.614C10.6924 16.0193 11.1745 15.5371 11.7693 15.5371C12.3641 15.5371 12.8462 16.0193 12.8462 16.614Z" fill="#801E5B"/>
<path d="M12.8462 12.3074C12.8462 12.9022 12.3641 13.3843 11.7693 13.3843C11.1745 13.3843 10.6924 12.9022 10.6924 12.3074C10.6924 11.7126 11.1745 11.2305 11.7693 11.2305C12.3641 11.2305 12.8462 11.7126 12.8462 12.3074Z" fill="#801E5B"/>
<path d="M7.46147 16.614C7.46147 17.2088 6.97931 17.691 6.38455 17.691C5.78978 17.691 5.30762 17.2088 5.30762 16.614C5.30762 16.0193 5.78978 15.5371 6.38455 15.5371C6.97931 15.5371 7.46147 16.0193 7.46147 16.614Z" fill="#801E5B"/>
<path d="M7.46147 12.3074C7.46147 12.9022 6.97931 13.3843 6.38455 13.3843C5.78978 13.3843 5.30762 12.9022 5.30762 12.3074C5.30762 11.7126 5.78978 11.2305 6.38455 11.2305C6.97931 11.2305 7.46147 11.7126 7.46147 12.3074Z" fill="#801E5B"/>
</svg>
