<svg width="17" height="19" viewBox="0 0 17 19" fill="none" xmlns="http://www.w3.org/2000/svg">
<path d="M9.10584 0V2.55233L11.5474 1.083L12.1532 2.17867L9.10584 4.01533V8.40433L12.7409 6.20667V2.53333H13.9526V5.47833L16.067 4.199L16.6728 5.301L14.5584 6.574L17 8.04967L16.3942 9.14533L13.3468 7.30867L9.71169 9.5L13.3468 11.6913L16.3942 9.85467L17 10.9503L14.5584 12.426L16.6728 13.699L16.067 14.801L13.9526 13.5217V16.4667H12.7409V12.7933L9.10584 10.5957V14.9847L12.1532 16.8213L11.5474 17.917L9.10584 16.4477V19H7.89416V16.4477L5.4526 17.917L4.84676 16.8213L7.89416 14.9847V10.5957L4.25909 12.7933V16.4667H3.0474V13.5217L0.933001 14.801L0.327156 13.699L2.44155 12.426L0 10.9503L0.605845 9.85467L3.65324 11.6913L7.28831 9.5L3.65324 7.30867L0.605845 9.14533L0 8.04967L2.44155 6.574L0.327156 5.301L0.933001 4.199L3.0474 5.47833V2.53333H4.25909V6.20667L7.89416 8.40433V4.01533L4.84676 2.17867L5.4526 1.083L7.89416 2.55233V0H9.10584Z" fill="#787878"/>
</svg>
