<svg width="13" height="9" viewBox="0 0 13 9" fill="none" xmlns="http://www.w3.org/2000/svg">
<path d="M12.9989 7.52672C12.986 5.88375 11.8357 4.49604 10.2677 4.05308C10.9726 3.68786 11.4523 2.97466 11.4523 2.15638C11.4523 0.967347 10.4395 4.16874e-05 9.19466 4.16874e-05C7.94982 4.16874e-05 6.93701 0.967347 6.93701 2.15638C6.93701 2.97478 7.41691 3.68811 8.12201 4.05329C8.0044 4.08661 7.88924 4.1254 7.77657 4.16899C7.49281 3.78647 7.02595 3.53608 6.49877 3.53608C5.97182 3.53608 5.50522 3.7863 5.22137 4.16853C5.1091 4.12507 4.99424 4.08645 4.87698 4.05325C5.58208 3.68807 6.06199 2.97478 6.06199 2.15634C6.06199 0.967305 5.04922 0 3.80433 0C2.55949 0 1.54673 0.967305 1.54673 2.15634C1.54673 2.97457 2.02645 3.68782 2.73134 4.05308C1.15445 4.49855 0 5.89968 0 7.55487C0 7.78444 0.195305 7.97056 0.436219 7.97056H4.05676C4.0031 8.16664 3.97434 8.37231 3.97434 8.58428C3.97434 8.81386 4.16965 8.99997 4.41056 8.99997H8.58708C8.82804 8.99997 9.02417 8.81386 9.02417 8.58428C9.02417 8.57452 9.02382 8.5648 9.02316 8.55521C9.02067 8.35346 8.99204 8.15771 8.94088 7.97056H12.5629C12.8039 7.97056 13 7.78444 13 7.55487C12.9999 7.5454 12.9996 7.53598 12.9989 7.52672ZM9.19466 0.831371C9.95841 0.831371 10.5798 1.42579 10.5798 2.15638C10.5798 2.88694 9.95841 3.48127 9.19466 3.48127C8.43086 3.48127 7.80945 2.88694 7.80945 2.15638C7.8094 1.42579 8.43081 0.831371 9.19466 0.831371ZM6.49877 4.36745C6.88089 4.36745 7.19184 4.66509 7.19184 5.03098C7.19184 5.39678 6.88089 5.69438 6.49877 5.69438C6.11666 5.69438 5.80584 5.39678 5.80584 5.03098C5.80584 4.66505 6.11666 4.36745 6.49877 4.36745ZM3.80433 0.831371C4.56813 0.831371 5.18955 1.42579 5.18955 2.15638C5.18955 2.88694 4.56813 3.48127 3.80433 3.48127C3.04058 3.48127 2.41917 2.88694 2.41917 2.15638C2.41917 1.42579 3.04058 0.831371 3.80433 0.831371ZM0.904216 7.13919C1.11397 5.78147 2.3346 4.73642 3.80433 4.73642C4.20519 4.73642 4.58726 4.81438 4.93541 4.95511C4.9341 4.98026 4.9334 5.00553 4.9334 5.03098C4.9334 5.56466 5.22802 6.03361 5.66993 6.29814C5.18907 6.45893 4.77377 6.75495 4.47468 7.13919H0.904216ZM4.90403 8.16856C5.09443 7.49301 5.73721 6.99474 6.49877 6.99474C7.26034 6.99474 7.9032 7.49297 8.09361 8.16856H4.90403ZM8.52251 7.13919C8.22347 6.75508 7.80848 6.45885 7.32775 6.2981C7.76966 6.03357 8.06428 5.56462 8.06428 5.03098C8.06428 5.00566 8.06353 4.98059 8.06222 4.95561C8.41077 4.81454 8.79328 4.73638 9.19461 4.73638C10.6643 4.73638 11.8851 5.78147 12.0948 7.13914L8.52251 7.13919Z" fill="#851D5D"/>
</svg>
