<svg width="24" height="24" viewBox="0 0 24 24" fill="none" xmlns="http://www.w3.org/2000/svg">
<path d="M22.2857 6.80585e-06C22.7189 -0.00121326 23.1366 0.161645 23.4546 0.455829C23.7726 0.750014 23.9675 1.15371 24 1.58572V22.2857C24.0012 22.7189 23.8384 23.1366 23.5442 23.4546C23.25 23.7726 22.8463 23.9675 22.4143 24H1.71429C1.28106 24.0012 0.86343 23.8384 0.545392 23.5442C0.227355 23.25 0.0324977 22.8463 6.80585e-06 22.4143V1.71429C-0.00121326 1.28106 0.161645 0.86343 0.455829 0.545392C0.750014 0.227355 1.15371 0.0324977 1.58572 6.80585e-06H1.71429H22.2857ZM11.1429 9.42857H6V16.2857H1.71429V22.2857H22.2857V16.2857H19.7143V19.7143H11.1429V9.42857ZM8.57143 18C8.79876 18 9.01678 18.0903 9.17752 18.251C9.33827 18.4118 9.42857 18.6298 9.42857 18.8571C9.42857 19.0845 9.33827 19.3025 9.17752 19.4632C9.01678 19.624 8.79876 19.7143 8.57143 19.7143C8.3441 19.7143 8.12608 19.624 7.96534 19.4632C7.80459 19.3025 7.71429 19.0845 7.71429 18.8571C7.71429 18.6298 7.80459 18.4118 7.96534 18.251C8.12608 18.0903 8.3441 18 8.57143 18ZM22.2857 1.71429H1.71429V14.5714H4.28572V9.42857C4.2845 8.99534 4.44736 8.57771 4.74154 8.25967C5.03573 7.94164 5.43942 7.74678 5.87143 7.71429H11.1429C11.5761 7.71307 11.9937 7.87593 12.3118 8.17011C12.6298 8.4643 12.8247 8.86799 12.8571 9.3V18H18V16.2857C17.9988 15.8525 18.1616 15.4349 18.4558 15.1168C18.75 14.7988 19.1537 14.6039 19.5857 14.5714H22.2857V1.71429ZM8.57143 14.5714C8.79876 14.5714 9.01678 14.6617 9.17752 14.8225C9.33827 14.9832 9.42857 15.2012 9.42857 15.4286C9.42857 15.6559 9.33827 15.8739 9.17752 16.0347C9.01678 16.1954 8.79876 16.2857 8.57143 16.2857C8.3441 16.2857 8.12608 16.1954 7.96534 16.0347C7.80459 15.8739 7.71429 15.6559 7.71429 15.4286C7.71429 15.2012 7.80459 14.9832 7.96534 14.8225C8.12608 14.6617 8.3441 14.5714 8.57143 14.5714ZM8.57143 11.1429C8.79876 11.1429 9.01678 11.2332 9.17752 11.3939C9.33827 11.5547 9.42857 11.7727 9.42857 12C9.42857 12.2273 9.33827 12.4453 9.17752 12.6061C9.01678 12.7668 8.79876 12.8571 8.57143 12.8571C8.3441 12.8571 8.12608 12.7668 7.96534 12.6061C7.80459 12.4453 7.71429 12.2273 7.71429 12C7.71429 11.7727 7.80459 11.5547 7.96534 11.3939C8.12608 11.2332 8.3441 11.1429 8.57143 11.1429ZM17.1429 4.28572C17.8248 4.28572 18.4789 4.55664 18.9611 5.03887C19.4434 5.52111 19.7143 6.17516 19.7143 6.85715C19.7143 7.53913 19.4434 8.19318 18.9611 8.67542C18.4789 9.15766 17.8248 9.42857 17.1429 9.42857C16.4609 9.42857 15.8068 9.15766 15.3246 8.67542C14.8423 8.19318 14.5714 7.53913 14.5714 6.85715C14.5714 6.17516 14.8423 5.52111 15.3246 5.03887C15.8068 4.55664 16.4609 4.28572 17.1429 4.28572ZM17.1429 6C16.9155 6 16.6975 6.09031 16.5368 6.25106C16.376 6.4118 16.2857 6.62982 16.2857 6.85715C16.2857 7.08447 16.376 7.30249 16.5368 7.46324C16.6975 7.62398 16.9155 7.71429 17.1429 7.71429C17.3702 7.71429 17.5882 7.62398 17.7489 7.46324C17.9097 7.30249 18 7.08447 18 6.85715C18 6.62982 17.9097 6.4118 17.7489 6.25106C17.5882 6.09031 17.3702 6 17.1429 6Z" fill="#787878"/>
</svg>
