<svg width="28" height="22" viewBox="0 0 28 22" fill="none" xmlns="http://www.w3.org/2000/svg">
<path d="M12.6082 6.60731C12.3675 6.79022 12.3195 7.12872 12.4993 7.36493C12.6787 7.60248 13.0185 7.64698 13.2591 7.4646C13.4993 7.28169 13.5487 6.94186 13.3689 6.70565C13.1896 6.46848 12.8475 6.42483 12.6082 6.60731Z" fill="#A8A8A8"/>
<path d="M11.3236 8.25978C11.1442 8.02266 10.8031 7.97907 10.5629 8.16149C10.3222 8.34307 10.2742 8.68333 10.4536 8.91954C10.6334 9.1566 10.9732 9.20025 11.2134 9.01868C11.454 8.83582 11.503 8.49604 11.3236 8.25978Z" fill="#A8A8A8"/>
<path d="M9.27965 9.81041C9.09984 9.5742 8.75915 9.53055 8.51851 9.71213C8.2783 9.89503 8.23028 10.2344 8.40967 10.4719C8.58905 10.7082 8.92883 10.7518 9.16947 10.5694C9.40968 10.3874 9.45904 10.0475 9.27965 9.81041Z" fill="#A8A8A8"/>
<path d="M6.4757 11.2671C6.2342 11.4487 6.18613 11.7889 6.36599 12.0261C6.54538 12.2623 6.88601 12.3059 7.1258 12.123C7.36596 11.9415 7.41622 11.6008 7.2355 11.3645C7.05617 11.1283 6.715 11.0833 6.4757 11.2671Z" fill="#A8A8A8"/>
<path d="M4.43028 12.8203C4.19049 13.0032 4.14162 13.3426 4.32101 13.5788C4.50082 13.8164 4.8415 13.86 5.08081 13.6775C5.32145 13.4955 5.37038 13.1558 5.19099 12.9186C5.01161 12.6815 4.67049 12.6387 4.43028 12.8203Z" fill="#A8A8A8"/>
<path d="M11.8566 5.80383C12.1176 5.69583 12.2383 5.38599 12.1246 5.11141C12.0114 4.83684 11.7068 4.7011 11.445 4.80909C11.1832 4.91794 11.0638 5.22773 11.177 5.50231C11.2903 5.77688 11.5948 5.91177 11.8566 5.80383Z" fill="#A8A8A8"/>
<path d="M9.63005 6.72448C9.8923 6.61654 10.013 6.30536 9.89977 6.03212C9.78606 5.75711 9.4815 5.62266 9.21973 5.73065C8.95924 5.83864 8.83844 6.14844 8.95177 6.42301C9.0659 6.69759 9.36956 6.83247 9.63005 6.72448Z" fill="#A8A8A8"/>
<path d="M6.99187 6.64736C6.73005 6.75487 6.61064 7.06514 6.72391 7.34063C6.8381 7.61429 7.1417 7.75003 7.40352 7.64076C7.66444 7.53319 7.78519 7.22292 7.67191 6.94835C7.55858 6.67382 7.25364 6.53888 6.99187 6.64736Z" fill="#A8A8A8"/>
<path d="M4.76554 7.56933C4.50462 7.67732 4.38387 7.98711 4.49715 8.26169C4.61037 8.53765 4.91494 8.672 5.17671 8.56401C5.43853 8.45516 5.55837 8.14532 5.44515 7.87074C5.33192 7.59622 5.02736 7.46048 4.76554 7.56933Z" fill="#A8A8A8"/>
<path d="M2.53728 8.48798C2.27551 8.59598 2.15604 8.90662 2.26932 9.18034C2.38345 9.4562 2.6871 9.59066 2.94893 9.48266C3.2107 9.37381 3.33144 9.06402 3.21731 8.78897C3.10409 8.51445 2.79953 8.37999 2.53728 8.48798Z" fill="#A8A8A8"/>
<path d="M0.311963 9.40966C0.0492865 9.5176 -0.0706069 9.82878 0.0426702 10.1024C0.156854 10.3779 0.460509 10.5123 0.722279 10.4048C0.984102 10.2968 1.10394 9.98704 0.990665 9.71113C0.877388 9.43655 0.572826 9.30081 0.311963 9.40966Z" fill="#A8A8A8"/>
<path d="M14.982 8.98352C15.1644 8.74288 15.1208 8.40219 14.8845 8.22371C14.6475 8.04299 14.3076 8.09235 14.1247 8.33256C13.9431 8.5732 13.9868 8.91298 14.223 9.09322C14.4601 9.27303 14.7999 9.22368 14.982 8.98352Z" fill="#A8A8A8"/>
<path d="M12.5731 10.3765C12.3906 10.6172 12.4343 10.9569 12.6718 11.1363C12.9076 11.317 13.2474 11.2681 13.4294 11.0275C13.6119 10.7881 13.5683 10.4461 13.332 10.2668C13.0949 10.0874 12.7551 10.1363 12.5731 10.3765Z" fill="#A8A8A8"/>
<path d="M11.8776 13.0684C12.0592 12.829 12.0156 12.4893 11.7794 12.3086C11.5422 12.1292 11.2025 12.1786 11.0204 12.4188C10.8379 12.6581 10.8816 12.9993 11.1187 13.1795C11.3549 13.3593 11.6947 13.3099 11.8776 13.0684Z" fill="#A8A8A8"/>
<path d="M9.46767 14.4643C9.28519 14.7058 9.32884 15.0456 9.56595 15.2249C9.80217 15.4043 10.142 15.3554 10.324 15.1161C10.5078 14.8754 10.4637 14.5357 10.2266 14.3554C9.99036 14.1756 9.65058 14.2249 9.46767 14.4643Z" fill="#A8A8A8"/>
<path d="M7.91453 16.5094C7.73205 16.7488 7.77703 17.0886 8.01282 17.2692C8.24903 17.4499 8.58881 17.3997 8.77171 17.159C8.95462 16.9197 8.91055 16.5799 8.67343 16.3992C8.43727 16.2194 8.09749 16.2688 7.91453 16.5094Z" fill="#A8A8A8"/>
<path d="M16.4797 9.4639C16.2052 9.35068 15.8953 9.47137 15.7873 9.73368C15.6781 9.99411 15.8138 10.2978 16.0888 10.412C16.3634 10.5252 16.6732 10.4054 16.7812 10.1436C16.8892 9.88174 16.7543 9.57846 16.4797 9.4639Z" fill="#A8A8A8"/>
<path d="M15.5591 11.6916C15.2845 11.5783 14.9747 11.6982 14.8667 11.9609C14.7578 12.2218 14.8936 12.525 15.1681 12.6396C15.4427 12.7529 15.7525 12.6321 15.8605 12.3716C15.9685 12.1099 15.8337 11.8049 15.5591 11.6916Z" fill="#A8A8A8"/>
<path d="M14.6395 13.9196C14.365 13.8063 14.0547 13.9262 13.9458 14.1889C13.8379 14.4498 13.9736 14.7543 14.2473 14.8676C14.5227 14.9808 14.833 14.861 14.9405 14.5992C15.0485 14.3375 14.9141 14.033 14.6395 13.9196Z" fill="#A8A8A8"/>
<path d="M13.7203 16.1447C13.4457 16.0315 13.1359 16.1513 13.0266 16.4132C12.9191 16.6749 13.0548 16.9795 13.3294 17.0927C13.604 17.206 13.9138 17.0852 14.0218 16.8247C14.1297 16.5626 13.9949 16.258 13.7203 16.1447Z" fill="#A8A8A8"/>
<path d="M12.7989 18.3728C12.5243 18.2595 12.2136 18.3794 12.1057 18.6411C11.9977 18.903 12.1321 19.2066 12.4071 19.3195C12.6817 19.4341 12.9923 19.3133 13.1003 19.0524C13.2083 18.7906 13.0739 18.486 12.7989 18.3728Z" fill="#A8A8A8"/>
<path d="M11.8775 20.6008C11.6042 20.4875 11.2932 20.6074 11.1852 20.8692C11.0772 21.131 11.2121 21.4342 11.4866 21.5479C11.7612 21.6621 12.0724 21.5413 12.1803 21.2803C12.2878 21.0186 12.1534 20.7141 11.8775 20.6008Z" fill="#A8A8A8"/>
<path d="M22.3707 2.47681e-07C21.0123 -0.000426609 19.773 0.550912 18.8806 1.44027L18.8802 1.43984L17.873 2.41958L19.1498 3.69546L20.1415 2.73161L20.1481 2.725C20.7184 2.15557 21.5002 1.80566 22.3707 1.80523C23.2415 1.80566 24.0216 2.15557 24.5933 2.72585C25.1635 3.29704 25.5135 4.07712 25.5139 4.94844V21.0579H27.3191V4.94849C27.3187 2.21464 25.1041 0.000427104 22.3707 2.47681e-07Z" fill="#A8A8A8"/>
<path d="M18.7582 4.0705L17.4898 2.80205L17.366 2.6782L12.852 2.67383L11.8477 3.67822L17.909 9.73953L18.9121 8.73471L18.9089 4.22076L18.7582 4.0705Z" fill="#A8A8A8"/>
</svg>
