<svg width="24" height="24" viewBox="0 0 24 24" fill="none" xmlns="http://www.w3.org/2000/svg">
<path d="M9.80114 14.194L22.6435 1.35647M10.1662 14.7714L13.0782 20.5955C13.7819 22.0029 14.1338 22.7066 14.577 22.8953C14.9617 23.0591 15.4015 23.0294 15.7608 22.8155C16.1747 22.5691 16.4289 21.8244 16.9374 20.3353L22.4395 4.22198C22.8826 2.92446 23.104 2.27569 22.9524 1.84652C22.8205 1.47316 22.5269 1.17947 22.1536 1.04757C21.7243 0.895939 21.0756 1.11747 19.778 1.56052L3.66468 7.06264C2.17554 7.57113 1.43097 7.82538 1.18449 8.23931C0.97058 8.59853 0.940941 9.03826 1.1047 9.42287C1.29341 9.86615 1.99713 10.2181 3.40457 10.9217L9.22863 13.8338C9.4606 13.9498 9.57656 14.0077 9.67693 14.0852C9.76616 14.154 9.84608 14.2339 9.91474 14.323C9.99231 14.4235 10.0502 14.5394 10.1662 14.7714Z" stroke="white" stroke-linecap="round" stroke-linejoin="round"/>
</svg>
