<svg width="18" height="18" viewBox="0 0 18 18" fill="none" xmlns="http://www.w3.org/2000/svg">
<path d="M15.4286 10.5C15.4286 10.6989 15.3608 10.8897 15.2403 11.0303C15.1197 11.171 14.9562 11.25 14.7857 11.25C14.6152 11.25 14.4517 11.171 14.3311 11.0303C14.2106 10.8897 14.1429 10.6989 14.1429 10.5C14.1429 10.3011 14.2106 10.1103 14.3311 9.96967C14.4517 9.82902 14.6152 9.75 14.7857 9.75C14.9562 9.75 15.1197 9.82902 15.2403 9.96967C15.3608 10.1103 15.4286 10.3011 15.4286 10.5ZM3.21429 9.75C3.04379 9.75 2.88028 9.82902 2.75972 9.96967C2.63916 10.1103 2.57143 10.3011 2.57143 10.5C2.57143 10.6989 2.63916 10.8897 2.75972 11.0303C2.88028 11.171 3.04379 11.25 3.21429 11.25C3.38478 11.25 3.5483 11.171 3.66885 11.0303C3.78941 10.8897 3.85714 10.6989 3.85714 10.5C3.85714 10.3011 3.78941 10.1103 3.66885 9.96967C3.5483 9.82902 3.38478 9.75 3.21429 9.75ZM16.5214 6L16.785 6.84C17.162 7.18729 17.467 7.62929 17.6774 8.13311C17.8877 8.63692 17.998 9.18959 18 9.75V16.5C18 16.8978 17.8645 17.2794 17.6234 17.5607C17.3823 17.842 17.0553 18 16.7143 18H15.4286C15.0876 18 14.7606 17.842 14.5194 17.5607C14.2783 17.2794 14.1429 16.8978 14.1429 16.5V15H3.85714V16.5C3.85714 16.8978 3.72168 17.2794 3.48057 17.5607C3.23945 17.842 2.91242 18 2.57143 18H1.28571C0.944722 18 0.617695 17.842 0.376577 17.5607C0.135459 17.2794 0 16.8978 0 16.5V9.75C0 8.5725 0.482143 7.53 1.215 6.84L1.47857 6H0V4.5H1.92857V4.6125L3.09857 0.975C3.19013 0.689099 3.35427 0.442585 3.56907 0.268371C3.78387 0.0941578 4.03911 0.000534193 4.30071 0H13.6993C14.2329 0 14.715 0.39 14.9014 0.975L16.0714 4.6125V4.5H18V6H16.5214ZM2.57143 15H1.28571V16.5H2.57143V15ZM16.7143 15H15.4286V16.5H16.7143V15ZM16.7143 13.5V9.75C16.7143 9.15326 16.5111 8.58097 16.1494 8.15901C15.7877 7.73705 15.2972 7.5 14.7857 7.5H3.21429C2.7028 7.5 2.21226 7.73705 1.85058 8.15901C1.4889 8.58097 1.28571 9.15326 1.28571 9.75V13.5H16.7143ZM14.7857 6H15.1457L13.6929 1.5H4.30071L2.85429 6H14.7857ZM5.14286 11.25H12.8571V9.75H5.14286V11.25Z" fill="#787878"/>
</svg>
