<svg width="11" height="14" viewBox="0 0 11 14" fill="none" xmlns="http://www.w3.org/2000/svg">
<path d="M2.21088 2.94308C2.64429 1.67634 3.84984 1.14214 5.18161 1.12109C5.8889 1.14682 6.63665 1.34911 7.16359 1.75062C7.71073 2.16751 8.05096 2.59375 8.1838 3.25958C8.27792 3.73092 8.25219 4.00544 8.20095 4.36555L8.10625 4.80358C8.18129 4.77389 8.26262 4.76364 8.34268 4.7738C8.3992 4.77965 8.45385 4.79738 8.50304 4.82583C8.55223 4.85429 8.59484 4.89281 8.62809 4.93889C8.66291 4.9988 8.68305 5.0661 8.68686 5.13529C8.71316 5.39997 8.70822 5.6637 8.57032 5.90487C8.50661 6.02441 8.41601 6.12751 8.30564 6.20606C8.18462 6.28135 8.04998 6.33215 7.90939 6.35558L7.88156 6.35931C7.72467 6.97227 7.10966 7.7097 6.03858 8.006C5.52873 8.15815 4.73453 8.17835 4.17382 8.03583C3.17896 7.76226 2.53475 6.99552 2.41664 6.35852L2.37918 6.35547C2.23861 6.33207 2.104 6.28131 1.98298 6.20606C1.87266 6.12747 1.78211 6.02432 1.71845 5.90476C1.58056 5.6636 1.57551 5.3997 1.60192 5.13518C1.60571 5.066 1.62583 4.9987 1.66064 4.93879C1.69389 4.89272 1.7365 4.85421 1.78568 4.82576C1.83485 4.79731 1.88948 4.77957 1.94599 4.7737C2.06495 4.75769 2.18548 4.78835 2.28233 4.85924L2.19952 4.38681C2.05805 4.05247 2.04569 3.54689 2.14812 3.15226C2.16674 3.08046 2.18767 3.01074 2.21088 2.94308Z" fill="white"/>
<path d="M1.81371 12.2034L1.81365 12.2035C1.80323 12.2131 1.79271 12.2228 1.78211 12.2326C1.73117 12.2796 1.67852 12.3281 1.62735 12.373L1.39458 12.5768L1.24419 12.3064C1.21737 12.2582 1.18292 12.2146 1.14218 12.1774C1.08979 12.1325 1.0283 12.0994 0.961912 12.0804C0.894783 12.0613 0.824276 12.057 0.755329 12.068C0.688792 12.0788 0.625536 12.1044 0.570243 12.143C0.516257 12.1806 0.471213 12.2297 0.438267 12.2866C0.402223 12.359 0.381407 12.438 0.377127 12.5188L0.376829 12.5245L0.376766 12.5245C0.363518 12.6997 0.425865 12.8848 0.54409 13.0784C0.639341 13.2297 0.770377 13.3553 0.925644 13.4441C1.08063 13.5326 1.25498 13.5818 1.43338 13.5872C1.45789 13.5872 1.48218 13.5825 1.5049 13.5733L1.56457 13.549L1.62854 13.5566L1.66821 13.5613L1.81371 12.2034ZM1.81371 12.2034C2.00733 12.0251 2.17386 11.8819 2.33271 11.8215M1.81371 12.2034L2.33271 11.8215M2.33271 11.8215L2.36945 11.8099L2.83017 11.6644L2.44529 11.3724C2.25575 11.2286 2.09098 11.0547 1.95748 10.8578L1.95749 10.8578L1.95663 10.8566C1.95664 10.8566 1.95662 10.8565 1.9566 10.8565C1.95615 10.8558 1.95126 10.8481 1.94179 10.83C1.93261 10.8125 1.92152 10.79 1.90916 10.7633C1.88445 10.71 1.85677 10.6448 1.83152 10.5788C1.80603 10.5123 1.78466 10.4493 1.77117 10.3994C1.7649 10.3762 1.76126 10.3592 1.75945 10.3481L1.76143 10.3366L1.75909 10.3058C1.73934 10.0452 1.76529 9.78324 1.83577 9.53165C1.97564 9.08313 2.20474 8.6087 2.64845 8.24499C2.84702 8.08275 3.02904 7.95468 3.22408 7.8721C3.49379 8.05448 3.79187 8.19155 4.10653 8.27756L4.10652 8.2776L4.11096 8.27872C4.71465 8.43191 5.55276 8.41144 6.10741 8.24709C6.4476 8.15486 6.77044 8.00842 7.06361 7.81364C7.32491 7.88642 7.55267 8.03806 7.80515 8.2449C8.24897 8.60866 8.47812 9.08319 8.61828 9.53189C8.68917 9.7833 8.7153 10.0452 8.69547 10.3057L8.69493 10.3128L8.6948 10.3198C8.69096 10.5183 8.57226 10.7365 8.51782 10.8114C8.38572 10.9911 8.23359 11.1553 8.06439 11.3007L7.68946 11.6228L8.17112 11.7339C8.16843 11.7333 8.16913 11.7336 8.17353 11.7358C8.18344 11.7407 8.21211 11.7547 8.26303 11.7877C8.32646 11.8288 8.4041 11.8857 8.48719 11.9522C8.65478 12.0864 8.82849 12.2468 8.93822 12.3737L8.95382 12.3917L8.97254 12.4064L9.02746 12.4497L9.27912 12.6481L9.41032 12.3558C9.44065 12.2882 9.48425 12.2274 9.53854 12.177C9.59079 12.1324 9.65206 12.0995 9.71818 12.0806C9.78528 12.0614 9.85575 12.0572 9.92466 12.0681C9.99123 12.0789 10.0545 12.1046 10.1098 12.1432C10.1638 12.1808 10.2089 12.2298 10.2418 12.2867C10.2778 12.3592 10.2987 12.4383 10.303 12.5191L10.3029 12.5191L10.3033 12.5246C10.3166 12.6999 10.2542 12.8851 10.136 13.0785C10.0408 13.2298 9.90977 13.3554 9.75452 13.4441C9.60066 13.5321 9.4277 13.5811 9.25065 13.5871C9.21407 13.5859 9.17823 13.5764 9.14573 13.5595L9.03028 13.7813L9.14573 13.5595C9.11183 13.5419 9.08251 13.5165 9.06011 13.4856L8.96378 13.3524L8.80331 13.388C8.37879 13.4823 8.06242 13.4755 7.60101 13.4054C7.60096 13.4054 7.60092 13.4054 7.60087 13.4054L7.60078 13.4054L7.60008 13.4053L7.59729 13.4049L7.58637 13.4032L7.54435 13.3968L7.38936 13.3732C7.25823 13.3533 7.07642 13.3258 6.87371 13.2953C6.46919 13.2345 5.98055 13.1616 5.64543 13.1139C5.21936 13.0477 4.78353 13.0869 4.37616 13.2283L4.37609 13.2281L4.36673 13.2318C3.84198 13.4379 3.44577 13.5503 3.04721 13.5975C2.64782 13.6447 2.23312 13.6281 1.66837 13.5614L2.33271 11.8215Z" fill="white" stroke="#851D5D" stroke-width="0.5"/>
<path d="M3.30552 8.86088C3.29941 8.57631 3.37691 8.30742 3.4171 8.14418C3.44937 8.0187 3.49357 7.89659 3.5491 7.77954C3.74569 7.89048 3.9552 7.97678 4.1729 8.03648C4.73456 8.179 5.52876 8.1588 6.0396 8.00665C6.36719 7.9179 6.67766 7.77504 6.95817 7.58398C7.00476 7.64496 7.04601 7.70982 7.08149 7.77785C7.26957 8.18411 7.35869 9.33747 6.75915 9.6685C6.31412 9.91387 5.93449 9.97174 5.52808 10.0088C5.1053 10.0421 4.67994 10.0166 4.26418 9.93297C3.50501 9.734 3.31451 9.28045 3.30552 8.86088Z" fill="white"/>
<path d="M3.8235 11.1338C3.89889 11.1164 3.97657 11.1112 4.05361 11.1183C4.10348 11.1235 4.15084 11.1428 4.19016 11.1739C4.22947 11.205 4.25912 11.2467 4.27563 11.294C4.30146 11.3906 4.22922 11.509 4.12927 11.5078C4.29799 11.5518 4.389 11.7541 4.35507 11.9251C4.32113 12.0961 4.19234 12.2341 4.04861 12.3328C3.97487 12.3905 3.88536 12.4246 3.79188 12.4305C3.72803 12.4274 3.6656 12.4106 3.60885 12.3812C3.39097 12.2785 3.21425 12.1051 3.10742 11.8892" fill="white"/>
<path d="M6.69024 11.1059C6.61646 11.0827 6.53946 11.0714 6.46212 11.0723C6.41199 11.0736 6.36325 11.0891 6.32161 11.117C6.27997 11.145 6.24715 11.1842 6.22701 11.2302C6.19365 11.3244 6.25631 11.448 6.35601 11.4548C6.18439 11.4853 6.0777 11.6797 6.09822 11.8528C6.11874 12.026 6.236 12.1735 6.37148 12.2832C6.44041 12.3466 6.52693 12.3876 6.61964 12.4009C6.68349 12.4029 6.74702 12.391 6.80588 12.3662C7.03107 12.281 7.22081 12.1221 7.34423 11.9153" fill="white"/>
<path d="M8.82406 13.5119C8.52022 13.5787 8.20791 13.5982 7.89813 13.5698C7.75566 13.557 7.61451 13.5354 7.47314 13.5138C7.06299 13.4515 6.65274 13.3898 6.24238 13.3289C6.0109 13.2945 5.779 13.2562 5.54641 13.2286C5.26564 13.196 4.98146 13.2085 4.70465 13.2657C4.57815 13.2935 4.45416 13.3316 4.33396 13.3798C4.05741 13.4889 3.77364 13.5786 3.48468 13.6485C2.87508 13.7893 2.25576 13.7576 1.63896 13.6853C1.60553 13.6855 1.57352 13.6988 1.54988 13.7225C1.52624 13.7461 1.51287 13.7781 1.5127 13.8116C1.51347 13.8448 1.52702 13.8765 1.55054 13.9C1.57405 13.9235 1.60572 13.937 1.63896 13.9378C2.20573 14.0044 2.77434 14.036 3.3391 13.9356C3.61184 13.8847 3.88008 13.8122 4.1413 13.7187C4.30592 13.6613 4.46601 13.5882 4.63436 13.5421C4.86193 13.4813 5.0974 13.4553 5.33276 13.4649C5.57509 13.4814 5.81631 13.5114 6.0553 13.5547C6.48422 13.6179 6.91297 13.6822 7.34156 13.7476C7.50392 13.7723 7.66617 13.7984 7.82952 13.8157C8.18431 13.8531 8.54281 13.8328 8.89109 13.7554C9.04976 13.7207 8.98263 13.4772 8.82396 13.5119H8.82406Z" fill="#851D5D"/>
<path d="M1.61943 12.216C1.73059 12.1147 1.83918 12.0108 1.95545 11.9151C1.96986 11.9033 1.98438 11.8917 1.99901 11.8801C2.00427 11.8758 2.01337 11.8692 2.00269 11.8773C2.01084 11.8711 2.019 11.865 2.02721 11.8589C2.05635 11.8375 2.08608 11.8169 2.11664 11.7974C2.14621 11.7785 2.17646 11.7606 2.2075 11.7444C2.22265 11.7365 2.23801 11.7286 2.25353 11.7217C2.26032 11.7185 2.26721 11.7154 2.2741 11.7125C2.2489 11.723 2.28284 11.7096 2.28526 11.7087C2.31714 11.6991 2.34411 11.6777 2.36055 11.6487C2.37698 11.6198 2.38162 11.5856 2.37348 11.5533C2.36424 11.5213 2.3428 11.4941 2.31377 11.4776C2.28474 11.4611 2.25041 11.4566 2.21813 11.4652C1.91204 11.5804 1.6783 11.8214 1.44087 12.0371C1.41743 12.0609 1.4043 12.093 1.4043 12.1264C1.4043 12.1598 1.41743 12.1918 1.44087 12.2156C1.4649 12.2386 1.49688 12.2515 1.53015 12.2515C1.56341 12.2515 1.5954 12.2386 1.61943 12.2156V12.216Z" fill="#851D5D"/>
<path d="M8.19392 11.613C8.19776 11.6139 8.22738 11.6256 8.2287 11.6246C8.22386 11.6282 8.19839 11.6101 8.22196 11.6224C8.22833 11.6256 8.2348 11.6287 8.24111 11.632C8.27426 11.6492 8.30614 11.6688 8.33749 11.6892C8.37606 11.7143 8.41378 11.7408 8.45092 11.7681C8.47305 11.7844 8.49501 11.8009 8.51679 11.8176C8.49874 11.8037 8.52952 11.8277 8.52989 11.8282C8.54136 11.8372 8.55277 11.8463 8.56414 11.8555C8.73495 11.9896 8.89359 12.1386 9.03821 12.3007C9.06203 12.3241 9.09409 12.3372 9.12749 12.3372C9.16088 12.3372 9.19294 12.3241 9.21676 12.3007C9.23984 12.2767 9.25273 12.2447 9.25273 12.2114C9.25273 12.1781 9.23984 12.1461 9.21676 12.1221C9.06654 11.9538 8.90129 11.7995 8.72307 11.6612C8.63832 11.5938 8.55193 11.5277 8.46086 11.4688C8.39999 11.4253 8.33248 11.3918 8.26095 11.3698C8.22865 11.3609 8.19415 11.3652 8.16501 11.3817C8.13588 11.3982 8.11452 11.4257 8.10562 11.458C8.09671 11.4903 8.10101 11.5248 8.11755 11.5539C8.13409 11.583 8.16152 11.6044 8.19382 11.6133L8.19392 11.613Z" fill="#851D5D"/>
<path d="M6.8491 7.64801C6.89759 7.71164 6.94031 7.77948 6.97673 7.85071C6.99046 7.87933 6.96694 7.82488 6.97878 7.85561C6.9812 7.86187 6.98367 7.86807 6.98599 7.87428C6.99478 7.89769 7.00277 7.92163 7.01014 7.94525C7.03946 8.0426 7.06115 8.14209 7.07501 8.24281C7.10548 8.46376 7.10415 8.68792 7.07106 8.90849C7.03381 9.12387 6.96274 9.33153 6.81196 9.47568C6.77754 9.50933 6.73846 9.53784 6.6959 9.56033C6.61187 9.60772 6.52495 9.64976 6.43564 9.68622C6.27263 9.75162 6.10342 9.80031 5.93058 9.83153C5.58373 9.89413 5.23044 9.9133 4.87885 9.88861C4.68408 9.87913 4.49042 9.85362 4.29983 9.81233C4.06428 9.76309 3.84712 9.64917 3.67272 9.48336C3.60698 9.41583 3.55329 9.33753 3.51399 9.25187C3.51315 9.25014 3.49753 9.2141 3.50763 9.23846C3.5031 9.22757 3.4989 9.21652 3.49484 9.20547C3.48815 9.18716 3.48197 9.16868 3.47633 9.15002C3.46218 9.10213 3.45112 9.05339 3.44323 9.00408C3.43908 8.9793 3.44218 8.99882 3.44287 9.00382C3.44087 8.98882 3.43929 8.97373 3.43792 8.95868C3.4355 8.93251 3.43385 8.90621 3.43297 8.87976C3.43134 8.83178 3.43219 8.7837 3.43492 8.73577C3.4376 8.68932 3.44218 8.64297 3.44828 8.59683C3.44408 8.62887 3.44881 8.59414 3.4496 8.58909C3.45176 8.57557 3.45381 8.56205 3.45607 8.54858C3.45996 8.52565 3.46415 8.50274 3.46864 8.47988C3.5069 8.26122 3.57074 8.04783 3.65883 7.84408C3.67477 7.81495 3.67895 7.78082 3.67053 7.74869C3.66211 7.71657 3.64172 7.68888 3.61353 7.67131C3.58455 7.65468 3.55019 7.65011 3.51787 7.65858C3.48555 7.66706 3.45785 7.6879 3.44076 7.71661C3.34771 7.9261 3.27831 8.14531 3.23385 8.37018C3.19157 8.5518 3.17437 8.73835 3.18271 8.92464C3.19189 9.13791 3.25968 9.34451 3.37863 9.52176C3.54198 9.73927 3.76713 9.90246 4.02468 9.98999C4.22372 10.0584 4.43048 10.1018 4.64022 10.1193C5.01514 10.1622 5.39391 10.159 5.76807 10.1098C6.14302 10.0611 6.52102 9.96253 6.84726 9.76435C7.06732 9.63072 7.20148 9.39976 7.27261 9.15802C7.34207 8.90508 7.36556 8.64173 7.34195 8.3805C7.33136 8.15603 7.28224 7.93506 7.19674 7.72724C7.16074 7.65402 7.11736 7.58467 7.06727 7.52027C7.04972 7.49207 7.02203 7.47166 6.9899 7.46323C6.95777 7.45481 6.92363 7.45901 6.8945 7.47497C6.86578 7.49206 6.84493 7.51975 6.83645 7.55208C6.82798 7.5844 6.83256 7.61877 6.8492 7.64774L6.8491 7.64801Z" fill="#851D5D"/>
<path d="M4.76755 9.16505C4.64605 9.15066 4.52966 9.10779 4.42785 9.03994C4.41095 9.02741 4.39493 9.01371 4.37992 8.99896C4.37112 8.99043 4.36263 8.98167 4.35446 8.97265C4.35041 8.96823 4.34652 8.96366 4.34247 8.95918C4.32758 8.94256 4.34431 8.96281 4.33647 8.95229C4.32146 8.93219 4.30782 8.9111 4.29564 8.88916C4.29007 8.87922 4.28512 8.86901 4.27986 8.8588C4.27728 8.85354 4.27502 8.84854 4.2726 8.84339C4.26392 8.82471 4.28239 8.87054 4.27002 8.83702C4.25325 8.79133 4.24049 8.74426 4.23188 8.69634C4.23051 8.68903 4.22941 8.68161 4.22835 8.67425C4.22862 8.67604 4.23088 8.69529 4.22925 8.68014C4.22804 8.66909 4.22688 8.65799 4.22599 8.64689C4.22394 8.62111 4.22288 8.59533 4.22267 8.5695C4.22242 8.52095 4.22488 8.47242 4.23004 8.42414C4.23109 8.41362 4.23235 8.40346 4.23356 8.3931C4.22993 8.42393 4.2343 8.38847 4.2354 8.38132C4.23882 8.3588 4.24277 8.33644 4.24703 8.31408C4.26145 8.23916 4.28091 8.16556 4.30101 8.09201C4.34389 7.93503 4.10035 7.86805 4.05748 8.02488C3.95005 8.41798 3.88476 8.92451 4.24382 9.21487C4.37619 9.31879 4.53381 9.38565 4.70053 9.40858C4.73278 9.41646 4.76682 9.41172 4.79569 9.39533C4.82456 9.37894 4.84607 9.35213 4.85583 9.3204C4.86448 9.28812 4.86008 9.25374 4.84358 9.22468C4.82708 9.19562 4.79981 9.17422 4.76766 9.1651L4.76755 9.16505Z" fill="#851D5D"/>
<path d="M6.31076 8.04757C6.31602 8.0581 6.3206 8.06951 6.32623 8.08004C6.33396 8.09456 6.31791 8.05768 6.3237 8.07404C6.32628 8.0813 6.32938 8.0884 6.33212 8.09561C6.34227 8.12275 6.35116 8.15032 6.359 8.17821C6.36837 8.21124 6.37626 8.24456 6.38268 8.27816C6.38618 8.29612 6.38924 8.31411 6.39183 8.33214C6.38983 8.31836 6.39131 8.32688 6.3922 8.33572C6.39325 8.34624 6.39446 8.35676 6.39536 8.36729C6.39857 8.40411 6.40009 8.44094 6.39967 8.47777C6.39946 8.49772 6.39865 8.51763 6.39725 8.53748C6.39667 8.54637 6.39588 8.55526 6.39504 8.56415C6.39446 8.57004 6.39136 8.59435 6.39383 8.5773C6.38829 8.61537 6.38002 8.653 6.3691 8.68989C6.35932 8.72598 6.34539 8.76081 6.3276 8.79369C6.31145 8.82278 6.30715 8.85698 6.31558 8.88916C6.32402 8.92134 6.34455 8.94903 6.37289 8.96646C6.40189 8.98302 6.43622 8.98756 6.46853 8.97909C6.50083 8.97062 6.52852 8.94982 6.54566 8.92116C6.70265 8.61787 6.68145 8.22203 6.52883 7.91994C6.5119 7.89103 6.48418 7.87002 6.45177 7.86154C6.41935 7.85306 6.3849 7.8578 6.35598 7.87472C6.32706 7.89165 6.30605 7.91937 6.29757 7.95178C6.28909 7.9842 6.29383 8.01866 6.31076 8.04757Z" fill="#851D5D"/>
<path d="M5.21578 5.78288C5.21134 5.78538 5.20678 5.78765 5.2021 5.78967L5.23225 5.77694C5.22501 5.77993 5.21743 5.782 5.20968 5.78309L5.24324 5.77862C5.23573 5.77946 5.22815 5.77936 5.22067 5.7783L5.25424 5.78283C5.24987 5.7822 5.24556 5.78136 5.24124 5.78051C5.22646 5.77762 5.21152 5.77599 5.19658 5.7741C5.17968 5.77335 5.16288 5.77711 5.14791 5.78499C5.12535 5.79485 5.10606 5.81094 5.09232 5.83138C5.07858 5.85181 5.07094 5.87574 5.07031 5.90036L5.07478 5.93392C5.08059 5.95501 5.0918 5.97421 5.1073 5.98964L5.13281 6.00937C5.15214 6.02073 5.17416 6.02668 5.19658 6.02662H5.19731L5.16375 6.0221C5.16901 6.02284 5.17474 6.0241 5.18021 6.0251C5.19405 6.02768 5.2081 6.02925 5.2223 6.03094C5.22556 6.03131 5.22883 6.03157 5.23214 6.03167C5.23566 6.03172 5.23917 6.03154 5.24266 6.03115C5.25545 6.02978 5.26849 6.0282 5.28117 6.02589C5.28312 6.02552 5.28501 6.0251 5.28691 6.02462C5.29134 6.02349 5.29568 6.02203 5.2999 6.02026C5.31494 6.01472 5.3296 6.0082 5.34378 6.00074C5.37119 5.98302 5.39164 5.95637 5.40165 5.9253C5.40688 5.90902 5.40766 5.89163 5.40391 5.87495C5.40316 5.85825 5.39798 5.84206 5.38892 5.82802L5.36919 5.80245C5.35368 5.78705 5.33445 5.77592 5.31337 5.77015L5.27981 5.76563C5.25739 5.76559 5.23538 5.77155 5.21604 5.78288H5.21578Z" fill="#851D5D"/>
<path d="M4.70136 6.69138C4.83557 6.8229 5.04691 6.86194 5.22746 6.86184C5.40802 6.86173 5.61915 6.8228 5.75356 6.69138C5.77692 6.66763 5.78996 6.63562 5.78982 6.60231C5.78968 6.569 5.77639 6.5371 5.75284 6.51354C5.72929 6.48999 5.69738 6.4767 5.66407 6.47656C5.63076 6.47643 5.59875 6.48946 5.57501 6.51282C5.56974 6.51777 5.54581 6.53686 5.56448 6.52334C5.58316 6.50982 5.55123 6.53192 5.5446 6.53602C5.53329 6.54297 5.52161 6.54938 5.50977 6.55533C5.50177 6.55933 5.49362 6.56301 5.48552 6.56675C5.50088 6.5597 5.49804 6.56185 5.4841 6.56675C5.40218 6.59733 5.31513 6.61179 5.22773 6.60931C5.20142 6.60931 5.17564 6.60841 5.14971 6.60641C5.13534 6.60531 5.12093 6.6041 5.10667 6.60215C5.12303 6.60436 5.09915 6.60063 5.09362 6.59963C5.0536 6.59262 5.01425 6.58222 4.97599 6.56853C4.97073 6.56664 4.94063 6.55275 4.96989 6.56675C4.9631 6.56348 4.95626 6.56054 4.94958 6.55722C4.93637 6.55075 4.92327 6.5437 4.91086 6.53618C4.90723 6.53392 4.88613 6.51629 4.88292 6.51724C4.89071 6.51498 4.90728 6.53828 4.89087 6.52276C4.88745 6.51945 4.88382 6.51635 4.88034 6.51298C4.8566 6.48962 4.82459 6.47659 4.79128 6.47672C4.75797 6.47686 4.72606 6.49015 4.70251 6.5137C4.67896 6.53726 4.66566 6.56916 4.66553 6.60247C4.66539 6.63578 4.67842 6.66779 4.70179 6.69154L4.70136 6.69138Z" fill="#851D5D"/>
<path d="M3.75445 5.03404C3.70742 5.18629 3.73699 5.5362 4.02424 5.5654C4.40403 5.56208 4.42528 5.13889 4.29781 4.94028C4.19364 4.77751 3.88603 4.71059 3.75445 5.03404Z" fill="#851D5D"/>
<path d="M6.6184 5.03404C6.66543 5.18634 6.63592 5.53625 6.34867 5.5654C5.96888 5.56208 5.94762 5.13889 6.0751 4.94028C6.17932 4.77751 6.48687 4.71059 6.6184 5.03404Z" fill="#851D5D"/>
<path d="M8.06998 4.96908C8.19561 4.87601 8.41358 4.85991 8.51717 4.99933C8.56688 5.06636 8.56509 5.16994 8.56978 5.24923C8.57713 5.34619 8.57468 5.44364 8.56246 5.54011C8.53703 5.72497 8.45266 5.8967 8.32188 6.0298C8.19814 6.14289 8.04216 6.21448 7.87575 6.23456C7.84357 6.24364 7.81627 6.26503 7.79977 6.29411C7.78326 6.32318 7.77888 6.35758 7.78757 6.38986C7.79718 6.4217 7.81866 6.44861 7.84758 6.46503C7.87649 6.48145 7.91062 6.48611 7.94288 6.47804C8.12308 6.4505 8.29266 6.37534 8.43409 6.26032C8.57552 6.1453 8.68366 5.99459 8.74734 5.82378C8.81567 5.63258 8.84071 5.4286 8.82062 5.22655C8.807 5.02495 8.76633 4.83934 8.58214 4.72676C8.48443 4.66903 8.37217 4.64063 8.25876 4.64496C8.14535 4.64929 8.03559 4.68616 7.94256 4.75117C7.9144 4.76876 7.89402 4.79644 7.8856 4.82856C7.87718 4.86068 7.88135 4.8948 7.89726 4.92394C7.91433 4.95267 7.94201 4.97353 7.97433 4.982C8.00666 4.99048 8.04102 4.98574 8.06998 4.96908Z" fill="#851D5D"/>
<path d="M2.34609 4.75094C2.26387 4.69346 2.16835 4.65791 2.06856 4.64763C1.96877 4.63736 1.86801 4.65271 1.7758 4.69223C1.68732 4.72845 1.61125 4.78959 1.55684 4.86821C1.5067 4.95288 1.47843 5.04871 1.47461 5.14704C1.43536 5.53772 1.50796 5.95276 1.81052 6.22923C1.96098 6.36234 2.14696 6.44874 2.34573 6.47786C2.37797 6.48569 2.41199 6.48093 2.44085 6.46455C2.4697 6.44816 2.49123 6.42139 2.50103 6.38969C2.50969 6.35741 2.5053 6.32302 2.4888 6.29395C2.47229 6.26489 2.44501 6.24349 2.41286 6.23438C2.24995 6.21461 2.09693 6.14567 1.97419 6.03673C1.83937 5.90278 1.75232 5.72822 1.72645 5.53993C1.71423 5.44347 1.71178 5.34601 1.71914 5.24905C1.72372 5.17014 1.72203 5.06834 1.7707 5.0011C1.87302 4.85979 2.09251 4.87557 2.21867 4.96901C2.24764 4.98567 2.282 4.99025 2.31432 4.98178C2.34664 4.9733 2.37433 4.95244 2.39139 4.92371C2.40754 4.89462 2.41184 4.86042 2.4034 4.82824C2.39496 4.79606 2.37444 4.76837 2.34609 4.75094Z" fill="#851D5D"/>
<path d="M2.27115 6.19401C2.29477 6.73589 2.63836 7.23401 3.03883 7.57644C3.29231 7.79257 3.58143 7.963 3.89327 8.08013C3.97902 8.11344 4.0669 8.14098 4.15632 8.16257C4.19357 8.17125 4.16416 8.16652 4.15869 8.16489C4.16768 8.16752 4.1771 8.16931 4.18625 8.17146C4.20488 8.17585 4.22357 8.17999 4.24234 8.18388C4.28404 8.19265 4.32595 8.2005 4.36807 8.20745C4.54765 8.23685 4.729 8.25417 4.9109 8.25927C5.30281 8.27714 5.69509 8.23369 6.07358 8.13048C6.10229 8.12163 6.12693 8.10288 6.14311 8.07757C6.15929 8.05226 6.16595 8.02202 6.16193 7.99225C6.1579 7.96248 6.14343 7.93511 6.12111 7.915C6.09878 7.8949 6.07005 7.88337 6.04002 7.88248H6.03902L6.07258 8.13048C6.82143 7.92062 7.5464 7.43966 7.885 6.71822C7.95753 6.5694 8.00762 6.41065 8.03362 6.24715C8.04141 6.2149 8.03663 6.1809 8.02025 6.15206C8.00387 6.12321 7.97713 6.10168 7.94545 6.09184C7.91316 6.08318 7.87876 6.08757 7.84969 6.10407C7.82061 6.12057 7.79921 6.14786 7.79009 6.18002C7.70065 6.79982 7.20985 7.31466 6.66981 7.61664C6.45984 7.73274 6.23683 7.8235 6.00545 7.887C5.97674 7.89585 5.95211 7.9146 5.93593 7.93991C5.91975 7.96523 5.91308 7.99546 5.91711 8.02523C5.92114 8.055 5.93561 8.08237 5.95793 8.10248C5.98026 8.12258 6.00899 8.13411 6.03902 8.135H6.04002L6.00645 7.887C5.69861 7.97154 5.38043 8.01248 5.06121 8.00863C4.88788 8.00984 4.71464 8.00012 4.54253 7.97954C4.47414 7.97118 4.40574 7.95976 4.33798 7.94624C4.30042 7.93877 4.26327 7.92935 4.22582 7.92136C4.21756 7.91962 4.14895 7.90031 4.18641 7.91115C4.15963 7.90341 4.13291 7.89563 4.10639 7.88721C3.56314 7.71544 3.06203 7.36022 2.7591 6.873C2.62535 6.66978 2.54443 6.4364 2.52367 6.19401C2.51657 6.03213 2.26399 6.03124 2.27115 6.19401Z" fill="#851D5D"/>
<path d="M3.03852 10.084C3.26997 10.304 3.45864 10.565 3.59498 10.8538C3.60718 10.8795 3.61697 10.9012 3.6268 10.9266C3.63206 10.94 3.63685 10.9535 3.64143 10.9671C3.65632 11.0115 3.6347 10.9957 3.64953 10.9303C3.64427 10.953 3.66679 10.9076 3.65553 10.9172C3.64829 10.9268 3.64225 10.9373 3.63754 10.9484C3.59703 11.0137 3.54941 11.0747 3.50291 11.136C3.48555 11.1588 3.4615 11.1895 3.43125 11.2276C3.39555 11.2729 3.35939 11.3178 3.32277 11.3624C3.25764 11.4419 3.19133 11.5204 3.12385 11.5979C3.07445 11.6543 3.02489 11.7113 2.97065 11.7631C2.96182 11.7701 2.95345 11.7778 2.94561 11.7859C2.93856 11.7947 2.97639 11.7682 2.95087 11.781C2.97597 11.7686 3.03242 11.7669 2.97975 11.7633C3.02274 11.7663 2.96045 11.7593 2.94819 11.7566C2.74273 11.7059 2.55039 11.6121 2.38389 11.4815C2.26207 11.3913 2.14999 11.2886 2.04945 11.1751C1.95524 11.0767 1.87509 10.9658 1.81129 10.8455C1.76183 10.7443 1.71919 10.6399 1.68365 10.5331C1.66635 10.4819 1.65209 10.4304 1.63951 10.378C1.63804 10.372 1.63425 10.3366 1.63725 10.3709C1.63638 10.3651 1.63587 10.3592 1.63573 10.3533C1.63605 10.3255 1.63498 10.2977 1.63252 10.27C1.61506 9.94712 1.66411 9.62408 1.77662 9.32093C1.89227 8.98461 2.07146 8.67364 2.30445 8.40493C2.44035 8.25573 2.59175 8.12143 2.75611 8.00431C2.91985 7.88003 3.10187 7.78189 3.29568 7.71337C3.4493 7.66266 3.38348 7.41876 3.22855 7.4699C2.85091 7.59469 2.50453 7.84343 2.22438 8.12226C1.72008 8.64632 1.4198 9.33344 1.37778 10.0595C1.36793 10.1941 1.37524 10.3293 1.39956 10.462C1.43362 10.5942 1.4794 10.7232 1.53635 10.8474C1.66412 11.1285 1.85494 11.3765 2.09401 11.5721C2.30018 11.7554 2.54197 11.8943 2.80425 11.98C2.88316 12.0038 2.9989 12.0425 3.07624 11.9999C3.12823 11.9657 3.17463 11.9236 3.21382 11.8752C3.3617 11.7161 3.49959 11.5468 3.63391 11.3761C3.69704 11.296 3.76017 11.2153 3.81851 11.1317C3.85734 11.0762 3.90374 11.015 3.89575 10.9437C3.88171 10.8756 3.85746 10.81 3.82383 10.7491C3.79052 10.6772 3.75347 10.6071 3.71282 10.5391C3.61826 10.3796 3.51032 10.2285 3.39016 10.0873C3.33608 10.0233 3.27834 9.96239 3.21724 9.905C3.09865 9.7941 2.91952 9.97271 3.03852 10.084Z" fill="#851D5D"/>
<path d="M6.97869 7.6679C7.31203 7.73571 7.59607 7.91596 7.8568 8.12803C8.11547 8.3388 8.32977 8.59876 8.48733 8.89287C8.628 9.14634 8.72891 9.41991 8.78653 9.70401C8.84366 10.0107 8.86223 10.3641 8.7417 10.6577C8.63243 10.9238 8.42199 11.1443 8.2125 11.3354C8.10543 11.4338 7.99069 11.5235 7.86938 11.6037C7.82156 11.6353 7.77263 11.6649 7.72239 11.6922C7.70215 11.7033 7.68165 11.7138 7.66088 11.7238C7.64931 11.7295 7.63763 11.7349 7.6259 11.7403C7.61187 11.7464 7.61078 11.7469 7.62264 11.742C7.61554 11.7449 7.60843 11.7478 7.60128 11.7505C7.56785 11.7629 7.53357 11.7729 7.49869 11.7804C7.53509 11.7727 7.51095 11.7804 7.50185 11.7795C7.52031 11.7828 7.53853 11.7875 7.55635 11.7934C7.53115 11.7801 7.57923 11.8168 7.55998 11.7964C7.51468 11.7485 7.46691 11.7033 7.42277 11.654C7.29198 11.5078 7.16709 11.356 7.04593 11.2016C7.01536 11.1627 7.00152 11.145 6.96543 11.0963C6.94123 11.0639 6.91724 11.0313 6.89446 10.9977C6.88316 10.9742 6.86933 10.9519 6.85322 10.9312C6.84038 10.9204 6.86458 10.9638 6.86053 10.949C6.85264 10.9205 6.84317 11.0412 6.863 10.9939C6.8741 10.9676 6.88126 10.9385 6.89131 10.9115C7.0019 10.5999 7.18114 10.3172 7.41578 10.0843C7.53457 9.97285 7.35569 9.7945 7.23722 9.90572C6.99568 10.1324 6.81892 10.4351 6.69065 10.7381C6.64856 10.8375 6.58154 10.9531 6.63515 11.0587C6.66604 11.1138 6.70147 11.1662 6.74105 11.2153C6.87258 11.3921 7.01173 11.5634 7.1552 11.7304C7.21333 11.7981 7.27194 11.8657 7.33444 11.9294C7.38005 11.9759 7.43193 12.0307 7.50185 12.0316C7.6018 12.0328 7.7076 11.9813 7.79436 11.9385C7.91365 11.8779 8.02713 11.8065 8.13338 11.7252C8.41491 11.5227 8.65884 11.2725 8.85413 10.986C9.23597 10.3945 9.08562 9.6101 8.82151 9.00361C8.68286 8.67901 8.48499 8.38305 8.23802 8.13087C7.97478 7.85859 7.65811 7.64365 7.30787 7.49955C7.22282 7.46703 7.1352 7.44169 7.04593 7.42379C7.01367 7.41572 6.97954 7.42038 6.95063 7.4368C6.92171 7.45321 6.90023 7.48013 6.89062 7.51196C6.88203 7.54424 6.88646 7.5786 6.90295 7.60765C6.91944 7.63669 6.94668 7.6581 6.9788 7.66727L6.97869 7.6679Z" fill="#851D5D"/>
<path d="M3.85722 11.2525C3.94413 11.2374 4.05098 11.2162 4.12422 11.2797C4.14936 11.3015 4.17209 11.3762 4.12948 11.3785C4.09946 11.3795 4.07076 11.391 4.04846 11.4111C4.02615 11.4312 4.01171 11.4586 4.00768 11.4883C4.00365 11.5181 4.01031 11.5483 4.02646 11.5736C4.04262 11.5989 4.06723 11.6177 4.09591 11.6266C4.20208 11.6579 4.24917 11.7863 4.2338 11.8886C4.21176 12.035 4.0856 12.1555 3.96723 12.2327C3.93782 12.2569 3.90393 12.275 3.8675 12.2861C3.83108 12.2971 3.79283 12.3009 3.75495 12.2971C3.67384 12.2758 3.59766 12.2389 3.53067 12.1884C3.3964 12.0953 3.28827 11.9693 3.21664 11.8225C3.14357 11.6773 2.92566 11.805 2.99863 11.9499C3.10134 12.153 3.25962 12.3226 3.45502 12.4392C3.56098 12.511 3.68549 12.5505 3.81345 12.5529C3.93518 12.5403 4.05058 12.4925 4.14542 12.4151C4.32571 12.2822 4.48512 12.0894 4.48854 11.8546C4.49248 11.7514 4.46291 11.6496 4.40423 11.5646C4.34556 11.4796 4.26095 11.4158 4.16304 11.3829L4.12948 11.6309C4.17973 11.6269 4.22816 11.6103 4.27032 11.5827C4.31248 11.5551 4.34701 11.5173 4.37074 11.4728C4.39446 11.4283 4.40661 11.3786 4.40607 11.3282C4.40553 11.2778 4.39231 11.2283 4.36764 11.1843C4.2519 10.9694 3.99753 10.9729 3.79014 11.0088C3.758 11.0179 3.73073 11.0393 3.71424 11.0684C3.69774 11.0975 3.69333 11.1319 3.70197 11.1641C3.71152 11.196 3.73299 11.223 3.76193 11.2394C3.79086 11.2558 3.82501 11.2605 3.85727 11.2523L3.85722 11.2525Z" fill="#851D5D"/>
<path d="M6.72426 10.9822C6.51608 10.9288 6.25903 10.9167 6.13403 11.1307C6.109 11.1735 6.09501 11.2219 6.09332 11.2715C6.09163 11.3211 6.10229 11.3703 6.12435 11.4148C6.14641 11.4592 6.17917 11.4975 6.21969 11.5262C6.2602 11.5548 6.3072 11.5729 6.35646 11.5789L6.3229 11.3308C6.10951 11.376 5.97504 11.589 5.96988 11.7983C5.96431 12.0223 6.10862 12.2269 6.27465 12.3639C6.36455 12.4477 6.4773 12.503 6.59862 12.5227C6.72636 12.5275 6.85287 12.4963 6.96369 12.4325C7.16687 12.3302 7.33681 12.1722 7.45369 11.977C7.53824 11.8377 7.31991 11.7107 7.23568 11.8496C7.15503 11.9836 7.04251 12.0956 6.90813 12.1755C6.83868 12.2204 6.76171 12.2523 6.68091 12.2698C6.64172 12.2732 6.60224 12.2684 6.56507 12.2555C6.52789 12.2427 6.49386 12.2221 6.46521 12.1951C6.35351 12.1094 6.23777 11.9816 6.2232 11.8351C6.21178 11.7213 6.27392 11.599 6.39018 11.5744C6.41951 11.5662 6.44485 11.5476 6.46149 11.5221C6.47813 11.4966 6.48493 11.466 6.48062 11.4358C6.47606 11.406 6.46114 11.3786 6.43848 11.3586C6.41581 11.3386 6.38684 11.3272 6.35662 11.3264C6.36714 11.3277 6.34652 11.3023 6.34462 11.2879C6.3453 11.2758 6.34883 11.264 6.35492 11.2536C6.36101 11.2431 6.36949 11.2343 6.37966 11.2277C6.45858 11.1675 6.57179 11.2038 6.65728 11.2257C6.8148 11.266 6.88198 11.0225 6.72441 10.9822H6.72426Z" fill="#851D5D"/>
<path d="M9.2318 12.4768C9.2812 12.3239 9.3488 12.171 9.47701 12.0676C9.59241 11.9777 9.73639 11.9325 9.88248 11.9402C10.0233 11.9478 10.1566 12.0066 10.2571 12.1055C10.3655 12.2203 10.4266 12.3717 10.428 12.5296C10.4325 12.6954 10.3946 12.8597 10.3179 13.0067C10.2883 13.0671 10.255 13.1254 10.2179 13.1815C10.1963 13.2156 10.1718 13.2477 10.1447 13.2776C9.98646 13.4661 9.7756 13.603 9.53909 13.6709C9.38752 13.7126 9.20828 13.7449 9.06723 13.6581C8.99858 13.6171 8.94589 13.554 8.9178 13.4792C8.88972 13.4044 8.88791 13.3222 8.91266 13.2462C8.96127 13.0907 8.71759 13.0242 8.66918 13.179C8.63794 13.2806 8.63414 13.3885 8.65817 13.492C8.68219 13.5954 8.73319 13.6907 8.80597 13.768C8.87642 13.8409 8.96308 13.8962 9.05889 13.9293C9.15471 13.9624 9.25699 13.9725 9.35743 13.9587C9.69684 13.9249 10.0138 13.7737 10.2537 13.5312C10.4936 13.2904 10.6672 12.9504 10.6806 12.6081C10.6934 12.3903 10.6293 12.1749 10.4994 11.9996C10.3786 11.8475 10.208 11.7428 10.0176 11.7042C9.90515 11.6817 9.78935 11.6819 9.67703 11.705C9.56471 11.7281 9.45816 11.7734 9.36369 11.8384C9.16787 11.9786 9.0606 12.1851 8.988 12.4096C8.93792 12.5646 9.18166 12.631 9.23153 12.4768H9.2318Z" fill="#851D5D"/>
<path d="M1.69246 12.4084C1.6299 12.2148 1.54136 12.0215 1.38232 11.8875C1.2247 11.755 1.02482 11.6834 0.818921 11.6856C0.621005 11.6898 0.430775 11.763 0.28109 11.8926C0.12298 12.0362 0.025216 12.2344 0.00751775 12.4473C-0.0375164 12.8122 0.124733 13.1872 0.36153 13.4597C0.571143 13.7026 0.854963 13.8697 1.16909 13.9351C1.405 13.9811 1.63111 13.9733 1.82346 13.8141C1.9139 13.7383 1.97996 13.6374 2.01337 13.5242C2.04679 13.411 2.04608 13.2904 2.01133 13.1776C1.96298 13.023 1.71913 13.089 1.76779 13.2447C1.79059 13.3141 1.79119 13.3889 1.7695 13.4587C1.74782 13.5285 1.70492 13.5897 1.64679 13.634C1.52674 13.7277 1.37811 13.719 1.23643 13.6915C0.9897 13.6422 0.764173 13.518 0.590647 13.3359C0.527556 13.2737 0.473252 13.2032 0.429239 13.1263C0.339294 12.9855 0.280377 12.8273 0.256416 12.662C0.232884 12.492 0.270531 12.3192 0.362635 12.1744C0.447075 12.0594 0.570985 11.9795 0.71065 11.9501C0.791674 11.9334 0.875259 11.9336 0.956215 11.9506C1.03717 11.9676 1.11377 12.001 1.18125 12.0489C1.32366 12.1499 1.39695 12.3141 1.44914 12.475C1.49896 12.629 1.74286 12.5631 1.69262 12.4079L1.69246 12.4084Z" fill="#851D5D"/>
<path d="M2.35999 4.34405L2.35967 4.34414C2.37109 4.3866 2.36532 4.43185 2.34361 4.47008C2.3219 4.50832 2.28599 4.53645 2.24367 4.54839L2.24222 4.5488L2.24221 4.54877C2.20007 4.55896 2.15563 4.55272 2.11794 4.5313C2.08078 4.51019 2.05293 4.47591 2.03986 4.43528C2.00638 4.35318 1.98043 4.26821 1.96234 4.18141M2.35999 4.34405L8.37261 3.88373C8.37397 3.68881 8.35623 3.49422 8.31963 3.30276L8.35909 3.29625C8.35907 3.29608 8.35904 3.29591 8.35901 3.29575C8.30113 2.94535 8.16679 2.612 7.96553 2.31938L7.96554 2.31938L7.96521 2.31891C7.52592 1.69927 6.85063 1.27784 6.12393 1.09076C5.74452 0.988557 5.35155 0.945835 4.95904 0.964112L4.95877 0.964127C4.63038 0.981695 4.30498 1.0359 3.98863 1.12573L3.98837 1.12581C3.38936 1.30042 2.83795 1.63085 2.45413 2.13321L2.45413 2.13321C2.01876 2.70337 1.81202 3.47185 1.96234 4.18141M2.35999 4.34405L2.35801 4.33926C2.23071 4.03115 2.21815 3.66582 2.27779 3.33654C2.33374 3.03451 2.44711 2.74602 2.61175 2.4867L2.61178 2.48666C2.90574 2.02254 3.36784 1.69299 3.88395 1.50887L3.88402 1.50884C4.48034 1.29478 5.1221 1.23956 5.74622 1.34861L5.74655 1.34867C6.10613 1.40841 6.45355 1.52644 6.77512 1.69808L2.35999 4.34405ZM1.96234 4.18141C1.96234 4.18139 1.96233 4.18137 1.96233 4.18135L2.00149 4.17319M1.96234 4.18141C1.96235 4.18144 1.96235 4.18146 1.96235 4.18148L2.00149 4.17319M2.00149 4.17319C2.01919 4.25816 2.04464 4.34133 2.07751 4.42167L2.48592 2.15749C2.05683 2.71942 1.85381 3.47621 2.00149 4.17319Z" fill="#851D5D" stroke="#851D5D" stroke-width="0.08"/>
<path d="M4.83446 3.21576C4.82394 3.25527 4.81174 3.29378 4.79848 3.33245C4.79501 3.34124 4.79643 3.33803 4.80274 3.32293C4.801 3.32703 4.79916 3.33108 4.79748 3.33514C4.79437 3.34187 4.79122 3.3486 4.7879 3.35523C4.77996 3.37102 4.77133 3.3868 4.76207 3.40195C4.75281 3.4171 4.74303 3.43204 4.73261 3.44646C4.73019 3.44983 4.71378 3.46929 4.72635 3.45503C4.73892 3.44078 4.71898 3.4635 4.71651 3.4664C4.69422 3.49235 4.67008 3.51664 4.64428 3.5391C4.63754 3.54494 4.6306 3.55057 4.62376 3.55631C4.60577 3.57141 4.63739 3.54689 4.6246 3.55562C4.61182 3.56436 4.59793 3.57456 4.58409 3.58335C4.56905 3.59292 4.55363 3.60197 4.5379 3.61034C4.52306 3.62038 4.50687 3.62826 4.48981 3.63375C4.50291 3.63159 4.50791 3.62638 4.49113 3.63286C4.48285 3.63608 4.47449 3.63913 4.46603 3.64201C4.45062 3.64727 4.435 3.65201 4.41921 3.65611C4.40196 3.66056 4.38456 3.66433 4.36702 3.66742L4.35824 3.66889C4.34421 3.671 4.34656 3.67072 4.36529 3.66805C4.35663 3.67046 4.34762 3.67131 4.33867 3.67058C4.30518 3.67058 4.27306 3.68388 4.24938 3.70756C4.22571 3.73124 4.2124 3.76335 4.2124 3.79684C4.2124 3.83033 4.22571 3.86244 4.24938 3.88612C4.27306 3.9098 4.30518 3.9231 4.33867 3.9231C4.51497 3.90896 4.68219 3.83905 4.8161 3.7235C4.9468 3.60718 5.03832 3.45328 5.0781 3.28289C5.08251 3.26691 5.08372 3.25021 5.08168 3.23375C5.07963 3.21729 5.07436 3.2014 5.06618 3.18698C5.05799 3.17256 5.04704 3.15989 5.03396 3.1497C5.02087 3.13951 5.00591 3.132 4.98993 3.12759C4.97394 3.12318 4.95724 3.12197 4.94078 3.12401C4.92433 3.12606 4.90843 3.13132 4.89401 3.13951C4.87959 3.1477 4.86692 3.15865 4.85673 3.17173C4.84654 3.18481 4.83903 3.19978 4.83462 3.21576H4.83446Z" fill="#851D5D"/>
<path d="M5.67582 3.32369C5.67582 3.33794 5.67582 3.35215 5.67503 3.36635C5.67456 3.37488 5.67372 3.38335 5.67303 3.39187C5.67109 3.41575 5.67661 3.37183 5.67382 3.38787C5.66897 3.41728 5.66231 3.44635 5.65388 3.47494C5.64973 3.48851 5.64504 3.50193 5.63999 3.51519C5.6382 3.51992 5.62652 3.54012 5.63668 3.52382C5.64683 3.50751 5.63452 3.52781 5.63252 3.53208C5.61963 3.55904 5.6049 3.58509 5.58844 3.61004C5.58454 3.61599 5.58049 3.62188 5.57639 3.62767C5.57402 3.63109 5.55997 3.65182 5.57113 3.63551C5.58228 3.6192 5.56781 3.63945 5.56508 3.64277C5.5605 3.64803 5.55587 3.65366 5.55113 3.65897C5.53131 3.68129 5.50995 3.70219 5.48721 3.72152C5.48395 3.72426 5.4658 3.74115 5.48011 3.72773C5.49442 3.71432 5.47617 3.73063 5.47248 3.73299C5.46096 3.74125 5.44912 3.74914 5.43702 3.75651C5.4237 3.76468 5.41007 3.77231 5.39615 3.7794C5.38983 3.7826 5.38341 3.7856 5.377 3.78871C5.35416 3.79981 5.4013 3.77913 5.37573 3.78939C5.3439 3.79899 5.31698 3.82048 5.30057 3.8494C5.28415 3.87831 5.27949 3.91244 5.28756 3.9447C5.29676 3.97679 5.31817 4.004 5.34721 4.02049C5.37625 4.03697 5.41059 4.04142 5.44286 4.03287C5.58906 3.97544 5.71427 3.87481 5.80182 3.74441C5.88547 3.62008 5.92961 3.47338 5.92845 3.32353C5.92845 3.29004 5.91515 3.25793 5.89147 3.23425C5.86779 3.21057 5.83568 3.19727 5.80219 3.19727C5.7687 3.19727 5.73659 3.21057 5.71291 3.23425C5.68923 3.25793 5.67593 3.29004 5.67593 3.32353L5.67582 3.32369Z" fill="#851D5D"/>
</svg>
