<svg width="15" height="21" viewBox="0 0 15 21" fill="none" xmlns="http://www.w3.org/2000/svg">
<path d="M13.9286 19.95V21C14.5203 21 15 20.5299 15 19.95H13.9286ZM1.07143 19.95H5.46305e-06C5.46305e-06 20.5299 0.479705 21 1.07143 21V19.95ZM4.28572 4.2C3.69399 4.2 3.21429 4.67011 3.21429 5.25C3.21429 5.8299 3.69399 6.3 4.28572 6.3V4.2ZM5.35714 6.3C5.94889 6.3 6.42857 5.8299 6.42857 5.25C6.42857 4.67011 5.94889 4.2 5.35714 4.2V6.3ZM4.28572 7.35C3.69399 7.35 3.21429 7.82011 3.21429 8.4C3.21429 8.97992 3.69399 9.45 4.28572 9.45V7.35ZM5.35714 9.45C5.94889 9.45 6.42857 8.97992 6.42857 8.4C6.42857 7.82011 5.94889 7.35 5.35714 7.35V9.45ZM9.64286 7.35C9.05111 7.35 8.57143 7.82011 8.57143 8.4C8.57143 8.97992 9.05111 9.45 9.64286 9.45V7.35ZM10.7143 9.45C11.306 9.45 11.7857 8.97992 11.7857 8.4C11.7857 7.82011 11.306 7.35 10.7143 7.35V9.45ZM9.64286 10.5C9.05111 10.5 8.57143 10.9701 8.57143 11.55C8.57143 12.1299 9.05111 12.6 9.64286 12.6V10.5ZM10.7143 12.6C11.306 12.6 11.7857 12.1299 11.7857 11.55C11.7857 10.9701 11.306 10.5 10.7143 10.5V12.6ZM4.28572 10.5C3.69399 10.5 3.21429 10.9701 3.21429 11.55C3.21429 12.1299 3.69399 12.6 4.28572 12.6V10.5ZM5.35714 12.6C5.94889 12.6 6.42857 12.1299 6.42857 11.55C6.42857 10.9701 5.94889 10.5 5.35714 10.5V12.6ZM9.64286 4.2C9.05111 4.2 8.57143 4.67011 8.57143 5.25C8.57143 5.8299 9.05111 6.3 9.64286 6.3V4.2ZM10.7143 6.3C11.306 6.3 11.7857 5.8299 11.7857 5.25C11.7857 4.67011 11.306 4.2 10.7143 4.2V6.3ZM2.78572 2.1H12.2143V5.35844e-06H2.78572V2.1ZM12.8571 2.73V19.95H15V2.73H12.8571ZM13.9286 18.9H1.07143V21H13.9286V18.9ZM2.14286 19.95V2.73H5.46305e-06V19.95H2.14286ZM12.2143 2.1C12.532 2.1 12.7059 2.10082 12.8308 2.11082C12.9432 2.11982 12.9187 2.13077 12.8571 2.1L13.83 0.228895C13.5392 0.0836797 13.2501 0.0374062 13.0052 0.0178027C12.7728 -0.000813754 12.4966 5.35844e-06 12.2143 5.35844e-06V2.1ZM15 2.73C15 2.4533 15.0009 2.18263 14.9819 1.95486C14.9619 1.71484 14.9146 1.43162 14.7664 1.14663L12.8571 2.1C12.8257 2.03962 12.8369 2.01571 12.8461 2.12587C12.8563 2.24829 12.8571 2.41865 12.8571 2.73H15ZM12.8571 2.1L14.7664 1.14663C14.561 0.75149 14.2332 0.430222 13.83 0.228895L12.8571 2.1ZM2.78572 5.35844e-06C2.50336 5.35844e-06 2.22717 -0.000813754 1.99476 0.0178027C1.74984 0.0374062 1.46083 0.0836797 1.17003 0.228895L2.14286 2.1C2.08124 2.13077 2.05685 2.11982 2.16925 2.11082C2.29417 2.10082 2.46801 2.1 2.78572 2.1V5.35844e-06ZM2.14286 2.73C2.14286 2.41865 2.1437 2.24829 2.1539 2.12587C2.16308 2.01571 2.17425 2.03962 2.14286 2.1L0.233566 1.14663C0.0853875 1.43162 0.0381699 1.71484 0.0181663 1.95486C-0.000830111 2.18263 5.46305e-06 2.4533 5.46305e-06 2.73H2.14286ZM1.17003 0.228895C0.766816 0.430222 0.439002 0.75148 0.233566 1.14663L2.14286 2.1L1.17003 0.228895ZM4.28572 6.3H5.35714V4.2H4.28572V6.3ZM4.28572 9.45H5.35714V7.35H4.28572V9.45ZM9.64286 9.45H10.7143V7.35H9.64286V9.45ZM9.64286 12.6H10.7143V10.5H9.64286V12.6ZM4.28572 12.6H5.35714V10.5H4.28572V12.6ZM9.64286 6.3H10.7143V4.2H9.64286V6.3ZM8.57143 16.8V19.95H10.7143V16.8H8.57143ZM6.42857 19.95V16.8H4.28572V19.95H6.42857ZM7.5 15.75C8.09175 15.75 8.57143 16.2201 8.57143 16.8H10.7143C10.7143 15.0603 9.27525 13.65 7.5 13.65V15.75ZM7.5 13.65C5.72475 13.65 4.28572 15.0603 4.28572 16.8H6.42857C6.42857 16.2201 6.90825 15.75 7.5 15.75V13.65Z" fill="#787878"/>
</svg>
