<svg width="22" height="19" viewBox="0 0 22 19" fill="none" xmlns="http://www.w3.org/2000/svg">
<path d="M1.82278 4.26233L2.87873 5.17433C1.9494 6.47412 1.4592 7.97237 1.46346 9.5C1.46312 10.9654 1.91563 12.4043 2.77427 13.6682C3.63291 14.9321 4.86657 15.9752 6.34788 16.6898C7.82919 17.4043 9.50447 17.7645 11.2008 17.7331C12.8971 17.7016 14.553 17.2798 15.9974 16.511L17.0607 17.423C15.2633 18.4532 13.1535 19.0018 10.9963 19C9.00947 18.9995 7.05986 18.5342 5.3546 17.6536C3.64933 16.7729 2.25209 15.5098 1.31128 13.9984C0.370478 12.4869 -0.0787524 10.7836 0.0113078 9.06938C0.101368 7.35514 0.727356 5.69397 1.82278 4.26233ZM1.9841 0.817L21.0498 17.2837L20.0086 18.183L0.942821 1.71633L1.9841 0.817ZM10.9963 6.92123e-07C12.9838 -0.000654442 14.9344 0.463793 16.6407 1.34398C18.347 2.22416 19.7453 3.4872 20.687 4.99884C21.6287 6.51048 22.0785 8.21424 21.9888 9.92903C21.899 11.6438 21.273 13.3056 20.1772 14.7377L19.1139 13.8193C20.042 12.5214 20.5321 11.0255 20.5292 9.5C20.5292 7.31638 19.5249 5.2222 17.7371 3.67815C15.9493 2.1341 13.5246 1.26667 10.9963 1.26667C9.22758 1.26299 7.49285 1.68636 5.98791 2.489L4.93929 1.58333C6.73382 0.552094 8.84088 0.0013018 10.9963 6.92123e-07ZM7.40317 10.1333C7.54688 10.7419 7.89461 11.3005 8.40311 11.7397C8.91161 12.1789 9.55842 12.4792 10.263 12.6033V13.889C9.16587 13.7524 8.14937 13.3128 7.36554 12.6358C6.58172 11.9589 6.07269 11.0809 5.91458 10.1333H7.40317ZM11.7296 12.8187L12.7196 13.68C12.3985 13.7781 12.0669 13.8481 11.7296 13.889V12.8187ZM14.8388 10.1333H16.0781C16.0268 10.431 15.9461 10.716 15.8288 10.9883L14.8388 10.1333ZM11.7296 5.111C12.8268 5.24755 13.8433 5.68719 14.6271 6.36416C15.4109 7.04114 15.92 7.91907 16.0781 8.86666H14.5895C14.4458 8.2581 14.0981 7.69947 13.5896 7.26029C13.0811 6.82111 12.4343 6.52078 11.7296 6.39667V5.111ZM6.15657 8.01166L7.15385 8.86666H5.91458C5.96591 8.569 6.04657 8.284 6.15657 8.01166ZM10.263 5.111V6.18133L9.27308 5.32C9.59415 5.22194 9.9258 5.15192 10.263 5.111ZM16.1294 4.43333C16.3239 4.43333 16.5104 4.50006 16.6479 4.61883C16.7855 4.7376 16.8627 4.8987 16.8627 5.06667C16.8627 5.23464 16.7855 5.39573 16.6479 5.5145C16.5104 5.63327 16.3239 5.7 16.1294 5.7C15.9349 5.7 15.7484 5.63327 15.6109 5.5145C15.4734 5.39573 15.3961 5.23464 15.3961 5.06667C15.3961 4.8987 15.4734 4.7376 15.6109 4.61883C15.7484 4.50006 15.9349 4.43333 16.1294 4.43333Z" fill="#787878"/>
</svg>
