<svg width="24" height="24" viewBox="0 0 24 24" fill="none" xmlns="http://www.w3.org/2000/svg">
<path d="M11.9977 8.40283C10.6745 8.40283 9.59766 9.47966 9.59766 10.8029C9.59766 12.1261 10.6745 13.2029 11.9977 13.2029C13.3209 13.2029 14.3977 12.1261 14.3977 10.8029C14.3977 9.47966 13.3209 8.40283 11.9977 8.40283ZM11.9977 12.0029C11.3349 12.0029 10.7977 11.4657 10.7977 10.8029C10.7977 10.14 11.3349 9.60285 11.9977 9.60285C12.6605 9.60285 13.1977 10.14 13.1977 10.8029C13.1977 11.4657 12.6605 12.0029 11.9977 12.0029Z" fill="#A8A8A8"/>
<path d="M23.9141 18.7574L21.6773 13.1654L22.7381 9.9825C22.8601 9.61649 22.7989 9.21406 22.5733 8.90126C22.3481 8.58846 21.9857 8.40283 21.6 8.40283H16.8C16.4144 8.40283 16.052 8.58841 15.8264 8.90126C15.6007 9.21406 15.5396 9.61649 15.6615 9.9825L16.7223 13.1654L15.1255 17.1578L14.3639 14.1118C14.2303 13.5778 13.7507 13.2029 13.1999 13.2029H11.9999H10.7999C10.2491 13.2029 9.76946 13.5778 9.63586 14.1118L9.40627 15.0294L8.38067 9.38806C8.27708 8.81763 7.77987 8.40283 7.19987 8.40283H2.3998C1.81981 8.40283 1.32298 8.81764 1.21938 9.38844L0.0193631 15.9885C-0.0442472 16.3386 0.0505823 16.6989 0.278586 16.9721C0.506589 17.2453 0.844188 17.4029 1.19979 17.4029H1.96658L2.40379 22.8982C2.45338 23.5219 2.9738 24.0031 3.59977 24.0031H5.99981C6.62583 24.0031 7.14662 23.5219 7.19622 22.8983L7.63305 17.403H8.39985C8.55266 17.403 8.69826 17.361 8.83705 17.3058L8.43547 18.9122C8.34589 19.2706 8.42628 19.6507 8.65386 19.9418C8.88145 20.2327 9.2303 20.4031 9.59986 20.4031V22.8031C9.59986 23.4659 10.1371 24.0031 10.7999 24.0031H13.1999C13.8627 24.0031 14.3999 23.4659 14.3999 22.8031V20.4031C14.6127 20.4031 14.81 20.3334 14.99 20.2298C15.1728 20.3386 15.3808 20.4031 15.5999 20.4031H16.8V22.8031C16.8 23.4659 17.3372 24.0031 18 24.0031H20.4C21.0628 24.0031 21.6 23.4659 21.6 22.8031V20.4031H22.8001C23.1985 20.4031 23.5705 20.2055 23.7937 19.8758C24.0169 19.5463 24.0621 19.1271 23.9141 18.7574ZM6.52463 16.203L5.99981 22.8031H3.59977L3.075 16.203H1.19974L2.39976 9.6029H7.19983L8.39985 16.203H6.52463ZM13.1999 19.203V22.8031H10.7999V19.203H9.59986L10.7999 14.403H13.1999L14.3999 19.203H13.1999ZM20.4 19.203V22.8031H18V19.203H15.5999L18 13.2029L16.8 9.6029H21.6L20.4 13.2029L22.8001 19.203H20.4Z" fill="#A8A8A8"/>
<path d="M19.1977 0.000488281C17.2125 0.000488281 15.5977 1.61531 15.5977 3.60054C15.5977 5.58577 17.2125 7.20059 19.1977 7.20059C21.1829 7.20059 22.7978 5.58577 22.7978 3.60054C22.7978 1.61531 21.1829 0.000488281 19.1977 0.000488281ZM19.1977 6.00058C17.8721 6.00058 16.7977 4.92614 16.7977 3.60054C16.7977 2.27494 17.8721 1.20051 19.1977 1.20051C20.5233 1.20051 21.5977 2.27494 21.5977 3.60054C21.5977 4.92614 20.5234 6.00058 19.1977 6.00058Z" fill="#A8A8A8"/>
<path d="M4.80171 0C2.8169 0 1.20166 1.61482 1.20166 3.60005C1.20166 5.58529 2.8169 7.20011 4.80171 7.20011C6.78695 7.20011 8.40177 5.58529 8.40177 3.60005C8.40177 1.61482 6.78695 0 4.80171 0ZM4.80171 6.00009C3.47612 6.00009 2.40168 4.92565 2.40168 3.60005C2.40168 2.27446 3.47612 1.20002 4.80171 1.20002C6.12731 1.20002 7.20175 2.27446 7.20175 3.60005C7.20175 4.92565 6.12736 6.00009 4.80171 6.00009Z" fill="#A8A8A8"/>
</svg>
