<svg width="28" height="28" viewBox="0 0 28 28" fill="none" xmlns="http://www.w3.org/2000/svg">
<path d="M1 14.2661C1 11.2909 1 9.80333 1.67501 8.57013C2.35002 7.33695 3.58323 6.57158 6.04962 5.04087L8.64981 3.42711C11.257 1.80904 12.5606 1 14.001 1C15.4414 1 16.745 1.80904 19.3522 3.42711L21.9524 5.04086C24.4188 6.57158 25.6519 7.33695 26.3269 8.57013C27.002 9.80333 27.002 11.2909 27.002 14.2661V16.2436C27.002 21.3151 27.002 23.8509 25.4788 25.4264C23.9557 27.002 21.5041 27.002 16.6012 27.002H11.4008C6.4978 27.002 4.04632 27.002 2.52316 25.4264C1 23.8509 1 21.3151 1 16.2436V14.2661Z" stroke="#A8A8A8" stroke-width="1.5"/>
<path d="M17.546 22.2725H10.4546" stroke="#A8A8A8" stroke-width="1.5" stroke-linecap="round"/>
</svg>
