<svg width="19" height="21" viewBox="0 0 19 21" fill="none" xmlns="http://www.w3.org/2000/svg">
<path d="M15.7241 1.64343e-06C16.1543 1.64343e-06 16.5803 0.0905318 16.9778 0.266423C17.3752 0.442315 17.7363 0.700123 18.0405 1.02513C18.3447 1.35013 18.586 1.73597 18.7506 2.16061C18.9153 2.58525 19 3.04037 19 3.5C19 7.973 17.9517 12.733 16.3793 13.79V21H15.069V13.79C13.5228 12.754 12.4876 8.141 12.4483 3.738V3.346C12.4854 2.44469 12.8469 1.59353 13.4573 0.970094C14.0676 0.346663 14.8797 -0.000872073 15.7241 1.64343e-06ZM9.82759 1.64343e-06V12.684C11.3476 13.069 12.4483 14.784 12.4483 16.8C12.4483 19.089 11.02 21 9.17241 21C7.32483 21 5.89655 19.089 5.89655 16.8C5.89655 14.791 6.99724 13.069 8.51724 12.684V1.64343e-06H9.82759ZM0 1.64343e-06H0.655172C3.58379 1.64343e-06 5.19552 4.459 5.24138 12.95V14H1.31034V21H0V1.64343e-06ZM9.17241 14C8.12414 14 7.2069 15.225 7.2069 16.8C7.2069 18.375 8.12414 19.6 9.17241 19.6C10.2207 19.6 11.1379 18.375 11.1379 16.8C11.1379 15.225 10.2207 14 9.17241 14ZM1.31034 1.568V12.6H3.93103L3.91793 11.928L3.89828 11.263C3.71483 5.712 2.77793 2.534 1.45448 1.652L1.37586 1.61L1.31034 1.568ZM13.7586 3.374V3.717C13.7914 6.741 14.4334 10.108 15.069 11.69V1.519C14.7039 1.65606 14.3848 1.9052 14.1517 2.23518C13.9186 2.56517 13.7819 2.96133 13.7586 3.374ZM16.3793 1.519V11.69C17.0279 10.073 17.6897 6.58 17.6897 3.5C17.6899 3.06555 17.564 2.64171 17.3293 2.28691C17.0946 1.93212 16.7627 1.66382 16.3793 1.519Z" fill="#787878"/>
</svg>
