<svg width="12" height="13" viewBox="0 0 12 13" fill="none" xmlns="http://www.w3.org/2000/svg">
<path d="M9.47771 9.36822C9.35351 9.17254 8.44325 7.75459 7.66525 7.00455C7.01617 6.38132 6.04464 6.36328 5.9345 6.36328C5.92449 6.36333 5.91442 6.3637 5.90456 6.36449H5.66902C5.56496 6.36449 4.63262 6.38221 3.9507 6.99605C3.10935 7.75428 2.17842 9.28357 2.11328 9.39135C1.62012 10.1711 1.31787 10.6782 1.31787 11.242C1.31787 12.2579 2.06225 12.9144 3.21424 12.9144H8.39132C9.543 12.9144 10.2872 12.2573 10.2872 11.2403C10.2872 10.6715 9.98419 10.1652 9.48972 9.38616C9.48584 9.38008 9.48185 9.37404 9.47771 9.36822ZM8.39132 12.1277H3.21424C2.79981 12.1277 2.10457 12.0126 2.10457 11.242C2.10457 10.9127 2.32097 10.5345 2.78035 9.80841C2.78187 9.806 2.78339 9.80353 2.78491 9.80107C2.79409 9.78586 3.7096 8.27245 4.47722 7.58068C4.9453 7.15932 5.66236 7.1513 5.66933 7.15124H5.93576C5.94326 7.15124 5.95066 7.15103 5.9581 7.15061C6.08613 7.15544 6.73112 7.19818 7.11991 7.57145C7.86901 8.29374 8.8152 9.79241 8.82469 9.80747C8.82894 9.81423 8.83334 9.82079 8.83796 9.82719C9.32656 10.598 9.50052 10.9295 9.50052 11.2402C9.50047 11.9737 8.89728 12.1277 8.39132 12.1277Z" fill="#851D5D"/>
<path d="M3.90304 5.41038C4.79091 5.41038 5.48635 4.42276 5.48635 3.16199C5.48641 1.90148 4.79091 0.914062 3.90304 0.914062C3.01527 0.914062 2.31982 1.90148 2.31982 3.16199C2.31982 4.42281 3.01527 5.41038 3.90304 5.41038ZM3.90304 1.70077C4.27981 1.70077 4.69965 2.30086 4.69965 3.16199C4.69965 4.02337 4.27976 4.62368 3.90304 4.62368C3.52631 4.62368 3.10647 4.02337 3.10647 3.16199C3.10653 2.30086 3.52631 1.70077 3.90304 1.70077Z" fill="#851D5D"/>
<path d="M1.83011 8.11327C1.98488 8.11327 2.13273 8.08143 2.27135 8.01781C2.96165 7.69684 3.15387 6.68949 2.70875 5.72426C2.36339 4.97679 1.72448 4.47461 1.11877 4.47461C0.963847 4.47461 0.815789 4.50655 0.678169 4.56991C-0.0130804 4.88978 -0.205927 5.89734 0.239294 6.86424C0.584656 7.6113 1.22393 8.11321 1.83001 8.11327H1.83011ZM0.95362 6.53467C0.6874 5.95649 0.762975 5.39746 1.0078 5.28423C1.04131 5.26881 1.07755 5.26131 1.11872 5.26131C1.36575 5.26131 1.75658 5.53918 1.99443 6.05394C2.26065 6.63128 2.18507 7.19036 1.9414 7.30364C1.90773 7.31906 1.87133 7.32662 1.83006 7.32662C1.58272 7.32656 1.19141 7.04881 0.95362 6.53467Z" fill="#851D5D"/>
<path d="M7.69998 5.41038C8.58754 5.41038 9.28283 4.42276 9.28283 3.16199C9.28283 1.90148 8.58754 0.914062 7.69998 0.914062C6.81159 0.914062 6.11572 1.90148 6.11572 3.16199C6.11572 4.42281 6.81159 5.41038 7.69998 5.41038ZM7.69998 1.70077C8.07655 1.70077 8.49613 2.30086 8.49613 3.16199C8.49613 4.02337 8.07655 4.62368 7.69998 4.62368C7.32279 4.62368 6.90243 4.02337 6.90243 3.16199C6.90243 2.30086 7.32279 1.70077 7.69998 1.70077Z" fill="#851D5D"/>
<path d="M10.9268 4.57043C10.7895 4.50686 10.6411 4.47461 10.4857 4.47461C9.88083 4.47461 9.24214 4.97694 8.89656 5.72426C8.44946 6.68907 8.64152 7.69679 9.33544 8.01912C9.47227 8.0819 9.62017 8.11374 9.77494 8.11374C10.3812 8.11374 11.0203 7.61172 11.3653 6.86435C11.8109 5.89812 11.6182 4.89046 10.9268 4.57043ZM10.651 6.53472C10.4134 7.04933 10.0223 7.32698 9.77494 7.32698C9.73362 7.32698 9.69722 7.31948 9.66517 7.3048C9.41888 7.19041 9.3431 6.63164 9.61047 6.05473C9.84879 5.53933 10.2392 5.26126 10.4857 5.26126C10.5266 5.26126 10.5627 5.26876 10.5962 5.28423C10.8418 5.39804 10.9174 5.95702 10.651 6.53472Z" fill="#851D5D"/>
</svg>
