<svg width="20" height="24" viewBox="0 0 20 24" fill="none" xmlns="http://www.w3.org/2000/svg">
<path d="M7.00005 11.8013C7.00005 13.4581 5.65689 14.8013 4.00002 14.8013C2.34316 14.8013 1 13.4581 1 11.8013C1 10.1444 2.34316 8.80127 4.00002 8.80127C5.65689 8.80127 7.00005 10.1444 7.00005 11.8013Z" stroke="#841D5D"/>
<path d="M13.001 5.19971L7.00098 9.39974" stroke="#841D5D" stroke-linecap="round"/>
<path d="M13.001 18.4007L7.00098 14.2007" stroke="#841D5D" stroke-linecap="round"/>
<path d="M19 19.6001C19 21.257 17.6569 22.6001 16 22.6001C14.3432 22.6001 13 21.257 13 19.6001C13 17.9433 14.3432 16.6001 16 16.6001C17.6569 16.6001 19 17.9433 19 19.6001Z" stroke="#841D5D"/>
<path d="M19 4.00002C19 5.65689 17.6569 7.00005 16 7.00005C14.3432 7.00005 13 5.65689 13 4.00002C13 2.34316 14.3432 1 16 1C17.6569 1 19 2.34316 19 4.00002Z" stroke="#841D5D"/>
</svg>
