<svg width="112" height="112" viewBox="0 0 112 112" fill="none" xmlns="http://www.w3.org/2000/svg">
<path d="M35 59.4L47 71L77 42" stroke="#1C274C" stroke-width="4" stroke-linecap="round" stroke-linejoin="round"/>
<path d="M3.43215 62.3174C1.52262 58.3221 1.52262 53.6777 3.43215 49.6825C4.25779 47.955 5.66567 46.3031 8.48147 42.999C9.60216 41.684 10.1625 41.0264 10.6332 40.3242C11.7122 38.7144 12.461 36.9066 12.8363 35.0054C13.0001 34.176 13.0688 33.3148 13.2062 31.5924C13.5515 27.265 13.7242 25.1013 14.3618 23.296C15.8366 19.1207 19.1207 15.8366 23.296 14.3618C25.1012 13.7242 27.265 13.5515 31.5924 13.2062C33.3148 13.0688 34.176 13.0001 35.0054 12.8363C36.9066 12.461 38.7144 11.7121 40.3241 10.6332C41.0264 10.1625 41.6839 9.60215 42.999 8.48146C46.3032 5.66566 47.955 4.25778 49.6825 3.43219C53.6777 1.5226 58.3222 1.5226 62.3174 3.43219C64.0449 4.25778 65.6967 5.66566 69.0011 8.48146C70.316 9.60215 70.9735 10.1625 71.6761 10.6332C73.2858 11.7121 75.0935 12.461 76.9944 12.8363C77.8242 13.0001 78.685 13.0688 80.4078 13.2062C84.7352 13.5515 86.8986 13.7242 88.704 14.3618C92.8791 15.8366 96.1636 19.1207 97.6385 23.296M14.3618 88.704C15.8366 92.8791 19.1207 96.1636 23.296 97.6385C25.1012 98.276 27.265 98.4483 31.5924 98.794C33.3148 98.9311 34.176 99.0003 35.0054 99.1638C36.9066 99.5394 38.7144 100.288 40.3241 101.367C41.0264 101.838 41.6839 102.398 42.999 103.519C46.3032 106.334 47.955 107.743 49.6825 108.568C53.6777 110.477 58.3222 110.477 62.3174 108.568C64.0449 107.743 65.6967 106.334 69.0011 103.519C70.316 102.398 70.9735 101.838 71.6761 101.367C73.2858 100.288 75.0935 99.5394 76.9944 99.1638C77.8242 99.0003 78.685 98.9311 80.4078 98.794C84.7352 98.4483 86.8986 98.276 88.704 97.6385C92.8791 96.1636 96.1636 92.8791 97.6385 88.704C98.276 86.8986 98.4483 84.7352 98.794 80.4077C98.9311 78.6855 98.9997 77.8241 99.1638 76.995C99.5388 75.0935 100.288 73.2857 101.367 71.676C101.838 70.9734 102.398 70.316 103.519 69.001C106.334 65.6967 107.743 64.0448 108.568 62.3174C110.477 58.3221 110.477 53.6777 108.568 49.6825" stroke="#1C274C" stroke-width="4" stroke-linecap="round"/>
</svg>
