<svg width="23" height="19" viewBox="0 0 23 19" fill="none" xmlns="http://www.w3.org/2000/svg">
<path d="M6.13333 19V17.5385H7.66667V16.0769H3.83333C2.84523 16.0778 1.89492 15.715 1.18069 15.0642C0.466459 14.4134 0.0434779 13.5248 1.79995e-06 12.5838V3.65385C-0.000955128 2.71201 0.379679 1.8062 1.06248 1.12541C1.74529 0.444619 2.67752 0.0414422 3.66467 1.71567e-06H19.1667C20.1548 -0.000910406 21.1051 0.361901 21.8193 1.01274C22.5335 1.66357 22.9565 2.55215 23 3.49308V12.4231C23.001 13.3649 22.6203 14.2707 21.9375 14.9515C21.2547 15.6323 20.3225 16.0355 19.3353 16.0769H15.3333V17.5385H16.8667V19H6.13333ZM13.8 16.0769H9.2V17.5385H13.8V16.0769ZM19.1667 1.46154H3.83333C3.24651 1.46053 2.68148 1.67336 2.2539 2.05647C1.82632 2.43957 1.56854 2.96397 1.53333 3.52231V12.4231C1.53228 12.9824 1.75557 13.521 2.15749 13.9286C2.55941 14.3361 3.10957 14.5818 3.69533 14.6154H19.1667C19.7535 14.6164 20.3185 14.4036 20.7461 14.0205C21.1737 13.6374 21.4315 13.113 21.4667 12.5546V3.65385C21.4677 3.0945 21.2444 2.55592 20.8425 2.14836C20.4406 1.74081 19.8904 1.4951 19.3047 1.46154H19.1667Z" fill="#787878"/>
</svg>
