<svg width="20" height="18" viewBox="0 0 20 18" fill="none" xmlns="http://www.w3.org/2000/svg">
<path d="M17.35 0C17.8651 0.00161582 18.3622 0.170145 18.7505 0.47473C19.1388 0.779316 19.3922 1.19958 19.4643 1.65857C19.8214 3.94714 20 6.39643 20 9C20 11.6036 19.8214 14.0529 19.4643 16.3414C19.3944 16.7813 19.1579 17.1859 18.7948 17.487C18.4317 17.788 17.9642 17.9669 17.4714 17.9936L17.35 18H2.64286C2.1278 17.9984 1.63061 17.8299 1.24234 17.5253C0.854064 17.2207 0.600677 16.8004 0.528571 16.3414C0.178571 14.0529 0 11.6036 0 9C0 6.39643 0.178571 3.94714 0.535714 1.65857C0.605589 1.21872 0.842072 0.814082 1.20519 0.513049C1.5683 0.212016 2.03577 0.0330581 2.52857 0.00642857L2.64286 0H17.35ZM17.35 1.28571H2.65714C2.48382 1.28418 2.31579 1.33942 2.18437 1.44114C2.05295 1.54285 1.96712 1.68411 1.94286 1.83857C1.58773 4.21215 1.41589 6.60503 1.42857 9C1.42857 11.5457 1.6 13.9307 1.95 16.1614C1.97243 16.3013 2.04546 16.4307 2.1578 16.5294C2.27013 16.6282 2.41551 16.6909 2.57143 16.7079L2.65 16.7143H17.3429C17.5162 16.7158 17.6842 16.6606 17.8156 16.5589C17.947 16.4571 18.0329 16.3159 18.0571 16.1614C18.4 13.9307 18.5714 11.5457 18.5714 9C18.5714 6.45429 18.4 4.06929 18.05 1.83857C18.0263 1.68738 17.9435 1.54871 17.8166 1.44742C17.6896 1.34612 17.5268 1.2888 17.3571 1.28571H17.35ZM10 3.21429C11.705 3.21429 13.3401 3.82385 14.5457 4.90888C15.7513 5.99391 16.4286 7.46553 16.4286 9C16.4286 10.5345 15.7513 12.0061 14.5457 13.0911C13.3401 14.1761 11.705 14.7857 10 14.7857C8.29504 14.7857 6.6599 14.1761 5.45431 13.0911C4.24872 12.0061 3.57143 10.5345 3.57143 9C3.57143 7.46553 4.24872 5.99391 5.45431 4.90888C6.6599 3.82385 8.29504 3.21429 10 3.21429ZM5.82857 8.03571C5.58571 8.03571 5.34286 8.04857 5.1 8.08071C4.85453 9.14871 5.04837 10.2606 5.64548 11.2096C6.24258 12.1586 7.20231 12.8802 8.3462 13.2401C9.49009 13.6001 10.7403 13.5739 11.8643 13.1664C12.9884 12.759 13.9098 11.998 14.4571 11.025C13.5633 11.0912 12.6638 10.99 11.8156 10.7278C10.9673 10.4655 10.1886 10.048 9.52857 9.50143L9.36429 9.35357C8.90066 8.93486 8.34956 8.60285 7.74274 8.37667C7.13592 8.1505 6.48537 8.03462 5.82857 8.03571ZM10 4.5C9.12137 4.49912 8.25799 4.70663 7.49683 5.10163C6.73567 5.49663 6.1036 6.06517 5.66429 6.75H5.82857C7.44286 6.75 9 7.29 10.2 8.29286L10.3714 8.44714C10.9594 8.97823 11.6858 9.36827 12.4844 9.58164C13.2829 9.795 14.1282 9.82489 14.9429 9.66857C15.0497 9.02842 15.0019 8.37504 14.8026 7.75305C14.6032 7.13106 14.2572 6.55509 13.788 6.06446C13.3188 5.57382 12.7375 5.18007 12.0837 4.91008C11.43 4.64009 10.7193 4.50021 10 4.5ZM3.57143 2.57143C3.76087 2.57143 3.94255 2.63916 4.0765 2.75972C4.21046 2.88028 4.28571 3.04379 4.28571 3.21429C4.28571 3.38478 4.21046 3.5483 4.0765 3.66885C3.94255 3.78941 3.76087 3.85714 3.57143 3.85714C3.38199 3.85714 3.20031 3.78941 3.06635 3.66885C2.9324 3.5483 2.85714 3.38478 2.85714 3.21429C2.85714 3.04379 2.9324 2.88028 3.06635 2.75972C3.20031 2.63916 3.38199 2.57143 3.57143 2.57143Z" fill="#787878"/>
</svg>
