<svg width="23" height="17" viewBox="0 0 23 17" fill="none" xmlns="http://www.w3.org/2000/svg">
<path d="M11.5 11.6538C12.2102 11.6538 12.8914 11.9354 13.3936 12.4367C13.8958 12.938 14.178 13.618 14.178 14.3269C14.178 15.0359 13.8958 15.7158 13.3936 16.2171C12.8914 16.7184 12.2102 17 11.5 17C10.7898 17 10.1086 16.7184 9.60638 16.2171C9.10416 15.7158 8.82202 15.0359 8.82202 14.3269C8.82202 13.618 9.10416 12.938 9.60638 12.4367C10.1086 11.9354 10.7898 11.6538 11.5 11.6538ZM11.5 13.1105C11.1768 13.1105 10.8669 13.2387 10.6383 13.4668C10.4098 13.6949 10.2814 14.0043 10.2814 14.3269C10.2814 14.6495 10.4098 14.9589 10.6383 15.187C10.8669 15.4151 11.1768 15.5433 11.5 15.5433C11.8232 15.5433 12.1331 15.4151 12.3617 15.187C12.5902 14.9589 12.7186 14.6495 12.7186 14.3269C12.7186 14.0043 12.5902 13.6949 12.3617 13.4668C12.1331 13.2387 11.8232 13.1105 11.5 13.1105ZM11.5 7.77164C12.7172 7.77195 13.9105 8.10993 14.9464 8.74787C15.9824 9.38581 16.8203 10.2986 17.3668 11.3843L16.2649 12.4841C15.8934 11.5239 15.2394 10.6983 14.3889 10.1161C13.5384 9.53393 12.5313 9.22234 11.5 9.22234C10.4687 9.22234 9.4616 9.53393 8.61111 10.1161C7.76062 10.6983 7.1066 11.5239 6.73509 12.4841L5.63325 11.3843C6.17966 10.2986 7.01762 9.38581 8.05358 8.74787C9.08955 8.10993 10.2828 7.77195 11.5 7.77164ZM11.5 3.88946C15.1339 3.88946 18.3372 5.7395 20.2126 8.55099L19.1545 9.59983C18.3483 8.29716 17.2219 7.22185 15.8822 6.47607C14.5425 5.7303 13.034 5.33881 11.5 5.33881C9.96603 5.33881 8.45753 5.7303 7.11782 6.47607C5.7781 7.22185 4.65165 8.29716 3.8455 9.59983L2.78744 8.5437C3.74142 7.10928 5.0363 5.93289 6.55655 5.1195C8.0768 4.30612 9.77513 3.88103 11.5 3.88218V3.88946ZM11.5 0C16.2065 0 20.3877 2.25793 23 5.75407L21.9565 6.80291C20.7647 5.14571 19.1947 3.79559 17.3764 2.86427C15.5581 1.93295 13.5437 1.4472 11.5 1.4472C9.45628 1.4472 7.44193 1.93295 5.62361 2.86427C3.80529 3.79559 2.23528 5.14571 1.04346 6.80291L0 5.76135C2.61231 2.26521 6.78617 0.0072838 11.5 0.0072838V0Z" fill="#787878"/>
</svg>
