<svg width="23" height="21" viewBox="0 0 23 21" fill="none" xmlns="http://www.w3.org/2000/svg">
<path d="M19.1667 0C19.3172 0.000115845 19.4643 0.0420623 19.5897 0.120611C19.7151 0.19916 19.8133 0.310837 19.872 0.441724L19.9027 0.528621L21.436 5.59759C21.4655 5.69839 21.4715 5.80404 21.4537 5.90727C21.4359 6.01049 21.3946 6.10884 21.3326 6.19554C21.2707 6.28225 21.1896 6.35525 21.095 6.40954C21.0003 6.46382 20.8943 6.49809 20.7843 6.51L20.7 6.51724H18.4V10.1379H23V11.5862H21.4667V21H19.9333V19.1607C19.5283 19.3831 19.0744 19.5144 18.607 19.5445L18.4 19.5517H4.6C4.06131 19.5515 3.53227 19.4166 3.06667 19.1607V21H1.53333V11.5862H0V10.1379H3.83333V7.24138C3.83197 7.06347 3.9 6.89132 4.02443 6.75776C4.14887 6.6242 4.321 6.53859 4.508 6.51724H4.784L3.90233 4.63448L5.29767 4.05517L6.463 6.51724H8.43333C8.62169 6.51596 8.80395 6.58021 8.94535 6.69774C9.08675 6.81527 9.1774 6.97786 9.2 7.15448V10.1379H16.8667V6.51724H14.5667C14.4554 6.51754 14.3454 6.49498 14.2444 6.45111C14.1433 6.40724 14.0535 6.34312 13.9813 6.26319C13.9091 6.18327 13.8561 6.08946 13.8262 5.98828C13.7962 5.88709 13.7899 5.78096 13.8077 5.67724L13.8307 5.59759L15.364 0.528621C15.4051 0.391504 15.4882 0.268894 15.6027 0.17615C15.7173 0.0834054 15.8582 0.0246494 16.008 0.00724137L16.1 0H19.1667ZM19.9333 11.5862H3.06667V16.6552C3.06618 17.002 3.19746 17.3374 3.43663 17.6005C3.67581 17.8636 4.007 18.0369 4.37 18.089L4.485 18.0962L4.6 18.1034H18.4C18.7875 18.1045 19.161 17.9669 19.4455 17.7184C19.73 17.4698 19.9043 17.1288 19.9333 16.7638V11.5862ZM7.66667 7.96552H5.36667V10.1379H7.66667V7.96552ZM18.584 1.44828H16.675L15.5787 5.06897H19.6803L18.584 1.44828Z" fill="#787878"/>
</svg>
