<svg width="15" height="15" viewBox="0 0 15 15" fill="none" xmlns="http://www.w3.org/2000/svg">
<path d="M13.9951 3.75002L12.2546 2.74512L11.2499 1.0049H9.24043L7.49996 0L5.75948 1.0049H3.74998L2.74507 2.74538L1.0049 3.75002V5.75953L0 7.5L1.0049 9.24047V11.25L2.74538 12.2549L3.75028 13.9954H5.75979L7.5 15L9.24047 13.9951H11.25L12.2549 12.2546L13.9954 11.2497V9.24021L15.0003 7.49974L13.9954 5.75927V3.75002H13.9951ZM6.82305 10.5697C6.6832 10.7095 6.49897 10.7775 6.31555 10.7749C6.13209 10.7775 5.9479 10.7095 5.80805 10.5697L3.61457 8.37619C3.3398 8.10142 3.3398 7.65567 3.61457 7.3809L4.19525 6.80022C4.47002 6.52545 4.91577 6.52545 5.19055 6.80022L6.31555 7.92523L9.80919 4.43132C10.084 4.15655 10.5297 4.15655 10.8045 4.43132L11.3852 5.012C11.6599 5.28677 11.6599 5.73252 11.3852 6.0073L6.82305 10.5697Z" fill="#769E21"/>
</svg>
