<svg width="19" height="19" viewBox="0 0 19 19" fill="none" xmlns="http://www.w3.org/2000/svg">
<path fill-rule="evenodd" clip-rule="evenodd" d="M3.65434 1.32557C2.85627 1.32557 2.2093 1.97253 2.2093 2.77058V8.83714H2.46054C2.47014 8.83714 2.47971 8.83714 2.48922 8.83714C2.49393 8.83714 2.49862 8.83714 2.5033 8.83714H16.5107C16.5203 8.83714 16.5298 8.83714 16.5395 8.83714H18.3372C18.7032 8.83714 19 9.13389 19 9.49992C19 9.86596 18.7032 10.1627 18.3372 10.1627H18.1005C18.1062 10.2024 18.1104 10.2427 18.113 10.2832C18.1164 10.3343 18.1163 10.3895 18.1163 10.4427V10.4762C18.1163 10.8077 18.1163 11.0021 18.1025 11.2189C17.9771 13.1952 16.9091 15.0202 15.3614 16.2135C15.3735 16.2326 15.3848 16.2526 15.3951 16.2732L16.2788 18.0407C16.4426 18.3681 16.3099 18.7662 15.9824 18.9299C15.655 19.0936 15.2569 18.9609 15.0932 18.6335L14.2381 16.9231C13.5295 17.2818 12.759 17.5179 11.9575 17.599C11.7415 17.6209 11.6096 17.6258 11.385 17.6342L11.3791 17.6345C10.7249 17.6591 10.0846 17.6743 9.5 17.6743C8.91542 17.6743 8.27507 17.6591 7.62093 17.6345L7.61501 17.6342C7.39036 17.6258 7.25851 17.6209 7.04246 17.599C6.24103 17.5179 5.47048 17.2818 4.76194 16.9231L3.90677 18.6335C3.74307 18.9609 3.34495 19.0936 3.01754 18.9299C2.69014 18.7662 2.55744 18.3681 2.72114 18.0407L3.60486 16.2732C3.6152 16.2526 3.62649 16.2326 3.63863 16.2135C2.09085 15.0202 1.02291 13.1952 0.897472 11.2189C0.883712 11.0021 0.883712 10.8076 0.883721 10.4761V10.4567C0.883721 10.452 0.883721 10.4474 0.883712 10.4427C0.883712 10.4263 0.883703 10.4098 0.883792 10.3932C0.883748 10.39 0.883721 10.3868 0.883721 10.3836V10.1627H0.662791C0.296745 10.1627 0 9.86596 0 9.49992C0 9.13389 0.296745 8.83714 0.662791 8.83714H0.883721V2.77058C0.883721 1.24043 2.12416 0 3.65434 0C4.78725 0 5.80603 0.689739 6.22678 1.74161L6.32411 1.98494C7.02516 1.8071 7.78585 1.8483 8.5029 2.15461C9.40014 2.53793 10.053 3.26116 10.3873 4.10974C10.5186 4.44282 10.3616 4.81992 10.0328 4.96149L4.76516 7.22917C4.6004 7.30009 4.41395 7.30122 4.24836 7.23228C4.08276 7.16335 3.95219 7.03025 3.88643 6.86337C3.5522 6.01513 3.53216 5.03288 3.9036 4.11823C4.16801 3.46712 4.59724 2.9333 5.12262 2.55046L4.99601 2.23392C4.77656 1.68531 4.24521 1.32557 3.65434 1.32557ZM2.5033 10.1627C2.46789 10.1627 2.44682 10.1627 2.4309 10.1629C2.41932 10.1631 2.41519 10.1632 2.41504 10.1632C2.41446 10.1632 2.415 10.1632 2.41504 10.1632C2.30452 10.1704 2.21729 10.2582 2.20981 10.3687C2.20976 10.3698 2.20961 10.3742 2.2095 10.3843C2.20931 10.4003 2.2093 10.4213 2.2093 10.4567C2.2093 10.8125 2.20958 10.9645 2.22039 11.1349C2.38426 13.7168 4.60208 16.0195 7.17603 16.2802C7.34832 16.2976 7.44368 16.3013 7.67069 16.3099C8.31405 16.334 8.93698 16.3487 9.5 16.3487C10.063 16.3487 10.686 16.334 11.3293 16.3099C11.5563 16.3013 11.6517 16.2976 11.824 16.2802C14.3979 16.0195 16.6157 13.7168 16.7796 11.1349C16.7904 10.9645 16.7907 10.8125 16.7907 10.4567C16.7907 10.4213 16.7907 10.4003 16.7905 10.3843C16.7904 10.3753 16.7903 10.3708 16.7903 10.3692C16.7902 10.3681 16.7902 10.3682 16.7903 10.3692C16.783 10.2585 16.6948 10.1704 16.5841 10.1631C16.5851 10.1632 16.5854 10.1632 16.5841 10.1631C16.5823 10.1631 16.5777 10.163 16.5691 10.1629C16.5532 10.1627 16.5321 10.1627 16.4967 10.1627H2.5033ZM7.98212 3.3736C7.40122 3.12545 6.7733 3.15997 6.23653 3.42127C5.76033 3.6531 5.35639 4.06385 5.13178 4.61697C4.98727 4.9728 4.93502 5.34343 4.9634 5.70064L8.83509 4.0339C8.61469 3.74994 8.3258 3.52045 7.98212 3.3736Z" fill="#042E60"/>
</svg>
