<svg width="26" height="22" viewBox="0 0 26 22" fill="none" xmlns="http://www.w3.org/2000/svg">
<path d="M21.3876 0H3.655C2.68564 0 1.75597 0.38508 1.07053 1.07053C0.38508 1.75597 0 2.68564 0 3.655V20.8619C0 21.0832 0.0879177 21.2955 0.244412 21.452C0.400907 21.6085 0.613159 21.6964 0.834476 21.6964H4.17238C4.363 21.7019 4.54978 21.642 4.70161 21.5266C4.85344 21.4112 4.96117 21.2473 5.00685 21.0622L5.65775 18.3585H19.3765L20.0274 21.0622C20.0731 21.2473 20.1808 21.4112 20.3327 21.5266C20.4845 21.642 20.6713 21.7019 20.8619 21.6964H24.1998C24.4211 21.6964 24.6334 21.6085 24.7899 21.452C24.9464 21.2955 25.0343 21.0832 25.0343 20.8619V3.655C25.0343 2.68708 24.6503 1.75868 23.9667 1.07347C23.2831 0.388265 22.3555 0.00220987 21.3876 0ZM5.00685 16.6895H1.66895V12.5171H23.3653V16.6895H5.00685ZM5.84133 7.9609V7.05966C5.84346 6.95853 5.88459 6.86212 5.95612 6.79059C6.02765 6.71906 6.12405 6.67794 6.22519 6.67581H9.62985C9.73099 6.67794 9.82739 6.71906 9.89892 6.79059C9.97045 6.86212 10.0116 6.95853 10.0137 7.05966V7.9609C10.0116 8.06204 9.97045 8.15844 9.89892 8.22997C9.82739 8.3015 9.73099 8.34263 9.62985 8.34476H6.22519C6.12405 8.34263 6.02765 8.3015 5.95612 8.22997C5.88459 8.15844 5.84346 8.06204 5.84133 7.9609ZM4.43107 10.0137H20.6032C20.6718 10.0137 20.7376 10.041 20.7861 10.0895C20.8346 10.138 20.8619 10.2038 20.8619 10.2724V10.8482H4.17238V10.2724C4.17238 10.2038 4.19963 10.138 4.24815 10.0895C4.29666 10.041 4.36246 10.0137 4.43107 10.0137ZM15.0206 7.9609V7.05966C15.0227 6.95853 15.0638 6.86212 15.1353 6.79059C15.2069 6.71906 15.3033 6.67794 15.4044 6.67581H18.8091C18.9102 6.67794 19.0066 6.71906 19.0782 6.79059C19.1497 6.86212 19.1908 6.95853 19.1929 7.05966V7.9609C19.1908 8.06204 19.1497 8.15844 19.0782 8.22997C19.0066 8.3015 18.9102 8.34263 18.8091 8.34476H15.4044C15.3033 8.34263 15.2069 8.3015 15.1353 8.22997C15.0638 8.15844 15.0227 8.06204 15.0206 7.9609ZM1.66895 3.655C1.67115 3.12895 1.8811 2.62506 2.25308 2.25308C2.62506 1.8811 3.12895 1.67115 3.655 1.66895H21.3876C21.9129 1.67116 22.4159 1.88138 22.7866 2.25359C23.1572 2.62581 23.3653 3.12971 23.3653 3.655V10.8482H22.5308V10.2724C22.5369 9.80248 22.3703 9.34668 22.0627 8.99139C21.7551 8.6361 21.3278 8.40602 20.8619 8.34476C20.8886 8.21006 20.9025 8.07317 20.9036 7.93586V7.05966C20.9037 6.78654 20.8492 6.51615 20.7435 6.26433C20.6377 6.01251 20.4827 5.78433 20.2877 5.59316C20.0926 5.40198 19.8614 5.25165 19.6075 5.15097C19.3536 5.0503 19.0822 5.0013 18.8091 5.00685H15.4044C15.1348 5.00685 14.8679 5.05995 14.6188 5.16312C14.3698 5.26628 14.1435 5.41749 13.9529 5.60811C13.7622 5.79873 13.611 6.02503 13.5079 6.27409C13.4047 6.52315 13.3516 6.79009 13.3516 7.05966V7.9609C13.3526 8.08993 13.3666 8.21852 13.3933 8.34476H11.6827C11.7094 8.21852 11.7234 8.08993 11.7244 7.9609V7.05966C11.7244 6.78654 11.67 6.51615 11.5642 6.26433C11.4585 6.01251 11.3035 5.78433 11.1085 5.59316C10.9134 5.40198 10.6821 5.25165 10.4282 5.15097C10.1744 5.0503 9.90292 5.0013 9.62985 5.00685H6.22519C5.68075 5.00685 5.15861 5.22313 4.77363 5.60811C4.38866 5.99309 4.17238 6.51523 4.17238 7.05966V7.9609C4.15965 8.0969 4.15965 8.23379 4.17238 8.36979C3.71074 8.43052 3.28692 8.657 2.97987 9.00703C2.67283 9.35707 2.5035 9.80678 2.50343 10.2724V10.8482H1.66895V3.655ZM3.52149 20.0274H1.66895V18.3585H3.93872L3.52149 20.0274ZM23.3653 20.0274H21.5128L21.0955 18.3585H23.3653V20.0274Z" fill="#A8A8A8"/>
</svg>
