<svg width="23" height="21" viewBox="0 0 23 21" fill="none" xmlns="http://www.w3.org/2000/svg">
<path fill-rule="evenodd" clip-rule="evenodd" d="M7.54774 0.000133739C7.58733 0.000212487 7.62698 0.000277994 7.66667 0.000277994C7.70641 0.000277994 7.74602 0.000212487 7.78563 0.000133739C8.25674 -0.000666866 8.71981 -0.00145471 9.13228 0.112074C10.2347 0.415477 11.0957 1.29991 11.3911 2.43221C11.5017 2.85593 11.5009 3.33158 11.5001 3.81552C11.5001 3.85619 11.5 3.89691 11.5 3.93768H21.7222C22.4279 3.93768 23 4.52528 23 5.25015C23 5.975 22.4279 6.56261 21.7222 6.56261H11.5C11.5 6.60338 11.5001 6.6441 11.5001 6.68478C11.5009 7.16871 11.5017 7.64436 11.3911 8.06813C11.0957 9.2004 10.2347 10.0849 9.13228 10.3882C8.71981 10.5017 8.25674 10.5009 7.78563 10.5001C7.74602 10.5001 7.70641 10.5 7.66667 10.5C7.62698 10.5 7.58733 10.5001 7.54773 10.5001C7.07659 10.5009 6.61351 10.5017 6.20099 10.3882C5.09861 10.0849 4.23756 9.2004 3.94219 8.06813C3.83165 7.64435 3.83241 7.16871 3.83321 6.68476C3.83327 6.6441 3.83333 6.60337 3.83333 6.56261H1.27778C0.572087 6.56261 0 5.975 0 5.25015C0 4.52528 0.572087 3.93768 1.27778 3.93768H3.83333C3.83333 3.89691 3.83327 3.85619 3.83321 3.81552C3.83241 3.33158 3.83165 2.85593 3.94219 2.43221C4.23756 1.29991 5.09861 0.415477 6.20099 0.112074C6.61351 -0.00145471 7.07659 -0.000666866 7.54774 0.000133739ZM7.026 2.63223C6.88971 2.63861 6.85764 2.64889 6.86242 2.64756C6.64194 2.70825 6.46973 2.88513 6.41066 3.1116C6.40959 3.11621 6.40119 3.15653 6.39573 3.27961C6.3892 3.42664 6.38889 3.62064 6.38889 3.93768V6.56261C6.38889 6.87964 6.3892 7.07364 6.39573 7.22067C6.40194 7.36066 6.41194 7.39359 6.41066 7.38869C6.46973 7.61515 6.64194 7.79204 6.86242 7.85272C6.85764 7.8514 6.88971 7.86167 7.026 7.86806C7.16914 7.87477 7.35801 7.87507 7.66667 7.87507C7.97538 7.87507 8.16423 7.87477 8.30734 7.86806C8.44355 7.86167 8.47563 7.8514 8.4709 7.85272C8.69144 7.79204 8.86356 7.61515 8.92272 7.38869C8.92144 7.39359 8.93141 7.36066 8.93754 7.22067C8.94419 7.07364 8.94444 6.87964 8.94444 6.56261V3.93768C8.94444 3.62064 8.94419 3.42664 8.93754 3.27961C8.94444 2.74334 8.46962 2.6203 8.4709 2.62521M7.026 2.63223C7.16914 2.62553 7.35801 2.62521 7.66667 2.62521L7.026 2.63223ZM7.66667 2.62521C7.97538 2.62521 8.16423 2.62553 8.30734 2.63223L7.66667 2.62521ZM8.30734 2.63223C8.4272 2.63784 8.46643 2.64646 8.4709 2.64756L8.30734 2.63223ZM15.2144 10.4999C15.254 10.5 15.2936 10.5 15.3333 10.5C15.3731 10.5 15.4127 10.5 15.4523 10.4999C15.9234 10.4991 16.3865 10.4983 16.7989 10.6118C17.9014 10.9153 18.7624 11.7996 19.0578 12.932C19.1683 13.3557 19.1676 13.8313 19.1668 14.3152C19.1668 14.3559 19.1667 14.3966 19.1667 14.4374H21.7222C22.4279 14.4374 23 15.025 23 15.7499C23 16.4747 22.4279 17.0623 21.7222 17.0623H19.1667C19.1667 17.1032 19.1668 17.1438 19.1668 17.1845C19.1676 17.6684 19.1683 18.1441 19.0578 18.5679C18.7624 19.7001 17.9014 20.5846 16.7989 20.8879C16.3865 21.0014 15.9234 21.0007 15.4523 20.9999C15.4127 20.9999 15.3731 20.9997 15.3333 20.9997C15.2936 20.9997 15.254 20.9999 15.2144 20.9999C14.7433 21.0007 14.2802 21.0014 13.8677 20.8879C12.7653 20.5846 11.9043 19.7001 11.6089 18.5679C11.4983 18.1441 11.4991 17.6684 11.4999 17.1845C11.4999 17.1438 11.5 17.1032 11.5 17.0623H1.27778C0.572087 17.0623 0 16.4747 0 15.7499C0 15.025 0.572087 14.4374 1.27778 14.4374H11.5C11.5 14.3967 11.4999 14.3559 11.4999 14.3152C11.4991 13.8313 11.4983 13.3557 11.6089 12.932C11.9043 11.7996 12.7653 10.9153 13.8677 10.6118C14.2802 10.4983 14.7433 10.4991 15.2144 10.4999ZM14.6927 13.132C14.5564 13.1383 14.5244 13.1486 14.5291 13.1472C14.3086 13.208 14.1364 13.3849 14.0773 13.6113C14.0786 13.6065 14.0686 13.6394 14.0625 13.7793C14.0558 13.9263 14.0556 14.1204 14.0556 14.4374V17.0623C14.0556 17.3794 14.0558 17.5734 14.0625 17.7204C14.0686 17.8604 14.0786 17.8934 14.0773 17.8884C14.1364 18.1149 14.3086 18.2917 14.5291 18.3525C14.5244 18.3512 14.5564 18.3614 14.6927 18.3678C14.8358 18.3745 15.0246 18.3748 15.3333 18.3748C15.642 18.3748 15.8309 18.3745 15.974 18.3678C16.1102 18.3614 16.1423 18.3512 16.1376 18.3525C16.3581 18.2917 16.5302 18.1149 16.5894 17.8884C16.5881 17.8934 16.5981 17.8604 16.6042 17.7204C16.6109 17.5734 16.6111 17.3794 16.6111 17.0623V14.4374C16.6111 14.1204 16.6109 13.9263 16.6042 13.7793C16.5981 13.6394 16.5881 13.6065 16.5894 13.6113C16.5302 13.3849 16.3581 13.208 16.1376 13.1472C16.1423 13.1486 16.1102 13.1383 15.974 13.132C15.8309 13.1252 15.642 13.1249 15.3333 13.1249C15.0246 13.1249 14.8358 13.1252 14.6927 13.132Z" fill="#801E5B"/>
</svg>
