<svg width="30" height="26" viewBox="0 0 30 26" fill="none" xmlns="http://www.w3.org/2000/svg">
<path d="M15.4653 24.7341C15.172 24.906 14.828 24.906 14.5347 24.7341C12.1065 23.3109 1 16.35 1 8.09092C1 6.45167 1.58309 4.86306 2.65007 3.59536C3.71705 2.32766 5.202 1.45919 6.85227 1.13771C8.50255 0.816229 10.2162 1.06159 11.7017 1.83206C13.1872 2.60252 14.3527 3.8505 15 5.36365L-nan -nanL-nan -nanL15 5.36365C15.6473 3.8505 16.8128 2.60252 18.2983 1.83206C19.7838 1.06159 21.4974 0.816229 23.1477 1.13771C24.798 1.45919 26.283 2.32766 27.3499 3.59536C28.4169 4.86306 29 6.45167 29 8.09092C29 16.35 17.8935 23.3109 15.4653 24.7341Z" stroke="#841D5D" stroke-linecap="round" stroke-linejoin="round"/>
</svg>
