<svg width="31" height="31" viewBox="0 0 31 31" fill="none" xmlns="http://www.w3.org/2000/svg">
<path d="M30 15.7957V18.0013C30 23.6574 30 26.4856 28.3012 28.2427C26.6025 30 23.8682 30 18.4 30H12.6C7.1317 30 4.39757 30 2.69878 28.2427C1 26.4856 1 23.6574 1 18.0013V15.7957C1 12.4775 1 10.8184 1.75284 9.44297C2.50568 8.0676 3.88108 7.21399 6.63184 5.50679L9.53184 3.70696C12.4396 1.90232 13.8935 1 15.5 1C17.1065 1 18.5604 1.90232 21.4682 3.70696L24.3682 5.50677C27.119 7.21399 28.4943 8.0676 29.2472 9.44297" stroke="#1C274C" stroke-linecap="round"/>
<path d="M19.7648 24.0293H11.2354" stroke="#1C274C" stroke-linecap="round"/>
</svg>
