<svg width="18" height="25" viewBox="0 0 18 25" fill="none" xmlns="http://www.w3.org/2000/svg">
<path d="M9 0C4.02975 0 0 4.19766 0 9.375C0 11.4137 0.641625 13.2844 1.70813 14.8164C1.72725 14.8531 1.73025 14.8941 1.752 14.9293L7.752 24.3043C8.03025 24.7391 8.499 25 9 25C9.501 25 9.96975 24.7391 10.248 24.3043L16.248 14.9293C16.2701 14.8941 16.2727 14.8531 16.2919 14.8164C17.3584 13.2844 18 11.4137 18 9.375C18 4.19766 13.9703 0 9 0ZM9 12.5C7.34325 12.5 6 11.1008 6 9.375C6 7.64922 7.34325 6.25 9 6.25C10.6567 6.25 12 7.64922 12 9.375C12 11.1008 10.6567 12.5 9 12.5Z" fill="#898989"/>
</svg>
