<svg width="17" height="22" viewBox="0 0 17 22" fill="none" xmlns="http://www.w3.org/2000/svg">
<path d="M8.95971 21.8357C8.82796 21.945 8.66362 22 8.5 22C8.33638 22 8.17204 21.945 8.04029 21.8357C7.71162 21.5642 0 15.1103 0 8.22809C0 3.69061 3.81296 0 8.5 0C13.187 0 17 3.69061 17 8.22809C17 15.1103 9.28837 21.5642 8.95971 21.8357ZM8.5 1.37135C4.59425 1.37135 1.41667 4.44743 1.41667 8.22809C1.41667 13.5623 6.86162 18.9026 8.5 20.3881C10.1377 18.9026 15.5833 13.5623 15.5833 8.22809C15.5833 4.44743 12.4057 1.37135 8.5 1.37135ZM8.5 12.371C6.15612 12.371 4.25 10.5254 4.25 8.25696C4.25 5.98788 6.15612 4.14292 8.5 4.14292C10.8439 4.14292 12.75 5.98788 12.75 8.25696C12.75 10.5254 10.8439 12.371 8.5 12.371ZM8.5 5.51426C6.93742 5.51426 5.66667 6.74401 5.66667 8.25696C5.66667 9.76922 6.93742 10.9997 8.5 10.9997C10.0626 10.9997 11.3333 9.76922 11.3333 8.25696C11.3333 6.74401 10.0626 5.51426 8.5 5.51426Z" fill="#042E60"/>
</svg>
