<svg width="79" height="114" viewBox="0 0 79 114" fill="none" xmlns="http://www.w3.org/2000/svg">
<path d="M39.3107 86.482C34.9865 86.482 31.4487 82.944 31.4487 78.62V66.8268C31.4487 62.5026 34.9867 58.9648 39.3107 58.9648C43.6347 58.9648 47.1727 62.5029 47.1727 66.8268V78.62C47.1729 82.944 43.6349 86.482 39.3107 86.482ZM39.3107 62.8958C37.1487 62.8958 35.3797 64.6648 35.3797 66.8268V78.62C35.3797 80.782 37.1487 82.551 39.3107 82.551C41.4727 82.551 43.2417 80.782 43.2417 78.62V66.8268C43.2419 64.6648 41.4729 62.8958 39.3107 62.8958Z" fill="#B6B6B6"/>
<path d="M39.3104 114C17.6898 114 0 96.3101 0 74.6893C0 53.0685 17.6896 35.3789 39.3104 35.3789C60.9312 35.3789 78.6208 53.0685 78.6208 74.6893C78.6208 96.3101 60.9312 114 39.3104 114ZM39.3104 39.3101C19.8518 39.3101 3.931 55.2307 3.931 74.6895C3.931 94.1483 19.8516 110.069 39.3104 110.069C58.7692 110.069 74.6898 94.1483 74.6898 74.6895C74.6898 55.2307 58.7692 39.3101 39.3104 39.3101Z" fill="#B6B6B6"/>
<path d="M58.9655 45.0104C57.7861 45.0104 56.9999 44.2242 56.9999 43.0448V20.0482C56.9999 11.2034 49.1379 3.931 39.3103 3.931C29.4827 3.931 21.6207 11.2034 21.6207 20.0482V42.8482C21.6207 44.0276 20.8345 44.8138 19.6551 44.8138C18.4757 44.8138 17.6895 44.0276 17.6895 42.8482V20.0482C17.6897 9.0414 27.3207 0 39.3103 0C51.2999 0 60.9309 9.0414 60.9309 20.0482V42.8482C60.9311 44.0276 60.1449 45.0104 58.9655 45.0104Z" fill="#B6B6B6"/>
</svg>
