<svg width="24" height="23" viewBox="0 0 24 23" fill="none" xmlns="http://www.w3.org/2000/svg">
<path d="M23.5 5.65035C23.5 4.38848 23.5 3.75754 23.1461 3.28254C22.7921 2.80754 22.1734 2.60801 20.9359 2.20897L19.4799 1.73951C17.771 1.18849 16.9166 0.912976 16.0564 1.02441C15.1961 1.13585 14.4468 1.61912 12.9479 2.58568L11.22 3.70004C10.0499 4.4546 9.46489 4.83188 8.80856 4.98195C8.56751 5.03708 8.32142 5.06895 8.07387 5.07713C7.39986 5.0994 6.73283 4.88431 5.39876 4.45415C3.65136 3.89071 2.77766 3.60898 2.11286 3.89507C1.87684 3.99664 1.66505 4.14431 1.4908 4.32879C1 4.8484 1 5.73928 1 7.52105V12.4354M23.5 10.2908V15.479C23.5 17.2608 23.5 18.1517 23.0093 18.6713C22.835 18.8558 22.6231 19.0034 22.3871 19.105C21.7224 19.3911 20.8486 19.1093 19.1013 18.5459C17.7671 18.1158 17.1001 17.9006 16.4261 17.9229C16.1786 17.9311 15.9325 17.9629 15.6915 18.0181C15.0351 18.1681 14.4501 18.5454 13.28 19.3L11.5521 20.4143C10.0532 21.3809 9.30389 21.8642 8.44366 21.9756C7.58343 22.0871 6.72899 21.8115 5.02011 21.2605L3.56415 20.7911C2.32661 20.392 1.70784 20.1925 1.35392 19.7174C1.01884 19.2677 1.001 18.6783 1.00005 17.5459" stroke="#1C274C" stroke-linecap="round"/>
<path d="M16 1V5.27778M16 17.5V10.1667" stroke="#1C274C" stroke-linecap="round"/>
<path d="M8.5 22V17.7222M8.5 5.5V12.8333" stroke="#1C274C" stroke-linecap="round"/>
</svg>
