<svg width="22" height="20" viewBox="0 0 22 20" fill="none" xmlns="http://www.w3.org/2000/svg">
<path d="M21.1732 5.46436H0.683006C0.501862 5.46436 0.328136 5.52832 0.200048 5.64218C0.0719594 5.75603 0 5.91045 0 6.07147L0 15.7853C0 15.9464 0.0719594 16.1008 0.200048 16.2146C0.328136 16.3285 0.501862 16.3925 0.683006 16.3925H21.1732C21.3543 16.3925 21.5281 16.3285 21.6562 16.2146C21.7842 16.1008 21.8562 15.9464 21.8562 15.7853V6.07147C21.8562 5.91045 21.7842 5.75603 21.6562 5.64218C21.5281 5.52832 21.3543 5.46436 21.1732 5.46436ZM17.1366 15.1782H4.71957C4.57722 14.4336 4.17802 13.7468 3.57721 13.2127C2.97639 12.6787 2.20368 12.3238 1.36601 12.1973V9.65953C2.20368 9.533 2.97639 9.17815 3.57721 8.64409C4.17802 8.11004 4.57722 7.42318 4.71957 6.67859H17.1366C17.279 7.42318 17.6782 8.11004 18.279 8.64409C18.8798 9.17815 19.6525 9.533 20.4902 9.65953V12.1973C19.6525 12.3238 18.8798 12.6787 18.279 13.2127C17.6782 13.7468 17.279 14.4336 17.1366 15.1782ZM20.4902 8.41494C20.0204 8.30593 19.5917 8.08759 19.2484 7.7824C18.9051 7.47721 18.6594 7.0962 18.5368 6.67859H20.4902V8.41494ZM3.31941 6.67859C3.19677 7.0962 2.95114 7.47721 2.6078 7.7824C2.26446 8.08759 1.83582 8.30593 1.36601 8.41494V6.67859H3.31941ZM1.36601 13.4419C1.83582 13.5509 2.26446 13.7692 2.6078 14.0744C2.95114 14.3796 3.19677 14.7606 3.31941 15.1782H1.36601V13.4419ZM18.5368 15.1782C18.6594 14.7606 18.9051 14.3796 19.2484 14.0744C19.5917 13.7692 20.0204 13.5509 20.4902 13.4419V15.1782H18.5368Z" fill="#042E60"/>
<path d="M5.32055 0.067579C5.24905 0.0344418 5.17011 0.0129388 5.08824 0.00430149C5.00636 -0.0043358 4.92317 6.24133e-05 4.84342 0.0172442C4.68258 0.0507445 4.54486 0.134008 4.46046 0.248784L3.20487 1.97527C3.12162 2.09141 3.09932 2.22931 3.14288 2.35863C3.18645 2.48796 3.2923 2.59811 3.43716 2.66486C3.58201 2.7316 3.75401 2.74948 3.9153 2.71455C4.0766 2.67963 4.21399 2.59476 4.29724 2.47862L5.23893 1.19005L8.42186 2.66486C8.56672 2.7316 8.73872 2.74948 8.90001 2.71455C9.06131 2.67963 9.19869 2.59476 9.28194 2.47862C9.3652 2.36247 9.38749 2.22457 9.34393 2.09525C9.30037 1.96593 9.19452 1.85578 9.04966 1.78903L5.32055 0.067579Z" fill="#042E60"/>
<path d="M15.2854 19.3597C15.3595 19.4001 15.4439 19.4218 15.53 19.4226C15.5721 19.4291 15.6151 19.4291 15.6572 19.4226C15.7826 19.3927 15.8899 19.3183 15.9557 19.2159L16.9342 17.6746C16.9991 17.5709 17.0165 17.4478 16.9825 17.3324C16.9486 17.2169 16.8661 17.1186 16.7532 17.059C16.6403 16.9994 16.5063 16.9834 16.3805 17.0146C16.2548 17.0458 16.1478 17.1216 16.0829 17.2252L15.3588 18.3756L12.8782 17.059C12.7653 16.9994 12.6312 16.9834 12.5055 17.0146C12.3798 17.0458 12.2728 17.1216 12.2079 17.2252C12.143 17.3289 12.1256 17.452 12.1596 17.5675C12.1935 17.6829 12.276 17.7813 12.3889 17.8409L15.2854 19.3597Z" fill="#042E60"/>
<path d="M10.9286 8.19629C10.0023 8.19629 9.09679 8.35652 8.32659 8.65672C7.5564 8.95692 6.95611 9.3836 6.60163 9.88281C6.24715 10.382 6.1544 10.9313 6.33511 11.4613C6.51582 11.9913 6.96188 12.4781 7.61688 12.8601C8.27187 13.2422 9.10639 13.5024 10.0149 13.6078C10.9234 13.7133 11.8651 13.6592 12.7209 13.4524C13.5767 13.2456 14.3081 12.8954 14.8228 12.4461C15.3374 11.9969 15.6121 11.4687 15.6121 10.9283C15.6121 10.2037 15.1186 9.50883 14.2403 8.99648C13.362 8.48413 12.1707 8.19629 10.9286 8.19629ZM10.9286 12.7497C10.3111 12.7497 9.70739 12.6428 9.19393 12.4427C8.68046 12.2426 8.28027 11.9581 8.04395 11.6253C7.80763 11.2925 7.7458 10.9263 7.86627 10.573C7.98675 10.2197 8.28412 9.89515 8.72078 9.64042C9.15744 9.3857 9.71379 9.21224 10.3195 9.14196C10.9251 9.07168 11.5529 9.10775 12.1234 9.24561C12.694 9.38346 13.1816 9.61691 13.5247 9.91643C13.8678 10.2159 14.0509 10.5681 14.0509 10.9283C14.0509 11.4114 13.7219 11.8746 13.1364 12.2162C12.5509 12.5578 11.7567 12.7497 10.9286 12.7497Z" fill="#042E60"/>
</svg>
