<svg width="12" height="8" viewBox="0 0 12 8" fill="none" xmlns="http://www.w3.org/2000/svg">
<path d="M9 1H10.5C10.7761 1 11 1.22386 11 1.5V6.5C11 6.77615 10.7761 7 10.5 7H5M6.5 1H1.5C1.22386 1 1 1.22386 1 1.5V6.5C1 6.77615 1.22386 7 1.5 7H3M3 2.75V5.25M9 2.75V5.25M7.25 4C7.25 4.69035 6.69035 5.25 6 5.25C5.30965 5.25 4.75 4.69035 4.75 4C4.75 3.30965 5.30965 2.75 6 2.75C6.69035 2.75 7.25 3.30965 7.25 4Z" stroke="#B4B7BD" stroke-width="0.5" stroke-linecap="round" stroke-linejoin="round"/>
</svg>
