<svg width="21" height="23" viewBox="0 0 21 23" fill="none" xmlns="http://www.w3.org/2000/svg">
<path d="M7.44675 1.7138C8.37215 1.2561 9.40739 1 10.5 1C14.4345 1 17.624 4.32071 17.624 8.41703V9.16307C17.624 10.0584 17.8786 10.9337 18.3556 11.6787L19.5246 13.5042C20.5924 15.1716 19.7773 17.4381 17.9201 17.9654C13.0621 19.3449 7.93789 19.3449 3.07982 17.9654C1.22278 17.4381 0.407644 15.1716 1.47538 13.5042L2.64434 11.6787C3.12137 10.9337 3.37592 10.0584 3.37592 9.16307V8.41703C3.37592 7.27944 3.62191 6.20167 4.06152 5.23823" stroke="#B4B7BD" stroke-linecap="round"/>
<path d="M5 19C5.72781 20.7478 7.69162 22 10 22C10.2717 22 10.5386 21.9827 10.7991 21.9492M15 19C14.7032 19.7126 14.2011 20.3428 13.5539 20.8393" stroke="#B4B7BD" stroke-linecap="round"/>
</svg>
