<svg width="23" height="25" viewBox="0 0 23 25" fill="none" xmlns="http://www.w3.org/2000/svg">
<path d="M18.9666 9.93995V9.12291C18.9666 4.63675 15.5194 1 11.2672 1C7.01495 1 3.5678 4.63675 3.5678 9.12291V9.93995C3.5678 10.9205 3.29269 11.8791 2.77714 12.6949L1.51377 14.6942C0.359805 16.5203 1.24077 19.0025 3.24779 19.58C8.4982 21.0907 14.0363 21.0907 19.2866 19.58C21.2937 19.0025 22.1747 16.5203 21.0206 14.6942L19.7573 12.6949C19.2418 11.8791 18.9666 10.9205 18.9666 9.93995Z" stroke="#1C274C"/>
<path d="M5.92871 20.7148C6.70586 22.629 8.8028 24.0004 11.2677 24.0004C13.7325 24.0004 15.8295 22.629 16.6066 20.7148" stroke="#1C274C" stroke-linecap="round"/>
</svg>
