<svg width="14" height="14" viewBox="0 0 14 14" fill="none" xmlns="http://www.w3.org/2000/svg">
<path fill-rule="evenodd" clip-rule="evenodd" d="M14 7C14 10.866 10.866 14 7 14C3.134 14 0 10.866 0 7C0 3.134 3.134 0 7 0C10.866 0 14 3.134 14 7ZM7 4.025C6.56509 4.025 6.2125 4.37758 6.2125 4.8125C6.2125 5.10245 5.97744 5.3375 5.6875 5.3375C5.39755 5.3375 5.1625 5.10245 5.1625 4.8125C5.1625 3.79767 5.98521 2.975 7 2.975C8.01479 2.975 8.8375 3.79767 8.8375 4.8125C8.8375 5.31009 8.63905 5.7624 8.3181 6.0928C8.25349 6.15923 8.19189 6.22083 8.13309 6.27956C7.98203 6.43048 7.84966 6.56271 7.73353 6.71195C7.58023 6.90893 7.525 7.05376 7.525 7.175V7.7C7.525 7.98994 7.28994 8.225 7 8.225C6.71006 8.225 6.475 7.98994 6.475 7.7V7.175C6.475 6.71636 6.6885 6.34508 6.90494 6.06704C7.06503 5.86131 7.26628 5.66041 7.42966 5.49742C7.47894 5.44825 7.52472 5.40252 7.5649 5.36114C7.70322 5.2188 7.7875 5.02603 7.7875 4.8125C7.7875 4.37758 7.43491 4.025 7 4.025ZM7 10.5C7.38661 10.5 7.7 10.1866 7.7 9.8C7.7 9.41339 7.38661 9.1 7 9.1C6.61339 9.1 6.3 9.41339 6.3 9.8C6.3 10.1866 6.61339 10.5 7 10.5Z" fill="#FF3131"/>
</svg>
