<svg width="29" height="19" viewBox="0 0 29 19" fill="none" xmlns="http://www.w3.org/2000/svg">
<path d="M5.23495 1.00052C5.8574 1.51968 6.24995 2.27904 6.24995 3.125C6.24995 4.68981 4.90682 5.95833 3.24998 5.95833C2.35426 5.95833 1.55024 5.58759 1.00056 4.99972M5.23495 1.00052C5.41212 1 5.60009 1 5.79995 1H23.1998C23.3996 1 23.5877 1 23.7648 1.00052M5.23495 1.00052C3.92275 1.00436 3.2034 1.03673 2.63801 1.30882C2.07352 1.58045 1.61459 2.01389 1.32698 2.54703C1.03889 3.08101 1.00462 3.7604 1.00056 4.99972M1.00056 4.99972C1 5.16704 1 5.34458 1 5.53333V13.4667C1 13.6554 1 13.833 1.00056 14.0003M23.7648 1.00052C23.1423 1.51968 22.7498 2.27904 22.7498 3.125C22.7498 4.68981 24.0929 5.95833 25.7498 5.95833C26.6454 5.95833 27.4495 5.58759 27.9991 4.99972M23.7648 1.00052C25.077 1.00436 25.7964 1.03673 26.3618 1.30882C26.9262 1.58045 27.3852 2.01389 27.6727 2.54703C27.9609 3.08101 27.9951 3.7604 27.9991 4.99972M1.00056 14.0003C1.55024 13.4124 2.35426 13.0417 3.24998 13.0417C4.90682 13.0417 6.24995 14.3101 6.24995 15.875C6.24995 16.7209 5.8574 17.4804 5.23495 17.9994M1.00056 14.0003C1.00462 15.2396 1.03889 15.9189 1.32698 16.453C1.61459 16.9861 2.07352 17.4196 2.63801 17.6912C3.2034 17.9633 3.92275 17.9956 5.23495 17.9994M5.23495 17.9994C5.41212 18 5.60009 18 5.79995 18H23.1998C23.3996 18 23.5877 18 23.7648 17.9994M23.7648 17.9994C23.1423 17.4804 22.7498 16.7209 22.7498 15.875C22.7498 14.3101 24.0929 13.0417 25.7498 13.0417C26.6457 13.0417 27.45 13.4127 27.9997 14.0009M23.7648 17.9994C25.077 17.9956 25.7964 17.9633 26.3618 17.6912C26.9262 17.4196 27.3852 16.9861 27.6727 16.453C27.9607 15.9191 27.9957 15.2398 27.9997 14.0009M27.9997 14.0009C28.0003 13.8334 27.9997 13.6556 27.9997 13.4667V5.53333C27.9997 5.34458 27.9997 5.16704 27.9991 4.99972M17.4998 9.5C17.4998 11.0648 16.1568 12.3333 14.4999 12.3333C12.843 12.3333 11.4999 11.0648 11.4999 9.5C11.4999 7.93515 12.843 6.66667 14.4999 6.66667C16.1568 6.66667 17.4998 7.93515 17.4998 9.5Z" stroke="#787878" stroke-width="1.5" stroke-linecap="round" stroke-linejoin="round"/>
</svg>
