<svg width="26" height="26" viewBox="0 0 26 26" fill="none" xmlns="http://www.w3.org/2000/svg">
<path d="M11.1429 22.2857C8.93901 22.2857 6.78465 21.6322 4.95222 20.4079C3.11979 19.1835 1.69159 17.4431 0.848206 15.407C0.00482733 13.371 -0.215839 11.1304 0.214115 8.96899C0.644069 6.8075 1.70532 4.82203 3.26367 3.26367C4.82203 1.70532 6.8075 0.644069 8.96899 0.214115C11.1304 -0.215839 13.371 0.00482733 15.407 0.848206C17.4431 1.69159 19.1835 3.11979 20.4079 4.95222C21.6322 6.78465 22.2857 8.93901 22.2857 11.1429C22.2857 12.6061 21.9975 14.0551 21.4375 15.407C20.8775 16.759 20.0567 17.9874 19.022 19.022C17.9874 20.0567 16.759 20.8775 15.407 21.4375C14.0551 21.9975 12.6061 22.2857 11.1429 22.2857ZM11.1429 2.23449C9.38681 2.23449 7.67019 2.75523 6.21008 3.73084C4.74998 4.70644 3.61196 6.09313 2.93995 7.7155C2.26794 9.33789 2.09211 11.123 2.43469 12.8454C2.77728 14.5677 3.62291 16.1498 4.86462 17.3914C6.10634 18.6331 7.68838 19.4788 9.41069 19.8214C11.133 20.164 12.9182 19.9882 14.5406 19.3162C16.1629 18.6441 17.5496 17.5061 18.5253 16.046C19.5009 14.5859 20.0216 12.8693 20.0216 11.1133C20.0216 8.75846 19.0863 6.50012 17.421 4.83502C15.756 3.16993 13.4977 2.23449 11.1429 2.23449Z" fill="#861D5E"/>
<path d="M25.0078 25.9999C24.8774 26.0004 24.748 25.975 24.6275 25.9249C24.507 25.875 24.3977 25.8014 24.306 25.7086L18.8378 20.2411C18.6624 20.0528 18.5669 19.8038 18.5714 19.5466C18.5759 19.2894 18.6803 19.0441 18.8622 18.862C19.0441 18.6801 19.2896 18.5759 19.5468 18.5714C19.8041 18.5669 20.053 18.6624 20.2413 18.8378L25.7095 24.3053C25.8954 24.4915 25.9999 24.7438 25.9999 25.007C25.9999 25.27 25.8954 25.5223 25.7095 25.7086C25.6179 25.8014 25.5085 25.875 25.388 25.9249C25.2675 25.975 25.1382 26.0004 25.0078 25.9999Z" fill="#861D5E"/>
</svg>
