<svg width="62" height="69" viewBox="0 0 62 69" fill="none" xmlns="http://www.w3.org/2000/svg">
<path d="M22.6006 35.6784L27.4007 41.1984L39.4006 27.3984" stroke="#1C274C" stroke-width="2" stroke-linecap="round" stroke-linejoin="round"/>
<path d="M1 29.0276C1 18.3795 1 13.0555 2.2584 11.2644C3.51677 9.47332 8.52773 7.75977 18.5497 4.33263L20.4591 3.67972C25.6833 1.89324 28.2953 1 31 1C33.7047 1 36.3167 1.89324 41.541 3.67972L43.4503 4.33263C53.4723 7.75977 58.4833 9.47332 59.7417 11.2644C61 13.0555 61 18.3795 61 29.0276C61 30.6357 61 32.3799 61 34.2714C61 42.6127 58.2107 49.0466 54.3333 53.9607M1.6428 40.96C4.50087 55.2737 16.2547 62.648 23.9952 66.0259C26.4 67.0752 27.6023 67.6 31 67.6C34.3977 67.6 35.6 67.0752 38.0047 66.0259C39.932 65.1847 42.108 64.0962 44.3333 62.7142" stroke="#1C274C" stroke-width="2" stroke-linecap="round"/>
</svg>
