<svg width="56" height="62" viewBox="0 0 56 62" fill="none" xmlns="http://www.w3.org/2000/svg">
<path d="M1.17451 9.55547C2.38419e-07 11.2229 0 16.1791 0 26.0918V30.9733C0 48.4511 13.1879 56.9331 21.4622 60.5346C23.7067 61.5114 24.8288 62 28 62C31.1712 62 32.2933 61.5114 34.5377 60.5346C42.812 56.9331 56 48.4511 56 30.9733V26.0918C56 16.1791 56 11.2229 54.8256 9.55547C53.6511 7.88807 48.9742 6.29288 39.6203 3.10245L37.8383 2.49463C32.9622 0.831544 30.5244 0 28 0C25.4756 0 23.0378 0.831544 18.1618 2.49463L16.3797 3.10245C7.02588 6.29288 2.34898 7.88807 1.17451 9.55547Z" fill="#871D5E"/>
<path d="M37.4138 26.0893C38.2624 25.078 38.18 23.5265 37.2292 22.6236C36.2784 21.7208 34.8197 21.8086 33.9711 22.8198L24.7034 33.86L22.0292 30.6744C21.1803 29.6631 19.7214 29.5754 18.7708 30.4783C17.8201 31.3809 17.7375 32.9325 18.5863 33.9438L22.9818 39.1802C23.4197 39.7019 24.0458 40 24.7034 40C25.3606 40 25.9868 39.7019 26.4246 39.1802L37.4138 26.0893Z" fill="white"/>
</svg>
