<svg width="14" height="15" viewBox="0 0 14 15" fill="none" xmlns="http://www.w3.org/2000/svg">
<path d="M12.7989 6.17837C12.7909 4.74053 12.727 3.96186 12.2185 3.45391C11.637 2.87305 10.7011 2.87305 8.82924 2.87305H6.84384C4.97199 2.87305 4.03607 2.87305 3.45456 3.45391C2.87305 4.03478 2.87305 4.96966 2.87305 6.83943V10.1448C2.87305 12.0145 2.87305 12.9494 3.45456 13.5303C4.03607 14.1111 4.97199 14.1111 6.84384 14.1111H8.82924C10.7011 14.1111 11.637 14.1111 12.2185 13.5303C12.8 12.9494 12.8 12.0145 12.8 10.1448V9.48369" stroke="#1C274C" stroke-width="0.5" stroke-linecap="round"/>
<path d="M1 6.20037V10.1007C1 11.1777 1.87212 12.0508 2.94794 12.0508M10.7397 2.95014C10.7397 1.87311 9.86759 1 8.79175 1H6.1945C3.74579 1 2.52144 1 1.76071 1.76158C1.3366 2.18617 1.14893 2.75505 1.0659 3.60019" stroke="#1C274C" stroke-width="0.5" stroke-linecap="round"/>
</svg>
