<svg width="18" height="18" viewBox="0 0 18 18" fill="none" xmlns="http://www.w3.org/2000/svg">
<path d="M15 12.2C15 14.4627 15 15.5941 14.2468 16.297C13.4937 17 12.2815 17 9.85714 17H8.14286C5.71849 17 4.50631 17 3.75315 16.297C3 15.5941 3 14.4627 3 12.2V9M3 5.8C3 3.53726 3 2.40589 3.75315 1.70294C4.50631 1 5.71849 1 8.14286 1H9.85714C12.2815 1 13.4937 1 14.2468 1.70294C15 2.40589 15 3.53726 15 5.8V9" stroke="#B4B7BD" stroke-linecap="round"/>
<path d="M3 3C2.34994 3.07262 1.91238 3.23676 1.58579 3.6077C1 4.27305 1 5.3439 1 7.48564V10.5145C1 12.6561 1 13.727 1.58579 14.3923C1.91238 14.7633 2.34994 14.9274 3 15" stroke="#B4B7BD"/>
<path d="M15 3C15.6501 3.07262 16.0876 3.23676 16.4142 3.6077C17 4.27305 17 5.3439 17 7.48564V10.5145C17 12.6561 17 13.727 16.4142 14.3923C16.0876 14.7633 15.6501 14.9274 15 15" stroke="#B4B7BD"/>
<path d="M7 10H11" stroke="#B4B7BD" stroke-linecap="round"/>
<path d="M7 7H11" stroke="#B4B7BD" stroke-linecap="round"/>
<path d="M7 13H9" stroke="#B4B7BD" stroke-linecap="round"/>
</svg>
