<svg width="20" height="20" viewBox="0 0 20 20" fill="none" xmlns="http://www.w3.org/2000/svg">
<path d="M6.29395 13.7051C7.34441 14.3725 8.62198 14.7639 9.99983 14.7639C11.3777 14.7639 12.6552 14.3725 13.7057 13.7051" stroke="#B2B2B2" stroke-linecap="round"/>
<path d="M13.1769 10.5302C13.4693 10.5302 13.7063 9.58211 13.7063 8.41257C13.7063 7.24302 13.4693 6.29492 13.1769 6.29492C12.8845 6.29492 12.6475 7.24302 12.6475 8.41257C12.6475 9.58211 12.8845 10.5302 13.1769 10.5302Z" fill="#B2B2B2"/>
<path d="M6.82336 10.5302C7.11574 10.5302 7.35277 9.58211 7.35277 8.41257C7.35277 7.24302 7.11574 6.29492 6.82336 6.29492C6.53097 6.29492 6.29395 7.24302 6.29395 8.41257C6.29395 9.58211 6.53097 10.5302 6.82336 10.5302Z" fill="#B2B2B2"/>
<path d="M1 7.35294C1.64781 4.16155 4.16158 1.64776 7.35294 1" stroke="#B2B2B2" stroke-linecap="round"/>
<path d="M1 12.6465C1.6478 15.8379 4.16159 18.3517 7.35294 18.9994" stroke="#B2B2B2" stroke-linecap="round"/>
<path d="M19.0004 7.35294C18.3526 4.16155 15.8388 1.64776 12.6475 1" stroke="#B2B2B2" stroke-linecap="round"/>
<path d="M19.0004 12.6465C18.3526 15.8379 15.8388 18.3517 12.6475 18.9994" stroke="#B2B2B2" stroke-linecap="round"/>
</svg>
