<svg width="16" height="15" viewBox="0 0 16 15" fill="none" xmlns="http://www.w3.org/2000/svg">
<path d="M13.6406 5.85517C14.3046 5.46952 14.6366 5.2767 14.8183 4.96602C15 4.65533 15 4.28056 15 3.53101V3.03281C15 2.07454 15 1.5954 14.6925 1.2977C14.3849 1 13.8899 1 12.9 1H3.1C2.11005 1 1.61508 1 1.30754 1.2977C1 1.5954 1 2.07454 1 3.03281V3.53101C1 4.28056 1 4.65533 1.18172 4.96602C1.36344 5.2767 1.69543 5.46952 2.35941 5.85517L4.39853 7.0395C4.84402 7.2982 5.06677 7.42762 5.22626 7.57048C5.55839 7.86796 5.76286 8.21752 5.85551 8.6463C5.9 8.85213 5.9 9.09307 5.9 9.57486V11.5028C5.9 12.1598 5.9 12.4882 6.07634 12.7443C6.25269 13.0003 6.5659 13.1266 7.19234 13.3793C8.50736 13.9097 9.16487 14.1749 9.63247 13.8732C10.1 13.5714 10.1 12.8819 10.1 11.5028V9.57486C10.1 9.09307 10.1 8.85213 10.1445 8.6463C10.2371 8.21752 10.4416 7.86796 10.7737 7.57048" stroke="#801E5B" stroke-linecap="round"/>
</svg>
