<svg width="22" height="20" viewBox="0 0 22 20" fill="none" xmlns="http://www.w3.org/2000/svg">
<path d="M20.5653 11.1738C20.5653 14.863 20.5653 16.7077 19.4191 17.8537C18.2731 18.9999 16.4284 18.9999 12.7392 18.9999H8.82611C5.13684 18.9999 3.29222 18.9999 2.1461 17.8537C1 16.7077 1 14.863 1 11.1738C1 7.4845 1 5.63987 2.1461 4.49376C3.29222 3.34766 5.13684 3.34766 8.82611 3.34766H12.7392C16.4284 3.34766 18.2731 3.34766 19.4191 4.49376C20.0684 5.14298 20.3499 6.01631 20.4718 7.32209" stroke="#B4B7BD" stroke-linecap="round"/>
<path d="M2.95654 3.93479C3.06619 3.02401 3.29509 2.3946 3.77298 1.91689C4.69022 1 6.16649 1 9.11903 1H12.2506C15.2032 1 16.6795 1 17.5967 1.91689C18.0746 2.3946 18.3035 3.02401 18.4131 3.93479" stroke="#B4B7BD"/>
<path d="M16.1627 9.21799C16.9731 9.21799 17.6301 8.56102 17.6301 7.7506C17.6301 6.94018 16.9731 6.2832 16.1627 6.2832C15.3523 6.2832 14.6953 6.94018 14.6953 7.7506C14.6953 8.56102 15.3523 9.21799 16.1627 9.21799Z" stroke="#B4B7BD"/>
<path d="M1 11.6395L2.71352 10.1591C3.60498 9.38888 4.94855 9.43303 5.78614 10.2601L9.98261 14.4039C10.6549 15.0678 11.7132 15.1584 12.4911 14.6185L12.7828 14.4161C13.9021 13.6392 15.4166 13.7293 16.4336 14.6331L19.587 17.4355" stroke="#B4B7BD" stroke-linecap="round"/>
</svg>
