<?xml version="1.0" encoding="iso-8859-1"?>
<!-- Uploaded to: SVG Repo, www.svgrepo.com, Generator: SVG Repo Mixer Tools -->
<!DOCTYPE svg PUBLIC "-//W3C//DTD SVG 1.1//EN" "http://www.w3.org/Graphics/SVG/1.1/DTD/svg11.dtd">
<svg fill="#000000" version="1.1" id="Capa_1" xmlns="http://www.w3.org/2000/svg" xmlns:xlink="http://www.w3.org/1999/xlink" 
	 width="800px" height="800px" viewBox="0 0 412.164 412.164"
	 xml:space="preserve">
<g>
	<g>
		<path d="M155.828,412.164c11.433,0,21.599-7.652,24.768-18.601l27.294-94.852l3.613-12.558c0,0,0.421-1.478,0.954-3.312
			c0.528-1.822,4.053-1.594,7.876,0.508c13.604,7.511,34.348,18.992,62.119,34.389c8.825,4.895,17.402,7.378,25.517,7.378
			c21.384,0,35.211-16.939,35.211-43.137V96.38c0-25.25-12.065-40.946-31.494-40.946c-8.435,0-17.854,3.285-27.197,9.496
			c0,0-2.574,1.714-5.759,3.823c-3.174,2.11-4.778,0.427-3.569-3.768l9.287-32.281c3.921-13.619-4.011-27.855-17.681-31.75
			C264.562,0.322,262.267,0,259.951,0c-11.431,0-21.972,7.805-25.06,18.555l-26.266,91.333c-1.208,4.197-3.217,8.13-4.489,8.785
			c-1.272,0.666-5.845,1.193-10.207,1.193h-54.667c-38.757,0-70.279,34.429-70.279,76.749c0,42.33,31.522,76.773,70.279,76.773
			h14.394c4.359,0,6.919,3.397,5.71,7.592l-28.32,98.432c-3.917,13.614,3.997,27.848,17.648,31.758
			C151.019,411.829,153.411,412.164,155.828,412.164z M311.686,67.283c12.305,0,19.642,10.879,19.642,29.097v185.61
			c0,19.291-8.952,31.285-23.358,31.285c-6.068,0-12.715-1.985-19.784-5.9c-32.682-18.134-52.43-29.082-64.484-35.703
			c-3.824-2.103-5.957-7.19-4.748-11.385l8.201-28.452l18.595-64.633l19.987-69.449c1.209-4.194,5.134-9.551,8.77-11.961
			l16.549-10.996C298.447,69.883,305.572,67.283,311.686,67.283z M80.826,196.606c0-35.779,26.212-64.899,58.43-64.899h55.172
			c4.362,0,6.921,3.397,5.713,7.592l-8.122,28.236l-3.443,11.961l-3.105,10.813l-4.194,13.106l-4.86,16.882l-3.531,12.283
			l-4.352,15.107l-3.349,13.05c0,0-0.048,0.173-0.111,0.396c-0.056,0.219-3.641,0.396-8.011,0.396h-17.806
			C107.039,261.531,80.826,232.408,80.826,196.606z M142.47,382.676L246.322,21.802c1.701-5.893,7.175-10.009,13.335-10.009
			c1.279,0,2.579,0.183,3.839,0.539c7.348,2.1,11.639,9.772,9.521,17.103l-55.512,192.909l-19.522,67.791l-28.817,100.144
			c-1.668,5.778-7.396,9.983-13.581,9.983c-1.216,0-2.44-0.168-3.595-0.493C144.644,397.672,140.368,389.999,142.47,382.676z"/>
	</g>
</g>
</svg>