<svg width="16" height="16" viewBox="0 0 16 16" fill="none" xmlns="http://www.w3.org/2000/svg">
<path d="M1 4.04102C1.09932 6.01155 2.53272 10.7345 7.47176 13.8619" stroke="#811E5C" stroke-width="0.8" stroke-linecap="round"/>
<path d="M2.72827 1.47908C3.20501 1.11756 4.3182 0.611416 4.95704 1.47908C5.59587 2.34675 6.16875 3.23904 6.37534 3.57673C6.51836 3.92634 6.66139 4.7519 6.0893 5.25724C5.37418 5.88892 5.80325 6.78281 6.0893 7.23572C6.37534 7.68862 7.90091 9.72669 9.02125 10.3703C10.1416 11.0139 10.6541 10.3822 11.5003 9.6671C12.1773 9.09501 13.745 10.2153 14.4442 10.847C14.8653 11.3238 15.5478 12.487 14.909 13.3261C14.2702 14.1651 14.5038 13.922 13.9198 14.5656C13.3358 15.2092 12.0724 15.7789 10.2131 15.1019" stroke="#811E5C" stroke-width="0.8" stroke-linecap="round"/>
</svg>
