<svg width="18" height="15" viewBox="0 0 18 15" fill="none" xmlns="http://www.w3.org/2000/svg">
<path fill-rule="evenodd" clip-rule="evenodd" d="M4.13781 6.20636C3.56649 6.20636 3.10333 6.6695 3.10333 7.24084C3.10333 7.81219 3.56649 8.27532 4.13781 8.27532C4.70914 8.27532 5.1723 7.81219 5.1723 7.24084C5.1723 6.6695 4.70914 6.20636 4.13781 6.20636ZM2.06885 7.24084C2.06885 6.09815 2.99515 5.17188 4.13781 5.17188C5.28047 5.17188 6.20678 6.09815 6.20678 7.24084C6.20678 8.38353 5.28047 9.30981 4.13781 9.30981C2.99515 9.30981 2.06885 8.38353 2.06885 7.24084Z" fill="#811E5C"/>
<path fill-rule="evenodd" clip-rule="evenodd" d="M13.4484 6.20636C12.877 6.20636 12.4139 6.6695 12.4139 7.24084C12.4139 7.81219 12.877 8.27532 13.4484 8.27532C14.0197 8.27532 14.4828 7.81219 14.4828 7.24084C14.4828 6.6695 14.0197 6.20636 13.4484 6.20636ZM11.3794 7.24084C11.3794 6.09815 12.3057 5.17188 13.4484 5.17188C14.591 5.17188 15.5173 6.09815 15.5173 7.24084C15.5173 8.38353 14.591 9.30981 13.4484 9.30981C12.3057 9.30981 11.3794 8.38353 11.3794 7.24084Z" fill="#811E5C"/>
<path fill-rule="evenodd" clip-rule="evenodd" d="M6.72403 10.8613C7.00965 10.8613 7.24127 11.0929 7.24127 11.3786L7.24158 11.3814C7.24158 11.3814 7.24272 11.3861 7.24479 11.3912C7.24892 11.4013 7.25896 11.4205 7.28151 11.4472C7.32868 11.5029 7.41723 11.5753 7.56134 11.6474C7.84986 11.7916 8.28455 11.8958 8.79299 11.8958C9.30144 11.8958 9.73613 11.7916 10.0246 11.6474C10.1688 11.5753 10.2573 11.5029 10.3045 11.4472C10.327 11.4205 10.3371 11.4013 10.3412 11.3912C10.3433 11.3861 10.3444 11.3814 10.3444 11.3814L10.3447 11.3786C10.3447 11.0929 10.5763 10.8613 10.862 10.8613C11.1476 10.8613 11.3792 11.0929 11.3792 11.3786C11.3792 11.9657 10.9167 12.358 10.4873 12.5727C10.0269 12.8028 9.42724 12.9303 8.79299 12.9303C8.15875 12.9303 7.55906 12.8028 7.09872 12.5727C6.6693 12.358 6.20679 11.9657 6.20679 11.3786C6.20679 11.0929 6.43837 10.8613 6.72403 10.8613Z" fill="#811E5C"/>
<path fill-rule="evenodd" clip-rule="evenodd" d="M12.931 0.517241V2.58621H4.65517V0.517241C4.65517 0.231579 4.42359 0 4.13793 0C3.85227 0 3.62069 0.231579 3.62069 0.517241V2.58621H2.58621C1.15789 2.58621 0 3.74409 0 5.17241V12.4138C0 13.8421 1.15789 15 2.58621 15H15C16.4283 15 17.5862 13.8421 17.5862 12.4138V5.17241C17.5862 3.74409 16.4283 2.58621 15 2.58621H13.9655V0.517241C13.9655 0.231579 13.7339 0 13.4483 0C13.1627 0 12.931 0.231579 12.931 0.517241ZM2.58621 3.62069C1.72921 3.62069 1.03448 4.31542 1.03448 5.17241V12.4138C1.03448 13.2708 1.72921 13.9655 2.58621 13.9655H15C15.857 13.9655 16.5517 13.2708 16.5517 12.4138V5.17241C16.5517 4.31542 15.857 3.62069 15 3.62069H2.58621Z" fill="#811E5C"/>
</svg>
