<svg width="20" height="20" viewBox="0 0 20 20" fill="none" xmlns="http://www.w3.org/2000/svg">
<path d="M10.808 4.40039H3.80098C2.26089 4.40039 1 5.66801 1 7.21633V17.5023C1 18.8152 1.93667 19.3765 3.08048 18.7337L6.61998 16.7507C6.99825 16.5425 7.6107 16.5425 7.97996 16.7507L11.5195 18.7337C12.6633 19.3765 13.6 18.8152 13.6 17.5023V7.21633C13.609 5.66801 12.3481 4.40039 10.808 4.40039Z" stroke="#811E5C" stroke-width="0.8" stroke-linecap="round" stroke-linejoin="round"/>
<path d="M13.6 7.21709V17.5058C13.6 18.8191 12.664 19.3715 11.521 18.7375L7.98401 16.7541C7.60601 16.5458 6.99399 16.5458 6.61599 16.7541L3.079 18.7375C1.936 19.3715 1 18.8191 1 17.5058V7.21709C1 5.66835 2.25999 4.40039 3.79899 4.40039H10.801C12.34 4.40039 13.6 5.66835 13.6 7.21709Z" stroke="#811E5C" stroke-width="0.8" stroke-linecap="round" stroke-linejoin="round"/>
<path d="M19.0001 3.8167V14.1054C19.0001 15.4187 18.0641 15.9711 16.9211 15.3372L13.6001 13.4714V7.3308C13.6001 5.78206 12.3401 4.5141 10.8011 4.5141H6.40015V3.8167C6.40015 2.26796 7.66014 1 9.19915 1H16.2011C17.7401 1 19.0001 2.26796 19.0001 3.8167Z" stroke="#811E5C" stroke-width="0.8" stroke-linecap="round" stroke-linejoin="round"/>
</svg>
