<svg width="16" height="16" viewBox="0 0 16 16" fill="none" xmlns="http://www.w3.org/2000/svg">
<path d="M3.82768 5.04043C2.1059 5.43 1.24502 5.62478 1.0402 6.28342C0.835376 6.94203 1.42228 7.62838 2.59607 9.00094L2.89974 9.35605C3.2333 9.74609 3.40007 9.94111 3.4751 10.1824C3.55013 10.4237 3.52492 10.6839 3.47448 11.2043L3.42858 11.6781C3.25111 13.5094 3.16238 14.4251 3.6986 14.8322C4.23482 15.2392 5.04087 14.8681 6.65298 14.1259L7.07004 13.9338C7.52812 13.7229 7.75716 13.6174 7.99999 13.6174C8.24282 13.6174 8.47186 13.7229 8.92994 13.9338L9.347 14.1259C10.9591 14.8681 11.7651 15.2392 12.3014 14.8322C12.8376 14.4251 12.7489 13.5094 12.5714 11.6781M13.4039 9.00094C14.5777 7.62838 15.1646 6.94203 14.9598 6.28342C14.755 5.62478 13.8941 5.43 12.1723 5.04043L11.7269 4.93964C11.2376 4.82894 10.993 4.77359 10.7966 4.62447C10.6001 4.47536 10.4741 4.24936 10.2221 3.79737L9.99275 3.38586C9.10613 1.79529 8.66282 1 7.99999 1C7.33716 1 6.89385 1.79529 6.00721 3.38587" stroke="#1C274C" stroke-width="0.8" stroke-linecap="round"/>
</svg>
