<svg width="4" height="18" viewBox="0 0 4 18" fill="none" xmlns="http://www.w3.org/2000/svg">
<path fill-rule="evenodd" clip-rule="evenodd" d="M0 15.4903C0 16.3338 0.683782 17.0176 1.52727 17.0176C2.37076 17.0176 3.05455 16.3338 3.05455 15.4903C3.05455 14.6468 2.37076 13.963 1.52727 13.963C0.683782 13.963 0 14.6468 0 15.4903ZM0 8.50849C0 9.35198 0.683782 10.0358 1.52727 10.0358C2.37076 10.0358 3.05455 9.35198 3.05455 8.50849C3.05455 7.665 2.37076 6.98121 1.52727 6.98121C0.683782 6.98121 0 7.665 0 8.50849ZM1.52727 3.05394C0.683782 3.05394 0 2.37007 0 1.52667C0 0.683264 0.683782 -0.000606537 1.52727 -0.000606537C2.37076 -0.000606537 3.05455 0.683264 3.05455 1.52667C3.05455 2.37007 2.37076 3.05394 1.52727 3.05394Z" fill="#811E5C"/>
</svg>
