<svg width="16" height="16" viewBox="0 0 16 16" fill="none" xmlns="http://www.w3.org/2000/svg">
<path d="M10.8823 8.00148C10.8823 7.39295 10.2281 6.98258 8.91963 6.16179C7.59335 5.3298 6.93017 4.9138 6.43567 5.21924C5.94116 5.52468 5.94116 6.35028 5.94116 8.00148C5.94116 9.65271 5.94116 10.4783 6.43567 10.7837C6.93017 11.0892 7.59335 10.6732 8.91963 9.84121C10.2281 9.02039 10.8823 8.61002 10.8823 8.00148Z" stroke="#811E5C" stroke-width="0.7" stroke-linecap="round"/>
<path d="M11.5 1.93647C10.4704 1.34088 9.27498 1 8 1C4.134 1 1 4.134 1 8C1 9.11979 1.26293 10.1781 1.73042 11.1167C1.85466 11.3662 1.89601 11.6513 1.82398 11.9204L1.40706 13.4787C1.22607 14.1551 1.84491 14.7739 2.52134 14.593L4.07957 14.176C4.34875 14.104 4.63385 14.1454 4.88327 14.2695C5.82186 14.7371 6.88021 15 8 15C11.866 15 15 11.866 15 8C15 6.72502 14.6591 5.52961 14.0635 4.5" stroke="#811E5C" stroke-width="0.7" stroke-linecap="round"/>
</svg>
