<svg width="11" height="20" viewBox="0 0 11 20" fill="none" xmlns="http://www.w3.org/2000/svg">
<path d="M9.71046 0H1.28954C0.947532 0 0.619532 0.139621 0.377697 0.388147C0.135862 0.636674 0 0.973748 0 1.32522V18.6748C0 19.0263 0.135862 19.3633 0.377697 19.6119C0.619532 19.8604 0.947532 20 1.28954 20H9.71046C10.0525 20 10.3805 19.8604 10.6223 19.6119C10.8641 19.3633 11 19.0263 11 18.6748V1.32522C11 0.973748 10.8641 0.636674 10.6223 0.388147C10.3805 0.139621 10.0525 0 9.71046 0ZM10.1538 18.6757C10.1536 18.7963 10.1068 18.912 10.0237 18.9973C9.94056 19.0825 9.82791 19.1304 9.71046 19.1304H6.76923V18.2609H4.23077V19.1304H1.28954C1.17209 19.1304 1.05944 19.0825 0.976317 18.9973C0.89319 18.912 0.846378 18.7963 0.846154 18.6757V17.3913H10.1538V18.6757ZM10.1538 16.5217H0.846154V2.6087H10.1538V16.5217ZM10.1538 1.73913H0.846154V1.32435C0.846378 1.20365 0.89319 1.08798 0.976317 1.00271C1.05944 0.917452 1.17209 0.869565 1.28954 0.869565H9.71046C9.82791 0.869565 9.94056 0.917452 10.0237 1.00271C10.1068 1.08798 10.1536 1.20365 10.1538 1.32435V1.73913ZM3.55385 6.69565V13.3043L8.63077 10L3.55385 6.69565ZM4.23077 7.95913L7.36577 10L4.23077 12.0409V7.95913Z" fill="#831D5C"/>
</svg>
