<svg width="22" height="20" viewBox="0 0 22 20" fill="none" xmlns="http://www.w3.org/2000/svg">
<path d="M11.0003 14.9147C12.8413 14.9147 14.3337 13.4223 14.3337 11.5814C14.3337 9.74043 12.8413 8.24805 11.0003 8.24805C9.15938 8.24805 7.66699 9.74043 7.66699 11.5814C7.66699 13.4223 9.15938 14.9147 11.0003 14.9147Z" stroke="#1C274C"/>
<path d="M1 11.5795C1 8.4972 0.999833 6.95626 1.74886 5.84917C2.07312 5.36991 2.48979 4.95841 2.97508 4.63817C4.09607 3.89844 5.65659 3.89844 8.77761 3.89844H13.2221C16.3431 3.89844 17.9036 3.89844 19.0246 4.63817C19.5099 4.95841 19.9266 5.36991 20.2508 5.84917C20.9999 6.95626 21 8.4972 21 11.5795C21 14.6618 21 16.2029 20.251 17.31C19.9267 17.7892 19.51 18.2007 19.0248 18.521C17.9038 19.2608 16.3432 19.2608 13.2222 19.2608H8.77778C5.65675 19.2608 4.09623 19.2608 2.97524 18.521C2.48996 18.2007 2.07328 17.7892 1.74902 17.31C1.49143 16.9293 1.32242 16.4973 1.21154 15.9688" stroke="#1C274C" stroke-linecap="round"/>
<path d="M17.5221 8.24805H16.9424" stroke="#1C274C" stroke-linecap="round"/>
<path d="M13.7533 1H8.24609" stroke="#1C274C" stroke-linecap="round"/>
</svg>
