<svg width="19" height="19" viewBox="0 0 19 19" fill="none" xmlns="http://www.w3.org/2000/svg">
<path d="M17.2956 4.114C17.1962 3.98609 17.0514 3.90112 16.891 3.87662C16.7306 3.85212 16.5669 3.88996 16.4336 3.98233C16.3004 4.07471 16.2078 4.21457 16.1749 4.37305C16.1421 4.53154 16.1714 4.69656 16.257 4.83407C16.9951 5.89181 17.4733 7.10798 17.6528 8.38419C17.8323 9.66041 17.7081 10.9609 17.2903 12.1803C16.8724 13.3998 16.1727 14.5041 15.2476 15.4038C14.3225 16.3035 13.1981 16.9735 11.9653 17.3594C10.7325 17.7454 9.42597 17.8365 8.15131 17.6255C6.87665 17.4144 5.6697 16.9071 4.62807 16.1446C3.58644 15.382 2.73938 14.3856 2.15542 13.2361C1.57145 12.0865 1.26698 10.8159 1.26662 9.52721C1.2746 7.76032 1.85031 6.04252 2.90922 4.62599C3.96814 3.20947 5.45449 2.16884 7.15005 1.65689C7.22989 1.63325 7.30428 1.59415 7.36897 1.54184C7.43367 1.48953 7.48739 1.42501 7.52709 1.35199C7.56678 1.27897 7.59167 1.19886 7.60032 1.11624C7.60898 1.03363 7.60124 0.950119 7.57753 0.870488C7.55383 0.790857 7.51463 0.716662 7.46218 0.652139C7.40973 0.587616 7.34505 0.53403 7.27183 0.494438C7.19862 0.454847 7.1183 0.430026 7.03547 0.421394C6.95263 0.412761 6.8689 0.420486 6.78906 0.444126C5.10045 0.945523 3.58492 1.90541 2.41184 3.2165C1.23876 4.5276 0.454369 6.13823 0.146327 7.8684C-0.161715 9.59856 0.0187332 11.3801 0.667504 13.0138C1.31627 14.6476 2.4078 16.0692 3.82009 17.1198C5.23238 18.1704 6.90979 18.8086 8.66482 18.963C10.4199 19.1174 12.1834 18.782 13.7583 17.9942C15.3332 17.2065 16.6574 15.9974 17.5829 14.5022C18.5084 13.0069 18.9988 11.2844 18.9992 9.52721C19.0028 7.59105 18.4079 5.70084 17.2956 4.114Z" fill="#831D5C"/>
<path d="M11.8857 1.62143C12.8809 1.92128 13.8101 2.4052 14.6243 3.0477C14.6901 3.09931 14.7655 3.13754 14.8462 3.16022C14.9269 3.18289 15.0113 3.18957 15.0946 3.17985C15.1779 3.17014 15.2584 3.14424 15.3316 3.10361C15.4048 3.06299 15.4693 3.00845 15.5212 2.9431C15.5732 2.87776 15.6117 2.80288 15.6345 2.72276C15.6574 2.64264 15.6641 2.55883 15.6543 2.47613C15.6445 2.39343 15.6184 2.31345 15.5775 2.24076C15.5366 2.16807 15.4817 2.10409 15.4159 2.05248C14.4672 1.30649 13.3839 0.747104 12.224 0.404346C12.0615 0.356432 11.8865 0.374594 11.7374 0.454837C11.5884 0.535081 11.4775 0.670832 11.4293 0.832227C11.381 0.993622 11.3993 1.16744 11.4801 1.31544C11.5609 1.46345 11.6976 1.57351 11.8602 1.62143H11.8857ZM9.06411 1.09529C9.12616 1.15129 9.19741 1.19631 9.27477 1.22841C9.35118 1.26195 9.43381 1.27927 9.51735 1.27927C9.60089 1.27927 9.68352 1.26195 9.75993 1.22841C9.83723 1.1962 9.90847 1.15119 9.97059 1.09529C10.0298 1.03606 10.0766 0.965817 10.1083 0.888584C10.1401 0.811352 10.1562 0.728652 10.1557 0.645227C10.1534 0.477392 10.0872 0.316636 9.97059 0.19516C9.89689 0.118837 9.80513 0.0620351 9.70366 0.0299275C9.6022 -0.00218012 9.49426 -0.00857326 9.38968 0.0113302C9.34971 0.0183589 9.31099 0.0311733 9.27477 0.049364C9.23403 0.0630963 9.19537 0.0822907 9.15986 0.106415L9.06411 0.182482C9.00599 0.242768 8.96043 0.313857 8.93005 0.391668C8.89566 0.471806 8.87828 0.558121 8.87898 0.645227C8.87999 0.728063 8.89734 0.809899 8.93005 0.886108C8.96249 0.962869 9.00782 1.0336 9.06411 1.09529ZM13.8008 5.26634C13.6812 5.14827 13.5194 5.082 13.3508 5.082C13.1821 5.082 13.0203 5.14827 12.9007 5.26634L9.51735 8.62599L6.14037 5.26634C6.01825 5.16249 5.86116 5.10822 5.7005 5.11438C5.53983 5.12054 5.38743 5.18668 5.27374 5.29957C5.16005 5.41247 5.09345 5.5638 5.08724 5.72334C5.08103 5.88288 5.13568 6.03886 5.24026 6.16013L8.61725 9.51978L5.23388 12.8731C5.16706 12.9299 5.11278 12.9999 5.07446 13.0785C5.03615 13.1571 5.01461 13.2428 5.01122 13.3301C5.00782 13.4174 5.02264 13.5045 5.05473 13.5858C5.08682 13.6671 5.1355 13.741 5.19772 13.8028C5.25993 13.8646 5.33433 13.9129 5.41625 13.9448C5.49817 13.9767 5.58584 13.9914 5.67375 13.988C5.76167 13.9846 5.84793 13.9632 5.92713 13.9252C6.00633 13.8871 6.07676 13.8332 6.13398 13.7669L9.51735 10.4136L12.8943 13.7669C13.0165 13.8707 13.1735 13.925 13.3342 13.9188C13.4949 13.9127 13.6473 13.8465 13.761 13.7337C13.8747 13.6208 13.9413 13.4694 13.9475 13.3099C13.9537 13.1503 13.899 12.9944 13.7944 12.8731L10.4175 9.51978L13.7944 6.16647C13.8547 6.10796 13.9027 6.03818 13.9356 5.96116C13.9686 5.88414 13.9859 5.8014 13.9865 5.71772C13.9871 5.63404 13.971 5.55107 13.9391 5.4736C13.9072 5.39612 13.8602 5.32568 13.8008 5.26634Z" fill="#831D5C"/>
</svg>
