<svg width="18" height="20" viewBox="0 0 18 20" fill="none" xmlns="http://www.w3.org/2000/svg">
<path d="M9.07715 4.69336V8.1549" stroke="#1C274C" stroke-linecap="round"/>
<path d="M4.92285 16.2305C5.5107 17.8438 7.09685 18.9997 8.96131 18.9997C9.18074 18.9997 9.3963 18.9837 9.60675 18.9528M12.9998 16.2305C12.7601 16.8883 12.3545 17.47 11.8318 17.9283" stroke="#1C274C" stroke-linecap="round"/>
<path d="M6.48104 1.60398C7.26782 1.2167 8.14799 1 9.07692 1C12.422 1 15.1338 3.80983 15.1338 7.27595V7.90722C15.1338 8.66484 15.3503 9.40541 15.7558 10.0358L16.7496 11.5805C17.6575 12.9914 16.9645 14.9092 15.3855 15.3554C11.2553 16.5226 6.89861 16.5226 2.76827 15.3554C1.1894 14.9092 0.496378 12.9914 1.40417 11.5805L2.39803 10.0358C2.80359 9.40541 3.02001 8.66484 3.02001 7.90722V7.27595C3.02001 6.31337 3.22915 5.40141 3.60291 4.58619" stroke="#1C274C" stroke-linecap="round"/>
</svg>
