<svg width="15" height="23" viewBox="0 0 15 23" fill="none" xmlns="http://www.w3.org/2000/svg">
<path d="M2.90572 0H2.90241C2.48058 0 1.88454 0.009695 1.5359 0.353911C1.15147 0.733304 1.17552 1.42782 1.18316 1.88806V2.34119C1.18315 2.36672 1.18822 2.39201 1.19809 2.4156C1.20796 2.4392 1.22244 2.46064 1.24069 2.4787C1.25894 2.49676 1.28062 2.51109 1.30447 2.52087C1.32832 2.53064 1.35389 2.53567 1.37971 2.53567H1.67614C1.70196 2.53567 1.72752 2.53064 1.75138 2.52087C1.77523 2.51109 1.79691 2.49676 1.81516 2.4787C1.83341 2.46064 1.84789 2.4392 1.85776 2.4156C1.86763 2.39201 1.8727 2.36672 1.87269 2.34119V1.91737V1.74746C1.87269 1.73894 1.87212 1.73043 1.87098 1.72198C1.87006 1.23864 1.89993 0.957219 2.02249 0.836129C2.13285 0.727216 2.40294 0.681554 2.90492 0.681554H2.90743C2.97823 0.681554 3.04926 0.68223 3.12291 0.682907H3.12621H7.49503L11.864 0.683695H11.8673C11.9411 0.683019 12.0125 0.682455 12.0839 0.682455H12.0851C12.5875 0.682455 12.8577 0.72823 12.968 0.837256C13.0903 0.958008 13.1203 1.23852 13.1195 1.71995C13.1182 1.72932 13.1175 1.73878 13.1175 1.74825V2.34186C13.1175 2.3674 13.1225 2.39268 13.1324 2.41628C13.1423 2.43988 13.1568 2.46132 13.175 2.47938C13.1933 2.49744 13.2149 2.51177 13.2388 2.52154C13.2626 2.53132 13.2882 2.53635 13.314 2.53635H13.6105C13.6363 2.53635 13.6618 2.53132 13.6857 2.52154C13.7096 2.51177 13.7312 2.49744 13.7495 2.47938C13.7677 2.46132 13.7822 2.43988 13.7921 2.41628C13.8019 2.39268 13.807 2.3674 13.807 2.34186V1.92064C13.8138 1.46108 13.8482 0.743114 13.4549 0.354927C13.1055 0.00992149 12.5076 0.00101434 12.0856 0.00101434H12.085C12.0105 0.00101434 11.9359 0.00157801 11.8628 0.00236724L7.77207 0.00157724H7.21878H3.12804C3.05484 0.000900763 2.9804 0.000224337 2.90572 0.000224337V0ZM4.6651 4.30693C4.61298 4.30694 4.56299 4.32742 4.52613 4.36386C4.48948 4.40041 4.46899 4.44983 4.46912 4.5013V4.79771C4.46896 4.84918 4.48946 4.89862 4.52613 4.93515C4.54436 4.95322 4.56603 4.96754 4.58988 4.97731C4.61373 4.98708 4.63929 4.9921 4.6651 4.99209H10.3344C10.3602 4.9921 10.3858 4.98709 10.4097 4.97732C10.4335 4.96756 10.4552 4.95325 10.4735 4.9352C10.4917 4.91715 10.5062 4.89571 10.5161 4.87212C10.526 4.84853 10.5311 4.82325 10.5311 4.79771V4.5013C10.5311 4.47576 10.526 4.45046 10.5161 4.42686C10.5063 4.40325 10.4918 4.38181 10.4735 4.36374C10.4552 4.34568 10.4336 4.33136 10.4097 4.32159C10.3858 4.31182 10.3602 4.3068 10.3344 4.30681L4.6651 4.30693ZM12.6229 4.84811H12.3028C12.1895 4.84811 12.0809 4.89257 12.0008 4.97173C11.9207 5.05088 11.8757 5.15825 11.8756 5.27023C11.8756 5.38226 11.9206 5.48968 12.0007 5.56889C12.0809 5.64809 12.1895 5.69258 12.3028 5.69258H12.6226C12.5382 5.56754 12.4933 5.42055 12.4935 5.27023C12.4933 5.1199 12.5382 4.97288 12.6227 4.84788L12.6229 4.84811ZM13.264 4.67177C13.1845 4.67171 13.1057 4.68715 13.0322 4.7172C12.9587 4.74724 12.892 4.79131 12.8357 4.84689C12.7794 4.90246 12.7348 4.96845 12.7043 5.04109C12.6739 5.11373 12.6582 5.19159 12.6581 5.27023C12.6582 5.42903 12.722 5.5813 12.8355 5.69357C12.9491 5.80585 13.1031 5.86892 13.2636 5.86892C13.4241 5.86883 13.578 5.80571 13.6915 5.69345C13.8049 5.58118 13.8687 5.42896 13.8687 5.27023C13.8687 5.11145 13.8049 4.95917 13.6914 4.8469C13.5778 4.73462 13.4239 4.67155 13.2633 4.67155L13.264 4.67177ZM4.6651 5.54872C4.61306 5.54858 4.56308 5.56886 4.52613 5.60509C4.4895 5.64165 4.46901 5.69107 4.46912 5.74253V6.03905C4.46901 6.09052 4.4895 6.13993 4.52613 6.17649C4.56299 6.21293 4.61298 6.23341 4.6651 6.23343H7.75987C7.78569 6.23343 7.81126 6.2284 7.83511 6.21862C7.85897 6.20885 7.88064 6.19452 7.89889 6.17646C7.91714 6.1584 7.93162 6.13696 7.94149 6.11336C7.95136 6.08976 7.95644 6.06448 7.95642 6.03894V5.74253C7.95642 5.69098 7.93571 5.64154 7.89885 5.60509C7.86199 5.56863 7.812 5.54815 7.75987 5.54815L4.6651 5.54872ZM1.92228 3.99146H1.91749C1.83484 3.99259 1.67956 3.99146 1.54468 4.03363C1.45334 4.06069 1.3705 4.11036 1.30401 4.17794C1.24484 4.24073 1.20118 4.31621 1.17644 4.39848C1.1322 4.53885 1.13539 4.70346 1.13528 4.79196L1.13459 5.70645C1.13459 5.80792 1.13072 5.99531 1.18385 6.14966C1.20878 6.22416 1.24903 6.29276 1.30207 6.35114C1.3694 6.42247 1.45447 6.47511 1.54879 6.5038C1.69004 6.54889 1.85308 6.5463 1.93938 6.54686H2.91986C3.00616 6.54686 3.16919 6.54878 3.31045 6.5038C3.40481 6.47519 3.48992 6.42259 3.55728 6.35125C3.61033 6.29286 3.65055 6.22422 3.67539 6.14966C3.72863 5.99531 3.72464 5.80815 3.72476 5.70645L3.72407 4.79196C3.72407 4.70346 3.72715 4.53885 3.68303 4.39848C3.65822 4.31618 3.61452 4.24067 3.55534 4.17783C3.48885 4.11024 3.40601 4.06057 3.31467 4.03351C3.17991 3.99169 3.02452 3.99259 2.94197 3.99146H1.92262H1.92228ZM7.49993 3.57903C7.50688 3.57903 7.51384 3.57971 7.52091 3.57971L13.7714 3.58095H13.8503C14.1165 3.58095 14.2385 3.59809 14.2829 3.62052C14.3018 3.65908 14.3114 3.75582 14.3076 3.99834C14.3076 4.00014 14.3076 4.00206 14.3076 4.00386L14.3092 6.40537C14.3099 6.73966 14.2922 6.86853 14.2602 6.90991C14.2182 6.94137 14.0883 6.95929 13.7519 6.9602H13.7529H7.50084L1.24666 6.95941H1.24758C0.910909 6.9585 0.781053 6.94058 0.739326 6.9089C0.707403 6.8674 0.689846 6.73842 0.690416 6.40435L0.69224 4.00285C0.69224 4.00104 0.69224 3.99913 0.69224 3.99721C0.688364 3.75514 0.698054 3.65795 0.71698 3.61951C0.761443 3.59696 0.883661 3.57982 1.14964 3.57982H1.15318H1.22318H1.22854L7.47907 3.57892C7.48613 3.57892 7.49309 3.57892 7.50004 3.57824L7.49993 3.57903ZM7.47895 2.89725L1.22877 2.89815H1.12046C0.90384 2.89815 0.567971 2.90165 0.333797 3.05172C0.307223 3.06868 0.281923 3.08752 0.258095 3.10809C0.210332 3.14992 0.169005 3.19842 0.135421 3.25207C-0.0186044 3.49571 -0.000591001 3.83407 0.00214521 4.00905L0.000434799 6.40435C0.000434799 6.62985 -0.0189466 7.06449 0.20109 7.33677C0.216294 7.35568 0.232546 7.37375 0.249772 7.39089C0.267171 7.40818 0.285516 7.42451 0.304724 7.43982C0.546879 7.63307 0.917293 7.64276 1.15751 7.64276H1.24678L7.4118 7.64367H7.58794H13.7531H13.8427C14.083 7.64367 14.453 7.63397 14.695 7.44072C14.7143 7.42548 14.7326 7.40914 14.75 7.39179C14.7672 7.37472 14.7835 7.35669 14.7987 7.33778C15.0187 7.0655 14.9999 6.6312 14.9994 6.40537L14.9978 4.00386C15.0009 3.8273 15.017 3.49346 14.8646 3.25252C14.8309 3.1989 14.7895 3.1505 14.7415 3.10888C14.7177 3.08837 14.6924 3.06953 14.6659 3.05251C14.4318 2.9021 14.095 2.89894 13.8786 2.89894H13.7715L7.52136 2.8977H7.52045C7.51361 2.8977 7.50688 2.8977 7.50016 2.89838C7.49343 2.89906 7.48613 2.8977 7.47907 2.8977L7.47895 2.89725ZM5.6539 9.79375C5.62809 9.79374 5.60253 9.79877 5.57868 9.80854C5.55484 9.81831 5.53317 9.83263 5.51492 9.85068C5.49665 9.86872 5.48215 9.89014 5.47225 9.91373C5.46235 9.93731 5.45725 9.96259 5.45723 9.98812V10.2846C5.45725 10.3102 5.46235 10.3355 5.47225 10.359C5.48215 10.3826 5.49665 10.404 5.51492 10.4221C5.53316 10.4402 5.55482 10.4545 5.57867 10.4643C5.60252 10.4741 5.62808 10.4791 5.6539 10.4791H9.34596C9.39809 10.4791 9.44808 10.4587 9.48494 10.4222C9.5218 10.3858 9.54251 10.3363 9.54251 10.2848V9.98835C9.54251 9.9368 9.5218 9.88736 9.48494 9.8509C9.44808 9.81445 9.39809 9.79397 9.34596 9.79397L5.6539 9.79375ZM11.8888 10.4115C11.9615 10.519 12.0002 10.6454 12 10.7746C12.0002 10.9039 11.9615 11.0303 11.8888 11.1378H12.1639C12.2613 11.1378 12.3547 11.0995 12.4236 11.0314C12.4924 10.9633 12.5311 10.871 12.5311 10.7746C12.5311 10.6783 12.4924 10.586 12.4235 10.5179C12.3547 10.4498 12.2613 10.4115 12.1639 10.4115H11.8888ZM11.3377 10.2603C11.1997 10.2603 11.0673 10.3145 10.9697 10.411C10.8721 10.5076 10.8172 10.6385 10.8172 10.775C10.8172 10.8426 10.8307 10.9095 10.8568 10.972C10.883 11.0344 10.9213 11.0912 10.9696 11.139C11.018 11.1868 11.0753 11.2247 11.1385 11.2506C11.2016 11.2765 11.2693 11.2898 11.3377 11.2898C11.4758 11.2898 11.6082 11.2355 11.7058 11.139C11.8034 11.0425 11.8583 10.9115 11.8583 10.775C11.8583 10.7074 11.8448 10.6404 11.8186 10.578C11.7925 10.5155 11.7541 10.4588 11.7058 10.411C11.6574 10.3632 11.6001 10.3253 11.5369 10.2994C11.4737 10.2736 11.406 10.2603 11.3377 10.2603ZM3.24729 10.186H4.23996C4.28203 10.186 4.31418 10.1875 4.3387 10.1887C4.33984 10.217 4.3404 10.255 4.34052 10.3063V11.2038C4.34052 11.2756 4.33938 11.3254 4.33721 11.36C4.30997 11.3615 4.27268 11.3623 4.22115 11.3626H3.26587C3.21434 11.3626 3.17706 11.3614 3.14981 11.36C3.14765 11.3254 3.14651 11.2756 3.14651 11.2038L3.14719 10.3062C3.14719 10.2549 3.14787 10.2169 3.14901 10.1886C3.17353 10.1873 3.20602 10.1864 3.24763 10.1859L3.24729 10.186ZM5.6539 11.0711C5.62809 11.071 5.60253 11.0761 5.57868 11.0858C5.55484 11.0956 5.53317 11.1099 5.51492 11.128C5.49664 11.146 5.48213 11.1674 5.47224 11.191C5.46234 11.2146 5.45724 11.2399 5.45723 11.2654V11.5615C5.45724 11.587 5.46234 11.6123 5.47224 11.6359C5.48213 11.6595 5.49664 11.6809 5.51492 11.6989C5.5332 11.7169 5.55489 11.7311 5.57873 11.7408C5.60258 11.7505 5.62812 11.7554 5.6539 11.7553H7.89771C7.94976 11.7553 7.99969 11.735 8.03656 11.6986C8.07343 11.6623 8.09422 11.613 8.09437 11.5615V11.2651C8.09437 11.2396 8.08928 11.2143 8.0794 11.1907C8.06951 11.1671 8.05503 11.1457 8.03676 11.1276C8.0185 11.1096 7.99682 11.0952 7.97296 11.0855C7.9491 11.0757 7.92353 11.0707 7.89771 11.0707L5.6539 11.0711ZM3.24569 9.51955H3.24102C3.15996 9.52079 3.00753 9.51955 2.87516 9.56092C2.78545 9.58746 2.70409 9.63625 2.63882 9.70265C2.58073 9.7643 2.53781 9.83838 2.51342 9.91912C2.47009 10.0569 2.47317 10.2186 2.47306 10.3054L2.47249 11.2031C2.47249 11.3029 2.4685 11.4866 2.52083 11.6382C2.54518 11.7114 2.58467 11.7787 2.63677 11.836C2.70286 11.9061 2.78635 11.9577 2.87893 11.9859C3.01768 12.03 3.17763 12.0277 3.26245 12.0282H4.22469C4.30951 12.0282 4.46946 12.03 4.6081 11.9859C4.70073 11.9579 4.78434 11.9065 4.85059 11.8366C4.90268 11.7793 4.94216 11.7119 4.96654 11.6387C5.01876 11.4872 5.01488 11.3034 5.01499 11.2036L5.01431 10.306C5.01431 10.219 5.01739 10.0579 4.97407 9.91968C4.94972 9.83892 4.90679 9.76483 4.84866 9.70321C4.78346 9.63662 4.70209 9.58767 4.61232 9.56104C4.47995 9.51989 4.32729 9.52079 4.24646 9.51966H3.24581L3.24569 9.51955ZM5.6539 14.2362C5.62812 14.2361 5.60258 14.241 5.57873 14.2507C5.55489 14.2604 5.5332 14.2746 5.51492 14.2926C5.49663 14.3106 5.48212 14.332 5.47222 14.3556C5.46232 14.3792 5.45723 14.4045 5.45723 14.43V14.7264C5.45709 14.7521 5.46211 14.7776 5.47202 14.8014C5.48192 14.8252 5.4965 14.8468 5.51492 14.865C5.55187 14.9012 5.60185 14.9215 5.6539 14.9214H9.34596C9.39809 14.9214 9.44808 14.9009 9.48494 14.8644C9.5218 14.828 9.54251 14.7785 9.54251 14.727V14.4306C9.54251 14.379 9.5218 14.3296 9.48494 14.2931C9.44808 14.2567 9.39809 14.2362 9.34596 14.2362H5.6539ZM11.8888 14.8543C11.9615 14.9617 12.0002 15.0882 12 15.2174C12.0002 15.3467 11.9615 15.4731 11.8888 15.5806H12.1639C12.2613 15.5806 12.3547 15.5423 12.4236 15.4742C12.4924 15.4061 12.5311 15.3137 12.5311 15.2174C12.5311 15.1211 12.4924 15.0287 12.4236 14.9606C12.3547 14.8925 12.2613 14.8543 12.1639 14.8543H11.8888ZM11.3377 14.7026C11.2347 14.7026 11.1341 14.7328 11.0485 14.7894C10.9629 14.846 10.8962 14.9264 10.8568 15.0204C10.8174 15.1145 10.807 15.218 10.8271 15.3179C10.8472 15.4177 10.8968 15.5095 10.9696 15.5814C11.0424 15.6534 11.1352 15.7025 11.2361 15.7223C11.3371 15.7422 11.4418 15.732 11.5369 15.693C11.632 15.6541 11.7133 15.5881 11.7705 15.5034C11.8277 15.4188 11.8583 15.3192 11.8583 15.2174C11.8583 15.1498 11.8448 15.0829 11.8187 15.0204C11.7925 14.9579 11.7542 14.9012 11.7058 14.8534C11.6575 14.8056 11.6001 14.7677 11.5369 14.7418C11.4738 14.7159 11.4061 14.7026 11.3377 14.7026ZM3.24729 14.6282H4.23996C4.28203 14.6282 4.31418 14.6297 4.3387 14.6308C4.33984 14.6591 4.3404 14.6971 4.34052 14.7485V15.6461C4.34052 15.7179 4.33938 15.7676 4.33721 15.8024C4.30997 15.8037 4.27268 15.8046 4.22115 15.8048H3.26587C3.21434 15.8048 3.17706 15.8037 3.14981 15.8024C3.14765 15.7676 3.14651 15.7178 3.14651 15.646L3.14719 14.7485C3.14719 14.6971 3.14787 14.6591 3.14901 14.6308C3.17353 14.6296 3.20602 14.6288 3.24763 14.6281L3.24729 14.6282ZM5.6539 15.5135C5.62808 15.5135 5.60251 15.5185 5.57865 15.5283C5.55479 15.538 5.53311 15.5523 5.51484 15.5704C5.49658 15.5884 5.48209 15.6099 5.47221 15.6335C5.46232 15.6571 5.45723 15.6823 5.45723 15.7079V16.0043C5.45729 16.0558 5.47804 16.1053 5.51491 16.1417C5.55178 16.1782 5.60177 16.1986 5.6539 16.1987H7.89771C7.92353 16.1987 7.9491 16.1937 7.97296 16.1839C7.99682 16.1741 8.0185 16.1598 8.03676 16.1418C8.05503 16.1237 8.06951 16.1023 8.0794 16.0787C8.08928 16.0551 8.09437 16.0298 8.09437 16.0043V15.7079C8.09437 15.6823 8.08928 15.6571 8.0794 15.6335C8.06951 15.6099 8.05503 15.5884 8.03676 15.5704C8.0185 15.5523 7.99682 15.538 7.97296 15.5283C7.9491 15.5185 7.92353 15.5135 7.89771 15.5135H5.6539ZM3.24569 13.962H3.24102C3.15996 13.9631 3.00753 13.962 2.87516 14.0034C2.78546 14.0299 2.70409 14.0786 2.63882 14.145C2.58078 14.2067 2.53786 14.2807 2.51342 14.3615C2.47009 14.4992 2.47317 14.6608 2.47306 14.7476L2.47249 15.6453C2.47249 15.7451 2.4685 15.9287 2.52083 16.0803C2.54515 16.1535 2.58464 16.2209 2.63677 16.2783C2.70289 16.3482 2.78638 16.3998 2.87893 16.428C3.01768 16.4721 3.17763 16.4698 3.26245 16.4703H4.22469C4.30951 16.4703 4.46946 16.4721 4.6081 16.4279C4.70071 16.4001 4.78433 16.3487 4.85059 16.2789C4.90262 16.2216 4.94202 16.1542 4.96631 16.0811C5.01853 15.9295 5.01465 15.7459 5.01477 15.646L5.01408 14.7483C5.01408 14.6615 5.01716 14.5002 4.97384 14.362C4.94946 14.2813 4.90654 14.2072 4.84843 14.1455C4.78324 14.0791 4.70197 14.0301 4.61232 14.0034C4.47995 13.9623 4.32729 13.9631 4.24646 13.962H3.24581H3.24569ZM6.60302 20.4259C6.57823 20.4259 6.55368 20.4307 6.53078 20.4401C6.50788 20.4495 6.48708 20.4633 6.46955 20.4806C6.45203 20.498 6.43814 20.5186 6.42867 20.5412C6.41919 20.5639 6.41432 20.5882 6.41434 20.6127V20.9259C6.41432 20.9504 6.4192 20.9747 6.42868 20.9974C6.43816 21.0201 6.45206 21.0407 6.4696 21.058C6.48713 21.0754 6.50795 21.0891 6.53086 21.0985C6.55377 21.1079 6.57833 21.1127 6.60314 21.1127H8.39627C8.44637 21.1127 8.49442 21.093 8.52985 21.058C8.56528 21.023 8.58518 20.9755 8.58518 20.9259V20.6127C8.58518 20.5632 8.56528 20.5156 8.52985 20.4806C8.49442 20.4456 8.44637 20.4259 8.39627 20.4259H6.60302ZM13.119 19.3451V20.9697C13.1198 21.6032 13.097 21.9883 12.9451 22.1471C12.8197 22.2783 12.5205 22.319 11.974 22.319H11.847H11.8457L7.51338 22.3197H7.47496L3.14263 22.3188H3.14149C3.09817 22.3188 3.05781 22.3188 3.01551 22.3188H3.01505C2.4685 22.3188 2.16956 22.2781 2.04381 22.1467C1.89195 21.9881 1.86927 21.6027 1.87006 20.9693V19.3458L13.119 19.3451ZM1.37971 8.03377C1.32767 8.03364 1.27769 8.05391 1.24074 8.09014C1.20389 8.1266 1.18318 8.17603 1.18316 8.22758V8.28057L1.18145 20.9681C1.18077 21.465 1.1566 22.2099 1.54388 22.6142C1.91476 23.0018 2.57088 22.9992 3.01574 22.9992H3.14423L7.47496 23H7.51498L11.8455 22.9993C11.888 22.9993 11.9309 22.9993 11.9741 22.9993H11.9916C12.4363 22.9993 13.0799 22.9967 13.4458 22.6143C13.8335 22.2096 13.8091 21.4643 13.8084 20.9682L13.8075 8.28023V8.22702C13.8075 8.20149 13.8024 8.17621 13.7925 8.15263C13.7826 8.12904 13.7682 8.10762 13.7499 8.08958C13.7129 8.05332 13.663 8.03305 13.6109 8.03321H13.3145C13.2624 8.03307 13.2125 8.05334 13.1755 8.08958C13.1573 8.10766 13.143 8.12911 13.1332 8.15269C13.1234 8.17627 13.1184 8.20153 13.1185 8.22702V8.82176C13.1185 8.8283 13.1185 8.83472 13.1194 8.84104L13.12 18.6598H1.87086L1.87212 8.84058C1.87269 8.83438 1.87303 8.82807 1.87303 8.82176V8.22803C1.87301 8.17649 1.8523 8.12705 1.81545 8.09059C1.77848 8.05438 1.72852 8.03411 1.67648 8.03422L1.37971 8.03377Z" fill="#831D5C"/>
</svg>
