<svg width="18" height="24" viewBox="0 0 18 24" fill="none" xmlns="http://www.w3.org/2000/svg">
<path d="M14.9987 17H3.00131C1.89602 17 1 17.8755 1 18.9556V20.9111C1 21.9911 1.89602 22.8667 3.00131 22.8667H14.9987C16.104 22.8667 17 21.9911 17 20.9111V18.9556C17 17.8755 16.104 17 14.9987 17Z" stroke="#1C274C" stroke-miterlimit="10"/>
<path d="M17 18.8667V2.98634C17 2.45953 16.7893 1.9543 16.4142 1.58179C16.0391 1.20927 15.5304 1 15 1H3C2.46957 1 1.96086 1.20927 1.58579 1.58179C1.21071 1.9543 1 2.45953 1 2.98634V18.8667" stroke="#1C274C" stroke-miterlimit="10"/>
<path d="M10.8662 19.9336H14.8662" stroke="#1C274C" stroke-miterlimit="10" stroke-linecap="round"/>
<path d="M4.23379 19.9328C4.23379 20.0985 4.09947 20.2328 3.93379 20.2328C3.7681 20.2328 3.63379 20.0985 3.63379 19.9328C3.63379 19.7671 3.7681 19.6328 3.93379 19.6328C4.09948 19.6328 4.23379 19.7671 4.23379 19.9328Z" fill="#1C274C" stroke="#1C274C"/>
</svg>
