<svg width="20" height="20" viewBox="0 0 20 20" fill="none" xmlns="http://www.w3.org/2000/svg">
<path d="M16.1983 8.52672C16.1983 8.3523 16.057 8.21094 15.8825 8.21094H8.30943C8.13502 8.21094 7.99365 8.35234 7.99365 8.52672C7.99365 8.70113 8.13506 8.8425 8.30943 8.8425H15.8825C16.0569 8.8425 16.1983 8.70109 16.1983 8.52672Z" fill="#831D5C"/>
<path d="M9.57164 11.1562C9.39723 11.1562 9.25586 11.2977 9.25586 11.472C9.25586 11.6464 9.39727 11.7878 9.57164 11.7878H9.61375C9.78816 11.7878 9.92953 11.6464 9.92953 11.472C9.92953 11.2977 9.78813 11.1562 9.61375 11.1562H9.57164Z" fill="#831D5C"/>
<path d="M17.8814 5.26496V2C17.8814 0.897227 16.9842 0 15.8814 0H4.10363C3.00086 0 2.10363 0.897227 2.10363 2V10.3183C0.934258 10.3735 0 11.3428 0 12.5263C0 13.7452 0.990976 14.7368 2.20906 14.7368H7.97887V15.8307C7.97887 15.9717 8.04504 16.1048 8.16051 16.196C8.16055 16.1961 8.16059 16.1961 8.16059 16.1961C8.35691 16.3511 8.65309 16.3511 8.84953 16.1961L10.4857 14.9038C10.6404 14.7817 10.729 14.6057 10.729 14.4211C10.729 14.2364 10.6404 14.0604 10.4857 13.9383L8.84953 12.6461C8.65309 12.4909 8.35695 12.4909 8.16059 12.646C8.04508 12.7372 7.97887 12.8704 7.97887 13.0114V14.1053H2.7352V2C2.7352 1.24547 3.3491 0.631562 4.10363 0.631562H15.8814C16.636 0.631562 17.2499 1.24547 17.2499 2V5.26316H11.9913V4.1693C11.9913 4.02828 11.9251 3.89516 11.8096 3.80395C11.6132 3.64883 11.3171 3.64891 11.1207 3.80395L9.48449 5.09617C9.32984 5.21828 9.24117 5.39426 9.24117 5.57895C9.24117 5.76363 9.32984 5.93961 9.48445 6.06172L11.1207 7.35395C11.3171 7.50906 11.6132 7.50902 11.8095 7.35402C11.925 7.26285 11.9913 7.12969 11.9913 6.98863V5.89473H17.5621C17.5644 5.89477 17.5668 5.89477 17.5691 5.89473H17.7909C18.6607 5.89473 19.3684 6.60301 19.3684 7.47367C19.3684 8.31391 18.7093 9.00297 17.8814 9.05004V6.98945C17.8814 6.81504 17.74 6.67367 17.5656 6.67367C17.3911 6.67367 17.2498 6.81508 17.2498 6.98945V18C17.2498 18.7545 16.6359 19.3684 15.8814 19.3684H4.10363C3.3491 19.3684 2.7352 18.7545 2.7352 18V15.8737C2.7352 15.6993 2.59379 15.5579 2.41941 15.5579C2.245 15.5579 2.10363 15.6993 2.10363 15.8737V18C2.10363 19.1028 3.00086 20 4.10363 20H15.8814C16.9842 20 17.8814 19.1028 17.8814 18V9.68238C19.0577 9.63469 20 8.66223 20 7.47367C20 6.28516 19.0577 5.31266 17.8814 5.26496ZM2.10363 14.1018C1.28273 14.0473 0.631602 13.3615 0.631602 12.5263C0.631602 11.6911 1.28277 11.0053 2.10363 10.9508V14.1018ZM8.61043 13.2621L10.078 14.4211L8.61043 15.5801V13.2621ZM11.3596 6.73793L9.89211 5.57895L11.3596 4.41992V6.73793Z" fill="#831D5C"/>
<path d="M15.8826 14.1035H12.0961C11.9216 14.1035 11.7803 14.2449 11.7803 14.4193C11.7803 14.5937 11.9216 14.7351 12.0961 14.7351H15.8826C16.0571 14.7351 16.1984 14.5937 16.1984 14.4193C16.1984 14.2449 16.057 14.1035 15.8826 14.1035Z" fill="#831D5C"/>
<path d="M4.1024 11.7878H8.30967C8.48408 11.7878 8.62545 11.6464 8.62545 11.472C8.62545 11.2977 8.48404 11.1562 8.30967 11.1562H4.1024C3.92799 11.1562 3.78662 11.2977 3.78662 11.472C3.78662 11.6464 3.92803 11.7878 4.1024 11.7878Z" fill="#831D5C"/>
<path d="M15.8826 11.1562H12.0961C11.9216 11.1562 11.7803 11.2977 11.7803 11.472C11.7803 11.6464 11.9216 11.7878 12.0961 11.7878H15.8826C16.0571 11.7878 16.1984 11.6464 16.1984 11.472C16.1984 11.2977 16.057 11.1562 15.8826 11.1562Z" fill="#831D5C"/>
<path d="M8.20475 5.57945C8.20475 5.40504 8.06334 5.26367 7.88896 5.26367H4.1024C3.92799 5.26367 3.78662 5.40508 3.78662 5.57945C3.78662 5.75387 3.92803 5.89523 4.1024 5.89523H7.88893C8.06334 5.89523 8.20475 5.75387 8.20475 5.57945Z" fill="#831D5C"/>
<path d="M10.7919 11.7878H10.8339C11.0084 11.7878 11.1497 11.6464 11.1497 11.472C11.1497 11.2977 11.0084 11.1562 10.8339 11.1562H10.7919C10.6174 11.1562 10.4761 11.2977 10.4761 11.472C10.4761 11.6464 10.6174 11.7878 10.7919 11.7878Z" fill="#831D5C"/>
<path d="M7.00523 8.21094C6.83082 8.21094 6.68945 8.35234 6.68945 8.52672C6.68945 8.70113 6.83086 8.8425 7.00523 8.8425H7.0473C7.22172 8.8425 7.36309 8.70109 7.36309 8.52672C7.36309 8.3523 7.22168 8.21094 7.0473 8.21094H7.00523Z" fill="#831D5C"/>
<path d="M4.1024 8.8425H5.78529C5.95971 8.8425 6.10107 8.70109 6.10107 8.52672C6.10107 8.3523 5.95967 8.21094 5.78529 8.21094H4.1024C3.92799 8.21094 3.78662 8.35234 3.78662 8.52672C3.78662 8.70109 3.92803 8.8425 4.1024 8.8425Z" fill="#831D5C"/>
</svg>
