<svg width="32" height="31" viewBox="0 0 32 31" fill="none" xmlns="http://www.w3.org/2000/svg">
<path d="M18.7711 29.998H12.8474C7.26248 29.998 4.47003 29.998 2.73501 28.2509C1 26.504 1 23.692 1 18.0683V15.0859C1 9.46222 1 6.65038 2.73501 4.90331C4.47003 3.15625 7.26248 3.15625 12.8474 3.15625H18.7711C24.356 3.15625 27.1485 3.15625 28.8835 4.90331C30.6185 6.65038 30.6185 9.46222 30.6185 15.0859V18.0683C30.6185 23.692 30.6185 26.504 28.8835 28.2509C27.9161 29.225 26.6202 29.6559 24.6948 29.8467" stroke="#1C274C" stroke-linecap="round"/>
<path d="M8.4043 3.15968V1" stroke="#1C274C" stroke-linecap="round"/>
<path d="M23.2148 3.15968V1" stroke="#1C274C" stroke-linecap="round"/>
<path d="M30.0015 10.8711H22.7511H14.0135M1 10.8711H6.76311" stroke="#1C274C" stroke-linecap="round"/>
<path d="M24.7571 22.5973C24.7571 23.4493 24.0665 24.1399 23.2145 24.1399C22.3625 24.1399 21.6719 23.4493 21.6719 22.5973C21.6719 21.7453 22.3625 21.0547 23.2145 21.0547C24.0665 21.0547 24.7571 21.7453 24.7571 22.5973Z" fill="#1C274C"/>
<path d="M24.7571 16.5798C24.7571 17.3466 24.0665 17.9681 23.2145 17.9681C22.3625 17.9681 21.6719 17.3466 21.6719 16.5798C21.6719 15.813 22.3625 15.1914 23.2145 15.1914C24.0665 15.1914 24.7571 15.813 24.7571 16.5798Z" fill="#1C274C"/>
<path d="M17.3519 22.5973C17.3519 23.4493 16.6612 24.1399 15.8092 24.1399C14.9572 24.1399 14.2666 23.4493 14.2666 22.5973C14.2666 21.7453 14.9572 21.0547 15.8092 21.0547C16.6612 21.0547 17.3519 21.7453 17.3519 22.5973Z" fill="#1C274C"/>
<path d="M17.3519 16.5798C17.3519 17.3466 16.6612 17.9681 15.8092 17.9681C14.9572 17.9681 14.2666 17.3466 14.2666 16.5798C14.2666 15.813 14.9572 15.1914 15.8092 15.1914C16.6612 15.1914 17.3519 15.813 17.3519 16.5798Z" fill="#1C274C"/>
<path d="M9.94757 22.5973C9.94757 23.4493 9.2569 24.1399 8.40494 24.1399C7.55297 24.1399 6.8623 23.4493 6.8623 22.5973C6.8623 21.7453 7.55297 21.0547 8.40494 21.0547C9.2569 21.0547 9.94757 21.7453 9.94757 22.5973Z" fill="#1C274C"/>
<path d="M9.94757 16.5798C9.94757 17.3466 9.2569 17.9681 8.40494 17.9681C7.55297 17.9681 6.8623 17.3466 6.8623 16.5798C6.8623 15.813 7.55297 15.1914 8.40494 15.1914C9.2569 15.1914 9.94757 15.813 9.94757 16.5798Z" fill="#1C274C"/>
</svg>
