<svg width="32" height="32" viewBox="0 0 32 32" fill="none" xmlns="http://www.w3.org/2000/svg">
<mask id="mask0_5334_321" style="mask-type:luminance" maskUnits="userSpaceOnUse" x="8" y="13" width="16" height="4">
<path d="M23.4707 13.041H8.4707V16.041H23.4707V13.041Z" fill="white"/>
</mask>
<g mask="url(#mask0_5334_321)">
<path d="M21.9717 16.0437C21.7767 16.0461 21.583 16.0104 21.4017 15.9387C21.2173 15.8608 21.0495 15.7489 20.9067 15.6088C20.7718 15.4705 20.6647 15.3074 20.5917 15.1286C20.5161 14.9426 20.4754 14.7443 20.4717 14.5436C20.4733 14.15 20.6296 13.7731 20.9067 13.4936C21.0454 13.3486 21.2145 13.2359 21.4017 13.1638C21.6763 13.0507 21.9783 13.0217 22.2693 13.0804C22.5603 13.1392 22.8274 13.283 23.0367 13.4936C23.3137 13.7731 23.47 14.15 23.4717 14.5436C23.4679 14.7443 23.4273 14.9426 23.3517 15.1286C23.2786 15.3074 23.1715 15.4705 23.0367 15.6088C22.8966 15.7477 22.7302 15.8577 22.5475 15.9324C22.3648 16.0069 22.1691 16.0447 21.9717 16.0437Z" fill="#1C274C"/>
<path d="M15.9707 16.0437C15.7757 16.0461 15.5821 16.0104 15.4007 15.9387C15.2164 15.8608 15.0485 15.7489 14.9057 15.6088C14.7709 15.4705 14.6638 15.3074 14.5907 15.1286C14.5151 14.9426 14.4745 14.7443 14.4707 14.5436C14.4724 14.15 14.6287 13.7731 14.9057 13.4936C15.0445 13.3486 15.2135 13.2359 15.4007 13.1638C15.6754 13.0507 15.9773 13.0217 16.2683 13.0804C16.5593 13.1392 16.8265 13.283 17.0357 13.4936C17.3128 13.7731 17.4691 14.15 17.4707 14.5436C17.467 14.7443 17.4263 14.9426 17.3507 15.1286C17.2777 15.3074 17.1706 15.4705 17.0357 15.6088C16.8956 15.7477 16.7293 15.8577 16.5466 15.9324C16.3639 16.0069 16.1681 16.0447 15.9707 16.0437Z" fill="#1C274C"/>
<path d="M9.97071 16.0437C9.77569 16.0461 9.58207 16.0104 9.4007 15.9387C9.2164 15.8608 9.04849 15.7489 8.90572 15.6088C8.77079 15.4705 8.6638 15.3074 8.59069 15.1286C8.5151 14.9426 8.47445 14.7443 8.4707 14.5436C8.47235 14.15 8.62859 13.7731 8.90572 13.4936C9.04445 13.3486 9.21344 13.2359 9.4007 13.1638C9.67528 13.0507 9.97723 13.0217 10.2683 13.0804C10.5594 13.1392 10.8264 13.283 11.0357 13.4936C11.3128 13.7731 11.4691 14.15 11.4707 14.5436C11.467 14.7443 11.4263 14.9426 11.3507 15.1286C11.2776 15.3074 11.1706 15.4705 11.0357 15.6088C10.8955 15.7477 10.7293 15.8577 10.5466 15.9324C10.3638 16.0069 10.1681 16.0447 9.97071 16.0437Z" fill="#1C274C"/>
</g>
<path d="M5.46998 22.8356V27.8527C5.46954 28.467 5.64929 29.0679 5.98698 29.5813C6.32468 30.0947 6.80562 30.4983 7.37034 30.742C7.93507 30.9856 8.55884 31.0589 9.16478 30.9525C9.77071 30.8463 10.3323 30.5654 10.78 30.1442L14.695 26.46H16C24.28 26.46 31 20.769 31 13.73C31 6.69106 24.28 1 16 1C7.72001 1 1 6.70604 1 13.73C1.03371 15.4805 1.45462 17.2017 2.23258 18.7707C3.01054 20.3397 4.1263 21.7176 5.50001 22.8056L5.46998 22.8356Z" stroke="#384262" stroke-linecap="round" stroke-linejoin="round"/>
</svg>
