<svg width="32" height="32" viewBox="0 0 32 32" fill="none" xmlns="http://www.w3.org/2000/svg">
<path d="M16.7897 31.0005H4.16393C2.42452 31.0005 1 29.6055 1 27.8955V5.63553C1 1.70554 3.92402 -0.0794774 7.50781 1.67552L14.1656 4.94553C15.6051 5.65053 16.7897 7.52551 16.7897 9.11551V31.0005Z" stroke="#1C274C" stroke-linecap="round" stroke-linejoin="round"/>
<path d="M30.9998 20.5923V26.2619C30.9998 29.5016 29.4992 31.0015 26.2579 31.0015H16.7891V13.6328L17.4943 13.7828L24.2471 15.2977L27.2933 15.9726C29.2741 16.4076 30.8948 17.4275 30.9848 20.3073C30.9998 20.3973 30.9998 20.4873 30.9998 20.5923Z" stroke="#1C274C" stroke-linecap="round" stroke-linejoin="round"/>
<path d="M6.13184 11.6562H11.6582" stroke="#1C274C" stroke-linecap="round" stroke-linejoin="round"/>
<path d="M6.13184 17.5781H11.6582" stroke="#1C274C" stroke-linecap="round" stroke-linejoin="round"/>
<path d="M24.2897 15.171V20.0748C24.2897 21.9632 22.7836 23.5014 20.9344 23.5014C19.0853 23.5014 17.5791 21.9632 17.5791 20.0748V13.6328L24.2897 15.171Z" stroke="#1C274C" stroke-linecap="round" stroke-linejoin="round"/>
<path d="M30.9997 20.2765C30.91 22.0648 29.4453 23.5044 27.6519 23.5044C25.7986 23.5044 24.2891 21.9738 24.2891 20.0946V15.2148L27.323 15.8968C29.2959 16.3363 30.91 17.3668 30.9997 20.2765Z" stroke="#1C274C" stroke-linecap="round" stroke-linejoin="round"/>
</svg>
