<svg width="30" height="29" viewBox="0 0 30 29" fill="none" xmlns="http://www.w3.org/2000/svg">
<path d="M15.5084 27.6724C15.1945 27.8801 14.8055 27.8801 14.4916 27.6724C11.9781 26.0089 1 18.2149 1 8.97728C1 7.13313 1.58309 5.34594 2.65007 3.91978C3.71705 2.49362 5.202 1.51659 6.85227 1.15493C8.50255 0.793258 10.2162 1.06929 11.7017 1.93607C12.4561 2.37627 13.128 2.95504 13.6914 3.64107C14.275 4.35164 15.725 4.35164 16.3086 3.64107C16.872 2.95504 17.5439 2.37627 18.2983 1.93607C19.7838 1.06929 21.4974 0.793258 23.1477 1.15493C24.798 1.51659 26.283 2.49362 27.3499 3.91978C28.4169 5.34594 29 7.13313 29 8.97728C29 18.2149 18.0219 26.0089 15.5084 27.6724Z" stroke="#1C274C" stroke-linecap="round" stroke-linejoin="round"/>
</svg>
