<svg width="9" height="11" viewBox="0 0 9 11" fill="none" xmlns="http://www.w3.org/2000/svg">
<circle cx="1.50597" cy="8.87511" r="1.15597" stroke="#831D5C" stroke-width="0.7"/>
<path d="M3.96063 2.69435C4.15304 2.71291 4.32406 2.57198 4.34262 2.37958C4.36118 2.18717 4.22025 2.01615 4.02784 1.99759L3.96063 2.69435ZM4.02784 1.99759C3.53384 1.94994 2.823 1.97574 2.21896 2.23631C1.91257 2.36848 1.62068 2.56682 1.40539 2.85926C1.18752 3.15523 1.06406 3.52618 1.06406 3.97279H1.76406C1.76406 3.6617 1.84761 3.43931 1.96912 3.27425C2.09322 3.10567 2.27309 2.97531 2.49623 2.87905C2.95124 2.68277 3.53049 2.65286 3.96063 2.69435L4.02784 1.99759ZM1.06406 3.97279C1.06406 4.73166 1.06827 5.49213 1.07248 6.13396C1.0767 6.77696 1.08089 7.29852 1.08089 7.58299H1.78089C1.78089 7.29546 1.77666 6.76962 1.77247 6.12937C1.76826 5.48794 1.76406 4.72931 1.76406 3.97279H1.06406Z" fill="#831D5C"/>
<path d="M2.94824 1.00391L4.11243 2.34966L2.94824 3.5993" stroke="#831D5C" stroke-width="0.7" stroke-linecap="round" stroke-linejoin="round"/>
<circle cx="7.49403" cy="2.50575" r="1.15597" transform="rotate(180 7.49403 2.50575)" stroke="#831D5C" stroke-width="0.7"/>
<path d="M5.03937 8.6865C4.84696 8.66795 4.67594 8.80888 4.65738 9.00128C4.63882 9.19369 4.77975 9.36471 4.97216 9.38327L5.03937 8.6865ZM4.97216 9.38327C5.46616 9.43092 6.177 9.40512 6.78104 9.14455C7.08743 9.01238 7.37932 8.81404 7.59461 8.5216C7.81248 8.22563 7.93594 7.85468 7.93594 7.40807H7.23594C7.23594 7.71916 7.15239 7.94155 7.03088 8.10661C6.90678 8.27519 6.72691 8.40555 6.50377 8.50181C6.04876 8.69809 5.46951 8.728 5.03937 8.6865L4.97216 9.38327ZM7.93594 7.40807C7.93594 6.6492 7.93173 5.88873 7.92752 5.2469C7.9233 4.6039 7.91911 4.08234 7.91911 3.79787H7.21911C7.21911 4.08539 7.22334 4.61124 7.22753 5.25149C7.23174 5.89292 7.23594 6.65155 7.23594 7.40807H7.93594Z" fill="#831D5C"/>
<path d="M6.05176 10.377L4.88757 9.0312L6.05176 7.78156" stroke="#831D5C" stroke-width="0.7" stroke-linecap="round" stroke-linejoin="round"/>
</svg>
