<svg width="12" height="12" viewBox="0 0 12 12" fill="none" xmlns="http://www.w3.org/2000/svg">
<path d="M2.36424 8.06845C1.59148 7.2957 1.20509 6.9093 1.06132 6.408C0.917546 5.9067 1.04042 5.37425 1.28616 4.30938L1.42787 3.69529C1.63461 2.79941 1.73799 2.35146 2.04472 2.04472C2.35146 1.73799 2.79941 1.63461 3.69529 1.42787L4.30938 1.28616C5.37425 1.04042 5.9067 0.917546 6.408 1.06132C6.9093 1.20509 7.2957 1.59148 8.06845 2.36424L8.98325 3.27906C10.3277 4.62356 11 5.2958 11 6.13115C11 6.9665 10.3277 7.63875 8.98325 8.98325C7.63875 10.3277 6.9665 11 6.13115 11C5.2958 11 4.62356 10.3277 3.27906 8.98325L2.36424 8.06845Z" stroke="#B4B7BD" stroke-width="0.8"/>
<path d="M5.01097 5.14656C5.40149 4.75604 5.40149 4.12287 5.01097 3.73235C4.62044 3.34182 3.98728 3.34182 3.59676 3.73235C3.20623 4.12287 3.20623 4.75604 3.59676 5.14656C3.98728 5.53708 4.62044 5.53708 5.01097 5.14656Z" stroke="#B4B7BD" stroke-width="0.8"/>
<path d="M5.77148 9.25132L9.26103 5.76172" stroke="#B4B7BD" stroke-width="0.8" stroke-linecap="round"/>
</svg>
