<svg width="11" height="10" viewBox="0 0 11 10" fill="none" xmlns="http://www.w3.org/2000/svg">
<path d="M10 9.54883H1" stroke="#B4B7BD" stroke-width="0.7" stroke-linecap="round"/>
<path d="M1 4.602L2.82833 3.13935M10 4.602L6.34334 1.67668C5.85028 1.28225 5.14972 1.28225 4.65666 1.67668L4.30479 1.95818" stroke="#B4B7BD" stroke-width="0.7" stroke-linecap="round"/>
<path d="M7.07422 2.125V1.225C7.07422 1.10074 7.17497 1 7.29922 1H8.42422C8.54846 1 8.64922 1.10074 8.64922 1.225V3.475" stroke="#B4B7BD" stroke-width="0.7" stroke-linecap="round"/>
<path d="M1.89941 9.54883V3.92383" stroke="#B4B7BD" stroke-width="0.7" stroke-linecap="round"/>
<path d="M9.10059 3.92383V5.72383M9.10059 9.54883V7.52383" stroke="#B4B7BD" stroke-width="0.7" stroke-linecap="round"/>
<path d="M6.84941 9.55117V7.30117C6.84941 6.66478 6.84941 6.34659 6.65173 6.14886C6.454 5.95117 6.1358 5.95117 5.49941 5.95117C4.86302 5.95117 4.54482 5.95117 4.34712 6.14886M4.14941 9.55117V7.30117" stroke="#B4B7BD" stroke-width="0.7" stroke-linecap="round" stroke-linejoin="round"/>
<path d="M6.40059 3.92344C6.40059 4.42051 5.99766 4.82344 5.50059 4.82344C5.00352 4.82344 4.60059 4.42051 4.60059 3.92344C4.60059 3.42638 5.00352 3.02344 5.50059 3.02344C5.99766 3.02344 6.40059 3.42638 6.40059 3.92344Z" stroke="#B4B7BD" stroke-width="0.7"/>
</svg>
