<svg width="12" height="12" viewBox="0 0 12 12" fill="none" xmlns="http://www.w3.org/2000/svg">
<path d="M5.99967 7.66732C6.92017 7.66732 7.66634 6.92115 7.66634 6.00065C7.66634 5.08015 6.92017 4.33398 5.99967 4.33398C5.07917 4.33398 4.33301 5.08015 4.33301 6.00065C4.33301 6.92115 5.07917 7.66732 5.99967 7.66732Z" stroke="#B4B7BD" stroke-width="0.5" stroke-miterlimit="10" stroke-linecap="round" stroke-linejoin="round"/>
<path d="M1 6.46615V5.53383C1 4.98292 1.42479 4.52738 1.94953 4.52738C2.85407 4.52738 3.22389 3.84933 2.76912 3.01767C2.50925 2.54091 2.66417 1.92114 3.11894 1.64568L3.98351 1.12125C4.37831 0.872284 4.88806 1.02061 5.12294 1.43909L5.17791 1.53974C5.62769 2.3714 6.36732 2.3714 6.82209 1.53974L6.87706 1.43909C7.11194 1.02061 7.62169 0.872284 8.01649 1.12125L8.88106 1.64568C9.33583 1.92114 9.49075 2.54091 9.23088 3.01767C8.77611 3.84933 9.14593 4.52738 10.0505 4.52738C10.5702 4.52738 11 4.97762 11 5.53383V6.46615C11 7.01706 10.5752 7.47262 10.0505 7.47262C9.14593 7.47262 8.77611 8.15067 9.23088 8.98233C9.49075 9.46438 9.33583 10.0789 8.88106 10.3543L8.01649 10.8787C7.62169 11.1277 7.11194 10.9794 6.87706 10.5609L6.82209 10.4603C6.37231 9.6286 5.63268 9.6286 5.17791 10.4603L5.12294 10.5609C4.88806 10.9794 4.37831 11.1277 3.98351 10.8787L3.11894 10.3543C2.66417 10.0789 2.50925 9.45909 2.76912 8.98233C3.22389 8.15067 2.85407 7.47262 1.94953 7.47262C1.42479 7.47262 1 7.01706 1 6.46615Z" stroke="#B4B7BD" stroke-width="0.5" stroke-miterlimit="10" stroke-linecap="round" stroke-linejoin="round"/>
</svg>
