<svg width="25" height="25" viewBox="0 0 25 25" fill="none" xmlns="http://www.w3.org/2000/svg">
<path d="M9.34265 4.15385C10.8863 1.38462 11.6581 0 12.8121 0C13.9661 0 14.7379 1.38461 16.2816 4.15384L16.6809 4.87027C17.1197 5.65719 17.3389 6.05067 17.681 6.31028C18.023 6.56989 18.4488 6.66625 19.3007 6.85899L20.0763 7.03447C23.0738 7.71272 24.5727 8.05184 24.9293 9.19854C25.2859 10.3452 24.2641 11.5401 22.2205 13.9298L21.6918 14.5481C21.1111 15.2271 20.8207 15.5667 20.69 15.9868C20.5595 16.4068 20.6034 16.8598 20.6911 17.766L20.7711 18.5908C21.08 21.7792 21.2345 23.3734 20.301 24.0821C19.3673 24.7908 17.964 24.1446 15.1573 22.8524L14.4312 22.518C13.6337 22.1508 13.2349 21.9671 12.8121 21.9671C12.3894 21.9671 11.9906 22.1508 11.1931 22.518L10.467 22.8524C7.66024 24.1446 6.25689 24.7908 5.32332 24.0821C4.38975 23.3734 4.54424 21.7792 4.8532 18.5908L4.93313 17.766C5.02094 16.8598 5.06483 16.4068 4.9342 15.9868C4.80358 15.5667 4.51322 15.2271 3.93249 14.5481L3.40379 13.9298C1.36019 11.5401 0.338386 10.3452 0.694981 9.19854C1.05158 8.05184 2.5504 7.71272 5.54804 7.03447L6.32357 6.85899C7.1754 6.66625 7.60132 6.56989 7.9433 6.31028C8.28528 6.05067 8.50463 5.65721 8.94329 4.87027L9.34265 4.15385Z" fill="#E0E0E0"/>
</svg>
