<svg width="10" height="10" viewBox="0 0 10 10" fill="none" xmlns="http://www.w3.org/2000/svg">
<path d="M3.90263 8.6397C3.90233 8.34527 3.99937 8.05896 4.17872 7.82515C4.35807 7.59134 4.60971 7.42308 4.89465 7.34645C5.17958 7.26982 5.48189 7.2891 5.75472 7.4013C6.02755 7.5135 6.25567 7.71236 6.40373 7.96705C7.42329 7.5183 7.80526 6.81402 7.80526 5.47556V4.01541C7.80526 2.07244 6.70716 0.730074 5.00024 0.730074C3.29333 0.730074 2.19523 2.07292 2.19523 4.01541V5.71891C2.1951 5.81569 2.15651 5.90846 2.08793 5.97689C2.01934 6.04532 1.92635 6.08382 1.82936 6.08395H1.34153C0.985937 6.08356 0.645012 5.94249 0.393525 5.69167C0.142037 5.44084 0.000516451 5.10075 0 4.74597L0 4.25925C0.000387122 3.90434 0.141835 3.56407 0.393323 3.31307C0.64481 3.06206 0.985807 2.92081 1.34153 2.9203H1.57471C1.944 1.18223 3.20796 0 5.00024 0C6.79253 0 8.056 1.18223 8.42529 2.9203H8.65847C9.01411 2.92081 9.35503 3.06199 9.60651 3.31289C9.85798 3.56379 9.99948 3.90394 10 4.25877V4.74548C9.99961 5.10035 9.85815 5.44057 9.60665 5.6915C9.35515 5.94242 9.01415 6.08356 8.65847 6.08395H8.50773C8.48891 6.66042 8.29506 7.21759 7.95183 7.68171C7.60861 8.14583 7.13221 8.49501 6.58569 8.68301C6.57993 9.038 6.43307 9.37616 6.17741 9.62311C5.92176 9.87006 5.57825 10.0056 5.22245 9.99982C4.86665 9.99408 4.52772 9.84756 4.2802 9.59248C4.03269 9.33741 3.89687 8.99468 3.90263 8.6397ZM4.63437 8.6397C4.63437 8.76003 4.67014 8.87765 4.73714 8.9777C4.80414 9.07775 4.89938 9.15573 5.0108 9.20178C5.12223 9.24783 5.24483 9.25988 5.36312 9.2364C5.48141 9.21293 5.59006 9.15498 5.67534 9.0699C5.76062 8.98481 5.8187 8.87641 5.84223 8.75839C5.86576 8.64037 5.85368 8.51804 5.80753 8.40687C5.76137 8.2957 5.68322 8.20069 5.58294 8.13383C5.48266 8.06698 5.36476 8.0313 5.24416 8.0313C5.08247 8.03143 4.92745 8.09557 4.81312 8.20964C4.69879 8.32371 4.6345 8.47838 4.63437 8.6397ZM8.537 5.35436H8.65847C8.82024 5.35436 8.97539 5.29028 9.08983 5.1762C9.20426 5.06212 9.26862 4.90737 9.26874 4.74597V4.25925C9.26874 4.09785 9.20451 3.94305 9.09017 3.82888C8.97583 3.71471 8.82073 3.6505 8.65896 3.65037H8.537V5.35436ZM0.731743 4.25925V4.74597C0.732001 4.9072 0.796345 5.06175 0.91066 5.17571C1.02498 5.28967 1.17993 5.35375 1.34153 5.35388H1.46349V3.65037H1.34153C1.17976 3.6505 1.02466 3.71471 0.910316 3.82888C0.795973 3.94305 0.731743 4.09785 0.731743 4.25925Z" fill="#B4B7BD"/>
</svg>
