<svg width="22" height="23" viewBox="0 0 22 23" fill="none" xmlns="http://www.w3.org/2000/svg">
<path d="M8.44035 9.39197C8.40094 9.88606 8.147 10.3985 7.7785 10.7294C7.6529 10.8421 7.59885 11.0163 7.6401 11.1813L7.8271 11.9302C7.86835 12.0943 7.99575 12.2226 8.16075 12.2638L9.8025 12.6736C10.0289 12.7295 10.2397 12.8386 10.4295 12.9981C10.6238 13.1603 10.9126 13.1356 11.0757 12.9403C11.2371 12.746 11.2114 12.4572 11.018 12.2941C10.721 12.0457 10.3873 11.8742 10.0252 11.7826L8.64935 11.4397L8.5916 11.2087C8.94819 10.8146 9.20209 10.3113 9.30659 9.78883C9.55134 9.66233 9.73009 9.42123 9.76584 9.13248L9.86484 8.33683C9.89509 8.09573 9.82084 7.85098 9.66044 7.66858C9.61094 7.61173 9.55409 7.56223 9.49269 7.52098L9.51654 7.03423L9.59994 6.94988C9.83644 6.69963 10.1563 6.16248 9.65034 5.38973C9.41019 5.02308 8.91609 4.58398 7.92335 4.58398C7.63094 4.58398 6.97185 4.58398 6.332 4.98639C4.4455 5.05239 4.22366 6.06898 4.22366 6.83623C4.22366 6.98748 4.25116 7.27073 4.27681 7.50723C4.20896 7.55033 4.14756 7.60348 4.09256 7.66488C3.92941 7.84913 3.85421 8.09478 3.88541 8.33678L3.98441 9.13428C4.022 9.43313 4.21175 9.68063 4.49131 9.80253C4.59396 10.303 4.83416 10.7861 5.16871 11.1711L5.10181 11.4406L3.72591 11.7835C2.61216 12.0621 1.83301 13.0595 1.83301 14.209C1.83301 14.462 2.03836 14.6673 2.29135 14.6673H8.76025C9.01325 14.6673 9.21859 14.462 9.21859 14.209C9.21859 13.956 9.01329 13.7507 8.76029 13.7507L2.81845 13.7498C2.9752 13.2264 3.3978 12.8102 3.9496 12.6727L5.59225 12.263C5.75635 12.2217 5.88465 12.0943 5.9259 11.9293L6.12115 11.1474C6.1615 10.987 6.11106 10.8165 5.98915 10.7028C5.63256 10.3664 5.397 9.87597 5.35756 9.39016C5.33831 9.15181 5.13481 9.02076 4.89556 9.02076L4.77731 8.29016C4.90931 8.29016 5.03396 8.23332 5.12106 8.13526C5.20816 8.03536 5.24846 7.90516 5.23196 7.77411C5.19711 7.49726 5.14121 6.99771 5.14121 6.83546C5.14121 6.36156 5.14121 5.91331 6.48136 5.89956C6.57486 5.89865 6.66651 5.86931 6.74351 5.8134C7.17995 5.50072 7.68229 5.50072 7.92335 5.50072C8.62735 5.50072 8.81894 5.79407 8.88584 5.89212C9.07194 6.17812 8.99584 6.25877 8.9445 6.31377L8.7456 6.51268C8.66494 6.59333 8.61725 6.70058 8.61175 6.81427L8.56225 7.81252C8.55675 7.93718 8.5714 8.02337 8.6576 8.11502C8.74285 8.20577 8.83175 8.22317 8.95644 8.22502L8.89685 8.96937C8.6576 8.96937 8.4596 9.15272 8.44035 9.39197Z" fill="#841D5D"/>
<path d="M13.2914 7.33271H16.0414C16.2944 7.33271 16.4997 7.12736 16.4997 6.87436C16.4997 6.62136 16.2944 6.41602 16.0414 6.41602H13.2914C13.0384 6.41602 12.833 6.62136 12.833 6.87436C12.833 7.12736 13.0384 7.33271 13.2914 7.33271Z" fill="#841D5D"/>
<path d="M19.7083 0H2.29165C1.0276 0 0 1.0276 0 2.29165V14.2083C0 15.4724 1.0276 16.5 2.29165 16.5H9.07314C9.32704 16.5 9.53149 16.2946 9.53149 16.0416C9.53149 15.7886 9.32614 15.5833 9.07314 15.5833H2.29165C1.53355 15.5833 0.916651 14.9664 0.916651 14.2083V3.66665H21.0833V12.6591C21.0833 12.9121 21.2886 13.1175 21.5416 13.1175C21.7946 13.1175 22 12.9121 22 12.6591V2.29165C22 1.0276 20.9724 0 19.7083 0ZM21.0833 2.75H0.916651V2.29165C0.916651 1.53355 1.53355 0.916651 2.29165 0.916651H19.7083C20.4664 0.916651 21.0833 1.53355 21.0833 2.29165V2.75H21.0833Z" fill="#841D5D"/>
<path d="M19.7082 7.33271C19.9612 7.33271 20.1665 7.12736 20.1665 6.87436C20.1665 6.62136 19.9612 6.41602 19.7082 6.41602H17.8749C17.6219 6.41602 17.4165 6.62136 17.4165 6.87436C17.4165 7.12736 17.6219 7.33271 17.8749 7.33271H19.7082Z" fill="#841D5D"/>
<path d="M21.9166 14.75C21.9166 14.3668 21.6315 14.0991 21.2236 14.0991C20.9935 14.0991 20.5994 14.2174 20.2602 14.4126C19.812 13.4666 19.0786 12.6279 18.5534 12.3667C18.206 12.1934 17.0225 12 15.9583 12C14.894 12 13.7106 12.1934 13.3623 12.3667C12.8389 12.6279 12.1056 13.4666 11.6564 14.4126C11.3163 14.2174 10.9222 14.0991 10.6921 14.0991C10.5179 14.0991 10.3685 14.1441 10.2484 14.2348C10.0889 14.3549 10 14.5382 10 14.75C10 15.465 10.5546 15.9609 10.6187 16.015C10.6682 16.0571 10.7251 16.0837 10.7837 16.102C10.5647 16.7098 10.4583 17.3844 10.4583 17.9583C10.4583 18.643 10.5216 19.8109 10.9167 20.4076V21.1666C10.9167 21.6809 11.3191 22.0833 11.8333 22.0833H12.75C13.2642 22.0833 13.6666 21.6809 13.6666 21.1666V20.8559C14.2203 20.9943 15.0838 21.1666 15.9583 21.1666C16.8328 21.1666 17.6963 20.9943 18.2499 20.8559V21.1666C18.2499 21.6809 18.6523 22.0833 19.1666 22.0833H20.0832C20.5975 22.0833 20.9999 21.6809 20.9999 21.1666V20.4076C21.395 19.8109 21.4582 18.643 21.4582 17.9583C21.4582 17.3844 21.3519 16.7098 21.1328 16.102C21.1915 16.0846 21.2483 16.058 21.2978 16.015C21.362 15.9609 21.9166 15.465 21.9166 14.75ZM13.7702 13.188C13.9416 13.1091 14.9197 12.9166 15.9583 12.9166C16.9969 12.9166 17.975 13.1091 18.1437 13.1861C18.4911 13.3603 19.2978 14.2742 19.6186 15.2706C18.7569 15.3916 16.7201 15.6666 15.9583 15.6666C15.1966 15.6666 13.1588 15.3916 12.2972 15.2706C12.618 14.2742 13.4246 13.3603 13.7702 13.188ZM11.1816 15.2862C11.1522 15.2569 11.1073 15.2092 11.0542 15.1313C11.1147 15.1597 11.1724 15.1918 11.2265 15.2239C11.2118 15.245 11.1962 15.2642 11.1816 15.2862ZM12.75 21.1667H11.8333V20.7083H12.75V21.1667ZM20.0833 21.1667H19.1666V20.7083H20.0833V21.1667ZM20.2941 19.7917H18.7083C18.6597 19.7917 18.6111 19.7999 18.5634 19.8146C18.5506 19.8192 17.2379 20.25 15.9583 20.25C14.6786 20.25 13.366 19.8191 13.3531 19.8155C13.3375 19.8109 13.322 19.8146 13.3064 19.8118C13.2743 19.8045 13.2431 19.7917 13.2083 19.7917H11.6206C11.5006 19.5176 11.3741 18.886 11.3741 17.9593C11.3741 17.8135 11.3851 17.6586 11.4016 17.5019C12.0176 17.5193 12.75 17.7274 12.75 17.9584C12.75 18.2114 12.9553 18.4167 13.2083 18.4167C13.4613 18.4167 13.6666 18.2113 13.6666 17.9583C13.6666 16.8382 12.1541 16.6319 11.5812 16.5934C11.6326 16.4257 11.694 16.268 11.7636 16.1195C11.7646 16.1195 11.7655 16.1204 11.7664 16.1204C11.8947 16.1397 14.9206 16.5833 15.9583 16.5833C16.9959 16.5833 20.0219 16.1397 20.1502 16.1204C20.1511 16.1204 20.1511 16.1195 20.152 16.1195C20.2217 16.268 20.2831 16.4257 20.3344 16.5934C19.7615 16.6319 18.2499 16.8391 18.2499 17.9583C18.2499 18.2113 18.4553 18.4167 18.7083 18.4167C18.9613 18.4167 19.1666 18.2113 19.1666 17.9583C19.1666 17.7227 19.8945 17.5211 20.5141 17.5018C20.5306 17.6586 20.5416 17.8135 20.5416 17.9583C20.5416 18.886 20.4142 19.5176 20.2941 19.7917ZM20.7341 15.2853C20.7195 15.2642 20.7048 15.2441 20.6892 15.2239C20.7433 15.1918 20.802 15.1588 20.8616 15.1304C20.8166 15.1982 20.7708 15.2487 20.7341 15.2853Z" fill="#841D5D"/>
<path d="M13.2914 10.0827H19.708C19.961 10.0827 20.1663 9.87736 20.1663 9.62436C20.1663 9.37136 19.961 9.16602 19.708 9.16602H13.2914C13.0384 9.16602 12.833 9.37136 12.833 9.62436C12.833 9.87736 13.0384 10.0827 13.2914 10.0827Z" fill="#841D5D"/>
<path d="M16.9582 17.416H15.1249C14.8719 17.416 14.6665 17.6214 14.6665 17.8744C14.6665 18.1274 14.8719 18.3327 15.1249 18.3327H16.9582C17.2112 18.3327 17.4165 18.1274 17.4165 17.8744C17.4165 17.6214 17.2112 17.416 16.9582 17.416Z" fill="#841D5D"/>
</svg>
