<svg width="25" height="18" viewBox="0 0 25 18" fill="none" xmlns="http://www.w3.org/2000/svg">
<path d="M22.5244 0H2.31559C1.03739 0.00167442 0.00168407 1.03144 0 2.30233V15.6977C0.00168407 16.9686 1.03739 17.9983 2.31559 18H22.5244C23.8026 17.9983 24.8383 16.9686 24.84 15.6977V2.30233C24.8383 1.03144 23.8026 0.00167442 22.5244 0ZM2.31559 1.25581H22.5244C23.1054 1.25665 23.5761 1.72465 23.5769 2.30233V3.34884H1.26305V2.30233C1.26389 1.72465 1.73459 1.25665 2.31559 1.25581ZM22.5244 16.7442H2.31559C1.73459 16.7433 1.26389 16.2753 1.26305 15.6977V4.60465H23.5769V15.6977C23.5761 16.2753 23.1054 16.7433 22.5244 16.7442ZM7.06887 10.363C8.29403 10.363 9.28763 9.37507 9.28763 8.15693C9.28763 6.93879 8.29403 5.95088 7.06887 5.95088C5.84372 5.95088 4.85012 6.93879 4.85012 8.15693C4.85096 9.37507 5.84372 10.3613 7.06887 10.363ZM7.06887 7.2067C7.59683 7.2067 8.02458 7.632 8.02458 8.15693C8.02458 8.68186 7.59683 9.10716 7.06887 9.10716C6.54092 9.10716 6.11317 8.68186 6.11317 8.15693C6.11401 7.632 6.54092 7.20753 7.06887 7.2067ZM7.06887 11.3534C5.2585 11.3609 3.74537 12.6176 3.3555 14.3004L3.35045 14.3263C3.34119 14.3665 3.33614 14.4126 3.33614 14.4603C3.33614 14.8069 3.61906 15.0882 3.96766 15.0882C4.26827 15.0882 4.52004 14.8789 4.58319 14.5984L4.58403 14.5942C4.84422 13.4506 5.85719 12.6092 7.06887 12.6092C8.28056 12.6092 9.29353 13.4506 9.55035 14.5775L9.55372 14.5942C9.61855 14.8772 9.86948 15.0857 10.1701 15.0857C10.5187 15.0857 10.8016 14.8044 10.8016 14.4578C10.8016 14.4109 10.7966 14.3657 10.7865 14.3213L10.7873 14.3255C10.3924 12.6167 8.88009 11.3609 7.07056 11.3526H7.06972L7.06887 11.3534ZM20.8403 6.69767H14.1041C13.7555 6.69767 13.4725 6.97898 13.4725 7.32558C13.4725 7.67219 13.7555 7.95349 14.1041 7.95349H20.8403C21.1889 7.95349 21.4719 7.67219 21.4719 7.32558C21.4719 6.97898 21.1889 6.69767 20.8403 6.69767ZM20.8403 10.0465H14.1041C13.7555 10.0465 13.4725 10.3278 13.4725 10.6744C13.4725 11.021 13.7555 11.3023 14.1041 11.3023H20.8403C21.1889 11.3023 21.4719 11.021 21.4719 10.6744C21.4719 10.3278 21.1889 10.0465 20.8403 10.0465ZM20.8403 13.3953H14.1041C13.7555 13.3953 13.4725 13.6767 13.4725 14.0233C13.4725 14.3699 13.7555 14.6512 14.1041 14.6512H20.8403C21.1889 14.6512 21.4719 14.3699 21.4719 14.0233C21.4719 13.6767 21.1889 13.3953 20.8403 13.3953Z" fill="#841D5D"/>
</svg>
