<svg width="26" height="35" viewBox="0 0 26 35" fill="none" xmlns="http://www.w3.org/2000/svg">
<path d="M13.113 6.63867C9.52932 6.63867 6.62613 9.54243 6.625 13.1256C6.62613 16.7093 9.52932 19.6125 13.113 19.613C16.6956 19.6125 19.5999 16.7093 19.5999 13.1256C19.5999 9.54243 16.6956 6.63867 13.113 6.63867ZM9.3149 9.32801C9.87445 8.76846 10.5561 8.33278 11.3151 8.06331C10.9522 8.50358 10.6478 9.06891 10.4104 9.72014H8.9594C9.07006 9.58372 9.18991 9.45293 9.3149 9.32801ZM8.54665 10.2964H10.2242C10.0092 11.0617 9.88017 11.9233 9.8561 12.8378H7.74805C7.79795 11.9072 8.08401 11.041 8.54665 10.2964ZM7.74805 13.4133H9.85892C9.88243 14.3283 10.0074 15.1894 10.2241 15.9554H8.54658C8.08401 15.21 7.79795 14.3444 7.74805 13.4133ZM9.3149 16.9236C9.18991 16.7986 9.07006 16.6668 8.95947 16.5309H10.4105C10.5148 16.8141 10.6272 17.0807 10.7551 17.3266C10.9213 17.65 11.1082 17.9379 11.3146 18.1883C10.555 17.9184 9.87389 17.4837 9.3149 16.9236ZM12.8258 18.4894C12.7352 18.4848 12.6464 18.4779 12.5563 18.4699C12.4159 18.4056 12.2754 18.3197 12.1366 18.2062C11.7147 17.8611 11.3232 17.278 11.0245 16.531H12.8258V18.4894ZM12.8258 15.9554H10.8244C10.5968 15.2078 10.4563 14.3409 10.4328 13.4133H12.8258V15.9554ZM12.8258 12.8378H10.434C10.4575 11.9101 10.5992 11.0433 10.8273 10.2963H12.8258V12.8378ZM12.8258 9.72014H11.0279C11.1019 9.53382 11.1804 9.35328 11.2658 9.18812C11.5215 8.69393 11.8214 8.30292 12.1366 8.04496C12.2754 7.93259 12.4159 7.84663 12.5563 7.7824C12.6463 7.77443 12.7352 7.76751 12.8258 7.76236V9.72014ZM18.4769 12.8378H16.3659C16.3436 11.9239 16.2174 11.0616 16.0019 10.2963H17.6782C18.1409 11.041 18.4281 11.9072 18.4769 12.8378ZM16.9117 9.32801C17.0366 9.453 17.1548 9.58372 17.2672 9.72014H15.8144C15.7118 9.43811 15.5977 9.16977 15.4699 8.92437C15.3047 8.60218 15.1173 8.31323 14.9115 8.06331C15.6705 8.3339 16.3516 8.76846 16.9117 9.32801ZM13.4009 7.76229C13.4908 7.76744 13.5797 7.77436 13.6686 7.78233C13.809 7.84656 13.9495 7.93252 14.0882 8.04488C14.5107 8.38945 14.9035 8.9725 15.2004 9.72007H13.4008V7.76229H13.4009ZM13.4009 10.2964H15.4005C15.6292 11.0434 15.7686 11.9102 15.7938 12.8378H13.4008V10.2964H13.4009ZM13.4009 13.4133H15.7909C15.7663 14.3421 15.6259 15.2078 15.3994 15.9554H13.4009V13.4133ZM14.0882 18.2061C13.9495 18.3196 13.809 18.4056 13.6686 18.4698C13.5797 18.4778 13.4908 18.4847 13.4009 18.4893V16.5309H15.1976C15.123 16.7178 15.0451 16.8989 14.9602 17.063C14.7045 17.5578 14.4036 17.9482 14.0882 18.2061ZM16.9117 16.9236C16.351 17.4837 15.67 17.9184 14.9098 18.1883C15.2744 17.7474 15.5771 17.1834 15.8144 16.5309H17.2672C17.1548 16.6668 17.0367 16.7986 16.9117 16.9236ZM17.6782 15.9554H16.0007C16.2157 15.1894 16.3447 14.3283 16.3688 13.4133H18.4768C18.4281 14.3444 18.1409 15.21 17.6782 15.9554Z" fill="#841D5D"/>
<path d="M6.90877 23.2129H5.05015L4.979 23.2834V27.93L5.05015 28.0005H5.94445L6.0144 27.93V26.3316L6.05681 26.2898H6.9087C7.94409 26.2898 8.57704 25.6557 8.57704 24.7545C8.57711 23.8395 7.95108 23.2129 6.90877 23.2129ZM6.84574 25.3955H6.05688L6.01447 25.353V24.149L6.05688 24.1066H6.84574C7.28143 24.1066 7.54285 24.3675 7.54285 24.7545C7.54285 25.142 7.28143 25.3955 6.84574 25.3955Z" fill="#841D5D"/>
<path d="M11.5087 23.2129H10.6213L10.5295 23.2834L8.88184 27.93L8.9311 28.0005H9.85413L9.94475 27.93L10.2131 27.0924H11.8883L12.1635 27.93L12.2552 28.0005H13.1702L13.2195 27.93L11.6005 23.2834L11.5087 23.2129ZM10.502 26.2124L11.0432 24.5367H11.0651L11.6074 26.2124H10.502Z" fill="#841D5D"/>
<path d="M15.7643 25.1162L15.5097 25.0812C14.9617 25.0032 14.7644 24.8272 14.7644 24.5525C14.7644 24.2499 14.9823 24.032 15.4042 24.032C15.7986 24.032 16.1506 24.1587 16.5175 24.3978L16.6161 24.3766L17.0449 23.7362L17.0312 23.6308C16.6299 23.3206 16.0382 23.1309 15.4042 23.1309C14.3699 23.1309 13.7072 23.715 13.7072 24.5951C13.7072 25.4401 14.2495 25.8977 15.2219 26.0318L15.4753 26.0667C16.0451 26.1442 16.2148 26.3202 16.2148 26.6016C16.2148 26.9399 15.9328 27.1721 15.4328 27.1721C14.9259 27.1721 14.496 26.9329 14.1796 26.679L14.0741 26.6865L13.5386 27.2988L13.5455 27.4187C13.9193 27.7776 14.6439 28.0734 15.3904 28.0734C16.6299 28.0734 17.2708 27.433 17.2708 26.5667C17.2709 25.7004 16.7492 25.2497 15.7643 25.1162Z" fill="#841D5D"/>
<path d="M19.9558 25.1162L19.7024 25.0812C19.1532 25.0032 18.956 24.8272 18.956 24.5525C18.956 24.2499 19.1739 24.032 19.5969 24.032C19.9914 24.032 20.3434 24.1587 20.7091 24.3978L20.8077 24.3766L21.2377 23.7362L21.2228 23.6308C20.8215 23.3206 20.231 23.1309 19.5969 23.1309C18.5615 23.1309 17.8999 23.715 17.8999 24.5951C17.8999 25.4401 18.4422 25.8977 19.4134 26.0318L19.6668 26.0667C20.2378 26.1442 20.4064 26.3202 20.4064 26.6016C20.4064 26.9399 20.1243 27.1721 19.6244 27.1721C19.1176 27.1721 18.6888 26.9329 18.3712 26.679L18.2657 26.6864L17.7314 27.2988L17.7384 27.4186C18.111 27.7775 18.8369 28.0733 19.5833 28.0733C20.8216 28.0733 21.4625 27.4329 21.4625 26.5666C21.4625 25.7004 20.9419 25.2497 19.9558 25.1162Z" fill="#841D5D"/>
<rect x="0.5" y="0.5" width="25" height="33.8511" rx="4.5" stroke="#841D5D"/>
</svg>
