<svg width="18" height="22" viewBox="0 0 18 22" fill="none" xmlns="http://www.w3.org/2000/svg">
<path d="M1 4.81453V18.0694C1 19.7588 2.34315 21.1283 4 21.1283H14C15.6569 21.1283 17 19.7588 17 18.0694V12.9714M1 4.81453V3.79492M1 4.81453H14C15.6569 4.81453 17 6.18402 17 7.87335V8.89296" stroke="#841D5D" stroke-linecap="round"/>
<path d="M5.66699 12.127C5.66699 10.4701 7.15933 9.12695 9.00033 9.12695C10.8413 9.12695 12.3337 10.4701 12.3337 12.127C12.3337 13.7839 10.8413 15.127 9.00033 15.127" stroke="#841D5D" stroke-linecap="round"/>
<path d="M11.3333 1.12642L1 3.79308V4.79343H14L12.6667 1.45975C12.3333 0.792969 11.7778 1.01531 11.3333 1.12642Z" stroke="#841D5D"/>
<path d="M7 15H11" stroke="#841D5D" stroke-linecap="round"/>
</svg>
