<svg width="32" height="34" viewBox="0 0 32 34" fill="none" xmlns="http://www.w3.org/2000/svg">
<path d="M15.3926 5.40726C15.1719 4.41416 14.3443 3.64172 13.3512 3.36584C12.5236 3.20032 11.6409 3.36584 10.9788 3.91754C10.7582 4.08306 10.6478 4.24858 10.4823 4.41409C10.3168 4.24858 10.2064 4.08306 9.98574 3.91754C9.32367 3.36584 8.44093 3.1451 7.61334 3.36584C6.62024 3.64172 5.79265 4.41409 5.57198 5.4072C5.35131 6.34515 5.68235 7.33825 6.34442 8.00032L6.84097 8.49688C7.94444 9.54513 9.04785 10.6486 9.9858 11.8072L10.041 11.9176C10.1513 12.0831 10.3168 12.1383 10.4824 12.1383C10.6479 12.1383 10.8134 12.0831 10.9238 11.9176L10.9789 11.8072C11.9169 10.6486 13.0203 9.54513 14.1237 8.49688L14.6203 8.00032C15.3374 7.33825 15.6133 6.34515 15.3926 5.40726ZM13.8478 7.22795L13.3512 7.7245C12.3581 8.66246 11.365 9.65556 10.4823 10.7038C9.59955 9.65556 8.60645 8.66246 7.61334 7.7245L7.11679 7.22795C6.7306 6.84177 6.56509 6.29 6.67539 5.68315C6.78576 5.07623 7.28231 4.57967 7.88916 4.46937C7.99953 4.41422 8.16505 4.41422 8.27535 4.41422C8.66153 4.41422 8.99257 4.52459 9.3236 4.80041C9.70979 5.07629 9.93052 5.57284 9.93052 6.0694C9.93052 6.40043 10.1512 6.6211 10.4822 6.6211C10.8133 6.6211 11.0339 6.40043 11.0339 6.0694C11.0339 5.57284 11.2546 5.07629 11.6408 4.80041C12.027 4.46937 12.5788 4.35901 13.0754 4.46937C13.6823 4.57974 14.1788 5.07629 14.2891 5.68315C14.4547 6.23485 14.2892 6.8417 13.8478 7.22795Z" fill="#434343"/>
<path d="M32 18.6483V18.2621C32 16.6621 30.6759 15.3932 29.1311 15.3932H28.7608L29.9586 4.24837C30.069 3.20011 29.6828 2.09664 28.9655 1.26905C28.2483 0.441401 27.2 0 26.0965 0H16.9379C16.5762 0 16.2629 0.0484268 15.9526 0.0998923C15.6636 0.0344612 15.3651 0 15.062 0H5.90341C4.79994 0 3.75168 0.441401 3.03446 1.26899C2.26203 2.09658 1.93099 3.14483 2.04136 4.2483L3.23916 15.3931H2.86895C1.26892 15.3931 0 16.7173 0 18.2621V18.6482C0 20.2483 1.26899 21.5172 2.86895 21.5172H3.64345L0.827522 29.4621C0.33097 30.8966 0.993039 32.4414 2.37233 32.938C2.70336 33.0483 2.97925 33.1035 3.31028 33.1035C4.57927 33.1035 5.68268 32.2207 6.01371 31.0069L9.19462 21.5173H11.7222C12.1769 22.8102 12.69 24.2908 13.1714 25.691L11.862 29.4621C11.3655 30.8966 12.0276 32.4414 13.4068 32.938C13.7379 33.0483 14.0138 33.1035 14.3448 33.1035C14.9321 33.1035 15.5189 32.9116 15.985 32.5289C16.4551 32.8924 17.0352 33.1035 17.6551 33.1035C17.9862 33.1035 18.2621 33.0483 18.5931 32.9931C19.9172 32.4966 20.6345 30.9517 20.1379 29.5172L18.811 25.7736L20.2298 21.5173H22.7567C24.0731 25.2603 25.8795 30.5786 25.9862 30.9517C26.3172 32.2207 27.4207 33.1035 28.6896 33.1035C29.0206 33.1035 29.2965 33.0483 29.6275 32.9931C30.9517 32.4966 31.6689 30.9517 31.1723 29.5172L28.337 21.5173H29.131C30.731 21.5173 32 20.2483 32 18.6483ZM29.131 16.4966C30.1241 16.4966 30.8965 17.3242 30.8965 18.2621V18.6483C30.8965 19.6414 30.0689 20.4139 29.131 20.4139H27.5862H23.1724H20.3778C20.7613 19.9289 20.9975 19.3179 21.0206 18.6483V18.2621C21.0206 17.6178 20.8057 17.0275 20.4483 16.5518H28.1379C28.2204 16.5518 28.2978 16.5317 28.3675 16.4967L29.131 16.4966ZM18.7341 6.01617L18.9241 4.46897C19.4207 4.3586 19.9724 4.46897 20.3586 4.8C20.7448 5.07589 20.9656 5.57244 20.9656 6.06899C20.9656 6.40003 21.1862 6.62069 21.5173 6.62069C21.8483 6.62069 22.069 6.40003 22.069 6.06899C22.069 5.57244 22.2896 5.07589 22.6759 4.8C23.0621 4.46897 23.6138 4.3586 24.1104 4.46897C24.7173 4.57934 25.2139 5.07589 25.3242 5.68274C25.4897 6.23444 25.3242 6.84136 24.8828 7.22755L24.3862 7.7241C23.3931 8.66205 22.4 9.65516 21.5173 10.7034C20.6345 9.65516 19.6414 8.66205 18.6483 7.7241L18.5601 7.63585L18.7341 6.01617ZM26.0965 1.10347C26.869 1.10347 27.5862 1.48966 28.1379 2.04142C28.6896 2.59313 28.9103 3.36556 28.8551 4.138L27.6472 15.3932H18.1517H18.0965H17.7263L18.4122 9.01139C19.3329 9.9046 20.2349 10.8363 21.0206 11.8069L21.0758 11.9173C21.1862 12.0828 21.3517 12.138 21.5172 12.138C21.6827 12.138 21.8482 12.0828 21.9586 11.9173L22.0137 11.8069C22.9517 10.6483 24.0551 9.54486 25.1586 8.4966L25.6551 8.00005C26.3723 7.33798 26.6482 6.34488 26.4276 5.40692C26.2069 4.41382 25.3793 3.64138 24.3862 3.36556C23.5586 3.20005 22.6759 3.36556 22.0138 3.91727C21.7931 4.08278 21.6828 4.2483 21.5173 4.41382C21.3517 4.2483 21.2414 4.08278 21.0207 3.97242C20.4268 3.47748 19.6554 3.29425 18.9054 3.38108C18.9046 3.375 18.9033 3.36893 18.9024 3.36285C18.895 3.31242 18.887 3.26205 18.8774 3.21175C18.8707 3.17502 18.8631 3.13849 18.8553 3.10196C18.8507 3.08089 18.8462 3.05981 18.8412 3.0388C18.7376 2.58989 18.5555 2.15961 18.3034 1.76981C18.192 1.5944 18.0676 1.42662 17.9309 1.26899C17.8814 1.21183 17.8299 1.15694 17.7773 1.10347H26.0965ZM3.14476 4.13793C3.08961 3.3655 3.31028 2.59313 3.86199 2.04136C4.35854 1.43444 5.13097 1.10341 5.90334 1.10341H15.0619C15.8344 1.10341 16.6068 1.43444 17.1033 2.04136C17.6072 2.54528 17.8342 3.23334 17.8278 3.93724C17.8234 3.96621 17.8205 3.99615 17.8205 4.02757L17.542 6.73352L16.6128 15.3931H4.35265L3.14476 4.13793ZM1.10341 18.7035V18.3173C1.10341 17.3242 1.87584 16.5517 2.86895 16.5517V16.4966H3.63239C3.70209 16.5317 3.77955 16.5517 3.86205 16.5517H17.1034H18.5324C19.3067 16.7511 19.862 17.4668 19.862 18.2621V18.6482C19.862 19.6413 19.0345 20.4137 18.0967 20.4138H16.5517H12.1379H8.82757H4.41375H2.86895C1.87584 20.4138 1.10341 19.6414 1.10341 18.7035ZM4.91031 30.6759V30.731C4.74479 31.4482 4.08272 32 3.31028 32C3.14477 32 2.9241 31.9449 2.75858 31.8896C1.98614 31.6138 1.59996 30.6759 1.87584 29.8483L4.79994 21.5173H8.05513L4.91031 30.6759ZM13.7379 31.8345C12.9654 31.5586 12.5793 30.6207 12.8551 29.7931L13.7379 27.3655C13.8319 27.6328 13.9186 27.8798 13.999 28.1094C14.5232 29.6495 14.9044 30.7864 14.9516 30.9517C14.9609 30.9887 14.9722 31.0277 14.9843 31.0674C14.9849 31.0694 14.9856 31.0714 14.9862 31.0734C14.9959 31.105 15.0064 31.1371 15.0176 31.1697C15.0205 31.1782 15.0234 31.1868 15.0264 31.1952C15.0832 31.3562 15.1551 31.5243 15.2275 31.6688C14.7862 31.9449 14.2344 32 13.7379 31.8345ZM18.2068 31.8897C18.0413 31.9449 17.8207 32.0001 17.6551 32.0001C17.1502 32.0001 16.6935 31.7634 16.3907 31.3997C16.3891 31.3975 16.3878 31.3953 16.3862 31.3931C16.3835 31.3905 16.3813 31.3878 16.3787 31.3851C16.2244 31.1956 16.111 30.9731 16.0551 30.7311C15.9448 30.3449 13.793 24 12.9103 21.5173H16.1655L19.0896 29.8483C19.3655 30.6759 18.9793 31.6138 18.2068 31.8897ZM18.2068 24.0552L17.3241 21.5173H18.0965H19.0896L18.2068 24.0552ZM30.1241 29.8483C30.4 30.6759 30.0137 31.6138 29.2414 31.8896C29.0758 31.9448 28.8552 32 28.6897 32C27.9172 32 27.2551 31.4483 27.0896 30.731C26.9793 30.3448 24.8275 24 23.9448 21.5172H27.2L30.1241 29.8483Z" fill="#434343"/>
</svg>
