<svg width="32" height="29" viewBox="0 0 32 29" fill="none" xmlns="http://www.w3.org/2000/svg">
<path d="M6.34129 18.7579C8.16797 18.7579 9.69422 17.4518 9.96392 15.6834C9.98044 15.575 10.0211 15.4717 10.0829 15.3812C10.1447 15.2907 10.226 15.2153 10.3209 15.1605L10.3709 15.1316C10.4715 15.0735 10.5844 15.0403 10.7004 15.0347C15.301 14.813 18.8567 11.8097 18.8567 8.25498C18.8567 4.54448 14.9941 1.46219 10.1581 1.46219C5.32246 1.46219 1.45993 4.54452 1.45993 8.25498C1.45993 10.8359 3.34078 13.1897 6.29339 14.3393L6.47911 14.4234C6.60596 14.4818 6.71341 14.5754 6.78873 14.6932C6.86406 14.8109 6.9041 14.9478 6.9041 15.0876C6.9041 16.4465 6.37208 17.7139 5.46641 18.6529C5.7528 18.7229 6.04651 18.7582 6.34129 18.7579ZM6.34129 20.2201C5.42179 20.2201 4.53582 19.9765 3.75813 19.5215C3.61518 19.4487 3.50932 19.3552 3.43426 19.2315C3.22494 18.8865 3.33454 18.4368 3.67905 18.2271C4.63341 17.6463 5.27192 16.6669 5.41412 15.559C5.43401 15.4041 5.44421 15.2467 5.44421 15.0876H6.17413L5.86919 15.7518L5.72392 15.6849L6.02886 15.0207L5.7644 15.7021C5.64687 15.6563 5.5301 15.6086 5.41412 15.559C2.13333 14.153 0 11.3772 0 8.25494C0 3.65463 4.5797 0 10.1581 0C15.7367 0 20.3165 3.65459 20.3165 8.25494C20.3165 12.5232 16.3619 16.0036 11.2905 16.4593C11.1184 16.4748 10.945 16.4868 10.7705 16.4951L10.7354 15.7649L11.1 16.3983L10.6854 15.7938L11.407 15.9042C11.3785 16.0912 11.3396 16.2766 11.2905 16.4593C10.7001 18.6563 8.69378 20.2201 6.34126 20.2201H6.34129ZM11.5385 19.0179C11.4267 18.6299 11.65 18.2247 12.0373 18.1126C12.4245 18.0006 12.8292 18.2243 12.9411 18.6122C13.7701 21.4879 16.9613 23.6626 20.8081 23.8482C20.9243 23.8538 21.0375 23.8872 21.1382 23.9454L21.1874 23.974C21.2821 24.0288 21.3633 24.1042 21.425 24.1946C21.4867 24.2851 21.5273 24.3883 21.5438 24.4966C21.8106 26.2456 23.3204 27.5378 25.1274 27.5378C25.779 27.5378 26.4041 27.3659 26.954 27.0441C27.302 26.8404 27.7491 26.9578 27.9525 27.3064C28.1559 27.655 28.0386 28.1028 27.6905 28.3065C26.9188 28.7582 26.0397 29 25.1274 29C22.7947 29 20.8049 27.4502 20.2175 25.2726C16.0133 24.8919 12.5136 22.3999 11.5385 19.0178L11.5385 19.0179Z" fill="#434343"/>
<path d="M27.8336 27.0782C28.1763 27.2877 28.2853 27.737 28.077 28.0817C27.8687 28.4265 27.4221 28.5361 27.0794 28.3266C25.5801 27.41 24.6446 25.7735 24.6446 23.9753C24.6446 23.8356 24.6845 23.6988 24.7595 23.5811C24.8344 23.4635 24.9414 23.3699 25.0676 23.3116L25.2107 23.2455L25.2507 23.2285C28.1588 22.0911 30.0113 19.7627 30.0113 17.2104C30.0113 13.8843 26.8676 11.0196 22.634 10.5563C22.2353 10.5126 21.9473 10.1522 21.9906 9.75111C22.034 9.35005 22.3923 9.06034 22.791 9.10395C27.706 9.64179 31.4635 13.0659 31.4635 17.2104C31.4635 20.3029 29.3607 23.0525 26.1271 24.4462C26.2683 25.5391 26.896 26.505 27.8336 27.0782Z" fill="#434343"/>
</svg>
