<svg width="28" height="28" viewBox="0 0 28 28" fill="none" xmlns="http://www.w3.org/2000/svg">
<path d="M25.7867 4.9C26.5562 6.14547 27 7.61186 27 9.18148C27 13.7 23.322 17.363 18.7849 17.363C17.9571 17.363 16.0721 17.1727 15.155 16.4116L14.0087 17.5533C13.0536 18.5045 13.8177 18.5045 14.1998 19.2657C14.1998 19.2657 15.155 20.5975 14.1998 21.9294C13.6266 22.6904 12.0218 23.7559 10.1878 21.9294L9.80571 22.3099C9.80571 22.3099 10.952 23.6417 9.99675 24.9736C9.42361 25.7347 7.89524 26.4958 6.5579 25.1639C6.49423 25.2273 6.1376 25.5825 5.22058 26.4958C4.30355 27.409 3.18277 26.8763 2.73701 26.4958L1.59073 25.3541C0.520859 24.2886 1.14495 23.1343 1.59073 22.6904L11.5252 12.7966C11.5252 12.7966 10.5699 11.2744 10.5699 9.18148C10.5699 4.66297 14.2479 1 18.7849 1C19.8493 1 20.8666 1.20162 21.8 1.56859" stroke="#434343" stroke-width="2" stroke-linecap="round" stroke-linejoin="round"/>
<path d="M21.6307 9.19524C21.6307 10.7561 20.3655 12.0213 18.8046 12.0213C17.2439 12.0213 15.9785 10.7561 15.9785 9.19524C15.9785 7.63443 17.2439 6.36914 18.8046 6.36914C20.3655 6.36914 21.6307 7.63443 21.6307 9.19524Z" stroke="#434343" stroke-width="2"/>
</svg>
