<svg width="5" height="5" viewBox="0 0 5 5" fill="none" xmlns="http://www.w3.org/2000/svg">
<path d="M4.30206 3.55973C4.17154 3.56041 4.04955 3.59855 3.94595 3.66415L3.94891 3.66245L3.5066 3.24734C3.62547 3.06004 3.69607 2.83053 3.69607 2.58407C3.69607 2.31761 3.61348 2.07099 3.47311 1.87013L3.47557 1.87369L3.9783 1.35467C4.07188 1.40823 4.18336 1.43993 4.3019 1.44078H4.30223C4.68756 1.44078 5 1.11821 5 0.720388C5 0.322564 4.68756 0 4.30223 0C3.91689 0 3.60445 0.322564 3.60445 0.720388C3.60527 0.843108 3.63614 0.958201 3.68966 1.05855L3.68786 1.05482L3.18513 1.57384C2.99681 1.43145 2.76039 1.34602 2.50476 1.34602C2.36225 1.34602 2.22582 1.37264 2.09972 1.42111L2.10777 1.4184L2.00204 1.22008C2.12123 1.09177 2.19462 0.917181 2.19462 0.724964C2.19462 0.329683 1.88415 0.00915316 1.50128 0.00915316C1.11841 0.00915316 0.80794 0.329683 0.80794 0.724964C0.80794 1.12025 1.11841 1.44078 1.50128 1.44078C1.55152 1.44078 1.60061 1.43518 1.6479 1.42467L1.6433 1.42552L1.7487 1.62316C1.47206 1.84606 1.29589 2.19015 1.29589 2.57695C1.29589 2.6795 1.30837 2.77917 1.33168 2.87426L1.32987 2.86596L1.22037 2.91393C1.0923 2.7607 0.903986 2.66408 0.693833 2.66408C0.310632 2.66408 0 2.98478 0 3.3804C0 3.77602 0.310632 4.09672 0.693833 4.09672C1.07703 4.09672 1.38767 3.77602 1.38767 3.3804C1.38767 3.37904 1.38767 3.37752 1.38767 3.37616C1.38635 3.34921 1.38389 3.32429 1.38011 3.29988L1.38061 3.30395L1.49012 3.25598C1.70405 3.5994 2.07247 3.82365 2.49163 3.82365C2.77123 3.82365 3.02817 3.72381 3.23094 3.55685L3.22848 3.55872L3.6721 3.97485C3.62974 4.064 3.60478 4.16876 3.60412 4.27944C3.60412 4.67727 3.91656 5 4.3019 5C4.68723 5 4.99967 4.67744 4.99967 4.27961C4.99967 3.88179 4.68723 3.55922 4.3019 3.55922L4.30206 3.55973ZM1.2138 0.720557C1.2138 0.556817 1.34252 0.423927 1.50112 0.423927C1.65972 0.423927 1.78843 0.556817 1.78843 0.720557C1.78843 0.884297 1.65972 1.01719 1.50112 1.01719C1.34252 1.01702 1.21396 0.884297 1.2138 0.720557ZM0.690057 3.6733C0.531457 3.67313 0.403067 3.54058 0.403067 3.37684C0.403067 3.2131 0.531621 3.08038 0.690221 3.08038C0.848821 3.08038 0.977212 3.21293 0.977376 3.37667C0.977212 3.54041 0.848657 3.67313 0.690057 3.6733ZM4.30206 0.423927C4.46066 0.423927 4.58938 0.556817 4.58938 0.720557C4.58938 0.884297 4.46066 1.01719 4.30206 1.01719C4.14346 1.01719 4.01474 0.884297 4.01474 0.720557C4.01491 0.556817 4.14346 0.424097 4.30206 0.423927ZM1.70634 2.58509C1.70634 2.58492 1.70634 2.58475 1.70634 2.58458C1.70634 2.13455 2.05966 1.76978 2.49557 1.76978C2.7136 1.76978 2.91095 1.86114 3.05379 2.00861L3.05395 2.00878L3.05411 2.00895C3.19695 2.15642 3.28512 2.36016 3.28512 2.58509C3.28512 3.03529 2.93163 3.40006 2.49573 3.40006C2.05983 3.40006 1.70634 3.03512 1.70634 2.58509ZM4.30206 4.57675C4.14346 4.57675 4.01474 4.44386 4.01474 4.28012C4.01474 4.11638 4.14346 3.98349 4.30206 3.98349C4.46066 3.98349 4.58938 4.11638 4.58938 4.28012C4.58922 4.44386 4.46066 4.57658 4.30206 4.57675Z" fill="#B4B7BD"/>
</svg>
