<svg width="5" height="5" viewBox="0 0 5 5" fill="none" xmlns="http://www.w3.org/2000/svg">
<path fill-rule="evenodd" clip-rule="evenodd" d="M4.11765 0C4.60496 0 5 0.373097 5 0.833333V4.16667C5 4.62692 4.60496 5 4.11765 5H0.882347C0.719905 5 0.588229 4.87564 0.588229 4.72222C0.588229 4.56881 0.719905 4.44444 0.882347 4.44444H4.11765C4.28008 4.44444 4.41176 4.32008 4.41176 4.16667V0.833333C4.41176 0.679922 4.28008 0.555556 4.11765 0.555556H0.882347C0.719905 0.555556 0.588229 0.431189 0.588229 0.277778C0.588229 0.124367 0.719905 0 0.882347 0H4.11765ZM1.26261 1.19247C1.37747 1.08399 1.5637 1.08399 1.67855 1.19247C1.79341 1.30095 1.79341 1.47683 1.67855 1.58531L1.00417 2.22222H3.52941C3.69185 2.22222 3.82353 2.34658 3.82353 2.5C3.82353 2.65342 3.69185 2.77778 3.52941 2.77778H1.00417L1.67855 3.41469C1.79341 3.52317 1.79341 3.69906 1.67855 3.80753C1.5637 3.916 1.37747 3.916 1.26261 3.80753L0.0861397 2.69642C-0.0287132 2.58794 -0.0287132 2.41206 0.0861397 2.30358L1.26261 1.19247Z" fill="#B4B7BD"/>
</svg>
