<svg width="5" height="5" viewBox="0 0 5 5" fill="none" xmlns="http://www.w3.org/2000/svg">
<path fill-rule="evenodd" clip-rule="evenodd" d="M1.11111 0C0.9577 0 0.833333 0.124367 0.833333 0.277778C0.833333 0.431189 0.9577 0.555556 1.11111 0.555556H4.16667C4.32008 0.555556 4.44444 0.679922 4.44444 0.833333V4.16667C4.44444 4.32008 4.32008 4.44444 4.16667 4.44444H1.11111C0.9577 4.44444 0.833333 4.56881 0.833333 4.72222C0.833333 4.87564 0.9577 5 1.11111 5H4.16667C4.62692 5 5 4.62692 5 4.16667V0.833333C5 0.373097 4.62692 0 4.16667 0H1.11111ZM2.69642 1.19247C2.58794 1.08399 2.41206 1.08399 2.30358 1.19247C2.19511 1.30095 2.19511 1.47683 2.30358 1.58531L2.9405 2.22222H0.277778C0.124367 2.22222 0 2.34658 0 2.5C0 2.65342 0.124367 2.77778 0.277778 2.77778H2.9405L2.30358 3.41469C2.19511 3.52317 2.19511 3.69906 2.30358 3.80753C2.41206 3.916 2.58794 3.916 2.69642 3.80753L3.80753 2.69642C3.916 2.58794 3.916 2.41206 3.80753 2.30358L2.69642 1.19247Z" fill="#B4B7BD"/>
</svg>
