<svg width="5" height="5" viewBox="0 0 5 5" fill="none" xmlns="http://www.w3.org/2000/svg">
<mask id="path-1-inside-1_4163_4264" fill="white">
<path d="M2.07895 4.8417H0.394736C0.264141 4.8417 0.157891 4.73545 0.157891 4.60485C0.157891 4.47426 0.264131 4.36801 0.394736 4.36801H0.924727C0.972803 4.36801 1.01796 4.34925 1.05188 4.31521C1.08648 4.28048 1.10545 4.23411 1.10527 4.1849V4.1838C1.10527 4.05321 1.21151 3.94695 1.34212 3.94695H1.65791C1.70151 3.94695 1.73686 3.91162 1.73686 3.86801C1.73686 3.82439 1.7015 3.78906 1.65791 3.78906H1.34212C1.12445 3.78906 0.947383 3.96613 0.947383 4.1838V4.18518C0.947412 4.1949 0.942803 4.20099 0.940049 4.20376C0.93584 4.20798 0.930693 4.21012 0.924736 4.21012H0.394736C0.17707 4.21012 0 4.38719 0 4.60485C0 4.82252 0.17707 4.99959 0.394736 4.99959H2.07895C2.12255 4.99959 2.15789 4.96426 2.15789 4.92064C2.15789 4.87703 2.12255 4.8417 2.07895 4.8417Z"/>
</mask>
<path d="M2.07895 4.8417H0.394736C0.264141 4.8417 0.157891 4.73545 0.157891 4.60485C0.157891 4.47426 0.264131 4.36801 0.394736 4.36801H0.924727C0.972803 4.36801 1.01796 4.34925 1.05188 4.31521C1.08648 4.28048 1.10545 4.23411 1.10527 4.1849V4.1838C1.10527 4.05321 1.21151 3.94695 1.34212 3.94695H1.65791C1.70151 3.94695 1.73686 3.91162 1.73686 3.86801C1.73686 3.82439 1.7015 3.78906 1.65791 3.78906H1.34212C1.12445 3.78906 0.947383 3.96613 0.947383 4.1838V4.18518C0.947412 4.1949 0.942803 4.20099 0.940049 4.20376C0.93584 4.20798 0.930693 4.21012 0.924736 4.21012H0.394736C0.17707 4.21012 0 4.38719 0 4.60485C0 4.82252 0.17707 4.99959 0.394736 4.99959H2.07895C2.12255 4.99959 2.15789 4.96426 2.15789 4.92064C2.15789 4.87703 2.12255 4.8417 2.07895 4.8417Z" fill="#B4B7BD"/>
<path d="M1.05188 4.31521L2.46853 5.72698L2.46869 5.72683L1.05188 4.31521ZM1.10527 4.1849H-0.894739L-0.894714 4.19205L1.10527 4.1849ZM0.947383 4.18518H-1.05263L-1.05261 4.1912L0.947383 4.18518ZM0.940049 4.20376L2.3559 5.61634L2.35925 5.61297L0.940049 4.20376ZM0.394736 4.21012V6.21012V4.21012ZM2.07895 2.8417H0.394736V6.8417H2.07895V2.8417ZM0.394736 2.8417C1.36871 2.8417 2.15789 3.63088 2.15789 4.60485H-1.84211C-1.84211 5.84002 -0.840427 6.8417 0.394736 6.8417V2.8417ZM2.15789 4.60485C2.15789 5.57877 1.36876 6.36801 0.394736 6.36801V2.36801C-0.840494 2.36801 -1.84211 3.36974 -1.84211 4.60485H2.15789ZM0.394736 6.36801H0.924727V2.36801H0.394736V6.36801ZM0.924727 6.36801C1.50462 6.36801 2.05947 6.13745 2.46853 5.72698L-0.364765 2.90343C-0.0235538 2.56104 0.440988 2.36801 0.924727 2.36801V6.36801ZM2.46869 5.72683C2.88116 5.31284 3.10732 4.75486 3.10526 4.17776L-0.894714 4.19205C-0.896424 3.71336 -0.708186 3.24811 -0.364916 2.90358L2.46869 5.72683ZM3.10527 4.1849V4.1838H-0.894726V4.1849H3.10527ZM3.10527 4.1838C3.10527 5.15767 2.31619 5.94695 1.34212 5.94695V1.94695C0.106835 1.94695 -0.894726 2.94875 -0.894726 4.1838H3.10527ZM1.34212 5.94695H1.65791V1.94695H1.34212V5.94695ZM1.65791 5.94695C2.80592 5.94695 3.73686 5.01636 3.73686 3.86801H-0.263144C-0.263144 2.80689 0.597111 1.94695 1.65791 1.94695V5.94695ZM3.73686 3.86801C3.73686 2.71951 2.80576 1.78906 1.65791 1.78906V5.78906C0.597252 5.78906 -0.263144 4.92928 -0.263144 3.86801H3.73686ZM1.65791 1.78906H1.34212V5.78906H1.65791V1.78906ZM1.34212 1.78906C0.0198824 1.78906 -1.05262 2.86156 -1.05262 4.1838H2.94738C2.94738 5.0707 2.22902 5.78906 1.34212 5.78906V1.78906ZM-1.05262 4.1838V4.18518H2.94738V4.1838H-1.05262ZM-1.05261 4.1912C-1.05467 3.50671 -0.71567 3.03275 -0.479153 2.79455L2.35925 5.61297C2.60128 5.36923 2.94949 4.88309 2.94737 4.17915L-1.05261 4.1912ZM-0.475802 2.79119C-0.105472 2.42 0.398516 2.21012 0.924736 2.21012V6.21012C1.46287 6.21012 1.97715 5.99596 2.3559 5.61633L-0.475802 2.79119ZM0.924736 2.21012H0.394736V6.21012H0.924736V2.21012ZM0.394736 2.21012C-0.9275 2.21012 -2 3.28262 -2 4.60485H2C2 5.49176 1.28164 6.21012 0.394736 6.21012V2.21012ZM-2 4.60485C-2 5.92709 -0.927498 6.99959 0.394736 6.99959V2.99959C1.28164 2.99959 2 3.71795 2 4.60485H-2ZM0.394736 6.99959H2.07895V2.99959H0.394736V6.99959ZM2.07895 6.99959C3.22696 6.99959 4.15789 6.06898 4.15789 4.92064H0.157891C0.157891 3.85953 1.01814 2.99959 2.07895 2.99959V6.99959ZM4.15789 4.92064C4.15789 3.7723 3.22695 2.8417 2.07895 2.8417V6.8417C1.01815 6.8417 0.157891 5.98177 0.157891 4.92064H4.15789Z" fill="#B4B7BD" mask="url(#path-1-inside-1_4163_4264)"/>
<mask id="path-3-inside-2_4163_4264" fill="white">
<path d="M4.71063 1.158H4.35074C4.32113 1.09582 4.25766 1.05273 4.18432 1.05273H3.658C3.58466 1.05273 3.52119 1.09582 3.49157 1.158H3.13168C3.08808 1.158 3.05273 1.19334 3.05273 1.23694C3.05273 1.28055 3.08809 1.31589 3.13168 1.31589H3.47379V1.33741C3.47379 1.48988 3.58602 1.6158 3.73487 1.63029C3.75322 1.63208 3.77151 1.63214 3.78958 1.63048V1.96873C3.78958 2.1282 3.91213 2.25749 4.06858 2.26306C4.14778 2.26571 4.22303 2.23712 4.28007 2.18208C4.33711 2.12703 4.36854 2.05305 4.36854 1.97378V1.94746H4.62452L4.48554 3.5459C4.48176 3.58933 4.51392 3.62762 4.55734 3.63139C4.55967 3.63159 4.56198 3.63168 4.56428 3.63168C4.60479 3.63168 4.63927 3.60067 4.64283 3.55956L4.78383 1.93808C4.90812 1.9056 5.00011 1.79234 5.00011 1.658V1.44747C5.00011 1.28786 4.87025 1.158 4.71063 1.158ZM4.21063 1.23695V1.97381C4.21063 2.00984 4.19634 2.04347 4.1704 2.06851C4.14448 2.09352 4.11036 2.10634 4.07417 2.1053C4.00431 2.10281 3.94746 2.04155 3.94746 1.96876V1.52436C3.94746 1.49612 3.9324 1.47006 3.90795 1.45596C3.89574 1.44893 3.88213 1.44541 3.86852 1.44541C3.85485 1.44541 3.84119 1.44895 3.82896 1.45604C3.80498 1.46993 3.77772 1.47587 3.75016 1.47317C3.68372 1.4667 3.63168 1.40708 3.63168 1.33744V1.23696C3.63168 1.22245 3.64349 1.21064 3.658 1.21064H4.18432C4.19882 1.21064 4.21063 1.22244 4.21063 1.23696L4.21063 1.23695ZM4.84222 1.658C4.84222 1.73035 4.78353 1.78925 4.71124 1.78958C4.71073 1.78958 4.71024 1.78958 4.70973 1.78958H4.36854V1.3159H4.71064C4.7832 1.3159 4.84223 1.37492 4.84223 1.44748V1.658H4.84222Z"/>
</mask>
<path d="M4.71063 1.158H4.35074C4.32113 1.09582 4.25766 1.05273 4.18432 1.05273H3.658C3.58466 1.05273 3.52119 1.09582 3.49157 1.158H3.13168C3.08808 1.158 3.05273 1.19334 3.05273 1.23694C3.05273 1.28055 3.08809 1.31589 3.13168 1.31589H3.47379V1.33741C3.47379 1.48988 3.58602 1.6158 3.73487 1.63029C3.75322 1.63208 3.77151 1.63214 3.78958 1.63048V1.96873C3.78958 2.1282 3.91213 2.25749 4.06858 2.26306C4.14778 2.26571 4.22303 2.23712 4.28007 2.18208C4.33711 2.12703 4.36854 2.05305 4.36854 1.97378V1.94746H4.62452L4.48554 3.5459C4.48176 3.58933 4.51392 3.62762 4.55734 3.63139C4.55967 3.63159 4.56198 3.63168 4.56428 3.63168C4.60479 3.63168 4.63927 3.60067 4.64283 3.55956L4.78383 1.93808C4.90812 1.9056 5.00011 1.79234 5.00011 1.658V1.44747C5.00011 1.28786 4.87025 1.158 4.71063 1.158ZM4.21063 1.23695V1.97381C4.21063 2.00984 4.19634 2.04347 4.1704 2.06851C4.14448 2.09352 4.11036 2.10634 4.07417 2.1053C4.00431 2.10281 3.94746 2.04155 3.94746 1.96876V1.52436C3.94746 1.49612 3.9324 1.47006 3.90795 1.45596C3.89574 1.44893 3.88213 1.44541 3.86852 1.44541C3.85485 1.44541 3.84119 1.44895 3.82896 1.45604C3.80498 1.46993 3.77772 1.47587 3.75016 1.47317C3.68372 1.4667 3.63168 1.40708 3.63168 1.33744V1.23696C3.63168 1.22245 3.64349 1.21064 3.658 1.21064H4.18432C4.19882 1.21064 4.21063 1.22244 4.21063 1.23696L4.21063 1.23695ZM4.84222 1.658C4.84222 1.73035 4.78353 1.78925 4.71124 1.78958C4.71073 1.78958 4.71024 1.78958 4.70973 1.78958H4.36854V1.3159H4.71064C4.7832 1.3159 4.84223 1.37492 4.84223 1.44748V1.658H4.84222Z" fill="#B4B7BD"/>
<path d="M4.35074 1.158L2.54503 2.01789L3.08796 3.158H4.35074V1.158ZM3.49157 1.158V3.158H4.75418L5.29717 2.01812L3.49157 1.158ZM3.47379 1.31589H5.47379V-0.684111H3.47379V1.31589ZM3.73487 1.63029L3.92874 -0.360289L3.92867 -0.360296L3.73487 1.63029ZM3.78958 1.63048H5.78958V-0.561732L3.60657 -0.361131L3.78958 1.63048ZM4.06858 2.26306L3.99747 4.2618L4.00154 4.26193L4.06858 2.26306ZM4.28007 2.18208L5.6688 3.62132L5.66893 3.6212L4.28007 2.18208ZM4.36854 1.94746V-0.0525392H2.36854V1.94746H4.36854ZM4.62452 1.94746L6.617 2.12071L6.80597 -0.0525392H4.62452V1.94746ZM4.48554 3.5459L6.47801 3.71929L6.47802 3.71914L4.48554 3.5459ZM4.55734 3.63139L4.73313 1.63912L4.73029 1.63888L4.55734 3.63139ZM4.64283 3.55956L2.65035 3.3863L2.65031 3.38681L4.64283 3.55956ZM4.78383 1.93808L4.27814 0.00306129L2.91353 0.359681L2.79135 1.76482L4.78383 1.93808ZM4.21063 1.23695L5.64112 -0.160786L2.21063 -3.67169V1.23695H4.21063ZM4.1704 2.06851L5.55917 3.50771L5.55947 3.50742L4.1704 2.06851ZM4.07417 2.1053L4.00292 4.10408L4.01699 4.10449L4.07417 2.1053ZM3.90795 1.45596L4.90707 -0.276599L4.90619 -0.277106L3.90795 1.45596ZM3.82896 1.45604L4.83139 3.18669L4.83163 3.18655L3.82896 1.45604ZM3.75016 1.47317L3.94477 -0.517336L3.94415 -0.517395L3.75016 1.47317ZM4.21063 1.23696L2.78014 2.6347L6.21063 6.1456V1.23696H4.21063ZM4.84222 1.658V-0.342002H2.84222V1.658H4.84222ZM4.71124 1.78958V3.7896L4.72043 3.78956L4.71124 1.78958ZM4.36854 1.78958H2.36854V3.78958H4.36854V1.78958ZM4.36854 1.3159V-0.684102H2.36854V1.3159H4.36854ZM4.84223 1.658V3.658H6.84223V1.658H4.84223ZM4.71063 -0.842002H4.35074V3.158H4.71063V-0.842002ZM6.15645 0.298109C5.80866 -0.432238 5.05992 -0.947266 4.18432 -0.947266V3.05273C3.45539 3.05273 2.83361 2.62388 2.54503 2.01789L6.15645 0.298109ZM4.18432 -0.947266H3.658V3.05273H4.18432V-0.947266ZM3.658 -0.947266C2.78223 -0.947266 2.03371 -0.432105 1.68597 0.297878L5.29717 2.01812C5.00867 2.62375 4.38709 3.05273 3.658 3.05273V-0.947266ZM3.49157 -0.842002H3.13168V3.158H3.49157V-0.842002ZM3.13168 -0.842002C1.98351 -0.842002 1.05273 0.0887654 1.05273 1.23694H5.05273C5.05273 2.29791 4.19264 3.158 3.13168 3.158V-0.842002ZM1.05273 1.23694C1.05273 2.38528 1.98369 3.31589 3.13168 3.31589V-0.684111C4.19249 -0.684111 5.05273 0.175809 5.05273 1.23694H1.05273ZM3.13168 3.31589H3.47379V-0.684111H3.13168V3.31589ZM1.47379 1.31589V1.33741H5.47379V1.31589H1.47379ZM1.47379 1.33741C1.47379 2.48741 2.33604 3.50356 3.54108 3.62088L3.92867 -0.360296C4.836 -0.271962 5.47379 0.492354 5.47379 1.33741H1.47379ZM3.54101 3.62087C3.68302 3.63471 3.8275 3.63542 3.97259 3.62209L3.60657 -0.361131C3.71552 -0.371143 3.82343 -0.370545 3.92874 -0.360289L3.54101 3.62087ZM1.78958 1.63048V1.96873H5.78958V1.63048H1.78958ZM1.78958 1.96873C1.78958 3.17179 2.73182 4.21676 3.99747 4.26179L4.1397 0.264321C5.09243 0.298218 5.78958 1.08462 5.78958 1.96873H1.78958ZM4.00154 4.26193C4.61596 4.28254 5.21809 4.05622 5.6688 3.62132L2.89134 0.742836C3.22797 0.41802 3.67961 0.248886 4.13562 0.26418L4.00154 4.26193ZM5.66893 3.6212C6.11641 3.18934 6.36854 2.59595 6.36854 1.97378H2.36854C2.36854 1.51014 2.5578 1.06472 2.89121 0.742959L5.66893 3.6212ZM6.36854 1.97378V1.94746H2.36854V1.97378H6.36854ZM4.36854 3.94746H4.62452V-0.0525392H4.36854V3.94746ZM2.63204 1.77421L2.49305 3.37265L6.47802 3.71914L6.617 2.12071L2.63204 1.77421ZM2.49307 3.3725C2.39354 4.51618 3.24002 5.52456 4.38439 5.62389L4.73029 1.63888C5.78781 1.73067 6.56998 2.66247 6.47801 3.71929L2.49307 3.3725ZM4.38156 5.62365C4.44966 5.62965 4.51114 5.63168 4.56428 5.63168V1.63168C4.61282 1.63168 4.66968 1.63353 4.73313 1.63913L4.38156 5.62365ZM4.56428 5.63168C5.63303 5.63168 6.54136 4.81646 6.63536 3.73231L2.65031 3.38681C2.73717 2.38489 3.57654 1.63168 4.56428 1.63168V5.63168ZM6.63531 3.73282L6.77631 2.11133L2.79135 1.76482L2.65035 3.3863L6.63531 3.73282ZM5.28951 3.87309C6.27059 3.6167 7.00011 2.72618 7.00011 1.658H3.00011C3.00011 0.858512 3.54564 0.194489 4.27814 0.00306129L5.28951 3.87309ZM7.00011 1.658V1.44747H3.00011V1.658H7.00011ZM7.00011 1.44747C7.00011 0.183336 5.97487 -0.842002 4.71063 -0.842002V3.158C3.76564 3.158 3.00011 2.39239 3.00011 1.44747H7.00011ZM2.21063 1.23695V1.97381H6.21063V1.23695H2.21063ZM2.21063 1.97381C2.21063 1.4666 2.41727 0.981042 2.78133 0.629591L5.55947 3.50742C5.97541 3.10589 6.21063 2.55308 6.21063 1.97381H2.21063ZM2.78163 0.629301C3.1547 0.269301 3.64665 0.0922568 4.13135 0.10612L4.01699 4.10449C4.57407 4.12042 5.13426 3.91773 5.55917 3.50771L2.78163 0.629301ZM4.14541 0.106572C5.22331 0.144993 5.94746 1.03782 5.94746 1.96876H1.94746C1.94746 3.04529 2.78531 4.06063 4.00293 4.10403L4.14541 0.106572ZM5.94746 1.96876V1.52436H1.94746V1.96876H5.94746ZM5.94746 1.52436C5.94746 0.781212 5.55081 0.0946271 4.90707 -0.276598L2.90882 3.18851C2.314 2.84549 1.94746 2.21103 1.94746 1.52436H5.94746ZM4.90619 -0.277106C4.58523 -0.461982 4.22654 -0.55459 3.86852 -0.55459V3.44541C3.53772 3.44541 3.20626 3.35983 2.9097 3.18902L4.90619 -0.277106ZM3.86852 -0.55459C3.50882 -0.55459 3.14842 -0.461107 2.82628 -0.274461L4.83163 3.18655C4.53397 3.35902 4.20089 3.44541 3.86852 3.44541V-0.55459ZM2.82652 -0.274598C3.16362 -0.469857 3.55488 -0.555454 3.94477 -0.517336L3.55555 3.46368C4.00057 3.50719 4.44634 3.40972 4.83139 3.18669L2.82652 -0.274598ZM3.94415 -0.517395C4.97036 -0.417385 5.63168 0.447496 5.63168 1.33744H1.63168C1.63168 2.36666 2.39709 3.35078 3.55616 3.46374L3.94415 -0.517395ZM5.63168 1.33744V1.23696H1.63168V1.33744H5.63168ZM5.63168 1.23696C5.63168 2.32703 4.74805 3.21064 3.658 3.21064V-0.789356C2.53892 -0.789356 1.63168 0.117874 1.63168 1.23696H5.63168ZM3.658 3.21064H4.18432V-0.789356H3.658V3.21064ZM4.18432 3.21064C3.09519 3.21064 2.21063 2.32795 2.21063 1.23696H6.21063C6.21063 0.116928 5.30244 -0.789356 4.18432 -0.789356V3.21064ZM5.64113 -0.160776L5.64112 -0.160786L2.78013 2.63469L2.78014 2.6347L5.64113 -0.160776ZM2.84222 1.658C2.84222 0.628751 3.67398 -0.205677 4.70205 -0.210399L4.72043 3.78956C5.89307 3.78417 6.84222 2.83195 6.84222 1.658H2.84222ZM4.71124 -0.21042C4.71124 -0.21042 4.71124 -0.21042 4.71124 -0.21042C4.71124 -0.21042 4.71124 -0.21042 4.71123 -0.21042C4.71123 -0.21042 4.71123 -0.21042 4.71123 -0.21042C4.71123 -0.21042 4.71123 -0.21042 4.71123 -0.21042C4.71123 -0.21042 4.71123 -0.21042 4.71123 -0.21042C4.71122 -0.21042 4.71122 -0.21042 4.71122 -0.21042C4.71122 -0.21042 4.71122 -0.21042 4.71122 -0.21042C4.71122 -0.21042 4.71122 -0.21042 4.71122 -0.21042C4.71122 -0.21042 4.71121 -0.21042 4.71121 -0.21042C4.71121 -0.21042 4.71121 -0.21042 4.71121 -0.21042C4.71121 -0.21042 4.71121 -0.21042 4.71121 -0.21042C4.71121 -0.21042 4.71121 -0.21042 4.7112 -0.21042C4.7112 -0.21042 4.7112 -0.21042 4.7112 -0.21042C4.7112 -0.21042 4.7112 -0.21042 4.7112 -0.21042C4.7112 -0.21042 4.7112 -0.21042 4.7112 -0.21042C4.71119 -0.21042 4.71119 -0.21042 4.71119 -0.21042C4.71119 -0.21042 4.71119 -0.21042 4.71119 -0.21042C4.71119 -0.21042 4.71119 -0.21042 4.71119 -0.21042C4.71119 -0.21042 4.71118 -0.21042 4.71118 -0.21042C4.71118 -0.21042 4.71118 -0.21042 4.71118 -0.21042C4.71118 -0.21042 4.71118 -0.21042 4.71118 -0.21042C4.71118 -0.21042 4.71118 -0.21042 4.71117 -0.21042C4.71117 -0.21042 4.71117 -0.21042 4.71117 -0.21042C4.71117 -0.21042 4.71117 -0.21042 4.71117 -0.21042C4.71117 -0.21042 4.71117 -0.21042 4.71117 -0.21042C4.71117 -0.21042 4.71116 -0.21042 4.71116 -0.21042C4.71116 -0.21042 4.71116 -0.21042 4.71116 -0.21042C4.71116 -0.21042 4.71116 -0.21042 4.71116 -0.21042C4.71116 -0.21042 4.71116 -0.21042 4.71115 -0.21042C4.71115 -0.21042 4.71115 -0.21042 4.71115 -0.21042C4.71115 -0.21042 4.71115 -0.21042 4.71115 -0.21042C4.71115 -0.21042 4.71115 -0.21042 4.71115 -0.21042C4.71114 -0.21042 4.71114 -0.21042 4.71114 -0.21042C4.71114 -0.21042 4.71114 -0.21042 4.71114 -0.21042C4.71114 -0.21042 4.71114 -0.21042 4.71114 -0.21042C4.71114 -0.21042 4.71113 -0.21042 4.71113 -0.21042C4.71113 -0.21042 4.71113 -0.21042 4.71113 -0.21042C4.71113 -0.21042 4.71113 -0.21042 4.71113 -0.21042C4.71113 -0.21042 4.71113 -0.21042 4.71112 -0.21042C4.71112 -0.21042 4.71112 -0.21042 4.71112 -0.21042C4.71112 -0.21042 4.71112 -0.21042 4.71112 -0.21042C4.71112 -0.21042 4.71112 -0.21042 4.71112 -0.21042C4.71111 -0.21042 4.71111 -0.21042 4.71111 -0.21042C4.71111 -0.21042 4.71111 -0.21042 4.71111 -0.21042C4.71111 -0.21042 4.71111 -0.21042 4.71111 -0.21042C4.71111 -0.21042 4.7111 -0.21042 4.7111 -0.21042C4.7111 -0.21042 4.7111 -0.21042 4.7111 -0.21042C4.7111 -0.21042 4.7111 -0.21042 4.7111 -0.21042C4.7111 -0.21042 4.7111 -0.21042 4.71109 -0.21042C4.71109 -0.21042 4.71109 -0.21042 4.71109 -0.21042C4.71109 -0.21042 4.71109 -0.21042 4.71109 -0.21042C4.71109 -0.21042 4.71109 -0.21042 4.71109 -0.21042C4.71109 -0.21042 4.71108 -0.21042 4.71108 -0.21042C4.71108 -0.21042 4.71108 -0.21042 4.71108 -0.21042C4.71108 -0.21042 4.71108 -0.21042 4.71108 -0.21042C4.71108 -0.21042 4.71108 -0.21042 4.71107 -0.21042C4.71107 -0.21042 4.71107 -0.21042 4.71107 -0.21042C4.71107 -0.21042 4.71107 -0.21042 4.71107 -0.21042C4.71107 -0.21042 4.71107 -0.21042 4.71107 -0.21042C4.71106 -0.21042 4.71106 -0.21042 4.71106 -0.21042C4.71106 -0.21042 4.71106 -0.21042 4.71106 -0.21042C4.71106 -0.21042 4.71106 -0.21042 4.71106 -0.21042C4.71106 -0.21042 4.71105 -0.21042 4.71105 -0.21042C4.71105 -0.21042 4.71105 -0.21042 4.71105 -0.21042C4.71105 -0.21042 4.71105 -0.21042 4.71105 -0.21042C4.71105 -0.21042 4.71105 -0.21042 4.71104 -0.21042C4.71104 -0.21042 4.71104 -0.21042 4.71104 -0.21042C4.71104 -0.21042 4.71104 -0.21042 4.71104 -0.21042C4.71104 -0.21042 4.71104 -0.21042 4.71104 -0.21042C4.71104 -0.21042 4.71103 -0.21042 4.71103 -0.21042C4.71103 -0.21042 4.71103 -0.21042 4.71103 -0.21042C4.71103 -0.21042 4.71103 -0.21042 4.71103 -0.21042C4.71103 -0.21042 4.71103 -0.21042 4.71102 -0.21042C4.71102 -0.21042 4.71102 -0.21042 4.71102 -0.21042C4.71102 -0.21042 4.71102 -0.21042 4.71102 -0.21042C4.71102 -0.21042 4.71102 -0.21042 4.71102 -0.21042C4.71101 -0.21042 4.71101 -0.21042 4.71101 -0.21042C4.71101 -0.21042 4.71101 -0.21042 4.71101 -0.21042C4.71101 -0.21042 4.71101 -0.21042 4.71101 -0.21042C4.71101 -0.21042 4.711 -0.21042 4.711 -0.21042C4.711 -0.21042 4.711 -0.21042 4.711 -0.21042C4.711 -0.21042 4.711 -0.21042 4.711 -0.21042C4.711 -0.21042 4.711 -0.21042 4.71099 -0.21042C4.71099 -0.21042 4.71099 -0.21042 4.71099 -0.21042C4.71099 -0.21042 4.71099 -0.21042 4.71099 -0.21042C4.71099 -0.21042 4.71099 -0.21042 4.71099 -0.21042C4.71098 -0.21042 4.71098 -0.21042 4.71098 -0.21042C4.71098 -0.21042 4.71098 -0.21042 4.71098 -0.21042C4.71098 -0.21042 4.71098 -0.21042 4.71098 -0.21042C4.71098 -0.21042 4.71098 -0.21042 4.71097 -0.21042C4.71097 -0.21042 4.71097 -0.21042 4.71097 -0.21042C4.71097 -0.21042 4.71097 -0.21042 4.71097 -0.21042C4.71097 -0.21042 4.71097 -0.21042 4.71097 -0.21042C4.71096 -0.21042 4.71096 -0.21042 4.71096 -0.21042C4.71096 -0.21042 4.71096 -0.21042 4.71096 -0.21042C4.71096 -0.21042 4.71096 -0.21042 4.71096 -0.21042C4.71096 -0.21042 4.71095 -0.21042 4.71095 -0.21042C4.71095 -0.21042 4.71095 -0.21042 4.71095 -0.21042C4.71095 -0.21042 4.71095 -0.21042 4.71095 -0.21042C4.71095 -0.21042 4.71095 -0.21042 4.71094 -0.21042C4.71094 -0.21042 4.71094 -0.21042 4.71094 -0.21042C4.71094 -0.21042 4.71094 -0.21042 4.71094 -0.21042C4.71094 -0.21042 4.71094 -0.21042 4.71094 -0.21042C4.71093 -0.21042 4.71093 -0.21042 4.71093 -0.21042C4.71093 -0.21042 4.71093 -0.21042 4.71093 -0.21042C4.71093 -0.21042 4.71093 -0.21042 4.71093 -0.21042C4.71093 -0.21042 4.71092 -0.21042 4.71092 -0.21042C4.71092 -0.21042 4.71092 -0.21042 4.71092 -0.21042C4.71092 -0.21042 4.71092 -0.21042 4.71092 -0.21042C4.71092 -0.21042 4.71092 -0.21042 4.71092 -0.21042C4.71091 -0.21042 4.71091 -0.21042 4.71091 -0.21042C4.71091 -0.21042 4.71091 -0.21042 4.71091 -0.21042C4.71091 -0.21042 4.71091 -0.21042 4.71091 -0.21042C4.71091 -0.21042 4.7109 -0.21042 4.7109 -0.21042C4.7109 -0.21042 4.7109 -0.21042 4.7109 -0.21042C4.7109 -0.21042 4.7109 -0.21042 4.7109 -0.21042C4.7109 -0.21042 4.7109 -0.21042 4.71089 -0.21042C4.71089 -0.21042 4.71089 -0.21042 4.71089 -0.21042C4.71089 -0.21042 4.71089 -0.21042 4.71089 -0.21042C4.71089 -0.21042 4.71089 -0.21042 4.71089 -0.21042C4.71088 -0.21042 4.71088 -0.21042 4.71088 -0.21042C4.71088 -0.21042 4.71088 -0.21042 4.71088 -0.21042C4.71088 -0.21042 4.71088 -0.21042 4.71088 -0.21042C4.71088 -0.21042 4.71088 -0.21042 4.71087 -0.21042C4.71087 -0.21042 4.71087 -0.21042 4.71087 -0.21042C4.71087 -0.21042 4.71087 -0.21042 4.71087 -0.21042C4.71087 -0.21042 4.71087 -0.21042 4.71087 -0.21042C4.71086 -0.21042 4.71086 -0.21042 4.71086 -0.21042C4.71086 -0.21042 4.71086 -0.21042 4.71086 -0.21042C4.71086 -0.21042 4.71086 -0.21042 4.71086 -0.21042C4.71086 -0.21042 4.71085 -0.21042 4.71085 -0.21042C4.71085 -0.21042 4.71085 -0.21042 4.71085 -0.21042C4.71085 -0.21042 4.71085 -0.21042 4.71085 -0.21042C4.71085 -0.21042 4.71085 -0.21042 4.71084 -0.21042C4.71084 -0.21042 4.71084 -0.21042 4.71084 -0.21042C4.71084 -0.21042 4.71084 -0.21042 4.71084 -0.21042C4.71084 -0.21042 4.71084 -0.21042 4.71084 -0.21042C4.71083 -0.21042 4.71083 -0.21042 4.71083 -0.21042C4.71083 -0.21042 4.71083 -0.21042 4.71083 -0.21042C4.71083 -0.21042 4.71083 -0.21042 4.71083 -0.21042C4.71083 -0.21042 4.71083 -0.21042 4.71082 -0.21042C4.71082 -0.21042 4.71082 -0.21042 4.71082 -0.21042C4.71082 -0.21042 4.71082 -0.21042 4.71082 -0.21042C4.71082 -0.21042 4.71082 -0.21042 4.71082 -0.21042C4.71081 -0.21042 4.71081 -0.21042 4.71081 -0.21042C4.71081 -0.21042 4.71081 -0.21042 4.71081 -0.21042C4.71081 -0.21042 4.71081 -0.21042 4.71081 -0.21042C4.71081 -0.21042 4.7108 -0.21042 4.7108 -0.21042C4.7108 -0.21042 4.7108 -0.21042 4.7108 -0.21042C4.7108 -0.21042 4.7108 -0.21042 4.7108 -0.21042C4.7108 -0.21042 4.7108 -0.21042 4.71079 -0.21042C4.71079 -0.21042 4.71079 -0.21042 4.71079 -0.21042C4.71079 -0.21042 4.71079 -0.21042 4.71079 -0.21042C4.71079 -0.21042 4.71079 -0.21042 4.71079 -0.21042C4.71079 -0.21042 4.71078 -0.21042 4.71078 -0.21042C4.71078 -0.21042 4.71078 -0.21042 4.71078 -0.21042C4.71078 -0.21042 4.71078 -0.21042 4.71078 -0.21042C4.71078 -0.21042 4.71078 -0.21042 4.71077 -0.21042C4.71077 -0.21042 4.71077 -0.21042 4.71077 -0.21042C4.71077 -0.21042 4.71077 -0.21042 4.71077 -0.21042C4.71077 -0.21042 4.71077 -0.21042 4.71077 -0.21042C4.71076 -0.21042 4.71076 -0.21042 4.71076 -0.21042C4.71076 -0.21042 4.71076 -0.21042 4.71076 -0.21042C4.71076 -0.21042 4.71076 -0.21042 4.71076 -0.21042C4.71076 -0.21042 4.71075 -0.21042 4.71075 -0.21042C4.71075 -0.21042 4.71075 -0.21042 4.71075 -0.21042C4.71075 -0.21042 4.71075 -0.21042 4.71075 -0.21042C4.71075 -0.21042 4.71075 -0.21042 4.71074 -0.21042C4.71074 -0.21042 4.71074 -0.21042 4.71074 -0.21042C4.71074 -0.21042 4.71074 -0.21042 4.71074 -0.21042C4.71074 -0.21042 4.71074 -0.21042 4.71074 -0.21042C4.71074 -0.21042 4.71073 -0.21042 4.71073 -0.21042C4.71073 -0.21042 4.71073 -0.21042 4.71073 -0.21042C4.71073 -0.21042 4.71073 -0.21042 4.71073 -0.21042C4.71073 -0.21042 4.71073 -0.21042 4.71072 -0.21042C4.71072 -0.21042 4.71072 -0.21042 4.71072 -0.21042C4.71072 -0.21042 4.71072 -0.21042 4.71072 -0.21042C4.71072 -0.21042 4.71072 -0.21042 4.71072 -0.21042C4.71071 -0.21042 4.71071 -0.21042 4.71071 -0.21042C4.71071 -0.21042 4.71071 -0.21042 4.71071 -0.21042C4.71071 -0.21042 4.71071 -0.21042 4.71071 -0.21042C4.71071 -0.21042 4.7107 -0.21042 4.7107 -0.21042C4.7107 -0.21042 4.7107 -0.21042 4.7107 -0.21042C4.7107 -0.21042 4.7107 -0.21042 4.7107 -0.21042C4.7107 -0.21042 4.7107 -0.21042 4.7107 -0.21042C4.71069 -0.21042 4.71069 -0.21042 4.71069 -0.21042C4.71069 -0.21042 4.71069 -0.21042 4.71069 -0.21042C4.71069 -0.21042 4.71069 -0.21042 4.71069 -0.21042C4.71069 -0.21042 4.71068 -0.21042 4.71068 -0.21042C4.71068 -0.21042 4.71068 -0.21042 4.71068 -0.21042C4.71068 -0.21042 4.71068 -0.21042 4.71068 -0.21042C4.71068 -0.21042 4.71068 -0.21042 4.71067 -0.21042C4.71067 -0.21042 4.71067 -0.21042 4.71067 -0.21042C4.71067 -0.21042 4.71067 -0.21042 4.71067 -0.21042C4.71067 -0.21042 4.71067 -0.21042 4.71067 -0.21042C4.71066 -0.21042 4.71066 -0.21042 4.71066 -0.21042C4.71066 -0.21042 4.71066 -0.21042 4.71066 -0.21042C4.71066 -0.21042 4.71066 -0.21042 4.71066 -0.21042C4.71066 -0.21042 4.71066 -0.21042 4.71065 -0.21042C4.71065 -0.21042 4.71065 -0.21042 4.71065 -0.21042C4.71065 -0.21042 4.71065 -0.21042 4.71065 -0.21042C4.71065 -0.21042 4.71065 -0.21042 4.71065 -0.21042C4.71064 -0.21042 4.71064 -0.21042 4.71064 -0.21042C4.71064 -0.21042 4.71064 -0.21042 4.71064 -0.21042C4.71064 -0.21042 4.71064 -0.21042 4.71064 -0.21042C4.71064 -0.21042 4.71063 -0.21042 4.71063 -0.21042C4.71063 -0.21042 4.71063 -0.21042 4.71063 -0.21042C4.71063 -0.21042 4.71063 -0.21042 4.71063 -0.21042C4.71063 -0.21042 4.71063 -0.21042 4.71062 -0.21042C4.71062 -0.21042 4.71062 -0.21042 4.71062 -0.21042C4.71062 -0.21042 4.71062 -0.21042 4.71062 -0.21042C4.71062 -0.21042 4.71062 -0.21042 4.71062 -0.21042C4.71062 -0.21042 4.71061 -0.21042 4.71061 -0.21042C4.71061 -0.21042 4.71061 -0.21042 4.71061 -0.21042C4.71061 -0.21042 4.71061 -0.21042 4.71061 -0.21042C4.71061 -0.21042 4.71061 -0.21042 4.7106 -0.21042C4.7106 -0.21042 4.7106 -0.21042 4.7106 -0.21042C4.7106 -0.21042 4.7106 -0.21042 4.7106 -0.21042C4.7106 -0.21042 4.7106 -0.21042 4.7106 -0.21042C4.71059 -0.21042 4.71059 -0.21042 4.71059 -0.21042C4.71059 -0.21042 4.71059 -0.21042 4.71059 -0.21042C4.71059 -0.21042 4.71059 -0.21042 4.71059 -0.21042C4.71059 -0.21042 4.71058 -0.21042 4.71058 -0.21042C4.71058 -0.21042 4.71058 -0.21042 4.71058 -0.21042C4.71058 -0.21042 4.71058 -0.21042 4.71058 -0.21042C4.71058 -0.21042 4.71058 -0.21042 4.71058 -0.21042C4.71057 -0.21042 4.71057 -0.21042 4.71057 -0.21042C4.71057 -0.21042 4.71057 -0.21042 4.71057 -0.21042C4.71057 -0.21042 4.71057 -0.21042 4.71057 -0.21042C4.71057 -0.21042 4.71056 -0.21042 4.71056 -0.21042C4.71056 -0.21042 4.71056 -0.21042 4.71056 -0.21042C4.71056 -0.21042 4.71056 -0.21042 4.71056 -0.21042C4.71056 -0.21042 4.71056 -0.21042 4.71055 -0.21042C4.71055 -0.21042 4.71055 -0.21042 4.71055 -0.21042C4.71055 -0.21042 4.71055 -0.21042 4.71055 -0.21042C4.71055 -0.21042 4.71055 -0.21042 4.71055 -0.21042C4.71054 -0.21042 4.71054 -0.21042 4.71054 -0.21042C4.71054 -0.21042 4.71054 -0.21042 4.71054 -0.21042C4.71054 -0.21042 4.71054 -0.21042 4.71054 -0.21042C4.71054 -0.21042 4.71054 -0.21042 4.71053 -0.21042C4.71053 -0.21042 4.71053 -0.21042 4.71053 -0.21042C4.71053 -0.21042 4.71053 -0.21042 4.71053 -0.21042C4.71053 -0.21042 4.71053 -0.21042 4.71053 -0.21042C4.71052 -0.21042 4.71052 -0.21042 4.71052 -0.21042C4.71052 -0.21042 4.71052 -0.21042 4.71052 -0.21042C4.71052 -0.21042 4.71052 -0.21042 4.71052 -0.21042C4.71052 -0.21042 4.71051 -0.21042 4.71051 -0.21042C4.71051 -0.21042 4.71051 -0.21042 4.71051 -0.21042C4.71051 -0.21042 4.71051 -0.21042 4.71051 -0.21042C4.71051 -0.21042 4.71051 -0.21042 4.7105 -0.21042C4.7105 -0.21042 4.7105 -0.21042 4.7105 -0.21042C4.7105 -0.21042 4.7105 -0.21042 4.7105 -0.21042C4.7105 -0.21042 4.7105 -0.21042 4.7105 -0.21042C4.71049 -0.21042 4.71049 -0.21042 4.71049 -0.21042C4.71049 -0.21042 4.71049 -0.21042 4.71049 -0.21042C4.71049 -0.21042 4.71049 -0.21042 4.71049 -0.21042C4.71049 -0.21042 4.71049 -0.21042 4.71048 -0.21042C4.71048 -0.21042 4.71048 -0.21042 4.71048 -0.21042C4.71048 -0.21042 4.71048 -0.21042 4.71048 -0.21042C4.71048 -0.21042 4.71048 -0.21042 4.71048 -0.21042C4.71047 -0.21042 4.71047 -0.21042 4.71047 -0.21042C4.71047 -0.21042 4.71047 -0.21042 4.71047 -0.21042C4.71047 -0.21042 4.71047 -0.21042 4.71047 -0.21042C4.71047 -0.21042 4.71046 -0.21042 4.71046 -0.21042C4.71046 -0.21042 4.71046 -0.21042 4.71046 -0.21042C4.71046 -0.21042 4.71046 -0.21042 4.71046 -0.21042C4.71046 -0.21042 4.71046 -0.21042 4.71045 -0.21042C4.71045 -0.21042 4.71045 -0.21042 4.71045 -0.21042C4.71045 -0.21042 4.71045 -0.21042 4.71045 -0.21042C4.71045 -0.21042 4.71045 -0.21042 4.71045 -0.21042C4.71045 -0.21042 4.71044 -0.21042 4.71044 -0.21042C4.71044 -0.21042 4.71044 -0.21042 4.71044 -0.21042C4.71044 -0.21042 4.71044 -0.21042 4.71044 -0.21042C4.71044 -0.21042 4.71044 -0.21042 4.71043 -0.21042C4.71043 -0.21042 4.71043 -0.21042 4.71043 -0.21042C4.71043 -0.21042 4.71043 -0.21042 4.71043 -0.21042C4.71043 -0.21042 4.71043 -0.21042 4.71043 -0.21042C4.71042 -0.21042 4.71042 -0.21042 4.71042 -0.21042C4.71042 -0.21042 4.71042 -0.21042 4.71042 -0.21042C4.71042 -0.21042 4.71042 -0.21042 4.71042 -0.21042C4.71042 -0.21042 4.71041 -0.21042 4.71041 -0.21042C4.71041 -0.21042 4.71041 -0.21042 4.71041 -0.21042C4.71041 -0.21042 4.71041 -0.21042 4.71041 -0.21042C4.71041 -0.21042 4.71041 -0.21042 4.7104 -0.21042C4.7104 -0.21042 4.7104 -0.21042 4.7104 -0.21042C4.7104 -0.21042 4.7104 -0.21042 4.7104 -0.21042C4.7104 -0.21042 4.7104 -0.21042 4.7104 -0.21042C4.7104 -0.21042 4.71039 -0.21042 4.71039 -0.21042C4.71039 -0.21042 4.71039 -0.21042 4.71039 -0.21042C4.71039 -0.21042 4.71039 -0.21042 4.71039 -0.21042C4.71039 -0.21042 4.71039 -0.21042 4.71038 -0.21042C4.71038 -0.21042 4.71038 -0.21042 4.71038 -0.21042C4.71038 -0.21042 4.71038 -0.21042 4.71038 -0.21042C4.71038 -0.21042 4.71038 -0.21042 4.71038 -0.21042C4.71037 -0.21042 4.71037 -0.21042 4.71037 -0.21042C4.71037 -0.21042 4.71037 -0.21042 4.71037 -0.21042C4.71037 -0.21042 4.71037 -0.21042 4.71037 -0.21042C4.71037 -0.21042 4.71036 -0.21042 4.71036 -0.21042C4.71036 -0.21042 4.71036 -0.21042 4.71036 -0.21042C4.71036 -0.21042 4.71036 -0.21042 4.71036 -0.21042C4.71036 -0.21042 4.71036 -0.21042 4.71036 -0.21042C4.71035 -0.21042 4.71035 -0.21042 4.71035 -0.21042C4.71035 -0.21042 4.71035 -0.21042 4.71035 -0.21042C4.71035 -0.21042 4.71035 -0.21042 4.71035 -0.21042C4.71035 -0.21042 4.71034 -0.21042 4.71034 -0.21042C4.71034 -0.21042 4.71034 -0.21042 4.71034 -0.21042C4.71034 -0.21042 4.71034 -0.21042 4.71034 -0.21042C4.71034 -0.21042 4.71034 -0.21042 4.71033 -0.21042C4.71033 -0.21042 4.71033 -0.21042 4.71033 -0.21042C4.71033 -0.21042 4.71033 -0.21042 4.71033 -0.21042C4.71033 -0.21042 4.71033 -0.21042 4.71033 -0.21042C4.71032 -0.21042 4.71032 -0.21042 4.71032 -0.21042C4.71032 -0.21042 4.71032 -0.21042 4.71032 -0.21042C4.71032 -0.21042 4.71032 -0.21042 4.71032 -0.21042C4.71032 -0.21042 4.71031 -0.21042 4.71031 -0.21042C4.71031 -0.21042 4.71031 -0.21042 4.71031 -0.21042C4.71031 -0.21042 4.71031 -0.21042 4.71031 -0.21042C4.71031 -0.21042 4.71031 -0.21042 4.7103 -0.21042C4.7103 -0.21042 4.7103 -0.21042 4.7103 -0.21042C4.7103 -0.21042 4.7103 -0.21042 4.7103 -0.21042C4.7103 -0.21042 4.7103 -0.21042 4.7103 -0.21042C4.7103 -0.21042 4.71029 -0.21042 4.71029 -0.21042C4.71029 -0.21042 4.71029 -0.21042 4.71029 -0.21042C4.71029 -0.21042 4.71029 -0.21042 4.71029 -0.21042C4.71029 -0.21042 4.71029 -0.21042 4.71028 -0.21042C4.71028 -0.21042 4.71028 -0.21042 4.71028 -0.21042C4.71028 -0.21042 4.71028 -0.21042 4.71028 -0.21042C4.71028 -0.21042 4.71028 -0.21042 4.71028 -0.21042C4.71027 -0.21042 4.71027 -0.21042 4.71027 -0.21042C4.71027 -0.21042 4.71027 -0.21042 4.71027 -0.21042C4.71027 -0.21042 4.71027 -0.21042 4.71027 -0.21042C4.71027 -0.21042 4.71026 -0.21042 4.71026 -0.21042C4.71026 -0.21042 4.71026 -0.21042 4.71026 -0.21042C4.71026 -0.21042 4.71026 -0.21042 4.71026 -0.21042C4.71026 -0.21042 4.71026 -0.21042 4.71025 -0.21042C4.71025 -0.21042 4.71025 -0.21042 4.71025 -0.21042C4.71025 -0.21042 4.71025 -0.21042 4.71025 -0.21042C4.71025 -0.21042 4.71025 -0.21042 4.71025 -0.21042C4.71025 -0.21042 4.71024 -0.21042 4.71024 -0.21042C4.71024 -0.21042 4.71024 -0.21042 4.71024 -0.21042C4.71024 -0.21042 4.71024 -0.21042 4.71024 -0.21042C4.71024 -0.21042 4.71024 -0.21042 4.71023 -0.21042C4.71023 -0.21042 4.71023 -0.21042 4.71023 -0.21042C4.71023 -0.21042 4.71023 -0.21042 4.71023 -0.21042C4.71023 -0.21042 4.71023 -0.21042 4.71023 -0.21042C4.71022 -0.21042 4.71022 -0.21042 4.71022 -0.21042C4.71022 -0.21042 4.71022 -0.21042 4.71022 -0.21042C4.71022 -0.21042 4.71022 -0.21042 4.71022 -0.21042C4.71022 -0.21042 4.71021 -0.21042 4.71021 -0.21042C4.71021 -0.21042 4.71021 -0.21042 4.71021 -0.21042C4.71021 -0.21042 4.71021 -0.21042 4.71021 -0.21042C4.71021 -0.21042 4.71021 -0.21042 4.7102 -0.21042C4.7102 -0.21042 4.7102 -0.21042 4.7102 -0.21042C4.7102 -0.21042 4.7102 -0.21042 4.7102 -0.21042C4.7102 -0.21042 4.7102 -0.21042 4.7102 -0.21042C4.71019 -0.21042 4.71019 -0.21042 4.71019 -0.21042C4.71019 -0.21042 4.71019 -0.21042 4.71019 -0.21042C4.71019 -0.21042 4.71019 -0.21042 4.71019 -0.21042C4.71019 -0.21042 4.71019 -0.21042 4.71018 -0.21042C4.71018 -0.21042 4.71018 -0.21042 4.71018 -0.21042C4.71018 -0.21042 4.71018 -0.21042 4.71018 -0.21042C4.71018 -0.21042 4.71018 -0.21042 4.71018 -0.21042C4.71017 -0.21042 4.71017 -0.21042 4.71017 -0.21042C4.71017 -0.21042 4.71017 -0.21042 4.71017 -0.21042C4.71017 -0.21042 4.71017 -0.21042 4.71017 -0.21042C4.71017 -0.21042 4.71016 -0.21042 4.71016 -0.21042C4.71016 -0.21042 4.71016 -0.21042 4.71016 -0.21042C4.71016 -0.21042 4.71016 -0.21042 4.71016 -0.21042C4.71016 -0.21042 4.71016 -0.21042 4.71015 -0.21042C4.71015 -0.21042 4.71015 -0.21042 4.71015 -0.21042C4.71015 -0.21042 4.71015 -0.21042 4.71015 -0.21042C4.71015 -0.21042 4.71015 -0.21042 4.71015 -0.21042C4.71014 -0.21042 4.71014 -0.21042 4.71014 -0.21042C4.71014 -0.21042 4.71014 -0.21042 4.71014 -0.21042C4.71014 -0.21042 4.71014 -0.21042 4.71014 -0.21042C4.71014 -0.21042 4.71013 -0.21042 4.71013 -0.21042C4.71013 -0.21042 4.71013 -0.21042 4.71013 -0.21042C4.71013 -0.21042 4.71013 -0.21042 4.71013 -0.21042C4.71013 -0.21042 4.71013 -0.21042 4.71012 -0.21042C4.71012 -0.21042 4.71012 -0.21042 4.71012 -0.21042C4.71012 -0.21042 4.71012 -0.21042 4.71012 -0.21042C4.71012 -0.21042 4.71012 -0.21042 4.71012 -0.21042C4.71012 -0.21042 4.71011 -0.21042 4.71011 -0.21042C4.71011 -0.21042 4.71011 -0.21042 4.71011 -0.21042C4.71011 -0.21042 4.71011 -0.21042 4.71011 -0.21042C4.71011 -0.21042 4.71011 -0.21042 4.7101 -0.21042C4.7101 -0.21042 4.7101 -0.21042 4.7101 -0.21042C4.7101 -0.21042 4.7101 -0.21042 4.7101 -0.21042C4.7101 -0.21042 4.7101 -0.21042 4.7101 -0.21042C4.71009 -0.21042 4.71009 -0.21042 4.71009 -0.21042C4.71009 -0.21042 4.71009 -0.21042 4.71009 -0.21042C4.71009 -0.21042 4.71009 -0.21042 4.71009 -0.21042C4.71009 -0.21042 4.71008 -0.21042 4.71008 -0.21042C4.71008 -0.21042 4.71008 -0.21042 4.71008 -0.21042C4.71008 -0.21042 4.71008 -0.21042 4.71008 -0.21042C4.71008 -0.21042 4.71008 -0.21042 4.71007 -0.21042C4.71007 -0.21042 4.71007 -0.21042 4.71007 -0.21042C4.71007 -0.21042 4.71007 -0.21042 4.71007 -0.21042C4.71007 -0.21042 4.71007 -0.21042 4.71007 -0.21042C4.71006 -0.21042 4.71006 -0.21042 4.71006 -0.21042C4.71006 -0.21042 4.71006 -0.21042 4.71006 -0.21042C4.71006 -0.21042 4.71006 -0.21042 4.71006 -0.21042C4.71006 -0.21042 4.71005 -0.21042 4.71005 -0.21042C4.71005 -0.21042 4.71005 -0.21042 4.71005 -0.21042C4.71005 -0.21042 4.71005 -0.21042 4.71005 -0.21042C4.71005 -0.21042 4.71005 -0.21042 4.71004 -0.21042C4.71004 -0.21042 4.71004 -0.21042 4.71004 -0.21042C4.71004 -0.21042 4.71004 -0.21042 4.71004 -0.21042C4.71004 -0.21042 4.71004 -0.21042 4.71004 -0.21042C4.71003 -0.21042 4.71003 -0.21042 4.71003 -0.21042C4.71003 -0.21042 4.71003 -0.21042 4.71003 -0.21042C4.71003 -0.21042 4.71003 -0.21042 4.71003 -0.21042C4.71003 -0.21042 4.71002 -0.21042 4.71002 -0.21042C4.71002 -0.21042 4.71002 -0.21042 4.71002 -0.21042C4.71002 -0.21042 4.71002 -0.21042 4.71002 -0.21042C4.71002 -0.21042 4.71002 -0.21042 4.71002 -0.21042C4.71001 -0.21042 4.71001 -0.21042 4.71001 -0.21042C4.71001 -0.21042 4.71001 -0.21042 4.71001 -0.21042C4.71001 -0.21042 4.71001 -0.21042 4.71001 -0.21042C4.71001 -0.21042 4.71 -0.21042 4.71 -0.21042C4.71 -0.21042 4.71 -0.21042 4.71 -0.21042C4.71 -0.21042 4.71 -0.21042 4.71 -0.21042C4.71 -0.21042 4.71 -0.21042 4.70999 -0.21042C4.70999 -0.21042 4.70999 -0.21042 4.70999 -0.21042C4.70999 -0.21042 4.70999 -0.21042 4.70999 -0.21042C4.70999 -0.21042 4.70999 -0.21042 4.70999 -0.21042C4.70998 -0.21042 4.70998 -0.21042 4.70998 -0.21042C4.70998 -0.21042 4.70998 -0.21042 4.70998 -0.21042C4.70998 -0.21042 4.70998 -0.21042 4.70998 -0.21042C4.70998 -0.21042 4.70997 -0.21042 4.70997 -0.21042C4.70997 -0.21042 4.70997 -0.21042 4.70997 -0.21042C4.70997 -0.21042 4.70997 -0.21042 4.70997 -0.21042C4.70997 -0.21042 4.70997 -0.21042 4.70996 -0.21042C4.70996 -0.21042 4.70996 -0.21042 4.70996 -0.21042C4.70996 -0.21042 4.70996 -0.21042 4.70996 -0.21042C4.70996 -0.21042 4.70996 -0.21042 4.70996 -0.21042C4.70995 -0.21042 4.70995 -0.21042 4.70995 -0.21042C4.70995 -0.21042 4.70995 -0.21042 4.70995 -0.21042C4.70995 -0.21042 4.70995 -0.21042 4.70995 -0.21042C4.70995 -0.21042 4.70994 -0.21042 4.70994 -0.21042C4.70994 -0.21042 4.70994 -0.21042 4.70994 -0.21042C4.70994 -0.21042 4.70994 -0.21042 4.70994 -0.21042C4.70994 -0.21042 4.70994 -0.21042 4.70993 -0.21042C4.70993 -0.21042 4.70993 -0.21042 4.70993 -0.21042C4.70993 -0.21042 4.70993 -0.21042 4.70993 -0.21042C4.70993 -0.21042 4.70993 -0.21042 4.70993 -0.21042C4.70992 -0.21042 4.70992 -0.21042 4.70992 -0.21042C4.70992 -0.21042 4.70992 -0.21042 4.70992 -0.21042C4.70992 -0.21042 4.70992 -0.21042 4.70992 -0.21042C4.70992 -0.21042 4.70991 -0.21042 4.70991 -0.21042C4.70991 -0.21042 4.70991 -0.21042 4.70991 -0.21042C4.70991 -0.21042 4.70991 -0.21042 4.70991 -0.21042C4.70991 -0.21042 4.70991 -0.21042 4.7099 -0.21042C4.7099 -0.21042 4.7099 -0.21042 4.7099 -0.21042C4.7099 -0.21042 4.7099 -0.21042 4.7099 -0.21042C4.7099 -0.21042 4.7099 -0.21042 4.7099 -0.21042C4.70989 -0.21042 4.70989 -0.21042 4.70989 -0.21042C4.70989 -0.21042 4.70989 -0.21042 4.70989 -0.21042C4.70989 -0.21042 4.70989 -0.21042 4.70989 -0.21042C4.70989 -0.21042 4.70988 -0.21042 4.70988 -0.21042C4.70988 -0.21042 4.70988 -0.21042 4.70988 -0.21042C4.70988 -0.21042 4.70988 -0.21042 4.70988 -0.21042C4.70988 -0.21042 4.70988 -0.21042 4.70987 -0.21042C4.70987 -0.21042 4.70987 -0.21042 4.70987 -0.21042C4.70987 -0.21042 4.70987 -0.21042 4.70987 -0.21042C4.70987 -0.21042 4.70987 -0.21042 4.70987 -0.21042C4.70986 -0.21042 4.70986 -0.21042 4.70986 -0.21042C4.70986 -0.21042 4.70986 -0.21042 4.70986 -0.21042C4.70986 -0.21042 4.70986 -0.21042 4.70986 -0.21042C4.70986 -0.21042 4.70985 -0.21042 4.70985 -0.21042C4.70985 -0.21042 4.70985 -0.21042 4.70985 -0.21042C4.70985 -0.21042 4.70985 -0.21042 4.70985 -0.21042C4.70985 -0.21042 4.70985 -0.21042 4.70984 -0.21042C4.70984 -0.21042 4.70984 -0.21042 4.70984 -0.21042C4.70984 -0.21042 4.70984 -0.21042 4.70984 -0.21042C4.70984 -0.21042 4.70984 -0.21042 4.70984 -0.21042C4.70983 -0.21042 4.70983 -0.21042 4.70983 -0.21042C4.70983 -0.21042 4.70983 -0.21042 4.70983 -0.21042C4.70983 -0.21042 4.70983 -0.21042 4.70983 -0.21042C4.70983 -0.21042 4.70982 -0.21042 4.70982 -0.21042C4.70982 -0.21042 4.70982 -0.21042 4.70982 -0.21042C4.70982 -0.21042 4.70982 -0.21042 4.70982 -0.21042C4.70982 -0.21042 4.70982 -0.21042 4.70981 -0.21042C4.70981 -0.21042 4.70981 -0.21042 4.70981 -0.21042C4.70981 -0.21042 4.70981 -0.21042 4.70981 -0.21042C4.70981 -0.21042 4.70981 -0.21042 4.70981 -0.21042C4.7098 -0.21042 4.7098 -0.21042 4.7098 -0.21042C4.7098 -0.21042 4.7098 -0.21042 4.7098 -0.21042C4.7098 -0.21042 4.7098 -0.21042 4.7098 -0.21042C4.7098 -0.21042 4.70979 -0.21042 4.70979 -0.21042C4.70979 -0.21042 4.70979 -0.21042 4.70979 -0.21042C4.70979 -0.21042 4.70979 -0.21042 4.70979 -0.21042C4.70979 -0.21042 4.70979 -0.21042 4.70978 -0.21042C4.70978 -0.21042 4.70978 -0.21042 4.70978 -0.21042C4.70978 -0.21042 4.70978 -0.21042 4.70978 -0.21042C4.70978 -0.21042 4.70978 -0.21042 4.70978 -0.21042C4.70977 -0.21042 4.70977 -0.21042 4.70977 -0.21042C4.70977 -0.21042 4.70977 -0.21042 4.70977 -0.21042C4.70977 -0.21042 4.70977 -0.21042 4.70977 -0.21042C4.70976 -0.21042 4.70976 -0.21042 4.70976 -0.21042C4.70976 -0.21042 4.70976 -0.21042 4.70976 -0.21042C4.70976 -0.21042 4.70976 -0.21042 4.70976 -0.21042C4.70976 -0.21042 4.70975 -0.21042 4.70975 -0.21042C4.70975 -0.21042 4.70975 -0.21042 4.70975 -0.21042C4.70975 -0.21042 4.70975 -0.21042 4.70975 -0.21042C4.70975 -0.21042 4.70975 -0.21042 4.70974 -0.21042C4.70974 -0.21042 4.70974 -0.21042 4.70974 -0.21042C4.70974 -0.21042 4.70974 -0.21042 4.70974 -0.21042C4.70974 -0.21042 4.70974 -0.21042 4.70974 -0.21042C4.70973 -0.21042 4.70973 -0.21042 4.70973 -0.21042C4.70973 -0.21042 4.70973 -0.21042 4.70973 -0.21042C4.70973 -0.21042 4.70973 -0.21042 4.70973 -0.21042V3.78958C4.70973 3.78958 4.70973 3.78958 4.70973 3.78958C4.70973 3.78958 4.70973 3.78958 4.70973 3.78958C4.70973 3.78958 4.70973 3.78958 4.70974 3.78958C4.70974 3.78958 4.70974 3.78958 4.70974 3.78958C4.70974 3.78958 4.70974 3.78958 4.70974 3.78958C4.70974 3.78958 4.70974 3.78958 4.70974 3.78958C4.70975 3.78958 4.70975 3.78958 4.70975 3.78958C4.70975 3.78958 4.70975 3.78958 4.70975 3.78958C4.70975 3.78958 4.70975 3.78958 4.70975 3.78958C4.70975 3.78958 4.70976 3.78958 4.70976 3.78958C4.70976 3.78958 4.70976 3.78958 4.70976 3.78958C4.70976 3.78958 4.70976 3.78958 4.70976 3.78958C4.70976 3.78958 4.70976 3.78958 4.70977 3.78958C4.70977 3.78958 4.70977 3.78958 4.70977 3.78958C4.70977 3.78958 4.70977 3.78958 4.70977 3.78958C4.70977 3.78958 4.70977 3.78958 4.70978 3.78958C4.70978 3.78958 4.70978 3.78958 4.70978 3.78958C4.70978 3.78958 4.70978 3.78958 4.70978 3.78958C4.70978 3.78958 4.70978 3.78958 4.70978 3.78958C4.70979 3.78958 4.70979 3.78958 4.70979 3.78958C4.70979 3.78958 4.70979 3.78958 4.70979 3.78958C4.70979 3.78958 4.70979 3.78958 4.70979 3.78958C4.70979 3.78958 4.7098 3.78958 4.7098 3.78958C4.7098 3.78958 4.7098 3.78958 4.7098 3.78958C4.7098 3.78958 4.7098 3.78958 4.7098 3.78958C4.7098 3.78958 4.7098 3.78958 4.70981 3.78958C4.70981 3.78958 4.70981 3.78958 4.70981 3.78958C4.70981 3.78958 4.70981 3.78958 4.70981 3.78958C4.70981 3.78958 4.70981 3.78958 4.70981 3.78958C4.70982 3.78958 4.70982 3.78958 4.70982 3.78958C4.70982 3.78958 4.70982 3.78958 4.70982 3.78958C4.70982 3.78958 4.70982 3.78958 4.70982 3.78958C4.70982 3.78958 4.70983 3.78958 4.70983 3.78958C4.70983 3.78958 4.70983 3.78958 4.70983 3.78958C4.70983 3.78958 4.70983 3.78958 4.70983 3.78958C4.70983 3.78958 4.70983 3.78958 4.70984 3.78958C4.70984 3.78958 4.70984 3.78958 4.70984 3.78958C4.70984 3.78958 4.70984 3.78958 4.70984 3.78958C4.70984 3.78958 4.70984 3.78958 4.70984 3.78958C4.70985 3.78958 4.70985 3.78958 4.70985 3.78958C4.70985 3.78958 4.70985 3.78958 4.70985 3.78958C4.70985 3.78958 4.70985 3.78958 4.70985 3.78958C4.70985 3.78958 4.70986 3.78958 4.70986 3.78958C4.70986 3.78958 4.70986 3.78958 4.70986 3.78958C4.70986 3.78958 4.70986 3.78958 4.70986 3.78958C4.70986 3.78958 4.70986 3.78958 4.70987 3.78958C4.70987 3.78958 4.70987 3.78958 4.70987 3.78958C4.70987 3.78958 4.70987 3.78958 4.70987 3.78958C4.70987 3.78958 4.70987 3.78958 4.70987 3.78958C4.70988 3.78958 4.70988 3.78958 4.70988 3.78958C4.70988 3.78958 4.70988 3.78958 4.70988 3.78958C4.70988 3.78958 4.70988 3.78958 4.70988 3.78958C4.70988 3.78958 4.70989 3.78958 4.70989 3.78958C4.70989 3.78958 4.70989 3.78958 4.70989 3.78958C4.70989 3.78958 4.70989 3.78958 4.70989 3.78958C4.70989 3.78958 4.70989 3.78958 4.7099 3.78958C4.7099 3.78958 4.7099 3.78958 4.7099 3.78958C4.7099 3.78958 4.7099 3.78958 4.7099 3.78958C4.7099 3.78958 4.7099 3.78958 4.7099 3.78958C4.70991 3.78958 4.70991 3.78958 4.70991 3.78958C4.70991 3.78958 4.70991 3.78958 4.70991 3.78958C4.70991 3.78958 4.70991 3.78958 4.70991 3.78958C4.70991 3.78958 4.70992 3.78958 4.70992 3.78958C4.70992 3.78958 4.70992 3.78958 4.70992 3.78958C4.70992 3.78958 4.70992 3.78958 4.70992 3.78958C4.70992 3.78958 4.70992 3.78958 4.70993 3.78958C4.70993 3.78958 4.70993 3.78958 4.70993 3.78958C4.70993 3.78958 4.70993 3.78958 4.70993 3.78958C4.70993 3.78958 4.70993 3.78958 4.70993 3.78958C4.70994 3.78958 4.70994 3.78958 4.70994 3.78958C4.70994 3.78958 4.70994 3.78958 4.70994 3.78958C4.70994 3.78958 4.70994 3.78958 4.70994 3.78958C4.70994 3.78958 4.70995 3.78958 4.70995 3.78958C4.70995 3.78958 4.70995 3.78958 4.70995 3.78958C4.70995 3.78958 4.70995 3.78958 4.70995 3.78958C4.70995 3.78958 4.70995 3.78958 4.70996 3.78958C4.70996 3.78958 4.70996 3.78958 4.70996 3.78958C4.70996 3.78958 4.70996 3.78958 4.70996 3.78958C4.70996 3.78958 4.70996 3.78958 4.70996 3.78958C4.70997 3.78958 4.70997 3.78958 4.70997 3.78958C4.70997 3.78958 4.70997 3.78958 4.70997 3.78958C4.70997 3.78958 4.70997 3.78958 4.70997 3.78958C4.70997 3.78958 4.70998 3.78958 4.70998 3.78958C4.70998 3.78958 4.70998 3.78958 4.70998 3.78958C4.70998 3.78958 4.70998 3.78958 4.70998 3.78958C4.70998 3.78958 4.70998 3.78958 4.70999 3.78958C4.70999 3.78958 4.70999 3.78958 4.70999 3.78958C4.70999 3.78958 4.70999 3.78958 4.70999 3.78958C4.70999 3.78958 4.70999 3.78958 4.70999 3.78958C4.71 3.78958 4.71 3.78958 4.71 3.78958C4.71 3.78958 4.71 3.78958 4.71 3.78958C4.71 3.78958 4.71 3.78958 4.71 3.78958C4.71 3.78958 4.71001 3.78958 4.71001 3.78958C4.71001 3.78958 4.71001 3.78958 4.71001 3.78958C4.71001 3.78958 4.71001 3.78958 4.71001 3.78958C4.71001 3.78958 4.71001 3.78958 4.71002 3.78958C4.71002 3.78958 4.71002 3.78958 4.71002 3.78958C4.71002 3.78958 4.71002 3.78958 4.71002 3.78958C4.71002 3.78958 4.71002 3.78958 4.71002 3.78958C4.71002 3.78958 4.71003 3.78958 4.71003 3.78958C4.71003 3.78958 4.71003 3.78958 4.71003 3.78958C4.71003 3.78958 4.71003 3.78958 4.71003 3.78958C4.71003 3.78958 4.71003 3.78958 4.71004 3.78958C4.71004 3.78958 4.71004 3.78958 4.71004 3.78958C4.71004 3.78958 4.71004 3.78958 4.71004 3.78958C4.71004 3.78958 4.71004 3.78958 4.71004 3.78958C4.71005 3.78958 4.71005 3.78958 4.71005 3.78958C4.71005 3.78958 4.71005 3.78958 4.71005 3.78958C4.71005 3.78958 4.71005 3.78958 4.71005 3.78958C4.71005 3.78958 4.71006 3.78958 4.71006 3.78958C4.71006 3.78958 4.71006 3.78958 4.71006 3.78958C4.71006 3.78958 4.71006 3.78958 4.71006 3.78958C4.71006 3.78958 4.71006 3.78958 4.71007 3.78958C4.71007 3.78958 4.71007 3.78958 4.71007 3.78958C4.71007 3.78958 4.71007 3.78958 4.71007 3.78958C4.71007 3.78958 4.71007 3.78958 4.71007 3.78958C4.71008 3.78958 4.71008 3.78958 4.71008 3.78958C4.71008 3.78958 4.71008 3.78958 4.71008 3.78958C4.71008 3.78958 4.71008 3.78958 4.71008 3.78958C4.71008 3.78958 4.71009 3.78958 4.71009 3.78958C4.71009 3.78958 4.71009 3.78958 4.71009 3.78958C4.71009 3.78958 4.71009 3.78958 4.71009 3.78958C4.71009 3.78958 4.71009 3.78958 4.7101 3.78958C4.7101 3.78958 4.7101 3.78958 4.7101 3.78958C4.7101 3.78958 4.7101 3.78958 4.7101 3.78958C4.7101 3.78958 4.7101 3.78958 4.7101 3.78958C4.71011 3.78958 4.71011 3.78958 4.71011 3.78958C4.71011 3.78958 4.71011 3.78958 4.71011 3.78958C4.71011 3.78958 4.71011 3.78958 4.71011 3.78958C4.71011 3.78958 4.71012 3.78958 4.71012 3.78958C4.71012 3.78958 4.71012 3.78958 4.71012 3.78958C4.71012 3.78958 4.71012 3.78958 4.71012 3.78958C4.71012 3.78958 4.71012 3.78958 4.71012 3.78958C4.71013 3.78958 4.71013 3.78958 4.71013 3.78958C4.71013 3.78958 4.71013 3.78958 4.71013 3.78958C4.71013 3.78958 4.71013 3.78958 4.71013 3.78958C4.71013 3.78958 4.71014 3.78958 4.71014 3.78958C4.71014 3.78958 4.71014 3.78958 4.71014 3.78958C4.71014 3.78958 4.71014 3.78958 4.71014 3.78958C4.71014 3.78958 4.71014 3.78958 4.71015 3.78958C4.71015 3.78958 4.71015 3.78958 4.71015 3.78958C4.71015 3.78958 4.71015 3.78958 4.71015 3.78958C4.71015 3.78958 4.71015 3.78958 4.71015 3.78958C4.71016 3.78958 4.71016 3.78958 4.71016 3.78958C4.71016 3.78958 4.71016 3.78958 4.71016 3.78958C4.71016 3.78958 4.71016 3.78958 4.71016 3.78958C4.71016 3.78958 4.71017 3.78958 4.71017 3.78958C4.71017 3.78958 4.71017 3.78958 4.71017 3.78958C4.71017 3.78958 4.71017 3.78958 4.71017 3.78958C4.71017 3.78958 4.71017 3.78958 4.71018 3.78958C4.71018 3.78958 4.71018 3.78958 4.71018 3.78958C4.71018 3.78958 4.71018 3.78958 4.71018 3.78958C4.71018 3.78958 4.71018 3.78958 4.71018 3.78958C4.71019 3.78958 4.71019 3.78958 4.71019 3.78958C4.71019 3.78958 4.71019 3.78958 4.71019 3.78958C4.71019 3.78958 4.71019 3.78958 4.71019 3.78958C4.71019 3.78958 4.71019 3.78958 4.7102 3.78958C4.7102 3.78958 4.7102 3.78958 4.7102 3.78958C4.7102 3.78958 4.7102 3.78958 4.7102 3.78958C4.7102 3.78958 4.7102 3.78958 4.7102 3.78958C4.71021 3.78958 4.71021 3.78958 4.71021 3.78958C4.71021 3.78958 4.71021 3.78958 4.71021 3.78958C4.71021 3.78958 4.71021 3.78958 4.71021 3.78958C4.71021 3.78958 4.71022 3.78958 4.71022 3.78958C4.71022 3.78958 4.71022 3.78958 4.71022 3.78958C4.71022 3.78958 4.71022 3.78958 4.71022 3.78958C4.71022 3.78958 4.71022 3.78958 4.71023 3.78958C4.71023 3.78958 4.71023 3.78958 4.71023 3.78958C4.71023 3.78958 4.71023 3.78958 4.71023 3.78958C4.71023 3.78958 4.71023 3.78958 4.71023 3.78958C4.71024 3.78958 4.71024 3.78958 4.71024 3.78958C4.71024 3.78958 4.71024 3.78958 4.71024 3.78958C4.71024 3.78958 4.71024 3.78958 4.71024 3.78958C4.71024 3.78958 4.71025 3.78958 4.71025 3.78958C4.71025 3.78958 4.71025 3.78958 4.71025 3.78958C4.71025 3.78958 4.71025 3.78958 4.71025 3.78958C4.71025 3.78958 4.71025 3.78958 4.71025 3.78958C4.71026 3.78958 4.71026 3.78958 4.71026 3.78958C4.71026 3.78958 4.71026 3.78958 4.71026 3.78958C4.71026 3.78958 4.71026 3.78958 4.71026 3.78958C4.71026 3.78958 4.71027 3.78958 4.71027 3.78958C4.71027 3.78958 4.71027 3.78958 4.71027 3.78958C4.71027 3.78958 4.71027 3.78958 4.71027 3.78958C4.71027 3.78958 4.71027 3.78958 4.71028 3.78958C4.71028 3.78958 4.71028 3.78958 4.71028 3.78958C4.71028 3.78958 4.71028 3.78958 4.71028 3.78958C4.71028 3.78958 4.71028 3.78958 4.71028 3.78958C4.71029 3.78958 4.71029 3.78958 4.71029 3.78958C4.71029 3.78958 4.71029 3.78958 4.71029 3.78958C4.71029 3.78958 4.71029 3.78958 4.71029 3.78958C4.71029 3.78958 4.7103 3.78958 4.7103 3.78958C4.7103 3.78958 4.7103 3.78958 4.7103 3.78958C4.7103 3.78958 4.7103 3.78958 4.7103 3.78958C4.7103 3.78958 4.7103 3.78958 4.7103 3.78958C4.71031 3.78958 4.71031 3.78958 4.71031 3.78958C4.71031 3.78958 4.71031 3.78958 4.71031 3.78958C4.71031 3.78958 4.71031 3.78958 4.71031 3.78958C4.71031 3.78958 4.71032 3.78958 4.71032 3.78958C4.71032 3.78958 4.71032 3.78958 4.71032 3.78958C4.71032 3.78958 4.71032 3.78958 4.71032 3.78958C4.71032 3.78958 4.71032 3.78958 4.71033 3.78958C4.71033 3.78958 4.71033 3.78958 4.71033 3.78958C4.71033 3.78958 4.71033 3.78958 4.71033 3.78958C4.71033 3.78958 4.71033 3.78958 4.71033 3.78958C4.71034 3.78958 4.71034 3.78958 4.71034 3.78958C4.71034 3.78958 4.71034 3.78958 4.71034 3.78958C4.71034 3.78958 4.71034 3.78958 4.71034 3.78958C4.71034 3.78958 4.71035 3.78958 4.71035 3.78958C4.71035 3.78958 4.71035 3.78958 4.71035 3.78958C4.71035 3.78958 4.71035 3.78958 4.71035 3.78958C4.71035 3.78958 4.71035 3.78958 4.71036 3.78958C4.71036 3.78958 4.71036 3.78958 4.71036 3.78958C4.71036 3.78958 4.71036 3.78958 4.71036 3.78958C4.71036 3.78958 4.71036 3.78958 4.71036 3.78958C4.71036 3.78958 4.71037 3.78958 4.71037 3.78958C4.71037 3.78958 4.71037 3.78958 4.71037 3.78958C4.71037 3.78958 4.71037 3.78958 4.71037 3.78958C4.71037 3.78958 4.71037 3.78958 4.71038 3.78958C4.71038 3.78958 4.71038 3.78958 4.71038 3.78958C4.71038 3.78958 4.71038 3.78958 4.71038 3.78958C4.71038 3.78958 4.71038 3.78958 4.71038 3.78958C4.71039 3.78958 4.71039 3.78958 4.71039 3.78958C4.71039 3.78958 4.71039 3.78958 4.71039 3.78958C4.71039 3.78958 4.71039 3.78958 4.71039 3.78958C4.71039 3.78958 4.7104 3.78958 4.7104 3.78958C4.7104 3.78958 4.7104 3.78958 4.7104 3.78958C4.7104 3.78958 4.7104 3.78958 4.7104 3.78958C4.7104 3.78958 4.7104 3.78958 4.7104 3.78958C4.71041 3.78958 4.71041 3.78958 4.71041 3.78958C4.71041 3.78958 4.71041 3.78958 4.71041 3.78958C4.71041 3.78958 4.71041 3.78958 4.71041 3.78958C4.71041 3.78958 4.71042 3.78958 4.71042 3.78958C4.71042 3.78958 4.71042 3.78958 4.71042 3.78958C4.71042 3.78958 4.71042 3.78958 4.71042 3.78958C4.71042 3.78958 4.71042 3.78958 4.71043 3.78958C4.71043 3.78958 4.71043 3.78958 4.71043 3.78958C4.71043 3.78958 4.71043 3.78958 4.71043 3.78958C4.71043 3.78958 4.71043 3.78958 4.71043 3.78958C4.71044 3.78958 4.71044 3.78958 4.71044 3.78958C4.71044 3.78958 4.71044 3.78958 4.71044 3.78958C4.71044 3.78958 4.71044 3.78958 4.71044 3.78958C4.71044 3.78958 4.71045 3.78958 4.71045 3.78958C4.71045 3.78958 4.71045 3.78958 4.71045 3.78958C4.71045 3.78958 4.71045 3.78958 4.71045 3.78958C4.71045 3.78958 4.71045 3.78958 4.71045 3.78958C4.71046 3.78958 4.71046 3.78958 4.71046 3.78958C4.71046 3.78958 4.71046 3.78958 4.71046 3.78958C4.71046 3.78958 4.71046 3.78958 4.71046 3.78958C4.71046 3.78958 4.71047 3.78958 4.71047 3.78958C4.71047 3.78958 4.71047 3.78958 4.71047 3.78958C4.71047 3.78958 4.71047 3.78958 4.71047 3.78958C4.71047 3.78958 4.71047 3.78958 4.71048 3.78958C4.71048 3.78958 4.71048 3.78958 4.71048 3.78958C4.71048 3.78958 4.71048 3.78958 4.71048 3.78958C4.71048 3.78958 4.71048 3.78958 4.71048 3.78958C4.71049 3.78958 4.71049 3.78958 4.71049 3.78958C4.71049 3.78958 4.71049 3.78958 4.71049 3.78958C4.71049 3.78958 4.71049 3.78958 4.71049 3.78958C4.71049 3.78958 4.71049 3.78958 4.7105 3.78958C4.7105 3.78958 4.7105 3.78958 4.7105 3.78958C4.7105 3.78958 4.7105 3.78958 4.7105 3.78958C4.7105 3.78958 4.7105 3.78958 4.7105 3.78958C4.71051 3.78958 4.71051 3.78958 4.71051 3.78958C4.71051 3.78958 4.71051 3.78958 4.71051 3.78958C4.71051 3.78958 4.71051 3.78958 4.71051 3.78958C4.71051 3.78958 4.71052 3.78958 4.71052 3.78958C4.71052 3.78958 4.71052 3.78958 4.71052 3.78958C4.71052 3.78958 4.71052 3.78958 4.71052 3.78958C4.71052 3.78958 4.71052 3.78958 4.71053 3.78958C4.71053 3.78958 4.71053 3.78958 4.71053 3.78958C4.71053 3.78958 4.71053 3.78958 4.71053 3.78958C4.71053 3.78958 4.71053 3.78958 4.71053 3.78958C4.71054 3.78958 4.71054 3.78958 4.71054 3.78958C4.71054 3.78958 4.71054 3.78958 4.71054 3.78958C4.71054 3.78958 4.71054 3.78958 4.71054 3.78958C4.71054 3.78958 4.71054 3.78958 4.71055 3.78958C4.71055 3.78958 4.71055 3.78958 4.71055 3.78958C4.71055 3.78958 4.71055 3.78958 4.71055 3.78958C4.71055 3.78958 4.71055 3.78958 4.71055 3.78958C4.71056 3.78958 4.71056 3.78958 4.71056 3.78958C4.71056 3.78958 4.71056 3.78958 4.71056 3.78958C4.71056 3.78958 4.71056 3.78958 4.71056 3.78958C4.71056 3.78958 4.71057 3.78958 4.71057 3.78958C4.71057 3.78958 4.71057 3.78958 4.71057 3.78958C4.71057 3.78958 4.71057 3.78958 4.71057 3.78958C4.71057 3.78958 4.71057 3.78958 4.71058 3.78958C4.71058 3.78958 4.71058 3.78958 4.71058 3.78958C4.71058 3.78958 4.71058 3.78958 4.71058 3.78958C4.71058 3.78958 4.71058 3.78958 4.71058 3.78958C4.71058 3.78958 4.71059 3.78958 4.71059 3.78958C4.71059 3.78958 4.71059 3.78958 4.71059 3.78958C4.71059 3.78958 4.71059 3.78958 4.71059 3.78958C4.71059 3.78958 4.71059 3.78958 4.7106 3.78958C4.7106 3.78958 4.7106 3.78958 4.7106 3.78958C4.7106 3.78958 4.7106 3.78958 4.7106 3.78958C4.7106 3.78958 4.7106 3.78958 4.7106 3.78958C4.71061 3.78958 4.71061 3.78958 4.71061 3.78958C4.71061 3.78958 4.71061 3.78958 4.71061 3.78958C4.71061 3.78958 4.71061 3.78958 4.71061 3.78958C4.71061 3.78958 4.71062 3.78958 4.71062 3.78958C4.71062 3.78958 4.71062 3.78958 4.71062 3.78958C4.71062 3.78958 4.71062 3.78958 4.71062 3.78958C4.71062 3.78958 4.71062 3.78958 4.71062 3.78958C4.71063 3.78958 4.71063 3.78958 4.71063 3.78958C4.71063 3.78958 4.71063 3.78958 4.71063 3.78958C4.71063 3.78958 4.71063 3.78958 4.71063 3.78958C4.71063 3.78958 4.71064 3.78958 4.71064 3.78958C4.71064 3.78958 4.71064 3.78958 4.71064 3.78958C4.71064 3.78958 4.71064 3.78958 4.71064 3.78958C4.71064 3.78958 4.71064 3.78958 4.71065 3.78958C4.71065 3.78958 4.71065 3.78958 4.71065 3.78958C4.71065 3.78958 4.71065 3.78958 4.71065 3.78958C4.71065 3.78958 4.71065 3.78958 4.71065 3.78958C4.71066 3.78958 4.71066 3.78958 4.71066 3.78958C4.71066 3.78958 4.71066 3.78958 4.71066 3.78958C4.71066 3.78958 4.71066 3.78958 4.71066 3.78958C4.71066 3.78958 4.71066 3.78958 4.71067 3.78958C4.71067 3.78958 4.71067 3.78958 4.71067 3.78958C4.71067 3.78958 4.71067 3.78958 4.71067 3.78958C4.71067 3.78958 4.71067 3.78958 4.71067 3.78958C4.71068 3.78958 4.71068 3.78958 4.71068 3.78958C4.71068 3.78958 4.71068 3.78958 4.71068 3.78958C4.71068 3.78958 4.71068 3.78958 4.71068 3.78958C4.71068 3.78958 4.71069 3.78958 4.71069 3.78958C4.71069 3.78958 4.71069 3.78958 4.71069 3.78958C4.71069 3.78958 4.71069 3.78958 4.71069 3.78958C4.71069 3.78958 4.71069 3.78958 4.7107 3.78958C4.7107 3.78958 4.7107 3.78958 4.7107 3.78958C4.7107 3.78958 4.7107 3.78958 4.7107 3.78958C4.7107 3.78958 4.7107 3.78958 4.7107 3.78958C4.7107 3.78958 4.71071 3.78958 4.71071 3.78958C4.71071 3.78958 4.71071 3.78958 4.71071 3.78958C4.71071 3.78958 4.71071 3.78958 4.71071 3.78958C4.71071 3.78958 4.71071 3.78958 4.71072 3.78958C4.71072 3.78958 4.71072 3.78958 4.71072 3.78958C4.71072 3.78958 4.71072 3.78958 4.71072 3.78958C4.71072 3.78958 4.71072 3.78958 4.71072 3.78958C4.71073 3.78958 4.71073 3.78958 4.71073 3.78958C4.71073 3.78958 4.71073 3.78958 4.71073 3.78958C4.71073 3.78958 4.71073 3.78958 4.71073 3.78958C4.71073 3.78958 4.71074 3.78958 4.71074 3.78958C4.71074 3.78958 4.71074 3.78958 4.71074 3.78958C4.71074 3.78958 4.71074 3.78958 4.71074 3.78958C4.71074 3.78958 4.71074 3.78958 4.71074 3.78958C4.71075 3.78958 4.71075 3.78958 4.71075 3.78958C4.71075 3.78958 4.71075 3.78958 4.71075 3.78958C4.71075 3.78958 4.71075 3.78958 4.71075 3.78958C4.71075 3.78958 4.71076 3.78958 4.71076 3.78958C4.71076 3.78958 4.71076 3.78958 4.71076 3.78958C4.71076 3.78958 4.71076 3.78958 4.71076 3.78958C4.71076 3.78958 4.71076 3.78958 4.71077 3.78958C4.71077 3.78958 4.71077 3.78958 4.71077 3.78958C4.71077 3.78958 4.71077 3.78958 4.71077 3.78958C4.71077 3.78958 4.71077 3.78958 4.71077 3.78958C4.71078 3.78958 4.71078 3.78958 4.71078 3.78958C4.71078 3.78958 4.71078 3.78958 4.71078 3.78958C4.71078 3.78958 4.71078 3.78958 4.71078 3.78958C4.71078 3.78958 4.71079 3.78958 4.71079 3.78958C4.71079 3.78958 4.71079 3.78958 4.71079 3.78958C4.71079 3.78958 4.71079 3.78958 4.71079 3.78958C4.71079 3.78958 4.71079 3.78958 4.71079 3.78958C4.7108 3.78958 4.7108 3.78958 4.7108 3.78958C4.7108 3.78958 4.7108 3.78958 4.7108 3.78958C4.7108 3.78958 4.7108 3.78958 4.7108 3.78958C4.7108 3.78958 4.71081 3.78958 4.71081 3.78958C4.71081 3.78958 4.71081 3.78958 4.71081 3.78958C4.71081 3.78958 4.71081 3.78958 4.71081 3.78958C4.71081 3.78958 4.71081 3.78958 4.71082 3.78958C4.71082 3.78958 4.71082 3.78958 4.71082 3.78958C4.71082 3.78958 4.71082 3.78958 4.71082 3.78958C4.71082 3.78958 4.71082 3.78958 4.71082 3.78958C4.71083 3.78958 4.71083 3.78958 4.71083 3.78958C4.71083 3.78958 4.71083 3.78958 4.71083 3.78958C4.71083 3.78958 4.71083 3.78958 4.71083 3.78958C4.71083 3.78958 4.71083 3.78958 4.71084 3.78958C4.71084 3.78958 4.71084 3.78958 4.71084 3.78958C4.71084 3.78958 4.71084 3.78958 4.71084 3.78958C4.71084 3.78958 4.71084 3.78958 4.71084 3.78958C4.71085 3.78958 4.71085 3.78958 4.71085 3.78958C4.71085 3.78958 4.71085 3.78958 4.71085 3.78958C4.71085 3.78958 4.71085 3.78958 4.71085 3.78958C4.71085 3.78958 4.71086 3.78958 4.71086 3.78958C4.71086 3.78958 4.71086 3.78958 4.71086 3.78958C4.71086 3.78958 4.71086 3.78958 4.71086 3.78958C4.71086 3.78958 4.71086 3.78958 4.71087 3.78958C4.71087 3.78958 4.71087 3.78958 4.71087 3.78958C4.71087 3.78958 4.71087 3.78958 4.71087 3.78958C4.71087 3.78958 4.71087 3.78958 4.71087 3.78958C4.71088 3.78958 4.71088 3.78958 4.71088 3.78958C4.71088 3.78958 4.71088 3.78958 4.71088 3.78958C4.71088 3.78958 4.71088 3.78958 4.71088 3.78958C4.71088 3.78958 4.71088 3.78958 4.71089 3.78958C4.71089 3.78958 4.71089 3.78958 4.71089 3.78958C4.71089 3.78958 4.71089 3.78958 4.71089 3.78958C4.71089 3.78958 4.71089 3.78958 4.71089 3.78958C4.7109 3.78958 4.7109 3.78958 4.7109 3.78958C4.7109 3.78958 4.7109 3.78958 4.7109 3.78958C4.7109 3.78958 4.7109 3.78958 4.7109 3.78958C4.7109 3.78958 4.71091 3.78958 4.71091 3.78958C4.71091 3.78958 4.71091 3.78958 4.71091 3.78958C4.71091 3.78958 4.71091 3.78958 4.71091 3.78958C4.71091 3.78958 4.71091 3.78958 4.71092 3.78958C4.71092 3.78958 4.71092 3.78958 4.71092 3.78958C4.71092 3.78958 4.71092 3.78958 4.71092 3.78958C4.71092 3.78958 4.71092 3.78958 4.71092 3.78958C4.71092 3.78958 4.71093 3.78958 4.71093 3.78958C4.71093 3.78958 4.71093 3.78958 4.71093 3.78958C4.71093 3.78958 4.71093 3.78958 4.71093 3.78958C4.71093 3.78958 4.71093 3.78958 4.71094 3.78958C4.71094 3.78958 4.71094 3.78958 4.71094 3.78958C4.71094 3.78958 4.71094 3.78958 4.71094 3.78958C4.71094 3.78958 4.71094 3.78958 4.71094 3.78958C4.71095 3.78958 4.71095 3.78958 4.71095 3.78958C4.71095 3.78958 4.71095 3.78958 4.71095 3.78958C4.71095 3.78958 4.71095 3.78958 4.71095 3.78958C4.71095 3.78958 4.71096 3.78958 4.71096 3.78958C4.71096 3.78958 4.71096 3.78958 4.71096 3.78958C4.71096 3.78958 4.71096 3.78958 4.71096 3.78958C4.71096 3.78958 4.71096 3.78958 4.71097 3.78958C4.71097 3.78958 4.71097 3.78958 4.71097 3.78958C4.71097 3.78958 4.71097 3.78958 4.71097 3.78958C4.71097 3.78958 4.71097 3.78958 4.71097 3.78958C4.71098 3.78958 4.71098 3.78958 4.71098 3.78958C4.71098 3.78958 4.71098 3.78958 4.71098 3.78958C4.71098 3.78958 4.71098 3.78958 4.71098 3.78958C4.71098 3.78958 4.71098 3.78958 4.71099 3.78958C4.71099 3.78958 4.71099 3.78958 4.71099 3.78958C4.71099 3.78958 4.71099 3.78958 4.71099 3.78958C4.71099 3.78958 4.71099 3.78958 4.71099 3.78958C4.711 3.78958 4.711 3.78958 4.711 3.78958C4.711 3.78958 4.711 3.78958 4.711 3.78958C4.711 3.78958 4.711 3.78958 4.711 3.78958C4.711 3.78958 4.71101 3.78958 4.71101 3.78958C4.71101 3.78958 4.71101 3.78958 4.71101 3.78958C4.71101 3.78958 4.71101 3.78958 4.71101 3.78958C4.71101 3.78958 4.71101 3.78958 4.71102 3.78958C4.71102 3.78958 4.71102 3.78958 4.71102 3.78958C4.71102 3.78958 4.71102 3.78958 4.71102 3.78958C4.71102 3.78958 4.71102 3.78958 4.71102 3.78958C4.71103 3.78958 4.71103 3.78958 4.71103 3.78958C4.71103 3.78958 4.71103 3.78958 4.71103 3.78958C4.71103 3.78958 4.71103 3.78958 4.71103 3.78958C4.71103 3.78958 4.71104 3.78958 4.71104 3.78958C4.71104 3.78958 4.71104 3.78958 4.71104 3.78958C4.71104 3.78958 4.71104 3.78958 4.71104 3.78958C4.71104 3.78958 4.71104 3.78958 4.71104 3.78958C4.71105 3.78958 4.71105 3.78958 4.71105 3.78958C4.71105 3.78958 4.71105 3.78958 4.71105 3.78958C4.71105 3.78958 4.71105 3.78958 4.71105 3.78958C4.71105 3.78958 4.71106 3.78958 4.71106 3.78958C4.71106 3.78958 4.71106 3.78958 4.71106 3.78958C4.71106 3.78958 4.71106 3.78958 4.71106 3.78958C4.71106 3.78958 4.71106 3.78958 4.71107 3.78958C4.71107 3.78958 4.71107 3.78958 4.71107 3.78958C4.71107 3.78958 4.71107 3.78958 4.71107 3.78958C4.71107 3.78958 4.71107 3.78958 4.71107 3.78958C4.71108 3.78958 4.71108 3.78958 4.71108 3.78958C4.71108 3.78958 4.71108 3.78958 4.71108 3.78958C4.71108 3.78958 4.71108 3.78958 4.71108 3.78958C4.71108 3.78958 4.71109 3.78958 4.71109 3.78958C4.71109 3.78958 4.71109 3.78958 4.71109 3.78958C4.71109 3.78958 4.71109 3.78958 4.71109 3.78958C4.71109 3.78958 4.71109 3.78958 4.71109 3.78958C4.7111 3.78958 4.7111 3.78958 4.7111 3.78958C4.7111 3.78958 4.7111 3.78958 4.7111 3.78958C4.7111 3.78958 4.7111 3.78958 4.7111 3.78958C4.7111 3.78958 4.71111 3.78958 4.71111 3.78958C4.71111 3.78958 4.71111 3.78958 4.71111 3.78958C4.71111 3.78958 4.71111 3.78958 4.71111 3.78958C4.71111 3.78958 4.71111 3.78958 4.71112 3.78958C4.71112 3.78958 4.71112 3.78958 4.71112 3.78958C4.71112 3.78958 4.71112 3.78958 4.71112 3.78958C4.71112 3.78958 4.71112 3.78958 4.71112 3.78958C4.71113 3.78958 4.71113 3.78958 4.71113 3.78958C4.71113 3.78958 4.71113 3.78958 4.71113 3.78958C4.71113 3.78958 4.71113 3.78958 4.71113 3.78958C4.71113 3.78958 4.71114 3.78958 4.71114 3.78958C4.71114 3.78958 4.71114 3.78958 4.71114 3.78958C4.71114 3.78958 4.71114 3.78958 4.71114 3.78958C4.71114 3.78958 4.71114 3.78958 4.71115 3.78958C4.71115 3.78958 4.71115 3.78958 4.71115 3.78958C4.71115 3.78958 4.71115 3.78958 4.71115 3.78958C4.71115 3.78958 4.71115 3.78958 4.71115 3.78958C4.71116 3.78958 4.71116 3.78958 4.71116 3.78958C4.71116 3.78958 4.71116 3.78958 4.71116 3.78958C4.71116 3.78958 4.71116 3.78958 4.71116 3.78958C4.71116 3.78958 4.71117 3.78958 4.71117 3.78958C4.71117 3.78958 4.71117 3.78958 4.71117 3.78958C4.71117 3.78958 4.71117 3.78958 4.71117 3.78958C4.71117 3.78958 4.71117 3.78958 4.71117 3.78958C4.71118 3.78958 4.71118 3.78958 4.71118 3.78958C4.71118 3.78958 4.71118 3.78958 4.71118 3.78958C4.71118 3.78958 4.71118 3.78958 4.71118 3.78958C4.71118 3.78958 4.71119 3.78958 4.71119 3.78958C4.71119 3.78958 4.71119 3.78958 4.71119 3.78958C4.71119 3.78958 4.71119 3.78958 4.71119 3.78958C4.71119 3.78958 4.71119 3.78958 4.7112 3.78958C4.7112 3.78958 4.7112 3.78958 4.7112 3.78958C4.7112 3.78958 4.7112 3.78958 4.7112 3.78958C4.7112 3.78958 4.7112 3.78958 4.7112 3.78958C4.71121 3.78958 4.71121 3.78958 4.71121 3.78958C4.71121 3.78958 4.71121 3.78958 4.71121 3.78958C4.71121 3.78958 4.71121 3.78958 4.71121 3.78958C4.71121 3.78958 4.71122 3.78958 4.71122 3.78958C4.71122 3.78958 4.71122 3.78958 4.71122 3.78958C4.71122 3.78958 4.71122 3.78958 4.71122 3.78958C4.71122 3.78958 4.71122 3.78958 4.71123 3.78958C4.71123 3.78958 4.71123 3.78958 4.71123 3.78958C4.71123 3.78958 4.71123 3.78958 4.71123 3.78958C4.71123 3.78958 4.71123 3.78958 4.71123 3.78958C4.71124 3.78958 4.71124 3.78958 4.71124 3.78958C4.71124 3.78958 4.71124 3.78958 4.71124 3.78958V-0.21042ZM4.70973 -0.21042H4.36854V3.78958H4.70973V-0.21042ZM6.36854 1.78958V1.3159H2.36854V1.78958H6.36854ZM4.36854 3.3159H4.71064V-0.684102H4.36854V3.3159ZM4.71064 3.3159C3.67863 3.3159 2.84223 2.47949 2.84223 1.44748H6.84223C6.84223 0.270352 5.88777 -0.684102 4.71064 -0.684102V3.3159ZM2.84223 1.44748V1.658H6.84223V1.44748H2.84223ZM4.84223 -0.342002H4.84222V3.658H4.84223V-0.342002Z" fill="#B4B7BD" mask="url(#path-3-inside-2_4163_4264)"/>
<path d="M3.55273 1.94695C3.59634 1.94695 3.63168 1.91162 3.63168 1.86801C3.63168 1.82439 3.59633 1.78906 3.55273 1.78906H3.13168C3.08808 1.78906 3.05273 1.82439 3.05273 1.86801C3.05273 1.91162 3.08809 1.94695 3.13168 1.94695H3.55273Z" fill="#B4B7BD" stroke="#B4B7BD" stroke-width="2"/>
<mask id="path-6-inside-3_4163_4264" fill="white">
<path d="M4.87444 4.03597C4.71446 3.7628 4.41782 3.57895 4.07904 3.57895H3.44746C3.3749 3.57895 3.31588 3.51992 3.31588 3.44736V3.3421C3.31588 3.31384 3.31174 3.28583 3.30371 3.25898C3.37491 3.20619 3.42114 3.12155 3.42114 3.02631C3.42114 2.8667 3.29129 2.73684 3.13167 2.73684H3.0001V2.71052C3.0001 2.63717 2.95702 2.5737 2.89483 2.54408V0.289473C2.89483 0.129863 2.76498 0 2.60536 0C2.44574 0 2.31589 0.129863 2.31589 0.289473V1.15789H1.34221C1.18259 1.15789 1.05273 1.28775 1.05273 1.44736V1.65789C1.05273 1.79223 1.14473 1.90548 1.269 1.938L1.41 3.55947C1.41378 3.60293 1.45202 3.63525 1.4955 3.63128C1.53894 3.62751 1.57108 3.58923 1.5673 3.54579L1.42832 1.94737H2.31589V2.5441C2.2537 2.57372 2.21063 2.63719 2.21063 2.71054V2.73686H2.07904C1.91942 2.73686 1.78957 2.86672 1.78957 3.02633C1.78957 3.12157 1.8358 3.20621 1.907 3.259C1.89897 3.28584 1.89483 3.31385 1.89483 3.34212V4.07897C1.89483 4.58684 2.30802 5.00002 2.81589 5.00002H4.81589C4.91746 5.00002 5.0001 4.91737 5.0001 4.81581V4.5C5.0001 4.33379 4.95583 4.17772 4.8785 4.04295C4.87727 4.04055 4.87591 4.03822 4.87444 4.03597ZM2.47378 0.289473C2.47378 0.216914 2.5328 0.157891 2.60536 0.157891C2.67792 0.157891 2.73694 0.216914 2.73694 0.289473V2.52632H2.47379V0.289473H2.47378ZM1.34312 1.78947C1.34261 1.78948 1.34209 1.78948 1.3416 1.78947C1.26933 1.78915 1.21062 1.73025 1.21062 1.65789V1.44736C1.21062 1.3748 1.26965 1.31578 1.34221 1.31578H2.31589V1.78946H1.34312V1.78947ZM4.84221 4.81579C4.84221 4.8303 4.8304 4.84211 4.81589 4.84211H3.65799C3.23718 4.84211 2.89483 4.49977 2.89483 4.07896V3.55264C2.89483 3.50902 2.85948 3.47369 2.81589 3.47369C2.77229 3.47369 2.73694 3.50902 2.73694 3.55264V4.07896C2.73694 4.39163 2.89355 4.66842 3.13245 4.83499C2.76092 4.7839 2.47379 4.46432 2.47379 4.07896V3.55264C2.47379 3.50902 2.43844 3.47369 2.39484 3.47369C2.35124 3.47369 2.3159 3.50902 2.3159 3.55264V4.07896C2.3159 4.39163 2.47251 4.66842 2.71141 4.83501C2.33987 4.78392 2.05274 4.46434 2.05274 4.07898V3.34213C2.05274 3.33293 2.05371 3.32379 2.05559 3.31486C2.06332 3.3155 2.07116 3.31581 2.07906 3.31581H2.71064C2.75425 3.31581 2.78959 3.28048 2.78959 3.23687C2.78959 3.19325 2.75424 3.15792 2.71064 3.15792H2.07906C2.0065 3.15792 1.94748 3.0989 1.94748 3.02634C1.94748 2.95378 2.0065 2.89476 2.07906 2.89476H2.28959C2.33319 2.89476 2.36854 2.85942 2.36854 2.81581V2.71055C2.36854 2.69604 2.38034 2.68423 2.39485 2.68423H2.81591C2.83041 2.68423 2.84223 2.69603 2.84223 2.71055V2.81581C2.84223 2.85942 2.87758 2.89476 2.92117 2.89476H3.1317C3.20426 2.89476 3.26328 2.95378 3.26328 3.02634C3.26328 3.0989 3.20426 3.15792 3.1317 3.15792H3.02644C2.98283 3.15792 2.94749 3.19325 2.94749 3.23687C2.94749 3.28048 2.98284 3.31581 3.02644 3.31581H3.1317C3.13959 3.31581 3.14742 3.3155 3.15518 3.31486C3.15706 3.32379 3.15802 3.33293 3.15802 3.34213V3.44739C3.15802 3.607 3.28787 3.73687 3.44749 3.73687H4.07907C4.30879 3.73687 4.51514 3.83891 4.65517 4.00002H3.65799C3.52854 4.00002 3.40069 3.96704 3.28827 3.90466C3.25015 3.88352 3.20208 3.89725 3.18094 3.93538C3.15978 3.9735 3.17354 4.02155 3.21166 4.04271C3.34746 4.11807 3.5018 4.15789 3.65799 4.15789H4.76115C4.80175 4.23852 4.82848 4.3273 4.83815 4.42105H3.658C3.52855 4.42105 3.40072 4.38808 3.28831 4.32569C3.25018 4.30452 3.20213 4.31831 3.18098 4.35643C3.15981 4.39455 3.17357 4.44261 3.2117 4.46375C3.34748 4.5391 3.50181 4.57892 3.65799 4.57892H4.8422V4.81579H4.84221Z"/>
</mask>
<path d="M4.87444 4.03597C4.71446 3.7628 4.41782 3.57895 4.07904 3.57895H3.44746C3.3749 3.57895 3.31588 3.51992 3.31588 3.44736V3.3421C3.31588 3.31384 3.31174 3.28583 3.30371 3.25898C3.37491 3.20619 3.42114 3.12155 3.42114 3.02631C3.42114 2.8667 3.29129 2.73684 3.13167 2.73684H3.0001V2.71052C3.0001 2.63717 2.95702 2.5737 2.89483 2.54408V0.289473C2.89483 0.129863 2.76498 0 2.60536 0C2.44574 0 2.31589 0.129863 2.31589 0.289473V1.15789H1.34221C1.18259 1.15789 1.05273 1.28775 1.05273 1.44736V1.65789C1.05273 1.79223 1.14473 1.90548 1.269 1.938L1.41 3.55947C1.41378 3.60293 1.45202 3.63525 1.4955 3.63128C1.53894 3.62751 1.57108 3.58923 1.5673 3.54579L1.42832 1.94737H2.31589V2.5441C2.2537 2.57372 2.21063 2.63719 2.21063 2.71054V2.73686H2.07904C1.91942 2.73686 1.78957 2.86672 1.78957 3.02633C1.78957 3.12157 1.8358 3.20621 1.907 3.259C1.89897 3.28584 1.89483 3.31385 1.89483 3.34212V4.07897C1.89483 4.58684 2.30802 5.00002 2.81589 5.00002H4.81589C4.91746 5.00002 5.0001 4.91737 5.0001 4.81581V4.5C5.0001 4.33379 4.95583 4.17772 4.8785 4.04295C4.87727 4.04055 4.87591 4.03822 4.87444 4.03597ZM2.47378 0.289473C2.47378 0.216914 2.5328 0.157891 2.60536 0.157891C2.67792 0.157891 2.73694 0.216914 2.73694 0.289473V2.52632H2.47379V0.289473H2.47378ZM1.34312 1.78947C1.34261 1.78948 1.34209 1.78948 1.3416 1.78947C1.26933 1.78915 1.21062 1.73025 1.21062 1.65789V1.44736C1.21062 1.3748 1.26965 1.31578 1.34221 1.31578H2.31589V1.78946H1.34312V1.78947ZM4.84221 4.81579C4.84221 4.8303 4.8304 4.84211 4.81589 4.84211H3.65799C3.23718 4.84211 2.89483 4.49977 2.89483 4.07896V3.55264C2.89483 3.50902 2.85948 3.47369 2.81589 3.47369C2.77229 3.47369 2.73694 3.50902 2.73694 3.55264V4.07896C2.73694 4.39163 2.89355 4.66842 3.13245 4.83499C2.76092 4.7839 2.47379 4.46432 2.47379 4.07896V3.55264C2.47379 3.50902 2.43844 3.47369 2.39484 3.47369C2.35124 3.47369 2.3159 3.50902 2.3159 3.55264V4.07896C2.3159 4.39163 2.47251 4.66842 2.71141 4.83501C2.33987 4.78392 2.05274 4.46434 2.05274 4.07898V3.34213C2.05274 3.33293 2.05371 3.32379 2.05559 3.31486C2.06332 3.3155 2.07116 3.31581 2.07906 3.31581H2.71064C2.75425 3.31581 2.78959 3.28048 2.78959 3.23687C2.78959 3.19325 2.75424 3.15792 2.71064 3.15792H2.07906C2.0065 3.15792 1.94748 3.0989 1.94748 3.02634C1.94748 2.95378 2.0065 2.89476 2.07906 2.89476H2.28959C2.33319 2.89476 2.36854 2.85942 2.36854 2.81581V2.71055C2.36854 2.69604 2.38034 2.68423 2.39485 2.68423H2.81591C2.83041 2.68423 2.84223 2.69603 2.84223 2.71055V2.81581C2.84223 2.85942 2.87758 2.89476 2.92117 2.89476H3.1317C3.20426 2.89476 3.26328 2.95378 3.26328 3.02634C3.26328 3.0989 3.20426 3.15792 3.1317 3.15792H3.02644C2.98283 3.15792 2.94749 3.19325 2.94749 3.23687C2.94749 3.28048 2.98284 3.31581 3.02644 3.31581H3.1317C3.13959 3.31581 3.14742 3.3155 3.15518 3.31486C3.15706 3.32379 3.15802 3.33293 3.15802 3.34213V3.44739C3.15802 3.607 3.28787 3.73687 3.44749 3.73687H4.07907C4.30879 3.73687 4.51514 3.83891 4.65517 4.00002H3.65799C3.52854 4.00002 3.40069 3.96704 3.28827 3.90466C3.25015 3.88352 3.20208 3.89725 3.18094 3.93538C3.15978 3.9735 3.17354 4.02155 3.21166 4.04271C3.34746 4.11807 3.5018 4.15789 3.65799 4.15789H4.76115C4.80175 4.23852 4.82848 4.3273 4.83815 4.42105H3.658C3.52855 4.42105 3.40072 4.38808 3.28831 4.32569C3.25018 4.30452 3.20213 4.31831 3.18098 4.35643C3.15981 4.39455 3.17357 4.44261 3.2117 4.46375C3.34748 4.5391 3.50181 4.57892 3.65799 4.57892H4.8422V4.81579H4.84221Z" fill="#B4B7BD" stroke="#B4B7BD" stroke-width="4" mask="url(#path-6-inside-3_4163_4264)"/>
</svg>
