<svg width="5" height="5" viewBox="0 0 5 5" fill="none" xmlns="http://www.w3.org/2000/svg">
<path d="M3.02589 0.0231708L2.80477 0.354848C2.79935 0.362959 2.7906 0.369538 2.77979 0.373593L2.33755 0.539432C2.29634 0.55488 2.29634 0.598967 2.33755 0.614413L2.77979 0.780251C2.7906 0.784309 2.79935 0.790885 2.80477 0.798996L3.02589 1.13068C3.04649 1.16157 3.10528 1.16157 3.12587 1.13068L3.34699 0.798996C3.35238 0.790885 3.36116 0.784307 3.37197 0.780251L3.81421 0.614413C3.8554 0.598967 3.8554 0.55488 3.81421 0.539432L3.37197 0.373593C3.36116 0.369538 3.35238 0.362959 3.34699 0.354848L3.12587 0.0231708C3.10528 -0.0077237 3.04649 -0.00772349 3.02589 0.0231708Z" fill="#B4B7BD"/>
<path d="M4.19023 1.18378L4.02235 1.68746C4.01806 1.70033 4.00795 1.71044 3.99507 1.71473L3.49141 1.88262C3.45208 1.89573 3.45208 1.95134 3.49141 1.96444L3.99507 2.13233C4.00795 2.13663 4.01806 2.14673 4.02235 2.15961L4.19023 2.66328C4.20334 2.70259 4.25895 2.70259 4.27206 2.66328L4.43994 2.15961C4.44425 2.14673 4.45434 2.13663 4.46721 2.13233L4.9709 1.96444C5.0102 1.95134 5.0102 1.89573 4.9709 1.88262L4.46721 1.71473C4.45434 1.71044 4.44425 1.70033 4.43994 1.68746L4.27206 1.18378C4.25895 1.14447 4.20334 1.14447 4.19023 1.18378Z" fill="#B4B7BD"/>
<path fill-rule="evenodd" clip-rule="evenodd" d="M2.16095 2.85649C2.81039 3.50562 3.82497 3.56183 4.51693 3.01861C4.5255 3.01188 4.53402 3.00506 4.5425 2.99815C4.57452 2.97203 4.60581 2.94459 4.63629 2.91582C4.64867 2.90416 4.66091 2.89229 4.67302 2.88019C4.79065 2.76259 5.032 2.83207 4.99647 2.9945C4.9842 3.05064 4.97 3.10618 4.95397 3.161C4.94446 3.19351 4.93431 3.2258 4.92351 3.25782C4.92057 3.26655 4.91756 3.2753 4.91453 3.284C4.57059 4.26849 3.62671 5 2.52675 5C1.13127 5 0 3.86928 0 2.47447C0 1.35701 0.755926 0.404066 1.76158 0.0734377L1.77389 0.0694244C1.79595 0.0623002 1.81812 0.0554744 1.8404 0.0489516C1.89956 0.031638 1.95952 0.0164665 2.02017 0.00352429C2.1909 -0.0329053 2.26071 0.222265 2.13724 0.34565C2.125 0.357892 2.11298 0.370272 2.10118 0.382785C2.07782 0.407553 2.05532 0.432848 2.03369 0.458629C2.02895 0.464281 2.02425 0.469957 2.01959 0.475655C1.45395 1.16766 1.50332 2.19917 2.16095 2.85649ZM1.8361 3.18118C2.46354 3.80832 3.37032 3.99659 4.15471 3.73012C3.77361 4.21986 3.18141 4.54081 2.52675 4.54081C1.38499 4.54081 0.459409 3.61569 0.459409 2.47447C0.459409 1.80666 0.793981 1.20512 1.30026 0.825572C1.0143 1.61819 1.19846 2.54386 1.8361 3.18118Z" fill="#B4B7BD"/>
</svg>
