<svg width="5" height="5" viewBox="0 0 5 5" fill="none" xmlns="http://www.w3.org/2000/svg">
<path d="M4.48534 0.546904V1.28536C4.48534 1.34213 4.46279 1.39657 4.42264 1.43672C4.3825 1.47686 4.32806 1.49941 4.27129 1.49941H3.52213C3.4911 1.49976 3.46037 1.49336 3.43206 1.48066C3.40375 1.46795 3.37855 1.44924 3.35819 1.42583C3.33783 1.40241 3.3228 1.37485 3.31415 1.34505C3.3055 1.31526 3.30343 1.28393 3.30808 1.25326C3.31815 1.20133 3.3462 1.15462 3.38731 1.12134C3.42842 1.08806 3.47995 1.07035 3.53283 1.07132H3.77899C3.52967 0.793675 3.20509 0.594415 2.84468 0.49775C2.48427 0.401084 2.10354 0.411173 1.74876 0.52679C1.39397 0.642407 1.0804 0.858576 0.84614 1.14903C0.611883 1.43949 0.467024 1.79173 0.429165 2.16295C0.423841 2.21593 0.39896 2.26503 0.359381 2.30065C0.319802 2.33627 0.268367 2.35586 0.215119 2.35559C0.185115 2.35574 0.155414 2.34958 0.127944 2.33751C0.100474 2.32544 0.0758482 2.30773 0.0556648 2.28553C0.0354814 2.26333 0.0201913 2.23713 0.0107865 2.20864C0.00138171 2.18015 -0.00192764 2.15 0.00107321 2.12014C0.0460269 1.67077 0.219272 1.2438 0.500151 0.890149C0.781031 0.536501 1.15769 0.271094 1.58523 0.125575C2.01276 -0.019944 2.47312 -0.0394354 2.91143 0.069425C3.34973 0.178285 3.74748 0.410904 4.05724 0.739545V0.536201C4.05689 0.505175 4.06329 0.474442 4.076 0.446134C4.0887 0.417825 4.10741 0.392618 4.13082 0.372257C4.15424 0.351897 4.1818 0.33687 4.2116 0.328219C4.2414 0.319568 4.27272 0.317499 4.3034 0.322155C4.35532 0.332221 4.40203 0.360276 4.43531 0.401385C4.46859 0.442494 4.4863 0.494022 4.48534 0.546904Z" fill="#B4B7BD"/>
<path d="M0.204139 4.16416V3.4257C0.204139 3.36893 0.22669 3.31449 0.266832 3.27435C0.306973 3.23421 0.361417 3.21166 0.418185 3.21166H1.16735C1.19837 3.2113 1.22911 3.2177 1.25741 3.23041C1.28572 3.24311 1.31093 3.26182 1.33129 3.28524C1.35165 3.30865 1.36668 3.33621 1.37533 3.36601C1.38398 3.39581 1.38605 3.42713 1.38139 3.45781C1.37133 3.50973 1.34327 3.55644 1.30216 3.58972C1.26105 3.623 1.20953 3.64071 1.15664 3.63975H0.910491C1.1598 3.91739 1.48438 4.11665 1.84479 4.21331C2.20521 4.30998 2.58593 4.29989 2.94072 4.18427C3.29551 4.06866 3.60908 3.85249 3.84334 3.56203C4.07759 3.27158 4.22245 2.91934 4.26031 2.54811C4.26564 2.49513 4.29052 2.44604 4.3301 2.41042C4.36967 2.37479 4.42111 2.3552 4.47436 2.35547C4.50436 2.35532 4.53406 2.36148 4.56153 2.37355C4.589 2.38562 4.61363 2.40333 4.63381 2.42553C4.654 2.44773 4.66929 2.47393 4.67869 2.50242C4.68809 2.53092 4.6914 2.56107 4.6884 2.59092C4.64345 3.0403 4.4702 3.46727 4.18933 3.82091C3.90845 4.17456 3.53178 4.43997 3.10425 4.58549C2.67672 4.73101 2.21635 4.7505 1.77805 4.64164C1.33975 4.53278 0.941998 4.30016 0.632231 3.97152V4.17486C0.632583 4.20589 0.626184 4.23662 0.613479 4.26493C0.600774 4.29324 0.582066 4.31845 0.558651 4.33881C0.535237 4.35917 0.507676 4.37419 0.477877 4.38284C0.448079 4.3915 0.416756 4.39356 0.386078 4.38891C0.334154 4.37884 0.287444 4.35079 0.254165 4.30968C0.220887 4.26857 0.203173 4.21704 0.204139 4.16416Z" fill="#B4B7BD"/>
<path d="M2.41923 2.1421C2.04465 2.06718 2.04465 2.00297 2.04465 1.94946C2.04465 1.89594 2.06605 1.88524 2.09816 1.85313C2.1572 1.82139 2.22387 1.80658 2.2908 1.81033C2.41516 1.80925 2.53739 1.84258 2.64398 1.90665C2.66564 1.92433 2.6909 1.93708 2.71799 1.94401C2.74508 1.95095 2.77336 1.95191 2.80085 1.94681C2.82835 1.94172 2.85441 1.93071 2.87722 1.91453C2.90003 1.89835 2.91904 1.8774 2.93294 1.85313C2.95128 1.83125 2.96481 1.80575 2.97265 1.77828C2.98048 1.75082 2.98244 1.72202 2.9784 1.69375C2.97436 1.66548 2.96442 1.63838 2.94921 1.61421C2.934 1.59004 2.91387 1.56934 2.89013 1.55347C2.78836 1.49065 2.6759 1.44712 2.55836 1.42504V1.17889C2.55836 1.12212 2.53581 1.06768 2.49567 1.02754C2.45552 0.987395 2.40108 0.964844 2.34431 0.964844C2.28754 0.964844 2.2331 0.987395 2.19296 1.02754C2.15282 1.06768 2.13027 1.12212 2.13027 1.17889V1.41434C1.8092 1.46785 1.59515 1.6819 1.59515 1.97086C1.59515 2.25982 1.94833 2.49527 2.2908 2.55949C2.63328 2.6237 2.64398 2.69862 2.64398 2.75213C2.64398 2.80564 2.52625 2.90196 2.37642 2.90196C2.21884 2.90507 2.06462 2.85617 1.93763 2.76283C1.91384 2.74702 1.88714 2.73612 1.85908 2.73079C1.83102 2.72546 1.80218 2.72579 1.77426 2.73177C1.74633 2.73776 1.71989 2.74927 1.69648 2.76563C1.67307 2.78199 1.65318 2.80287 1.63796 2.82704C1.62109 2.84712 1.60849 2.87042 1.60093 2.89554C1.59338 2.92065 1.59104 2.94704 1.59404 2.97309C1.59705 2.99915 1.60534 3.02431 1.61842 3.04704C1.63149 3.06978 1.64906 3.0896 1.67007 3.1053C1.80778 3.20195 1.96477 3.26767 2.13027 3.29795V3.5334C2.13027 3.59016 2.15282 3.64461 2.19296 3.68475C2.2331 3.72489 2.28754 3.74744 2.34431 3.74744C2.40108 3.74744 2.45552 3.72489 2.49567 3.68475C2.53581 3.64461 2.55836 3.59016 2.55836 3.5334V3.29795C2.67576 3.28063 2.78651 3.23264 2.87943 3.15882C2.94652 3.10956 3.00092 3.04505 3.03814 2.97061C3.07536 2.89617 3.09433 2.81394 3.09347 2.73072C3.09347 2.33474 2.7296 2.20631 2.41923 2.1421Z" fill="#B4B7BD"/>
</svg>
