<svg width="14" height="14" viewBox="0 0 14 14" fill="none" xmlns="http://www.w3.org/2000/svg">
<path d="M10.2316 3.08631C10.3442 3.09769 10.4405 3.12175 10.5179 3.14144C10.5543 3.15063 10.6019 3.16266 10.6284 3.16616C10.7264 3.09091 10.8391 2.95222 10.8358 2.8365C10.7314 2.79625 10.558 2.72122 10.4263 2.51975C10.2959 2.31456 10.2732 2.11966 10.2565 1.97747C10.2469 1.89609 10.2395 1.83178 10.2152 1.76769C10.1795 1.6745 10.1769 1.57169 10.2078 1.47697C10.227 1.41747 10.2502 1.36628 10.2732 1.31641L9.40625 1.58984V2.85925C9.46619 2.87981 9.52612 2.90038 9.57994 2.91941C9.80284 2.99925 9.97916 3.06203 10.2316 3.08631Z" fill="#45AAB8"/>
<path d="M0.4375 2.4065V3.75312C0.568312 3.75225 0.697375 3.74525 0.857937 3.7365L1.03447 3.72687C1.12744 3.72184 1.21975 3.69012 1.3265 3.65359C1.47109 3.60372 1.63538 3.54772 1.83269 3.54772C1.99128 3.54772 2.14703 3.58556 2.29162 3.65797C2.56397 3.79075 2.702 3.999 2.81291 4.16591C2.87284 4.25625 2.92469 4.33434 2.99031 4.38925C3.14541 4.51941 3.27731 4.566 3.46019 4.63031C3.64087 4.69419 3.84584 4.76637 4.08253 4.92519C4.27809 5.05666 4.44041 5.17653 4.59397 5.30516V0.570312L0.723844 1.99612C0.552344 2.05912 0.4375 2.22406 0.4375 2.4065Z" fill="#45AAB8"/>
<path d="M4.39469 9.42645C4.382 9.42558 4.36975 9.42448 4.3575 9.42383C4.35706 9.43761 4.35662 9.45161 4.35619 9.46342C4.35137 9.61458 4.34416 9.84295 4.18797 10.0466C4.00859 10.285 3.76163 10.411 3.47375 10.411C3.31669 10.411 3.16859 10.3745 3.03822 10.3424L2.95881 10.3231C2.69062 10.2621 2.52503 10.1033 2.40384 9.98755C2.34631 9.93242 2.29184 9.88036 2.25969 9.87248C2.17984 9.85323 2.1105 9.83661 2.07134 9.83661C2.06194 9.83661 2.04466 9.83661 2.00572 9.85236C1.90728 9.89261 1.85084 10.0285 1.74541 10.3292C1.71238 10.4242 1.67759 10.5226 1.63844 10.6208C1.603 10.7105 1.59513 10.8262 1.58703 10.949C1.57063 11.1918 1.54831 11.5247 1.27356 11.7861C1.07756 11.9729 0.855313 12.0639 0.594781 12.0639C0.54075 12.0639 0.489125 12.0582 0.4375 12.0519V13.1249C0.4375 13.2638 0.504438 13.3957 0.616438 13.4777C0.691906 13.533 0.781375 13.5624 0.875 13.5624C0.919625 13.5624 0.964031 13.5556 1.00691 13.542L4.59375 12.4093V9.44833C4.56947 9.43936 4.54519 9.43455 4.51937 9.43345C4.47606 9.43214 4.4345 9.4293 4.39469 9.42645Z" fill="#45AAB8"/>
<path d="M5.1695 0.460031C5.12487 0.444937 5.0785 0.4375 5.03125 0.4375V5.71966C5.11503 5.80759 5.20166 5.90253 5.29659 6.01038C5.41012 6.13966 5.48603 6.26894 5.54728 6.37284C5.62034 6.49687 5.66125 6.56381 5.72447 6.60472C5.73322 6.61019 5.73737 6.6115 5.74153 6.61172C5.775 6.61172 5.84084 6.59225 5.9045 6.57322C6.02 6.53888 6.16437 6.49578 6.33347 6.49578C6.45837 6.49578 6.58022 6.51962 6.69856 6.56797L6.77447 6.59925C7.11769 6.73991 7.54469 6.91491 7.72909 7.51975C7.84438 7.89162 7.84394 8.20509 7.72888 8.56472C7.64422 8.83444 7.47031 8.97159 7.36641 9.05341C7.34212 9.07288 7.30844 9.09912 7.30188 9.10788L7.29816 9.11925C7.29291 9.13762 7.30362 9.19494 7.31347 9.24525C7.34037 9.38416 7.38106 9.59416 7.28284 9.8385C7.11572 10.2445 6.78781 10.4506 6.30809 10.4506C6.258 10.4506 6.20725 10.4486 6.15738 10.4455C5.84828 10.4274 5.65163 10.2734 5.50813 10.1607C5.45541 10.1194 5.40531 10.0802 5.35281 10.0492C5.22681 9.97478 5.12356 9.89209 5.03125 9.8105V12.2708L5.16316 12.3123L8.96875 13.5146V5.07806C8.92872 5.07894 8.88956 5.07959 8.848 5.08113C8.76641 5.08397 8.68153 5.08681 8.59053 5.08681C8.54044 5.08681 8.48837 5.08594 8.43391 5.08353C8.41422 5.08288 8.39475 5.08244 8.37594 5.08244C8.27488 5.08244 8.18169 5.09316 8.08303 5.10431C7.97628 5.11656 7.86581 5.12903 7.74134 5.12903C7.58822 5.12903 7.44144 5.10912 7.29247 5.068C7.24325 5.05444 7.19097 5.04459 7.13562 5.03431C6.91337 4.99253 6.57781 4.92953 6.33806 4.53534C6.05588 4.06087 6.05303 3.47703 6.33216 2.97106C6.60931 2.47516 7.04156 2.44891 7.32769 2.43163C7.39594 2.42747 7.46003 2.42353 7.52413 2.41434C7.60616 2.40297 7.68819 2.3975 7.76781 2.3975C8.12197 2.3975 8.38994 2.50513 8.6485 2.60925C8.75394 2.65147 8.85806 2.69019 8.96831 2.72519V1.72638L8.83706 1.68284L5.1695 0.460031Z" fill="#45AAB8"/>
<path d="M13.3394 6.76842L13.3166 6.76383C12.9889 6.6982 12.7315 6.59495 12.465 6.28498C12.2727 6.06514 12.2314 5.80745 12.201 5.61955C12.1905 5.5537 12.1747 5.45527 12.1577 5.4242C12.1257 5.42683 12.0643 5.44389 12.0098 5.45877C11.8985 5.48961 11.76 5.52789 11.5997 5.5338C11.4651 5.5397 11.3417 5.57295 11.2114 5.60817C11.0521 5.65105 10.8717 5.69961 10.6627 5.69961C10.5129 5.69961 10.3687 5.67533 10.2207 5.6248C9.98987 5.54583 9.83916 5.41852 9.71797 5.31636C9.63506 5.24636 9.57512 5.19583 9.49769 5.16367C9.46575 5.15011 9.436 5.14048 9.40625 5.13086V13.5145L13.2632 12.2289C13.4424 12.1691 13.5627 12.0022 13.5627 11.8137V6.80342C13.4864 6.79423 13.412 6.78198 13.3394 6.76842Z" fill="#45AAB8"/>
<path d="M13.6421 0.169094C13.4903 0.05775 13.3083 0.00021875 13.1246 0.00021875C13.0364 0.00021875 12.9476 0.0135625 12.8616 0.0406875L8.97597 1.26766L5.30775 0.0448437C5.21806 0.014875 5.12466 0 5.03103 0C4.92866 0 4.82606 0.0179375 4.72872 0.0540312L0.572469 1.58528C0.228594 1.71194 0 2.03962 0 2.40625V13.125C0 13.4037 0.132781 13.666 0.357875 13.8309C0.509687 13.942 0.69125 14 0.875 14C0.963375 14 1.05241 13.9864 1.13838 13.9593L5.03125 12.7299L8.92413 13.9593C9.00988 13.9864 9.09847 14 9.18728 14C9.28091 14 9.37431 13.9851 9.46422 13.9552L13.4017 12.6427C13.7589 12.5234 14 12.1892 14 11.8125V0.875C14 0.596312 13.8672 0.334031 13.6421 0.169094ZM4.59375 12.4095L1.00691 13.5422C0.964031 13.5557 0.919625 13.5625 0.875 13.5625C0.781375 13.5625 0.691906 13.5332 0.616437 13.4778C0.504438 13.3958 0.4375 13.2639 0.4375 13.125V12.0522C0.488906 12.0584 0.54075 12.0643 0.594781 12.0643C0.855313 12.0643 1.07756 11.9733 1.27356 11.7863C1.54831 11.5248 1.57041 11.1919 1.58703 10.9491C1.59513 10.8264 1.603 10.7107 1.63844 10.621C1.67781 10.5227 1.71238 10.4243 1.74541 10.3294C1.85084 10.0286 1.90728 9.89275 2.00572 9.8525C2.04466 9.83675 2.06194 9.83675 2.07134 9.83675C2.11072 9.83675 2.17984 9.85338 2.25969 9.87263C2.29184 9.8805 2.34631 9.93256 2.40384 9.98769C2.52503 10.1034 2.69084 10.2622 2.95881 10.3232L3.03822 10.3425C3.16881 10.3747 3.31669 10.4112 3.47375 10.4112C3.76141 10.4112 4.00838 10.2852 4.18797 10.0468C4.34416 9.84309 4.35116 9.61472 4.35619 9.46356C4.35663 9.45175 4.35706 9.43797 4.3575 9.42397C4.36975 9.42463 4.382 9.42572 4.39469 9.42659C4.43472 9.42966 4.47606 9.43228 4.51937 9.43359C4.54519 9.43469 4.56947 9.4395 4.59375 9.44847V12.4095ZM4.59375 9.00572C4.57297 9.00287 4.55437 8.99719 4.5325 8.99631C4.45112 8.99391 4.37719 8.98428 4.30828 8.98428C4.20219 8.98428 4.10681 9.00659 4.01144 9.11028C3.84672 9.28769 3.98847 9.58847 3.83862 9.78359C3.72969 9.92841 3.60741 9.97347 3.47419 9.97347C3.34469 9.97347 3.20491 9.93125 3.05638 9.89625C2.758 9.82822 2.65934 9.51891 2.36228 9.44672C2.25094 9.42003 2.16191 9.39859 2.07156 9.39859C1.99959 9.39859 1.92697 9.41216 1.841 9.44672C1.47175 9.597 1.41028 10.0131 1.23156 10.4595C1.08544 10.8292 1.23047 11.2227 0.971687 11.4693C0.845906 11.5894 0.725375 11.6263 0.595 11.6263C0.544469 11.6263 0.491969 11.6207 0.437719 11.6123V4.19016C0.629125 4.18863 0.814406 4.17572 1.05875 4.16325C1.36391 4.14641 1.58266 3.98475 1.83291 3.98475C1.91691 3.98475 2.00441 4.00291 2.1 4.05081C2.39247 4.19344 2.44694 4.50428 2.70922 4.72391C3.10516 5.05597 3.4195 5.00653 3.83862 5.28763C4.151 5.49741 4.36756 5.67219 4.59397 5.89706L4.59375 9.00572ZM4.59375 5.30469C4.44019 5.17606 4.27787 5.05597 4.08231 4.92472C3.84563 4.76591 3.64066 4.69372 3.45997 4.62984C3.27709 4.56553 3.14519 4.51894 2.99009 4.38878C2.92447 4.33388 2.87284 4.256 2.81269 4.16544C2.70178 3.99831 2.56375 3.79028 2.29141 3.6575C2.14681 3.58509 1.99106 3.54725 1.83247 3.54725C1.63516 3.54725 1.47088 3.60347 1.32628 3.65313C1.21953 3.68966 1.12722 3.72137 1.03425 3.72641L0.857937 3.73625C0.697375 3.745 0.568313 3.752 0.4375 3.75288V2.40625C0.4375 2.22381 0.552344 2.05887 0.723844 1.99587L4.59375 0.570063V5.30469ZM5.03125 6.37897C5.19466 6.59969 5.25875 6.82456 5.48647 6.972C5.57484 7.02931 5.65906 7.04944 5.74131 7.04944C5.93841 7.04944 6.125 6.93372 6.33325 6.93372C6.39647 6.93372 6.46187 6.94444 6.52991 6.97222C6.87925 7.11791 7.17631 7.20803 7.31084 7.64991C7.399 7.93428 7.40141 8.15216 7.31084 8.43456C7.22159 8.72003 6.96019 8.70494 6.87794 8.99653C6.80466 9.24591 6.972 9.43819 6.87794 9.67269C6.762 9.95487 6.54784 10.0137 6.30788 10.0137C6.26675 10.0137 6.22497 10.012 6.18275 10.0093C5.92506 9.99425 5.80912 9.81094 5.57463 9.67269C5.35128 9.541 5.19706 9.36075 5.03125 9.21878V6.37897ZM8.96875 4.64056C8.84997 4.64297 8.72791 4.64931 8.59053 4.64931C8.54591 4.64931 8.49997 4.64844 8.45184 4.64647C8.42603 4.64537 8.40088 4.64494 8.37594 4.64494C8.13378 4.64494 7.9485 4.69153 7.74134 4.69153C7.63919 4.69153 7.532 4.68016 7.4095 4.64647C7.12731 4.56816 6.89303 4.60534 6.71409 4.31134C6.5065 3.96244 6.517 3.54178 6.71409 3.18434C6.92059 2.81466 7.23187 2.89866 7.58362 2.84769C7.64838 2.83894 7.70941 2.83478 7.76803 2.83478C8.20487 2.83478 8.49297 3.05944 8.96853 3.18303L8.96875 4.64056ZM8.96875 2.72497C8.8585 2.68997 8.75459 2.65125 8.64894 2.60903C8.39016 2.50491 8.12241 2.39728 7.76825 2.39728C7.68863 2.39728 7.60659 2.40275 7.52456 2.41412C7.46047 2.42331 7.39616 2.42747 7.32812 2.43141C7.042 2.44869 6.60975 2.47494 6.33259 2.97084C6.05369 3.47681 6.05631 4.06066 6.3385 4.53513C6.57825 4.92953 6.91381 4.99231 7.13606 5.03409C7.19141 5.04437 7.24369 5.05422 7.29291 5.06778C7.44187 5.10891 7.58866 5.12881 7.74178 5.12881C7.86625 5.12881 7.97672 5.11613 8.08347 5.10409C8.18213 5.09294 8.27531 5.08222 8.37638 5.08222C8.39519 5.08222 8.41466 5.08266 8.43434 5.08331C8.48881 5.08572 8.54066 5.08659 8.59097 5.08659C8.68197 5.08659 8.76684 5.08353 8.84844 5.08091C8.88978 5.07937 8.92916 5.07872 8.96919 5.07784V13.5144L5.16359 12.3126L5.03125 12.2712V9.81094C5.12356 9.89253 5.22681 9.97522 5.35281 10.0496C5.40531 10.0807 5.45541 10.1196 5.50813 10.1612C5.65163 10.2738 5.84828 10.4278 6.15738 10.446C6.20747 10.4492 6.25822 10.451 6.30809 10.451C6.78781 10.451 7.11572 10.2452 7.28284 9.83894C7.38084 9.59459 7.34037 9.38459 7.31347 9.24569C7.30362 9.19537 7.29269 9.13806 7.29816 9.11969L7.30188 9.10831C7.30844 9.09956 7.34212 9.07331 7.36641 9.05384C7.47053 8.97203 7.64444 8.83488 7.72888 8.56516C7.84394 8.20531 7.84438 7.89206 7.72909 7.52019C7.54469 6.91534 7.11769 6.74034 6.77447 6.59969L6.69856 6.56841C6.58022 6.52006 6.45837 6.49622 6.33347 6.49622C6.16437 6.49622 6.02 6.53909 5.9045 6.57366C5.84084 6.59269 5.775 6.61216 5.74153 6.61216C5.73716 6.61194 5.73322 6.61062 5.72447 6.60516C5.66147 6.56425 5.62034 6.49753 5.54728 6.37328C5.48625 6.26916 5.41012 6.14009 5.29659 6.01081C5.20166 5.90297 5.11503 5.80803 5.03125 5.72009V0.4375C5.0785 0.4375 5.12488 0.444937 5.1695 0.460031L8.8375 1.68262L8.96875 1.72638V2.72497ZM9.40625 1.59053L10.2729 1.31687C10.2502 1.36697 10.2268 1.41794 10.2075 1.47744C10.1767 1.57238 10.1793 1.67497 10.215 1.76816C10.2392 1.83225 10.2469 1.89656 10.2563 1.97794C10.2729 2.12013 10.2959 2.31525 10.4261 2.52022C10.558 2.72169 10.7314 2.79694 10.8356 2.83697C10.8388 2.95269 10.7262 3.09137 10.6282 3.16663C10.6017 3.16291 10.554 3.15109 10.5177 3.14191C10.4403 3.12222 10.344 3.09816 10.2314 3.08678C9.97894 3.0625 9.80262 2.99972 9.57972 2.91987C9.52591 2.90062 9.46597 2.88006 9.40603 2.85972L9.40625 1.59053ZM13.5625 11.8125C13.5625 12.0011 13.4422 12.168 13.2633 12.2275L9.40625 13.5131V5.12947C9.436 5.13909 9.46553 5.14894 9.49769 5.16228C9.57512 5.19444 9.63506 5.24497 9.71797 5.31497C9.83916 5.41713 9.98987 5.54444 10.2207 5.62341C10.3687 5.67372 10.5129 5.69822 10.6628 5.69822C10.8717 5.69822 11.0521 5.64966 11.2114 5.60678C11.342 5.57156 11.4651 5.53853 11.5997 5.53241C11.76 5.52672 11.8985 5.48822 12.0098 5.45738C12.0643 5.4425 12.1255 5.42544 12.1577 5.42281C12.1747 5.45388 12.1905 5.55231 12.201 5.61816C12.2314 5.80606 12.2727 6.06375 12.465 6.28359C12.7315 6.59356 12.9889 6.69703 13.3166 6.76244L13.3394 6.76703C13.4118 6.78059 13.4864 6.79284 13.5627 6.80203L13.5625 11.8125ZM13.5625 6.36256C13.5113 6.35469 13.4582 6.34441 13.4024 6.33369C13.1471 6.28272 12.987 6.21972 12.7942 5.9955C12.5667 5.73563 12.6991 5.31519 12.4484 5.09556C12.3517 5.01288 12.259 4.98531 12.1653 4.98531C11.9851 4.98509 11.8018 5.08769 11.5802 5.09556C11.2157 5.11175 10.9651 5.26094 10.6628 5.26094C10.5693 5.26094 10.4709 5.24694 10.3626 5.20997C10.0691 5.10934 9.95662 4.87944 9.66744 4.75913C9.57425 4.71975 9.48916 4.69547 9.40647 4.67731V3.32281C9.65278 3.41053 9.87241 3.49191 10.1885 3.52231C10.3615 3.53959 10.5013 3.60544 10.6413 3.60544C10.7201 3.60544 10.799 3.58444 10.8837 3.52231C11.146 3.32675 11.3713 2.97063 11.2319 2.62369C11.1414 2.39509 10.9233 2.48106 10.7955 2.28572C10.6586 2.07047 10.7236 1.87381 10.6238 1.61241C10.6859 1.42078 10.7918 1.28603 10.8504 1.13444L12.9929 0.457844C13.0355 0.444281 13.0799 0.4375 13.1248 0.4375C13.2178 0.4375 13.3096 0.467469 13.3838 0.521937C13.4956 0.604187 13.5625 0.736094 13.5625 0.875V6.36256Z" fill="#394240"/>
<path d="M12.0982 8.60205C11.9498 8.55655 11.8098 8.51367 11.6585 8.51367C11.5158 8.51367 11.387 8.55239 11.2638 8.63245C11.1256 8.72367 11.0858 8.83633 11.0766 8.91442C11.0523 9.12552 11.2087 9.29133 11.3743 9.46677C11.485 9.58402 11.6521 9.7612 11.6197 9.84542C11.5987 9.90142 11.5353 9.93205 11.4056 9.98389C11.2444 10.0486 11.0002 10.146 10.9475 10.4369C10.9178 10.5984 10.9545 10.7467 11.0536 10.8657C11.193 11.0326 11.4454 11.1245 11.7652 11.1245C12.0912 11.1245 12.4116 11.0304 12.6245 10.8716C12.9861 10.5942 13.1247 10.1891 13.0366 9.6678C12.9487 9.13602 12.6288 8.76895 12.0982 8.60205ZM12.3604 10.5229C12.227 10.6226 11.9932 10.6872 11.7652 10.6872C11.5642 10.6872 11.4321 10.6364 11.3896 10.5857C11.3822 10.5767 11.3693 10.5614 11.3776 10.5157C11.3857 10.4721 11.4194 10.4498 11.5679 10.3905C11.7243 10.328 11.9385 10.2422 12.0288 10.0007C12.1585 9.66102 11.889 9.37555 11.6922 9.16686C11.6401 9.11173 11.5675 9.03473 11.5314 8.98245C11.6462 8.92186 11.7772 8.96145 11.9807 9.02402C12.3399 9.13711 12.544 9.37095 12.605 9.7402C12.6667 10.1044 12.5906 10.3464 12.3604 10.5229Z" fill="#394240"/>
<path d="M13.3836 0.521938C13.3094 0.467469 13.2175 0.4375 13.1246 0.4375C13.0799 0.4375 13.0355 0.444281 12.9927 0.457844L10.8502 1.13444C10.7914 1.28581 10.6857 1.42078 10.6236 1.61241C10.7233 1.87381 10.6584 2.07047 10.7953 2.28572C10.9231 2.48106 11.1412 2.39509 11.2317 2.62369C11.3711 2.97062 11.1457 3.32697 10.8835 3.52231C10.7986 3.58444 10.7198 3.60544 10.6411 3.60544C10.5009 3.60544 10.3613 3.53959 10.1883 3.52231C9.87219 3.49191 9.65256 3.41053 9.40625 3.32259V4.67687C9.48894 4.69503 9.57425 4.71931 9.66722 4.75869C9.95619 4.879 10.0688 5.10891 10.3624 5.20953C10.4707 5.2465 10.5691 5.2605 10.6625 5.2605C10.9651 5.2605 11.2155 5.11131 11.58 5.09512C11.8016 5.08725 11.9849 4.98466 12.1651 4.98487C12.2587 4.98487 12.3515 5.01244 12.4482 5.09512C12.6989 5.31475 12.5665 5.73519 12.794 5.99506C12.9867 6.21906 13.1469 6.28206 13.4022 6.33325C13.4582 6.34397 13.5111 6.35425 13.5623 6.36212V0.874781C13.5625 0.735875 13.4956 0.603969 13.3836 0.521938Z" fill="#F9EBB2"/>
<path d="M7.58381 2.84689C7.23228 2.89786 6.921 2.81386 6.71428 3.18355C6.51719 3.5412 6.50669 3.96186 6.71428 4.31055C6.893 4.60477 7.1275 4.56736 7.40969 4.64567C7.53219 4.67936 7.63938 4.69073 7.74153 4.69073C7.94869 4.69073 8.13397 4.64414 8.37613 4.64414C8.40085 4.64414 8.42622 4.64458 8.45203 4.64567C8.50016 4.64764 8.5461 4.64852 8.59072 4.64852C8.7281 4.64852 8.85016 4.64217 8.96894 4.63977V3.18223C8.49338 3.05886 8.20528 2.83398 7.76844 2.83398C7.7096 2.83398 7.64856 2.83814 7.58381 2.84689Z" fill="#F9EBB2"/>
<path d="M6.53012 6.97194C6.46187 6.94416 6.39669 6.93344 6.33347 6.93344C6.12522 6.93344 5.93862 7.04916 5.74153 7.04916C5.65928 7.04916 5.57506 7.02903 5.48669 6.97172C5.25875 6.8245 5.19466 6.59962 5.03125 6.37891V9.21828C5.19728 9.36025 5.35128 9.54072 5.57462 9.67219C5.80912 9.81044 5.92528 9.99375 6.18275 10.0088C6.22497 10.0115 6.26697 10.0132 6.30788 10.0132C6.54806 10.0132 6.762 9.95438 6.87794 9.67219C6.972 9.43769 6.80466 9.24541 6.87794 8.99603C6.96019 8.70444 7.22138 8.71931 7.31084 8.43406C7.40141 8.15166 7.399 7.93378 7.31084 7.64941C7.17653 7.20775 6.87925 7.11763 6.53012 6.97194Z" fill="#F9EBB2"/>
<path d="M2.709 4.72353C2.44672 4.50391 2.39225 4.19306 2.09978 4.05044C2.00419 4.00253 1.91669 3.98438 1.83269 3.98438C1.58222 3.98438 1.36347 4.14603 1.05853 4.16288C0.814188 4.17534 0.628906 4.18825 0.4375 4.18978V11.612C0.49175 11.6203 0.544031 11.626 0.594781 11.626C0.725156 11.626 0.845469 11.589 0.971469 11.4689C1.23047 11.2224 1.08544 10.8288 1.23134 10.4592C1.41006 10.0127 1.47175 9.59663 1.84078 9.44634C1.92675 9.41178 1.99938 9.39822 2.07134 9.39822C2.16169 9.39822 2.25072 9.41966 2.36206 9.44634C2.65891 9.51853 2.75778 9.82784 3.05616 9.89588C3.20469 9.93066 3.34447 9.97309 3.47397 9.97309C3.60719 9.97309 3.72947 9.92803 3.83841 9.78322C3.98825 9.58788 3.8465 9.28709 4.01122 9.10991C4.10681 9.006 4.20197 8.98391 4.30806 8.98391C4.37697 8.98391 4.45091 8.99353 4.53228 8.99594C4.55438 8.99681 4.57297 9.0025 4.59353 9.00534V5.89691C4.36713 5.67203 4.15056 5.49725 3.83819 5.28747C3.41928 5.00616 3.10472 5.05538 2.709 4.72353Z" fill="#F9EBB2"/>
<path d="M11.9808 9.02295C11.7773 8.96038 11.6465 8.92057 11.5315 8.98138C11.5676 9.03345 11.6402 9.11067 11.6923 9.16579C11.8891 9.37448 12.1586 9.66017 12.0289 9.99967C11.9386 10.2412 11.7242 10.3269 11.568 10.3895C11.4195 10.4488 11.3858 10.4711 11.3777 10.5146C11.3694 10.5603 11.3823 10.5756 11.3897 10.5846C11.4319 10.6351 11.5643 10.6861 11.7653 10.6861C11.9933 10.6861 12.2269 10.6216 12.3605 10.5218C12.5907 10.3453 12.6668 10.1036 12.6051 9.73913C12.5441 9.36988 12.3398 9.13604 11.9808 9.02295Z" fill="#F9EBB2"/>
<path opacity="0.2" d="M8.96875 13.5146L5.03125 12.25V0.4375L8.96875 1.75V13.5146Z" fill="#231F20"/>
</svg>
