<svg width="14" height="14" viewBox="0 0 14 14" fill="none" xmlns="http://www.w3.org/2000/svg">
<path fill-rule="evenodd" clip-rule="evenodd" d="M1.30768 7.63636H0V6.36364H1.30768C1.60114 3.70897 3.70897 1.60114 6.36364 1.30768V0H7.63636V1.30768C10.291 1.60114 12.3989 3.70897 12.6923 6.36364H14V7.63636H12.6923C12.3989 10.291 10.291 12.3989 7.63636 12.6923V14H6.36364V12.6923C3.70897 12.3989 1.60114 10.291 1.30768 7.63636ZM7 2.54545C4.53982 2.54545 2.54545 4.53982 2.54545 7C2.54545 9.46018 4.53982 11.4545 7 11.4545C9.46018 11.4545 11.4545 9.46018 11.4545 7C11.4545 4.53982 9.46018 2.54545 7 2.54545ZM7 4.45455C8.40582 4.45455 9.54545 5.59418 9.54545 7C9.54545 8.40582 8.40582 9.54545 7 9.54545C5.59418 9.54545 4.45455 8.40582 4.45455 7C4.45455 5.59418 5.59418 4.45455 7 4.45455ZM7 5.72727C6.29709 5.72727 5.72727 6.29709 5.72727 7C5.72727 7.70291 6.29709 8.27273 7 8.27273C7.70291 8.27273 8.27273 7.70291 8.27273 7C8.27273 6.29709 7.70291 5.72727 7 5.72727Z" fill="#1C274C"/>
</svg>
