<svg width="16" height="16" viewBox="0 0 16 16" fill="none" xmlns="http://www.w3.org/2000/svg">
<path fill-rule="evenodd" clip-rule="evenodd" d="M12.9377 12.9377C13.175 12.7004 13.5597 12.7004 13.797 12.9377L15.8224 14.9631C16.0597 15.2004 16.0597 15.5851 15.8224 15.8224C15.5851 16.0597 15.2004 16.0597 14.9631 15.8224L12.9377 13.797C12.7004 13.5597 12.7004 13.175 12.9377 12.9377Z" fill="#1C274C"/>
<path fill-rule="evenodd" clip-rule="evenodd" d="M7.33423 13.4532C10.7137 13.4532 13.4532 10.7137 13.4532 7.33423C13.4532 3.9548 10.7137 1.21523 7.33423 1.21523C3.9548 1.21523 1.21523 3.9548 1.21523 7.33423C1.21523 10.7137 3.9548 13.4532 7.33423 13.4532ZM7.33423 14.6685C11.3848 14.6685 14.6685 11.3848 14.6685 7.33423C14.6685 3.28364 11.3848 0 7.33423 0C3.28364 0 0 3.28364 0 7.33423C0 11.3848 3.28364 14.6685 7.33423 14.6685Z" fill="#1C274C"/>
<path fill-rule="evenodd" clip-rule="evenodd" d="M10.2405 7.29121C10.2405 7.62677 9.96848 7.89882 9.63291 7.89882H5.05C4.71442 7.89882 4.44238 7.62677 4.44238 7.29121C4.44239 6.95564 4.71442 6.68359 5.05 6.68359H9.63291C9.96848 6.68359 10.2405 6.95564 10.2405 7.29121Z" fill="#1C274C"/>
</svg>
