<svg width="13" height="13" viewBox="0 0 13 13" fill="none" xmlns="http://www.w3.org/2000/svg">
<path d="M4.56738 5.30106L6.59269 6.82176C6.85284 7.01704 7.21934 6.97864 7.43349 6.7337L11.4052 2.18945" stroke="#811E5C" stroke-width="0.7" stroke-linecap="round"/>
<path d="M12 6.50001C12 7.6492 11.6401 8.76949 10.9706 9.70364C10.3013 10.6378 9.35609 11.3387 8.26794 11.7081C7.17974 12.0775 6.00317 12.0968 4.90344 11.7632C3.80373 11.4296 2.83614 10.7599 2.13656 9.84823C1.43698 8.93651 1.04055 7.82856 1.00295 6.67998C0.965345 5.53139 1.28846 4.39988 1.92692 3.44437C2.56537 2.48885 3.48709 1.75732 4.56263 1.35252C5.63815 0.947715 6.8135 0.889977 7.92352 1.18741" stroke="#811E5C" stroke-width="0.7" stroke-linecap="round"/>
</svg>
