<svg width="14" height="15" viewBox="0 0 14 15" fill="none" xmlns="http://www.w3.org/2000/svg">
<path d="M8.24929 6.92959C8.96589 7.51024 9.32422 7.80053 9.32422 8.29709C9.32422 8.79365 8.96589 9.08394 8.24929 9.66459C8.05149 9.8249 7.85529 9.97581 7.67495 10.1016C7.51675 10.2119 7.33762 10.326 7.15215 10.438C6.43722 10.8698 6.07975 11.0857 5.75915 10.8467C5.43855 10.6076 5.40941 10.1072 5.35114 9.10639C5.33466 8.82331 5.32422 8.54586 5.32422 8.29709C5.32422 8.04832 5.33466 7.77087 5.35114 7.48779C5.40941 6.487 5.43855 5.98654 5.75915 5.7475C6.07975 5.50845 6.43722 5.72436 7.15215 6.15618C7.33762 6.2682 7.51675 6.38231 7.67495 6.49263C7.85529 6.61837 8.05149 6.76928 8.24929 6.92959Z" stroke="#1C274C" stroke-width="0.7"/>
<path d="M1.32422 2.62162L4.02692 1" stroke="#1C274C" stroke-width="0.7" stroke-linecap="round" stroke-linejoin="round"/>
<path d="M12.6758 2.62162L9.97314 1" stroke="#1C274C" stroke-width="0.7" stroke-linecap="round" stroke-linejoin="round"/>
<path d="M4 3.09957C4.88252 2.58906 5.90713 2.29688 7 2.29688C10.3137 2.29688 13 4.98317 13 8.29688C13 11.6106 10.3137 14.2969 7 14.2969C3.68629 14.2969 1 11.6106 1 8.29688C1 7.20401 1.29218 6.1794 1.80269 5.29688" stroke="#1C274C" stroke-width="0.7" stroke-linecap="round"/>
</svg>
