<svg width="10" height="10" viewBox="0 0 10 10" fill="none" xmlns="http://www.w3.org/2000/svg">
<path d="M9.6875 0H0.3125C0.22962 0 0.150134 0.0364557 0.0915291 0.101347C0.032924 0.166239 0 0.25425 0 0.346021L0 2.65398C0 2.74575 0.032924 2.83376 0.0915291 2.89865C0.150134 2.96354 0.22962 3 0.3125 3H9.6875C9.77038 3 9.84987 2.96354 9.90847 2.89865C9.96708 2.83376 10 2.74575 10 2.65398V0.346021C10 0.25425 9.96708 0.166239 9.90847 0.101347C9.84987 0.0364557 9.77038 0 9.6875 0ZM8.95938 1.2699H9.375V1.7301H8.95938V1.2699ZM0.625 0.692042H8.41562C8.36353 0.755501 8.33458 0.838119 8.33438 0.923875V2.07612C8.33458 2.16188 8.36353 2.2445 8.41562 2.30796H0.625V0.692042Z" fill="white"/>
<path d="M9.6875 4H0.3125C0.22962 4 0.150134 4.02433 0.0915291 4.06764C0.032924 4.11095 0 4.1697 0 4.23095L0 5.76905C0 5.8303 0.032924 5.88905 0.0915291 5.93236C0.150134 5.97567 0.22962 6 0.3125 6H9.6875C9.77038 6 9.84987 5.97567 9.90847 5.93236C9.96708 5.88905 10 5.8303 10 5.76905V4.23095C10 4.1697 9.96708 4.11095 9.90847 4.06764C9.84987 4.02433 9.77038 4 9.6875 4ZM5.83437 4.84527H9.375V5.15473H5.83437V4.84527ZM0.625 4.46189H5.29063C5.23925 4.50366 5.21034 4.55788 5.20937 4.61432V5.38568C5.21034 5.44212 5.23925 5.49634 5.29063 5.53811H0.625V4.46189Z" fill="white"/>
<path d="M9.6875 7H0.3125C0.22962 7 0.150134 7.03646 0.0915291 7.10135C0.032924 7.16624 0 7.25425 0 7.34602L0 9.65398C0 9.74575 0.032924 9.83376 0.0915291 9.89865C0.150134 9.96354 0.22962 10 0.3125 10H9.6875C9.77038 10 9.84987 9.96354 9.90847 9.89865C9.96708 9.83376 10 9.74575 10 9.65398V7.34602C10 7.25425 9.96708 7.16624 9.90847 7.10135C9.84987 7.03646 9.77038 7 9.6875 7ZM8.95938 8.2699H9.375V8.7301H8.95938V8.2699ZM0.625 7.69204H8.41562C8.36353 7.7555 8.33458 7.83812 8.33438 7.92388V9.07612C8.33458 9.16188 8.36353 9.2445 8.41562 9.30796H0.625V7.69204Z" fill="white"/>
</svg>
