<svg width="23" height="23" viewBox="0 0 23 23" fill="none" xmlns="http://www.w3.org/2000/svg">
<path d="M8.44312 6.15234C7.17866 6.15234 6.1499 7.18105 6.1499 8.44556C6.1499 9.71002 7.17861 10.7387 8.44312 10.7387C9.70758 10.7387 10.7363 9.70998 10.7363 8.44556C10.7363 7.1811 9.70762 6.15234 8.44312 6.15234ZM8.44321 9.20991C8.02171 9.20991 7.67882 8.86706 7.67882 8.44556C7.67882 8.02406 8.02171 7.68117 8.44321 7.68117C8.86471 7.68117 9.2076 8.02406 9.2076 8.44556C9.2076 8.86702 8.86467 9.20991 8.44321 9.20991Z" fill="#841D5D"/>
<path d="M14.5579 12.2656C13.2934 12.2656 12.2646 13.2943 12.2646 14.5588C12.2646 15.8232 13.2934 16.852 14.5579 16.852C15.8223 16.852 16.8511 15.8233 16.8511 14.5588C16.8511 13.2943 15.8223 12.2656 14.5579 12.2656ZM14.5579 15.3231C14.1364 15.3231 13.7935 14.9803 13.7935 14.5588C13.7935 14.1372 14.1364 13.7944 14.5579 13.7944C14.9794 13.7944 15.3223 14.1373 15.3223 14.5588C15.3223 14.9803 14.9794 15.3231 14.5579 15.3231Z" fill="#841D5D"/>
<path d="M15.2832 7.71603C14.9847 7.41757 14.5007 7.41757 14.2022 7.71603L7.71607 14.2022C7.41756 14.5006 7.41756 14.9847 7.71607 15.2832C7.86534 15.4324 8.06098 15.5071 8.25657 15.5071C8.45216 15.5071 8.64784 15.4324 8.79707 15.2832L15.2832 8.79703C15.5818 8.49853 15.5818 8.01449 15.2832 7.71603Z" fill="#841D5D"/>
<path d="M11.5 0C5.15895 0 8.07936e-05 5.15883 8.07936e-05 11.5C8.07936e-05 13.8404 0.693764 16.0738 2.01123 17.9908L0.0843093 21.8445C-0.0603841 22.1338 -0.016136 22.4819 0.1963 22.7258C0.350696 22.9031 0.571622 23 0.798567 23C0.883919 23 0.970169 22.9863 1.05395 22.958L5.65853 21.4028C7.42558 22.4488 9.43691 22.9999 11.5 22.9999C17.8411 23 23 17.8411 23 11.5C23 5.15878 17.8412 0 11.5 0ZM11.5 21.4032C9.61206 21.4032 7.77498 20.8674 6.18731 19.8538C6.05744 19.7708 5.90816 19.7283 5.75763 19.7283C5.67178 19.7283 5.58549 19.7421 5.5022 19.7703L2.37937 20.8249L3.65506 18.2736C3.79041 18.0029 3.76108 17.6788 3.57919 17.4369C2.28229 15.7115 1.59683 13.6585 1.59683 11.5C1.59683 6.03939 6.03938 1.59679 11.5 1.59679C16.9607 1.59679 21.4032 6.03939 21.4032 11.5C21.4032 16.9606 16.9606 21.4032 11.5 21.4032Z" fill="#841D5D"/>
</svg>
