<svg width="28" height="23" viewBox="0 0 28 23" fill="none" xmlns="http://www.w3.org/2000/svg">
<path d="M20.0925 11.5936C19.5599 11.9028 18.6953 11.9028 18.1571 11.5936C17.6246 11.2844 17.6188 10.7805 18.1514 10.4713C18.6839 10.1621 19.5485 10.1621 20.0867 10.4713C20.625 10.7805 20.6307 11.2844 20.0925 11.5936ZM9.89456 4.58505C9.35632 4.27584 8.4917 4.27584 7.95919 4.58505C7.42668 4.89425 7.4324 5.39813 7.96492 5.70733C8.50316 6.01653 9.36777 6.01653 9.90028 5.70733C10.4328 5.39813 10.4271 4.89425 9.89456 4.58505ZM27.3472 11.0439L19.1706 15.7964C18.2945 16.306 16.863 16.306 15.9812 15.7964L0.71588 6.98421C-0.165914 6.4746 -0.17164 5.64434 0.704428 5.13474L8.88107 0.382206C9.75714 -0.127402 11.1886 -0.127402 12.0704 0.382206L27.33 9.19442C28.2176 9.70403 28.2233 10.5343 27.3472 11.0439ZM24.2609 11.25C24.1006 11.1928 23.946 11.1298 23.8086 11.0496C22.9153 10.5343 22.9096 9.69831 23.7971 9.17725C23.9346 9.09708 24.0777 9.0341 24.238 8.97684L12.3567 2.11717C12.2823 2.18588 12.1907 2.24886 12.0876 2.30612C11.2001 2.82146 9.75141 2.82146 8.85816 2.30612C8.76082 2.24886 8.67493 2.1916 8.6005 2.12862L3.71627 4.96868C3.82506 5.01449 3.92813 5.0603 4.02547 5.11756C4.91872 5.63289 4.92444 6.46888 4.03692 6.98421C3.93386 7.04147 3.82506 7.09301 3.71055 7.13881L15.5575 13.9813C15.6148 13.9412 15.6778 13.8954 15.7465 13.8553C16.634 13.34 18.0769 13.34 18.9759 13.8553C19.1133 13.9355 19.2278 14.0214 19.3252 14.113L24.2609 11.25ZM0.286435 9.55516L16.2733 18.7854L16.4966 18.9171L16.8172 19.1003C17.2696 19.3637 17.9968 19.3637 18.4491 19.1003L27.6163 13.7752C27.9885 13.5576 27.9885 13.2026 27.6106 12.985C27.2327 12.7674 26.6257 12.7674 26.2478 12.985L17.6246 17.9952L1.67784 8.78788C1.30565 8.57602 0.704428 8.54167 0.315065 8.74208C-0.0972029 8.95966 -0.102929 9.33185 0.286435 9.55516ZM27.6278 15.8651C27.2499 15.6476 26.6429 15.6476 26.265 15.8651L17.6418 20.8811L1.69502 11.668C1.32283 11.4562 0.721606 11.4218 0.332242 11.6222C-0.0800251 11.8398 -0.0914769 12.2063 0.297887 12.4296L16.2904 21.6655L16.5195 21.7972L16.8401 21.9804C17.2925 22.2438 18.0197 22.2438 18.472 21.9804L27.6392 16.6553C28.0114 16.4377 28.0057 16.0827 27.6278 15.8651ZM17.5101 10.0991C15.5919 11.2157 12.477 11.2214 10.5473 10.1048C8.61767 8.99402 8.61767 7.19035 10.5359 6.07379C12.4541 4.95723 15.569 4.9515 17.4986 6.06806C19.4282 7.17889 19.4282 8.98829 17.5101 10.0991ZM17.0062 7.77439L16.9718 7.71141C16.7943 7.48237 16.5653 7.27624 16.2675 7.10446C16.153 7.03575 16.027 6.97849 15.8953 6.92123C15.5518 6.77808 15.1739 6.67501 14.7559 6.64638C14.2234 6.6063 13.7195 6.67501 13.25 6.81816L13.1927 6.83534L12.769 6.58912C12.7003 6.54904 12.5915 6.54904 12.5285 6.58912L12.2594 6.74372C12.1907 6.78381 12.1907 6.84679 12.2594 6.88687L12.5915 7.07583C12.517 7.11591 12.4426 7.16172 12.3739 7.2018L12.0418 7.01284C11.9731 6.97276 11.8643 6.97276 11.8013 7.01284L11.5322 7.16744C11.4635 7.20753 11.4635 7.27051 11.5322 7.31059L11.933 7.53963C11.8643 7.61407 11.7898 7.68278 11.7326 7.76294C11.452 8.16376 11.4463 8.55885 11.7898 8.95394C11.9387 9.11999 12.1219 9.26314 12.3338 9.38911C12.5399 9.50935 12.7804 9.61242 13.0438 9.69831C13.187 9.74411 13.3358 9.7842 13.4847 9.81855C13.6336 9.84718 13.7367 9.81855 13.7939 9.73839C13.8626 9.6525 13.9256 9.56089 13.9772 9.46927C14.0172 9.40628 14.0058 9.3662 13.9428 9.32612C13.9256 9.31467 13.9027 9.30322 13.8741 9.29749C13.708 9.24023 13.542 9.1887 13.3817 9.12571C13.2385 9.06845 13.1068 9.0112 12.9866 8.94248C12.8491 8.86232 12.7346 8.77643 12.643 8.67336C12.4254 8.43287 12.4884 8.20384 12.6774 7.9748L13.5305 8.46723C13.5992 8.50731 13.708 8.50731 13.771 8.46723L14.0401 8.31263C14.1088 8.27255 14.1088 8.20956 14.0401 8.16948L13.1011 7.63124C13.1755 7.58544 13.25 7.54535 13.3187 7.50527L14.2577 8.04351C14.3264 8.08359 14.4352 8.08359 14.4982 8.04351L14.7673 7.88891C14.836 7.84883 14.836 7.78584 14.7673 7.74576L13.9485 7.27624L13.96 7.27051C14.2806 7.19607 14.6013 7.17317 14.9334 7.25906C15.151 7.31059 15.3342 7.39075 15.4945 7.48237C15.6148 7.55108 15.7236 7.63124 15.8152 7.71713C15.924 7.80875 16.0156 7.91181 16.1187 8.00343C16.1358 8.01488 16.1473 8.02633 16.1645 8.03779C16.2274 8.07787 16.3076 8.08359 16.4107 8.06069C16.5653 8.02633 16.7141 7.99198 16.863 7.9519C17.0004 7.91754 17.0463 7.86028 17.0062 7.77439Z" fill="#841D5D"/>
</svg>
