<svg width="25" height="25" viewBox="0 0 25 25" fill="none" xmlns="http://www.w3.org/2000/svg">
<path d="M24 15.6944C23.3611 15.536 22.3199 15.5301 21.4444 15.536C21.1517 15.5379 21.3287 15.5255 20.9333 15.536C19.9017 15.5682 18.8909 15.997 18.8889 17.2118C18.8866 18.5061 20.1667 18.8889 21.4444 18.8889C22.7222 18.8889 24 19.1843 24 20.566C24 21.6043 22.9682 22.0593 21.6822 22.21C20.66 22.21 20.1667 22.2431 18.8889 22.0833M21.4444 22.7222V24M21.4444 13.7778V15.0556M1 12.5H15.0556M1 12.5C1 18.8513 6.14873 24 12.5 24M1 12.5C1 6.14873 6.14873 1 12.5 1M12.5 24C12.9319 24 13.3583 23.9762 13.7778 23.9299M12.5 24C3.24328 13.88 8.64304 4.45 12.5 1M12.5 1C17.5072 1 21.767 4.20009 23.3456 8.66667M12.5 1C14.2121 2.53145 16.2282 5.24125 17.1314 8.66667" stroke="#841D5D" stroke-linecap="round" stroke-linejoin="round"/>
</svg>
