<svg width="31" height="31" viewBox="0 0 31 31" fill="none" xmlns="http://www.w3.org/2000/svg">
<path d="M29.3467 8.11352e-07H1.65333C1.21565 -0.000432701 0.795691 0.172872 0.485693 0.48185C0.175696 0.790828 0.0010086 1.21021 0 1.6479V7.18983C0.0010086 7.62751 0.175696 8.04689 0.485693 8.35587C0.795691 8.66485 1.21565 8.83815 1.65333 8.83772H4.43246V29.3467C4.43216 29.4607 4.46771 29.5719 4.53407 29.6646C4.60044 29.7573 4.69426 29.8268 4.80228 29.8633C4.91108 29.8979 5.02788 29.8982 5.13685 29.8642C5.24581 29.8301 5.34167 29.7634 5.4114 29.673C6.29607 28.4909 7.49167 27.5777 8.86491 27.0353C10.2098 26.5076 11.6759 26.3682 13.0961 26.6328C13.8501 26.7699 14.5807 27.0135 15.2661 27.3561C15.7209 27.5985 16.1555 27.8767 16.566 28.1882C16.7672 28.3351 16.9739 28.4819 17.186 28.6233C18.5519 29.6238 20.1657 30.2313 21.8523 30.38C22.1405 30.3963 22.4288 30.4072 22.7279 30.4072C23.3153 30.4072 23.9353 30.3746 24.6042 30.3147C24.9929 30.2902 25.3786 30.232 25.7572 30.1407C26.2956 29.9993 26.5675 29.7328 26.5675 29.3467V8.83772H29.3467C29.7843 8.83815 30.2043 8.66485 30.5143 8.35587C30.8243 8.04689 30.999 7.62751 31 7.18983V1.6479C30.999 1.21021 30.8243 0.790828 30.5143 0.48185C30.2043 0.172872 29.7843 -0.000432701 29.3467 8.11352e-07ZM4.43246 5.53649H3.30123V3.30123H4.43246V5.53649ZM25.4798 29.0856C25.4689 29.0911 25.4635 29.0911 25.4526 29.0965C25.1435 29.1688 24.8287 29.2143 24.5118 29.2325C23.6478 29.3147 22.7791 29.3365 21.9121 29.2977C20.4206 29.1544 18.9959 28.6093 17.7896 27.7205C17.5884 27.5846 17.3926 27.4486 17.2023 27.3072C16.7444 26.9598 16.2587 26.6505 15.7502 26.3826C14.9749 25.9913 14.1468 25.7146 13.2919 25.5614C11.6705 25.2622 9.99769 25.4223 8.46246 26.0237C7.36716 26.4557 6.36745 27.0987 5.52018 27.9163V3.30123H25.4798V29.0856ZM29.9123 7.18983C29.9113 7.33903 29.8512 7.48175 29.7452 7.58674C29.6392 7.69173 29.4959 7.75044 29.3467 7.75H26.5675V6.62421H28.2426C28.3869 6.62421 28.5252 6.56691 28.6272 6.46492C28.7292 6.36293 28.7865 6.22459 28.7865 6.08035V2.75737C28.7865 2.61313 28.7292 2.4748 28.6272 2.3728C28.5252 2.27081 28.3869 2.21351 28.2426 2.21351H2.75737C2.61313 2.21351 2.4748 2.27081 2.3728 2.3728C2.27081 2.4748 2.21351 2.61313 2.21351 2.75737V6.08035C2.21351 6.22459 2.27081 6.36293 2.3728 6.46492C2.4748 6.56691 2.61313 6.62421 2.75737 6.62421H4.43246V7.75H1.65333C1.50413 7.75044 1.36084 7.69173 1.25482 7.58674C1.14881 7.48175 1.08873 7.33903 1.08772 7.18983V1.6479C1.08873 1.4987 1.14881 1.35597 1.25482 1.25098C1.36084 1.14599 1.50413 1.08729 1.65333 1.08772H29.3467C29.4959 1.08729 29.6392 1.14599 29.7452 1.25098C29.8512 1.35597 29.9113 1.4987 29.9123 1.6479V7.18983ZM26.5675 5.53649V3.30123H27.6988V5.53649H26.5675Z" fill="#831D5C"/>
<path d="M11.6114 5.52433C11.6114 5.66857 11.5541 5.8069 11.4521 5.9089C11.3501 6.01089 11.2118 6.06819 11.0675 6.06819H7.74454C7.6003 6.06819 7.46197 6.01089 7.35998 5.9089C7.25798 5.8069 7.20068 5.66857 7.20068 5.52433C7.20068 5.38009 7.25798 5.24176 7.35998 5.13976C7.46197 5.03777 7.6003 4.98047 7.74454 4.98047H11.0675C11.1389 4.98047 11.2097 4.99454 11.2757 5.02187C11.3416 5.0492 11.4016 5.08926 11.4521 5.13976C11.5026 5.19026 11.5427 5.25022 11.57 5.3162C11.5973 5.38219 11.6114 5.45291 11.6114 5.52433Z" fill="#831D5C"/>
<path d="M17.7081 5.52433C17.7081 5.66857 17.6508 5.8069 17.5488 5.9089C17.4468 6.01089 17.3085 6.06819 17.1643 6.06819H13.8359C13.6916 6.06819 13.5533 6.01089 13.4513 5.9089C13.3493 5.8069 13.292 5.66857 13.292 5.52433C13.292 5.38009 13.3493 5.24176 13.4513 5.13976C13.5533 5.03777 13.6916 4.98047 13.8359 4.98047H17.1643C17.3085 4.98047 17.4468 5.03777 17.5488 5.13976C17.6508 5.24176 17.7081 5.38009 17.7081 5.52433Z" fill="#831D5C"/>
<path d="M23.7994 5.52433C23.7994 5.66857 23.7421 5.8069 23.6401 5.9089C23.5381 6.01089 23.3998 6.06819 23.2555 6.06819H19.9325C19.7883 6.06819 19.65 6.01089 19.548 5.9089C19.446 5.8069 19.3887 5.66857 19.3887 5.52433C19.3887 5.38009 19.446 5.24176 19.548 5.13976C19.65 5.03777 19.7883 4.98047 19.9325 4.98047H23.2555C23.3998 4.98047 23.5381 5.03777 23.6401 5.13976C23.7421 5.24176 23.7994 5.38009 23.7994 5.52433Z" fill="#831D5C"/>
<path d="M17.1643 11.9262C17.0881 12.1851 16.944 12.4189 16.747 12.6035C16.55 12.788 16.3073 12.9166 16.044 12.9758V13.2695C16.044 13.4138 15.9867 13.5521 15.8847 13.6541C15.7827 13.7561 15.6444 13.8134 15.5001 13.8134C15.3559 13.8134 15.2175 13.7561 15.1156 13.6541C15.0136 13.5521 14.9563 13.4138 14.9563 13.2695V12.8888C14.7114 12.7877 14.4765 12.6639 14.2547 12.519C14.1677 12.4646 14.0806 12.4102 13.9991 12.3667C13.8729 12.2968 13.7796 12.1795 13.7398 12.0408C13.7001 11.9021 13.717 11.7533 13.787 11.6271C13.8569 11.5009 13.9741 11.4076 14.1129 11.3678C14.2516 11.3281 14.4004 11.345 14.5266 11.415C14.6245 11.4694 14.7278 11.5292 14.8312 11.5944C15.0703 11.7864 15.3587 11.907 15.6633 11.9425C15.7598 11.9433 15.8543 11.9153 15.9347 11.862C16.0152 11.8087 16.0778 11.7326 16.1147 11.6434C16.131 11.5781 16.131 11.4966 16.0005 11.4095L14.668 10.5176C14.511 10.4157 14.3768 10.2824 14.2739 10.1261C14.1709 9.96976 14.1014 9.79383 14.0698 9.60936C14.0433 9.43538 14.0538 9.25778 14.1007 9.08815C14.1476 8.91852 14.2297 8.76069 14.3417 8.62497C14.5038 8.42359 14.7156 8.26799 14.9563 8.17357V7.7548C14.9563 7.61056 15.0136 7.47222 15.1156 7.37023C15.2175 7.26824 15.3559 7.21094 15.5001 7.21094C15.6444 7.21094 15.7827 7.26824 15.8847 7.37023C15.9867 7.47222 16.044 7.61056 16.044 7.7548V8.11918C16.2085 8.16189 16.3647 8.23173 16.5063 8.32585L17.0392 8.67936C17.0986 8.71929 17.1495 8.77055 17.189 8.83018C17.2285 8.88981 17.2559 8.95665 17.2695 9.02688C17.2831 9.0971 17.2828 9.16932 17.2685 9.23941C17.2542 9.3095 17.2262 9.37607 17.1861 9.43532C17.1468 9.49466 17.0961 9.5456 17.037 9.58517C16.9778 9.62474 16.9114 9.65216 16.8416 9.66582C16.7717 9.67948 16.6999 9.67913 16.6302 9.66476C16.5605 9.6504 16.4943 9.62233 16.4356 9.58217L15.9026 9.22866C15.7932 9.15841 15.6634 9.12717 15.534 9.14C15.4047 9.15284 15.2835 9.20899 15.1901 9.29936C15.1722 9.31892 15.1589 9.34231 15.1514 9.36775C15.1439 9.3932 15.1422 9.42003 15.1466 9.4462C15.1646 9.51662 15.2095 9.57716 15.2717 9.6148L16.6096 10.5067C16.8425 10.6521 17.0224 10.8687 17.1223 11.1245C17.2223 11.3802 17.237 11.6614 17.1643 11.9262Z" fill="#831D5C"/>
<path d="M17.7081 22.1454C17.7081 22.2897 17.6508 22.428 17.5488 22.53C17.4468 22.632 17.3084 22.6893 17.1642 22.6893H7.74454C7.6003 22.6893 7.46197 22.632 7.35998 22.53C7.25798 22.428 7.20068 22.2897 7.20068 22.1454C7.20068 22.0012 7.25798 21.8628 7.35998 21.7609C7.46197 21.6589 7.6003 21.6016 7.74454 21.6016H17.1642C17.3084 21.6016 17.4468 21.6589 17.5488 21.7609C17.6508 21.8628 17.7081 22.0012 17.7081 22.1454Z" fill="#831D5C"/>
<path d="M23.7994 15.5009C23.7994 15.6451 23.7421 15.7835 23.6401 15.8855C23.5381 15.9875 23.3998 16.0448 23.2555 16.0448H19.9325C19.7883 16.0448 19.65 15.9875 19.548 15.8855C19.446 15.7835 19.3887 15.6451 19.3887 15.5009C19.3887 15.3567 19.446 15.2183 19.548 15.1163C19.65 15.0143 19.7883 14.957 19.9325 14.957H23.2555C23.3998 14.957 23.5381 15.0143 23.6401 15.1163C23.7421 15.2183 23.7994 15.3567 23.7994 15.5009Z" fill="#831D5C"/>
<path d="M23.7994 17.7118C23.7994 17.8561 23.7421 17.9944 23.6401 18.0964C23.5381 18.1984 23.3998 18.2557 23.2555 18.2557H19.9325C19.7883 18.2557 19.65 18.1984 19.548 18.0964C19.446 17.9944 19.3887 17.8561 19.3887 17.7118C19.3887 17.5676 19.446 17.4293 19.548 17.3273C19.65 17.2253 19.7883 17.168 19.9325 17.168H23.2555C23.3998 17.168 23.5381 17.2253 23.6401 17.3273C23.7421 17.4293 23.7994 17.5676 23.7994 17.7118Z" fill="#831D5C"/>
<path d="M23.7994 19.9267C23.7994 20.0709 23.7421 20.2092 23.6401 20.3112C23.5381 20.4132 23.3998 20.4705 23.2555 20.4705H19.9325C19.7883 20.4705 19.65 20.4132 19.548 20.3112C19.446 20.2092 19.3887 20.0709 19.3887 19.9267C19.3887 19.7824 19.446 19.6441 19.548 19.5421C19.65 19.4401 19.7883 19.3828 19.9325 19.3828H23.2555C23.3998 19.3828 23.5381 19.4401 23.6401 19.5421C23.7421 19.6441 23.7994 19.7824 23.7994 19.9267Z" fill="#831D5C"/>
<path d="M23.7994 22.1454C23.7994 22.2897 23.7421 22.428 23.6401 22.53C23.5381 22.632 23.3998 22.6893 23.2555 22.6893H19.9325C19.7883 22.6893 19.65 22.632 19.548 22.53C19.446 22.428 19.3887 22.2897 19.3887 22.1454C19.3887 22.0012 19.446 21.8628 19.548 21.7609C19.65 21.6589 19.7883 21.6016 19.9325 21.6016H23.2555C23.3998 21.6016 23.5381 21.6589 23.6401 21.7609C23.7421 21.8628 23.7994 22.0012 23.7994 22.1454Z" fill="#831D5C"/>
<path d="M17.7081 19.9267C17.7081 20.0709 17.6508 20.2092 17.5488 20.3112C17.4468 20.4132 17.3084 20.4705 17.1642 20.4705H7.74454C7.6003 20.4705 7.46197 20.4132 7.35998 20.3112C7.25798 20.2092 7.20068 20.0709 7.20068 19.9267C7.20068 19.7824 7.25798 19.6441 7.35998 19.5421C7.46197 19.4401 7.6003 19.3828 7.74454 19.3828H17.1642C17.3084 19.3828 17.4468 19.4401 17.5488 19.5421C17.6508 19.6441 17.7081 19.7824 17.7081 19.9267Z" fill="#831D5C"/>
<path d="M17.7081 17.7118C17.7081 17.8561 17.6508 17.9944 17.5488 18.0964C17.4468 18.1984 17.3084 18.2557 17.1642 18.2557H7.74454C7.6003 18.2557 7.46197 18.1984 7.35998 18.0964C7.25798 17.9944 7.20068 17.8561 7.20068 17.7118C7.20068 17.5676 7.25798 17.4293 7.35998 17.3273C7.46197 17.2253 7.6003 17.168 7.74454 17.168H17.1642C17.3084 17.168 17.4468 17.2253 17.5488 17.3273C17.6508 17.4293 17.7081 17.5676 17.7081 17.7118Z" fill="#831D5C"/>
<path d="M17.7081 15.5009C17.7081 15.6451 17.6508 15.7835 17.5488 15.8855C17.4468 15.9875 17.3084 16.0448 17.1642 16.0448H7.74454C7.6003 16.0448 7.46197 15.9875 7.35998 15.8855C7.25798 15.7835 7.20068 15.6451 7.20068 15.5009C7.20068 15.3567 7.25798 15.2183 7.35998 15.1163C7.46197 15.0143 7.6003 14.957 7.74454 14.957H17.1642C17.3084 14.957 17.4468 15.0143 17.5488 15.1163C17.6508 15.2183 17.7081 15.3567 17.7081 15.5009Z" fill="#831D5C"/>
</svg>
