<svg width="10" height="10" viewBox="0 0 10 10" fill="none" xmlns="http://www.w3.org/2000/svg">
<path d="M7.10424 4.77608C8.15124 4.77608 9 3.93076 9 2.88803C9 1.8453 8.15124 1 7.10424 1C6.0572 1 5.20844 1.8453 5.20844 2.88803C5.20844 3.37101 5.42888 3.72227 5.42888 3.72227L3.13632 6.00547C3.03345 6.10791 2.88943 6.37431 3.13632 6.62019L3.40085 6.88363C3.50372 6.97143 3.76236 7.09439 3.97398 6.88363L4.2826 6.57627C4.5912 6.88363 4.94392 6.70799 5.07616 6.53235C5.2966 6.22499 5.03208 5.91767 5.03208 5.91767L5.12028 5.82983C5.54352 6.25135 5.91384 6.00547 6.04612 5.82983C6.26656 5.52247 6.04612 5.21511 6.04612 5.21511C5.95792 5.03952 5.7816 5.03952 6.002 4.81996L6.26656 4.55652C6.47816 4.73216 6.91316 4.77608 7.10424 4.77608Z" stroke="#042E60" stroke-width="0.5" stroke-linejoin="round"/>
<path d="M1 4.99596C1 6.88348 1 7.82724 1.58638 8.41364C2.17275 9 3.11651 9 5.00404 9C6.89152 9 7.83528 9 8.42168 8.41364C8.86768 7.9676 8.97444 7.3148 9 6.1972M3.80282 1C2.68519 1.02555 2.0324 1.13231 1.58638 1.57834C1.19566 1.96905 1.06528 2.51845 1.02178 3.4" stroke="#042E60" stroke-width="0.5" stroke-linecap="round"/>
</svg>
