<svg width="10" height="10" viewBox="0 0 10 10" fill="none" xmlns="http://www.w3.org/2000/svg">
<path d="M6.25 6.25H8.125V5.625H6.25V6.25Z" fill="#042E60"/>
<path d="M7.5 8.75H9.375V8.125H7.5V8.75Z" fill="#042E60"/>
<path d="M6.875 7.5H8.75V6.875H6.875V7.5Z" fill="#042E60"/>
<path d="M5.31349 6.25C5.31126 5.98631 5.24091 5.72767 5.10926 5.49919C4.97761 5.27071 4.78913 5.08014 4.56211 4.94597L6.87508 0.9375L6.33418 0.625L3.96674 4.72688C3.67613 4.66193 3.37388 4.67089 3.08763 4.75294C2.80139 4.83499 2.54028 4.9875 2.32821 5.19653C1.15833 6.325 1.24893 8.96316 1.25321 9.075C1.25644 9.15569 1.29078 9.23201 1.34904 9.28793C1.4073 9.34386 1.48495 9.37506 1.56571 9.375H6.25046C6.31605 9.375 6.37997 9.35436 6.43318 9.31601C6.48639 9.27766 6.52618 9.22354 6.54692 9.16132C6.56766 9.0991 6.5683 9.03193 6.54874 8.96932C6.52919 8.90672 6.49043 8.85185 6.43796 8.8125C5.3318 7.98247 5.31349 6.26678 5.31349 6.25ZM3.72821 5.31159C3.97832 5.31433 4.21775 5.4134 4.39668 5.58819C4.57561 5.76297 4.68026 6.00002 4.68886 6.25C4.68886 6.26191 4.68946 6.315 4.69411 6.3965L2.85055 5.57662C2.97198 5.47649 3.1121 5.40149 3.26277 5.356C3.41344 5.3105 3.57165 5.2954 3.72821 5.31159ZM4.82802 8.75C4.5783 8.49564 4.41915 8.16622 4.37508 7.8125H3.75008C3.77249 8.1451 3.87642 8.46707 4.05271 8.75H3.35793C3.2294 8.34444 3.1512 7.92463 3.12508 7.5H2.50008C2.52026 7.92336 2.59002 8.3429 2.70796 8.75H1.87508C1.88477 8.17613 1.96571 6.90872 2.43843 6.07728L4.79249 7.12416C4.90571 7.71143 5.14696 8.26655 5.49908 8.75H4.82802Z" fill="#042E60"/>
</svg>
