<svg width="9" height="8" viewBox="0 0 9 8" fill="none" xmlns="http://www.w3.org/2000/svg">
<path d="M8.9341 7.62632C8.38223 7.11928 7.98258 6.46336 7.80533 5.72567L7.80014 5.69988C8.34379 5.13687 8.6812 4.38423 8.69462 3.55598V3.55334C8.69462 1.59379 6.74428 0 4.34731 0C1.95034 0 0 1.59379 0 3.55334C0 5.5129 1.95034 7.10698 4.34731 7.10698C4.34853 7.10698 4.35006 7.10698 4.35158 7.10698C4.92604 7.10698 5.47761 7.01348 5.99105 6.84144L5.95627 6.8517C6.7275 7.42673 7.66591 7.83148 8.68974 7.99091L8.72482 7.99531C8.73886 7.99824 8.75472 7.99971 8.77119 8C8.8975 8 9 7.90152 9 7.78019C9 7.72011 8.97498 7.66588 8.93441 7.62603L8.9341 7.62632ZM6.15518 6.44666C6.15213 6.44402 6.14755 6.44549 6.1445 6.44285C6.10545 6.41061 6.0542 6.39097 5.99837 6.39097C5.99166 6.39097 5.98648 6.39302 5.97976 6.39361C5.95841 6.3939 5.93797 6.39683 5.91875 6.4024L5.92027 6.40211C5.45778 6.57034 4.92299 6.66764 4.3647 6.66764C4.3586 6.66764 4.3525 6.66764 4.3464 6.66764H4.34731C2.20264 6.66764 0.457612 5.27081 0.457612 3.55363C0.457612 1.83646 2.20264 0.439918 4.34731 0.439918C6.49229 0.439918 8.23701 1.83675 8.23701 3.55363C8.22969 4.3136 7.90539 4.99971 7.38555 5.49678L7.3825 5.5044C7.34863 5.54074 7.32758 5.5888 7.32667 5.64156C7.32636 5.64596 7.32606 5.65152 7.32606 5.65651C7.32606 5.65856 7.32606 5.66061 7.32606 5.66295C7.32545 5.66794 7.32545 5.67351 7.32545 5.67966C7.32545 5.682 7.32545 5.68435 7.32545 5.68669C7.45205 6.34496 7.73425 6.92526 8.1345 7.41178L8.1281 7.40358C7.36663 7.22362 6.70371 6.89156 6.14816 6.4408L6.15549 6.44637L6.15518 6.44666Z" fill="#042E60"/>
</svg>
