<svg width="7" height="7" viewBox="0 0 7 7" fill="none" xmlns="http://www.w3.org/2000/svg">
<path d="M2 3H2.00337M3.49663 3H3.5M4.99662 3H5" stroke="#042E60" stroke-linecap="round" stroke-linejoin="round"/>
<path d="M6.70874e-08 3.01164C6.70874e-08 3.14649 0.109327 3.25582 0.244186 3.25582C0.379045 3.25582 0.488372 3.14649 0.488372 3.01164H6.70874e-08ZM0.593701 4.6807C0.542093 4.5561 0.399251 4.49694 0.274657 4.54855C0.150064 4.60015 0.0908959 4.74298 0.142504 4.86758L0.593701 4.6807ZM4.06394 6.68085L4.24044 6.38268L3.82014 6.1339L3.64365 6.4321L4.06394 6.68085ZM2.75956 6.38268L2.93606 6.68085L3.35632 6.4321L3.17982 6.1339L2.75956 6.38268ZM3.64365 6.4321C3.58091 6.53811 3.41909 6.53811 3.35632 6.4321L2.93606 6.68085C3.18793 7.10638 3.81207 7.10638 4.06394 6.68085L3.64365 6.4321ZM3.01163 0.488373H3.98837V6.70875e-08H3.01163V0.488373ZM6.51163 3.01164V3.33722H7V3.01164H6.51163ZM2.13337 5.53216C1.72462 5.5251 1.51045 5.49912 1.34256 5.42957L1.15567 5.88076C1.41776 5.98931 1.71626 6.01341 2.12496 6.02044L2.13337 5.53216ZM0.142504 4.86758C0.33251 5.3263 0.696959 5.69075 1.15567 5.88076L1.34256 5.42957C1.00351 5.28911 0.734141 5.01976 0.593701 4.6807L0.142504 4.86758ZM6.51163 3.33722C6.51163 3.71981 6.5115 3.99454 6.49672 4.21131C6.48207 4.4259 6.45387 4.56583 6.4063 4.6807L6.85749 4.86758C6.93384 4.6833 6.96761 4.48402 6.98395 4.24455C7.00013 4.0073 7 3.71313 7 3.33722H6.51163ZM4.87503 6.02044C5.28373 6.01341 5.58226 5.98931 5.84432 5.88076L5.65743 5.42957C5.48956 5.49912 5.27536 5.5251 4.86663 5.53216L4.87503 6.02044ZM6.4063 4.6807C6.26585 5.01976 5.99649 5.28911 5.65743 5.42957L5.84432 5.88076C6.30303 5.69075 6.66748 5.3263 6.85749 4.86758L6.4063 4.6807ZM3.98837 0.488373C4.52597 0.488373 4.91205 0.488631 5.21318 0.517262C5.51069 0.545549 5.69999 0.599797 5.85089 0.692279L6.10608 0.275872C5.86551 0.128465 5.59264 0.062769 5.25941 0.0310834C4.92979 -0.000257157 4.51653 6.70875e-08 3.98837 6.70875e-08V0.488373ZM7 3.01164C7 2.48348 7.00026 2.07021 6.96891 1.7406C6.93723 1.40735 6.87153 1.13447 6.72413 0.893928L6.30772 1.1491C6.40021 1.30002 6.45446 1.48932 6.48275 1.78682C6.51137 2.08796 6.51163 2.47402 6.51163 3.01164H7ZM5.85089 0.692279C6.03709 0.806376 6.19363 0.962916 6.30772 1.1491L6.72413 0.893928C6.56978 0.642029 6.35799 0.430237 6.10608 0.275872L5.85089 0.692279ZM3.01163 6.70875e-08C2.48347 6.70875e-08 2.07021 -0.000257157 1.74059 0.0310834C1.40735 0.062769 1.13447 0.128465 0.893926 0.275872L1.1491 0.692279C1.30002 0.599797 1.48932 0.545549 1.78682 0.517262C2.08795 0.488631 2.47401 0.488373 3.01163 0.488373V6.70875e-08ZM0.488372 3.01164C0.488372 2.47402 0.488629 2.08796 0.517261 1.78682C0.545548 1.48932 0.599796 1.30002 0.692277 1.1491L0.275872 0.893928C0.128465 1.13447 0.0627689 1.40735 0.0310833 1.7406C-0.000257156 2.07021 6.70874e-08 2.48348 6.70874e-08 3.01164H0.488372ZM0.893926 0.275872C0.642027 0.430237 0.430236 0.642029 0.275872 0.893928L0.692277 1.1491C0.806374 0.962916 0.962914 0.806376 1.1491 0.692279L0.893926 0.275872ZM3.17982 6.1339C3.11373 6.02223 3.05571 5.92368 2.99929 5.84625C2.93984 5.76473 2.87169 5.69131 2.77716 5.63632L2.53163 6.0585C2.54707 6.06745 2.56809 6.08383 2.6046 6.1339C2.64412 6.18815 2.68877 6.26306 2.75956 6.38268L3.17982 6.1339ZM2.12496 6.02044C2.26792 6.02291 2.35847 6.02474 2.4275 6.03235C2.492 6.03952 2.517 6.04997 2.53163 6.0585L2.77716 5.63632C2.68185 5.58087 2.58266 5.55818 2.48125 5.54694C2.38436 5.53623 2.26727 5.53447 2.13337 5.53216L2.12496 6.02044ZM4.24044 6.38268C4.31122 6.26306 4.35586 6.18815 4.39538 6.1339C4.43188 6.08383 4.45291 6.06745 4.46834 6.0585L4.22282 5.63632C4.12831 5.69131 4.06013 5.76473 4.00071 5.84625C3.94429 5.92368 3.88627 6.02223 3.82014 6.1339L4.24044 6.38268ZM4.86663 5.53216C4.73272 5.53447 4.61564 5.53623 4.51874 5.54694C4.41733 5.55818 4.31815 5.58087 4.22282 5.63632L4.46834 6.0585C4.483 6.04997 4.508 6.03952 4.5725 6.03235C4.64152 6.02474 4.73207 6.02291 4.87503 6.02044L4.86663 5.53216Z" fill="#042E60"/>
</svg>
