<svg width="8" height="8" viewBox="0 0 8 8" fill="none" xmlns="http://www.w3.org/2000/svg">
<path fill-rule="evenodd" clip-rule="evenodd" d="M3.71658 0.576328C3.48811 0.606523 3.20596 0.67133 2.80461 0.763948L2.34762 0.869411C2.00863 0.947636 1.77519 1.00187 1.59688 1.06306C1.42474 1.12214 1.32736 1.18038 1.25387 1.25387C1.18038 1.32736 1.12214 1.42474 1.06306 1.59688C1.00187 1.77519 0.947636 2.00863 0.869411 2.34762L0.763948 2.80461C0.67133 3.20596 0.606523 3.48811 0.576328 3.71658C0.54691 3.93916 0.553693 4.08979 0.59296 4.22668C0.632227 4.36361 0.706296 4.49492 0.849213 4.66806C0.995911 4.8458 1.2004 5.05072 1.49165 5.34199L2.17245 6.02277C2.6783 6.52863 3.03826 6.88774 3.34772 7.12387C3.65075 7.35505 3.87233 7.44186 4.0976 7.44186C4.3229 7.44186 4.54448 7.35505 4.84748 7.12387C5.15695 6.88774 5.51691 6.52863 6.02277 6.02277C6.52863 5.51691 6.88774 5.15695 7.12387 4.84748C7.35505 4.54448 7.44186 4.3229 7.44186 4.0976C7.44186 3.87233 7.35505 3.65075 7.12387 3.34772C6.88774 3.03826 6.52863 2.6783 6.02277 2.17245L5.34199 1.49165C5.05072 1.2004 4.8458 0.995911 4.66806 0.849213C4.49492 0.706296 4.36361 0.632227 4.22668 0.59296C4.08979 0.553693 3.93916 0.54691 3.71658 0.576328ZM3.64346 0.0229993C3.91036 -0.0122751 4.14441 -0.0112779 4.38054 0.0564468C4.61671 0.124175 4.8157 0.247375 5.02333 0.418746C5.22407 0.584413 5.44763 0.807963 5.72688 1.08724L6.4323 1.79265C6.91996 2.28032 7.30608 2.66641 7.56759 3.00917C7.83665 3.36182 8 3.70121 8 4.0976C8 4.49399 7.83665 4.83338 7.56759 5.18605C7.30608 5.52882 6.91996 5.9149 6.4323 6.40257L6.40257 6.4323C5.9149 6.91996 5.52882 7.30608 5.18605 7.56759C4.83338 7.83665 4.49399 8 4.0976 8C3.70121 8 3.36182 7.83665 3.00917 7.56759C2.66641 7.30608 2.28031 6.91996 1.79264 6.4323L1.08724 5.72688C0.807963 5.44763 0.584413 5.22407 0.418746 5.02333C0.247375 4.8157 0.124175 4.61671 0.0564468 4.38054C-0.0112779 4.14441 -0.0122751 3.91036 0.0229993 3.64346C0.0570979 3.38545 0.12819 3.07739 0.217001 2.69255L0.328875 2.20775C0.402984 1.8866 0.463416 1.6247 0.535148 1.4157C0.610065 1.19742 0.704421 1.01399 0.859208 0.859208C1.01399 0.704421 1.19742 0.610065 1.4157 0.535148C1.6247 0.463416 1.8866 0.402984 2.20776 0.328875L2.69255 0.217001C3.07738 0.12819 3.38545 0.0570979 3.64346 0.0229993ZM3.0664 2.50982C2.88476 2.32818 2.59026 2.32818 2.40862 2.50982C2.22698 2.69146 2.22698 2.98596 2.40862 3.16759C2.59026 3.34925 2.88476 3.34925 3.0664 3.16759C3.24803 2.98596 3.24803 2.69146 3.0664 2.50982ZM2.01396 2.11516C2.41356 1.71555 3.06146 1.71555 3.46106 2.11516C3.86065 2.51477 3.86065 3.16265 3.46106 3.56227C3.06146 3.96186 2.41356 3.96186 2.01396 3.56227C1.61435 3.16265 1.61435 2.51477 2.01396 2.11516ZM6.62366 3.62426C6.73265 3.73325 6.73265 3.90992 6.62366 4.0189L4.02683 6.61585C3.91784 6.72484 3.74114 6.72484 3.63215 6.61585C3.52316 6.50687 3.52316 6.33016 3.63215 6.22117L6.22899 3.62426C6.33797 3.51527 6.51468 3.51527 6.62366 3.62426Z" fill="#1C274C"/>
</svg>
